%TF.GenerationSoftware,KiCad,Pcbnew,9.0.2*%
%TF.CreationDate,2025-06-04T20:07:21+07:00*%
%TF.ProjectId,Pneumatic,506e6575-6d61-4746-9963-2e6b69636164,rev?*%
%TF.SameCoordinates,Original*%
%TF.FileFunction,Paste,Top*%
%TF.FilePolarity,Positive*%
%FSLAX46Y46*%
G04 Gerber Fmt 4.6, Leading zero omitted, Abs format (unit mm)*
G04 Created by KiCad (PCBNEW 9.0.2) date 2025-06-04 20:07:21*
%MOMM*%
%LPD*%
G01*
G04 APERTURE LIST*
G04 Aperture macros list*
%AMRoundRect*
0 Rectangle with rounded corners*
0 $1 Rounding radius*
0 $2 $3 $4 $5 $6 $7 $8 $9 X,Y pos of 4 corners*
0 Add a 4 corners polygon primitive as box body*
4,1,4,$2,$3,$4,$5,$6,$7,$8,$9,$2,$3,0*
0 Add four circle primitives for the rounded corners*
1,1,$1+$1,$2,$3*
1,1,$1+$1,$4,$5*
1,1,$1+$1,$6,$7*
1,1,$1+$1,$8,$9*
0 Add four rect primitives between the rounded corners*
20,1,$1+$1,$2,$3,$4,$5,0*
20,1,$1+$1,$4,$5,$6,$7,0*
20,1,$1+$1,$6,$7,$8,$9,0*
20,1,$1+$1,$8,$9,$2,$3,0*%
G04 Aperture macros list end*
%ADD10RoundRect,0.237500X-0.237500X0.250000X-0.237500X-0.250000X0.237500X-0.250000X0.237500X0.250000X0*%
%ADD11RoundRect,0.237500X0.250000X0.237500X-0.250000X0.237500X-0.250000X-0.237500X0.250000X-0.237500X0*%
%ADD12RoundRect,0.237500X0.237500X-0.300000X0.237500X0.300000X-0.237500X0.300000X-0.237500X-0.300000X0*%
%ADD13RoundRect,0.150000X0.150000X-0.662500X0.150000X0.662500X-0.150000X0.662500X-0.150000X-0.662500X0*%
%ADD14RoundRect,0.250000X1.125000X-1.275000X1.125000X1.275000X-1.125000X1.275000X-1.125000X-1.275000X0*%
%ADD15RoundRect,0.250000X0.350000X-0.850000X0.350000X0.850000X-0.350000X0.850000X-0.350000X-0.850000X0*%
%ADD16RoundRect,0.237500X0.237500X-0.287500X0.237500X0.287500X-0.237500X0.287500X-0.237500X-0.287500X0*%
%ADD17RoundRect,0.237500X0.237500X-0.250000X0.237500X0.250000X-0.237500X0.250000X-0.237500X-0.250000X0*%
%ADD18RoundRect,0.237500X-0.237500X0.287500X-0.237500X-0.287500X0.237500X-0.287500X0.237500X0.287500X0*%
G04 APERTURE END LIST*
D10*
%TO.C,R30*%
X105650000Y-67175000D03*
X105650000Y-69000000D03*
%TD*%
D11*
%TO.C,R20*%
X107845000Y-118125000D03*
X106020000Y-118125000D03*
%TD*%
D12*
%TO.C,C1*%
X134620000Y-103833000D03*
X134620000Y-102108000D03*
%TD*%
D13*
%TO.C,U7*%
X102810000Y-118512500D03*
X104080000Y-118512500D03*
X104080000Y-112137500D03*
X102810000Y-112137500D03*
%TD*%
D14*
%TO.C,Q5*%
X102600000Y-80500000D03*
X105650000Y-80500000D03*
X102600000Y-77150000D03*
X105650000Y-77150000D03*
D15*
X101845000Y-85125000D03*
X106405000Y-85125000D03*
%TD*%
D16*
%TO.C,D12*%
X107845000Y-116125000D03*
X107845000Y-114375000D03*
%TD*%
%TO.C,D11*%
X107252500Y-92225000D03*
X107252500Y-90475000D03*
%TD*%
D17*
%TO.C,R28*%
X106045000Y-116225000D03*
X106045000Y-114400000D03*
%TD*%
D14*
%TO.C,Q6*%
X102600000Y-104100000D03*
X105650000Y-104100000D03*
X102600000Y-100750000D03*
X105650000Y-100750000D03*
D15*
X101845000Y-108725000D03*
X106405000Y-108725000D03*
%TD*%
D16*
%TO.C,D7*%
X100645000Y-116125000D03*
X100645000Y-114375000D03*
%TD*%
D11*
%TO.C,R25*%
X107277500Y-88725000D03*
X105452500Y-88725000D03*
%TD*%
D13*
%TO.C,U8*%
X102117500Y-94725000D03*
X103387500Y-94725000D03*
X103387500Y-88350000D03*
X102117500Y-88350000D03*
%TD*%
D17*
%TO.C,R29*%
X105552500Y-92425000D03*
X105552500Y-90600000D03*
%TD*%
D11*
%TO.C,R24*%
X107870000Y-112425000D03*
X106045000Y-112425000D03*
%TD*%
%TO.C,R21*%
X107377500Y-94325000D03*
X105552500Y-94325000D03*
%TD*%
D16*
%TO.C,D6*%
X100125000Y-92425000D03*
X100125000Y-90675000D03*
%TD*%
D18*
%TO.C,D8*%
X104125000Y-67225000D03*
X104125000Y-68975000D03*
%TD*%
M02*
