%TF.GenerationSoftware,KiCad,Pcbnew,9.0.2*%
%TF.CreationDate,2025-06-04T00:20:04+07:00*%
%TF.ProjectId,Pneumatic,506e6575-6d61-4746-9963-2e6b69636164,rev?*%
%TF.SameCoordinates,Original*%
%TF.FileFunction,Legend,Bot*%
%TF.FilePolarity,Positive*%
%FSLAX46Y46*%
G04 Gerber Fmt 4.6, Leading zero omitted, Abs format (unit mm)*
G04 Created by KiCad (PCBNEW 9.0.2) date 2025-06-04 00:20:04*
%MOMM*%
%LPD*%
G01*
G04 APERTURE LIST*
%ADD10C,0.150000*%
%ADD11C,0.120000*%
G04 APERTURE END LIST*
D10*
X96333333Y-66074819D02*
X96333333Y-66789104D01*
X96333333Y-66789104D02*
X96380952Y-66931961D01*
X96380952Y-66931961D02*
X96476190Y-67027200D01*
X96476190Y-67027200D02*
X96619047Y-67074819D01*
X96619047Y-67074819D02*
X96714285Y-67074819D01*
X95333333Y-67074819D02*
X95904761Y-67074819D01*
X95619047Y-67074819D02*
X95619047Y-66074819D01*
X95619047Y-66074819D02*
X95714285Y-66217676D01*
X95714285Y-66217676D02*
X95809523Y-66312914D01*
X95809523Y-66312914D02*
X95904761Y-66360533D01*
D11*
%TO.C,J2*%
X136620000Y-70270000D02*
X136620000Y-118640000D01*
X139380000Y-67620000D02*
X138000000Y-67620000D01*
X139380000Y-69000000D02*
X139380000Y-67620000D01*
X139380000Y-70270000D02*
X136620000Y-70270000D01*
X139380000Y-70270000D02*
X139380000Y-118640000D01*
X139380000Y-118640000D02*
X136620000Y-118640000D01*
%TO.C,J1*%
X94620000Y-70270000D02*
X94620000Y-118640000D01*
X97380000Y-67620000D02*
X96000000Y-67620000D01*
X97380000Y-69000000D02*
X97380000Y-67620000D01*
X97380000Y-70270000D02*
X94620000Y-70270000D01*
X97380000Y-70270000D02*
X97380000Y-118640000D01*
X97380000Y-118640000D02*
X94620000Y-118640000D01*
%TD*%
M02*
