%TF.GenerationSoftware,KiCad,Pcbnew,9.0.2*%
%TF.CreationDate,2025-06-04T00:20:04+07:00*%
%TF.ProjectId,Pneumatic,506e6575-6d61-4746-9963-2e6b69636164,rev?*%
%TF.SameCoordinates,Original*%
%TF.FileFunction,Soldermask,Bot*%
%TF.FilePolarity,Negative*%
%FSLAX46Y46*%
G04 Gerber Fmt 4.6, Leading zero omitted, Abs format (unit mm)*
G04 Created by KiCad (PCBNEW 9.0.2) date 2025-06-04 00:20:04*
%MOMM*%
%LPD*%
G01*
G04 APERTURE LIST*
%ADD10R,1.700000X1.700000*%
%ADD11C,1.700000*%
G04 APERTURE END LIST*
D10*
%TO.C,U1*%
X130556000Y-69088000D03*
D11*
X115336000Y-117348000D03*
X115336000Y-112268000D03*
X130556000Y-74168000D03*
D10*
X115336000Y-69088000D03*
D11*
X115336000Y-71628000D03*
X115336000Y-74168000D03*
X115336000Y-76708000D03*
X115336000Y-79248000D03*
X115336000Y-81788000D03*
X115336000Y-84328000D03*
X115336000Y-86868000D03*
X115336000Y-89408000D03*
X115336000Y-91948000D03*
X115336000Y-94488000D03*
X115336000Y-97028000D03*
X115336000Y-99568000D03*
X115336000Y-102108000D03*
X115336000Y-104648000D03*
X115336000Y-107188000D03*
X115336000Y-109728000D03*
X130556000Y-76708000D03*
X130556000Y-79248000D03*
X130556000Y-81788000D03*
X130556000Y-84328000D03*
X130556000Y-86868000D03*
X130556000Y-89408000D03*
X130556000Y-91948000D03*
X130556000Y-94488000D03*
X130556000Y-97028000D03*
X130556000Y-99568000D03*
X130556000Y-102108000D03*
X130556000Y-104648000D03*
X130556000Y-107188000D03*
X130556000Y-109728000D03*
X130556000Y-112268000D03*
X130556000Y-114808000D03*
X130556000Y-117348000D03*
X115336000Y-114808000D03*
X130556000Y-71628000D03*
%TD*%
D10*
%TO.C,J2*%
X138000000Y-69000000D03*
D11*
X138000000Y-71540000D03*
X138000000Y-74080000D03*
X138000000Y-76620000D03*
X138000000Y-79160000D03*
X138000000Y-81700000D03*
X138000000Y-84240000D03*
X138000000Y-86780000D03*
X138000000Y-89320000D03*
X138000000Y-91860000D03*
X138000000Y-94400000D03*
X138000000Y-96940000D03*
X138000000Y-99480000D03*
X138000000Y-102020000D03*
X138000000Y-104560000D03*
X138000000Y-107100000D03*
X138000000Y-109640000D03*
X138000000Y-112180000D03*
X138000000Y-114720000D03*
X138000000Y-117260000D03*
%TD*%
D10*
%TO.C,J1*%
X96000000Y-69000000D03*
D11*
X96000000Y-71540000D03*
X96000000Y-74080000D03*
X96000000Y-76620000D03*
X96000000Y-79160000D03*
X96000000Y-81700000D03*
X96000000Y-84240000D03*
X96000000Y-86780000D03*
X96000000Y-89320000D03*
X96000000Y-91860000D03*
X96000000Y-94400000D03*
X96000000Y-96940000D03*
X96000000Y-99480000D03*
X96000000Y-102020000D03*
X96000000Y-104560000D03*
X96000000Y-107100000D03*
X96000000Y-109640000D03*
X96000000Y-112180000D03*
X96000000Y-114720000D03*
X96000000Y-117260000D03*
%TD*%
M02*
