%TF.GenerationSoftware,KiCad,Pcbnew,9.0.2*%
%TF.CreationDate,2025-06-04T00:20:04+07:00*%
%TF.ProjectId,Pneumatic,506e6575-6d61-4746-9963-2e6b69636164,rev?*%
%TF.SameCoordinates,Original*%
%TF.FileFunction,Copper,L1,Top*%
%TF.FilePolarity,Positive*%
%FSLAX46Y46*%
G04 Gerber Fmt 4.6, Leading zero omitted, Abs format (unit mm)*
G04 Created by KiCad (PCBNEW 9.0.2) date 2025-06-04 00:20:04*
%MOMM*%
%LPD*%
G01*
G04 APERTURE LIST*
G04 Aperture macros list*
%AMRoundRect*
0 Rectangle with rounded corners*
0 $1 Rounding radius*
0 $2 $3 $4 $5 $6 $7 $8 $9 X,Y pos of 4 corners*
0 Add a 4 corners polygon primitive as box body*
4,1,4,$2,$3,$4,$5,$6,$7,$8,$9,$2,$3,0*
0 Add four circle primitives for the rounded corners*
1,1,$1+$1,$2,$3*
1,1,$1+$1,$4,$5*
1,1,$1+$1,$6,$7*
1,1,$1+$1,$8,$9*
0 Add four rect primitives between the rounded corners*
20,1,$1+$1,$2,$3,$4,$5,0*
20,1,$1+$1,$4,$5,$6,$7,0*
20,1,$1+$1,$6,$7,$8,$9,0*
20,1,$1+$1,$8,$9,$2,$3,0*%
G04 Aperture macros list end*
%TA.AperFunction,SMDPad,CuDef*%
%ADD10RoundRect,0.237500X-0.237500X0.250000X-0.237500X-0.250000X0.237500X-0.250000X0.237500X0.250000X0*%
%TD*%
%TA.AperFunction,SMDPad,CuDef*%
%ADD11RoundRect,0.237500X0.250000X0.237500X-0.250000X0.237500X-0.250000X-0.237500X0.250000X-0.237500X0*%
%TD*%
%TA.AperFunction,SMDPad,CuDef*%
%ADD12RoundRect,0.237500X0.237500X-0.300000X0.237500X0.300000X-0.237500X0.300000X-0.237500X-0.300000X0*%
%TD*%
%TA.AperFunction,ComponentPad*%
%ADD13R,1.700000X1.700000*%
%TD*%
%TA.AperFunction,ComponentPad*%
%ADD14C,1.700000*%
%TD*%
%TA.AperFunction,SMDPad,CuDef*%
%ADD15RoundRect,0.150000X0.150000X-0.662500X0.150000X0.662500X-0.150000X0.662500X-0.150000X-0.662500X0*%
%TD*%
%TA.AperFunction,SMDPad,CuDef*%
%ADD16RoundRect,0.250000X0.350000X-0.850000X0.350000X0.850000X-0.350000X0.850000X-0.350000X-0.850000X0*%
%TD*%
%TA.AperFunction,SMDPad,CuDef*%
%ADD17RoundRect,0.249997X2.650003X-2.950003X2.650003X2.950003X-2.650003X2.950003X-2.650003X-2.950003X0*%
%TD*%
%TA.AperFunction,SMDPad,CuDef*%
%ADD18RoundRect,0.237500X0.237500X-0.287500X0.237500X0.287500X-0.237500X0.287500X-0.237500X-0.287500X0*%
%TD*%
%TA.AperFunction,SMDPad,CuDef*%
%ADD19RoundRect,0.237500X0.237500X-0.250000X0.237500X0.250000X-0.237500X0.250000X-0.237500X-0.250000X0*%
%TD*%
%TA.AperFunction,SMDPad,CuDef*%
%ADD20RoundRect,0.237500X-0.237500X0.287500X-0.237500X-0.287500X0.237500X-0.287500X0.237500X0.287500X0*%
%TD*%
%TA.AperFunction,ViaPad*%
%ADD21C,0.600000*%
%TD*%
%TA.AperFunction,Conductor*%
%ADD22C,0.400000*%
%TD*%
%TA.AperFunction,Conductor*%
%ADD23C,0.800000*%
%TD*%
%TA.AperFunction,Conductor*%
%ADD24C,0.500000*%
%TD*%
G04 APERTURE END LIST*
D10*
%TO.P,R30,1*%
%TO.N,+5V*%
X105650000Y-67175000D03*
%TO.P,R30,2*%
%TO.N,Net-(D8-A)*%
X105650000Y-69000000D03*
%TD*%
D11*
%TO.P,R20,1*%
%TO.N,/DOWNSHIFT*%
X107845000Y-118125000D03*
%TO.P,R20,2*%
%TO.N,Net-(R20-Pad2)*%
X106020000Y-118125000D03*
%TD*%
D12*
%TO.P,C1,1*%
%TO.N,GND*%
X134620000Y-103833000D03*
%TO.P,C1,2*%
%TO.N,GPOS*%
X134620000Y-102108000D03*
%TD*%
D13*
%TO.P,U1,1,5V*%
%TO.N,+5V*%
X130556000Y-69088000D03*
D14*
%TO.P,U1,2,3V3*%
%TO.N,unconnected-(U1-3V3-Pad2)*%
X115336000Y-117348000D03*
%TO.P,U1,3,5V*%
%TO.N,unconnected-(U1-5V-Pad3)*%
X115336000Y-112268000D03*
%TO.P,U1,4,3V3*%
%TO.N,unconnected-(U1-3V3-Pad4)*%
X130556000Y-74168000D03*
D13*
%TO.P,U1,5,PB12*%
%TO.N,unconnected-(U1-PB12-Pad5)*%
X115336000Y-69088000D03*
D14*
%TO.P,U1,6,PB13*%
%TO.N,unconnected-(U1-PB13-Pad6)*%
X115336000Y-71628000D03*
%TO.P,U1,7,PB14*%
%TO.N,unconnected-(U1-PB14-Pad7)*%
X115336000Y-74168000D03*
%TO.P,U1,8,PB15*%
%TO.N,unconnected-(U1-PB15-Pad8)*%
X115336000Y-76708000D03*
%TO.P,U1,9,PA8*%
%TO.N,unconnected-(U1-PA8-Pad9)*%
X115336000Y-79248000D03*
%TO.P,U1,10,PA9*%
%TO.N,/TX*%
X115336000Y-81788000D03*
%TO.P,U1,11,PA10*%
%TO.N,/RX*%
X115336000Y-84328000D03*
%TO.P,U1,12,PA11*%
%TO.N,unconnected-(U1-PA11-Pad12)*%
X115336000Y-86868000D03*
%TO.P,U1,13,PA12*%
%TO.N,unconnected-(U1-PA12-Pad13)*%
X115336000Y-89408000D03*
%TO.P,U1,14,PA15*%
%TO.N,unconnected-(U1-PA15-Pad14)*%
X115336000Y-91948000D03*
%TO.P,U1,15,PB3*%
%TO.N,/UPSHIFT*%
X115336000Y-94488000D03*
%TO.P,U1,16,PB4*%
%TO.N,/UP*%
X115336000Y-97028000D03*
%TO.P,U1,17,PB5*%
%TO.N,/Down*%
X115336000Y-99568000D03*
%TO.P,U1,18,PB6*%
%TO.N,/DOWNSHIFT*%
X115336000Y-102108000D03*
%TO.P,U1,19,PB7*%
%TO.N,unconnected-(U1-PB7-Pad19)*%
X115336000Y-104648000D03*
%TO.P,U1,20,PB8*%
%TO.N,unconnected-(U1-PB8-Pad20)*%
X115336000Y-107188000D03*
%TO.P,U1,21,PB9*%
%TO.N,unconnected-(U1-PB9-Pad21)*%
X115336000Y-109728000D03*
%TO.P,U1,22,PB10*%
%TO.N,unconnected-(U1-PB10-Pad22)*%
X130556000Y-76708000D03*
%TO.P,U1,23,PB2*%
%TO.N,unconnected-(U1-PB2-Pad23)*%
X130556000Y-79248000D03*
%TO.P,U1,24,PB1*%
%TO.N,unconnected-(U1-PB1-Pad24)*%
X130556000Y-81788000D03*
%TO.P,U1,25,PB0*%
%TO.N,unconnected-(U1-PB0-Pad25)*%
X130556000Y-84328000D03*
%TO.P,U1,26,PA7*%
%TO.N,unconnected-(U1-PA7-Pad26)*%
X130556000Y-86868000D03*
%TO.P,U1,27,PA6*%
%TO.N,unconnected-(U1-PA6-Pad27)*%
X130556000Y-89408000D03*
%TO.P,U1,28,PA5*%
%TO.N,unconnected-(U1-PA5-Pad28)*%
X130556000Y-91948000D03*
%TO.P,U1,29,PA4*%
%TO.N,unconnected-(U1-PA4-Pad29)*%
X130556000Y-94488000D03*
%TO.P,U1,30,PA3*%
%TO.N,unconnected-(U1-PA3-Pad30)*%
X130556000Y-97028000D03*
%TO.P,U1,31,PA2*%
%TO.N,unconnected-(U1-PA2-Pad31)*%
X130556000Y-99568000D03*
%TO.P,U1,32,PA1*%
%TO.N,GPOS*%
X130556000Y-102108000D03*
%TO.P,U1,33,PA0*%
%TO.N,unconnected-(U1-PA0-Pad33)*%
X130556000Y-104648000D03*
%TO.P,U1,34,R*%
%TO.N,unconnected-(U1-R-Pad34)*%
X130556000Y-107188000D03*
%TO.P,U1,35,PC15*%
%TO.N,unconnected-(U1-PC15-Pad35)*%
X130556000Y-109728000D03*
%TO.P,U1,36,PC14*%
%TO.N,unconnected-(U1-PC14-Pad36)*%
X130556000Y-112268000D03*
%TO.P,U1,37,PC13*%
%TO.N,unconnected-(U1-PC13-Pad37)*%
X130556000Y-114808000D03*
%TO.P,U1,38,VB*%
%TO.N,unconnected-(U1-VB-Pad38)*%
X130556000Y-117348000D03*
%TO.P,U1,39,GND*%
%TO.N,GND*%
X115336000Y-114808000D03*
%TO.P,U1,40,GND*%
X130556000Y-71628000D03*
%TD*%
D15*
%TO.P,U7,1*%
%TO.N,Net-(R20-Pad2)*%
X102810000Y-118512500D03*
%TO.P,U7,2*%
%TO.N,GND*%
X104080000Y-118512500D03*
%TO.P,U7,3*%
%TO.N,Net-(Q6-G)*%
X104080000Y-112137500D03*
%TO.P,U7,4*%
%TO.N,+5V*%
X102810000Y-112137500D03*
%TD*%
D16*
%TO.P,Q5,1,G*%
%TO.N,Net-(Q5-G)*%
X101845000Y-85125000D03*
D17*
%TO.P,Q5,2,D*%
%TO.N,/Pneumatic_UP*%
X104125000Y-78825000D03*
D16*
%TO.P,Q5,3,S*%
%TO.N,GND*%
X106405000Y-85125000D03*
%TD*%
D18*
%TO.P,D12,1,K*%
%TO.N,+12V*%
X107845000Y-116125000D03*
%TO.P,D12,2,A*%
%TO.N,/Pneumatic_DOWN*%
X107845000Y-114375000D03*
%TD*%
%TO.P,D11,1,K*%
%TO.N,+12V*%
X107252500Y-92225000D03*
%TO.P,D11,2,A*%
%TO.N,/Pneumatic_UP*%
X107252500Y-90475000D03*
%TD*%
D19*
%TO.P,R28,1*%
%TO.N,Net-(D7-K)*%
X106045000Y-116225000D03*
%TO.P,R28,2*%
%TO.N,/Pneumatic_DOWN*%
X106045000Y-114400000D03*
%TD*%
D16*
%TO.P,Q6,1,G*%
%TO.N,Net-(Q6-G)*%
X101845000Y-108725000D03*
D17*
%TO.P,Q6,2,D*%
%TO.N,/Pneumatic_DOWN*%
X104125000Y-102425000D03*
D16*
%TO.P,Q6,3,S*%
%TO.N,GND*%
X106405000Y-108725000D03*
%TD*%
D18*
%TO.P,D7,1,K*%
%TO.N,Net-(D7-K)*%
X100645000Y-116125000D03*
%TO.P,D7,2,A*%
%TO.N,+5V*%
X100645000Y-114375000D03*
%TD*%
D11*
%TO.P,R25,1*%
%TO.N,GND*%
X107277500Y-88725000D03*
%TO.P,R25,2*%
%TO.N,Net-(Q5-G)*%
X105452500Y-88725000D03*
%TD*%
D15*
%TO.P,U8,1*%
%TO.N,Net-(R21-Pad2)*%
X102117500Y-94725000D03*
%TO.P,U8,2*%
%TO.N,GND*%
X103387500Y-94725000D03*
%TO.P,U8,3*%
%TO.N,Net-(Q5-G)*%
X103387500Y-88350000D03*
%TO.P,U8,4*%
%TO.N,+5V*%
X102117500Y-88350000D03*
%TD*%
D19*
%TO.P,R29,1*%
%TO.N,Net-(D6-K)*%
X105552500Y-92425000D03*
%TO.P,R29,2*%
%TO.N,/Pneumatic_UP*%
X105552500Y-90600000D03*
%TD*%
D11*
%TO.P,R24,1*%
%TO.N,GND*%
X107870000Y-112425000D03*
%TO.P,R24,2*%
%TO.N,Net-(Q6-G)*%
X106045000Y-112425000D03*
%TD*%
%TO.P,R21,1*%
%TO.N,/UPSHIFT*%
X107377500Y-94325000D03*
%TO.P,R21,2*%
%TO.N,Net-(R21-Pad2)*%
X105552500Y-94325000D03*
%TD*%
D18*
%TO.P,D6,1,K*%
%TO.N,Net-(D6-K)*%
X100125000Y-92425000D03*
%TO.P,D6,2,A*%
%TO.N,+5V*%
X100125000Y-90675000D03*
%TD*%
D20*
%TO.P,D8,1,K*%
%TO.N,GND*%
X104125000Y-67225000D03*
%TO.P,D8,2,A*%
%TO.N,Net-(D8-A)*%
X104125000Y-68975000D03*
%TD*%
D13*
%TO.P,J2,1,Pin_1*%
%TO.N,+5V*%
X138000000Y-69000000D03*
D14*
%TO.P,J2,2,Pin_2*%
%TO.N,GPOS*%
X138000000Y-71540000D03*
%TO.P,J2,3,Pin_3*%
%TO.N,GND*%
X138000000Y-74080000D03*
%TO.P,J2,4,Pin_4*%
X138000000Y-76620000D03*
%TO.P,J2,5,Pin_5*%
X138000000Y-79160000D03*
%TO.P,J2,6,Pin_6*%
X138000000Y-81700000D03*
%TO.P,J2,7,Pin_7*%
X138000000Y-84240000D03*
%TO.P,J2,8,Pin_8*%
X138000000Y-86780000D03*
%TO.P,J2,9,Pin_9*%
X138000000Y-89320000D03*
%TO.P,J2,10,Pin_10*%
X138000000Y-91860000D03*
%TO.P,J2,11,Pin_11*%
X138000000Y-94400000D03*
%TO.P,J2,12,Pin_12*%
X138000000Y-96940000D03*
%TO.P,J2,13,Pin_13*%
X138000000Y-99480000D03*
%TO.P,J2,14,Pin_14*%
X138000000Y-102020000D03*
%TO.P,J2,15,Pin_15*%
X138000000Y-104560000D03*
%TO.P,J2,16,Pin_16*%
X138000000Y-107100000D03*
%TO.P,J2,17,Pin_17*%
X138000000Y-109640000D03*
%TO.P,J2,18,Pin_18*%
X138000000Y-112180000D03*
%TO.P,J2,19,Pin_19*%
X138000000Y-114720000D03*
%TO.P,J2,20,Pin_20*%
X138000000Y-117260000D03*
%TD*%
D13*
%TO.P,J1,1,Pin_1*%
%TO.N,GND*%
X96000000Y-69000000D03*
D14*
%TO.P,J1,2,Pin_2*%
%TO.N,/TX*%
X96000000Y-71540000D03*
%TO.P,J1,3,Pin_3*%
%TO.N,GND*%
X96000000Y-74080000D03*
%TO.P,J1,4,Pin_4*%
%TO.N,/RX*%
X96000000Y-76620000D03*
%TO.P,J1,5,Pin_5*%
%TO.N,GND*%
X96000000Y-79160000D03*
%TO.P,J1,6,Pin_6*%
%TO.N,/Pneumatic_UP*%
X96000000Y-81700000D03*
%TO.P,J1,7,Pin_7*%
%TO.N,GND*%
X96000000Y-84240000D03*
%TO.P,J1,8,Pin_8*%
X96000000Y-86780000D03*
%TO.P,J1,9,Pin_9*%
X96000000Y-89320000D03*
%TO.P,J1,10,Pin_10*%
X96000000Y-91860000D03*
%TO.P,J1,11,Pin_11*%
%TO.N,/UP*%
X96000000Y-94400000D03*
%TO.P,J1,12,Pin_12*%
%TO.N,/Down*%
X96000000Y-96940000D03*
%TO.P,J1,13,Pin_13*%
%TO.N,GND*%
X96000000Y-99480000D03*
%TO.P,J1,14,Pin_14*%
%TO.N,/Pneumatic_DOWN*%
X96000000Y-102020000D03*
%TO.P,J1,15,Pin_15*%
%TO.N,GND*%
X96000000Y-104560000D03*
%TO.P,J1,16,Pin_16*%
%TO.N,+12V*%
X96000000Y-107100000D03*
%TO.P,J1,17,Pin_17*%
%TO.N,GND*%
X96000000Y-109640000D03*
%TO.P,J1,18,Pin_18*%
X96000000Y-112180000D03*
%TO.P,J1,19,Pin_19*%
X96000000Y-114720000D03*
%TO.P,J1,20,Pin_20*%
X96000000Y-117260000D03*
%TD*%
D21*
%TO.N,+12V*%
X109300000Y-115100000D03*
X108900000Y-92200000D03*
%TO.N,GND*%
X109500000Y-102900000D03*
X107000000Y-111000000D03*
X109500000Y-102000000D03*
X105664000Y-72644000D03*
X102847581Y-72618292D03*
X101927442Y-72618292D03*
X104400000Y-83200000D03*
X102500000Y-117000000D03*
X109895010Y-89677348D03*
X104100000Y-106600000D03*
X109895010Y-91877348D03*
X103735434Y-72602149D03*
X111252000Y-78740000D03*
X109895010Y-90777348D03*
X104100000Y-117000000D03*
X107696000Y-73152000D03*
X104648000Y-72600000D03*
X111252000Y-80772000D03*
X104100000Y-107300000D03*
X111252000Y-79756000D03*
X100958875Y-72602149D03*
X104100000Y-108000000D03*
X104800000Y-107300000D03*
X104500000Y-87600000D03*
X104800000Y-108000000D03*
X103700000Y-84600000D03*
X109900000Y-87600000D03*
X104400000Y-84600000D03*
X103300000Y-117000000D03*
X106000000Y-111000000D03*
X104100000Y-108700000D03*
X109500000Y-101100000D03*
X105100000Y-83200000D03*
X109900000Y-86500000D03*
X108700000Y-102900000D03*
X104800000Y-106600000D03*
X106200000Y-106600000D03*
X104800000Y-108700000D03*
X107300000Y-87200000D03*
X104400000Y-83900000D03*
X108000000Y-111000000D03*
X105500000Y-106600000D03*
X108700000Y-102000000D03*
X103700000Y-83200000D03*
X109728000Y-75184000D03*
X101700000Y-117700000D03*
X101700000Y-117000000D03*
X108700000Y-100300000D03*
X109900000Y-88700000D03*
X108700000Y-101100000D03*
X103700000Y-83900000D03*
X106680000Y-72644000D03*
X108712000Y-74168000D03*
X109500000Y-100300000D03*
X110744000Y-76200000D03*
%TO.N,+5V*%
X100700000Y-88900000D03*
X112750000Y-65700000D03*
X101150000Y-112650000D03*
%TD*%
D22*
%TO.N,Net-(D6-K)*%
X105552500Y-92425000D02*
X100125000Y-92425000D01*
%TO.N,Net-(D7-K)*%
X105945000Y-116125000D02*
X106045000Y-116225000D01*
X100645000Y-116125000D02*
X105945000Y-116125000D01*
%TO.N,+12V*%
X108875000Y-92225000D02*
X108900000Y-92200000D01*
X108275000Y-116125000D02*
X109300000Y-115100000D01*
X107845000Y-116125000D02*
X108275000Y-116125000D01*
X107252500Y-92225000D02*
X108875000Y-92225000D01*
D23*
%TO.N,/Pneumatic_UP*%
X104125000Y-78825000D02*
X100975000Y-78825000D01*
X100975000Y-78825000D02*
X98100000Y-81700000D01*
D22*
X107252500Y-90475000D02*
X108125000Y-90475000D01*
X108712000Y-83412000D02*
X104125000Y-78825000D01*
X108712000Y-89888000D02*
X108712000Y-83412000D01*
D23*
X98100000Y-81700000D02*
X96000000Y-81700000D01*
D22*
X105552500Y-90600000D02*
X107127500Y-90600000D01*
X108125000Y-90475000D02*
X108712000Y-89888000D01*
X107127500Y-90600000D02*
X107252500Y-90475000D01*
D23*
%TO.N,/Pneumatic_DOWN*%
X104125000Y-102425000D02*
X96405000Y-102425000D01*
D22*
X107845000Y-114375000D02*
X108325000Y-114375000D01*
D23*
X96405000Y-102425000D02*
X96000000Y-102020000D01*
D22*
X109200000Y-113500000D02*
X109200000Y-107500000D01*
X108325000Y-114375000D02*
X109200000Y-113500000D01*
X107820000Y-114400000D02*
X107845000Y-114375000D01*
X109200000Y-107500000D02*
X104125000Y-102425000D01*
X106045000Y-114400000D02*
X107820000Y-114400000D01*
D24*
%TO.N,Net-(D8-A)*%
X105650000Y-69000000D02*
X104150000Y-69000000D01*
X104150000Y-69000000D02*
X104125000Y-68975000D01*
D22*
%TO.N,Net-(Q5-G)*%
X105452500Y-88725000D02*
X103762500Y-88725000D01*
X103387500Y-86667500D02*
X103387500Y-88350000D01*
X103762500Y-88725000D02*
X103387500Y-88350000D01*
X101845000Y-85125000D02*
X103387500Y-86667500D01*
D24*
%TO.N,GND*%
X107870000Y-112425000D02*
X107870000Y-111130000D01*
X107870000Y-111130000D02*
X108000000Y-111000000D01*
D22*
X96240000Y-79400000D02*
X96000000Y-79160000D01*
D24*
X107277500Y-87222500D02*
X107300000Y-87200000D01*
X107277500Y-88725000D02*
X107277500Y-87222500D01*
X104080000Y-117020000D02*
X104100000Y-117000000D01*
X104080000Y-118512500D02*
X104080000Y-117020000D01*
D22*
%TO.N,Net-(Q6-G)*%
X106045000Y-112425000D02*
X104367500Y-112425000D01*
X104080000Y-110960000D02*
X104080000Y-112137500D01*
X104367500Y-112425000D02*
X104080000Y-112137500D01*
X101845000Y-108725000D02*
X104080000Y-110960000D01*
%TO.N,/DOWNSHIFT*%
X109459000Y-118125000D02*
X110744000Y-116840000D01*
X110744000Y-116840000D02*
X110744000Y-103632000D01*
X110744000Y-103632000D02*
X112268000Y-102108000D01*
X112268000Y-102108000D02*
X115336000Y-102108000D01*
X107845000Y-118125000D02*
X109459000Y-118125000D01*
%TO.N,Net-(R20-Pad2)*%
X102810000Y-118512500D02*
X102810000Y-119310000D01*
X105200000Y-120000000D02*
X106020000Y-119180000D01*
X106020000Y-119180000D02*
X106020000Y-118125000D01*
X103500000Y-120000000D02*
X105200000Y-120000000D01*
X102810000Y-119310000D02*
X103500000Y-120000000D01*
D24*
%TO.N,/UPSHIFT*%
X107377500Y-94325000D02*
X114930000Y-94325000D01*
X114930000Y-94325000D02*
X115137500Y-94532500D01*
D22*
%TO.N,Net-(R21-Pad2)*%
X104900000Y-96200000D02*
X105552500Y-95547500D01*
X105552500Y-95547500D02*
X105552500Y-94325000D01*
X102500000Y-96200000D02*
X104900000Y-96200000D01*
X102117500Y-94725000D02*
X102117500Y-95817500D01*
X102117500Y-95817500D02*
X102500000Y-96200000D01*
%TO.N,/TX*%
X96000000Y-71540000D02*
X96540000Y-71000000D01*
X112400000Y-75800000D02*
X112400000Y-81100000D01*
X107600000Y-71000000D02*
X112400000Y-75800000D01*
X96540000Y-71000000D02*
X107600000Y-71000000D01*
X112400000Y-81100000D02*
X113132500Y-81832500D01*
X113132500Y-81832500D02*
X115137500Y-81832500D01*
%TO.N,/UP*%
X100500000Y-97200000D02*
X97700000Y-94400000D01*
X97700000Y-94400000D02*
X96000000Y-94400000D01*
X115010000Y-97200000D02*
X100500000Y-97200000D01*
X115137500Y-97072500D02*
X115010000Y-97200000D01*
%TO.N,+5V*%
X100700000Y-88900000D02*
X100125000Y-89475000D01*
D24*
X105650000Y-66950000D02*
X105650000Y-67175000D01*
D22*
X100700000Y-88900000D02*
X101250000Y-88350000D01*
D24*
X129850000Y-65700000D02*
X130006000Y-65700000D01*
X131750000Y-65700000D02*
X131106000Y-65700000D01*
X133500000Y-65700000D02*
X131750000Y-65700000D01*
D22*
X100645000Y-114375000D02*
X100645000Y-113155000D01*
D24*
X130556000Y-69088000D02*
X130556000Y-66250000D01*
X130556000Y-65756000D02*
X130500000Y-65700000D01*
X131750000Y-65700000D02*
X130500000Y-65700000D01*
X138000000Y-69000000D02*
X136800000Y-69000000D01*
X129850000Y-65700000D02*
X112750000Y-65700000D01*
D22*
X100645000Y-113155000D02*
X101150000Y-112650000D01*
X100125000Y-89475000D02*
X100125000Y-90675000D01*
D24*
X130556000Y-66250000D02*
X130556000Y-65756000D01*
D22*
X101250000Y-88350000D02*
X102117500Y-88350000D01*
D24*
X106900000Y-65700000D02*
X105650000Y-66950000D01*
D22*
X101150000Y-112650000D02*
X101662500Y-112137500D01*
D24*
X136800000Y-69000000D02*
X133500000Y-65700000D01*
X131106000Y-65700000D02*
X130556000Y-66250000D01*
D22*
X101662500Y-112137500D02*
X102810000Y-112137500D01*
D24*
X130500000Y-65700000D02*
X129850000Y-65700000D01*
X112750000Y-65700000D02*
X106900000Y-65700000D01*
X130006000Y-65700000D02*
X130556000Y-66250000D01*
D22*
%TO.N,/Down*%
X97240000Y-96940000D02*
X96000000Y-96940000D01*
X115137500Y-99612500D02*
X113725000Y-98200000D01*
X98500000Y-98200000D02*
X97240000Y-96940000D01*
X113725000Y-98200000D02*
X98500000Y-98200000D01*
%TO.N,/RX*%
X107188000Y-74676000D02*
X108712000Y-76200000D01*
X111296500Y-84372500D02*
X115137500Y-84372500D01*
X97380000Y-76620000D02*
X99324000Y-74676000D01*
X108712000Y-76200000D02*
X108712000Y-81788000D01*
X96000000Y-76620000D02*
X97380000Y-76620000D01*
X108712000Y-81788000D02*
X111296500Y-84372500D01*
X99324000Y-74676000D02*
X107188000Y-74676000D01*
%TO.N,GPOS*%
X134620000Y-72644000D02*
X134620000Y-102108000D01*
X135724000Y-71540000D02*
X134620000Y-72644000D01*
X130556000Y-102108000D02*
X134620000Y-102108000D01*
X138000000Y-71540000D02*
X135724000Y-71540000D01*
%TD*%
%TA.AperFunction,Conductor*%
%TO.N,GND*%
G36*
X113450520Y-98920185D02*
G01*
X113471162Y-98936819D01*
X113949181Y-99414838D01*
X113982666Y-99476161D01*
X113985500Y-99502519D01*
X113985500Y-99674286D01*
X114018097Y-99880099D01*
X114018754Y-99884243D01*
X114049867Y-99980000D01*
X114084444Y-100086414D01*
X114180951Y-100275820D01*
X114305890Y-100447786D01*
X114456213Y-100598109D01*
X114628182Y-100723050D01*
X114636946Y-100727516D01*
X114687742Y-100775491D01*
X114704536Y-100843312D01*
X114681998Y-100909447D01*
X114636946Y-100948484D01*
X114628182Y-100952949D01*
X114456213Y-101077890D01*
X114305892Y-101228211D01*
X114244888Y-101312179D01*
X114212770Y-101356385D01*
X114157442Y-101399051D01*
X114112453Y-101407500D01*
X112199003Y-101407500D01*
X112096762Y-101427837D01*
X112096757Y-101427838D01*
X112090591Y-101429065D01*
X112063671Y-101434420D01*
X112035802Y-101445964D01*
X112030372Y-101448213D01*
X112030366Y-101448215D01*
X111936190Y-101487224D01*
X111936186Y-101487226D01*
X111880402Y-101524499D01*
X111880403Y-101524500D01*
X111821457Y-101563886D01*
X111821453Y-101563889D01*
X110199888Y-103185453D01*
X110199887Y-103185454D01*
X110123223Y-103300192D01*
X110070421Y-103427668D01*
X110070418Y-103427680D01*
X110057435Y-103492950D01*
X110057435Y-103492951D01*
X110043500Y-103563004D01*
X110043500Y-107092747D01*
X110023815Y-107159786D01*
X109971011Y-107205541D01*
X109901853Y-107215485D01*
X109838297Y-107186460D01*
X109816398Y-107161637D01*
X109744117Y-107053461D01*
X109744111Y-107053453D01*
X107561819Y-104871161D01*
X107528334Y-104809838D01*
X107525500Y-104783480D01*
X107525500Y-99424993D01*
X107525499Y-99424980D01*
X107524395Y-99414174D01*
X107514999Y-99322200D01*
X107459815Y-99155664D01*
X107419063Y-99089596D01*
X107400624Y-99022204D01*
X107421547Y-98955541D01*
X107475188Y-98910771D01*
X107524603Y-98900500D01*
X113383481Y-98900500D01*
X113450520Y-98920185D01*
G37*
%TD.AperFunction*%
%TA.AperFunction,Conductor*%
G36*
X97122952Y-97829456D02*
G01*
X97167300Y-97857957D01*
X98053453Y-98744111D01*
X98053454Y-98744112D01*
X98168192Y-98820777D01*
X98295667Y-98873578D01*
X98295672Y-98873580D01*
X98295676Y-98873580D01*
X98295677Y-98873581D01*
X98431003Y-98900500D01*
X98431006Y-98900500D01*
X98431007Y-98900500D01*
X100725397Y-98900500D01*
X100792436Y-98920185D01*
X100838191Y-98972989D01*
X100848135Y-99042147D01*
X100830936Y-99089597D01*
X100790186Y-99155661D01*
X100790184Y-99155666D01*
X100735001Y-99322198D01*
X100724500Y-99424980D01*
X100724500Y-101400500D01*
X100704815Y-101467539D01*
X100652011Y-101513294D01*
X100600500Y-101524500D01*
X97339218Y-101524500D01*
X97272179Y-101504815D01*
X97228733Y-101456794D01*
X97214604Y-101429065D01*
X97155051Y-101312184D01*
X97155050Y-101312182D01*
X97030109Y-101140213D01*
X96879786Y-100989890D01*
X96707817Y-100864949D01*
X96698504Y-100860204D01*
X96647707Y-100812230D01*
X96630912Y-100744409D01*
X96653449Y-100678274D01*
X96698507Y-100639232D01*
X96707555Y-100634622D01*
X96761716Y-100595270D01*
X96761717Y-100595270D01*
X96129408Y-99962962D01*
X96192993Y-99945925D01*
X96307007Y-99880099D01*
X96400099Y-99787007D01*
X96465925Y-99672993D01*
X96482962Y-99609409D01*
X97115270Y-100241717D01*
X97115270Y-100241716D01*
X97154622Y-100187554D01*
X97251095Y-99998217D01*
X97316757Y-99796130D01*
X97316757Y-99796127D01*
X97350000Y-99586246D01*
X97350000Y-99373753D01*
X97316757Y-99163872D01*
X97316757Y-99163869D01*
X97251095Y-98961782D01*
X97154624Y-98772449D01*
X97115270Y-98718282D01*
X97115269Y-98718282D01*
X96482962Y-99350590D01*
X96465925Y-99287007D01*
X96400099Y-99172993D01*
X96307007Y-99079901D01*
X96192993Y-99014075D01*
X96129409Y-98997037D01*
X96761716Y-98364728D01*
X96707547Y-98325373D01*
X96707547Y-98325372D01*
X96698500Y-98320763D01*
X96647706Y-98272788D01*
X96630912Y-98204966D01*
X96653451Y-98138832D01*
X96698508Y-98099793D01*
X96707816Y-98095051D01*
X96879792Y-97970104D01*
X96991941Y-97857954D01*
X97053260Y-97824472D01*
X97122952Y-97829456D01*
G37*
%TD.AperFunction*%
%TA.AperFunction,Conductor*%
G36*
X100643834Y-80532180D02*
G01*
X100699767Y-80574052D01*
X100724184Y-80639516D01*
X100724500Y-80648362D01*
X100724500Y-81825019D01*
X100735001Y-81927801D01*
X100790184Y-82094333D01*
X100790189Y-82094344D01*
X100882285Y-82243653D01*
X100882288Y-82243657D01*
X101006342Y-82367711D01*
X101006346Y-82367714D01*
X101155655Y-82459810D01*
X101155658Y-82459811D01*
X101155664Y-82459815D01*
X101322200Y-82514999D01*
X101424988Y-82525500D01*
X101424993Y-82525500D01*
X106783481Y-82525500D01*
X106850520Y-82545185D01*
X106871162Y-82561819D01*
X107975181Y-83665838D01*
X108008666Y-83727161D01*
X108011500Y-83753519D01*
X108011500Y-87699270D01*
X107991815Y-87766309D01*
X107939011Y-87812064D01*
X107869853Y-87822008D01*
X107848537Y-87815674D01*
X107848158Y-87816819D01*
X107677652Y-87760319D01*
X107576654Y-87750000D01*
X107527500Y-87750000D01*
X107527500Y-88601000D01*
X107507815Y-88668039D01*
X107455011Y-88713794D01*
X107403500Y-88725000D01*
X107151500Y-88725000D01*
X107084461Y-88705315D01*
X107038706Y-88652511D01*
X107027500Y-88601000D01*
X107027500Y-87750000D01*
X107027499Y-87749999D01*
X106978361Y-87750000D01*
X106978343Y-87750001D01*
X106877347Y-87760319D01*
X106713699Y-87814546D01*
X106713688Y-87814551D01*
X106566965Y-87905052D01*
X106453034Y-88018983D01*
X106391711Y-88052467D01*
X106322019Y-88047483D01*
X106277672Y-88018982D01*
X106163351Y-87904661D01*
X106163350Y-87904660D01*
X106029350Y-87822008D01*
X106016518Y-87814093D01*
X106016513Y-87814091D01*
X105991743Y-87805883D01*
X105852753Y-87759826D01*
X105852751Y-87759825D01*
X105751678Y-87749500D01*
X105153330Y-87749500D01*
X105153312Y-87749501D01*
X105052247Y-87759825D01*
X104888484Y-87814092D01*
X104888481Y-87814093D01*
X104741648Y-87904661D01*
X104658129Y-87988181D01*
X104596806Y-88021666D01*
X104570448Y-88024500D01*
X104312000Y-88024500D01*
X104244961Y-88004815D01*
X104199206Y-87952011D01*
X104188000Y-87900500D01*
X104188000Y-87621813D01*
X104187999Y-87621798D01*
X104187777Y-87618981D01*
X104185098Y-87584931D01*
X104177882Y-87560095D01*
X104139245Y-87427106D01*
X104139244Y-87427103D01*
X104139244Y-87427102D01*
X104129670Y-87410913D01*
X104105268Y-87369650D01*
X104088000Y-87306530D01*
X104088000Y-86598504D01*
X104061081Y-86463177D01*
X104061080Y-86463176D01*
X104061080Y-86463172D01*
X104052996Y-86443656D01*
X104008278Y-86335695D01*
X104008271Y-86335682D01*
X103931615Y-86220959D01*
X103931614Y-86220958D01*
X103834042Y-86123386D01*
X103735642Y-86024986D01*
X105305001Y-86024986D01*
X105315494Y-86127697D01*
X105370641Y-86294119D01*
X105370643Y-86294124D01*
X105462684Y-86443345D01*
X105586654Y-86567315D01*
X105735875Y-86659356D01*
X105735880Y-86659358D01*
X105902302Y-86714505D01*
X105902309Y-86714506D01*
X106005019Y-86724999D01*
X106154999Y-86724999D01*
X106655000Y-86724999D01*
X106804972Y-86724999D01*
X106804986Y-86724998D01*
X106907697Y-86714505D01*
X107074119Y-86659358D01*
X107074124Y-86659356D01*
X107223345Y-86567315D01*
X107347315Y-86443345D01*
X107439356Y-86294124D01*
X107439358Y-86294119D01*
X107494505Y-86127697D01*
X107494506Y-86127690D01*
X107504999Y-86024986D01*
X107505000Y-86024973D01*
X107505000Y-85375000D01*
X106655000Y-85375000D01*
X106655000Y-86724999D01*
X106154999Y-86724999D01*
X106155000Y-86724998D01*
X106155000Y-85375000D01*
X105305001Y-85375000D01*
X105305001Y-86024986D01*
X103735642Y-86024986D01*
X103548546Y-85837890D01*
X103121976Y-85411319D01*
X102981818Y-85271161D01*
X102948333Y-85209838D01*
X102945499Y-85183480D01*
X102945499Y-84225013D01*
X105305000Y-84225013D01*
X105305000Y-84875000D01*
X106155000Y-84875000D01*
X106655000Y-84875000D01*
X107504999Y-84875000D01*
X107504999Y-84225028D01*
X107504998Y-84225013D01*
X107494505Y-84122302D01*
X107439358Y-83955880D01*
X107439356Y-83955875D01*
X107347315Y-83806654D01*
X107223345Y-83682684D01*
X107074124Y-83590643D01*
X107074119Y-83590641D01*
X106907697Y-83535494D01*
X106907690Y-83535493D01*
X106804986Y-83525000D01*
X106655000Y-83525000D01*
X106655000Y-84875000D01*
X106155000Y-84875000D01*
X106155000Y-83525000D01*
X106005027Y-83525000D01*
X106005012Y-83525001D01*
X105902302Y-83535494D01*
X105735880Y-83590641D01*
X105735875Y-83590643D01*
X105586654Y-83682684D01*
X105462684Y-83806654D01*
X105370643Y-83955875D01*
X105370641Y-83955880D01*
X105315494Y-84122302D01*
X105315493Y-84122309D01*
X105305000Y-84225013D01*
X102945499Y-84225013D01*
X102945499Y-84224998D01*
X102945498Y-84224981D01*
X102934999Y-84122203D01*
X102934998Y-84122200D01*
X102910081Y-84047007D01*
X102879814Y-83955666D01*
X102787712Y-83806344D01*
X102663656Y-83682288D01*
X102514334Y-83590186D01*
X102347797Y-83535001D01*
X102347795Y-83535000D01*
X102245010Y-83524500D01*
X101444998Y-83524500D01*
X101444980Y-83524501D01*
X101342203Y-83535000D01*
X101342200Y-83535001D01*
X101175668Y-83590185D01*
X101175663Y-83590187D01*
X101026342Y-83682289D01*
X100902289Y-83806342D01*
X100810187Y-83955663D01*
X100810185Y-83955668D01*
X100810115Y-83955880D01*
X100755001Y-84122203D01*
X100755001Y-84122204D01*
X100755000Y-84122204D01*
X100744500Y-84224983D01*
X100744500Y-86025001D01*
X100744501Y-86025018D01*
X100755000Y-86127796D01*
X100755001Y-86127799D01*
X100810185Y-86294331D01*
X100810187Y-86294336D01*
X100844265Y-86349585D01*
X100902288Y-86443656D01*
X101026344Y-86567712D01*
X101175666Y-86659814D01*
X101342203Y-86714999D01*
X101444991Y-86725500D01*
X102245008Y-86725499D01*
X102245016Y-86725498D01*
X102245019Y-86725498D01*
X102268896Y-86723058D01*
X102347797Y-86714999D01*
X102347804Y-86714996D01*
X102354414Y-86713582D01*
X102354672Y-86714788D01*
X102363274Y-86714492D01*
X102377869Y-86709049D01*
X102397480Y-86713315D01*
X102417537Y-86712625D01*
X102431861Y-86720794D01*
X102446142Y-86723901D01*
X102474396Y-86745052D01*
X102591212Y-86861868D01*
X102624697Y-86923191D01*
X102619713Y-86992883D01*
X102577841Y-87048816D01*
X102512377Y-87073233D01*
X102468936Y-87068625D01*
X102370073Y-87039902D01*
X102370067Y-87039901D01*
X102333201Y-87037000D01*
X102333194Y-87037000D01*
X101901806Y-87037000D01*
X101901798Y-87037000D01*
X101864932Y-87039901D01*
X101864926Y-87039902D01*
X101707106Y-87085754D01*
X101707103Y-87085755D01*
X101565637Y-87169417D01*
X101565629Y-87169423D01*
X101449423Y-87285629D01*
X101449417Y-87285637D01*
X101365755Y-87427103D01*
X101365754Y-87427106D01*
X101327117Y-87560095D01*
X101289511Y-87618981D01*
X101226436Y-87648128D01*
X101217290Y-87649500D01*
X101181007Y-87649500D01*
X101072591Y-87671065D01*
X101066213Y-87672333D01*
X101045673Y-87676419D01*
X101045671Y-87676420D01*
X100992866Y-87698292D01*
X100992864Y-87698293D01*
X100992863Y-87698292D01*
X100918191Y-87729223D01*
X100872392Y-87759826D01*
X100872391Y-87759826D01*
X100803461Y-87805883D01*
X100803458Y-87805885D01*
X100505412Y-88103930D01*
X100465184Y-88130809D01*
X100320823Y-88190604D01*
X100320814Y-88190609D01*
X100189711Y-88278210D01*
X100189707Y-88278213D01*
X100078213Y-88389707D01*
X100078210Y-88389711D01*
X99990609Y-88520814D01*
X99990604Y-88520823D01*
X99930809Y-88665184D01*
X99903929Y-88705412D01*
X99580887Y-89028454D01*
X99504223Y-89143192D01*
X99451421Y-89270668D01*
X99451421Y-89270669D01*
X99451420Y-89270672D01*
X99436857Y-89343887D01*
X99436857Y-89343888D01*
X99424500Y-89406005D01*
X99424500Y-89755448D01*
X99404815Y-89822487D01*
X99388181Y-89843129D01*
X99304661Y-89926648D01*
X99214093Y-90073481D01*
X99214092Y-90073484D01*
X99159826Y-90237247D01*
X99159826Y-90237248D01*
X99159825Y-90237248D01*
X99149500Y-90338315D01*
X99149500Y-91011669D01*
X99149501Y-91011687D01*
X99159825Y-91112752D01*
X99214092Y-91276515D01*
X99214093Y-91276518D01*
X99304661Y-91423351D01*
X99343629Y-91462319D01*
X99377114Y-91523642D01*
X99372130Y-91593334D01*
X99343629Y-91637681D01*
X99304661Y-91676648D01*
X99214093Y-91823481D01*
X99214092Y-91823484D01*
X99159826Y-91987247D01*
X99159826Y-91987248D01*
X99159825Y-91987248D01*
X99149500Y-92088315D01*
X99149500Y-92761669D01*
X99149501Y-92761687D01*
X99159825Y-92862752D01*
X99175280Y-92909390D01*
X99211678Y-93019232D01*
X99214092Y-93026515D01*
X99214093Y-93026518D01*
X99233854Y-93058556D01*
X99304660Y-93173350D01*
X99426650Y-93295340D01*
X99573484Y-93385908D01*
X99737247Y-93440174D01*
X99838323Y-93450500D01*
X100411676Y-93450499D01*
X100411684Y-93450498D01*
X100411687Y-93450498D01*
X100467030Y-93444844D01*
X100512753Y-93440174D01*
X100676516Y-93385908D01*
X100823350Y-93295340D01*
X100945340Y-93173350D01*
X100945341Y-93173347D01*
X100945344Y-93173345D01*
X100945945Y-93172586D01*
X100946489Y-93172200D01*
X100950447Y-93168243D01*
X100951123Y-93168919D01*
X101002968Y-93132211D01*
X101043208Y-93125500D01*
X104670448Y-93125500D01*
X104737487Y-93145185D01*
X104758129Y-93161819D01*
X104854150Y-93257840D01*
X104876874Y-93271856D01*
X104923597Y-93323801D01*
X104934821Y-93392763D01*
X104906979Y-93456846D01*
X104876876Y-93482931D01*
X104841652Y-93504657D01*
X104719661Y-93626648D01*
X104629093Y-93773481D01*
X104629091Y-93773486D01*
X104619542Y-93802303D01*
X104574826Y-93937247D01*
X104574826Y-93937248D01*
X104574825Y-93937248D01*
X104564500Y-94038315D01*
X104564500Y-94611669D01*
X104564501Y-94611687D01*
X104574825Y-94712752D01*
X104575981Y-94716239D01*
X104625582Y-94865925D01*
X104629092Y-94876515D01*
X104629093Y-94876518D01*
X104643577Y-94900000D01*
X104689837Y-94975000D01*
X104719661Y-95023351D01*
X104815145Y-95118835D01*
X104819482Y-95126779D01*
X104826731Y-95132205D01*
X104835966Y-95156966D01*
X104848630Y-95180158D01*
X104847984Y-95189187D01*
X104851148Y-95197670D01*
X104845531Y-95223490D01*
X104843646Y-95249850D01*
X104837827Y-95258904D01*
X104836296Y-95265943D01*
X104815146Y-95294197D01*
X104646160Y-95463182D01*
X104584839Y-95496666D01*
X104558481Y-95499500D01*
X104311500Y-95499500D01*
X104244461Y-95479815D01*
X104198706Y-95427011D01*
X104187500Y-95375500D01*
X104187500Y-94975000D01*
X103511500Y-94975000D01*
X103444461Y-94955315D01*
X103398706Y-94902511D01*
X103387500Y-94851000D01*
X103387500Y-94725000D01*
X103261500Y-94725000D01*
X103194461Y-94705315D01*
X103148706Y-94652511D01*
X103137500Y-94601000D01*
X103137500Y-94475000D01*
X103637500Y-94475000D01*
X104187500Y-94475000D01*
X104187500Y-93996865D01*
X104187499Y-93996850D01*
X104184600Y-93960010D01*
X104184599Y-93960004D01*
X104138783Y-93802306D01*
X104138782Y-93802303D01*
X104055185Y-93660947D01*
X104055178Y-93660938D01*
X103939061Y-93544821D01*
X103939052Y-93544814D01*
X103797696Y-93461217D01*
X103797693Y-93461216D01*
X103639994Y-93415400D01*
X103639997Y-93415400D01*
X103637500Y-93415203D01*
X103637500Y-94475000D01*
X103137500Y-94475000D01*
X103137500Y-93415203D01*
X103135003Y-93415400D01*
X102977306Y-93461216D01*
X102977303Y-93461217D01*
X102835949Y-93544813D01*
X102829783Y-93549597D01*
X102827889Y-93547155D01*
X102779080Y-93573739D01*
X102709394Y-93568679D01*
X102676727Y-93547659D01*
X102675531Y-93549202D01*
X102669362Y-93544417D01*
X102565394Y-93482931D01*
X102527898Y-93460756D01*
X102527897Y-93460755D01*
X102527896Y-93460755D01*
X102527893Y-93460754D01*
X102370073Y-93414902D01*
X102370067Y-93414901D01*
X102333201Y-93412000D01*
X102333194Y-93412000D01*
X101901806Y-93412000D01*
X101901798Y-93412000D01*
X101864932Y-93414901D01*
X101864926Y-93414902D01*
X101707106Y-93460754D01*
X101707103Y-93460755D01*
X101565637Y-93544417D01*
X101565629Y-93544423D01*
X101449423Y-93660629D01*
X101449417Y-93660637D01*
X101365755Y-93802103D01*
X101365754Y-93802106D01*
X101319902Y-93959926D01*
X101319901Y-93959932D01*
X101317000Y-93996798D01*
X101317000Y-95453201D01*
X101319901Y-95490067D01*
X101319902Y-95490073D01*
X101365754Y-95647893D01*
X101365755Y-95647896D01*
X101365756Y-95647898D01*
X101393902Y-95695491D01*
X101399732Y-95705348D01*
X101417000Y-95768469D01*
X101417000Y-95886494D01*
X101417000Y-95886496D01*
X101416999Y-95886496D01*
X101443918Y-96021822D01*
X101443921Y-96021832D01*
X101496722Y-96149307D01*
X101573387Y-96264045D01*
X101597161Y-96287819D01*
X101630646Y-96349142D01*
X101625662Y-96418834D01*
X101583790Y-96474767D01*
X101518326Y-96499184D01*
X101509480Y-96499500D01*
X100841519Y-96499500D01*
X100774480Y-96479815D01*
X100753838Y-96463181D01*
X98146546Y-93855888D01*
X98146545Y-93855887D01*
X98031807Y-93779222D01*
X97904332Y-93726421D01*
X97904322Y-93726418D01*
X97768996Y-93699500D01*
X97768994Y-93699500D01*
X97768993Y-93699500D01*
X97223547Y-93699500D01*
X97156508Y-93679815D01*
X97123230Y-93648385D01*
X97065320Y-93568679D01*
X97030107Y-93520211D01*
X96879786Y-93369890D01*
X96707817Y-93244949D01*
X96698504Y-93240204D01*
X96647707Y-93192230D01*
X96630912Y-93124409D01*
X96653449Y-93058274D01*
X96698507Y-93019232D01*
X96707555Y-93014622D01*
X96761716Y-92975270D01*
X96761717Y-92975270D01*
X96129408Y-92342962D01*
X96192993Y-92325925D01*
X96307007Y-92260099D01*
X96400099Y-92167007D01*
X96465925Y-92052993D01*
X96482962Y-91989409D01*
X97115270Y-92621717D01*
X97115270Y-92621716D01*
X97154622Y-92567554D01*
X97251095Y-92378217D01*
X97316757Y-92176130D01*
X97316757Y-92176127D01*
X97350000Y-91966246D01*
X97350000Y-91753753D01*
X97316757Y-91543872D01*
X97316757Y-91543869D01*
X97251095Y-91341782D01*
X97154624Y-91152449D01*
X97115270Y-91098282D01*
X97115269Y-91098282D01*
X96482962Y-91730590D01*
X96465925Y-91667007D01*
X96400099Y-91552993D01*
X96307007Y-91459901D01*
X96192993Y-91394075D01*
X96129409Y-91377037D01*
X96761716Y-90744728D01*
X96707550Y-90705375D01*
X96697954Y-90700486D01*
X96647157Y-90652512D01*
X96630361Y-90584692D01*
X96652897Y-90518556D01*
X96697954Y-90479514D01*
X96707554Y-90474622D01*
X96761716Y-90435270D01*
X96761717Y-90435270D01*
X96129408Y-89802962D01*
X96192993Y-89785925D01*
X96307007Y-89720099D01*
X96400099Y-89627007D01*
X96465925Y-89512993D01*
X96482962Y-89449409D01*
X97115270Y-90081717D01*
X97115270Y-90081716D01*
X97154622Y-90027554D01*
X97251095Y-89838217D01*
X97316757Y-89636130D01*
X97316757Y-89636127D01*
X97350000Y-89426246D01*
X97350000Y-89213753D01*
X97316757Y-89003872D01*
X97316757Y-89003869D01*
X97251095Y-88801782D01*
X97154624Y-88612449D01*
X97115270Y-88558282D01*
X97115269Y-88558282D01*
X96482962Y-89190590D01*
X96465925Y-89127007D01*
X96400099Y-89012993D01*
X96307007Y-88919901D01*
X96192993Y-88854075D01*
X96129409Y-88837037D01*
X96761716Y-88204728D01*
X96707550Y-88165375D01*
X96697954Y-88160486D01*
X96647157Y-88112512D01*
X96630361Y-88044692D01*
X96652897Y-87978556D01*
X96697954Y-87939514D01*
X96707554Y-87934622D01*
X96761716Y-87895270D01*
X96761717Y-87895270D01*
X96129408Y-87262962D01*
X96192993Y-87245925D01*
X96307007Y-87180099D01*
X96400099Y-87087007D01*
X96465925Y-86972993D01*
X96482962Y-86909409D01*
X97115270Y-87541717D01*
X97115270Y-87541716D01*
X97154622Y-87487554D01*
X97251095Y-87298217D01*
X97316757Y-87096130D01*
X97316757Y-87096127D01*
X97350000Y-86886246D01*
X97350000Y-86673753D01*
X97316757Y-86463872D01*
X97316757Y-86463869D01*
X97251095Y-86261782D01*
X97154624Y-86072449D01*
X97115270Y-86018282D01*
X97115269Y-86018282D01*
X96482962Y-86650590D01*
X96465925Y-86587007D01*
X96400099Y-86472993D01*
X96307007Y-86379901D01*
X96192993Y-86314075D01*
X96129409Y-86297037D01*
X96761716Y-85664728D01*
X96707550Y-85625375D01*
X96697954Y-85620486D01*
X96647157Y-85572512D01*
X96630361Y-85504692D01*
X96652897Y-85438556D01*
X96697954Y-85399514D01*
X96707554Y-85394622D01*
X96761716Y-85355270D01*
X96761717Y-85355270D01*
X96129408Y-84722962D01*
X96192993Y-84705925D01*
X96307007Y-84640099D01*
X96400099Y-84547007D01*
X96465925Y-84432993D01*
X96482962Y-84369409D01*
X97115270Y-85001717D01*
X97115270Y-85001716D01*
X97154622Y-84947554D01*
X97251095Y-84758217D01*
X97316757Y-84556130D01*
X97316757Y-84556127D01*
X97350000Y-84346246D01*
X97350000Y-84133753D01*
X97316757Y-83923872D01*
X97316757Y-83923869D01*
X97251095Y-83721782D01*
X97154624Y-83532449D01*
X97115270Y-83478282D01*
X97115269Y-83478282D01*
X96482962Y-84110590D01*
X96465925Y-84047007D01*
X96400099Y-83932993D01*
X96307007Y-83839901D01*
X96192993Y-83774075D01*
X96129409Y-83757037D01*
X96761716Y-83124728D01*
X96707547Y-83085373D01*
X96707547Y-83085372D01*
X96698500Y-83080763D01*
X96647706Y-83032788D01*
X96630912Y-82964966D01*
X96653451Y-82898832D01*
X96698508Y-82859793D01*
X96707816Y-82855051D01*
X96806187Y-82783581D01*
X96879786Y-82730109D01*
X96879788Y-82730106D01*
X96879792Y-82730104D01*
X96973077Y-82636819D01*
X97034400Y-82603334D01*
X97060758Y-82600500D01*
X98188693Y-82600500D01*
X98188694Y-82600499D01*
X98362666Y-82565895D01*
X98444606Y-82531953D01*
X98526547Y-82498013D01*
X98634648Y-82425782D01*
X98674036Y-82399464D01*
X100512819Y-80560681D01*
X100574142Y-80527196D01*
X100643834Y-80532180D01*
G37*
%TD.AperFunction*%
%TA.AperFunction,Conductor*%
G36*
X109617703Y-83684806D02*
G01*
X109624181Y-83690838D01*
X110849953Y-84916611D01*
X110849954Y-84916612D01*
X110964692Y-84993277D01*
X111067392Y-85035816D01*
X111092172Y-85046080D01*
X111092176Y-85046080D01*
X111092177Y-85046081D01*
X111227503Y-85073000D01*
X111227506Y-85073000D01*
X111227507Y-85073000D01*
X114144783Y-85073000D01*
X114211822Y-85092685D01*
X114245101Y-85124115D01*
X114305892Y-85207788D01*
X114456213Y-85358109D01*
X114628182Y-85483050D01*
X114636946Y-85487516D01*
X114687742Y-85535491D01*
X114704536Y-85603312D01*
X114681998Y-85669447D01*
X114636946Y-85708484D01*
X114628182Y-85712949D01*
X114456213Y-85837890D01*
X114305890Y-85988213D01*
X114180951Y-86160179D01*
X114084444Y-86349585D01*
X114018753Y-86551760D01*
X113985500Y-86761713D01*
X113985500Y-86974286D01*
X114018097Y-87180099D01*
X114018754Y-87184243D01*
X114051698Y-87285635D01*
X114084444Y-87386414D01*
X114180951Y-87575820D01*
X114305890Y-87747786D01*
X114456213Y-87898109D01*
X114628182Y-88023050D01*
X114636946Y-88027516D01*
X114687742Y-88075491D01*
X114704536Y-88143312D01*
X114681998Y-88209447D01*
X114636946Y-88248484D01*
X114628182Y-88252949D01*
X114456213Y-88377890D01*
X114305890Y-88528213D01*
X114180951Y-88700179D01*
X114084444Y-88889585D01*
X114018753Y-89091760D01*
X113993029Y-89254174D01*
X113985500Y-89301713D01*
X113985500Y-89514287D01*
X113988081Y-89530581D01*
X114018097Y-89720099D01*
X114018754Y-89724243D01*
X114064722Y-89865718D01*
X114084444Y-89926414D01*
X114180951Y-90115820D01*
X114305890Y-90287786D01*
X114456213Y-90438109D01*
X114628182Y-90563050D01*
X114636946Y-90567516D01*
X114687742Y-90615491D01*
X114704536Y-90683312D01*
X114681998Y-90749447D01*
X114636946Y-90788484D01*
X114628182Y-90792949D01*
X114456213Y-90917890D01*
X114305890Y-91068213D01*
X114180951Y-91240179D01*
X114084444Y-91429585D01*
X114018753Y-91631760D01*
X113985500Y-91841713D01*
X113985500Y-92054286D01*
X114018097Y-92260099D01*
X114018754Y-92264243D01*
X114073748Y-92433497D01*
X114084444Y-92466414D01*
X114180951Y-92655820D01*
X114305890Y-92827786D01*
X114456213Y-92978109D01*
X114628182Y-93103050D01*
X114636946Y-93107516D01*
X114687742Y-93155491D01*
X114704536Y-93223312D01*
X114681998Y-93289447D01*
X114636946Y-93328484D01*
X114628182Y-93332949D01*
X114456213Y-93457890D01*
X114456209Y-93457894D01*
X114375923Y-93538181D01*
X114314600Y-93571666D01*
X114288242Y-93574500D01*
X108209552Y-93574500D01*
X108142513Y-93554815D01*
X108121871Y-93538181D01*
X108088351Y-93504661D01*
X108088350Y-93504660D01*
X107968902Y-93430984D01*
X107941518Y-93414093D01*
X107941517Y-93414092D01*
X107941516Y-93414092D01*
X107863831Y-93388349D01*
X107806387Y-93348577D01*
X107779565Y-93284060D01*
X107791880Y-93215285D01*
X107837738Y-93165107D01*
X107950850Y-93095340D01*
X108072840Y-92973350D01*
X108072841Y-92973347D01*
X108072844Y-92973345D01*
X108073445Y-92972586D01*
X108073989Y-92972200D01*
X108077947Y-92968243D01*
X108078623Y-92968919D01*
X108130468Y-92932211D01*
X108170708Y-92925500D01*
X108535040Y-92925500D01*
X108582492Y-92934939D01*
X108662896Y-92968243D01*
X108666503Y-92969737D01*
X108811873Y-92998653D01*
X108821153Y-93000499D01*
X108821156Y-93000500D01*
X108821158Y-93000500D01*
X108978844Y-93000500D01*
X108978845Y-93000499D01*
X109133497Y-92969737D01*
X109279179Y-92909394D01*
X109410289Y-92821789D01*
X109521789Y-92710289D01*
X109609394Y-92579179D01*
X109669737Y-92433497D01*
X109700500Y-92278842D01*
X109700500Y-92121158D01*
X109700500Y-92121155D01*
X109700499Y-92121153D01*
X109669738Y-91966510D01*
X109669737Y-91966503D01*
X109625623Y-91860001D01*
X109609397Y-91820827D01*
X109609390Y-91820814D01*
X109521789Y-91689711D01*
X109521786Y-91689707D01*
X109410292Y-91578213D01*
X109410288Y-91578210D01*
X109279185Y-91490609D01*
X109279172Y-91490602D01*
X109133501Y-91430264D01*
X109133489Y-91430261D01*
X108978845Y-91399500D01*
X108978842Y-91399500D01*
X108821158Y-91399500D01*
X108821155Y-91399500D01*
X108666510Y-91430261D01*
X108666498Y-91430264D01*
X108520827Y-91490602D01*
X108520813Y-91490610D01*
X108501372Y-91503601D01*
X108434695Y-91524480D01*
X108432480Y-91524500D01*
X108170708Y-91524500D01*
X108140499Y-91515629D01*
X108109819Y-91508521D01*
X108106435Y-91505627D01*
X108103669Y-91504815D01*
X108081852Y-91486991D01*
X108074662Y-91479605D01*
X108072840Y-91476650D01*
X108033244Y-91437054D01*
X108032696Y-91436491D01*
X108016720Y-91406271D01*
X108000386Y-91376358D01*
X108000447Y-91375491D01*
X108000041Y-91374722D01*
X108002936Y-91340697D01*
X108005370Y-91306666D01*
X108005902Y-91305837D01*
X108005965Y-91305104D01*
X108008440Y-91301888D01*
X108033871Y-91262319D01*
X108072840Y-91223350D01*
X108072841Y-91223347D01*
X108072844Y-91223345D01*
X108073445Y-91222586D01*
X108073989Y-91222200D01*
X108077947Y-91218243D01*
X108078623Y-91218919D01*
X108130468Y-91182211D01*
X108170708Y-91175500D01*
X108193996Y-91175500D01*
X108285040Y-91157389D01*
X108329328Y-91148580D01*
X108393069Y-91122177D01*
X108456807Y-91095777D01*
X108456808Y-91095776D01*
X108456811Y-91095775D01*
X108571543Y-91019114D01*
X109256113Y-90334543D01*
X109278644Y-90300824D01*
X109332775Y-90219811D01*
X109375851Y-90115816D01*
X109385580Y-90092329D01*
X109392829Y-90055886D01*
X109412500Y-89956993D01*
X109412500Y-83778519D01*
X109432185Y-83711480D01*
X109484989Y-83665725D01*
X109554147Y-83655781D01*
X109617703Y-83684806D01*
G37*
%TD.AperFunction*%
%TA.AperFunction,Conductor*%
G36*
X107325520Y-71720185D02*
G01*
X107346162Y-71736819D01*
X111663181Y-76053838D01*
X111696666Y-76115161D01*
X111699500Y-76141519D01*
X111699500Y-81031006D01*
X111699500Y-81168994D01*
X111699500Y-81168996D01*
X111699499Y-81168996D01*
X111726418Y-81304322D01*
X111726421Y-81304332D01*
X111779222Y-81431807D01*
X111855887Y-81546545D01*
X111855888Y-81546546D01*
X112588386Y-82279042D01*
X112677055Y-82367711D01*
X112685959Y-82376615D01*
X112800682Y-82453271D01*
X112800695Y-82453278D01*
X112854806Y-82475691D01*
X112858302Y-82477139D01*
X112928171Y-82506080D01*
X112955091Y-82511434D01*
X113048010Y-82529917D01*
X113063506Y-82533000D01*
X113063507Y-82533000D01*
X114144783Y-82533000D01*
X114211822Y-82552685D01*
X114245101Y-82584115D01*
X114305892Y-82667788D01*
X114456213Y-82818109D01*
X114628182Y-82943050D01*
X114636946Y-82947516D01*
X114687742Y-82995491D01*
X114704536Y-83063312D01*
X114681998Y-83129447D01*
X114636946Y-83168484D01*
X114628182Y-83172949D01*
X114456213Y-83297890D01*
X114305890Y-83448213D01*
X114180439Y-83620885D01*
X114125110Y-83663551D01*
X114080121Y-83672000D01*
X111638019Y-83672000D01*
X111570980Y-83652315D01*
X111550338Y-83635681D01*
X109448819Y-81534162D01*
X109415334Y-81472839D01*
X109412500Y-81446481D01*
X109412500Y-76131004D01*
X109397150Y-76053838D01*
X109387302Y-76004328D01*
X109385580Y-75995671D01*
X109363707Y-75942866D01*
X109332775Y-75868189D01*
X109332773Y-75868186D01*
X109332771Y-75868182D01*
X109256115Y-75753459D01*
X109224854Y-75722198D01*
X109158542Y-75655886D01*
X108780930Y-75278274D01*
X107634546Y-74131888D01*
X107634545Y-74131887D01*
X107519807Y-74055222D01*
X107392332Y-74002421D01*
X107392322Y-74002418D01*
X107256996Y-73975500D01*
X107256994Y-73975500D01*
X107256993Y-73975500D01*
X99255007Y-73975500D01*
X99255003Y-73975500D01*
X99146590Y-73997065D01*
X99146589Y-73997065D01*
X99119681Y-74002418D01*
X99119671Y-74002420D01*
X98992190Y-74055224D01*
X98877454Y-74131887D01*
X97233351Y-75775990D01*
X97172028Y-75809475D01*
X97102336Y-75804491D01*
X97046403Y-75762619D01*
X97045353Y-75761196D01*
X97039104Y-75752596D01*
X97030104Y-75740208D01*
X96879792Y-75589896D01*
X96879786Y-75589890D01*
X96707817Y-75464949D01*
X96698504Y-75460204D01*
X96647707Y-75412230D01*
X96630912Y-75344409D01*
X96653449Y-75278274D01*
X96698507Y-75239232D01*
X96707555Y-75234622D01*
X96761716Y-75195270D01*
X96761717Y-75195270D01*
X96129408Y-74562962D01*
X96192993Y-74545925D01*
X96307007Y-74480099D01*
X96400099Y-74387007D01*
X96465925Y-74272993D01*
X96482962Y-74209409D01*
X97115270Y-74841717D01*
X97115270Y-74841716D01*
X97154622Y-74787554D01*
X97251095Y-74598217D01*
X97316757Y-74396130D01*
X97316757Y-74396127D01*
X97350000Y-74186246D01*
X97350000Y-73973753D01*
X97316757Y-73763872D01*
X97316757Y-73763869D01*
X97251095Y-73561782D01*
X97154624Y-73372449D01*
X97115270Y-73318282D01*
X97115269Y-73318282D01*
X96482962Y-73950590D01*
X96465925Y-73887007D01*
X96400099Y-73772993D01*
X96307007Y-73679901D01*
X96192993Y-73614075D01*
X96129409Y-73597037D01*
X96761716Y-72964728D01*
X96707547Y-72925373D01*
X96707547Y-72925372D01*
X96698500Y-72920763D01*
X96647706Y-72872788D01*
X96630912Y-72804966D01*
X96653451Y-72738832D01*
X96698508Y-72699793D01*
X96707816Y-72695051D01*
X96873048Y-72575004D01*
X96879786Y-72570109D01*
X96879788Y-72570106D01*
X96879792Y-72570104D01*
X97030104Y-72419792D01*
X97030106Y-72419788D01*
X97030109Y-72419786D01*
X97155048Y-72247820D01*
X97155047Y-72247820D01*
X97155051Y-72247816D01*
X97251557Y-72058412D01*
X97317246Y-71856243D01*
X97325346Y-71805102D01*
X97355275Y-71741968D01*
X97414586Y-71705036D01*
X97447819Y-71700500D01*
X107258481Y-71700500D01*
X107325520Y-71720185D01*
G37*
%TD.AperFunction*%
%TA.AperFunction,Conductor*%
G36*
X100746129Y-75396185D02*
G01*
X100791884Y-75448989D01*
X100801828Y-75518147D01*
X100791472Y-75552905D01*
X100790185Y-75555663D01*
X100735001Y-75722198D01*
X100724500Y-75824980D01*
X100724500Y-77871211D01*
X100718868Y-77890390D01*
X100718155Y-77910368D01*
X100709225Y-77923229D01*
X100704815Y-77938250D01*
X100689709Y-77951338D01*
X100678308Y-77967761D01*
X100654356Y-77981972D01*
X100652011Y-77984005D01*
X100647955Y-77985771D01*
X100630395Y-77993045D01*
X100630393Y-77993046D01*
X100548455Y-78026985D01*
X100501291Y-78058500D01*
X100501290Y-78058501D01*
X100400961Y-78125537D01*
X100400960Y-78125538D01*
X97763319Y-80763181D01*
X97701996Y-80796666D01*
X97675638Y-80799500D01*
X97060758Y-80799500D01*
X96993719Y-80779815D01*
X96973077Y-80763181D01*
X96879786Y-80669890D01*
X96707817Y-80544949D01*
X96698504Y-80540204D01*
X96647707Y-80492230D01*
X96630912Y-80424409D01*
X96653449Y-80358274D01*
X96698507Y-80319232D01*
X96707555Y-80314622D01*
X96761716Y-80275270D01*
X96761717Y-80275270D01*
X96129408Y-79642962D01*
X96192993Y-79625925D01*
X96307007Y-79560099D01*
X96400099Y-79467007D01*
X96465925Y-79352993D01*
X96482962Y-79289409D01*
X97115270Y-79921717D01*
X97115270Y-79921716D01*
X97154622Y-79867554D01*
X97251095Y-79678217D01*
X97316757Y-79476130D01*
X97316757Y-79476127D01*
X97350000Y-79266246D01*
X97350000Y-79053753D01*
X97316757Y-78843872D01*
X97316757Y-78843869D01*
X97251095Y-78641782D01*
X97154624Y-78452449D01*
X97115270Y-78398282D01*
X97115269Y-78398282D01*
X96482962Y-79030590D01*
X96465925Y-78967007D01*
X96400099Y-78852993D01*
X96307007Y-78759901D01*
X96192993Y-78694075D01*
X96129409Y-78677037D01*
X96761716Y-78044728D01*
X96707547Y-78005373D01*
X96707547Y-78005372D01*
X96698500Y-78000763D01*
X96647706Y-77952788D01*
X96630912Y-77884966D01*
X96653451Y-77818832D01*
X96698508Y-77779793D01*
X96707816Y-77775051D01*
X96806187Y-77703581D01*
X96879786Y-77650109D01*
X96879788Y-77650106D01*
X96879792Y-77650104D01*
X97030104Y-77499792D01*
X97123229Y-77371614D01*
X97178558Y-77328949D01*
X97223547Y-77320500D01*
X97448996Y-77320500D01*
X97540040Y-77302389D01*
X97584328Y-77293580D01*
X97648069Y-77267177D01*
X97711807Y-77240777D01*
X97711808Y-77240776D01*
X97711811Y-77240775D01*
X97826543Y-77164114D01*
X99577838Y-75412819D01*
X99639161Y-75379334D01*
X99665519Y-75376500D01*
X100679090Y-75376500D01*
X100746129Y-75396185D01*
G37*
%TD.AperFunction*%
%TA.AperFunction,Conductor*%
G36*
X133204809Y-66470185D02*
G01*
X133225451Y-66486819D01*
X136321586Y-69582954D01*
X136344422Y-69598211D01*
X136395270Y-69632186D01*
X136444505Y-69665084D01*
X136501080Y-69688518D01*
X136572953Y-69718289D01*
X136627356Y-69762130D01*
X136649421Y-69828424D01*
X136649500Y-69832848D01*
X136649500Y-69897869D01*
X136649501Y-69897876D01*
X136655908Y-69957483D01*
X136706202Y-70092328D01*
X136706206Y-70092335D01*
X136792452Y-70207544D01*
X136792455Y-70207547D01*
X136907664Y-70293793D01*
X136907671Y-70293797D01*
X137039082Y-70342810D01*
X137095016Y-70384681D01*
X137119433Y-70450145D01*
X137104582Y-70518418D01*
X137083431Y-70546673D01*
X136969890Y-70660214D01*
X136905961Y-70748208D01*
X136876770Y-70788385D01*
X136821442Y-70831051D01*
X136776453Y-70839500D01*
X135655004Y-70839500D01*
X135519677Y-70866418D01*
X135519667Y-70866421D01*
X135392192Y-70919222D01*
X135277454Y-70995887D01*
X134075888Y-72197453D01*
X134075884Y-72197458D01*
X134045232Y-72243334D01*
X134030233Y-72265782D01*
X134014675Y-72289065D01*
X133999223Y-72312191D01*
X133946421Y-72439667D01*
X133946418Y-72439677D01*
X133919500Y-72575004D01*
X133919500Y-101175948D01*
X133911277Y-101203950D01*
X133905793Y-101232618D01*
X133900882Y-101239353D01*
X133899815Y-101242987D01*
X133885360Y-101261395D01*
X133884294Y-101262515D01*
X133799660Y-101347150D01*
X133791987Y-101359588D01*
X133783089Y-101368947D01*
X133763581Y-101380245D01*
X133746820Y-101395321D01*
X133731566Y-101398787D01*
X133722627Y-101403965D01*
X133711126Y-101403432D01*
X133693229Y-101407500D01*
X131779547Y-101407500D01*
X131712508Y-101387815D01*
X131679230Y-101356385D01*
X131607954Y-101258282D01*
X131586107Y-101228211D01*
X131435786Y-101077890D01*
X131263820Y-100952951D01*
X131263115Y-100952591D01*
X131255054Y-100948485D01*
X131204259Y-100900512D01*
X131187463Y-100832692D01*
X131209999Y-100766556D01*
X131255054Y-100727515D01*
X131263816Y-100723051D01*
X131291753Y-100702754D01*
X131435786Y-100598109D01*
X131435788Y-100598106D01*
X131435792Y-100598104D01*
X131586104Y-100447792D01*
X131586106Y-100447788D01*
X131586109Y-100447786D01*
X131711048Y-100275820D01*
X131711047Y-100275820D01*
X131711051Y-100275816D01*
X131807557Y-100086412D01*
X131873246Y-99884243D01*
X131906500Y-99674287D01*
X131906500Y-99461713D01*
X131873246Y-99251757D01*
X131807557Y-99049588D01*
X131711051Y-98860184D01*
X131711049Y-98860181D01*
X131711048Y-98860179D01*
X131586109Y-98688213D01*
X131435786Y-98537890D01*
X131263820Y-98412951D01*
X131263115Y-98412591D01*
X131255054Y-98408485D01*
X131204259Y-98360512D01*
X131187463Y-98292692D01*
X131209999Y-98226556D01*
X131255054Y-98187515D01*
X131263816Y-98183051D01*
X131312382Y-98147766D01*
X131435786Y-98058109D01*
X131435788Y-98058106D01*
X131435792Y-98058104D01*
X131586104Y-97907792D01*
X131586106Y-97907788D01*
X131586109Y-97907786D01*
X131711048Y-97735820D01*
X131711047Y-97735820D01*
X131711051Y-97735816D01*
X131807557Y-97546412D01*
X131873246Y-97344243D01*
X131906500Y-97134287D01*
X131906500Y-96921713D01*
X131873246Y-96711757D01*
X131807557Y-96509588D01*
X131711051Y-96320184D01*
X131711049Y-96320181D01*
X131711048Y-96320179D01*
X131586109Y-96148213D01*
X131435786Y-95997890D01*
X131263820Y-95872951D01*
X131263115Y-95872591D01*
X131255054Y-95868485D01*
X131204259Y-95820512D01*
X131187463Y-95752692D01*
X131209999Y-95686556D01*
X131255054Y-95647515D01*
X131263816Y-95643051D01*
X131300372Y-95616492D01*
X131435786Y-95518109D01*
X131435788Y-95518106D01*
X131435792Y-95518104D01*
X131586104Y-95367792D01*
X131586106Y-95367788D01*
X131586109Y-95367786D01*
X131711048Y-95195820D01*
X131711050Y-95195817D01*
X131711051Y-95195816D01*
X131807557Y-95006412D01*
X131873246Y-94804243D01*
X131906500Y-94594287D01*
X131906500Y-94381713D01*
X131873246Y-94171757D01*
X131807557Y-93969588D01*
X131711051Y-93780184D01*
X131711049Y-93780181D01*
X131711048Y-93780179D01*
X131586109Y-93608213D01*
X131435786Y-93457890D01*
X131263820Y-93332951D01*
X131263115Y-93332591D01*
X131255054Y-93328485D01*
X131204259Y-93280512D01*
X131187463Y-93212692D01*
X131209999Y-93146556D01*
X131255054Y-93107515D01*
X131263816Y-93103051D01*
X131305316Y-93072900D01*
X131435786Y-92978109D01*
X131435788Y-92978106D01*
X131435792Y-92978104D01*
X131586104Y-92827792D01*
X131586106Y-92827788D01*
X131586109Y-92827786D01*
X131711048Y-92655820D01*
X131711047Y-92655820D01*
X131711051Y-92655816D01*
X131807557Y-92466412D01*
X131873246Y-92264243D01*
X131906500Y-92054287D01*
X131906500Y-91841713D01*
X131873246Y-91631757D01*
X131807557Y-91429588D01*
X131711051Y-91240184D01*
X131711049Y-91240181D01*
X131711048Y-91240179D01*
X131586109Y-91068213D01*
X131435786Y-90917890D01*
X131263820Y-90792951D01*
X131263115Y-90792591D01*
X131255054Y-90788485D01*
X131204259Y-90740512D01*
X131187463Y-90672692D01*
X131209999Y-90606556D01*
X131255054Y-90567515D01*
X131263816Y-90563051D01*
X131285789Y-90547086D01*
X131435786Y-90438109D01*
X131435788Y-90438106D01*
X131435792Y-90438104D01*
X131586104Y-90287792D01*
X131586106Y-90287788D01*
X131586109Y-90287786D01*
X131711048Y-90115820D01*
X131711047Y-90115820D01*
X131711051Y-90115816D01*
X131807557Y-89926412D01*
X131873246Y-89724243D01*
X131906500Y-89514287D01*
X131906500Y-89301713D01*
X131873246Y-89091757D01*
X131807557Y-88889588D01*
X131711051Y-88700184D01*
X131711049Y-88700181D01*
X131711048Y-88700179D01*
X131586109Y-88528213D01*
X131435786Y-88377890D01*
X131263820Y-88252951D01*
X131263115Y-88252591D01*
X131255054Y-88248485D01*
X131204259Y-88200512D01*
X131187463Y-88132692D01*
X131209999Y-88066556D01*
X131255054Y-88027515D01*
X131263816Y-88023051D01*
X131311811Y-87988181D01*
X131435786Y-87898109D01*
X131435788Y-87898106D01*
X131435792Y-87898104D01*
X131586104Y-87747792D01*
X131586106Y-87747788D01*
X131586109Y-87747786D01*
X131711048Y-87575820D01*
X131711047Y-87575820D01*
X131711051Y-87575816D01*
X131807557Y-87386412D01*
X131873246Y-87184243D01*
X131906500Y-86974287D01*
X131906500Y-86761713D01*
X131873246Y-86551757D01*
X131807557Y-86349588D01*
X131711051Y-86160184D01*
X131711049Y-86160181D01*
X131711048Y-86160179D01*
X131586109Y-85988213D01*
X131435786Y-85837890D01*
X131263820Y-85712951D01*
X131263115Y-85712591D01*
X131255054Y-85708485D01*
X131204259Y-85660512D01*
X131187463Y-85592692D01*
X131209999Y-85526556D01*
X131255054Y-85487515D01*
X131263816Y-85483051D01*
X131285789Y-85467086D01*
X131435786Y-85358109D01*
X131435788Y-85358106D01*
X131435792Y-85358104D01*
X131586104Y-85207792D01*
X131586106Y-85207788D01*
X131586109Y-85207786D01*
X131711048Y-85035820D01*
X131711047Y-85035820D01*
X131711051Y-85035816D01*
X131807557Y-84846412D01*
X131873246Y-84644243D01*
X131906500Y-84434287D01*
X131906500Y-84221713D01*
X131873246Y-84011757D01*
X131807557Y-83809588D01*
X131711051Y-83620184D01*
X131711049Y-83620181D01*
X131711048Y-83620179D01*
X131586109Y-83448213D01*
X131435786Y-83297890D01*
X131263820Y-83172951D01*
X131263115Y-83172591D01*
X131255054Y-83168485D01*
X131204259Y-83120512D01*
X131187463Y-83052692D01*
X131209999Y-82986556D01*
X131255054Y-82947515D01*
X131263816Y-82943051D01*
X131312382Y-82907766D01*
X131435786Y-82818109D01*
X131435788Y-82818106D01*
X131435792Y-82818104D01*
X131586104Y-82667792D01*
X131586106Y-82667788D01*
X131586109Y-82667786D01*
X131711048Y-82495820D01*
X131711047Y-82495820D01*
X131711051Y-82495816D01*
X131807557Y-82306412D01*
X131873246Y-82104243D01*
X131906500Y-81894287D01*
X131906500Y-81681713D01*
X131873246Y-81471757D01*
X131807557Y-81269588D01*
X131711051Y-81080184D01*
X131711049Y-81080181D01*
X131711048Y-81080179D01*
X131586109Y-80908213D01*
X131435786Y-80757890D01*
X131263820Y-80632951D01*
X131263115Y-80632591D01*
X131255054Y-80628485D01*
X131204259Y-80580512D01*
X131187463Y-80512692D01*
X131209999Y-80446556D01*
X131255054Y-80407515D01*
X131263816Y-80403051D01*
X131291753Y-80382754D01*
X131435786Y-80278109D01*
X131435788Y-80278106D01*
X131435792Y-80278104D01*
X131586104Y-80127792D01*
X131586106Y-80127788D01*
X131586109Y-80127786D01*
X131711048Y-79955820D01*
X131711047Y-79955820D01*
X131711051Y-79955816D01*
X131807557Y-79766412D01*
X131873246Y-79564243D01*
X131906500Y-79354287D01*
X131906500Y-79141713D01*
X131873246Y-78931757D01*
X131807557Y-78729588D01*
X131711051Y-78540184D01*
X131711049Y-78540181D01*
X131711048Y-78540179D01*
X131586109Y-78368213D01*
X131435786Y-78217890D01*
X131263820Y-78092951D01*
X131263115Y-78092591D01*
X131255054Y-78088485D01*
X131204259Y-78040512D01*
X131187463Y-77972692D01*
X131209999Y-77906556D01*
X131255054Y-77867515D01*
X131263816Y-77863051D01*
X131312382Y-77827766D01*
X131435786Y-77738109D01*
X131435788Y-77738106D01*
X131435792Y-77738104D01*
X131586104Y-77587792D01*
X131586106Y-77587788D01*
X131586109Y-77587786D01*
X131711048Y-77415820D01*
X131711047Y-77415820D01*
X131711051Y-77415816D01*
X131807557Y-77226412D01*
X131873246Y-77024243D01*
X131906500Y-76814287D01*
X131906500Y-76601713D01*
X131873246Y-76391757D01*
X131807557Y-76189588D01*
X131711051Y-76000184D01*
X131711049Y-76000181D01*
X131711048Y-76000179D01*
X131586109Y-75828213D01*
X131435786Y-75677890D01*
X131263820Y-75552951D01*
X131263115Y-75552591D01*
X131255054Y-75548485D01*
X131204259Y-75500512D01*
X131187463Y-75432692D01*
X131209999Y-75366556D01*
X131255054Y-75327515D01*
X131263816Y-75323051D01*
X131291753Y-75302754D01*
X131435786Y-75198109D01*
X131435788Y-75198106D01*
X131435792Y-75198104D01*
X131586104Y-75047792D01*
X131586106Y-75047788D01*
X131586109Y-75047786D01*
X131711048Y-74875820D01*
X131711047Y-74875820D01*
X131711051Y-74875816D01*
X131807557Y-74686412D01*
X131873246Y-74484243D01*
X131906500Y-74274287D01*
X131906500Y-74061713D01*
X131873246Y-73851757D01*
X131807557Y-73649588D01*
X131711051Y-73460184D01*
X131711049Y-73460181D01*
X131711048Y-73460179D01*
X131586109Y-73288213D01*
X131435786Y-73137890D01*
X131263817Y-73012949D01*
X131254504Y-73008204D01*
X131203707Y-72960230D01*
X131186912Y-72892409D01*
X131209449Y-72826274D01*
X131254507Y-72787232D01*
X131263555Y-72782622D01*
X131317716Y-72743270D01*
X131317717Y-72743270D01*
X130685408Y-72110962D01*
X130748993Y-72093925D01*
X130863007Y-72028099D01*
X130956099Y-71935007D01*
X131021925Y-71820993D01*
X131038962Y-71757409D01*
X131671270Y-72389717D01*
X131671270Y-72389716D01*
X131710622Y-72335554D01*
X131807095Y-72146217D01*
X131872757Y-71944130D01*
X131872757Y-71944127D01*
X131906000Y-71734246D01*
X131906000Y-71521753D01*
X131872757Y-71311872D01*
X131872757Y-71311869D01*
X131807095Y-71109782D01*
X131710624Y-70920449D01*
X131671270Y-70866282D01*
X131671269Y-70866282D01*
X131038962Y-71498590D01*
X131021925Y-71435007D01*
X130956099Y-71320993D01*
X130863007Y-71227901D01*
X130748993Y-71162075D01*
X130685409Y-71145037D01*
X131355627Y-70474818D01*
X131416950Y-70441333D01*
X131443307Y-70438499D01*
X131453872Y-70438499D01*
X131513483Y-70432091D01*
X131648331Y-70381796D01*
X131763546Y-70295546D01*
X131849796Y-70180331D01*
X131900091Y-70045483D01*
X131906500Y-69985873D01*
X131906499Y-68190128D01*
X131900091Y-68130517D01*
X131856667Y-68014092D01*
X131849797Y-67995671D01*
X131849793Y-67995664D01*
X131763547Y-67880455D01*
X131763544Y-67880452D01*
X131648335Y-67794206D01*
X131648328Y-67794202D01*
X131513482Y-67743908D01*
X131513483Y-67743908D01*
X131453883Y-67737501D01*
X131453881Y-67737500D01*
X131453873Y-67737500D01*
X131453865Y-67737500D01*
X131430500Y-67737500D01*
X131363461Y-67717815D01*
X131317706Y-67665011D01*
X131306500Y-67613500D01*
X131306500Y-66612229D01*
X131315144Y-66582788D01*
X131321668Y-66552802D01*
X131325422Y-66547786D01*
X131326185Y-66545190D01*
X131342819Y-66524548D01*
X131380548Y-66486819D01*
X131441871Y-66453334D01*
X131468229Y-66450500D01*
X131676082Y-66450500D01*
X133137770Y-66450500D01*
X133204809Y-66470185D01*
G37*
%TD.AperFunction*%
%TA.AperFunction,Conductor*%
G36*
X137003032Y-64000648D02*
G01*
X137336929Y-64017052D01*
X137349037Y-64018245D01*
X137452146Y-64033539D01*
X137676699Y-64066849D01*
X137688617Y-64069219D01*
X138009951Y-64149709D01*
X138021588Y-64153240D01*
X138092806Y-64178722D01*
X138333467Y-64264832D01*
X138344688Y-64269479D01*
X138644163Y-64411120D01*
X138654871Y-64416844D01*
X138938988Y-64587137D01*
X138949106Y-64593897D01*
X139215170Y-64791224D01*
X139224576Y-64798944D01*
X139470013Y-65021395D01*
X139478604Y-65029986D01*
X139557516Y-65117052D01*
X139701055Y-65275423D01*
X139708775Y-65284829D01*
X139906102Y-65550893D01*
X139912862Y-65561011D01*
X140041776Y-65776092D01*
X140083148Y-65845116D01*
X140088885Y-65855848D01*
X140230514Y-66155297D01*
X140235170Y-66166540D01*
X140346759Y-66478411D01*
X140350292Y-66490055D01*
X140430777Y-66811369D01*
X140433151Y-66823305D01*
X140481754Y-67150962D01*
X140482947Y-67163071D01*
X140499351Y-67496966D01*
X140499500Y-67503051D01*
X140499500Y-117496948D01*
X140499351Y-117503033D01*
X140482947Y-117836928D01*
X140481754Y-117849037D01*
X140433151Y-118176694D01*
X140430777Y-118188630D01*
X140350292Y-118509944D01*
X140346759Y-118521588D01*
X140235170Y-118833459D01*
X140230514Y-118844702D01*
X140088885Y-119144151D01*
X140083148Y-119154883D01*
X139912862Y-119438988D01*
X139906102Y-119449106D01*
X139708775Y-119715170D01*
X139701055Y-119724576D01*
X139478611Y-119970006D01*
X139470006Y-119978611D01*
X139224576Y-120201055D01*
X139215170Y-120208775D01*
X138949106Y-120406102D01*
X138938988Y-120412862D01*
X138654883Y-120583148D01*
X138644151Y-120588885D01*
X138344702Y-120730514D01*
X138333459Y-120735170D01*
X138021588Y-120846759D01*
X138009944Y-120850292D01*
X137688630Y-120930777D01*
X137676694Y-120933151D01*
X137349037Y-120981754D01*
X137336928Y-120982947D01*
X137021989Y-120998419D01*
X137003031Y-120999351D01*
X136996949Y-120999500D01*
X97003051Y-120999500D01*
X96996968Y-120999351D01*
X96976900Y-120998365D01*
X96663071Y-120982947D01*
X96650962Y-120981754D01*
X96323305Y-120933151D01*
X96311369Y-120930777D01*
X95990055Y-120850292D01*
X95978411Y-120846759D01*
X95666540Y-120735170D01*
X95655301Y-120730515D01*
X95355844Y-120588883D01*
X95345121Y-120583150D01*
X95061011Y-120412862D01*
X95050893Y-120406102D01*
X94784829Y-120208775D01*
X94775423Y-120201055D01*
X94736475Y-120165755D01*
X94529986Y-119978604D01*
X94521395Y-119970013D01*
X94298944Y-119724576D01*
X94291224Y-119715170D01*
X94093897Y-119449106D01*
X94087137Y-119438988D01*
X93916844Y-119154871D01*
X93911120Y-119144163D01*
X93769479Y-118844688D01*
X93764829Y-118833459D01*
X93762995Y-118828334D01*
X93653240Y-118521588D01*
X93649707Y-118509944D01*
X93569220Y-118188621D01*
X93566848Y-118176694D01*
X93543859Y-118021717D01*
X93518245Y-117849037D01*
X93517052Y-117836927D01*
X93512655Y-117747432D01*
X93500649Y-117503032D01*
X93500500Y-117496948D01*
X93500500Y-71433713D01*
X94649500Y-71433713D01*
X94649500Y-71646287D01*
X94682754Y-71856243D01*
X94723470Y-71981554D01*
X94748444Y-72058414D01*
X94844951Y-72247820D01*
X94969890Y-72419786D01*
X95120213Y-72570109D01*
X95292179Y-72695048D01*
X95292181Y-72695049D01*
X95292184Y-72695051D01*
X95301493Y-72699794D01*
X95352290Y-72747766D01*
X95369087Y-72815587D01*
X95346552Y-72881722D01*
X95301505Y-72920760D01*
X95292446Y-72925376D01*
X95292440Y-72925380D01*
X95238282Y-72964727D01*
X95238282Y-72964728D01*
X95870591Y-73597037D01*
X95807007Y-73614075D01*
X95692993Y-73679901D01*
X95599901Y-73772993D01*
X95534075Y-73887007D01*
X95517037Y-73950591D01*
X94884728Y-73318282D01*
X94884727Y-73318282D01*
X94845380Y-73372439D01*
X94748904Y-73561782D01*
X94683242Y-73763869D01*
X94683242Y-73763872D01*
X94650000Y-73973753D01*
X94650000Y-74186246D01*
X94683242Y-74396127D01*
X94683242Y-74396130D01*
X94748904Y-74598217D01*
X94845375Y-74787550D01*
X94884728Y-74841716D01*
X95517037Y-74209408D01*
X95534075Y-74272993D01*
X95599901Y-74387007D01*
X95692993Y-74480099D01*
X95807007Y-74545925D01*
X95870590Y-74562962D01*
X95238282Y-75195269D01*
X95238282Y-75195270D01*
X95292452Y-75234626D01*
X95292451Y-75234626D01*
X95301495Y-75239234D01*
X95352292Y-75287208D01*
X95369087Y-75355029D01*
X95346550Y-75421164D01*
X95301499Y-75460202D01*
X95292182Y-75464949D01*
X95120213Y-75589890D01*
X94969890Y-75740213D01*
X94844951Y-75912179D01*
X94748444Y-76101585D01*
X94682753Y-76303760D01*
X94649500Y-76513713D01*
X94649500Y-76726286D01*
X94682753Y-76936239D01*
X94748444Y-77138414D01*
X94844951Y-77327820D01*
X94969890Y-77499786D01*
X95120213Y-77650109D01*
X95292179Y-77775048D01*
X95292181Y-77775049D01*
X95292184Y-77775051D01*
X95301493Y-77779794D01*
X95352290Y-77827766D01*
X95369087Y-77895587D01*
X95346552Y-77961722D01*
X95301505Y-78000760D01*
X95292446Y-78005376D01*
X95292440Y-78005380D01*
X95238282Y-78044727D01*
X95238282Y-78044728D01*
X95870591Y-78677037D01*
X95807007Y-78694075D01*
X95692993Y-78759901D01*
X95599901Y-78852993D01*
X95534075Y-78967007D01*
X95517037Y-79030591D01*
X94884728Y-78398282D01*
X94884727Y-78398282D01*
X94845380Y-78452439D01*
X94748904Y-78641782D01*
X94683242Y-78843869D01*
X94683242Y-78843872D01*
X94650000Y-79053753D01*
X94650000Y-79266246D01*
X94683242Y-79476127D01*
X94683242Y-79476130D01*
X94748904Y-79678217D01*
X94845375Y-79867550D01*
X94884728Y-79921716D01*
X95517037Y-79289408D01*
X95534075Y-79352993D01*
X95599901Y-79467007D01*
X95692993Y-79560099D01*
X95807007Y-79625925D01*
X95870590Y-79642962D01*
X95238282Y-80275269D01*
X95238282Y-80275270D01*
X95292452Y-80314626D01*
X95292451Y-80314626D01*
X95301495Y-80319234D01*
X95352292Y-80367208D01*
X95369087Y-80435029D01*
X95346550Y-80501164D01*
X95301499Y-80540202D01*
X95292182Y-80544949D01*
X95120213Y-80669890D01*
X94969890Y-80820213D01*
X94844951Y-80992179D01*
X94748444Y-81181585D01*
X94682753Y-81383760D01*
X94649500Y-81593713D01*
X94649500Y-81806286D01*
X94682753Y-82016239D01*
X94748444Y-82218414D01*
X94844951Y-82407820D01*
X94969890Y-82579786D01*
X95120213Y-82730109D01*
X95292179Y-82855048D01*
X95292181Y-82855049D01*
X95292184Y-82855051D01*
X95301493Y-82859794D01*
X95352290Y-82907766D01*
X95369087Y-82975587D01*
X95346552Y-83041722D01*
X95301505Y-83080760D01*
X95292446Y-83085376D01*
X95292440Y-83085380D01*
X95238282Y-83124727D01*
X95238282Y-83124728D01*
X95870591Y-83757037D01*
X95807007Y-83774075D01*
X95692993Y-83839901D01*
X95599901Y-83932993D01*
X95534075Y-84047007D01*
X95517037Y-84110591D01*
X94884728Y-83478282D01*
X94884727Y-83478282D01*
X94845380Y-83532439D01*
X94748904Y-83721782D01*
X94683242Y-83923869D01*
X94683242Y-83923872D01*
X94650000Y-84133753D01*
X94650000Y-84346246D01*
X94683242Y-84556127D01*
X94683242Y-84556130D01*
X94748904Y-84758217D01*
X94845375Y-84947550D01*
X94884728Y-85001716D01*
X95517037Y-84369408D01*
X95534075Y-84432993D01*
X95599901Y-84547007D01*
X95692993Y-84640099D01*
X95807007Y-84705925D01*
X95870591Y-84722962D01*
X95269971Y-85323581D01*
X95348711Y-85440895D01*
X95349920Y-85444729D01*
X95352844Y-85447491D01*
X95360343Y-85477778D01*
X95369727Y-85507529D01*
X95368671Y-85511408D01*
X95369638Y-85515312D01*
X95359573Y-85544844D01*
X95351383Y-85574947D01*
X95348397Y-85577640D01*
X95347100Y-85581447D01*
X95302051Y-85620483D01*
X95292440Y-85625380D01*
X95238282Y-85664727D01*
X95238282Y-85664728D01*
X95870591Y-86297037D01*
X95807007Y-86314075D01*
X95692993Y-86379901D01*
X95599901Y-86472993D01*
X95534075Y-86587007D01*
X95517037Y-86650591D01*
X94884728Y-86018282D01*
X94884727Y-86018282D01*
X94845380Y-86072439D01*
X94748904Y-86261782D01*
X94683242Y-86463869D01*
X94683242Y-86463872D01*
X94650000Y-86673753D01*
X94650000Y-86886246D01*
X94683242Y-87096127D01*
X94683242Y-87096130D01*
X94748904Y-87298217D01*
X94845375Y-87487550D01*
X94884728Y-87541716D01*
X95517037Y-86909408D01*
X95534075Y-86972993D01*
X95599901Y-87087007D01*
X95692993Y-87180099D01*
X95807007Y-87245925D01*
X95870591Y-87262962D01*
X95269971Y-87863581D01*
X95348711Y-87980895D01*
X95349920Y-87984729D01*
X95352844Y-87987491D01*
X95360343Y-88017778D01*
X95369727Y-88047529D01*
X95368671Y-88051408D01*
X95369638Y-88055312D01*
X95359573Y-88084844D01*
X95351383Y-88114947D01*
X95348397Y-88117640D01*
X95347100Y-88121447D01*
X95302051Y-88160483D01*
X95292440Y-88165380D01*
X95238282Y-88204727D01*
X95238282Y-88204728D01*
X95870591Y-88837037D01*
X95807007Y-88854075D01*
X95692993Y-88919901D01*
X95599901Y-89012993D01*
X95534075Y-89127007D01*
X95517037Y-89190591D01*
X94884728Y-88558282D01*
X94884727Y-88558282D01*
X94845380Y-88612439D01*
X94748904Y-88801782D01*
X94683242Y-89003869D01*
X94683242Y-89003872D01*
X94650000Y-89213753D01*
X94650000Y-89426246D01*
X94683242Y-89636127D01*
X94683242Y-89636130D01*
X94748904Y-89838217D01*
X94845375Y-90027550D01*
X94884728Y-90081716D01*
X95517037Y-89449408D01*
X95534075Y-89512993D01*
X95599901Y-89627007D01*
X95692993Y-89720099D01*
X95807007Y-89785925D01*
X95870591Y-89802962D01*
X95269971Y-90403581D01*
X95348711Y-90520895D01*
X95349920Y-90524729D01*
X95352844Y-90527491D01*
X95360343Y-90557778D01*
X95369727Y-90587529D01*
X95368671Y-90591408D01*
X95369638Y-90595312D01*
X95359573Y-90624844D01*
X95351383Y-90654947D01*
X95348397Y-90657640D01*
X95347100Y-90661447D01*
X95302051Y-90700483D01*
X95292440Y-90705380D01*
X95238282Y-90744727D01*
X95238282Y-90744728D01*
X95870591Y-91377037D01*
X95807007Y-91394075D01*
X95692993Y-91459901D01*
X95599901Y-91552993D01*
X95534075Y-91667007D01*
X95517037Y-91730591D01*
X94884728Y-91098282D01*
X94884727Y-91098282D01*
X94845380Y-91152439D01*
X94748904Y-91341782D01*
X94683242Y-91543869D01*
X94683242Y-91543872D01*
X94650000Y-91753753D01*
X94650000Y-91966246D01*
X94683242Y-92176127D01*
X94683242Y-92176130D01*
X94748904Y-92378217D01*
X94845375Y-92567550D01*
X94884728Y-92621716D01*
X95517037Y-91989408D01*
X95534075Y-92052993D01*
X95599901Y-92167007D01*
X95692993Y-92260099D01*
X95807007Y-92325925D01*
X95870590Y-92342962D01*
X95238282Y-92975269D01*
X95238282Y-92975270D01*
X95292452Y-93014626D01*
X95292451Y-93014626D01*
X95301495Y-93019234D01*
X95352292Y-93067208D01*
X95369087Y-93135029D01*
X95346550Y-93201164D01*
X95301499Y-93240202D01*
X95292182Y-93244949D01*
X95120213Y-93369890D01*
X94969890Y-93520213D01*
X94844951Y-93692179D01*
X94748444Y-93881585D01*
X94682753Y-94083760D01*
X94649500Y-94293713D01*
X94649500Y-94506286D01*
X94682735Y-94716127D01*
X94682754Y-94716243D01*
X94743276Y-94902511D01*
X94748444Y-94918414D01*
X94844951Y-95107820D01*
X94969890Y-95279786D01*
X95120213Y-95430109D01*
X95292182Y-95555050D01*
X95300946Y-95559516D01*
X95351742Y-95607491D01*
X95368536Y-95675312D01*
X95345998Y-95741447D01*
X95300946Y-95780484D01*
X95292182Y-95784949D01*
X95120213Y-95909890D01*
X94969890Y-96060213D01*
X94844951Y-96232179D01*
X94748444Y-96421585D01*
X94682753Y-96623760D01*
X94649500Y-96833713D01*
X94649500Y-97046286D01*
X94682735Y-97256127D01*
X94682754Y-97256243D01*
X94735583Y-97418834D01*
X94748444Y-97458414D01*
X94844951Y-97647820D01*
X94969890Y-97819786D01*
X95120213Y-97970109D01*
X95292179Y-98095048D01*
X95292181Y-98095049D01*
X95292184Y-98095051D01*
X95301493Y-98099794D01*
X95352290Y-98147766D01*
X95369087Y-98215587D01*
X95346552Y-98281722D01*
X95301505Y-98320760D01*
X95292446Y-98325376D01*
X95292440Y-98325380D01*
X95238282Y-98364727D01*
X95238282Y-98364728D01*
X95870591Y-98997037D01*
X95807007Y-99014075D01*
X95692993Y-99079901D01*
X95599901Y-99172993D01*
X95534075Y-99287007D01*
X95517037Y-99350591D01*
X94884728Y-98718282D01*
X94884727Y-98718282D01*
X94845380Y-98772439D01*
X94748904Y-98961782D01*
X94683242Y-99163869D01*
X94683242Y-99163872D01*
X94650000Y-99373753D01*
X94650000Y-99586246D01*
X94683242Y-99796127D01*
X94683242Y-99796130D01*
X94748904Y-99998217D01*
X94845375Y-100187550D01*
X94884728Y-100241716D01*
X95517037Y-99609408D01*
X95534075Y-99672993D01*
X95599901Y-99787007D01*
X95692993Y-99880099D01*
X95807007Y-99945925D01*
X95870590Y-99962962D01*
X95238282Y-100595269D01*
X95238282Y-100595270D01*
X95292452Y-100634626D01*
X95292451Y-100634626D01*
X95301495Y-100639234D01*
X95352292Y-100687208D01*
X95369087Y-100755029D01*
X95346550Y-100821164D01*
X95301499Y-100860202D01*
X95292182Y-100864949D01*
X95120213Y-100989890D01*
X94969890Y-101140213D01*
X94844951Y-101312179D01*
X94748444Y-101501585D01*
X94748443Y-101501587D01*
X94748443Y-101501588D01*
X94744639Y-101513294D01*
X94682753Y-101703760D01*
X94649500Y-101913713D01*
X94649500Y-102126286D01*
X94682735Y-102336127D01*
X94682754Y-102336243D01*
X94722050Y-102457184D01*
X94748444Y-102538414D01*
X94844951Y-102727820D01*
X94969890Y-102899786D01*
X95120213Y-103050109D01*
X95292179Y-103175048D01*
X95292181Y-103175049D01*
X95292184Y-103175051D01*
X95301493Y-103179794D01*
X95352290Y-103227766D01*
X95369087Y-103295587D01*
X95346552Y-103361722D01*
X95301505Y-103400760D01*
X95292446Y-103405376D01*
X95292440Y-103405380D01*
X95238282Y-103444727D01*
X95238282Y-103444728D01*
X95870591Y-104077037D01*
X95807007Y-104094075D01*
X95692993Y-104159901D01*
X95599901Y-104252993D01*
X95534075Y-104367007D01*
X95517037Y-104430591D01*
X94884728Y-103798282D01*
X94884727Y-103798282D01*
X94845380Y-103852439D01*
X94748904Y-104041782D01*
X94683242Y-104243869D01*
X94683242Y-104243872D01*
X94650000Y-104453753D01*
X94650000Y-104666246D01*
X94683242Y-104876127D01*
X94683242Y-104876130D01*
X94748904Y-105078217D01*
X94845375Y-105267550D01*
X94884728Y-105321716D01*
X95517037Y-104689408D01*
X95534075Y-104752993D01*
X95599901Y-104867007D01*
X95692993Y-104960099D01*
X95807007Y-105025925D01*
X95870590Y-105042962D01*
X95238282Y-105675269D01*
X95238282Y-105675270D01*
X95292452Y-105714626D01*
X95292451Y-105714626D01*
X95301495Y-105719234D01*
X95352292Y-105767208D01*
X95369087Y-105835029D01*
X95346550Y-105901164D01*
X95301499Y-105940202D01*
X95292182Y-105944949D01*
X95120213Y-106069890D01*
X94969890Y-106220213D01*
X94844951Y-106392179D01*
X94748444Y-106581585D01*
X94682753Y-106783760D01*
X94649500Y-106993713D01*
X94649500Y-107206286D01*
X94682735Y-107416127D01*
X94682754Y-107416243D01*
X94728123Y-107555875D01*
X94748444Y-107618414D01*
X94844951Y-107807820D01*
X94969890Y-107979786D01*
X95120213Y-108130109D01*
X95292179Y-108255048D01*
X95292181Y-108255049D01*
X95292184Y-108255051D01*
X95301493Y-108259794D01*
X95352290Y-108307766D01*
X95369087Y-108375587D01*
X95346552Y-108441722D01*
X95301505Y-108480760D01*
X95292446Y-108485376D01*
X95292440Y-108485380D01*
X95238282Y-108524727D01*
X95238282Y-108524728D01*
X95870591Y-109157037D01*
X95807007Y-109174075D01*
X95692993Y-109239901D01*
X95599901Y-109332993D01*
X95534075Y-109447007D01*
X95517037Y-109510591D01*
X94884728Y-108878282D01*
X94884727Y-108878282D01*
X94845380Y-108932439D01*
X94748904Y-109121782D01*
X94683242Y-109323869D01*
X94683242Y-109323872D01*
X94650000Y-109533753D01*
X94650000Y-109746246D01*
X94683242Y-109956127D01*
X94683242Y-109956130D01*
X94748904Y-110158217D01*
X94845375Y-110347550D01*
X94884728Y-110401716D01*
X95517037Y-109769408D01*
X95534075Y-109832993D01*
X95599901Y-109947007D01*
X95692993Y-110040099D01*
X95807007Y-110105925D01*
X95870591Y-110122962D01*
X95269971Y-110723581D01*
X95348711Y-110840895D01*
X95349920Y-110844729D01*
X95352844Y-110847491D01*
X95360343Y-110877778D01*
X95369727Y-110907529D01*
X95368671Y-110911408D01*
X95369638Y-110915312D01*
X95359573Y-110944844D01*
X95351383Y-110974947D01*
X95348397Y-110977640D01*
X95347100Y-110981447D01*
X95302051Y-111020483D01*
X95292440Y-111025380D01*
X95238282Y-111064727D01*
X95238282Y-111064728D01*
X95870591Y-111697037D01*
X95807007Y-111714075D01*
X95692993Y-111779901D01*
X95599901Y-111872993D01*
X95534075Y-111987007D01*
X95517037Y-112050591D01*
X94884728Y-111418282D01*
X94884727Y-111418282D01*
X94845380Y-111472439D01*
X94748904Y-111661782D01*
X94683242Y-111863869D01*
X94683242Y-111863872D01*
X94650000Y-112073753D01*
X94650000Y-112286246D01*
X94683242Y-112496127D01*
X94683242Y-112496130D01*
X94748904Y-112698217D01*
X94845375Y-112887550D01*
X94884728Y-112941716D01*
X95517037Y-112309408D01*
X95534075Y-112372993D01*
X95599901Y-112487007D01*
X95692993Y-112580099D01*
X95807007Y-112645925D01*
X95870591Y-112662962D01*
X95269971Y-113263581D01*
X95348711Y-113380895D01*
X95349920Y-113384729D01*
X95352844Y-113387491D01*
X95360343Y-113417778D01*
X95369727Y-113447529D01*
X95368671Y-113451408D01*
X95369638Y-113455312D01*
X95359573Y-113484844D01*
X95351383Y-113514947D01*
X95348397Y-113517640D01*
X95347100Y-113521447D01*
X95302051Y-113560483D01*
X95292440Y-113565380D01*
X95238282Y-113604727D01*
X95238282Y-113604728D01*
X95870591Y-114237037D01*
X95807007Y-114254075D01*
X95692993Y-114319901D01*
X95599901Y-114412993D01*
X95534075Y-114527007D01*
X95517037Y-114590591D01*
X94884728Y-113958282D01*
X94884727Y-113958282D01*
X94845380Y-114012439D01*
X94748904Y-114201782D01*
X94683242Y-114403869D01*
X94683242Y-114403872D01*
X94650000Y-114613753D01*
X94650000Y-114826246D01*
X94683242Y-115036127D01*
X94683242Y-115036130D01*
X94748904Y-115238217D01*
X94845375Y-115427550D01*
X94884728Y-115481716D01*
X95517037Y-114849408D01*
X95534075Y-114912993D01*
X95599901Y-115027007D01*
X95692993Y-115120099D01*
X95807007Y-115185925D01*
X95870591Y-115202962D01*
X95269971Y-115803581D01*
X95348711Y-115920895D01*
X95349920Y-115924729D01*
X95352844Y-115927491D01*
X95360343Y-115957778D01*
X95369727Y-115987529D01*
X95368671Y-115991408D01*
X95369638Y-115995312D01*
X95359573Y-116024844D01*
X95351383Y-116054947D01*
X95348397Y-116057640D01*
X95347100Y-116061447D01*
X95302051Y-116100483D01*
X95292440Y-116105380D01*
X95238282Y-116144727D01*
X95238282Y-116144728D01*
X95870591Y-116777037D01*
X95807007Y-116794075D01*
X95692993Y-116859901D01*
X95599901Y-116952993D01*
X95534075Y-117067007D01*
X95517037Y-117130591D01*
X94884728Y-116498282D01*
X94884727Y-116498282D01*
X94845380Y-116552439D01*
X94748904Y-116741782D01*
X94683242Y-116943869D01*
X94683242Y-116943872D01*
X94650000Y-117153753D01*
X94650000Y-117366246D01*
X94683242Y-117576127D01*
X94683242Y-117576130D01*
X94748904Y-117778217D01*
X94845375Y-117967550D01*
X94884728Y-118021716D01*
X95517037Y-117389408D01*
X95534075Y-117452993D01*
X95599901Y-117567007D01*
X95692993Y-117660099D01*
X95807007Y-117725925D01*
X95870590Y-117742962D01*
X95238282Y-118375269D01*
X95238282Y-118375270D01*
X95292449Y-118414624D01*
X95481782Y-118511095D01*
X95683870Y-118576757D01*
X95893754Y-118610000D01*
X96106246Y-118610000D01*
X96316127Y-118576757D01*
X96316130Y-118576757D01*
X96518217Y-118511095D01*
X96707554Y-118414622D01*
X96761716Y-118375270D01*
X96761717Y-118375270D01*
X96129408Y-117742962D01*
X96192993Y-117725925D01*
X96307007Y-117660099D01*
X96400099Y-117567007D01*
X96465925Y-117452993D01*
X96482962Y-117389409D01*
X97115270Y-118021717D01*
X97115270Y-118021716D01*
X97154622Y-117967554D01*
X97251095Y-117778217D01*
X97316757Y-117576130D01*
X97316757Y-117576127D01*
X97350000Y-117366246D01*
X97350000Y-117153753D01*
X97316757Y-116943872D01*
X97316757Y-116943869D01*
X97251095Y-116741782D01*
X97154624Y-116552449D01*
X97115270Y-116498282D01*
X97115269Y-116498282D01*
X96482962Y-117130590D01*
X96465925Y-117067007D01*
X96400099Y-116952993D01*
X96307007Y-116859901D01*
X96192993Y-116794075D01*
X96129409Y-116777037D01*
X96761716Y-116144728D01*
X96707550Y-116105375D01*
X96697954Y-116100486D01*
X96647157Y-116052512D01*
X96630361Y-115984692D01*
X96652897Y-115918556D01*
X96697954Y-115879514D01*
X96707554Y-115874622D01*
X96761716Y-115835270D01*
X96761717Y-115835270D01*
X96129408Y-115202962D01*
X96192993Y-115185925D01*
X96307007Y-115120099D01*
X96400099Y-115027007D01*
X96465925Y-114912993D01*
X96482962Y-114849409D01*
X97115270Y-115481717D01*
X97115270Y-115481716D01*
X97154622Y-115427554D01*
X97251095Y-115238217D01*
X97316757Y-115036130D01*
X97316757Y-115036127D01*
X97350000Y-114826246D01*
X97350000Y-114613753D01*
X97316757Y-114403872D01*
X97316757Y-114403869D01*
X97251095Y-114201782D01*
X97154624Y-114012449D01*
X97115270Y-113958282D01*
X97115269Y-113958282D01*
X96482962Y-114590590D01*
X96465925Y-114527007D01*
X96400099Y-114412993D01*
X96307007Y-114319901D01*
X96192993Y-114254075D01*
X96129409Y-114237037D01*
X96761716Y-113604728D01*
X96707550Y-113565375D01*
X96697954Y-113560486D01*
X96647157Y-113512512D01*
X96630361Y-113444692D01*
X96652897Y-113378556D01*
X96697954Y-113339514D01*
X96707554Y-113334622D01*
X96761716Y-113295270D01*
X96761717Y-113295270D01*
X96129408Y-112662962D01*
X96192993Y-112645925D01*
X96307007Y-112580099D01*
X96400099Y-112487007D01*
X96465925Y-112372993D01*
X96482962Y-112309409D01*
X97115270Y-112941717D01*
X97115270Y-112941716D01*
X97154622Y-112887554D01*
X97251095Y-112698217D01*
X97316757Y-112496130D01*
X97316757Y-112496127D01*
X97350000Y-112286246D01*
X97350000Y-112073753D01*
X97316757Y-111863872D01*
X97316757Y-111863869D01*
X97251095Y-111661782D01*
X97154624Y-111472449D01*
X97115270Y-111418282D01*
X97115269Y-111418282D01*
X96482962Y-112050590D01*
X96465925Y-111987007D01*
X96400099Y-111872993D01*
X96307007Y-111779901D01*
X96192993Y-111714075D01*
X96129409Y-111697037D01*
X96761716Y-111064728D01*
X96707550Y-111025375D01*
X96697954Y-111020486D01*
X96647157Y-110972512D01*
X96630361Y-110904692D01*
X96652897Y-110838556D01*
X96697954Y-110799514D01*
X96707554Y-110794622D01*
X96761716Y-110755270D01*
X96761717Y-110755270D01*
X96129408Y-110122962D01*
X96192993Y-110105925D01*
X96307007Y-110040099D01*
X96400099Y-109947007D01*
X96465925Y-109832993D01*
X96482962Y-109769409D01*
X97115270Y-110401717D01*
X97115270Y-110401716D01*
X97154622Y-110347554D01*
X97251095Y-110158217D01*
X97316757Y-109956130D01*
X97316757Y-109956127D01*
X97350000Y-109746246D01*
X97350000Y-109533753D01*
X97316757Y-109323872D01*
X97316757Y-109323869D01*
X97251095Y-109121782D01*
X97154624Y-108932449D01*
X97115270Y-108878282D01*
X97115269Y-108878282D01*
X96482962Y-109510590D01*
X96465925Y-109447007D01*
X96400099Y-109332993D01*
X96307007Y-109239901D01*
X96192993Y-109174075D01*
X96129409Y-109157037D01*
X96761716Y-108524728D01*
X96707547Y-108485373D01*
X96707547Y-108485372D01*
X96698500Y-108480763D01*
X96647706Y-108432788D01*
X96630912Y-108364966D01*
X96653451Y-108298832D01*
X96698508Y-108259793D01*
X96707816Y-108255051D01*
X96806187Y-108183581D01*
X96879786Y-108130109D01*
X96879788Y-108130106D01*
X96879792Y-108130104D01*
X97030104Y-107979792D01*
X97030106Y-107979788D01*
X97030109Y-107979786D01*
X97155048Y-107807820D01*
X97155047Y-107807820D01*
X97155051Y-107807816D01*
X97251557Y-107618412D01*
X97317246Y-107416243D01*
X97350500Y-107206287D01*
X97350500Y-106993713D01*
X97317246Y-106783757D01*
X97251557Y-106581588D01*
X97155051Y-106392184D01*
X97155049Y-106392181D01*
X97155048Y-106392179D01*
X97030109Y-106220213D01*
X96879786Y-106069890D01*
X96707817Y-105944949D01*
X96698504Y-105940204D01*
X96647707Y-105892230D01*
X96630912Y-105824409D01*
X96653449Y-105758274D01*
X96698507Y-105719232D01*
X96707555Y-105714622D01*
X96761716Y-105675270D01*
X96761717Y-105675270D01*
X96129408Y-105042962D01*
X96192993Y-105025925D01*
X96307007Y-104960099D01*
X96400099Y-104867007D01*
X96465925Y-104752993D01*
X96482962Y-104689409D01*
X97115270Y-105321717D01*
X97115270Y-105321716D01*
X97154622Y-105267554D01*
X97251095Y-105078217D01*
X97316757Y-104876130D01*
X97316757Y-104876127D01*
X97350000Y-104666246D01*
X97350000Y-104453753D01*
X97316757Y-104243872D01*
X97316757Y-104243869D01*
X97251095Y-104041782D01*
X97154624Y-103852449D01*
X97115270Y-103798282D01*
X97115269Y-103798282D01*
X96482962Y-104430590D01*
X96465925Y-104367007D01*
X96400099Y-104252993D01*
X96307007Y-104159901D01*
X96192993Y-104094075D01*
X96129409Y-104077037D01*
X96767017Y-103439427D01*
X96777222Y-103390852D01*
X96826273Y-103341095D01*
X96886476Y-103325500D01*
X100600500Y-103325500D01*
X100667539Y-103345185D01*
X100713294Y-103397989D01*
X100724500Y-103449500D01*
X100724500Y-105425019D01*
X100735001Y-105527801D01*
X100790184Y-105694333D01*
X100790189Y-105694344D01*
X100882285Y-105843653D01*
X100882288Y-105843657D01*
X101006342Y-105967711D01*
X101006346Y-105967714D01*
X101155655Y-106059810D01*
X101155658Y-106059811D01*
X101155664Y-106059815D01*
X101322200Y-106114999D01*
X101424988Y-106125500D01*
X101424993Y-106125500D01*
X106783481Y-106125500D01*
X106850520Y-106145185D01*
X106871162Y-106161819D01*
X108463181Y-107753838D01*
X108496666Y-107815161D01*
X108499500Y-107841519D01*
X108499500Y-111364596D01*
X108479815Y-111431635D01*
X108427011Y-111477390D01*
X108357853Y-111487334D01*
X108336498Y-111482303D01*
X108270150Y-111460318D01*
X108169154Y-111450000D01*
X108120000Y-111450000D01*
X108120000Y-112301000D01*
X108100315Y-112368039D01*
X108047511Y-112413794D01*
X107996000Y-112425000D01*
X107744000Y-112425000D01*
X107676961Y-112405315D01*
X107631206Y-112352511D01*
X107620000Y-112301000D01*
X107620000Y-111450000D01*
X107619999Y-111449999D01*
X107570861Y-111450000D01*
X107570843Y-111450001D01*
X107469847Y-111460319D01*
X107306199Y-111514546D01*
X107306188Y-111514551D01*
X107159465Y-111605052D01*
X107045534Y-111718983D01*
X106984211Y-111752467D01*
X106914519Y-111747483D01*
X106870172Y-111718982D01*
X106755851Y-111604661D01*
X106755850Y-111604660D01*
X106613282Y-111516723D01*
X106609018Y-111514093D01*
X106609013Y-111514091D01*
X106607569Y-111513612D01*
X106445253Y-111459826D01*
X106445251Y-111459825D01*
X106344178Y-111449500D01*
X105745830Y-111449500D01*
X105745812Y-111449501D01*
X105644747Y-111459825D01*
X105480984Y-111514092D01*
X105480981Y-111514093D01*
X105334148Y-111604661D01*
X105250629Y-111688181D01*
X105223701Y-111702884D01*
X105197883Y-111719477D01*
X105191682Y-111720368D01*
X105189306Y-111721666D01*
X105162948Y-111724500D01*
X105004500Y-111724500D01*
X104937461Y-111704815D01*
X104891706Y-111652011D01*
X104880500Y-111600500D01*
X104880500Y-111409313D01*
X104880499Y-111409298D01*
X104880277Y-111406481D01*
X104877598Y-111372431D01*
X104870382Y-111347595D01*
X104831745Y-111214606D01*
X104831744Y-111214603D01*
X104831744Y-111214602D01*
X104822170Y-111198413D01*
X104797768Y-111157150D01*
X104780500Y-111094030D01*
X104780500Y-110891004D01*
X104753581Y-110755677D01*
X104753580Y-110755676D01*
X104753580Y-110755672D01*
X104753578Y-110755667D01*
X104700778Y-110628195D01*
X104700771Y-110628182D01*
X104624115Y-110513459D01*
X104624114Y-110513458D01*
X104526542Y-110415886D01*
X103838346Y-109727690D01*
X103735642Y-109624986D01*
X105305001Y-109624986D01*
X105315494Y-109727697D01*
X105370641Y-109894119D01*
X105370643Y-109894124D01*
X105462684Y-110043345D01*
X105586654Y-110167315D01*
X105735875Y-110259356D01*
X105735880Y-110259358D01*
X105902302Y-110314505D01*
X105902309Y-110314506D01*
X106005019Y-110324999D01*
X106154999Y-110324999D01*
X106655000Y-110324999D01*
X106804972Y-110324999D01*
X106804986Y-110324998D01*
X106907697Y-110314505D01*
X107074119Y-110259358D01*
X107074124Y-110259356D01*
X107223345Y-110167315D01*
X107347315Y-110043345D01*
X107439356Y-109894124D01*
X107439358Y-109894119D01*
X107494505Y-109727697D01*
X107494506Y-109727690D01*
X107504999Y-109624986D01*
X107505000Y-109624973D01*
X107505000Y-108975000D01*
X106655000Y-108975000D01*
X106655000Y-110324999D01*
X106154999Y-110324999D01*
X106155000Y-110324998D01*
X106155000Y-108975000D01*
X105305001Y-108975000D01*
X105305001Y-109624986D01*
X103735642Y-109624986D01*
X103121976Y-109011319D01*
X102981818Y-108871161D01*
X102948333Y-108809838D01*
X102945499Y-108783480D01*
X102945499Y-107825013D01*
X105305000Y-107825013D01*
X105305000Y-108475000D01*
X106155000Y-108475000D01*
X106655000Y-108475000D01*
X107504999Y-108475000D01*
X107504999Y-107825028D01*
X107504998Y-107825013D01*
X107494505Y-107722302D01*
X107439358Y-107555880D01*
X107439356Y-107555875D01*
X107347315Y-107406654D01*
X107223345Y-107282684D01*
X107074124Y-107190643D01*
X107074119Y-107190641D01*
X106907697Y-107135494D01*
X106907690Y-107135493D01*
X106804986Y-107125000D01*
X106655000Y-107125000D01*
X106655000Y-108475000D01*
X106155000Y-108475000D01*
X106155000Y-107125000D01*
X106005027Y-107125000D01*
X106005012Y-107125001D01*
X105902302Y-107135494D01*
X105735880Y-107190641D01*
X105735875Y-107190643D01*
X105586654Y-107282684D01*
X105462684Y-107406654D01*
X105370643Y-107555875D01*
X105370641Y-107555880D01*
X105315494Y-107722302D01*
X105315493Y-107722309D01*
X105305000Y-107825013D01*
X102945499Y-107825013D01*
X102945499Y-107824998D01*
X102945498Y-107824981D01*
X102934999Y-107722203D01*
X102934998Y-107722200D01*
X102929766Y-107706412D01*
X102879814Y-107555666D01*
X102787712Y-107406344D01*
X102663656Y-107282288D01*
X102570888Y-107225069D01*
X102514336Y-107190187D01*
X102514331Y-107190185D01*
X102503090Y-107186460D01*
X102347797Y-107135001D01*
X102347795Y-107135000D01*
X102245010Y-107124500D01*
X101444998Y-107124500D01*
X101444980Y-107124501D01*
X101342203Y-107135000D01*
X101342200Y-107135001D01*
X101175668Y-107190185D01*
X101175663Y-107190187D01*
X101026342Y-107282289D01*
X100902289Y-107406342D01*
X100810187Y-107555663D01*
X100810185Y-107555668D01*
X100810115Y-107555880D01*
X100755001Y-107722203D01*
X100755001Y-107722204D01*
X100755000Y-107722204D01*
X100744500Y-107824983D01*
X100744500Y-109625001D01*
X100744501Y-109625018D01*
X100755000Y-109727796D01*
X100755001Y-109727799D01*
X100790288Y-109834286D01*
X100810186Y-109894334D01*
X100902288Y-110043656D01*
X101026344Y-110167712D01*
X101175666Y-110259814D01*
X101342203Y-110314999D01*
X101444991Y-110325500D01*
X102245008Y-110325499D01*
X102245016Y-110325498D01*
X102245019Y-110325498D01*
X102268896Y-110323058D01*
X102347797Y-110314999D01*
X102347804Y-110314996D01*
X102354414Y-110313582D01*
X102354672Y-110314788D01*
X102417537Y-110312625D01*
X102474396Y-110345052D01*
X102742163Y-110612819D01*
X102775648Y-110674142D01*
X102770664Y-110743834D01*
X102728792Y-110799767D01*
X102663328Y-110824184D01*
X102654482Y-110824500D01*
X102594298Y-110824500D01*
X102557432Y-110827401D01*
X102557426Y-110827402D01*
X102399606Y-110873254D01*
X102399603Y-110873255D01*
X102258137Y-110956917D01*
X102258129Y-110956923D01*
X102141923Y-111073129D01*
X102141917Y-111073137D01*
X102058255Y-111214603D01*
X102058254Y-111214606D01*
X102019617Y-111347595D01*
X101982011Y-111406481D01*
X101918538Y-111435687D01*
X101900541Y-111437000D01*
X101593503Y-111437000D01*
X101485090Y-111458565D01*
X101485089Y-111458565D01*
X101471631Y-111461242D01*
X101458173Y-111463919D01*
X101458171Y-111463920D01*
X101405366Y-111485792D01*
X101405364Y-111485793D01*
X101405363Y-111485792D01*
X101330691Y-111516723D01*
X101234835Y-111580773D01*
X101215960Y-111593384D01*
X101215959Y-111593385D01*
X100955412Y-111853930D01*
X100915184Y-111880809D01*
X100770823Y-111940604D01*
X100770814Y-111940609D01*
X100639711Y-112028210D01*
X100639707Y-112028213D01*
X100528213Y-112139707D01*
X100528210Y-112139711D01*
X100440609Y-112270814D01*
X100440604Y-112270823D01*
X100380809Y-112415184D01*
X100353929Y-112455412D01*
X100100887Y-112708454D01*
X100024222Y-112823192D01*
X99971421Y-112950667D01*
X99971418Y-112950679D01*
X99950975Y-113053455D01*
X99950975Y-113053458D01*
X99944500Y-113086006D01*
X99944500Y-113455448D01*
X99924815Y-113522487D01*
X99908181Y-113543129D01*
X99824661Y-113626648D01*
X99734093Y-113773481D01*
X99734092Y-113773484D01*
X99679826Y-113937247D01*
X99679826Y-113937248D01*
X99679825Y-113937248D01*
X99669500Y-114038315D01*
X99669500Y-114711669D01*
X99669501Y-114711687D01*
X99679825Y-114812752D01*
X99734092Y-114976515D01*
X99734093Y-114976518D01*
X99824661Y-115123351D01*
X99863629Y-115162319D01*
X99897114Y-115223642D01*
X99892130Y-115293334D01*
X99863629Y-115337681D01*
X99824661Y-115376648D01*
X99734093Y-115523481D01*
X99734092Y-115523484D01*
X99679826Y-115687247D01*
X99679826Y-115687248D01*
X99679825Y-115687248D01*
X99669500Y-115788315D01*
X99669500Y-116461669D01*
X99669501Y-116461687D01*
X99679825Y-116562752D01*
X99705484Y-116640184D01*
X99734092Y-116726516D01*
X99824660Y-116873350D01*
X99946650Y-116995340D01*
X100093484Y-117085908D01*
X100257247Y-117140174D01*
X100358323Y-117150500D01*
X100931676Y-117150499D01*
X100931684Y-117150498D01*
X100931687Y-117150498D01*
X100987030Y-117144844D01*
X101032753Y-117140174D01*
X101196516Y-117085908D01*
X101343350Y-116995340D01*
X101465340Y-116873350D01*
X101465341Y-116873347D01*
X101465344Y-116873345D01*
X101465945Y-116872586D01*
X101466489Y-116872200D01*
X101470447Y-116868243D01*
X101471123Y-116868919D01*
X101522968Y-116832211D01*
X101563208Y-116825500D01*
X105087389Y-116825500D01*
X105154428Y-116845185D01*
X105192928Y-116884404D01*
X105208094Y-116908993D01*
X105224660Y-116935850D01*
X105346650Y-117057840D01*
X105356871Y-117064144D01*
X105403597Y-117116090D01*
X105414821Y-117185052D01*
X105386980Y-117249135D01*
X105356875Y-117275222D01*
X105309150Y-117304659D01*
X105187161Y-117426648D01*
X105096593Y-117573481D01*
X105096592Y-117573484D01*
X105078181Y-117629041D01*
X105038410Y-117686484D01*
X104973894Y-117713307D01*
X104905118Y-117700992D01*
X104853918Y-117653449D01*
X104841401Y-117624630D01*
X104831283Y-117589806D01*
X104831282Y-117589803D01*
X104747685Y-117448447D01*
X104747678Y-117448438D01*
X104631561Y-117332321D01*
X104631552Y-117332314D01*
X104490196Y-117248717D01*
X104490193Y-117248716D01*
X104332494Y-117202900D01*
X104332497Y-117202900D01*
X104330000Y-117202703D01*
X104330000Y-118388500D01*
X104310315Y-118455539D01*
X104257511Y-118501294D01*
X104206000Y-118512500D01*
X103954000Y-118512500D01*
X103886961Y-118492815D01*
X103841206Y-118440011D01*
X103830000Y-118388500D01*
X103830000Y-117202703D01*
X103827503Y-117202900D01*
X103669806Y-117248716D01*
X103669803Y-117248717D01*
X103528449Y-117332313D01*
X103522283Y-117337097D01*
X103520389Y-117334655D01*
X103471580Y-117361239D01*
X103401894Y-117356179D01*
X103369227Y-117335159D01*
X103368031Y-117336702D01*
X103361862Y-117331917D01*
X103240254Y-117259999D01*
X103220398Y-117248256D01*
X103220397Y-117248255D01*
X103220396Y-117248255D01*
X103220393Y-117248254D01*
X103062573Y-117202402D01*
X103062567Y-117202401D01*
X103025701Y-117199500D01*
X103025694Y-117199500D01*
X102594306Y-117199500D01*
X102594298Y-117199500D01*
X102557432Y-117202401D01*
X102557426Y-117202402D01*
X102399606Y-117248254D01*
X102399603Y-117248255D01*
X102258137Y-117331917D01*
X102258129Y-117331923D01*
X102141923Y-117448129D01*
X102141917Y-117448137D01*
X102058255Y-117589603D01*
X102058254Y-117589606D01*
X102012402Y-117747426D01*
X102012401Y-117747432D01*
X102009500Y-117784298D01*
X102009500Y-119240701D01*
X102012401Y-119277567D01*
X102012402Y-119277573D01*
X102058254Y-119435393D01*
X102058255Y-119435396D01*
X102058256Y-119435398D01*
X102141919Y-119576865D01*
X102141923Y-119576869D01*
X102159308Y-119594254D01*
X102186188Y-119634479D01*
X102189225Y-119641811D01*
X102189226Y-119641812D01*
X102189229Y-119641818D01*
X102265885Y-119756543D01*
X102265888Y-119756546D01*
X102955886Y-120446542D01*
X103052735Y-120543391D01*
X103053459Y-120544115D01*
X103168182Y-120620771D01*
X103168186Y-120620773D01*
X103168189Y-120620775D01*
X103242866Y-120651707D01*
X103295671Y-120673580D01*
X103322591Y-120678934D01*
X103419630Y-120698237D01*
X103431006Y-120700500D01*
X103431007Y-120700500D01*
X105268996Y-120700500D01*
X105377412Y-120678934D01*
X105404328Y-120673580D01*
X105468069Y-120647177D01*
X105531807Y-120620777D01*
X105531808Y-120620776D01*
X105531811Y-120620775D01*
X105646543Y-120544114D01*
X106564114Y-119626543D01*
X106640775Y-119511811D01*
X106693580Y-119384328D01*
X106694640Y-119378998D01*
X106694641Y-119378998D01*
X106694641Y-119378993D01*
X106720500Y-119248993D01*
X106720500Y-119007052D01*
X106729144Y-118977611D01*
X106735668Y-118947625D01*
X106739422Y-118942609D01*
X106740185Y-118940013D01*
X106756819Y-118919371D01*
X106844819Y-118831371D01*
X106906142Y-118797886D01*
X106975834Y-118802870D01*
X107020181Y-118831371D01*
X107134150Y-118945340D01*
X107280984Y-119035908D01*
X107444747Y-119090174D01*
X107545823Y-119100500D01*
X108144176Y-119100499D01*
X108144184Y-119100498D01*
X108144187Y-119100498D01*
X108199530Y-119094844D01*
X108245253Y-119090174D01*
X108409016Y-119035908D01*
X108555850Y-118945340D01*
X108639371Y-118861819D01*
X108700694Y-118828334D01*
X108727052Y-118825500D01*
X109527996Y-118825500D01*
X109641761Y-118802870D01*
X109663328Y-118798580D01*
X109750187Y-118762602D01*
X109790807Y-118745777D01*
X109790808Y-118745776D01*
X109790811Y-118745775D01*
X109905543Y-118669114D01*
X111288113Y-117286543D01*
X111328836Y-117225597D01*
X111336525Y-117214091D01*
X111364776Y-117171809D01*
X111392179Y-117105652D01*
X111417580Y-117044328D01*
X111437563Y-116943869D01*
X111444500Y-116908995D01*
X111444500Y-103973518D01*
X111464185Y-103906479D01*
X111480819Y-103885837D01*
X112521837Y-102844819D01*
X112583160Y-102811334D01*
X112609518Y-102808500D01*
X114112453Y-102808500D01*
X114179492Y-102828185D01*
X114212769Y-102859614D01*
X114241956Y-102899786D01*
X114305892Y-102987788D01*
X114456213Y-103138109D01*
X114628182Y-103263050D01*
X114636946Y-103267516D01*
X114687742Y-103315491D01*
X114704536Y-103383312D01*
X114681998Y-103449447D01*
X114636946Y-103488484D01*
X114628182Y-103492949D01*
X114456213Y-103617890D01*
X114305890Y-103768213D01*
X114180951Y-103940179D01*
X114084444Y-104129585D01*
X114018753Y-104331760D01*
X113985500Y-104541713D01*
X113985500Y-104754286D01*
X114018097Y-104960099D01*
X114018754Y-104964243D01*
X114049867Y-105060000D01*
X114084444Y-105166414D01*
X114180951Y-105355820D01*
X114305890Y-105527786D01*
X114456213Y-105678109D01*
X114628182Y-105803050D01*
X114636946Y-105807516D01*
X114687742Y-105855491D01*
X114704536Y-105923312D01*
X114681998Y-105989447D01*
X114636946Y-106028484D01*
X114628182Y-106032949D01*
X114456213Y-106157890D01*
X114305890Y-106308213D01*
X114180951Y-106480179D01*
X114084444Y-106669585D01*
X114018753Y-106871760D01*
X113997131Y-107008279D01*
X113985500Y-107081713D01*
X113985500Y-107294287D01*
X113995534Y-107357644D01*
X114018097Y-107500099D01*
X114018754Y-107504243D01*
X114049867Y-107600000D01*
X114084444Y-107706414D01*
X114180951Y-107895820D01*
X114305890Y-108067786D01*
X114456213Y-108218109D01*
X114628182Y-108343050D01*
X114636946Y-108347516D01*
X114687742Y-108395491D01*
X114704536Y-108463312D01*
X114681998Y-108529447D01*
X114636946Y-108568484D01*
X114628182Y-108572949D01*
X114456213Y-108697890D01*
X114305890Y-108848213D01*
X114180951Y-109020179D01*
X114084444Y-109209585D01*
X114018753Y-109411760D01*
X113985500Y-109621713D01*
X113985500Y-109834286D01*
X114018611Y-110043345D01*
X114018754Y-110044243D01*
X114049867Y-110140000D01*
X114084444Y-110246414D01*
X114180951Y-110435820D01*
X114305890Y-110607786D01*
X114456213Y-110758109D01*
X114628182Y-110883050D01*
X114636946Y-110887516D01*
X114687742Y-110935491D01*
X114704536Y-111003312D01*
X114681998Y-111069447D01*
X114636946Y-111108484D01*
X114628182Y-111112949D01*
X114456213Y-111237890D01*
X114305890Y-111388213D01*
X114180951Y-111560179D01*
X114084444Y-111749585D01*
X114018753Y-111951760D01*
X113997131Y-112088279D01*
X113985500Y-112161713D01*
X113985500Y-112374287D01*
X113992186Y-112416503D01*
X114018097Y-112580099D01*
X114018754Y-112584243D01*
X114049867Y-112680000D01*
X114084444Y-112786414D01*
X114180951Y-112975820D01*
X114305890Y-113147786D01*
X114456213Y-113298109D01*
X114628179Y-113423048D01*
X114628181Y-113423049D01*
X114628184Y-113423051D01*
X114637493Y-113427794D01*
X114688290Y-113475766D01*
X114705087Y-113543587D01*
X114682552Y-113609722D01*
X114637505Y-113648760D01*
X114628446Y-113653376D01*
X114628440Y-113653380D01*
X114574282Y-113692727D01*
X114574282Y-113692728D01*
X115206591Y-114325037D01*
X115143007Y-114342075D01*
X115028993Y-114407901D01*
X114935901Y-114500993D01*
X114870075Y-114615007D01*
X114853037Y-114678591D01*
X114220728Y-114046282D01*
X114220727Y-114046282D01*
X114181380Y-114100439D01*
X114084904Y-114289782D01*
X114019242Y-114491869D01*
X114019242Y-114491872D01*
X113986000Y-114701753D01*
X113986000Y-114914246D01*
X114019242Y-115124127D01*
X114019242Y-115124130D01*
X114084904Y-115326217D01*
X114181375Y-115515550D01*
X114220728Y-115569716D01*
X114853037Y-114937408D01*
X114870075Y-115000993D01*
X114935901Y-115115007D01*
X115028993Y-115208099D01*
X115143007Y-115273925D01*
X115206590Y-115290962D01*
X114574282Y-115923269D01*
X114574282Y-115923270D01*
X114628452Y-115962626D01*
X114628451Y-115962626D01*
X114637495Y-115967234D01*
X114688292Y-116015208D01*
X114705087Y-116083029D01*
X114682550Y-116149164D01*
X114637499Y-116188202D01*
X114628182Y-116192949D01*
X114456213Y-116317890D01*
X114305890Y-116468213D01*
X114180951Y-116640179D01*
X114084444Y-116829585D01*
X114018753Y-117031760D01*
X113985500Y-117241713D01*
X113985500Y-117454286D01*
X114018097Y-117660099D01*
X114018754Y-117664243D01*
X114078797Y-117849037D01*
X114084444Y-117866414D01*
X114180951Y-118055820D01*
X114305890Y-118227786D01*
X114456213Y-118378109D01*
X114628179Y-118503048D01*
X114628181Y-118503049D01*
X114628184Y-118503051D01*
X114817588Y-118599557D01*
X115019757Y-118665246D01*
X115229713Y-118698500D01*
X115229714Y-118698500D01*
X115442286Y-118698500D01*
X115442287Y-118698500D01*
X115652243Y-118665246D01*
X115854412Y-118599557D01*
X116043816Y-118503051D01*
X116130584Y-118440011D01*
X116215786Y-118378109D01*
X116215788Y-118378106D01*
X116215792Y-118378104D01*
X116366104Y-118227792D01*
X116366106Y-118227788D01*
X116366109Y-118227786D01*
X116491048Y-118055820D01*
X116491047Y-118055820D01*
X116491051Y-118055816D01*
X116587557Y-117866412D01*
X116653246Y-117664243D01*
X116686500Y-117454287D01*
X116686500Y-117241713D01*
X116653246Y-117031757D01*
X116587557Y-116829588D01*
X116491051Y-116640184D01*
X116491049Y-116640181D01*
X116491048Y-116640179D01*
X116366109Y-116468213D01*
X116215786Y-116317890D01*
X116043817Y-116192949D01*
X116034504Y-116188204D01*
X115983707Y-116140230D01*
X115966912Y-116072409D01*
X115989449Y-116006274D01*
X116034507Y-115967232D01*
X116043555Y-115962622D01*
X116097716Y-115923270D01*
X116097717Y-115923270D01*
X115465408Y-115290962D01*
X115528993Y-115273925D01*
X115643007Y-115208099D01*
X115736099Y-115115007D01*
X115801925Y-115000993D01*
X115818962Y-114937408D01*
X116451270Y-115569717D01*
X116451270Y-115569716D01*
X116490622Y-115515554D01*
X116587095Y-115326217D01*
X116652757Y-115124130D01*
X116652757Y-115124127D01*
X116686000Y-114914246D01*
X116686000Y-114701753D01*
X116652757Y-114491872D01*
X116652757Y-114491869D01*
X116587095Y-114289782D01*
X116490624Y-114100449D01*
X116451270Y-114046282D01*
X116451269Y-114046282D01*
X115818962Y-114678590D01*
X115801925Y-114615007D01*
X115736099Y-114500993D01*
X115643007Y-114407901D01*
X115528993Y-114342075D01*
X115465409Y-114325037D01*
X116097716Y-113692728D01*
X116043547Y-113653373D01*
X116043547Y-113653372D01*
X116034500Y-113648763D01*
X115983706Y-113600788D01*
X115966912Y-113532966D01*
X115989451Y-113466832D01*
X116034508Y-113427793D01*
X116043816Y-113423051D01*
X116131433Y-113359394D01*
X116215786Y-113298109D01*
X116215788Y-113298106D01*
X116215792Y-113298104D01*
X116366104Y-113147792D01*
X116366106Y-113147788D01*
X116366109Y-113147786D01*
X116491048Y-112975820D01*
X116491047Y-112975820D01*
X116491051Y-112975816D01*
X116587557Y-112786412D01*
X116653246Y-112584243D01*
X116686500Y-112374287D01*
X116686500Y-112161713D01*
X116653246Y-111951757D01*
X116587557Y-111749588D01*
X116491051Y-111560184D01*
X116491049Y-111560181D01*
X116491048Y-111560179D01*
X116366109Y-111388213D01*
X116215786Y-111237890D01*
X116043820Y-111112951D01*
X116043115Y-111112591D01*
X116035054Y-111108485D01*
X115984259Y-111060512D01*
X115967463Y-110992692D01*
X115989999Y-110926556D01*
X116035054Y-110887515D01*
X116043816Y-110883051D01*
X116065789Y-110867086D01*
X116215786Y-110758109D01*
X116215788Y-110758106D01*
X116215792Y-110758104D01*
X116366104Y-110607792D01*
X116366106Y-110607788D01*
X116366109Y-110607786D01*
X116491048Y-110435820D01*
X116491047Y-110435820D01*
X116491051Y-110435816D01*
X116587557Y-110246412D01*
X116653246Y-110044243D01*
X116686500Y-109834287D01*
X116686500Y-109621713D01*
X116653246Y-109411757D01*
X116587557Y-109209588D01*
X116491051Y-109020184D01*
X116491049Y-109020181D01*
X116491048Y-109020179D01*
X116366109Y-108848213D01*
X116215786Y-108697890D01*
X116043820Y-108572951D01*
X116043115Y-108572591D01*
X116035054Y-108568485D01*
X115984259Y-108520512D01*
X115967463Y-108452692D01*
X115989999Y-108386556D01*
X116035054Y-108347515D01*
X116043816Y-108343051D01*
X116092382Y-108307766D01*
X116215786Y-108218109D01*
X116215788Y-108218106D01*
X116215792Y-108218104D01*
X116366104Y-108067792D01*
X116366106Y-108067788D01*
X116366109Y-108067786D01*
X116491048Y-107895820D01*
X116491047Y-107895820D01*
X116491051Y-107895816D01*
X116587557Y-107706412D01*
X116653246Y-107504243D01*
X116686500Y-107294287D01*
X116686500Y-107081713D01*
X116653246Y-106871757D01*
X116587557Y-106669588D01*
X116491051Y-106480184D01*
X116491049Y-106480181D01*
X116491048Y-106480179D01*
X116366109Y-106308213D01*
X116215786Y-106157890D01*
X116043820Y-106032951D01*
X116043115Y-106032591D01*
X116035054Y-106028485D01*
X115984259Y-105980512D01*
X115967463Y-105912692D01*
X115989999Y-105846556D01*
X116035054Y-105807515D01*
X116043816Y-105803051D01*
X116071753Y-105782754D01*
X116215786Y-105678109D01*
X116215788Y-105678106D01*
X116215792Y-105678104D01*
X116366104Y-105527792D01*
X116366106Y-105527788D01*
X116366109Y-105527786D01*
X116491048Y-105355820D01*
X116491047Y-105355820D01*
X116491051Y-105355816D01*
X116587557Y-105166412D01*
X116653246Y-104964243D01*
X116686500Y-104754287D01*
X116686500Y-104541713D01*
X116653246Y-104331757D01*
X116587557Y-104129588D01*
X116491051Y-103940184D01*
X116491049Y-103940181D01*
X116491048Y-103940179D01*
X116366109Y-103768213D01*
X116215786Y-103617890D01*
X116043820Y-103492951D01*
X116043115Y-103492591D01*
X116035054Y-103488485D01*
X115984259Y-103440512D01*
X115967463Y-103372692D01*
X115989999Y-103306556D01*
X116035054Y-103267515D01*
X116043816Y-103263051D01*
X116092382Y-103227766D01*
X116215786Y-103138109D01*
X116215788Y-103138106D01*
X116215792Y-103138104D01*
X116366104Y-102987792D01*
X116366106Y-102987788D01*
X116366109Y-102987786D01*
X116491048Y-102815820D01*
X116491047Y-102815820D01*
X116491051Y-102815816D01*
X116587557Y-102626412D01*
X116653246Y-102424243D01*
X116686500Y-102214287D01*
X116686500Y-102001713D01*
X116653246Y-101791757D01*
X116587557Y-101589588D01*
X116491051Y-101400184D01*
X116491049Y-101400181D01*
X116491048Y-101400179D01*
X116366109Y-101228213D01*
X116215786Y-101077890D01*
X116043820Y-100952951D01*
X116043115Y-100952591D01*
X116035054Y-100948485D01*
X115984259Y-100900512D01*
X115967463Y-100832692D01*
X115989999Y-100766556D01*
X116035054Y-100727515D01*
X116043816Y-100723051D01*
X116071753Y-100702754D01*
X116215786Y-100598109D01*
X116215788Y-100598106D01*
X116215792Y-100598104D01*
X116366104Y-100447792D01*
X116366106Y-100447788D01*
X116366109Y-100447786D01*
X116491048Y-100275820D01*
X116491047Y-100275820D01*
X116491051Y-100275816D01*
X116587557Y-100086412D01*
X116653246Y-99884243D01*
X116686500Y-99674287D01*
X116686500Y-99461713D01*
X116653246Y-99251757D01*
X116587557Y-99049588D01*
X116491051Y-98860184D01*
X116491049Y-98860181D01*
X116491048Y-98860179D01*
X116366109Y-98688213D01*
X116215786Y-98537890D01*
X116043820Y-98412951D01*
X116043115Y-98412591D01*
X116035054Y-98408485D01*
X115984259Y-98360512D01*
X115967463Y-98292692D01*
X115989999Y-98226556D01*
X116035054Y-98187515D01*
X116043816Y-98183051D01*
X116092382Y-98147766D01*
X116215786Y-98058109D01*
X116215788Y-98058106D01*
X116215792Y-98058104D01*
X116366104Y-97907792D01*
X116366106Y-97907788D01*
X116366109Y-97907786D01*
X116491048Y-97735820D01*
X116491047Y-97735820D01*
X116491051Y-97735816D01*
X116587557Y-97546412D01*
X116653246Y-97344243D01*
X116686500Y-97134287D01*
X116686500Y-96921713D01*
X116653246Y-96711757D01*
X116587557Y-96509588D01*
X116491051Y-96320184D01*
X116491049Y-96320181D01*
X116491048Y-96320179D01*
X116366109Y-96148213D01*
X116215786Y-95997890D01*
X116043820Y-95872951D01*
X116043115Y-95872591D01*
X116035054Y-95868485D01*
X115984259Y-95820512D01*
X115967463Y-95752692D01*
X115989999Y-95686556D01*
X116035054Y-95647515D01*
X116043816Y-95643051D01*
X116080372Y-95616492D01*
X116215786Y-95518109D01*
X116215788Y-95518106D01*
X116215792Y-95518104D01*
X116366104Y-95367792D01*
X116366106Y-95367788D01*
X116366109Y-95367786D01*
X116491048Y-95195820D01*
X116491050Y-95195817D01*
X116491051Y-95195816D01*
X116587557Y-95006412D01*
X116653246Y-94804243D01*
X116686500Y-94594287D01*
X116686500Y-94381713D01*
X116653246Y-94171757D01*
X116587557Y-93969588D01*
X116491051Y-93780184D01*
X116491049Y-93780181D01*
X116491048Y-93780179D01*
X116366109Y-93608213D01*
X116215786Y-93457890D01*
X116043820Y-93332951D01*
X116043115Y-93332591D01*
X116035054Y-93328485D01*
X115984259Y-93280512D01*
X115967463Y-93212692D01*
X115989999Y-93146556D01*
X116035054Y-93107515D01*
X116043816Y-93103051D01*
X116085316Y-93072900D01*
X116215786Y-92978109D01*
X116215788Y-92978106D01*
X116215792Y-92978104D01*
X116366104Y-92827792D01*
X116366106Y-92827788D01*
X116366109Y-92827786D01*
X116491048Y-92655820D01*
X116491047Y-92655820D01*
X116491051Y-92655816D01*
X116587557Y-92466412D01*
X116653246Y-92264243D01*
X116686500Y-92054287D01*
X116686500Y-91841713D01*
X116653246Y-91631757D01*
X116587557Y-91429588D01*
X116491051Y-91240184D01*
X116491049Y-91240181D01*
X116491048Y-91240179D01*
X116366109Y-91068213D01*
X116215786Y-90917890D01*
X116043820Y-90792951D01*
X116043115Y-90792591D01*
X116035054Y-90788485D01*
X115984259Y-90740512D01*
X115967463Y-90672692D01*
X115989999Y-90606556D01*
X116035054Y-90567515D01*
X116043816Y-90563051D01*
X116065789Y-90547086D01*
X116215786Y-90438109D01*
X116215788Y-90438106D01*
X116215792Y-90438104D01*
X116366104Y-90287792D01*
X116366106Y-90287788D01*
X116366109Y-90287786D01*
X116491048Y-90115820D01*
X116491047Y-90115820D01*
X116491051Y-90115816D01*
X116587557Y-89926412D01*
X116653246Y-89724243D01*
X116686500Y-89514287D01*
X116686500Y-89301713D01*
X116653246Y-89091757D01*
X116587557Y-88889588D01*
X116491051Y-88700184D01*
X116491049Y-88700181D01*
X116491048Y-88700179D01*
X116366109Y-88528213D01*
X116215786Y-88377890D01*
X116043820Y-88252951D01*
X116043115Y-88252591D01*
X116035054Y-88248485D01*
X115984259Y-88200512D01*
X115967463Y-88132692D01*
X115989999Y-88066556D01*
X116035054Y-88027515D01*
X116043816Y-88023051D01*
X116091811Y-87988181D01*
X116215786Y-87898109D01*
X116215788Y-87898106D01*
X116215792Y-87898104D01*
X116366104Y-87747792D01*
X116366106Y-87747788D01*
X116366109Y-87747786D01*
X116491048Y-87575820D01*
X116491047Y-87575820D01*
X116491051Y-87575816D01*
X116587557Y-87386412D01*
X116653246Y-87184243D01*
X116686500Y-86974287D01*
X116686500Y-86761713D01*
X116653246Y-86551757D01*
X116587557Y-86349588D01*
X116491051Y-86160184D01*
X116491049Y-86160181D01*
X116491048Y-86160179D01*
X116366109Y-85988213D01*
X116215786Y-85837890D01*
X116043820Y-85712951D01*
X116043115Y-85712591D01*
X116035054Y-85708485D01*
X115984259Y-85660512D01*
X115967463Y-85592692D01*
X115989999Y-85526556D01*
X116035054Y-85487515D01*
X116043816Y-85483051D01*
X116065789Y-85467086D01*
X116215786Y-85358109D01*
X116215788Y-85358106D01*
X116215792Y-85358104D01*
X116366104Y-85207792D01*
X116366106Y-85207788D01*
X116366109Y-85207786D01*
X116491048Y-85035820D01*
X116491047Y-85035820D01*
X116491051Y-85035816D01*
X116587557Y-84846412D01*
X116653246Y-84644243D01*
X116686500Y-84434287D01*
X116686500Y-84221713D01*
X116653246Y-84011757D01*
X116587557Y-83809588D01*
X116491051Y-83620184D01*
X116491049Y-83620181D01*
X116491048Y-83620179D01*
X116366109Y-83448213D01*
X116215786Y-83297890D01*
X116043820Y-83172951D01*
X116043115Y-83172591D01*
X116035054Y-83168485D01*
X115984259Y-83120512D01*
X115967463Y-83052692D01*
X115989999Y-82986556D01*
X116035054Y-82947515D01*
X116043816Y-82943051D01*
X116092382Y-82907766D01*
X116215786Y-82818109D01*
X116215788Y-82818106D01*
X116215792Y-82818104D01*
X116366104Y-82667792D01*
X116366106Y-82667788D01*
X116366109Y-82667786D01*
X116491048Y-82495820D01*
X116491047Y-82495820D01*
X116491051Y-82495816D01*
X116587557Y-82306412D01*
X116653246Y-82104243D01*
X116686500Y-81894287D01*
X116686500Y-81681713D01*
X116653246Y-81471757D01*
X116587557Y-81269588D01*
X116491051Y-81080184D01*
X116491049Y-81080181D01*
X116491048Y-81080179D01*
X116366109Y-80908213D01*
X116215786Y-80757890D01*
X116043820Y-80632951D01*
X116043115Y-80632591D01*
X116035054Y-80628485D01*
X115984259Y-80580512D01*
X115967463Y-80512692D01*
X115989999Y-80446556D01*
X116035054Y-80407515D01*
X116043816Y-80403051D01*
X116071753Y-80382754D01*
X116215786Y-80278109D01*
X116215788Y-80278106D01*
X116215792Y-80278104D01*
X116366104Y-80127792D01*
X116366106Y-80127788D01*
X116366109Y-80127786D01*
X116491048Y-79955820D01*
X116491047Y-79955820D01*
X116491051Y-79955816D01*
X116587557Y-79766412D01*
X116653246Y-79564243D01*
X116686500Y-79354287D01*
X116686500Y-79141713D01*
X116653246Y-78931757D01*
X116587557Y-78729588D01*
X116491051Y-78540184D01*
X116491049Y-78540181D01*
X116491048Y-78540179D01*
X116366109Y-78368213D01*
X116215786Y-78217890D01*
X116043820Y-78092951D01*
X116043115Y-78092591D01*
X116035054Y-78088485D01*
X115984259Y-78040512D01*
X115967463Y-77972692D01*
X115989999Y-77906556D01*
X116035054Y-77867515D01*
X116043816Y-77863051D01*
X116092382Y-77827766D01*
X116215786Y-77738109D01*
X116215788Y-77738106D01*
X116215792Y-77738104D01*
X116366104Y-77587792D01*
X116366106Y-77587788D01*
X116366109Y-77587786D01*
X116491048Y-77415820D01*
X116491047Y-77415820D01*
X116491051Y-77415816D01*
X116587557Y-77226412D01*
X116653246Y-77024243D01*
X116686500Y-76814287D01*
X116686500Y-76601713D01*
X116653246Y-76391757D01*
X116587557Y-76189588D01*
X116491051Y-76000184D01*
X116491049Y-76000181D01*
X116491048Y-76000179D01*
X116366109Y-75828213D01*
X116215786Y-75677890D01*
X116043820Y-75552951D01*
X116043115Y-75552591D01*
X116035054Y-75548485D01*
X115984259Y-75500512D01*
X115967463Y-75432692D01*
X115989999Y-75366556D01*
X116035054Y-75327515D01*
X116043816Y-75323051D01*
X116071753Y-75302754D01*
X116215786Y-75198109D01*
X116215788Y-75198106D01*
X116215792Y-75198104D01*
X116366104Y-75047792D01*
X116366106Y-75047788D01*
X116366109Y-75047786D01*
X116491048Y-74875820D01*
X116491047Y-74875820D01*
X116491051Y-74875816D01*
X116587557Y-74686412D01*
X116653246Y-74484243D01*
X116686500Y-74274287D01*
X116686500Y-74061713D01*
X116653246Y-73851757D01*
X116587557Y-73649588D01*
X116491051Y-73460184D01*
X116491049Y-73460181D01*
X116491048Y-73460179D01*
X116366109Y-73288213D01*
X116215786Y-73137890D01*
X116043820Y-73012951D01*
X116043115Y-73012591D01*
X116035054Y-73008485D01*
X115984259Y-72960512D01*
X115967463Y-72892692D01*
X115989999Y-72826556D01*
X116035054Y-72787515D01*
X116043816Y-72783051D01*
X116158412Y-72699793D01*
X116215786Y-72658109D01*
X116215788Y-72658106D01*
X116215792Y-72658104D01*
X116366104Y-72507792D01*
X116366106Y-72507788D01*
X116366109Y-72507786D01*
X116491048Y-72335820D01*
X116491047Y-72335820D01*
X116491051Y-72335816D01*
X116587557Y-72146412D01*
X116653246Y-71944243D01*
X116686500Y-71734287D01*
X116686500Y-71521713D01*
X116653246Y-71311757D01*
X116587557Y-71109588D01*
X116491051Y-70920184D01*
X116491049Y-70920181D01*
X116491048Y-70920179D01*
X116366109Y-70748213D01*
X116252569Y-70634673D01*
X116219084Y-70573350D01*
X116224068Y-70503658D01*
X116265940Y-70447725D01*
X116296915Y-70430810D01*
X116428331Y-70381796D01*
X116543546Y-70295546D01*
X116629796Y-70180331D01*
X116680091Y-70045483D01*
X116686500Y-69985873D01*
X116686499Y-68190128D01*
X116680091Y-68130517D01*
X116636667Y-68014092D01*
X116629797Y-67995671D01*
X116629793Y-67995664D01*
X116543547Y-67880455D01*
X116543544Y-67880452D01*
X116428335Y-67794206D01*
X116428328Y-67794202D01*
X116293482Y-67743908D01*
X116293483Y-67743908D01*
X116233883Y-67737501D01*
X116233881Y-67737500D01*
X116233873Y-67737500D01*
X116233864Y-67737500D01*
X114438129Y-67737500D01*
X114438123Y-67737501D01*
X114378516Y-67743908D01*
X114243671Y-67794202D01*
X114243664Y-67794206D01*
X114128455Y-67880452D01*
X114128452Y-67880455D01*
X114042206Y-67995664D01*
X114042202Y-67995671D01*
X113991908Y-68130517D01*
X113987969Y-68167160D01*
X113985501Y-68190123D01*
X113985500Y-68190135D01*
X113985500Y-69985870D01*
X113985501Y-69985876D01*
X113991908Y-70045483D01*
X114042202Y-70180328D01*
X114042206Y-70180335D01*
X114128452Y-70295544D01*
X114128455Y-70295547D01*
X114243664Y-70381793D01*
X114243671Y-70381797D01*
X114375082Y-70430810D01*
X114431016Y-70472681D01*
X114455433Y-70538145D01*
X114440582Y-70606418D01*
X114419431Y-70634673D01*
X114305889Y-70748215D01*
X114180951Y-70920179D01*
X114084444Y-71109585D01*
X114018753Y-71311760D01*
X113985500Y-71521713D01*
X113985500Y-71734286D01*
X114018735Y-71944127D01*
X114018754Y-71944243D01*
X114055851Y-72058416D01*
X114084444Y-72146414D01*
X114180951Y-72335820D01*
X114305890Y-72507786D01*
X114456213Y-72658109D01*
X114628182Y-72783050D01*
X114636946Y-72787516D01*
X114687742Y-72835491D01*
X114704536Y-72903312D01*
X114681998Y-72969447D01*
X114636946Y-73008484D01*
X114628182Y-73012949D01*
X114456213Y-73137890D01*
X114305890Y-73288213D01*
X114180951Y-73460179D01*
X114084444Y-73649585D01*
X114018753Y-73851760D01*
X113985500Y-74061713D01*
X113985500Y-74274286D01*
X114018097Y-74480099D01*
X114018754Y-74484243D01*
X114049867Y-74580000D01*
X114084444Y-74686414D01*
X114180951Y-74875820D01*
X114305890Y-75047786D01*
X114456213Y-75198109D01*
X114628182Y-75323050D01*
X114636946Y-75327516D01*
X114687742Y-75375491D01*
X114704536Y-75443312D01*
X114681998Y-75509447D01*
X114636946Y-75548484D01*
X114628182Y-75552949D01*
X114456213Y-75677890D01*
X114305890Y-75828213D01*
X114180951Y-76000179D01*
X114084444Y-76189585D01*
X114018753Y-76391760D01*
X113985500Y-76601713D01*
X113985500Y-76814286D01*
X114018097Y-77020099D01*
X114018754Y-77024243D01*
X114064200Y-77164112D01*
X114084444Y-77226414D01*
X114180951Y-77415820D01*
X114305890Y-77587786D01*
X114456213Y-77738109D01*
X114628182Y-77863050D01*
X114636946Y-77867516D01*
X114687742Y-77915491D01*
X114704536Y-77983312D01*
X114681998Y-78049447D01*
X114636946Y-78088484D01*
X114628182Y-78092949D01*
X114456213Y-78217890D01*
X114305890Y-78368213D01*
X114180951Y-78540179D01*
X114084444Y-78729585D01*
X114018753Y-78931760D01*
X113985500Y-79141713D01*
X113985500Y-79354286D01*
X114018097Y-79560099D01*
X114018754Y-79564243D01*
X114049867Y-79660000D01*
X114084444Y-79766414D01*
X114180951Y-79955820D01*
X114305890Y-80127786D01*
X114456213Y-80278109D01*
X114628182Y-80403050D01*
X114636946Y-80407516D01*
X114687742Y-80455491D01*
X114704536Y-80523312D01*
X114681998Y-80589447D01*
X114636946Y-80628484D01*
X114628182Y-80632949D01*
X114456213Y-80757890D01*
X114305890Y-80908213D01*
X114180439Y-81080885D01*
X114125110Y-81123551D01*
X114080121Y-81132000D01*
X113474018Y-81132000D01*
X113406979Y-81112315D01*
X113386337Y-81095681D01*
X113136819Y-80846162D01*
X113103334Y-80784839D01*
X113100500Y-80758481D01*
X113100500Y-75731006D01*
X113089935Y-75677897D01*
X113089935Y-75677895D01*
X113073581Y-75595679D01*
X113073580Y-75595672D01*
X113020775Y-75468189D01*
X112944114Y-75353457D01*
X112944112Y-75353454D01*
X108046545Y-70455887D01*
X107931807Y-70379222D01*
X107804332Y-70326421D01*
X107804322Y-70326418D01*
X107668996Y-70299500D01*
X107668994Y-70299500D01*
X107668993Y-70299500D01*
X97385808Y-70299500D01*
X97318769Y-70279815D01*
X97273014Y-70227011D01*
X97263070Y-70157853D01*
X97286540Y-70101190D01*
X97293353Y-70092088D01*
X97293354Y-70092086D01*
X97343596Y-69957379D01*
X97343598Y-69957372D01*
X97349999Y-69897844D01*
X97350000Y-69897827D01*
X97350000Y-69250000D01*
X96433012Y-69250000D01*
X96465925Y-69192993D01*
X96500000Y-69065826D01*
X96500000Y-68934174D01*
X96465925Y-68807007D01*
X96433012Y-68750000D01*
X97350000Y-68750000D01*
X97350000Y-68638315D01*
X103149500Y-68638315D01*
X103149500Y-69311669D01*
X103149501Y-69311687D01*
X103159825Y-69412752D01*
X103188737Y-69500000D01*
X103214092Y-69576516D01*
X103304660Y-69723350D01*
X103426650Y-69845340D01*
X103573484Y-69935908D01*
X103737247Y-69990174D01*
X103838323Y-70000500D01*
X104411676Y-70000499D01*
X104411684Y-70000498D01*
X104411687Y-70000498D01*
X104467030Y-69994844D01*
X104512753Y-69990174D01*
X104676516Y-69935908D01*
X104823350Y-69845340D01*
X104823351Y-69845338D01*
X104829497Y-69841548D01*
X104830720Y-69843531D01*
X104885133Y-69821575D01*
X104953776Y-69834611D01*
X104962348Y-69839439D01*
X105098484Y-69923408D01*
X105262247Y-69977674D01*
X105363323Y-69988000D01*
X105936676Y-69987999D01*
X105936684Y-69987998D01*
X105936687Y-69987998D01*
X105992030Y-69982344D01*
X106037753Y-69977674D01*
X106201516Y-69923408D01*
X106348350Y-69832840D01*
X106470340Y-69710850D01*
X106560908Y-69564016D01*
X106615174Y-69400253D01*
X106625500Y-69299177D01*
X106625499Y-68700824D01*
X106615174Y-68599747D01*
X106560908Y-68435984D01*
X106470340Y-68289150D01*
X106356371Y-68175181D01*
X106322886Y-68113858D01*
X106327870Y-68044166D01*
X106356371Y-67999819D01*
X106406690Y-67949500D01*
X106470340Y-67885850D01*
X106560908Y-67739016D01*
X106615174Y-67575253D01*
X106625500Y-67474177D01*
X106625499Y-67087228D01*
X106645183Y-67020190D01*
X106661813Y-66999553D01*
X107174549Y-66486819D01*
X107235872Y-66453334D01*
X107262230Y-66450500D01*
X112445396Y-66450500D01*
X112492844Y-66459937D01*
X112516503Y-66469737D01*
X112516508Y-66469738D01*
X112516511Y-66469739D01*
X112671153Y-66500499D01*
X112671156Y-66500500D01*
X112671158Y-66500500D01*
X112828844Y-66500500D01*
X112828845Y-66500499D01*
X112905152Y-66485320D01*
X112983488Y-66469739D01*
X112983489Y-66469738D01*
X112983497Y-66469737D01*
X113007155Y-66459937D01*
X113054604Y-66450500D01*
X129643769Y-66450500D01*
X129673208Y-66459144D01*
X129703194Y-66465667D01*
X129708210Y-66469422D01*
X129710808Y-66470185D01*
X129731449Y-66486818D01*
X129769180Y-66524548D01*
X129802666Y-66585870D01*
X129805500Y-66612230D01*
X129805500Y-67613500D01*
X129785815Y-67680539D01*
X129733011Y-67726294D01*
X129681505Y-67737500D01*
X129658132Y-67737500D01*
X129658123Y-67737501D01*
X129598516Y-67743908D01*
X129463671Y-67794202D01*
X129463664Y-67794206D01*
X129348455Y-67880452D01*
X129348452Y-67880455D01*
X129262206Y-67995664D01*
X129262202Y-67995671D01*
X129211908Y-68130517D01*
X129207969Y-68167160D01*
X129205501Y-68190123D01*
X129205500Y-68190135D01*
X129205500Y-69985870D01*
X129205501Y-69985876D01*
X129211908Y-70045483D01*
X129262202Y-70180328D01*
X129262206Y-70180335D01*
X129348452Y-70295544D01*
X129348455Y-70295547D01*
X129463664Y-70381793D01*
X129463671Y-70381797D01*
X129508618Y-70398561D01*
X129598517Y-70432091D01*
X129658127Y-70438500D01*
X129668685Y-70438499D01*
X129735723Y-70458179D01*
X129756372Y-70474818D01*
X130426591Y-71145037D01*
X130363007Y-71162075D01*
X130248993Y-71227901D01*
X130155901Y-71320993D01*
X130090075Y-71435007D01*
X130073037Y-71498591D01*
X129440728Y-70866282D01*
X129440727Y-70866282D01*
X129401380Y-70920439D01*
X129304904Y-71109782D01*
X129239242Y-71311869D01*
X129239242Y-71311872D01*
X129206000Y-71521753D01*
X129206000Y-71734246D01*
X129239242Y-71944127D01*
X129239242Y-71944130D01*
X129304904Y-72146217D01*
X129401375Y-72335550D01*
X129440728Y-72389716D01*
X130073037Y-71757408D01*
X130090075Y-71820993D01*
X130155901Y-71935007D01*
X130248993Y-72028099D01*
X130363007Y-72093925D01*
X130426590Y-72110962D01*
X129794282Y-72743269D01*
X129794282Y-72743270D01*
X129848452Y-72782626D01*
X129848451Y-72782626D01*
X129857495Y-72787234D01*
X129908292Y-72835208D01*
X129925087Y-72903029D01*
X129902550Y-72969164D01*
X129857499Y-73008202D01*
X129848182Y-73012949D01*
X129676213Y-73137890D01*
X129525890Y-73288213D01*
X129400951Y-73460179D01*
X129304444Y-73649585D01*
X129238753Y-73851760D01*
X129205500Y-74061713D01*
X129205500Y-74274286D01*
X129238097Y-74480099D01*
X129238754Y-74484243D01*
X129269867Y-74580000D01*
X129304444Y-74686414D01*
X129400951Y-74875820D01*
X129525890Y-75047786D01*
X129676213Y-75198109D01*
X129848182Y-75323050D01*
X129856946Y-75327516D01*
X129907742Y-75375491D01*
X129924536Y-75443312D01*
X129901998Y-75509447D01*
X129856946Y-75548484D01*
X129848182Y-75552949D01*
X129676213Y-75677890D01*
X129525890Y-75828213D01*
X129400951Y-76000179D01*
X129304444Y-76189585D01*
X129238753Y-76391760D01*
X129205500Y-76601713D01*
X129205500Y-76814286D01*
X129238097Y-77020099D01*
X129238754Y-77024243D01*
X129284200Y-77164112D01*
X129304444Y-77226414D01*
X129400951Y-77415820D01*
X129525890Y-77587786D01*
X129676213Y-77738109D01*
X129848182Y-77863050D01*
X129856946Y-77867516D01*
X129907742Y-77915491D01*
X129924536Y-77983312D01*
X129901998Y-78049447D01*
X129856946Y-78088484D01*
X129848182Y-78092949D01*
X129676213Y-78217890D01*
X129525890Y-78368213D01*
X129400951Y-78540179D01*
X129304444Y-78729585D01*
X129238753Y-78931760D01*
X129205500Y-79141713D01*
X129205500Y-79354286D01*
X129238097Y-79560099D01*
X129238754Y-79564243D01*
X129269867Y-79660000D01*
X129304444Y-79766414D01*
X129400951Y-79955820D01*
X129525890Y-80127786D01*
X129676213Y-80278109D01*
X129848182Y-80403050D01*
X129856946Y-80407516D01*
X129907742Y-80455491D01*
X129924536Y-80523312D01*
X129901998Y-80589447D01*
X129856946Y-80628484D01*
X129848182Y-80632949D01*
X129676213Y-80757890D01*
X129525890Y-80908213D01*
X129400951Y-81080179D01*
X129304444Y-81269585D01*
X129238753Y-81471760D01*
X129205500Y-81681713D01*
X129205500Y-81894286D01*
X129238097Y-82100099D01*
X129238754Y-82104243D01*
X129284051Y-82243653D01*
X129304444Y-82306414D01*
X129400951Y-82495820D01*
X129525890Y-82667786D01*
X129676213Y-82818109D01*
X129848182Y-82943050D01*
X129856946Y-82947516D01*
X129907742Y-82995491D01*
X129924536Y-83063312D01*
X129901998Y-83129447D01*
X129856946Y-83168484D01*
X129848182Y-83172949D01*
X129676213Y-83297890D01*
X129525890Y-83448213D01*
X129400951Y-83620179D01*
X129304444Y-83809585D01*
X129238753Y-84011760D01*
X129205500Y-84221713D01*
X129205500Y-84434286D01*
X129238097Y-84640099D01*
X129238754Y-84644243D01*
X129269867Y-84740000D01*
X129304444Y-84846414D01*
X129400951Y-85035820D01*
X129525890Y-85207786D01*
X129676213Y-85358109D01*
X129848182Y-85483050D01*
X129856946Y-85487516D01*
X129907742Y-85535491D01*
X129924536Y-85603312D01*
X129901998Y-85669447D01*
X129856946Y-85708484D01*
X129848182Y-85712949D01*
X129676213Y-85837890D01*
X129525890Y-85988213D01*
X129400951Y-86160179D01*
X129304444Y-86349585D01*
X129238753Y-86551760D01*
X129205500Y-86761713D01*
X129205500Y-86974286D01*
X129238097Y-87180099D01*
X129238754Y-87184243D01*
X129271698Y-87285635D01*
X129304444Y-87386414D01*
X129400951Y-87575820D01*
X129525890Y-87747786D01*
X129676213Y-87898109D01*
X129848182Y-88023050D01*
X129856946Y-88027516D01*
X129907742Y-88075491D01*
X129924536Y-88143312D01*
X129901998Y-88209447D01*
X129856946Y-88248484D01*
X129848182Y-88252949D01*
X129676213Y-88377890D01*
X129525890Y-88528213D01*
X129400951Y-88700179D01*
X129304444Y-88889585D01*
X129238753Y-89091760D01*
X129213029Y-89254174D01*
X129205500Y-89301713D01*
X129205500Y-89514287D01*
X129208081Y-89530581D01*
X129238097Y-89720099D01*
X129238754Y-89724243D01*
X129284722Y-89865718D01*
X129304444Y-89926414D01*
X129400951Y-90115820D01*
X129525890Y-90287786D01*
X129676213Y-90438109D01*
X129848182Y-90563050D01*
X129856946Y-90567516D01*
X129907742Y-90615491D01*
X129924536Y-90683312D01*
X129901998Y-90749447D01*
X129856946Y-90788484D01*
X129848182Y-90792949D01*
X129676213Y-90917890D01*
X129525890Y-91068213D01*
X129400951Y-91240179D01*
X129304444Y-91429585D01*
X129238753Y-91631760D01*
X129205500Y-91841713D01*
X129205500Y-92054286D01*
X129238097Y-92260099D01*
X129238754Y-92264243D01*
X129293748Y-92433497D01*
X129304444Y-92466414D01*
X129400951Y-92655820D01*
X129525890Y-92827786D01*
X129676213Y-92978109D01*
X129848182Y-93103050D01*
X129856946Y-93107516D01*
X129907742Y-93155491D01*
X129924536Y-93223312D01*
X129901998Y-93289447D01*
X129856946Y-93328484D01*
X129848182Y-93332949D01*
X129676213Y-93457890D01*
X129525890Y-93608213D01*
X129400951Y-93780179D01*
X129304444Y-93969585D01*
X129238753Y-94171760D01*
X129205500Y-94381713D01*
X129205500Y-94594286D01*
X129238097Y-94800099D01*
X129238754Y-94804243D01*
X129287840Y-94955315D01*
X129304444Y-95006414D01*
X129400951Y-95195820D01*
X129525890Y-95367786D01*
X129676213Y-95518109D01*
X129848180Y-95643049D01*
X129856946Y-95647516D01*
X129907742Y-95695491D01*
X129924536Y-95763312D01*
X129901998Y-95829447D01*
X129856946Y-95868484D01*
X129848182Y-95872949D01*
X129676213Y-95997890D01*
X129525890Y-96148213D01*
X129400951Y-96320179D01*
X129304444Y-96509585D01*
X129238753Y-96711760D01*
X129205500Y-96921713D01*
X129205500Y-97134286D01*
X129238097Y-97340099D01*
X129238754Y-97344243D01*
X129289200Y-97499500D01*
X129304444Y-97546414D01*
X129400951Y-97735820D01*
X129525890Y-97907786D01*
X129676213Y-98058109D01*
X129848182Y-98183050D01*
X129856946Y-98187516D01*
X129907742Y-98235491D01*
X129924536Y-98303312D01*
X129901998Y-98369447D01*
X129856946Y-98408484D01*
X129848182Y-98412949D01*
X129676213Y-98537890D01*
X129525890Y-98688213D01*
X129400951Y-98860179D01*
X129304444Y-99049585D01*
X129238753Y-99251760D01*
X129205500Y-99461713D01*
X129205500Y-99674286D01*
X129238097Y-99880099D01*
X129238754Y-99884243D01*
X129269867Y-99980000D01*
X129304444Y-100086414D01*
X129400951Y-100275820D01*
X129525890Y-100447786D01*
X129676213Y-100598109D01*
X129848182Y-100723050D01*
X129856946Y-100727516D01*
X129907742Y-100775491D01*
X129924536Y-100843312D01*
X129901998Y-100909447D01*
X129856946Y-100948484D01*
X129848182Y-100952949D01*
X129676213Y-101077890D01*
X129525890Y-101228213D01*
X129400951Y-101400179D01*
X129304444Y-101589585D01*
X129238753Y-101791760D01*
X129205500Y-102001713D01*
X129205500Y-102214286D01*
X129238097Y-102420099D01*
X129238754Y-102424243D01*
X129269867Y-102520000D01*
X129304444Y-102626414D01*
X129400951Y-102815820D01*
X129525890Y-102987786D01*
X129676213Y-103138109D01*
X129848182Y-103263050D01*
X129856946Y-103267516D01*
X129907742Y-103315491D01*
X129924536Y-103383312D01*
X129901998Y-103449447D01*
X129856946Y-103488484D01*
X129848182Y-103492949D01*
X129676213Y-103617890D01*
X129525890Y-103768213D01*
X129400951Y-103940179D01*
X129304444Y-104129585D01*
X129238753Y-104331760D01*
X129205500Y-104541713D01*
X129205500Y-104754286D01*
X129238097Y-104960099D01*
X129238754Y-104964243D01*
X129269867Y-105060000D01*
X129304444Y-105166414D01*
X129400951Y-105355820D01*
X129525890Y-105527786D01*
X129676213Y-105678109D01*
X129848182Y-105803050D01*
X129856946Y-105807516D01*
X129907742Y-105855491D01*
X129924536Y-105923312D01*
X129901998Y-105989447D01*
X129856946Y-106028484D01*
X129848182Y-106032949D01*
X129676213Y-106157890D01*
X129525890Y-106308213D01*
X129400951Y-106480179D01*
X129304444Y-106669585D01*
X129238753Y-106871760D01*
X129217131Y-107008279D01*
X129205500Y-107081713D01*
X129205500Y-107294287D01*
X129215534Y-107357644D01*
X129238097Y-107500099D01*
X129238754Y-107504243D01*
X129269867Y-107600000D01*
X129304444Y-107706414D01*
X129400951Y-107895820D01*
X129525890Y-108067786D01*
X129676213Y-108218109D01*
X129848182Y-108343050D01*
X129856946Y-108347516D01*
X129907742Y-108395491D01*
X129924536Y-108463312D01*
X129901998Y-108529447D01*
X129856946Y-108568484D01*
X129848182Y-108572949D01*
X129676213Y-108697890D01*
X129525890Y-108848213D01*
X129400951Y-109020179D01*
X129304444Y-109209585D01*
X129238753Y-109411760D01*
X129205500Y-109621713D01*
X129205500Y-109834286D01*
X129238611Y-110043345D01*
X129238754Y-110044243D01*
X129269867Y-110140000D01*
X129304444Y-110246414D01*
X129400951Y-110435820D01*
X129525890Y-110607786D01*
X129676213Y-110758109D01*
X129848182Y-110883050D01*
X129856946Y-110887516D01*
X129907742Y-110935491D01*
X129924536Y-111003312D01*
X129901998Y-111069447D01*
X129856946Y-111108484D01*
X129848182Y-111112949D01*
X129676213Y-111237890D01*
X129525890Y-111388213D01*
X129400951Y-111560179D01*
X129304444Y-111749585D01*
X129238753Y-111951760D01*
X129217131Y-112088279D01*
X129205500Y-112161713D01*
X129205500Y-112374287D01*
X129212186Y-112416503D01*
X129238097Y-112580099D01*
X129238754Y-112584243D01*
X129269867Y-112680000D01*
X129304444Y-112786414D01*
X129400951Y-112975820D01*
X129525890Y-113147786D01*
X129676213Y-113298109D01*
X129848182Y-113423050D01*
X129856946Y-113427516D01*
X129907742Y-113475491D01*
X129924536Y-113543312D01*
X129901998Y-113609447D01*
X129856946Y-113648484D01*
X129848182Y-113652949D01*
X129676213Y-113777890D01*
X129525890Y-113928213D01*
X129400951Y-114100179D01*
X129304444Y-114289585D01*
X129238753Y-114491760D01*
X129205500Y-114701713D01*
X129205500Y-114914286D01*
X129238735Y-115124127D01*
X129238754Y-115124243D01*
X129293695Y-115293334D01*
X129304444Y-115326414D01*
X129400951Y-115515820D01*
X129525890Y-115687786D01*
X129676213Y-115838109D01*
X129848182Y-115963050D01*
X129856946Y-115967516D01*
X129907742Y-116015491D01*
X129924536Y-116083312D01*
X129901998Y-116149447D01*
X129856946Y-116188484D01*
X129848182Y-116192949D01*
X129676213Y-116317890D01*
X129525890Y-116468213D01*
X129400951Y-116640179D01*
X129304444Y-116829585D01*
X129238753Y-117031760D01*
X129205500Y-117241713D01*
X129205500Y-117454286D01*
X129238097Y-117660099D01*
X129238754Y-117664243D01*
X129298797Y-117849037D01*
X129304444Y-117866414D01*
X129400951Y-118055820D01*
X129525890Y-118227786D01*
X129676213Y-118378109D01*
X129848179Y-118503048D01*
X129848181Y-118503049D01*
X129848184Y-118503051D01*
X130037588Y-118599557D01*
X130239757Y-118665246D01*
X130449713Y-118698500D01*
X130449714Y-118698500D01*
X130662286Y-118698500D01*
X130662287Y-118698500D01*
X130872243Y-118665246D01*
X131074412Y-118599557D01*
X131263816Y-118503051D01*
X131350584Y-118440011D01*
X131435786Y-118378109D01*
X131435788Y-118378106D01*
X131435792Y-118378104D01*
X131586104Y-118227792D01*
X131586106Y-118227788D01*
X131586109Y-118227786D01*
X131711048Y-118055820D01*
X131711047Y-118055820D01*
X131711051Y-118055816D01*
X131807557Y-117866412D01*
X131873246Y-117664243D01*
X131906500Y-117454287D01*
X131906500Y-117241713D01*
X131873246Y-117031757D01*
X131807557Y-116829588D01*
X131711051Y-116640184D01*
X131711049Y-116640181D01*
X131711048Y-116640179D01*
X131586109Y-116468213D01*
X131435786Y-116317890D01*
X131263820Y-116192951D01*
X131263115Y-116192591D01*
X131255054Y-116188485D01*
X131204259Y-116140512D01*
X131187463Y-116072692D01*
X131209999Y-116006556D01*
X131255054Y-115967515D01*
X131263816Y-115963051D01*
X131285789Y-115947086D01*
X131435786Y-115838109D01*
X131435788Y-115838106D01*
X131435792Y-115838104D01*
X131586104Y-115687792D01*
X131586106Y-115687788D01*
X131586109Y-115687786D01*
X131711048Y-115515820D01*
X131711047Y-115515820D01*
X131711051Y-115515816D01*
X131807557Y-115326412D01*
X131873246Y-115124243D01*
X131906500Y-114914287D01*
X131906500Y-114701713D01*
X131873246Y-114491757D01*
X131807557Y-114289588D01*
X131711051Y-114100184D01*
X131711049Y-114100181D01*
X131711048Y-114100179D01*
X131586109Y-113928213D01*
X131435786Y-113777890D01*
X131263820Y-113652951D01*
X131255600Y-113648763D01*
X131255054Y-113648485D01*
X131204259Y-113600512D01*
X131187463Y-113532692D01*
X131209999Y-113466556D01*
X131255054Y-113427515D01*
X131263816Y-113423051D01*
X131310839Y-113388887D01*
X131435786Y-113298109D01*
X131435788Y-113298106D01*
X131435792Y-113298104D01*
X131586104Y-113147792D01*
X131586106Y-113147788D01*
X131586109Y-113147786D01*
X131711048Y-112975820D01*
X131711047Y-112975820D01*
X131711051Y-112975816D01*
X131807557Y-112786412D01*
X131873246Y-112584243D01*
X131906500Y-112374287D01*
X131906500Y-112161713D01*
X131873246Y-111951757D01*
X131807557Y-111749588D01*
X131711051Y-111560184D01*
X131711049Y-111560181D01*
X131711048Y-111560179D01*
X131586109Y-111388213D01*
X131435786Y-111237890D01*
X131263820Y-111112951D01*
X131263115Y-111112591D01*
X131255054Y-111108485D01*
X131204259Y-111060512D01*
X131187463Y-110992692D01*
X131209999Y-110926556D01*
X131255054Y-110887515D01*
X131263816Y-110883051D01*
X131285789Y-110867086D01*
X131435786Y-110758109D01*
X131435788Y-110758106D01*
X131435792Y-110758104D01*
X131586104Y-110607792D01*
X131586106Y-110607788D01*
X131586109Y-110607786D01*
X131711048Y-110435820D01*
X131711047Y-110435820D01*
X131711051Y-110435816D01*
X131807557Y-110246412D01*
X131873246Y-110044243D01*
X131906500Y-109834287D01*
X131906500Y-109621713D01*
X131873246Y-109411757D01*
X131807557Y-109209588D01*
X131711051Y-109020184D01*
X131711049Y-109020181D01*
X131711048Y-109020179D01*
X131586109Y-108848213D01*
X131435786Y-108697890D01*
X131263820Y-108572951D01*
X131263115Y-108572591D01*
X131255054Y-108568485D01*
X131204259Y-108520512D01*
X131187463Y-108452692D01*
X131209999Y-108386556D01*
X131255054Y-108347515D01*
X131263816Y-108343051D01*
X131312382Y-108307766D01*
X131435786Y-108218109D01*
X131435788Y-108218106D01*
X131435792Y-108218104D01*
X131586104Y-108067792D01*
X131586106Y-108067788D01*
X131586109Y-108067786D01*
X131711048Y-107895820D01*
X131711047Y-107895820D01*
X131711051Y-107895816D01*
X131807557Y-107706412D01*
X131873246Y-107504243D01*
X131906500Y-107294287D01*
X131906500Y-107081713D01*
X131873246Y-106871757D01*
X131807557Y-106669588D01*
X131711051Y-106480184D01*
X131711049Y-106480181D01*
X131711048Y-106480179D01*
X131586109Y-106308213D01*
X131435786Y-106157890D01*
X131263820Y-106032951D01*
X131263115Y-106032591D01*
X131255054Y-106028485D01*
X131204259Y-105980512D01*
X131187463Y-105912692D01*
X131209999Y-105846556D01*
X131255054Y-105807515D01*
X131263816Y-105803051D01*
X131291753Y-105782754D01*
X131435786Y-105678109D01*
X131435788Y-105678106D01*
X131435792Y-105678104D01*
X131586104Y-105527792D01*
X131586106Y-105527788D01*
X131586109Y-105527786D01*
X131711048Y-105355820D01*
X131711047Y-105355820D01*
X131711051Y-105355816D01*
X131807557Y-105166412D01*
X131873246Y-104964243D01*
X131906500Y-104754287D01*
X131906500Y-104541713D01*
X131873246Y-104331757D01*
X131824637Y-104182154D01*
X133645001Y-104182154D01*
X133655319Y-104283152D01*
X133709546Y-104446800D01*
X133709551Y-104446811D01*
X133800052Y-104593534D01*
X133800055Y-104593538D01*
X133921961Y-104715444D01*
X133921965Y-104715447D01*
X134068688Y-104805948D01*
X134068699Y-104805953D01*
X134232347Y-104860180D01*
X134333352Y-104870499D01*
X134370000Y-104870499D01*
X134870000Y-104870499D01*
X134906640Y-104870499D01*
X134906654Y-104870498D01*
X135007652Y-104860180D01*
X135171300Y-104805953D01*
X135171311Y-104805948D01*
X135318034Y-104715447D01*
X135318038Y-104715444D01*
X135439944Y-104593538D01*
X135439947Y-104593534D01*
X135530448Y-104446811D01*
X135530452Y-104446802D01*
X135542689Y-104409876D01*
X135542690Y-104409874D01*
X135584680Y-104283153D01*
X135594999Y-104182154D01*
X135595000Y-104182141D01*
X135595000Y-104083000D01*
X134870000Y-104083000D01*
X134870000Y-104870499D01*
X134370000Y-104870499D01*
X134370000Y-104083000D01*
X133645001Y-104083000D01*
X133645001Y-104182154D01*
X131824637Y-104182154D01*
X131807557Y-104129588D01*
X131711051Y-103940184D01*
X131671566Y-103885837D01*
X131586109Y-103768213D01*
X131435786Y-103617890D01*
X131263820Y-103492951D01*
X131263115Y-103492591D01*
X131255054Y-103488485D01*
X131204259Y-103440512D01*
X131187463Y-103372692D01*
X131209999Y-103306556D01*
X131255054Y-103267515D01*
X131263816Y-103263051D01*
X131312382Y-103227766D01*
X131435786Y-103138109D01*
X131435788Y-103138106D01*
X131435792Y-103138104D01*
X131586104Y-102987792D01*
X131589063Y-102983720D01*
X131617561Y-102944495D01*
X131679229Y-102859614D01*
X131734558Y-102816949D01*
X131779547Y-102808500D01*
X133693229Y-102808500D01*
X133760268Y-102828185D01*
X133787137Y-102851523D01*
X133793584Y-102859000D01*
X133799660Y-102868850D01*
X133817221Y-102886411D01*
X133820209Y-102889876D01*
X133832831Y-102917692D01*
X133847467Y-102944495D01*
X133847130Y-102949202D01*
X133849081Y-102953501D01*
X133844661Y-102983720D01*
X133842483Y-103014187D01*
X133839535Y-103018773D01*
X133838971Y-103022635D01*
X133831652Y-103031040D01*
X133813985Y-103058532D01*
X133800052Y-103072465D01*
X133709551Y-103219188D01*
X133709546Y-103219199D01*
X133655319Y-103382847D01*
X133645000Y-103483845D01*
X133645000Y-103583000D01*
X135594999Y-103583000D01*
X135594999Y-103483860D01*
X135594998Y-103483845D01*
X135584680Y-103382847D01*
X135530453Y-103219199D01*
X135530448Y-103219188D01*
X135491491Y-103156030D01*
X135411917Y-103041681D01*
X135404201Y-103018582D01*
X135392532Y-102997211D01*
X135393331Y-102986036D01*
X135389782Y-102975411D01*
X135395778Y-102951810D01*
X135397516Y-102927519D01*
X135404851Y-102916105D01*
X135406989Y-102907693D01*
X135415154Y-102900074D01*
X135426017Y-102883172D01*
X135440340Y-102868850D01*
X135530908Y-102722016D01*
X135585174Y-102558253D01*
X135595500Y-102457177D01*
X135595499Y-101758824D01*
X135585174Y-101657747D01*
X135530908Y-101493984D01*
X135440340Y-101347150D01*
X135356819Y-101263629D01*
X135323334Y-101202306D01*
X135320500Y-101175948D01*
X135320500Y-72985519D01*
X135340185Y-72918480D01*
X135356819Y-72897838D01*
X135977838Y-72276819D01*
X136039161Y-72243334D01*
X136065519Y-72240500D01*
X136776453Y-72240500D01*
X136843492Y-72260185D01*
X136876769Y-72291614D01*
X136891720Y-72312191D01*
X136969892Y-72419788D01*
X137120213Y-72570109D01*
X137292179Y-72695048D01*
X137292181Y-72695049D01*
X137292184Y-72695051D01*
X137301493Y-72699794D01*
X137352290Y-72747766D01*
X137369087Y-72815587D01*
X137346552Y-72881722D01*
X137301505Y-72920760D01*
X137292446Y-72925376D01*
X137292440Y-72925380D01*
X137238282Y-72964727D01*
X137238282Y-72964728D01*
X137870591Y-73597037D01*
X137807007Y-73614075D01*
X137692993Y-73679901D01*
X137599901Y-73772993D01*
X137534075Y-73887007D01*
X137517037Y-73950591D01*
X136884728Y-73318282D01*
X136884727Y-73318282D01*
X136845380Y-73372439D01*
X136748904Y-73561782D01*
X136683242Y-73763869D01*
X136683242Y-73763872D01*
X136650000Y-73973753D01*
X136650000Y-74186246D01*
X136683242Y-74396127D01*
X136683242Y-74396130D01*
X136748904Y-74598217D01*
X136845375Y-74787550D01*
X136884728Y-74841716D01*
X137517037Y-74209408D01*
X137534075Y-74272993D01*
X137599901Y-74387007D01*
X137692993Y-74480099D01*
X137807007Y-74545925D01*
X137870591Y-74562962D01*
X137269971Y-75163581D01*
X137348711Y-75280895D01*
X137349920Y-75284729D01*
X137352844Y-75287491D01*
X137360343Y-75317778D01*
X137369727Y-75347529D01*
X137368671Y-75351408D01*
X137369638Y-75355312D01*
X137359573Y-75384844D01*
X137351383Y-75414947D01*
X137348397Y-75417640D01*
X137347100Y-75421447D01*
X137302051Y-75460483D01*
X137292440Y-75465380D01*
X137238282Y-75504727D01*
X137238282Y-75504728D01*
X137870591Y-76137037D01*
X137807007Y-76154075D01*
X137692993Y-76219901D01*
X137599901Y-76312993D01*
X137534075Y-76427007D01*
X137517037Y-76490591D01*
X136884728Y-75858282D01*
X136884727Y-75858282D01*
X136845380Y-75912439D01*
X136748904Y-76101782D01*
X136683242Y-76303869D01*
X136683242Y-76303872D01*
X136650000Y-76513753D01*
X136650000Y-76726246D01*
X136683242Y-76936127D01*
X136683242Y-76936130D01*
X136748904Y-77138217D01*
X136845375Y-77327550D01*
X136884728Y-77381716D01*
X137517037Y-76749408D01*
X137534075Y-76812993D01*
X137599901Y-76927007D01*
X137692993Y-77020099D01*
X137807007Y-77085925D01*
X137870591Y-77102962D01*
X137269971Y-77703581D01*
X137348711Y-77820895D01*
X137349920Y-77824729D01*
X137352844Y-77827491D01*
X137360343Y-77857778D01*
X137369727Y-77887529D01*
X137368671Y-77891408D01*
X137369638Y-77895312D01*
X137359573Y-77924844D01*
X137351383Y-77954947D01*
X137348397Y-77957640D01*
X137347100Y-77961447D01*
X137302051Y-78000483D01*
X137292440Y-78005380D01*
X137238282Y-78044727D01*
X137238282Y-78044728D01*
X137870591Y-78677037D01*
X137807007Y-78694075D01*
X137692993Y-78759901D01*
X137599901Y-78852993D01*
X137534075Y-78967007D01*
X137517037Y-79030591D01*
X136884728Y-78398282D01*
X136884727Y-78398282D01*
X136845380Y-78452439D01*
X136748904Y-78641782D01*
X136683242Y-78843869D01*
X136683242Y-78843872D01*
X136650000Y-79053753D01*
X136650000Y-79266246D01*
X136683242Y-79476127D01*
X136683242Y-79476130D01*
X136748904Y-79678217D01*
X136845375Y-79867550D01*
X136884728Y-79921716D01*
X137517037Y-79289408D01*
X137534075Y-79352993D01*
X137599901Y-79467007D01*
X137692993Y-79560099D01*
X137807007Y-79625925D01*
X137870591Y-79642962D01*
X137269971Y-80243581D01*
X137348711Y-80360895D01*
X137349920Y-80364729D01*
X137352844Y-80367491D01*
X137360343Y-80397778D01*
X137369727Y-80427529D01*
X137368671Y-80431408D01*
X137369638Y-80435312D01*
X137359573Y-80464844D01*
X137351383Y-80494947D01*
X137348397Y-80497640D01*
X137347100Y-80501447D01*
X137302051Y-80540483D01*
X137292440Y-80545380D01*
X137238282Y-80584727D01*
X137238282Y-80584728D01*
X137870591Y-81217037D01*
X137807007Y-81234075D01*
X137692993Y-81299901D01*
X137599901Y-81392993D01*
X137534075Y-81507007D01*
X137517037Y-81570591D01*
X136884728Y-80938282D01*
X136884727Y-80938282D01*
X136845380Y-80992439D01*
X136748904Y-81181782D01*
X136683242Y-81383869D01*
X136683242Y-81383872D01*
X136650000Y-81593753D01*
X136650000Y-81806246D01*
X136683242Y-82016127D01*
X136683242Y-82016130D01*
X136748904Y-82218217D01*
X136845375Y-82407550D01*
X136884728Y-82461716D01*
X137517037Y-81829408D01*
X137534075Y-81892993D01*
X137599901Y-82007007D01*
X137692993Y-82100099D01*
X137807007Y-82165925D01*
X137870591Y-82182962D01*
X137269971Y-82783581D01*
X137348711Y-82900895D01*
X137349920Y-82904729D01*
X137352844Y-82907491D01*
X137360343Y-82937778D01*
X137369727Y-82967529D01*
X137368671Y-82971408D01*
X137369638Y-82975312D01*
X137359573Y-83004844D01*
X137351383Y-83034947D01*
X137348397Y-83037640D01*
X137347100Y-83041447D01*
X137302051Y-83080483D01*
X137292440Y-83085380D01*
X137238282Y-83124727D01*
X137238282Y-83124728D01*
X137870591Y-83757037D01*
X137807007Y-83774075D01*
X137692993Y-83839901D01*
X137599901Y-83932993D01*
X137534075Y-84047007D01*
X137517037Y-84110591D01*
X136884728Y-83478282D01*
X136884727Y-83478282D01*
X136845380Y-83532439D01*
X136748904Y-83721782D01*
X136683242Y-83923869D01*
X136683242Y-83923872D01*
X136650000Y-84133753D01*
X136650000Y-84346246D01*
X136683242Y-84556127D01*
X136683242Y-84556130D01*
X136748904Y-84758217D01*
X136845375Y-84947550D01*
X136884728Y-85001716D01*
X137517037Y-84369408D01*
X137534075Y-84432993D01*
X137599901Y-84547007D01*
X137692993Y-84640099D01*
X137807007Y-84705925D01*
X137870591Y-84722962D01*
X137269971Y-85323581D01*
X137348711Y-85440895D01*
X137349920Y-85444729D01*
X137352844Y-85447491D01*
X137360343Y-85477778D01*
X137369727Y-85507529D01*
X137368671Y-85511408D01*
X137369638Y-85515312D01*
X137359573Y-85544844D01*
X137351383Y-85574947D01*
X137348397Y-85577640D01*
X137347100Y-85581447D01*
X137302051Y-85620483D01*
X137292440Y-85625380D01*
X137238282Y-85664727D01*
X137238282Y-85664728D01*
X137870591Y-86297037D01*
X137807007Y-86314075D01*
X137692993Y-86379901D01*
X137599901Y-86472993D01*
X137534075Y-86587007D01*
X137517037Y-86650591D01*
X136884728Y-86018282D01*
X136884727Y-86018282D01*
X136845380Y-86072439D01*
X136748904Y-86261782D01*
X136683242Y-86463869D01*
X136683242Y-86463872D01*
X136650000Y-86673753D01*
X136650000Y-86886246D01*
X136683242Y-87096127D01*
X136683242Y-87096130D01*
X136748904Y-87298217D01*
X136845375Y-87487550D01*
X136884728Y-87541716D01*
X137517037Y-86909408D01*
X137534075Y-86972993D01*
X137599901Y-87087007D01*
X137692993Y-87180099D01*
X137807007Y-87245925D01*
X137870591Y-87262962D01*
X137269971Y-87863581D01*
X137348711Y-87980895D01*
X137349920Y-87984729D01*
X137352844Y-87987491D01*
X137360343Y-88017778D01*
X137369727Y-88047529D01*
X137368671Y-88051408D01*
X137369638Y-88055312D01*
X137359573Y-88084844D01*
X137351383Y-88114947D01*
X137348397Y-88117640D01*
X137347100Y-88121447D01*
X137302051Y-88160483D01*
X137292440Y-88165380D01*
X137238282Y-88204727D01*
X137238282Y-88204728D01*
X137870591Y-88837037D01*
X137807007Y-88854075D01*
X137692993Y-88919901D01*
X137599901Y-89012993D01*
X137534075Y-89127007D01*
X137517037Y-89190591D01*
X136884728Y-88558282D01*
X136884727Y-88558282D01*
X136845380Y-88612439D01*
X136748904Y-88801782D01*
X136683242Y-89003869D01*
X136683242Y-89003872D01*
X136650000Y-89213753D01*
X136650000Y-89426246D01*
X136683242Y-89636127D01*
X136683242Y-89636130D01*
X136748904Y-89838217D01*
X136845375Y-90027550D01*
X136884728Y-90081716D01*
X137517037Y-89449408D01*
X137534075Y-89512993D01*
X137599901Y-89627007D01*
X137692993Y-89720099D01*
X137807007Y-89785925D01*
X137870591Y-89802962D01*
X137269971Y-90403581D01*
X137348711Y-90520895D01*
X137349920Y-90524729D01*
X137352844Y-90527491D01*
X137360343Y-90557778D01*
X137369727Y-90587529D01*
X137368671Y-90591408D01*
X137369638Y-90595312D01*
X137359573Y-90624844D01*
X137351383Y-90654947D01*
X137348397Y-90657640D01*
X137347100Y-90661447D01*
X137302051Y-90700483D01*
X137292440Y-90705380D01*
X137238282Y-90744727D01*
X137238282Y-90744728D01*
X137870591Y-91377037D01*
X137807007Y-91394075D01*
X137692993Y-91459901D01*
X137599901Y-91552993D01*
X137534075Y-91667007D01*
X137517037Y-91730591D01*
X136884728Y-91098282D01*
X136884727Y-91098282D01*
X136845380Y-91152439D01*
X136748904Y-91341782D01*
X136683242Y-91543869D01*
X136683242Y-91543872D01*
X136650000Y-91753753D01*
X136650000Y-91966246D01*
X136683242Y-92176127D01*
X136683242Y-92176130D01*
X136748904Y-92378217D01*
X136845375Y-92567550D01*
X136884728Y-92621716D01*
X137517037Y-91989408D01*
X137534075Y-92052993D01*
X137599901Y-92167007D01*
X137692993Y-92260099D01*
X137807007Y-92325925D01*
X137870591Y-92342962D01*
X137269971Y-92943581D01*
X137348711Y-93060895D01*
X137349920Y-93064729D01*
X137352844Y-93067491D01*
X137360343Y-93097778D01*
X137369727Y-93127529D01*
X137368671Y-93131408D01*
X137369638Y-93135312D01*
X137359573Y-93164844D01*
X137351383Y-93194947D01*
X137348397Y-93197640D01*
X137347100Y-93201447D01*
X137302051Y-93240483D01*
X137292440Y-93245380D01*
X137238282Y-93284727D01*
X137238282Y-93284728D01*
X137870591Y-93917037D01*
X137807007Y-93934075D01*
X137692993Y-93999901D01*
X137599901Y-94092993D01*
X137534075Y-94207007D01*
X137517037Y-94270591D01*
X136884728Y-93638282D01*
X136884727Y-93638282D01*
X136845380Y-93692439D01*
X136748904Y-93881782D01*
X136683242Y-94083869D01*
X136683242Y-94083872D01*
X136650000Y-94293753D01*
X136650000Y-94506246D01*
X136683242Y-94716127D01*
X136683242Y-94716130D01*
X136748904Y-94918217D01*
X136845375Y-95107550D01*
X136884728Y-95161716D01*
X137517037Y-94529408D01*
X137534075Y-94592993D01*
X137599901Y-94707007D01*
X137692993Y-94800099D01*
X137807007Y-94865925D01*
X137870591Y-94882962D01*
X137269971Y-95483581D01*
X137348711Y-95600895D01*
X137349920Y-95604729D01*
X137352844Y-95607491D01*
X137360343Y-95637778D01*
X137369727Y-95667529D01*
X137368671Y-95671408D01*
X137369638Y-95675312D01*
X137359573Y-95704844D01*
X137351383Y-95734947D01*
X137348397Y-95737640D01*
X137347100Y-95741447D01*
X137302051Y-95780483D01*
X137292440Y-95785380D01*
X137238282Y-95824727D01*
X137238282Y-95824728D01*
X137870591Y-96457037D01*
X137807007Y-96474075D01*
X137692993Y-96539901D01*
X137599901Y-96632993D01*
X137534075Y-96747007D01*
X137517037Y-96810591D01*
X136884728Y-96178282D01*
X136884727Y-96178282D01*
X136845380Y-96232439D01*
X136748904Y-96421782D01*
X136683242Y-96623869D01*
X136683242Y-96623872D01*
X136650000Y-96833753D01*
X136650000Y-97046246D01*
X136683242Y-97256127D01*
X136683242Y-97256130D01*
X136748904Y-97458217D01*
X136845375Y-97647550D01*
X136884728Y-97701716D01*
X137517037Y-97069408D01*
X137534075Y-97132993D01*
X137599901Y-97247007D01*
X137692993Y-97340099D01*
X137807007Y-97405925D01*
X137870591Y-97422962D01*
X137269971Y-98023581D01*
X137348711Y-98140895D01*
X137349920Y-98144729D01*
X137352844Y-98147491D01*
X137360343Y-98177778D01*
X137369727Y-98207529D01*
X137368671Y-98211408D01*
X137369638Y-98215312D01*
X137359573Y-98244844D01*
X137351383Y-98274947D01*
X137348397Y-98277640D01*
X137347100Y-98281447D01*
X137302051Y-98320483D01*
X137292440Y-98325380D01*
X137238282Y-98364727D01*
X137238282Y-98364728D01*
X137870591Y-98997037D01*
X137807007Y-99014075D01*
X137692993Y-99079901D01*
X137599901Y-99172993D01*
X137534075Y-99287007D01*
X137517037Y-99350591D01*
X136884728Y-98718282D01*
X136884727Y-98718282D01*
X136845380Y-98772439D01*
X136748904Y-98961782D01*
X136683242Y-99163869D01*
X136683242Y-99163872D01*
X136650000Y-99373753D01*
X136650000Y-99586246D01*
X136683242Y-99796127D01*
X136683242Y-99796130D01*
X136748904Y-99998217D01*
X136845375Y-100187550D01*
X136884728Y-100241716D01*
X137517037Y-99609408D01*
X137534075Y-99672993D01*
X137599901Y-99787007D01*
X137692993Y-99880099D01*
X137807007Y-99945925D01*
X137870591Y-99962962D01*
X137269971Y-100563581D01*
X137348711Y-100680895D01*
X137349920Y-100684729D01*
X137352844Y-100687491D01*
X137360343Y-100717778D01*
X137369727Y-100747529D01*
X137368671Y-100751408D01*
X137369638Y-100755312D01*
X137359573Y-100784844D01*
X137351383Y-100814947D01*
X137348397Y-100817640D01*
X137347100Y-100821447D01*
X137302051Y-100860483D01*
X137292440Y-100865380D01*
X137238282Y-100904727D01*
X137238282Y-100904728D01*
X137870591Y-101537037D01*
X137807007Y-101554075D01*
X137692993Y-101619901D01*
X137599901Y-101712993D01*
X137534075Y-101827007D01*
X137517037Y-101890591D01*
X136884728Y-101258282D01*
X136884727Y-101258282D01*
X136845380Y-101312439D01*
X136748904Y-101501782D01*
X136683242Y-101703869D01*
X136683242Y-101703872D01*
X136650000Y-101913753D01*
X136650000Y-102126246D01*
X136683242Y-102336127D01*
X136683242Y-102336130D01*
X136748904Y-102538217D01*
X136845375Y-102727550D01*
X136884728Y-102781716D01*
X137517037Y-102149408D01*
X137534075Y-102212993D01*
X137599901Y-102327007D01*
X137692993Y-102420099D01*
X137807007Y-102485925D01*
X137870590Y-102502962D01*
X137238282Y-103135269D01*
X137238282Y-103135270D01*
X137292452Y-103174626D01*
X137302048Y-103179516D01*
X137352844Y-103227491D01*
X137369638Y-103295312D01*
X137347100Y-103361447D01*
X137302051Y-103400483D01*
X137292440Y-103405380D01*
X137238282Y-103444727D01*
X137238282Y-103444728D01*
X137870591Y-104077037D01*
X137807007Y-104094075D01*
X137692993Y-104159901D01*
X137599901Y-104252993D01*
X137534075Y-104367007D01*
X137517037Y-104430591D01*
X136884728Y-103798282D01*
X136884727Y-103798282D01*
X136845380Y-103852439D01*
X136748904Y-104041782D01*
X136683242Y-104243869D01*
X136683242Y-104243872D01*
X136650000Y-104453753D01*
X136650000Y-104666246D01*
X136683242Y-104876127D01*
X136683242Y-104876130D01*
X136748904Y-105078217D01*
X136845375Y-105267550D01*
X136884728Y-105321716D01*
X137517037Y-104689408D01*
X137534075Y-104752993D01*
X137599901Y-104867007D01*
X137692993Y-104960099D01*
X137807007Y-105025925D01*
X137870591Y-105042962D01*
X137269971Y-105643581D01*
X137348711Y-105760895D01*
X137349920Y-105764729D01*
X137352844Y-105767491D01*
X137360343Y-105797778D01*
X137369727Y-105827529D01*
X137368671Y-105831408D01*
X137369638Y-105835312D01*
X137359573Y-105864844D01*
X137351383Y-105894947D01*
X137348397Y-105897640D01*
X137347100Y-105901447D01*
X137302051Y-105940483D01*
X137292440Y-105945380D01*
X137238282Y-105984727D01*
X137238282Y-105984728D01*
X137870591Y-106617037D01*
X137807007Y-106634075D01*
X137692993Y-106699901D01*
X137599901Y-106792993D01*
X137534075Y-106907007D01*
X137517037Y-106970591D01*
X136884728Y-106338282D01*
X136884727Y-106338282D01*
X136845380Y-106392439D01*
X136748904Y-106581782D01*
X136683242Y-106783869D01*
X136683242Y-106783872D01*
X136650000Y-106993753D01*
X136650000Y-107206246D01*
X136683242Y-107416127D01*
X136683242Y-107416130D01*
X136748904Y-107618217D01*
X136845375Y-107807550D01*
X136884728Y-107861716D01*
X137517037Y-107229408D01*
X137534075Y-107292993D01*
X137599901Y-107407007D01*
X137692993Y-107500099D01*
X137807007Y-107565925D01*
X137870591Y-107582962D01*
X137269971Y-108183581D01*
X137348711Y-108300895D01*
X137349920Y-108304729D01*
X137352844Y-108307491D01*
X137360343Y-108337778D01*
X137369727Y-108367529D01*
X137368671Y-108371408D01*
X137369638Y-108375312D01*
X137359573Y-108404844D01*
X137351383Y-108434947D01*
X137348397Y-108437640D01*
X137347100Y-108441447D01*
X137302051Y-108480483D01*
X137292440Y-108485380D01*
X137238282Y-108524727D01*
X137238282Y-108524728D01*
X137870591Y-109157037D01*
X137807007Y-109174075D01*
X137692993Y-109239901D01*
X137599901Y-109332993D01*
X137534075Y-109447007D01*
X137517037Y-109510591D01*
X136884728Y-108878282D01*
X136884727Y-108878282D01*
X136845380Y-108932439D01*
X136748904Y-109121782D01*
X136683242Y-109323869D01*
X136683242Y-109323872D01*
X136650000Y-109533753D01*
X136650000Y-109746246D01*
X136683242Y-109956127D01*
X136683242Y-109956130D01*
X136748904Y-110158217D01*
X136845375Y-110347550D01*
X136884728Y-110401716D01*
X137517037Y-109769408D01*
X137534075Y-109832993D01*
X137599901Y-109947007D01*
X137692993Y-110040099D01*
X137807007Y-110105925D01*
X137870591Y-110122962D01*
X137269971Y-110723581D01*
X137348711Y-110840895D01*
X137349920Y-110844729D01*
X137352844Y-110847491D01*
X137360343Y-110877778D01*
X137369727Y-110907529D01*
X137368671Y-110911408D01*
X137369638Y-110915312D01*
X137359573Y-110944844D01*
X137351383Y-110974947D01*
X137348397Y-110977640D01*
X137347100Y-110981447D01*
X137302051Y-111020483D01*
X137292440Y-111025380D01*
X137238282Y-111064727D01*
X137238282Y-111064728D01*
X137870591Y-111697037D01*
X137807007Y-111714075D01*
X137692993Y-111779901D01*
X137599901Y-111872993D01*
X137534075Y-111987007D01*
X137517037Y-112050591D01*
X136884728Y-111418282D01*
X136884727Y-111418282D01*
X136845380Y-111472439D01*
X136748904Y-111661782D01*
X136683242Y-111863869D01*
X136683242Y-111863872D01*
X136650000Y-112073753D01*
X136650000Y-112286246D01*
X136683242Y-112496127D01*
X136683242Y-112496130D01*
X136748904Y-112698217D01*
X136845375Y-112887550D01*
X136884728Y-112941716D01*
X137517037Y-112309408D01*
X137534075Y-112372993D01*
X137599901Y-112487007D01*
X137692993Y-112580099D01*
X137807007Y-112645925D01*
X137870591Y-112662962D01*
X137269971Y-113263581D01*
X137348711Y-113380895D01*
X137349920Y-113384729D01*
X137352844Y-113387491D01*
X137360343Y-113417778D01*
X137369727Y-113447529D01*
X137368671Y-113451408D01*
X137369638Y-113455312D01*
X137359573Y-113484844D01*
X137351383Y-113514947D01*
X137348397Y-113517640D01*
X137347100Y-113521447D01*
X137302051Y-113560483D01*
X137292440Y-113565380D01*
X137238282Y-113604727D01*
X137238282Y-113604728D01*
X137870591Y-114237037D01*
X137807007Y-114254075D01*
X137692993Y-114319901D01*
X137599901Y-114412993D01*
X137534075Y-114527007D01*
X137517037Y-114590591D01*
X136884728Y-113958282D01*
X136884727Y-113958282D01*
X136845380Y-114012439D01*
X136748904Y-114201782D01*
X136683242Y-114403869D01*
X136683242Y-114403872D01*
X136650000Y-114613753D01*
X136650000Y-114826246D01*
X136683242Y-115036127D01*
X136683242Y-115036130D01*
X136748904Y-115238217D01*
X136845375Y-115427550D01*
X136884728Y-115481716D01*
X137517037Y-114849408D01*
X137534075Y-114912993D01*
X137599901Y-115027007D01*
X137692993Y-115120099D01*
X137807007Y-115185925D01*
X137870591Y-115202962D01*
X137269971Y-115803581D01*
X137348711Y-115920895D01*
X137349920Y-115924729D01*
X137352844Y-115927491D01*
X137360343Y-115957778D01*
X137369727Y-115987529D01*
X137368671Y-115991408D01*
X137369638Y-115995312D01*
X137359573Y-116024844D01*
X137351383Y-116054947D01*
X137348397Y-116057640D01*
X137347100Y-116061447D01*
X137302051Y-116100483D01*
X137292440Y-116105380D01*
X137238282Y-116144727D01*
X137238282Y-116144728D01*
X137870591Y-116777037D01*
X137807007Y-116794075D01*
X137692993Y-116859901D01*
X137599901Y-116952993D01*
X137534075Y-117067007D01*
X137517037Y-117130591D01*
X136884728Y-116498282D01*
X136884727Y-116498282D01*
X136845380Y-116552439D01*
X136748904Y-116741782D01*
X136683242Y-116943869D01*
X136683242Y-116943872D01*
X136650000Y-117153753D01*
X136650000Y-117366246D01*
X136683242Y-117576127D01*
X136683242Y-117576130D01*
X136748904Y-117778217D01*
X136845375Y-117967550D01*
X136884728Y-118021716D01*
X137517037Y-117389408D01*
X137534075Y-117452993D01*
X137599901Y-117567007D01*
X137692993Y-117660099D01*
X137807007Y-117725925D01*
X137870590Y-117742962D01*
X137238282Y-118375269D01*
X137238282Y-118375270D01*
X137292449Y-118414624D01*
X137481782Y-118511095D01*
X137683870Y-118576757D01*
X137893754Y-118610000D01*
X138106246Y-118610000D01*
X138316127Y-118576757D01*
X138316130Y-118576757D01*
X138518217Y-118511095D01*
X138707554Y-118414622D01*
X138761716Y-118375270D01*
X138761717Y-118375270D01*
X138129408Y-117742962D01*
X138192993Y-117725925D01*
X138307007Y-117660099D01*
X138400099Y-117567007D01*
X138465925Y-117452993D01*
X138482962Y-117389408D01*
X139115270Y-118021717D01*
X139115270Y-118021716D01*
X139154622Y-117967554D01*
X139251095Y-117778217D01*
X139316757Y-117576130D01*
X139316757Y-117576127D01*
X139350000Y-117366246D01*
X139350000Y-117153753D01*
X139316757Y-116943872D01*
X139316757Y-116943869D01*
X139251095Y-116741782D01*
X139154624Y-116552449D01*
X139115270Y-116498282D01*
X139115269Y-116498282D01*
X138482962Y-117130590D01*
X138465925Y-117067007D01*
X138400099Y-116952993D01*
X138307007Y-116859901D01*
X138192993Y-116794075D01*
X138129409Y-116777037D01*
X138761716Y-116144728D01*
X138707550Y-116105375D01*
X138697954Y-116100486D01*
X138647157Y-116052512D01*
X138630361Y-115984692D01*
X138652897Y-115918556D01*
X138697954Y-115879514D01*
X138707554Y-115874622D01*
X138761716Y-115835270D01*
X138761717Y-115835270D01*
X138129408Y-115202962D01*
X138192993Y-115185925D01*
X138307007Y-115120099D01*
X138400099Y-115027007D01*
X138465925Y-114912993D01*
X138482962Y-114849408D01*
X139115270Y-115481717D01*
X139115270Y-115481716D01*
X139154622Y-115427554D01*
X139251095Y-115238217D01*
X139316757Y-115036130D01*
X139316757Y-115036127D01*
X139350000Y-114826246D01*
X139350000Y-114613753D01*
X139316757Y-114403872D01*
X139316757Y-114403869D01*
X139251095Y-114201782D01*
X139154624Y-114012449D01*
X139115270Y-113958282D01*
X139115269Y-113958282D01*
X138482962Y-114590590D01*
X138465925Y-114527007D01*
X138400099Y-114412993D01*
X138307007Y-114319901D01*
X138192993Y-114254075D01*
X138129409Y-114237037D01*
X138761716Y-113604728D01*
X138707550Y-113565375D01*
X138697954Y-113560486D01*
X138647157Y-113512512D01*
X138630361Y-113444692D01*
X138652897Y-113378556D01*
X138697954Y-113339514D01*
X138707554Y-113334622D01*
X138761716Y-113295270D01*
X138761717Y-113295270D01*
X138129408Y-112662962D01*
X138192993Y-112645925D01*
X138307007Y-112580099D01*
X138400099Y-112487007D01*
X138465925Y-112372993D01*
X138482962Y-112309408D01*
X139115270Y-112941717D01*
X139115270Y-112941716D01*
X139154622Y-112887554D01*
X139251095Y-112698217D01*
X139316757Y-112496130D01*
X139316757Y-112496127D01*
X139350000Y-112286246D01*
X139350000Y-112073753D01*
X139316757Y-111863872D01*
X139316757Y-111863869D01*
X139251095Y-111661782D01*
X139154624Y-111472449D01*
X139115270Y-111418282D01*
X139115269Y-111418282D01*
X138482962Y-112050590D01*
X138465925Y-111987007D01*
X138400099Y-111872993D01*
X138307007Y-111779901D01*
X138192993Y-111714075D01*
X138129409Y-111697037D01*
X138761716Y-111064728D01*
X138707550Y-111025375D01*
X138697954Y-111020486D01*
X138647157Y-110972512D01*
X138630361Y-110904692D01*
X138652897Y-110838556D01*
X138697954Y-110799514D01*
X138707554Y-110794622D01*
X138761716Y-110755270D01*
X138761717Y-110755270D01*
X138129408Y-110122962D01*
X138192993Y-110105925D01*
X138307007Y-110040099D01*
X138400099Y-109947007D01*
X138465925Y-109832993D01*
X138482962Y-109769408D01*
X139115270Y-110401717D01*
X139115270Y-110401716D01*
X139154622Y-110347554D01*
X139251095Y-110158217D01*
X139316757Y-109956130D01*
X139316757Y-109956127D01*
X139350000Y-109746246D01*
X139350000Y-109533753D01*
X139316757Y-109323872D01*
X139316757Y-109323869D01*
X139251095Y-109121782D01*
X139154624Y-108932449D01*
X139115270Y-108878282D01*
X139115269Y-108878282D01*
X138482962Y-109510590D01*
X138465925Y-109447007D01*
X138400099Y-109332993D01*
X138307007Y-109239901D01*
X138192993Y-109174075D01*
X138129409Y-109157037D01*
X138761716Y-108524728D01*
X138707550Y-108485375D01*
X138697954Y-108480486D01*
X138647157Y-108432512D01*
X138630361Y-108364692D01*
X138652897Y-108298556D01*
X138697954Y-108259514D01*
X138707554Y-108254622D01*
X138761716Y-108215270D01*
X138761717Y-108215270D01*
X138129408Y-107582962D01*
X138192993Y-107565925D01*
X138307007Y-107500099D01*
X138400099Y-107407007D01*
X138465925Y-107292993D01*
X138482962Y-107229408D01*
X139115270Y-107861717D01*
X139115270Y-107861716D01*
X139154622Y-107807554D01*
X139251095Y-107618217D01*
X139316757Y-107416130D01*
X139316757Y-107416127D01*
X139350000Y-107206246D01*
X139350000Y-106993753D01*
X139316757Y-106783872D01*
X139316757Y-106783869D01*
X139251095Y-106581782D01*
X139154624Y-106392449D01*
X139115270Y-106338282D01*
X139115269Y-106338282D01*
X138482962Y-106970590D01*
X138465925Y-106907007D01*
X138400099Y-106792993D01*
X138307007Y-106699901D01*
X138192993Y-106634075D01*
X138129409Y-106617037D01*
X138761716Y-105984728D01*
X138707550Y-105945375D01*
X138697954Y-105940486D01*
X138647157Y-105892512D01*
X138630361Y-105824692D01*
X138652897Y-105758556D01*
X138697954Y-105719514D01*
X138707554Y-105714622D01*
X138761716Y-105675270D01*
X138761717Y-105675270D01*
X138129408Y-105042962D01*
X138192993Y-105025925D01*
X138307007Y-104960099D01*
X138400099Y-104867007D01*
X138465925Y-104752993D01*
X138482962Y-104689408D01*
X139115270Y-105321717D01*
X139115270Y-105321716D01*
X139154622Y-105267554D01*
X139251095Y-105078217D01*
X139316757Y-104876130D01*
X139316757Y-104876127D01*
X139350000Y-104666246D01*
X139350000Y-104453753D01*
X139316757Y-104243872D01*
X139316757Y-104243869D01*
X139251095Y-104041782D01*
X139154624Y-103852449D01*
X139115270Y-103798282D01*
X139115269Y-103798282D01*
X138482962Y-104430590D01*
X138465925Y-104367007D01*
X138400099Y-104252993D01*
X138307007Y-104159901D01*
X138192993Y-104094075D01*
X138129409Y-104077037D01*
X138761716Y-103444728D01*
X138707550Y-103405375D01*
X138697954Y-103400486D01*
X138647157Y-103352512D01*
X138630361Y-103284692D01*
X138652897Y-103218556D01*
X138697954Y-103179514D01*
X138707554Y-103174622D01*
X138761716Y-103135270D01*
X138761717Y-103135270D01*
X138129408Y-102502962D01*
X138192993Y-102485925D01*
X138307007Y-102420099D01*
X138400099Y-102327007D01*
X138465925Y-102212993D01*
X138482962Y-102149408D01*
X139115270Y-102781717D01*
X139115270Y-102781716D01*
X139154622Y-102727554D01*
X139251095Y-102538217D01*
X139316757Y-102336130D01*
X139316757Y-102336127D01*
X139350000Y-102126246D01*
X139350000Y-101913753D01*
X139316757Y-101703872D01*
X139316757Y-101703869D01*
X139251095Y-101501782D01*
X139154624Y-101312449D01*
X139115270Y-101258282D01*
X139115269Y-101258282D01*
X138482962Y-101890590D01*
X138465925Y-101827007D01*
X138400099Y-101712993D01*
X138307007Y-101619901D01*
X138192993Y-101554075D01*
X138129409Y-101537037D01*
X138761716Y-100904728D01*
X138707550Y-100865375D01*
X138697954Y-100860486D01*
X138647157Y-100812512D01*
X138630361Y-100744692D01*
X138652897Y-100678556D01*
X138697954Y-100639514D01*
X138707554Y-100634622D01*
X138761716Y-100595270D01*
X138761717Y-100595270D01*
X138129408Y-99962962D01*
X138192993Y-99945925D01*
X138307007Y-99880099D01*
X138400099Y-99787007D01*
X138465925Y-99672993D01*
X138482962Y-99609408D01*
X139115270Y-100241717D01*
X139115270Y-100241716D01*
X139154622Y-100187554D01*
X139251095Y-99998217D01*
X139316757Y-99796130D01*
X139316757Y-99796127D01*
X139350000Y-99586246D01*
X139350000Y-99373753D01*
X139316757Y-99163872D01*
X139316757Y-99163869D01*
X139251095Y-98961782D01*
X139154624Y-98772449D01*
X139115270Y-98718282D01*
X139115269Y-98718282D01*
X138482962Y-99350590D01*
X138465925Y-99287007D01*
X138400099Y-99172993D01*
X138307007Y-99079901D01*
X138192993Y-99014075D01*
X138129409Y-98997037D01*
X138761716Y-98364728D01*
X138707550Y-98325375D01*
X138697954Y-98320486D01*
X138647157Y-98272512D01*
X138630361Y-98204692D01*
X138652897Y-98138556D01*
X138697954Y-98099514D01*
X138707554Y-98094622D01*
X138761716Y-98055270D01*
X138761717Y-98055270D01*
X138129408Y-97422962D01*
X138192993Y-97405925D01*
X138307007Y-97340099D01*
X138400099Y-97247007D01*
X138465925Y-97132993D01*
X138482962Y-97069408D01*
X139115270Y-97701717D01*
X139115270Y-97701716D01*
X139154622Y-97647554D01*
X139251095Y-97458217D01*
X139316757Y-97256130D01*
X139316757Y-97256127D01*
X139350000Y-97046246D01*
X139350000Y-96833753D01*
X139316757Y-96623872D01*
X139316757Y-96623869D01*
X139251095Y-96421782D01*
X139154624Y-96232449D01*
X139115270Y-96178282D01*
X139115269Y-96178282D01*
X138482962Y-96810590D01*
X138465925Y-96747007D01*
X138400099Y-96632993D01*
X138307007Y-96539901D01*
X138192993Y-96474075D01*
X138129409Y-96457037D01*
X138761716Y-95824728D01*
X138707550Y-95785375D01*
X138697954Y-95780486D01*
X138647157Y-95732512D01*
X138630361Y-95664692D01*
X138652897Y-95598556D01*
X138697954Y-95559514D01*
X138707554Y-95554622D01*
X138761716Y-95515270D01*
X138761717Y-95515270D01*
X138129408Y-94882962D01*
X138192993Y-94865925D01*
X138307007Y-94800099D01*
X138400099Y-94707007D01*
X138465925Y-94592993D01*
X138482962Y-94529408D01*
X139115270Y-95161717D01*
X139115270Y-95161716D01*
X139154622Y-95107554D01*
X139251095Y-94918217D01*
X139316757Y-94716130D01*
X139316757Y-94716127D01*
X139350000Y-94506246D01*
X139350000Y-94293753D01*
X139316757Y-94083872D01*
X139316757Y-94083869D01*
X139251095Y-93881782D01*
X139154624Y-93692449D01*
X139115270Y-93638282D01*
X139115269Y-93638282D01*
X138482962Y-94270590D01*
X138465925Y-94207007D01*
X138400099Y-94092993D01*
X138307007Y-93999901D01*
X138192993Y-93934075D01*
X138129409Y-93917037D01*
X138761716Y-93284728D01*
X138707550Y-93245375D01*
X138697954Y-93240486D01*
X138647157Y-93192512D01*
X138630361Y-93124692D01*
X138652897Y-93058556D01*
X138697954Y-93019514D01*
X138707554Y-93014622D01*
X138761716Y-92975270D01*
X138761717Y-92975270D01*
X138129408Y-92342962D01*
X138192993Y-92325925D01*
X138307007Y-92260099D01*
X138400099Y-92167007D01*
X138465925Y-92052993D01*
X138482962Y-91989408D01*
X139115270Y-92621717D01*
X139115270Y-92621716D01*
X139154622Y-92567554D01*
X139251095Y-92378217D01*
X139316757Y-92176130D01*
X139316757Y-92176127D01*
X139350000Y-91966246D01*
X139350000Y-91753753D01*
X139316757Y-91543872D01*
X139316757Y-91543869D01*
X139251095Y-91341782D01*
X139154624Y-91152449D01*
X139115270Y-91098282D01*
X139115269Y-91098282D01*
X138482962Y-91730590D01*
X138465925Y-91667007D01*
X138400099Y-91552993D01*
X138307007Y-91459901D01*
X138192993Y-91394075D01*
X138129409Y-91377037D01*
X138761716Y-90744728D01*
X138707550Y-90705375D01*
X138697954Y-90700486D01*
X138647157Y-90652512D01*
X138630361Y-90584692D01*
X138652897Y-90518556D01*
X138697954Y-90479514D01*
X138707554Y-90474622D01*
X138761716Y-90435270D01*
X138761717Y-90435270D01*
X138129408Y-89802962D01*
X138192993Y-89785925D01*
X138307007Y-89720099D01*
X138400099Y-89627007D01*
X138465925Y-89512993D01*
X138482962Y-89449408D01*
X139115270Y-90081717D01*
X139115270Y-90081716D01*
X139154622Y-90027554D01*
X139251095Y-89838217D01*
X139316757Y-89636130D01*
X139316757Y-89636127D01*
X139350000Y-89426246D01*
X139350000Y-89213753D01*
X139316757Y-89003872D01*
X139316757Y-89003869D01*
X139251095Y-88801782D01*
X139154624Y-88612449D01*
X139115270Y-88558282D01*
X139115269Y-88558282D01*
X138482962Y-89190590D01*
X138465925Y-89127007D01*
X138400099Y-89012993D01*
X138307007Y-88919901D01*
X138192993Y-88854075D01*
X138129409Y-88837037D01*
X138761716Y-88204728D01*
X138707550Y-88165375D01*
X138697954Y-88160486D01*
X138647157Y-88112512D01*
X138630361Y-88044692D01*
X138652897Y-87978556D01*
X138697954Y-87939514D01*
X138707554Y-87934622D01*
X138761716Y-87895270D01*
X138761717Y-87895270D01*
X138129408Y-87262962D01*
X138192993Y-87245925D01*
X138307007Y-87180099D01*
X138400099Y-87087007D01*
X138465925Y-86972993D01*
X138482962Y-86909408D01*
X139115270Y-87541717D01*
X139115270Y-87541716D01*
X139154622Y-87487554D01*
X139251095Y-87298217D01*
X139316757Y-87096130D01*
X139316757Y-87096127D01*
X139350000Y-86886246D01*
X139350000Y-86673753D01*
X139316757Y-86463872D01*
X139316757Y-86463869D01*
X139251095Y-86261782D01*
X139154624Y-86072449D01*
X139115270Y-86018282D01*
X139115269Y-86018282D01*
X138482962Y-86650590D01*
X138465925Y-86587007D01*
X138400099Y-86472993D01*
X138307007Y-86379901D01*
X138192993Y-86314075D01*
X138129409Y-86297037D01*
X138761716Y-85664728D01*
X138707550Y-85625375D01*
X138697954Y-85620486D01*
X138647157Y-85572512D01*
X138630361Y-85504692D01*
X138652897Y-85438556D01*
X138697954Y-85399514D01*
X138707554Y-85394622D01*
X138761716Y-85355270D01*
X138761717Y-85355270D01*
X138129408Y-84722962D01*
X138192993Y-84705925D01*
X138307007Y-84640099D01*
X138400099Y-84547007D01*
X138465925Y-84432993D01*
X138482962Y-84369408D01*
X139115270Y-85001717D01*
X139115270Y-85001716D01*
X139154622Y-84947554D01*
X139251095Y-84758217D01*
X139316757Y-84556130D01*
X139316757Y-84556127D01*
X139350000Y-84346246D01*
X139350000Y-84133753D01*
X139316757Y-83923872D01*
X139316757Y-83923869D01*
X139251095Y-83721782D01*
X139154624Y-83532449D01*
X139115270Y-83478282D01*
X139115269Y-83478282D01*
X138482962Y-84110590D01*
X138465925Y-84047007D01*
X138400099Y-83932993D01*
X138307007Y-83839901D01*
X138192993Y-83774075D01*
X138129409Y-83757037D01*
X138761716Y-83124728D01*
X138707550Y-83085375D01*
X138697954Y-83080486D01*
X138647157Y-83032512D01*
X138630361Y-82964692D01*
X138652897Y-82898556D01*
X138697954Y-82859514D01*
X138707554Y-82854622D01*
X138761716Y-82815270D01*
X138761717Y-82815270D01*
X138129408Y-82182962D01*
X138192993Y-82165925D01*
X138307007Y-82100099D01*
X138400099Y-82007007D01*
X138465925Y-81892993D01*
X138482962Y-81829408D01*
X139115270Y-82461717D01*
X139115270Y-82461716D01*
X139154622Y-82407554D01*
X139251095Y-82218217D01*
X139316757Y-82016130D01*
X139316757Y-82016127D01*
X139350000Y-81806246D01*
X139350000Y-81593753D01*
X139316757Y-81383872D01*
X139316757Y-81383869D01*
X139251095Y-81181782D01*
X139154624Y-80992449D01*
X139115270Y-80938282D01*
X139115269Y-80938282D01*
X138482962Y-81570590D01*
X138465925Y-81507007D01*
X138400099Y-81392993D01*
X138307007Y-81299901D01*
X138192993Y-81234075D01*
X138129409Y-81217037D01*
X138761716Y-80584728D01*
X138707550Y-80545375D01*
X138697954Y-80540486D01*
X138647157Y-80492512D01*
X138630361Y-80424692D01*
X138652897Y-80358556D01*
X138697954Y-80319514D01*
X138707554Y-80314622D01*
X138761716Y-80275270D01*
X138761717Y-80275270D01*
X138129408Y-79642962D01*
X138192993Y-79625925D01*
X138307007Y-79560099D01*
X138400099Y-79467007D01*
X138465925Y-79352993D01*
X138482962Y-79289408D01*
X139115270Y-79921717D01*
X139115270Y-79921716D01*
X139154622Y-79867554D01*
X139251095Y-79678217D01*
X139316757Y-79476130D01*
X139316757Y-79476127D01*
X139350000Y-79266246D01*
X139350000Y-79053753D01*
X139316757Y-78843872D01*
X139316757Y-78843869D01*
X139251095Y-78641782D01*
X139154624Y-78452449D01*
X139115270Y-78398282D01*
X139115269Y-78398282D01*
X138482962Y-79030590D01*
X138465925Y-78967007D01*
X138400099Y-78852993D01*
X138307007Y-78759901D01*
X138192993Y-78694075D01*
X138129409Y-78677037D01*
X138761716Y-78044728D01*
X138707550Y-78005375D01*
X138697954Y-78000486D01*
X138647157Y-77952512D01*
X138630361Y-77884692D01*
X138652897Y-77818556D01*
X138697954Y-77779514D01*
X138707554Y-77774622D01*
X138761716Y-77735270D01*
X138761717Y-77735270D01*
X138129408Y-77102962D01*
X138192993Y-77085925D01*
X138307007Y-77020099D01*
X138400099Y-76927007D01*
X138465925Y-76812993D01*
X138482962Y-76749408D01*
X139115270Y-77381717D01*
X139115270Y-77381716D01*
X139154622Y-77327554D01*
X139251095Y-77138217D01*
X139316757Y-76936130D01*
X139316757Y-76936127D01*
X139350000Y-76726246D01*
X139350000Y-76513753D01*
X139316757Y-76303872D01*
X139316757Y-76303869D01*
X139251095Y-76101782D01*
X139154624Y-75912449D01*
X139115270Y-75858282D01*
X139115269Y-75858282D01*
X138482962Y-76490590D01*
X138465925Y-76427007D01*
X138400099Y-76312993D01*
X138307007Y-76219901D01*
X138192993Y-76154075D01*
X138129409Y-76137037D01*
X138761716Y-75504728D01*
X138707550Y-75465375D01*
X138697954Y-75460486D01*
X138647157Y-75412512D01*
X138630361Y-75344692D01*
X138652897Y-75278556D01*
X138697954Y-75239514D01*
X138707554Y-75234622D01*
X138761716Y-75195270D01*
X138761717Y-75195270D01*
X138129408Y-74562962D01*
X138192993Y-74545925D01*
X138307007Y-74480099D01*
X138400099Y-74387007D01*
X138465925Y-74272993D01*
X138482962Y-74209408D01*
X139115270Y-74841717D01*
X139115270Y-74841716D01*
X139154622Y-74787554D01*
X139251095Y-74598217D01*
X139316757Y-74396130D01*
X139316757Y-74396127D01*
X139350000Y-74186246D01*
X139350000Y-73973753D01*
X139316757Y-73763872D01*
X139316757Y-73763869D01*
X139251095Y-73561782D01*
X139154624Y-73372449D01*
X139115270Y-73318282D01*
X139115269Y-73318282D01*
X138482962Y-73950590D01*
X138465925Y-73887007D01*
X138400099Y-73772993D01*
X138307007Y-73679901D01*
X138192993Y-73614075D01*
X138129409Y-73597037D01*
X138761716Y-72964728D01*
X138707547Y-72925373D01*
X138707547Y-72925372D01*
X138698500Y-72920763D01*
X138647706Y-72872788D01*
X138630912Y-72804966D01*
X138653451Y-72738832D01*
X138698508Y-72699793D01*
X138707816Y-72695051D01*
X138873048Y-72575004D01*
X138879786Y-72570109D01*
X138879788Y-72570106D01*
X138879792Y-72570104D01*
X139030104Y-72419792D01*
X139030106Y-72419788D01*
X139030109Y-72419786D01*
X139155048Y-72247820D01*
X139155047Y-72247820D01*
X139155051Y-72247816D01*
X139251557Y-72058412D01*
X139317246Y-71856243D01*
X139350500Y-71646287D01*
X139350500Y-71433713D01*
X139317246Y-71223757D01*
X139251557Y-71021588D01*
X139155051Y-70832184D01*
X139155049Y-70832181D01*
X139155048Y-70832179D01*
X139030109Y-70660213D01*
X138916569Y-70546673D01*
X138883084Y-70485350D01*
X138888068Y-70415658D01*
X138929940Y-70359725D01*
X138960915Y-70342810D01*
X139092331Y-70293796D01*
X139207546Y-70207546D01*
X139293796Y-70092331D01*
X139344091Y-69957483D01*
X139350500Y-69897873D01*
X139350499Y-68102128D01*
X139344091Y-68042517D01*
X139333489Y-68014092D01*
X139293797Y-67907671D01*
X139293793Y-67907664D01*
X139207547Y-67792455D01*
X139207544Y-67792452D01*
X139092335Y-67706206D01*
X139092328Y-67706202D01*
X138957482Y-67655908D01*
X138957483Y-67655908D01*
X138897883Y-67649501D01*
X138897881Y-67649500D01*
X138897873Y-67649500D01*
X138897864Y-67649500D01*
X137102129Y-67649500D01*
X137102123Y-67649501D01*
X137042516Y-67655908D01*
X136907671Y-67706202D01*
X136907668Y-67706204D01*
X136799187Y-67787413D01*
X136733722Y-67811830D01*
X136665449Y-67796978D01*
X136637195Y-67775827D01*
X133978421Y-65117052D01*
X133978414Y-65117046D01*
X133904729Y-65067812D01*
X133904729Y-65067813D01*
X133855491Y-65034913D01*
X133718917Y-64978343D01*
X133718907Y-64978340D01*
X133573920Y-64949500D01*
X133573918Y-64949500D01*
X131823918Y-64949500D01*
X130573918Y-64949500D01*
X129923918Y-64949500D01*
X113054604Y-64949500D01*
X113007155Y-64940062D01*
X112983497Y-64930263D01*
X112983493Y-64930262D01*
X112983488Y-64930260D01*
X112828845Y-64899500D01*
X112828842Y-64899500D01*
X112671158Y-64899500D01*
X112671155Y-64899500D01*
X112516511Y-64930260D01*
X112516506Y-64930262D01*
X112516504Y-64930262D01*
X112516503Y-64930263D01*
X112492844Y-64940062D01*
X112445396Y-64949500D01*
X106826080Y-64949500D01*
X106681092Y-64978340D01*
X106681086Y-64978342D01*
X106544508Y-65034914D01*
X106544496Y-65034921D01*
X106495270Y-65067811D01*
X106495271Y-65067812D01*
X106421581Y-65117049D01*
X105381493Y-66157137D01*
X105320170Y-66190622D01*
X105306414Y-66192814D01*
X105262247Y-66197325D01*
X105098484Y-66251592D01*
X105098481Y-66251593D01*
X105001956Y-66311130D01*
X104951650Y-66342160D01*
X104951648Y-66342161D01*
X104945503Y-66345952D01*
X104944362Y-66344103D01*
X104889410Y-66366258D01*
X104820771Y-66353201D01*
X104812228Y-66348387D01*
X104676305Y-66264548D01*
X104676300Y-66264546D01*
X104512652Y-66210319D01*
X104411654Y-66200000D01*
X104375000Y-66200000D01*
X104375000Y-67101000D01*
X104355315Y-67168039D01*
X104302511Y-67213794D01*
X104251000Y-67225000D01*
X104125000Y-67225000D01*
X104125000Y-67351000D01*
X104105315Y-67418039D01*
X104052511Y-67463794D01*
X104001000Y-67475000D01*
X103150001Y-67475000D01*
X103150001Y-67561654D01*
X103160319Y-67662652D01*
X103214546Y-67826300D01*
X103214551Y-67826311D01*
X103305052Y-67973034D01*
X103305055Y-67973038D01*
X103343982Y-68011965D01*
X103377467Y-68073288D01*
X103372483Y-68142980D01*
X103343983Y-68187326D01*
X103304661Y-68226648D01*
X103214093Y-68373481D01*
X103214092Y-68373484D01*
X103159826Y-68537247D01*
X103159826Y-68537248D01*
X103159825Y-68537248D01*
X103149500Y-68638315D01*
X97350000Y-68638315D01*
X97350000Y-68102172D01*
X97349999Y-68102155D01*
X97343598Y-68042627D01*
X97343596Y-68042620D01*
X97293354Y-67907913D01*
X97293350Y-67907906D01*
X97207190Y-67792812D01*
X97207187Y-67792809D01*
X97092093Y-67706649D01*
X97092086Y-67706645D01*
X96957379Y-67656403D01*
X96957372Y-67656401D01*
X96897844Y-67650000D01*
X96250000Y-67650000D01*
X96250000Y-68566988D01*
X96192993Y-68534075D01*
X96065826Y-68500000D01*
X95934174Y-68500000D01*
X95807007Y-68534075D01*
X95750000Y-68566988D01*
X95750000Y-67650000D01*
X95102155Y-67650000D01*
X95042627Y-67656401D01*
X95042620Y-67656403D01*
X94907913Y-67706645D01*
X94907906Y-67706649D01*
X94792812Y-67792809D01*
X94792809Y-67792812D01*
X94706649Y-67907906D01*
X94706645Y-67907913D01*
X94656403Y-68042620D01*
X94656401Y-68042627D01*
X94650000Y-68102155D01*
X94650000Y-68750000D01*
X95566988Y-68750000D01*
X95534075Y-68807007D01*
X95500000Y-68934174D01*
X95500000Y-69065826D01*
X95534075Y-69192993D01*
X95566988Y-69250000D01*
X94650000Y-69250000D01*
X94650000Y-69897844D01*
X94656401Y-69957372D01*
X94656403Y-69957379D01*
X94706645Y-70092086D01*
X94706649Y-70092093D01*
X94792809Y-70207187D01*
X94792812Y-70207190D01*
X94907906Y-70293350D01*
X94907913Y-70293354D01*
X95039470Y-70342422D01*
X95095404Y-70384293D01*
X95119821Y-70449758D01*
X95104969Y-70518031D01*
X95083819Y-70546285D01*
X94969889Y-70660215D01*
X94844951Y-70832179D01*
X94748444Y-71021585D01*
X94682753Y-71223760D01*
X94668798Y-71311869D01*
X94649500Y-71433713D01*
X93500500Y-71433713D01*
X93500500Y-67503051D01*
X93500649Y-67496967D01*
X93517052Y-67163072D01*
X93518245Y-67150962D01*
X93527699Y-67087229D01*
X93557200Y-66888345D01*
X103150000Y-66888345D01*
X103150000Y-66975000D01*
X103875000Y-66975000D01*
X103875000Y-66200000D01*
X103838361Y-66200000D01*
X103838343Y-66200001D01*
X103737347Y-66210319D01*
X103573699Y-66264546D01*
X103573688Y-66264551D01*
X103426965Y-66355052D01*
X103426961Y-66355055D01*
X103305055Y-66476961D01*
X103305052Y-66476965D01*
X103214551Y-66623688D01*
X103214546Y-66623699D01*
X103160319Y-66787347D01*
X103150000Y-66888345D01*
X93557200Y-66888345D01*
X93566850Y-66823292D01*
X93569218Y-66811385D01*
X93649710Y-66490043D01*
X93653240Y-66478411D01*
X93693369Y-66366258D01*
X93764835Y-66166525D01*
X93769476Y-66155318D01*
X93911124Y-65855828D01*
X93916840Y-65845136D01*
X94087145Y-65560998D01*
X94093888Y-65550905D01*
X94291232Y-65284818D01*
X94298935Y-65275433D01*
X94521405Y-65029975D01*
X94529975Y-65021405D01*
X94775433Y-64798935D01*
X94784818Y-64791232D01*
X95050905Y-64593888D01*
X95060998Y-64587145D01*
X95345136Y-64416840D01*
X95355828Y-64411124D01*
X95655318Y-64269476D01*
X95666525Y-64264835D01*
X95978412Y-64153239D01*
X95990043Y-64149710D01*
X96311385Y-64069218D01*
X96323296Y-64066849D01*
X96650962Y-64018244D01*
X96663068Y-64017052D01*
X96996967Y-64000648D01*
X97003051Y-64000500D01*
X97065892Y-64000500D01*
X136934108Y-64000500D01*
X136996949Y-64000500D01*
X137003032Y-64000648D01*
G37*
%TD.AperFunction*%
%TD*%
M02*
