%TF.GenerationSoftware,KiCad,Pcbnew,9.0.2*%
%TF.CreationDate,2025-06-04T20:10:01+07:00*%
%TF.ProjectId,Telemetry V.3 BM13 EVO Hy,54656c65-6d65-4747-9279-20562e332042,rev?*%
%TF.SameCoordinates,Original*%
%TF.FileFunction,Legend,Bot*%
%TF.FilePolarity,Positive*%
%FSLAX46Y46*%
G04 Gerber Fmt 4.6, Leading zero omitted, Abs format (unit mm)*
G04 Created by KiCad (PCBNEW 9.0.2) date 2025-06-04 20:10:01*
%MOMM*%
%LPD*%
G01*
G04 APERTURE LIST*
%ADD10C,0.300000*%
%ADD11C,0.150000*%
%ADD12C,0.120000*%
G04 APERTURE END LIST*
D10*
G36*
X118305277Y-49745000D02*
G01*
X117639227Y-49745000D01*
X117480607Y-49737088D01*
X117365186Y-49716423D01*
X117261599Y-49678173D01*
X117166892Y-49620436D01*
X117097370Y-49555963D01*
X117044434Y-49476546D01*
X117020010Y-49417194D01*
X117005006Y-49351898D01*
X116999829Y-49279534D01*
X117000268Y-49275412D01*
X117407684Y-49275412D01*
X117413647Y-49328451D01*
X117430765Y-49373506D01*
X117461645Y-49410427D01*
X117515304Y-49441741D01*
X117577862Y-49461152D01*
X117647470Y-49468486D01*
X117885240Y-49469494D01*
X117913908Y-49469494D01*
X117913908Y-49088475D01*
X117827813Y-49088475D01*
X117658736Y-49089482D01*
X117582177Y-49094089D01*
X117531699Y-49103862D01*
X117471586Y-49129842D01*
X117435894Y-49162938D01*
X117415510Y-49207862D01*
X117407684Y-49275412D01*
X117000268Y-49275412D01*
X117010272Y-49181572D01*
X117039755Y-49101176D01*
X117087482Y-49034528D01*
X117150855Y-48980863D01*
X117228949Y-48939888D01*
X117324703Y-48911979D01*
X117324703Y-48903736D01*
X117257561Y-48867128D01*
X117203106Y-48823236D01*
X117159747Y-48771844D01*
X117127521Y-48713021D01*
X117108722Y-48650669D01*
X117504038Y-48650669D01*
X117508332Y-48698735D01*
X117520433Y-48738780D01*
X117544494Y-48771852D01*
X117590134Y-48800696D01*
X117631905Y-48814165D01*
X117693632Y-48821578D01*
X117852451Y-48824692D01*
X117913908Y-48824692D01*
X117913908Y-48496430D01*
X117876997Y-48496430D01*
X117697204Y-48497987D01*
X117636134Y-48503721D01*
X117590134Y-48516214D01*
X117548463Y-48540624D01*
X117522998Y-48573550D01*
X117508652Y-48612625D01*
X117504038Y-48650669D01*
X117108722Y-48650669D01*
X117108012Y-48648314D01*
X117101312Y-48576206D01*
X117112249Y-48484823D01*
X117143902Y-48406304D01*
X117176477Y-48360823D01*
X117219164Y-48321389D01*
X117273412Y-48287694D01*
X117358733Y-48252747D01*
X117443039Y-48233289D01*
X117541025Y-48224614D01*
X117713049Y-48220924D01*
X118305277Y-48220924D01*
X118305277Y-49745000D01*
G37*
G36*
X116358142Y-49745000D02*
G01*
X116726980Y-49745000D01*
X116726980Y-48596081D01*
X116358142Y-48596081D01*
X116358142Y-49745000D01*
G37*
G36*
X116347884Y-48431950D02*
G01*
X116737238Y-48431950D01*
X116737238Y-48150582D01*
X116347884Y-48150582D01*
X116347884Y-48431950D01*
G37*
G36*
X115010288Y-49382024D02*
G01*
X115020262Y-49467115D01*
X115049391Y-49542107D01*
X115098334Y-49609496D01*
X115170115Y-49670628D01*
X115251350Y-49715887D01*
X115349193Y-49750150D01*
X115466747Y-49772241D01*
X115607645Y-49780170D01*
X115757424Y-49772712D01*
X115886357Y-49751686D01*
X116004685Y-49719889D01*
X116087216Y-49688579D01*
X116087216Y-49387428D01*
X116053419Y-49387428D01*
X115989397Y-49427453D01*
X115886357Y-49474165D01*
X115756297Y-49512267D01*
X115681984Y-49524044D01*
X115600501Y-49528112D01*
X115499217Y-49521368D01*
X115439667Y-49505214D01*
X115409255Y-49486315D01*
X115392809Y-49464142D01*
X115387369Y-49437528D01*
X115395393Y-49400473D01*
X115418143Y-49376345D01*
X115456222Y-49359766D01*
X115534922Y-49339801D01*
X115646113Y-49319742D01*
X115773700Y-49293456D01*
X115874545Y-49258588D01*
X115950470Y-49215610D01*
X116006250Y-49165411D01*
X116047877Y-49103677D01*
X116073243Y-49032347D01*
X116082087Y-48948798D01*
X116072524Y-48870001D01*
X116044267Y-48798806D01*
X115996166Y-48733044D01*
X115924825Y-48671552D01*
X115844703Y-48625734D01*
X115748456Y-48591146D01*
X115633068Y-48568889D01*
X115494988Y-48560910D01*
X115367596Y-48567583D01*
X115247509Y-48587197D01*
X115136124Y-48616215D01*
X115062587Y-48643342D01*
X115062587Y-48936067D01*
X115094369Y-48936067D01*
X115180783Y-48887196D01*
X115281398Y-48847224D01*
X115387353Y-48821480D01*
X115493981Y-48812969D01*
X115579103Y-48819291D01*
X115644098Y-48836325D01*
X115680456Y-48855981D01*
X115699103Y-48877746D01*
X115705006Y-48902545D01*
X115697797Y-48939451D01*
X115677346Y-48965285D01*
X115639695Y-48983884D01*
X115547195Y-49008516D01*
X115425837Y-49030681D01*
X115295136Y-49057883D01*
X115201611Y-49090334D01*
X115131394Y-49130570D01*
X115079989Y-49177776D01*
X115041812Y-49235707D01*
X115018454Y-49302960D01*
X115010288Y-49382024D01*
G37*
G36*
X113639628Y-48928557D02*
G01*
X113639628Y-49745000D01*
X114010572Y-49745000D01*
X114010572Y-49169624D01*
X114014693Y-49026559D01*
X114022928Y-48970836D01*
X114037225Y-48930663D01*
X114060409Y-48898733D01*
X114093095Y-48876808D01*
X114134583Y-48864682D01*
X114198150Y-48859863D01*
X114251517Y-48865347D01*
X114303663Y-48881937D01*
X114395895Y-48928557D01*
X114395895Y-49745000D01*
X114764733Y-49745000D01*
X114764733Y-48596081D01*
X114395895Y-48596081D01*
X114395895Y-48719912D01*
X114299902Y-48651481D01*
X114213446Y-48602950D01*
X114122769Y-48571646D01*
X114020830Y-48560910D01*
X113946381Y-48566815D01*
X113879889Y-48583897D01*
X113819971Y-48611743D01*
X113766693Y-48650367D01*
X113721421Y-48699670D01*
X113683683Y-48761037D01*
X113571624Y-48675637D01*
X113468536Y-48614308D01*
X113397396Y-48583985D01*
X113329377Y-48566565D01*
X113263555Y-48560910D01*
X113171221Y-48568727D01*
X113095166Y-48590611D01*
X113032265Y-48625242D01*
X112980264Y-48672743D01*
X112940134Y-48730702D01*
X112909948Y-48801807D01*
X112890475Y-48888778D01*
X112883452Y-48994960D01*
X112883452Y-49745000D01*
X113254396Y-49745000D01*
X113254396Y-49169624D01*
X113257968Y-49026010D01*
X113265785Y-48970785D01*
X113280041Y-48930663D01*
X113302511Y-48898804D01*
X113335362Y-48876808D01*
X113377434Y-48864683D01*
X113441883Y-48859863D01*
X113487358Y-48863832D01*
X113532008Y-48875800D01*
X113639628Y-48928557D01*
G37*
G36*
X112174262Y-49745000D02*
G01*
X112543100Y-49745000D01*
X112543100Y-48596081D01*
X112174262Y-48596081D01*
X112174262Y-49745000D01*
G37*
G36*
X112164004Y-48431950D02*
G01*
X112553358Y-48431950D01*
X112553358Y-48150582D01*
X112164004Y-48150582D01*
X112164004Y-48431950D01*
G37*
G36*
X111457654Y-49745000D02*
G01*
X111826491Y-49745000D01*
X111826491Y-48150582D01*
X111457654Y-48150582D01*
X111457654Y-49745000D01*
G37*
G36*
X110741045Y-49745000D02*
G01*
X111109883Y-49745000D01*
X111109883Y-48150582D01*
X110741045Y-48150582D01*
X110741045Y-49745000D01*
G37*
G36*
X110056878Y-48566142D02*
G01*
X110188843Y-48581885D01*
X110378894Y-48618155D01*
X110378894Y-48895034D01*
X110345097Y-48895034D01*
X110196536Y-48845300D01*
X110093983Y-48820703D01*
X110001814Y-48812969D01*
X109900318Y-48817928D01*
X109825748Y-48830938D01*
X109772287Y-48849697D01*
X109729313Y-48880485D01*
X109703672Y-48923395D01*
X109694434Y-48982595D01*
X109694434Y-48988824D01*
X109855884Y-49000784D01*
X110009050Y-49017675D01*
X110153536Y-49045309D01*
X110263123Y-49083620D01*
X110328443Y-49119328D01*
X110381215Y-49161536D01*
X110423041Y-49210382D01*
X110453319Y-49266534D01*
X110472504Y-49334621D01*
X110479370Y-49417470D01*
X110472162Y-49494763D01*
X110451329Y-49562847D01*
X110417157Y-49623551D01*
X110368728Y-49678138D01*
X110310550Y-49722484D01*
X110246263Y-49754100D01*
X110174663Y-49773470D01*
X110094138Y-49780170D01*
X110026039Y-49776673D01*
X109966093Y-49766707D01*
X109908700Y-49750201D01*
X109853345Y-49727597D01*
X109770363Y-49677405D01*
X109696541Y-49623092D01*
X109696541Y-49745000D01*
X109330726Y-49745000D01*
X109330726Y-49445955D01*
X109696541Y-49445955D01*
X109742588Y-49479089D01*
X109796467Y-49505580D01*
X109853569Y-49522615D01*
X109908574Y-49528112D01*
X109973657Y-49525220D01*
X110011065Y-49518403D01*
X110041858Y-49505753D01*
X110067393Y-49488087D01*
X110088023Y-49466167D01*
X110098168Y-49444947D01*
X110104304Y-49386420D01*
X110096609Y-49336127D01*
X110075087Y-49298676D01*
X110040783Y-49270127D01*
X109990548Y-49247843D01*
X109940060Y-49235339D01*
X109858474Y-49222656D01*
X109696541Y-49205711D01*
X109696541Y-49445955D01*
X109330726Y-49445955D01*
X109330726Y-48961713D01*
X109340449Y-48860174D01*
X109367578Y-48778167D01*
X109410679Y-48711601D01*
X109470586Y-48657814D01*
X109540878Y-48619739D01*
X109635711Y-48589287D01*
X109761329Y-48568631D01*
X109924969Y-48560910D01*
X110056878Y-48566142D01*
G37*
G36*
X107835044Y-49745000D02*
G01*
X108205896Y-49745000D01*
X108205896Y-49173746D01*
X108213132Y-49034711D01*
X108223878Y-48970406D01*
X108237678Y-48932678D01*
X108262932Y-48899891D01*
X108297670Y-48877357D01*
X108341298Y-48864831D01*
X108407763Y-48859863D01*
X108457938Y-48863886D01*
X108509795Y-48876258D01*
X108561809Y-48896644D01*
X108621994Y-48928557D01*
X108621994Y-49745000D01*
X108990832Y-49745000D01*
X108990832Y-48150582D01*
X108621994Y-48150582D01*
X108621994Y-48719912D01*
X108522747Y-48650210D01*
X108432950Y-48601943D01*
X108338594Y-48571437D01*
X108231633Y-48560910D01*
X108139198Y-48568427D01*
X108061467Y-48589631D01*
X107995764Y-48623373D01*
X107940099Y-48669720D01*
X107896570Y-48726696D01*
X107863864Y-48797720D01*
X107842709Y-48885852D01*
X107835044Y-48994960D01*
X107835044Y-49745000D01*
G37*
G36*
X106758941Y-49745000D02*
G01*
X106221026Y-49745000D01*
X106044826Y-49737831D01*
X105905495Y-49718438D01*
X105777035Y-49681319D01*
X105660580Y-49624191D01*
X105568661Y-49556729D01*
X105486854Y-49471322D01*
X105414658Y-49365812D01*
X105361104Y-49250091D01*
X105328493Y-49123775D01*
X105317297Y-48984519D01*
X105317486Y-48981954D01*
X105724053Y-48981954D01*
X105730200Y-49081549D01*
X105747393Y-49165078D01*
X105774245Y-49235112D01*
X105813608Y-49298184D01*
X105865694Y-49352479D01*
X105932056Y-49398694D01*
X105995765Y-49427255D01*
X106060101Y-49445039D01*
X106135049Y-49453973D01*
X106266089Y-49457770D01*
X106365465Y-49457770D01*
X106365465Y-48508154D01*
X106266089Y-48508154D01*
X106147087Y-48511308D01*
X106076038Y-48518870D01*
X106014044Y-48534157D01*
X105952573Y-48559078D01*
X105879048Y-48605429D01*
X105821834Y-48660774D01*
X105778916Y-48725774D01*
X105749312Y-48798678D01*
X105730646Y-48883338D01*
X105724053Y-48981954D01*
X105317486Y-48981954D01*
X105327998Y-48839437D01*
X105358644Y-48712309D01*
X105407972Y-48600203D01*
X105476192Y-48498395D01*
X105558648Y-48412313D01*
X105656459Y-48340634D01*
X105755849Y-48291304D01*
X105883971Y-48252157D01*
X106025707Y-48229355D01*
X106205639Y-48220924D01*
X106758941Y-48220924D01*
X106758941Y-49745000D01*
G37*
G36*
X104700633Y-48566142D02*
G01*
X104832597Y-48581885D01*
X105022649Y-48618155D01*
X105022649Y-48895034D01*
X104988852Y-48895034D01*
X104840291Y-48845300D01*
X104737737Y-48820703D01*
X104645568Y-48812969D01*
X104544072Y-48817928D01*
X104469502Y-48830938D01*
X104416041Y-48849697D01*
X104373068Y-48880485D01*
X104347426Y-48923395D01*
X104338189Y-48982595D01*
X104338189Y-48988824D01*
X104499638Y-49000784D01*
X104652804Y-49017675D01*
X104797290Y-49045309D01*
X104906878Y-49083620D01*
X104972197Y-49119328D01*
X105024969Y-49161536D01*
X105066796Y-49210382D01*
X105097073Y-49266534D01*
X105116259Y-49334621D01*
X105123124Y-49417470D01*
X105115916Y-49494763D01*
X105095083Y-49562847D01*
X105060912Y-49623551D01*
X105012482Y-49678138D01*
X104954304Y-49722484D01*
X104890018Y-49754100D01*
X104818418Y-49773470D01*
X104737892Y-49780170D01*
X104669794Y-49776673D01*
X104609848Y-49766707D01*
X104552454Y-49750201D01*
X104497099Y-49727597D01*
X104414118Y-49677405D01*
X104340295Y-49623092D01*
X104340295Y-49745000D01*
X103974480Y-49745000D01*
X103974480Y-49445955D01*
X104340295Y-49445955D01*
X104386342Y-49479089D01*
X104440221Y-49505580D01*
X104497323Y-49522615D01*
X104552329Y-49528112D01*
X104617412Y-49525220D01*
X104654819Y-49518403D01*
X104685612Y-49505753D01*
X104711147Y-49488087D01*
X104731777Y-49466167D01*
X104741922Y-49444947D01*
X104748059Y-49386420D01*
X104740363Y-49336127D01*
X104718841Y-49298676D01*
X104684537Y-49270127D01*
X104634303Y-49247843D01*
X104583814Y-49235339D01*
X104502228Y-49222656D01*
X104340295Y-49205711D01*
X104340295Y-49445955D01*
X103974480Y-49445955D01*
X103974480Y-48961713D01*
X103984204Y-48860174D01*
X104011332Y-48778167D01*
X104054434Y-48711601D01*
X104114340Y-48657814D01*
X104184633Y-48619739D01*
X104279465Y-48589287D01*
X104405084Y-48568631D01*
X104568723Y-48560910D01*
X104700633Y-48566142D01*
G37*
G36*
X102898835Y-49735474D02*
G01*
X103024864Y-49759654D01*
X103187805Y-49768447D01*
X103297666Y-49761899D01*
X103385041Y-49744026D01*
X103454020Y-49716883D01*
X103508007Y-49681618D01*
X103550995Y-49634827D01*
X103583619Y-49572533D01*
X103605115Y-49490790D01*
X103613062Y-49384405D01*
X103613062Y-48848140D01*
X103764737Y-48848140D01*
X103764737Y-48596081D01*
X103613062Y-48596081D01*
X103613062Y-48267819D01*
X103244225Y-48267819D01*
X103244225Y-48596081D01*
X102898835Y-48596081D01*
X102898835Y-48848140D01*
X103244225Y-48848140D01*
X103244225Y-49253613D01*
X103243217Y-49358485D01*
X103238470Y-49401712D01*
X103226823Y-49438994D01*
X103207227Y-49470623D01*
X103176081Y-49495505D01*
X103134930Y-49510438D01*
X103070019Y-49516388D01*
X102994639Y-49504023D01*
X102929610Y-49481217D01*
X102898835Y-49481217D01*
X102898835Y-49735474D01*
G37*
G36*
X102342712Y-48566142D02*
G01*
X102474677Y-48581885D01*
X102664728Y-48618155D01*
X102664728Y-48895034D01*
X102630931Y-48895034D01*
X102482370Y-48845300D01*
X102379817Y-48820703D01*
X102287648Y-48812969D01*
X102186152Y-48817928D01*
X102111581Y-48830938D01*
X102058121Y-48849697D01*
X102015147Y-48880485D01*
X101989506Y-48923395D01*
X101980268Y-48982595D01*
X101980268Y-48988824D01*
X102141718Y-49000784D01*
X102294883Y-49017675D01*
X102439370Y-49045309D01*
X102548957Y-49083620D01*
X102614277Y-49119328D01*
X102667049Y-49161536D01*
X102708875Y-49210382D01*
X102739152Y-49266534D01*
X102758338Y-49334621D01*
X102765204Y-49417470D01*
X102757996Y-49494763D01*
X102737163Y-49562847D01*
X102702991Y-49623551D01*
X102654562Y-49678138D01*
X102596384Y-49722484D01*
X102532097Y-49754100D01*
X102460497Y-49773470D01*
X102379972Y-49780170D01*
X102311873Y-49776673D01*
X102251927Y-49766707D01*
X102194534Y-49750201D01*
X102139179Y-49727597D01*
X102056197Y-49677405D01*
X101982375Y-49623092D01*
X101982375Y-49745000D01*
X101616560Y-49745000D01*
X101616560Y-49445955D01*
X101982375Y-49445955D01*
X102028422Y-49479089D01*
X102082301Y-49505580D01*
X102139403Y-49522615D01*
X102194408Y-49528112D01*
X102259491Y-49525220D01*
X102296898Y-49518403D01*
X102327692Y-49505753D01*
X102353227Y-49488087D01*
X102373857Y-49466167D01*
X102384002Y-49444947D01*
X102390138Y-49386420D01*
X102382443Y-49336127D01*
X102360921Y-49298676D01*
X102326617Y-49270127D01*
X102276382Y-49247843D01*
X102225894Y-49235339D01*
X102144308Y-49222656D01*
X101982375Y-49205711D01*
X101982375Y-49445955D01*
X101616560Y-49445955D01*
X101616560Y-48961713D01*
X101626283Y-48860174D01*
X101653412Y-48778167D01*
X101696513Y-48711601D01*
X101756420Y-48657814D01*
X101826712Y-48619739D01*
X101921544Y-48589287D01*
X102047163Y-48568631D01*
X102210803Y-48560910D01*
X102342712Y-48566142D01*
G37*
G36*
X100539541Y-49745000D02*
G01*
X100001626Y-49745000D01*
X99825426Y-49737831D01*
X99686095Y-49718438D01*
X99557635Y-49681319D01*
X99441181Y-49624191D01*
X99349262Y-49556729D01*
X99267455Y-49471322D01*
X99195259Y-49365812D01*
X99141704Y-49250091D01*
X99109093Y-49123775D01*
X99097897Y-48984519D01*
X99098086Y-48981954D01*
X99504653Y-48981954D01*
X99510800Y-49081549D01*
X99527993Y-49165078D01*
X99554845Y-49235112D01*
X99594208Y-49298184D01*
X99646294Y-49352479D01*
X99712657Y-49398694D01*
X99776365Y-49427255D01*
X99840701Y-49445039D01*
X99915649Y-49453973D01*
X100046689Y-49457770D01*
X100146065Y-49457770D01*
X100146065Y-48508154D01*
X100046689Y-48508154D01*
X99927687Y-48511308D01*
X99856638Y-48518870D01*
X99794644Y-48534157D01*
X99733173Y-48559078D01*
X99659648Y-48605429D01*
X99602434Y-48660774D01*
X99559516Y-48725774D01*
X99529913Y-48798678D01*
X99511246Y-48883338D01*
X99504653Y-48981954D01*
X99098086Y-48981954D01*
X99108599Y-48839437D01*
X99139244Y-48712309D01*
X99188572Y-48600203D01*
X99256792Y-48498395D01*
X99339249Y-48412313D01*
X99437059Y-48340634D01*
X99536450Y-48291304D01*
X99664571Y-48252157D01*
X99806307Y-48229355D01*
X99986239Y-48220924D01*
X100539541Y-48220924D01*
X100539541Y-49745000D01*
G37*
G36*
X98481233Y-48566142D02*
G01*
X98613197Y-48581885D01*
X98803249Y-48618155D01*
X98803249Y-48895034D01*
X98769452Y-48895034D01*
X98620891Y-48845300D01*
X98518338Y-48820703D01*
X98426168Y-48812969D01*
X98324672Y-48817928D01*
X98250102Y-48830938D01*
X98196641Y-48849697D01*
X98153668Y-48880485D01*
X98128026Y-48923395D01*
X98118789Y-48982595D01*
X98118789Y-48988824D01*
X98280239Y-49000784D01*
X98433404Y-49017675D01*
X98577891Y-49045309D01*
X98687478Y-49083620D01*
X98752797Y-49119328D01*
X98805569Y-49161536D01*
X98847396Y-49210382D01*
X98877673Y-49266534D01*
X98896859Y-49334621D01*
X98903724Y-49417470D01*
X98896516Y-49494763D01*
X98875684Y-49562847D01*
X98841512Y-49623551D01*
X98793082Y-49678138D01*
X98734904Y-49722484D01*
X98670618Y-49754100D01*
X98599018Y-49773470D01*
X98518492Y-49780170D01*
X98450394Y-49776673D01*
X98390448Y-49766707D01*
X98333054Y-49750201D01*
X98277699Y-49727597D01*
X98194718Y-49677405D01*
X98120895Y-49623092D01*
X98120895Y-49745000D01*
X97755081Y-49745000D01*
X97755081Y-49445955D01*
X98120895Y-49445955D01*
X98166943Y-49479089D01*
X98220821Y-49505580D01*
X98277923Y-49522615D01*
X98332929Y-49528112D01*
X98398012Y-49525220D01*
X98435419Y-49518403D01*
X98466212Y-49505753D01*
X98491748Y-49488087D01*
X98512377Y-49466167D01*
X98522522Y-49444947D01*
X98528659Y-49386420D01*
X98520963Y-49336127D01*
X98499441Y-49298676D01*
X98465137Y-49270127D01*
X98414903Y-49247843D01*
X98364414Y-49235339D01*
X98282828Y-49222656D01*
X98120895Y-49205711D01*
X98120895Y-49445955D01*
X97755081Y-49445955D01*
X97755081Y-48961713D01*
X97764804Y-48860174D01*
X97791932Y-48778167D01*
X97835034Y-48711601D01*
X97894940Y-48657814D01*
X97965233Y-48619739D01*
X98060065Y-48589287D01*
X98185684Y-48568631D01*
X98349323Y-48560910D01*
X98481233Y-48566142D01*
G37*
G36*
X96679435Y-49735474D02*
G01*
X96805464Y-49759654D01*
X96968405Y-49768447D01*
X97078266Y-49761899D01*
X97165641Y-49744026D01*
X97234620Y-49716883D01*
X97288607Y-49681618D01*
X97331595Y-49634827D01*
X97364219Y-49572533D01*
X97385715Y-49490790D01*
X97393662Y-49384405D01*
X97393662Y-48848140D01*
X97545337Y-48848140D01*
X97545337Y-48596081D01*
X97393662Y-48596081D01*
X97393662Y-48267819D01*
X97024825Y-48267819D01*
X97024825Y-48596081D01*
X96679435Y-48596081D01*
X96679435Y-48848140D01*
X97024825Y-48848140D01*
X97024825Y-49253613D01*
X97023818Y-49358485D01*
X97019070Y-49401712D01*
X97007423Y-49438994D01*
X96987827Y-49470623D01*
X96956681Y-49495505D01*
X96915530Y-49510438D01*
X96850619Y-49516388D01*
X96775239Y-49504023D01*
X96710210Y-49481217D01*
X96679435Y-49481217D01*
X96679435Y-49735474D01*
G37*
G36*
X96123312Y-48566142D02*
G01*
X96255277Y-48581885D01*
X96445328Y-48618155D01*
X96445328Y-48895034D01*
X96411531Y-48895034D01*
X96262971Y-48845300D01*
X96160417Y-48820703D01*
X96068248Y-48812969D01*
X95966752Y-48817928D01*
X95892182Y-48830938D01*
X95838721Y-48849697D01*
X95795747Y-48880485D01*
X95770106Y-48923395D01*
X95760868Y-48982595D01*
X95760868Y-48988824D01*
X95922318Y-49000784D01*
X96075484Y-49017675D01*
X96219970Y-49045309D01*
X96329557Y-49083620D01*
X96394877Y-49119328D01*
X96447649Y-49161536D01*
X96489475Y-49210382D01*
X96519753Y-49266534D01*
X96538938Y-49334621D01*
X96545804Y-49417470D01*
X96538596Y-49494763D01*
X96517763Y-49562847D01*
X96483591Y-49623551D01*
X96435162Y-49678138D01*
X96376984Y-49722484D01*
X96312697Y-49754100D01*
X96241097Y-49773470D01*
X96160572Y-49780170D01*
X96092473Y-49776673D01*
X96032527Y-49766707D01*
X95975134Y-49750201D01*
X95919779Y-49727597D01*
X95836797Y-49677405D01*
X95762975Y-49623092D01*
X95762975Y-49745000D01*
X95397160Y-49745000D01*
X95397160Y-49445955D01*
X95762975Y-49445955D01*
X95809022Y-49479089D01*
X95862901Y-49505580D01*
X95920003Y-49522615D01*
X95975008Y-49528112D01*
X96040091Y-49525220D01*
X96077499Y-49518403D01*
X96108292Y-49505753D01*
X96133827Y-49488087D01*
X96154457Y-49466167D01*
X96164602Y-49444947D01*
X96170738Y-49386420D01*
X96163043Y-49336127D01*
X96141521Y-49298676D01*
X96107217Y-49270127D01*
X96056982Y-49247843D01*
X96006494Y-49235339D01*
X95924908Y-49222656D01*
X95762975Y-49205711D01*
X95762975Y-49445955D01*
X95397160Y-49445955D01*
X95397160Y-48961713D01*
X95406883Y-48860174D01*
X95434012Y-48778167D01*
X95477114Y-48711601D01*
X95537020Y-48657814D01*
X95607312Y-48619739D01*
X95702145Y-48589287D01*
X95827763Y-48568631D01*
X95991403Y-48560910D01*
X96123312Y-48566142D01*
G37*
G36*
X93219674Y-49745000D02*
G01*
X94320141Y-49745000D01*
X94320141Y-48220924D01*
X93926666Y-48220924D01*
X93926666Y-49451908D01*
X93219674Y-49451908D01*
X93219674Y-49745000D01*
G37*
G36*
X92666299Y-48566142D02*
G01*
X92798264Y-48581885D01*
X92988315Y-48618155D01*
X92988315Y-48895034D01*
X92954518Y-48895034D01*
X92805957Y-48845300D01*
X92703404Y-48820703D01*
X92611235Y-48812969D01*
X92509739Y-48817928D01*
X92435168Y-48830938D01*
X92381707Y-48849697D01*
X92338734Y-48880485D01*
X92313092Y-48923395D01*
X92303855Y-48982595D01*
X92303855Y-48988824D01*
X92465305Y-49000784D01*
X92618470Y-49017675D01*
X92762957Y-49045309D01*
X92872544Y-49083620D01*
X92937864Y-49119328D01*
X92990635Y-49161536D01*
X93032462Y-49210382D01*
X93062739Y-49266534D01*
X93081925Y-49334621D01*
X93088790Y-49417470D01*
X93081582Y-49494763D01*
X93060750Y-49562847D01*
X93026578Y-49623551D01*
X92978148Y-49678138D01*
X92919971Y-49722484D01*
X92855684Y-49754100D01*
X92784084Y-49773470D01*
X92703558Y-49780170D01*
X92635460Y-49776673D01*
X92575514Y-49766707D01*
X92518120Y-49750201D01*
X92462766Y-49727597D01*
X92379784Y-49677405D01*
X92305962Y-49623092D01*
X92305962Y-49745000D01*
X91940147Y-49745000D01*
X91940147Y-49445955D01*
X92305962Y-49445955D01*
X92352009Y-49479089D01*
X92405887Y-49505580D01*
X92462989Y-49522615D01*
X92517995Y-49528112D01*
X92583078Y-49525220D01*
X92620485Y-49518403D01*
X92651279Y-49505753D01*
X92676814Y-49488087D01*
X92697444Y-49466167D01*
X92707588Y-49444947D01*
X92713725Y-49386420D01*
X92706030Y-49336127D01*
X92684508Y-49298676D01*
X92650204Y-49270127D01*
X92599969Y-49247843D01*
X92549481Y-49235339D01*
X92467895Y-49222656D01*
X92305962Y-49205711D01*
X92305962Y-49445955D01*
X91940147Y-49445955D01*
X91940147Y-48961713D01*
X91949870Y-48860174D01*
X91976999Y-48778167D01*
X92020100Y-48711601D01*
X92080006Y-48657814D01*
X92150299Y-48619739D01*
X92245131Y-48589287D01*
X92370750Y-48568631D01*
X92534390Y-48560910D01*
X92666299Y-48566142D01*
G37*
G36*
X90444465Y-49745000D02*
G01*
X90815317Y-49745000D01*
X90815317Y-49173746D01*
X90822553Y-49034711D01*
X90833299Y-48970406D01*
X90847099Y-48932678D01*
X90872353Y-48899891D01*
X90907091Y-48877357D01*
X90950718Y-48864831D01*
X91017184Y-48859863D01*
X91067359Y-48863886D01*
X91119216Y-48876258D01*
X91171229Y-48896644D01*
X91231415Y-48928557D01*
X91231415Y-49745000D01*
X91600252Y-49745000D01*
X91600252Y-48596081D01*
X91231415Y-48596081D01*
X91231415Y-48719912D01*
X91132168Y-48650210D01*
X91042371Y-48601943D01*
X90948015Y-48571437D01*
X90841054Y-48560910D01*
X90748619Y-48568427D01*
X90670888Y-48589631D01*
X90605185Y-48623373D01*
X90549520Y-48669720D01*
X90505991Y-48726696D01*
X90473285Y-48797720D01*
X90452130Y-48885852D01*
X90444465Y-48994960D01*
X90444465Y-49745000D01*
G37*
G36*
X89506023Y-49780170D02*
G01*
X89652745Y-49770827D01*
X89781162Y-49744175D01*
X89861726Y-49715267D01*
X89933650Y-49678161D01*
X89997867Y-49632892D01*
X90053766Y-49578822D01*
X90100800Y-49515981D01*
X90139283Y-49443390D01*
X90166424Y-49365642D01*
X90183486Y-49276997D01*
X90189475Y-49175669D01*
X90183015Y-49068925D01*
X90164705Y-48976637D01*
X90135711Y-48896683D01*
X90094673Y-48822214D01*
X90044758Y-48757624D01*
X89985594Y-48701960D01*
X89920887Y-48657953D01*
X89849439Y-48622269D01*
X89770446Y-48594890D01*
X89646690Y-48569477D01*
X89517288Y-48560910D01*
X89402222Y-48567499D01*
X89300126Y-48586372D01*
X89203227Y-48615960D01*
X89114654Y-48652593D01*
X89114654Y-48965376D01*
X89166953Y-48965376D01*
X89218702Y-48924985D01*
X89292982Y-48879647D01*
X89385214Y-48844568D01*
X89437642Y-48834285D01*
X89501993Y-48830554D01*
X89574701Y-48836942D01*
X89635329Y-48854945D01*
X89686200Y-48883674D01*
X89728955Y-48923428D01*
X89771611Y-48989593D01*
X89798627Y-49072171D01*
X89808365Y-49175578D01*
X89798125Y-49282232D01*
X89770247Y-49363508D01*
X89726940Y-49425255D01*
X89667471Y-49471282D01*
X89592021Y-49500127D01*
X89495856Y-49510526D01*
X89428136Y-49506541D01*
X89370376Y-49495322D01*
X89317325Y-49477925D01*
X89277595Y-49459327D01*
X89216137Y-49418019D01*
X89166953Y-49375704D01*
X89114654Y-49375704D01*
X89114654Y-49690869D01*
X89203510Y-49727605D01*
X89296554Y-49755990D01*
X89394140Y-49773876D01*
X89506023Y-49780170D01*
G37*
G36*
X88533710Y-48566142D02*
G01*
X88665675Y-48581885D01*
X88855726Y-48618155D01*
X88855726Y-48895034D01*
X88821929Y-48895034D01*
X88673368Y-48845300D01*
X88570815Y-48820703D01*
X88478646Y-48812969D01*
X88377150Y-48817928D01*
X88302579Y-48830938D01*
X88249118Y-48849697D01*
X88206145Y-48880485D01*
X88180503Y-48923395D01*
X88171266Y-48982595D01*
X88171266Y-48988824D01*
X88332716Y-49000784D01*
X88485881Y-49017675D01*
X88630368Y-49045309D01*
X88739955Y-49083620D01*
X88805275Y-49119328D01*
X88858047Y-49161536D01*
X88899873Y-49210382D01*
X88930150Y-49266534D01*
X88949336Y-49334621D01*
X88956202Y-49417470D01*
X88948993Y-49494763D01*
X88928161Y-49562847D01*
X88893989Y-49623551D01*
X88845560Y-49678138D01*
X88787382Y-49722484D01*
X88723095Y-49754100D01*
X88651495Y-49773470D01*
X88570969Y-49780170D01*
X88502871Y-49776673D01*
X88442925Y-49766707D01*
X88385531Y-49750201D01*
X88330177Y-49727597D01*
X88247195Y-49677405D01*
X88173373Y-49623092D01*
X88173373Y-49745000D01*
X87807558Y-49745000D01*
X87807558Y-49445955D01*
X88173373Y-49445955D01*
X88219420Y-49479089D01*
X88273299Y-49505580D01*
X88330401Y-49522615D01*
X88385406Y-49528112D01*
X88450489Y-49525220D01*
X88487896Y-49518403D01*
X88518690Y-49505753D01*
X88544225Y-49488087D01*
X88564855Y-49466167D01*
X88575000Y-49444947D01*
X88581136Y-49386420D01*
X88573441Y-49336127D01*
X88551919Y-49298676D01*
X88517615Y-49270127D01*
X88467380Y-49247843D01*
X88416892Y-49235339D01*
X88335306Y-49222656D01*
X88173373Y-49205711D01*
X88173373Y-49445955D01*
X87807558Y-49445955D01*
X87807558Y-48961713D01*
X87817281Y-48860174D01*
X87844410Y-48778167D01*
X87887511Y-48711601D01*
X87947418Y-48657814D01*
X88017710Y-48619739D01*
X88112542Y-48589287D01*
X88238161Y-48568631D01*
X88401801Y-48560910D01*
X88533710Y-48566142D01*
G37*
G36*
X86633544Y-48953653D02*
G01*
X86666333Y-48953653D01*
X86742171Y-48940464D01*
X86829274Y-48936067D01*
X86905929Y-48938782D01*
X86968675Y-48946234D01*
X87029847Y-48959529D01*
X87098826Y-48980764D01*
X87098826Y-49745000D01*
X87467663Y-49745000D01*
X87467663Y-48596081D01*
X87098826Y-48596081D01*
X87098826Y-48765158D01*
X87014170Y-48698608D01*
X86944297Y-48654614D01*
X86886701Y-48628413D01*
X86797588Y-48603686D01*
X86720647Y-48596081D01*
X86676591Y-48597180D01*
X86633544Y-48600203D01*
X86633544Y-48953653D01*
G37*
G36*
X84957610Y-48638763D02*
G01*
X85093440Y-48582984D01*
X85164415Y-48567024D01*
X85262975Y-48560910D01*
X85361322Y-48571361D01*
X85461728Y-48603592D01*
X85554086Y-48655190D01*
X85630805Y-48723484D01*
X85696023Y-48811638D01*
X85747125Y-48918482D01*
X85770142Y-48995384D01*
X85784579Y-49081848D01*
X85789624Y-49179241D01*
X85780710Y-49317920D01*
X85755676Y-49435010D01*
X85716366Y-49533956D01*
X85663594Y-49617596D01*
X85594655Y-49689281D01*
X85517031Y-49739303D01*
X85428947Y-49769653D01*
X85327547Y-49780170D01*
X85223278Y-49770112D01*
X85135938Y-49741611D01*
X85053287Y-49695412D01*
X84957610Y-49625107D01*
X84957610Y-49745000D01*
X84588681Y-49745000D01*
X84588681Y-48861512D01*
X84957610Y-48861512D01*
X84957610Y-49429743D01*
X85003279Y-49457314D01*
X85057078Y-49479752D01*
X85113007Y-49494241D01*
X85163599Y-49498803D01*
X85246053Y-49489204D01*
X85306746Y-49463135D01*
X85351177Y-49421958D01*
X85381021Y-49367232D01*
X85401603Y-49287691D01*
X85409521Y-49175028D01*
X85400419Y-49069304D01*
X85375480Y-48986546D01*
X85336797Y-48921871D01*
X85297233Y-48882969D01*
X85249005Y-48854740D01*
X85190304Y-48836925D01*
X85118536Y-48830554D01*
X85039584Y-48837790D01*
X84957610Y-48861512D01*
X84588681Y-48861512D01*
X84588681Y-48150582D01*
X84957610Y-48150582D01*
X84957610Y-48638763D01*
G37*
G36*
X83870424Y-49745000D02*
G01*
X84239262Y-49745000D01*
X84239262Y-48596081D01*
X83870424Y-48596081D01*
X83870424Y-49745000D01*
G37*
G36*
X83860166Y-48431950D02*
G01*
X84249520Y-48431950D01*
X84249520Y-48150582D01*
X83860166Y-48150582D01*
X83860166Y-48431950D01*
G37*
G36*
X82301286Y-49745000D02*
G01*
X82730573Y-49745000D01*
X83053340Y-49244729D01*
X83153816Y-49366454D01*
X83153816Y-49745000D01*
X83522653Y-49745000D01*
X83522653Y-48150582D01*
X83153816Y-48150582D01*
X83153816Y-49103496D01*
X82756219Y-48596081D01*
X82330962Y-48596081D01*
X82744953Y-49091222D01*
X82301286Y-49745000D01*
G37*
G36*
X81745512Y-49745000D02*
G01*
X82114349Y-49745000D01*
X82114349Y-48596081D01*
X81745512Y-48596081D01*
X81745512Y-49745000D01*
G37*
G36*
X81735253Y-48431950D02*
G01*
X82124607Y-48431950D01*
X82124607Y-48150582D01*
X81735253Y-48150582D01*
X81735253Y-48431950D01*
G37*
G36*
X80563620Y-48953653D02*
G01*
X80596410Y-48953653D01*
X80672247Y-48940464D01*
X80759351Y-48936067D01*
X80836006Y-48938782D01*
X80898752Y-48946234D01*
X80959924Y-48959529D01*
X81028903Y-48980764D01*
X81028903Y-49745000D01*
X81397740Y-49745000D01*
X81397740Y-48596081D01*
X81028903Y-48596081D01*
X81028903Y-48765158D01*
X80944247Y-48698608D01*
X80874374Y-48654614D01*
X80816778Y-48628413D01*
X80727665Y-48603686D01*
X80650724Y-48596081D01*
X80606668Y-48597180D01*
X80563620Y-48600203D01*
X80563620Y-48953653D01*
G37*
G36*
X79985498Y-49745000D02*
G01*
X80354335Y-49745000D01*
X80354335Y-48596081D01*
X79985498Y-48596081D01*
X79985498Y-49745000D01*
G37*
G36*
X79975239Y-48431950D02*
G01*
X80364593Y-48431950D01*
X80364593Y-48150582D01*
X79975239Y-48150582D01*
X79975239Y-48431950D01*
G37*
G36*
X78512622Y-48928557D02*
G01*
X78512622Y-49745000D01*
X78883565Y-49745000D01*
X78883565Y-49169624D01*
X78887687Y-49026559D01*
X78895922Y-48970836D01*
X78910218Y-48930663D01*
X78933402Y-48898733D01*
X78966089Y-48876808D01*
X79007576Y-48864682D01*
X79071144Y-48859863D01*
X79124511Y-48865347D01*
X79176657Y-48881937D01*
X79268889Y-48928557D01*
X79268889Y-49745000D01*
X79637726Y-49745000D01*
X79637726Y-48596081D01*
X79268889Y-48596081D01*
X79268889Y-48719912D01*
X79172896Y-48651481D01*
X79086440Y-48602950D01*
X78995763Y-48571646D01*
X78893824Y-48560910D01*
X78819375Y-48566815D01*
X78752883Y-48583897D01*
X78692964Y-48611743D01*
X78639687Y-48650367D01*
X78594414Y-48699670D01*
X78556677Y-48761037D01*
X78444618Y-48675637D01*
X78341530Y-48614308D01*
X78270390Y-48583985D01*
X78202370Y-48566565D01*
X78136549Y-48560910D01*
X78044215Y-48568727D01*
X77968159Y-48590611D01*
X77905259Y-48625242D01*
X77853258Y-48672743D01*
X77813127Y-48730702D01*
X77782942Y-48801807D01*
X77763469Y-48888778D01*
X77756446Y-48994960D01*
X77756446Y-49745000D01*
X78127390Y-49745000D01*
X78127390Y-49169624D01*
X78130962Y-49026010D01*
X78138779Y-48970785D01*
X78153035Y-48930663D01*
X78175505Y-48898804D01*
X78208356Y-48876808D01*
X78250427Y-48864683D01*
X78314877Y-48859863D01*
X78360352Y-48863832D01*
X78405002Y-48875800D01*
X78512622Y-48928557D01*
G37*
G36*
X75336701Y-48220924D02*
G01*
X75899254Y-49155428D01*
X75899254Y-49745000D01*
X76292729Y-49745000D01*
X76292729Y-49173838D01*
X76864440Y-48220924D01*
X76417659Y-48220924D01*
X76087748Y-48810496D01*
X75769103Y-48220924D01*
X75336701Y-48220924D01*
G37*
G36*
X74817032Y-48566142D02*
G01*
X74948996Y-48581885D01*
X75139048Y-48618155D01*
X75139048Y-48895034D01*
X75105251Y-48895034D01*
X74956690Y-48845300D01*
X74854137Y-48820703D01*
X74761967Y-48812969D01*
X74660471Y-48817928D01*
X74585901Y-48830938D01*
X74532440Y-48849697D01*
X74489467Y-48880485D01*
X74463825Y-48923395D01*
X74454588Y-48982595D01*
X74454588Y-48988824D01*
X74616038Y-49000784D01*
X74769203Y-49017675D01*
X74913690Y-49045309D01*
X75023277Y-49083620D01*
X75088596Y-49119328D01*
X75141368Y-49161536D01*
X75183195Y-49210382D01*
X75213472Y-49266534D01*
X75232658Y-49334621D01*
X75239523Y-49417470D01*
X75232315Y-49494763D01*
X75211483Y-49562847D01*
X75177311Y-49623551D01*
X75128881Y-49678138D01*
X75070703Y-49722484D01*
X75006417Y-49754100D01*
X74934817Y-49773470D01*
X74854291Y-49780170D01*
X74786193Y-49776673D01*
X74726247Y-49766707D01*
X74668853Y-49750201D01*
X74613498Y-49727597D01*
X74530517Y-49677405D01*
X74456694Y-49623092D01*
X74456694Y-49745000D01*
X74090880Y-49745000D01*
X74090880Y-49445955D01*
X74456694Y-49445955D01*
X74502742Y-49479089D01*
X74556620Y-49505580D01*
X74613722Y-49522615D01*
X74668728Y-49528112D01*
X74733811Y-49525220D01*
X74771218Y-49518403D01*
X74802012Y-49505753D01*
X74827547Y-49488087D01*
X74848176Y-49466167D01*
X74858321Y-49444947D01*
X74864458Y-49386420D01*
X74856762Y-49336127D01*
X74835240Y-49298676D01*
X74800936Y-49270127D01*
X74750702Y-49247843D01*
X74700213Y-49235339D01*
X74618627Y-49222656D01*
X74456694Y-49205711D01*
X74456694Y-49445955D01*
X74090880Y-49445955D01*
X74090880Y-48961713D01*
X74100603Y-48860174D01*
X74127732Y-48778167D01*
X74170833Y-48711601D01*
X74230739Y-48657814D01*
X74301032Y-48619739D01*
X74395864Y-48589287D01*
X74521483Y-48568631D01*
X74685122Y-48560910D01*
X74817032Y-48566142D01*
G37*
G36*
X73183945Y-49745000D02*
G01*
X72787447Y-49745000D01*
X72681934Y-49434323D01*
X72116268Y-49434323D01*
X72010755Y-49745000D01*
X71603907Y-49745000D01*
X71820661Y-49158817D01*
X72211614Y-49158817D01*
X72586588Y-49158817D01*
X72399101Y-48611468D01*
X72211614Y-49158817D01*
X71820661Y-49158817D01*
X72167467Y-48220924D01*
X72620385Y-48220924D01*
X73183945Y-49745000D01*
G37*
G36*
X71035951Y-49745000D02*
G01*
X71404788Y-49745000D01*
X71404788Y-48150582D01*
X71035951Y-48150582D01*
X71035951Y-49745000D01*
G37*
G36*
X70319343Y-49745000D02*
G01*
X70688180Y-49745000D01*
X70688180Y-48150582D01*
X70319343Y-48150582D01*
X70319343Y-49745000D01*
G37*
G36*
X69635176Y-48566142D02*
G01*
X69767140Y-48581885D01*
X69957192Y-48618155D01*
X69957192Y-48895034D01*
X69923394Y-48895034D01*
X69774834Y-48845300D01*
X69672280Y-48820703D01*
X69580111Y-48812969D01*
X69478615Y-48817928D01*
X69404045Y-48830938D01*
X69350584Y-48849697D01*
X69307611Y-48880485D01*
X69281969Y-48923395D01*
X69272732Y-48982595D01*
X69272732Y-48988824D01*
X69434181Y-49000784D01*
X69587347Y-49017675D01*
X69731833Y-49045309D01*
X69841420Y-49083620D01*
X69906740Y-49119328D01*
X69959512Y-49161536D01*
X70001338Y-49210382D01*
X70031616Y-49266534D01*
X70050802Y-49334621D01*
X70057667Y-49417470D01*
X70050459Y-49494763D01*
X70029626Y-49562847D01*
X69995455Y-49623551D01*
X69947025Y-49678138D01*
X69888847Y-49722484D01*
X69824560Y-49754100D01*
X69752961Y-49773470D01*
X69672435Y-49780170D01*
X69604336Y-49776673D01*
X69544391Y-49766707D01*
X69486997Y-49750201D01*
X69431642Y-49727597D01*
X69348661Y-49677405D01*
X69274838Y-49623092D01*
X69274838Y-49745000D01*
X68909023Y-49745000D01*
X68909023Y-49445955D01*
X69274838Y-49445955D01*
X69320885Y-49479089D01*
X69374764Y-49505580D01*
X69431866Y-49522615D01*
X69486871Y-49528112D01*
X69551955Y-49525220D01*
X69589362Y-49518403D01*
X69620155Y-49505753D01*
X69645690Y-49488087D01*
X69666320Y-49466167D01*
X69676465Y-49444947D01*
X69682602Y-49386420D01*
X69674906Y-49336127D01*
X69653384Y-49298676D01*
X69619080Y-49270127D01*
X69568845Y-49247843D01*
X69518357Y-49235339D01*
X69436771Y-49222656D01*
X69274838Y-49205711D01*
X69274838Y-49445955D01*
X68909023Y-49445955D01*
X68909023Y-48961713D01*
X68918747Y-48860174D01*
X68945875Y-48778167D01*
X68988977Y-48711601D01*
X69048883Y-48657814D01*
X69119176Y-48619739D01*
X69214008Y-48589287D01*
X69339627Y-48568631D01*
X69503266Y-48560910D01*
X69635176Y-48566142D01*
G37*
G36*
X67413341Y-49745000D02*
G01*
X67784193Y-49745000D01*
X67784193Y-49173746D01*
X67791429Y-49034711D01*
X67802175Y-48970406D01*
X67815976Y-48932678D01*
X67841229Y-48899891D01*
X67875968Y-48877357D01*
X67919595Y-48864831D01*
X67986060Y-48859863D01*
X68036235Y-48863886D01*
X68088093Y-48876258D01*
X68140106Y-48896644D01*
X68200292Y-48928557D01*
X68200292Y-49745000D01*
X68569129Y-49745000D01*
X68569129Y-48150582D01*
X68200292Y-48150582D01*
X68200292Y-48719912D01*
X68101044Y-48650210D01*
X68011248Y-48601943D01*
X67916891Y-48571437D01*
X67809931Y-48560910D01*
X67717495Y-48568427D01*
X67639764Y-48589631D01*
X67574061Y-48623373D01*
X67518396Y-48669720D01*
X67474867Y-48726696D01*
X67442161Y-48797720D01*
X67421007Y-48885852D01*
X67413341Y-48994960D01*
X67413341Y-49745000D01*
G37*
D11*
X57333333Y-101834819D02*
X57333333Y-102549104D01*
X57333333Y-102549104D02*
X57380952Y-102691961D01*
X57380952Y-102691961D02*
X57476190Y-102787200D01*
X57476190Y-102787200D02*
X57619047Y-102834819D01*
X57619047Y-102834819D02*
X57714285Y-102834819D01*
X56428571Y-102168152D02*
X56428571Y-102834819D01*
X56666666Y-101787200D02*
X56904761Y-102501485D01*
X56904761Y-102501485D02*
X56285714Y-102501485D01*
X96925199Y-72268990D02*
X97068056Y-72221371D01*
X97068056Y-72221371D02*
X97115675Y-72173752D01*
X97115675Y-72173752D02*
X97163294Y-72078514D01*
X97163294Y-72078514D02*
X97163294Y-71935657D01*
X97163294Y-71935657D02*
X97115675Y-71840419D01*
X97115675Y-71840419D02*
X97068056Y-71792800D01*
X97068056Y-71792800D02*
X96972818Y-71745180D01*
X96972818Y-71745180D02*
X96591866Y-71745180D01*
X96591866Y-71745180D02*
X96591866Y-72745180D01*
X96591866Y-72745180D02*
X96925199Y-72745180D01*
X96925199Y-72745180D02*
X97020437Y-72697561D01*
X97020437Y-72697561D02*
X97068056Y-72649942D01*
X97068056Y-72649942D02*
X97115675Y-72554704D01*
X97115675Y-72554704D02*
X97115675Y-72459466D01*
X97115675Y-72459466D02*
X97068056Y-72364228D01*
X97068056Y-72364228D02*
X97020437Y-72316609D01*
X97020437Y-72316609D02*
X96925199Y-72268990D01*
X96925199Y-72268990D02*
X96591866Y-72268990D01*
X97449009Y-72745180D02*
X98020437Y-72745180D01*
X97734723Y-71745180D02*
X97734723Y-72745180D01*
X98877580Y-71745180D02*
X98306152Y-71745180D01*
X98591866Y-71745180D02*
X98591866Y-72745180D01*
X98591866Y-72745180D02*
X98496628Y-72602323D01*
X98496628Y-72602323D02*
X98401390Y-72507085D01*
X98401390Y-72507085D02*
X98306152Y-72459466D01*
D12*
%TO.C,J4*%
X55620000Y-60520000D02*
X58380000Y-60520000D01*
X55620000Y-98730000D02*
X55620000Y-60520000D01*
X55620000Y-98730000D02*
X58380000Y-98730000D01*
X55620000Y-100000000D02*
X55620000Y-101380000D01*
X55620000Y-101380000D02*
X57000000Y-101380000D01*
X58380000Y-98730000D02*
X58380000Y-60520000D01*
%TO.C,BT1*%
X100610914Y-68000000D02*
X101610914Y-68000000D01*
X101110914Y-68500000D02*
X101110914Y-67500000D01*
X100110915Y-64900000D02*
G75*
G02*
X100110915Y-71100000I11499999J-3100000D01*
G01*
%TD*%
M02*
