%TF.GenerationSoftware,KiCad,Pcbnew,9.0.2*%
%TF.CreationDate,2025-06-04T00:32:51+07:00*%
%TF.ProjectId,Telemetry V.3 BM13 EVO Hy,54656c65-6d65-4747-9279-20562e332042,rev?*%
%TF.SameCoordinates,Original*%
%TF.FileFunction,Soldermask,Top*%
%TF.FilePolarity,Negative*%
%FSLAX46Y46*%
G04 Gerber Fmt 4.6, Leading zero omitted, Abs format (unit mm)*
G04 Created by KiCad (PCBNEW 9.0.2) date 2025-06-04 00:32:51*
%MOMM*%
%LPD*%
G01*
G04 APERTURE LIST*
G04 Aperture macros list*
%AMRoundRect*
0 Rectangle with rounded corners*
0 $1 Rounding radius*
0 $2 $3 $4 $5 $6 $7 $8 $9 X,Y pos of 4 corners*
0 Add a 4 corners polygon primitive as box body*
4,1,4,$2,$3,$4,$5,$6,$7,$8,$9,$2,$3,0*
0 Add four circle primitives for the rounded corners*
1,1,$1+$1,$2,$3*
1,1,$1+$1,$4,$5*
1,1,$1+$1,$6,$7*
1,1,$1+$1,$8,$9*
0 Add four rect primitives between the rounded corners*
20,1,$1+$1,$2,$3,$4,$5,0*
20,1,$1+$1,$4,$5,$6,$7,0*
20,1,$1+$1,$6,$7,$8,$9,0*
20,1,$1+$1,$8,$9,$2,$3,0*%
G04 Aperture macros list end*
%ADD10C,0.800000*%
%ADD11C,6.400000*%
%ADD12R,0.800000X0.500000*%
%ADD13R,0.800000X0.400000*%
%ADD14RoundRect,0.237500X0.300000X0.237500X-0.300000X0.237500X-0.300000X-0.237500X0.300000X-0.237500X0*%
%ADD15RoundRect,0.237500X-0.237500X0.250000X-0.237500X-0.250000X0.237500X-0.250000X0.237500X0.250000X0*%
%ADD16R,1.404099X0.354800*%
%ADD17C,1.000000*%
%ADD18RoundRect,0.102000X0.800000X-0.350000X0.800000X0.350000X-0.800000X0.350000X-0.800000X-0.350000X0*%
%ADD19RoundRect,0.102000X0.900000X-0.600000X0.900000X0.600000X-0.900000X0.600000X-0.900000X-0.600000X0*%
%ADD20RoundRect,0.102000X0.750000X-0.800000X0.750000X0.800000X-0.750000X0.800000X-0.750000X-0.800000X0*%
%ADD21RoundRect,0.102000X1.100000X-0.600000X1.100000X0.600000X-1.100000X0.600000X-1.100000X-0.600000X0*%
%ADD22RoundRect,0.237500X0.237500X-0.287500X0.237500X0.287500X-0.237500X0.287500X-0.237500X-0.287500X0*%
%ADD23RoundRect,0.237500X0.250000X0.237500X-0.250000X0.237500X-0.250000X-0.237500X0.250000X-0.237500X0*%
%ADD24RoundRect,0.099250X1.027750X0.297750X-1.027750X0.297750X-1.027750X-0.297750X1.027750X-0.297750X0*%
%ADD25RoundRect,0.237500X-0.250000X-0.237500X0.250000X-0.237500X0.250000X0.237500X-0.250000X0.237500X0*%
%ADD26RoundRect,0.237500X0.237500X-0.250000X0.237500X0.250000X-0.237500X0.250000X-0.237500X-0.250000X0*%
%ADD27RoundRect,0.102000X1.000000X1.000000X-1.000000X1.000000X-1.000000X-1.000000X1.000000X-1.000000X0*%
%ADD28C,2.204000*%
%ADD29RoundRect,0.237500X-0.300000X-0.237500X0.300000X-0.237500X0.300000X0.237500X-0.300000X0.237500X0*%
%ADD30O,2.000000X1.500000*%
%ADD31R,2.000000X1.500000*%
%ADD32R,1.700000X1.700000*%
%ADD33O,1.700000X1.700000*%
%ADD34C,1.700000*%
%ADD35R,2.000000X2.000000*%
%ADD36C,2.000000*%
G04 APERTURE END LIST*
D10*
%TO.C,REF\u002A\u002A*%
X54600000Y-52000000D03*
X55302944Y-50302944D03*
X55302944Y-53697056D03*
X57000000Y-49600000D03*
D11*
X57000000Y-52000000D03*
D10*
X57000000Y-54400000D03*
X58697056Y-50302944D03*
X58697056Y-53697056D03*
X59400000Y-52000000D03*
%TD*%
D12*
%TO.C,RN1*%
X97850000Y-73800000D03*
D13*
X97850000Y-74600000D03*
X97850000Y-75400000D03*
D12*
X97850000Y-76200000D03*
X99650000Y-76200000D03*
D13*
X99650000Y-75400000D03*
X99650000Y-74600000D03*
D12*
X99650000Y-73800000D03*
%TD*%
D14*
%TO.C,C1*%
X111612500Y-80500000D03*
X109887500Y-80500000D03*
%TD*%
D15*
%TO.C,R6*%
X101000000Y-54875000D03*
X101000000Y-56700000D03*
%TD*%
D10*
%TO.C,REF\u002A\u002A*%
X124100000Y-108000000D03*
X124802944Y-106302944D03*
X124802944Y-109697056D03*
X126500000Y-105600000D03*
D11*
X126500000Y-108000000D03*
D10*
X126500000Y-110400000D03*
X128197056Y-106302944D03*
X128197056Y-109697056D03*
X128900000Y-108000000D03*
%TD*%
D16*
%TO.C,U2*%
X100850104Y-80299999D03*
X100850104Y-80950000D03*
X100850104Y-81600001D03*
X100850104Y-82250000D03*
X100850104Y-82899999D03*
X100850104Y-83550000D03*
X100850104Y-84199999D03*
X106750000Y-84200001D03*
X106750000Y-83550000D03*
X106750000Y-82900001D03*
X106750000Y-82250000D03*
X106750000Y-81600001D03*
X106750000Y-80950000D03*
X106750000Y-80300001D03*
%TD*%
D17*
%TO.C,J1*%
X129000000Y-82950000D03*
X129000000Y-74950000D03*
D18*
X118000000Y-75750000D03*
X118000000Y-76850000D03*
X118000000Y-77950000D03*
X118000000Y-79050000D03*
X118000000Y-80150000D03*
X118000000Y-81250000D03*
X118000000Y-82350000D03*
X118000000Y-83450000D03*
X118000000Y-84550000D03*
D19*
X119300000Y-85750000D03*
D20*
X119050000Y-71150000D03*
D21*
X128600000Y-85750000D03*
X128600000Y-70250000D03*
%TD*%
D10*
%TO.C,REF\u002A\u002A*%
X124100000Y-52000000D03*
X124802944Y-50302944D03*
X124802944Y-53697056D03*
X126500000Y-49600000D03*
D11*
X126500000Y-52000000D03*
D10*
X126500000Y-54400000D03*
X128197056Y-50302944D03*
X128197056Y-53697056D03*
X128900000Y-52000000D03*
%TD*%
D22*
%TO.C,D3*%
X104000000Y-60200000D03*
X104000000Y-58450000D03*
%TD*%
D23*
%TO.C,R4*%
X97912500Y-84000000D03*
X96087500Y-84000000D03*
%TD*%
D24*
%TO.C,U3*%
X111655000Y-73445000D03*
X111655000Y-72175000D03*
X111655000Y-70905000D03*
X111655000Y-69635000D03*
X111655000Y-68365000D03*
X111655000Y-67095000D03*
X111655000Y-65825000D03*
X111655000Y-64555000D03*
X102345000Y-64555000D03*
X102345000Y-65825000D03*
X102345000Y-67095000D03*
X102345000Y-68365000D03*
X102345000Y-69635000D03*
X102345000Y-70905000D03*
X102345000Y-72175000D03*
X102345000Y-73445000D03*
%TD*%
D14*
%TO.C,C3*%
X115862500Y-72250000D03*
X114137500Y-72250000D03*
%TD*%
D25*
%TO.C,R1*%
X96087500Y-82500000D03*
X97912500Y-82500000D03*
%TD*%
%TO.C,R2*%
X96087500Y-81000000D03*
X97912500Y-81000000D03*
%TD*%
%TO.C,R3*%
X109837500Y-82000000D03*
X111662500Y-82000000D03*
%TD*%
D26*
%TO.C,R7*%
X104000000Y-56775000D03*
X104000000Y-54950000D03*
%TD*%
D27*
%TO.C,U1*%
X88200000Y-95265000D03*
D28*
X88200000Y-92725000D03*
X88200000Y-90185000D03*
X88200000Y-87645000D03*
X88200000Y-85105000D03*
X88200000Y-82565000D03*
X88200000Y-80025000D03*
X88200000Y-77485000D03*
X88200000Y-74945000D03*
X88200000Y-72405000D03*
X88200000Y-69865000D03*
X88200000Y-67325000D03*
X88200000Y-64785000D03*
X88200000Y-62245000D03*
X88200000Y-59705000D03*
X62800000Y-59705000D03*
X62800000Y-62245000D03*
X62800000Y-64785000D03*
X62800000Y-67325000D03*
X62800000Y-69865000D03*
X62800000Y-72405000D03*
X62800000Y-74945000D03*
X62800000Y-77485000D03*
X62800000Y-80025000D03*
X62800000Y-82565000D03*
X62800000Y-85105000D03*
X62800000Y-87645000D03*
X62800000Y-90185000D03*
X62800000Y-92725000D03*
X62800000Y-95265000D03*
%TD*%
D15*
%TO.C,R5*%
X98000000Y-54875000D03*
X98000000Y-56700000D03*
%TD*%
D29*
%TO.C,C2*%
X113637500Y-75500000D03*
X115362500Y-75500000D03*
%TD*%
D10*
%TO.C,REF\u002A\u002A*%
X54600000Y-108000000D03*
X55302944Y-106302944D03*
X55302944Y-109697056D03*
X57000000Y-105600000D03*
D11*
X57000000Y-108000000D03*
D10*
X57000000Y-110400000D03*
X58697056Y-106302944D03*
X58697056Y-109697056D03*
X59400000Y-108000000D03*
%TD*%
D30*
%TO.C,LoraE220-900T22D1*%
X100000000Y-90750000D03*
X100000000Y-93290000D03*
X100000000Y-95830000D03*
X100000000Y-98370000D03*
X100000000Y-100910000D03*
X100000000Y-103450000D03*
X100000000Y-105990000D03*
X131500000Y-96750000D03*
X131500000Y-94210000D03*
D31*
X131500000Y-91670000D03*
%TD*%
D22*
%TO.C,D2*%
X101000000Y-60200000D03*
X101000000Y-58450000D03*
%TD*%
D32*
%TO.C,J2*%
X129750000Y-66775000D03*
D33*
X129750000Y-64235000D03*
%TD*%
D14*
%TO.C,C4*%
X99612500Y-71000000D03*
X97887500Y-71000000D03*
%TD*%
D22*
%TO.C,D1*%
X98000000Y-60200000D03*
X98000000Y-58450000D03*
%TD*%
D32*
%TO.C,J4*%
X57000000Y-100000000D03*
D34*
X57000000Y-97460000D03*
X57000000Y-94920000D03*
X57000000Y-92380000D03*
X57000000Y-89840000D03*
X57000000Y-87300000D03*
X57000000Y-84760000D03*
X57000000Y-82220000D03*
X57000000Y-79680000D03*
X57000000Y-77140000D03*
X57000000Y-74600000D03*
X57000000Y-72060000D03*
X57000000Y-69520000D03*
X57000000Y-66980000D03*
X57000000Y-64440000D03*
X57000000Y-61900000D03*
%TD*%
D35*
%TO.C,BT1*%
X99210914Y-68000000D03*
D36*
X120010914Y-68000000D03*
%TD*%
M02*
