%TF.GenerationSoftware,KiCad,Pcbnew,9.0.2*%
%TF.CreationDate,2025-06-04T20:10:01+07:00*%
%TF.ProjectId,Telemetry V.3 BM13 EVO Hy,54656c65-6d65-4747-9279-20562e332042,rev?*%
%TF.SameCoordinates,Original*%
%TF.FileFunction,Paste,Top*%
%TF.FilePolarity,Positive*%
%FSLAX46Y46*%
G04 Gerber Fmt 4.6, Leading zero omitted, Abs format (unit mm)*
G04 Created by KiCad (PCBNEW 9.0.2) date 2025-06-04 20:10:01*
%MOMM*%
%LPD*%
G01*
G04 APERTURE LIST*
G04 Aperture macros list*
%AMRoundRect*
0 Rectangle with rounded corners*
0 $1 Rounding radius*
0 $2 $3 $4 $5 $6 $7 $8 $9 X,Y pos of 4 corners*
0 Add a 4 corners polygon primitive as box body*
4,1,4,$2,$3,$4,$5,$6,$7,$8,$9,$2,$3,0*
0 Add four circle primitives for the rounded corners*
1,1,$1+$1,$2,$3*
1,1,$1+$1,$4,$5*
1,1,$1+$1,$6,$7*
1,1,$1+$1,$8,$9*
0 Add four rect primitives between the rounded corners*
20,1,$1+$1,$2,$3,$4,$5,0*
20,1,$1+$1,$4,$5,$6,$7,0*
20,1,$1+$1,$6,$7,$8,$9,0*
20,1,$1+$1,$8,$9,$2,$3,0*%
G04 Aperture macros list end*
%ADD10R,0.800000X0.500000*%
%ADD11R,0.800000X0.400000*%
%ADD12RoundRect,0.237500X0.300000X0.237500X-0.300000X0.237500X-0.300000X-0.237500X0.300000X-0.237500X0*%
%ADD13RoundRect,0.237500X-0.237500X0.250000X-0.237500X-0.250000X0.237500X-0.250000X0.237500X0.250000X0*%
%ADD14R,1.404099X0.354800*%
%ADD15R,1.600000X0.700000*%
%ADD16R,1.800000X1.200000*%
%ADD17R,1.500000X1.600000*%
%ADD18R,2.200000X1.200000*%
%ADD19RoundRect,0.237500X0.237500X-0.287500X0.237500X0.287500X-0.237500X0.287500X-0.237500X-0.287500X0*%
%ADD20RoundRect,0.237500X0.250000X0.237500X-0.250000X0.237500X-0.250000X-0.237500X0.250000X-0.237500X0*%
%ADD21RoundRect,0.073750X0.951250X0.221250X-0.951250X0.221250X-0.951250X-0.221250X0.951250X-0.221250X0*%
%ADD22RoundRect,0.237500X-0.250000X-0.237500X0.250000X-0.237500X0.250000X0.237500X-0.250000X0.237500X0*%
%ADD23RoundRect,0.237500X0.237500X-0.250000X0.237500X0.250000X-0.237500X0.250000X-0.237500X-0.250000X0*%
%ADD24RoundRect,0.237500X-0.300000X-0.237500X0.300000X-0.237500X0.300000X0.237500X-0.300000X0.237500X0*%
G04 APERTURE END LIST*
D10*
%TO.C,RN1*%
X97850000Y-73800000D03*
D11*
X97850000Y-74600000D03*
X97850000Y-75400000D03*
D10*
X97850000Y-76200000D03*
X99650000Y-76200000D03*
D11*
X99650000Y-75400000D03*
X99650000Y-74600000D03*
D10*
X99650000Y-73800000D03*
%TD*%
D12*
%TO.C,C1*%
X111612500Y-80500000D03*
X109887500Y-80500000D03*
%TD*%
D13*
%TO.C,R6*%
X101000000Y-54875000D03*
X101000000Y-56700000D03*
%TD*%
D14*
%TO.C,U2*%
X100850104Y-80299999D03*
X100850104Y-80950000D03*
X100850104Y-81600001D03*
X100850104Y-82250000D03*
X100850104Y-82899999D03*
X100850104Y-83550000D03*
X100850104Y-84199999D03*
X106750000Y-84200001D03*
X106750000Y-83550000D03*
X106750000Y-82900001D03*
X106750000Y-82250000D03*
X106750000Y-81600001D03*
X106750000Y-80950000D03*
X106750000Y-80300001D03*
%TD*%
D15*
%TO.C,J1*%
X118000000Y-75750000D03*
X118000000Y-76850000D03*
X118000000Y-77950000D03*
X118000000Y-79050000D03*
X118000000Y-80150000D03*
X118000000Y-81250000D03*
X118000000Y-82350000D03*
X118000000Y-83450000D03*
X118000000Y-84550000D03*
D16*
X119300000Y-85750000D03*
D17*
X119050000Y-71150000D03*
D18*
X128600000Y-85750000D03*
X128600000Y-70250000D03*
%TD*%
D19*
%TO.C,D3*%
X104000000Y-60200000D03*
X104000000Y-58450000D03*
%TD*%
D20*
%TO.C,R4*%
X97912500Y-84000000D03*
X96087500Y-84000000D03*
%TD*%
D21*
%TO.C,U3*%
X111655000Y-73445000D03*
X111655000Y-72175000D03*
X111655000Y-70905000D03*
X111655000Y-69635000D03*
X111655000Y-68365000D03*
X111655000Y-67095000D03*
X111655000Y-65825000D03*
X111655000Y-64555000D03*
X102345000Y-64555000D03*
X102345000Y-65825000D03*
X102345000Y-67095000D03*
X102345000Y-68365000D03*
X102345000Y-69635000D03*
X102345000Y-70905000D03*
X102345000Y-72175000D03*
X102345000Y-73445000D03*
%TD*%
D12*
%TO.C,C3*%
X115862500Y-72250000D03*
X114137500Y-72250000D03*
%TD*%
D22*
%TO.C,R1*%
X96087500Y-82500000D03*
X97912500Y-82500000D03*
%TD*%
%TO.C,R2*%
X96087500Y-81000000D03*
X97912500Y-81000000D03*
%TD*%
%TO.C,R3*%
X109837500Y-82000000D03*
X111662500Y-82000000D03*
%TD*%
D23*
%TO.C,R7*%
X104000000Y-56775000D03*
X104000000Y-54950000D03*
%TD*%
D13*
%TO.C,R5*%
X98000000Y-54875000D03*
X98000000Y-56700000D03*
%TD*%
D24*
%TO.C,C2*%
X113637500Y-75500000D03*
X115362500Y-75500000D03*
%TD*%
D19*
%TO.C,D2*%
X101000000Y-60200000D03*
X101000000Y-58450000D03*
%TD*%
D12*
%TO.C,C4*%
X99612500Y-71000000D03*
X97887500Y-71000000D03*
%TD*%
D19*
%TO.C,D1*%
X98000000Y-60200000D03*
X98000000Y-58450000D03*
%TD*%
M02*
