%TF.GenerationSoftware,KiCad,Pcbnew,9.0.2*%
%TF.CreationDate,2025-06-04T20:10:03+07:00*%
%TF.ProjectId,Telemetry V.3 BM13 EVO Hy,54656c65-6d65-4747-9279-20562e332042,rev?*%
%TF.SameCoordinates,Original*%
%TF.FileFunction,Plated,1,2,PTH,Drill*%
%TF.FilePolarity,Positive*%
%FSLAX46Y46*%
G04 Gerber Fmt 4.6, Leading zero omitted, Abs format (unit mm)*
G04 Created by KiCad (PCBNEW 9.0.2) date 2025-06-04 20:10:03*
%MOMM*%
%LPD*%
G01*
G04 APERTURE LIST*
%TA.AperFunction,ViaDrill*%
%ADD10C,0.250000*%
%TD*%
%TA.AperFunction,ViaDrill*%
%ADD11C,0.300000*%
%TD*%
%TA.AperFunction,ComponentDrill*%
%ADD12C,0.500000*%
%TD*%
%TA.AperFunction,ComponentDrill*%
%ADD13C,0.900000*%
%TD*%
%TA.AperFunction,ComponentDrill*%
%ADD14C,1.000000*%
%TD*%
%TA.AperFunction,ComponentDrill*%
%ADD15C,1.020000*%
%TD*%
%TA.AperFunction,ComponentDrill*%
%ADD16C,1.500000*%
%TD*%
%TA.AperFunction,ComponentDrill*%
%ADD17C,3.200000*%
%TD*%
G04 APERTURE END LIST*
D10*
X91250000Y-73250000D03*
X92000000Y-73250000D03*
X92000000Y-74000000D03*
X92750000Y-73250000D03*
X92750000Y-74000000D03*
X92750000Y-74750000D03*
X95250000Y-73250000D03*
X95250000Y-74000000D03*
X95250000Y-74750000D03*
X96000000Y-73250000D03*
X96000000Y-74000000D03*
X105500000Y-81000000D03*
X105500000Y-81750000D03*
X105500000Y-82500000D03*
X113000000Y-80500000D03*
X113000000Y-81250000D03*
X113750000Y-80500000D03*
X113750000Y-81250000D03*
X114500000Y-80500000D03*
X114500000Y-81250000D03*
X115250000Y-80500000D03*
X115250000Y-81250000D03*
X116000000Y-81250000D03*
X119250000Y-79750000D03*
D11*
X90250000Y-61500000D03*
X90250000Y-64000000D03*
X91250000Y-61500000D03*
X91250000Y-64000000D03*
X92250000Y-61500000D03*
X92250000Y-64000000D03*
X94000000Y-79000000D03*
X97000000Y-75000000D03*
X98000000Y-61500000D03*
X98000000Y-79000000D03*
X99000000Y-80000000D03*
X99000000Y-82000000D03*
X101000000Y-61545000D03*
X104000000Y-53000000D03*
X104000000Y-61500000D03*
X104000000Y-78250000D03*
X108500000Y-84500000D03*
X109000000Y-83000000D03*
X110500000Y-75500000D03*
X112500000Y-76000000D03*
X112600000Y-53000000D03*
X112600000Y-53800000D03*
X112600000Y-54600000D03*
X112600000Y-55400000D03*
X113400000Y-53000000D03*
X113400000Y-53800000D03*
X113400000Y-54600000D03*
X113400000Y-55400000D03*
X113500000Y-79500000D03*
X114000000Y-71000000D03*
X114200000Y-53000000D03*
X114200000Y-53800000D03*
X114200000Y-54600000D03*
X114200000Y-55400000D03*
X115000000Y-53000000D03*
X115000000Y-53800000D03*
X115000000Y-54600000D03*
X115000000Y-55400000D03*
X115800000Y-53000000D03*
X115800000Y-53800000D03*
X115800000Y-54600000D03*
X115800000Y-55400000D03*
X116600000Y-53000000D03*
X116600000Y-53800000D03*
X116600000Y-54600000D03*
X116600000Y-55400000D03*
X117400000Y-53000000D03*
X117400000Y-53800000D03*
X117400000Y-54600000D03*
X117400000Y-55400000D03*
X118200000Y-53000000D03*
X118200000Y-53800000D03*
X118200000Y-54600000D03*
X118200000Y-55400000D03*
D12*
%TO.C,REF\u002A\u002A*%
X54600000Y-52000000D03*
X54600000Y-108000000D03*
X55302944Y-50302944D03*
X55302944Y-53697056D03*
X55302944Y-106302944D03*
X55302944Y-109697056D03*
X57000000Y-49600000D03*
X57000000Y-54400000D03*
X57000000Y-105600000D03*
X57000000Y-110400000D03*
X58697056Y-50302944D03*
X58697056Y-53697056D03*
X58697056Y-106302944D03*
X58697056Y-109697056D03*
X59400000Y-52000000D03*
X59400000Y-108000000D03*
X124100000Y-52000000D03*
X124100000Y-108000000D03*
X124802944Y-50302944D03*
X124802944Y-53697056D03*
X124802944Y-106302944D03*
X124802944Y-109697056D03*
X126500000Y-49600000D03*
X126500000Y-54400000D03*
X126500000Y-105600000D03*
X126500000Y-110400000D03*
X128197056Y-50302944D03*
X128197056Y-53697056D03*
X128197056Y-106302944D03*
X128197056Y-109697056D03*
X128900000Y-52000000D03*
X128900000Y-108000000D03*
D13*
%TO.C,LoraE220-900T22D1*%
X100000000Y-90750000D03*
X100000000Y-93290000D03*
X100000000Y-95830000D03*
X100000000Y-98370000D03*
X100000000Y-100910000D03*
X100000000Y-103450000D03*
X100000000Y-105990000D03*
X131500000Y-91670000D03*
X131500000Y-94210000D03*
X131500000Y-96750000D03*
D14*
%TO.C,J4*%
X57000000Y-61900000D03*
X57000000Y-64440000D03*
X57000000Y-66980000D03*
X57000000Y-69520000D03*
X57000000Y-72060000D03*
X57000000Y-74600000D03*
X57000000Y-77140000D03*
X57000000Y-79680000D03*
X57000000Y-82220000D03*
X57000000Y-84760000D03*
X57000000Y-87300000D03*
X57000000Y-89840000D03*
X57000000Y-92380000D03*
X57000000Y-94920000D03*
X57000000Y-97460000D03*
X57000000Y-100000000D03*
%TO.C,J2*%
X129750000Y-64235000D03*
X129750000Y-66775000D03*
D15*
%TO.C,U1*%
X62800000Y-59705000D03*
X62800000Y-62245000D03*
X62800000Y-64785000D03*
X62800000Y-67325000D03*
X62800000Y-69865000D03*
X62800000Y-72405000D03*
X62800000Y-74945000D03*
X62800000Y-77485000D03*
X62800000Y-80025000D03*
X62800000Y-82565000D03*
X62800000Y-85105000D03*
X62800000Y-87645000D03*
X62800000Y-90185000D03*
X62800000Y-92725000D03*
X62800000Y-95265000D03*
X88200000Y-59705000D03*
X88200000Y-62245000D03*
X88200000Y-64785000D03*
X88200000Y-67325000D03*
X88200000Y-69865000D03*
X88200000Y-72405000D03*
X88200000Y-74945000D03*
X88200000Y-77485000D03*
X88200000Y-80025000D03*
X88200000Y-82565000D03*
X88200000Y-85105000D03*
X88200000Y-87645000D03*
X88200000Y-90185000D03*
X88200000Y-92725000D03*
X88200000Y-95265000D03*
D16*
%TO.C,BT1*%
X99210914Y-68000000D03*
X120010914Y-68000000D03*
D17*
%TO.C,REF\u002A\u002A*%
X57000000Y-52000000D03*
X57000000Y-108000000D03*
X126500000Y-52000000D03*
X126500000Y-108000000D03*
M02*
