%TF.GenerationSoftware,KiCad,Pcbnew,9.0.2*%
%TF.CreationDate,2025-06-04T00:28:30+07:00*%
%TF.ProjectId,PDM MOTHERBOARD,50444d20-4d4f-4544-9845-52424f415244,rev?*%
%TF.SameCoordinates,Original*%
%TF.FileFunction,Soldermask,Top*%
%TF.FilePolarity,Negative*%
%FSLAX46Y46*%
G04 Gerber Fmt 4.6, Leading zero omitted, Abs format (unit mm)*
G04 Created by KiCad (PCBNEW 9.0.2) date 2025-06-04 00:28:30*
%MOMM*%
%LPD*%
G01*
G04 APERTURE LIST*
G04 Aperture macros list*
%AMRoundRect*
0 Rectangle with rounded corners*
0 $1 Rounding radius*
0 $2 $3 $4 $5 $6 $7 $8 $9 X,Y pos of 4 corners*
0 Add a 4 corners polygon primitive as box body*
4,1,4,$2,$3,$4,$5,$6,$7,$8,$9,$2,$3,0*
0 Add four circle primitives for the rounded corners*
1,1,$1+$1,$2,$3*
1,1,$1+$1,$4,$5*
1,1,$1+$1,$6,$7*
1,1,$1+$1,$8,$9*
0 Add four rect primitives between the rounded corners*
20,1,$1+$1,$2,$3,$4,$5,0*
20,1,$1+$1,$4,$5,$6,$7,0*
20,1,$1+$1,$6,$7,$8,$9,0*
20,1,$1+$1,$8,$9,$2,$3,0*%
%AMRotRect*
0 Rectangle, with rotation*
0 The origin of the aperture is its center*
0 $1 length*
0 $2 width*
0 $3 Rotation angle, in degrees counterclockwise*
0 Add horizontal line*
21,1,$1,$2,0,0,$3*%
%AMFreePoly0*
4,1,22,0.945671,0.830970,1.026777,0.776777,1.080970,0.695671,1.100000,0.600000,1.100000,-0.600000,1.080970,-0.695671,1.026777,-0.776777,0.945671,-0.830970,0.850000,-0.850000,-0.596447,-0.850000,-0.692118,-0.830970,-0.773224,-0.776777,-1.026777,-0.523224,-1.080970,-0.442118,-1.100000,-0.346447,-1.100000,0.600000,-1.080970,0.695671,-1.026777,0.776777,-0.945671,0.830970,-0.850000,0.850000,
0.850000,0.850000,0.945671,0.830970,0.945671,0.830970,$1*%
G04 Aperture macros list end*
%ADD10C,2.604000*%
%ADD11RoundRect,0.250000X0.450000X-0.350000X0.450000X0.350000X-0.450000X0.350000X-0.450000X-0.350000X0*%
%ADD12RoundRect,0.250000X-0.450000X0.325000X-0.450000X-0.325000X0.450000X-0.325000X0.450000X0.325000X0*%
%ADD13RoundRect,0.250000X0.750000X-0.600000X0.750000X0.600000X-0.750000X0.600000X-0.750000X-0.600000X0*%
%ADD14O,2.000000X1.700000*%
%ADD15C,1.300000*%
%ADD16FreePoly0,90.000000*%
%ADD17O,1.700000X2.200000*%
%ADD18R,1.700000X1.700000*%
%ADD19C,1.700000*%
%ADD20RotRect,1.700000X1.700000X95.000000*%
%ADD21RoundRect,0.250000X0.350000X0.450000X-0.350000X0.450000X-0.350000X-0.450000X0.350000X-0.450000X0*%
%ADD22RoundRect,0.150000X0.825000X0.150000X-0.825000X0.150000X-0.825000X-0.150000X0.825000X-0.150000X0*%
%ADD23RoundRect,0.250000X-0.650000X1.000000X-0.650000X-1.000000X0.650000X-1.000000X0.650000X1.000000X0*%
%ADD24C,3.600000*%
%ADD25C,5.700000*%
%ADD26RoundRect,0.250000X1.000000X0.650000X-1.000000X0.650000X-1.000000X-0.650000X1.000000X-0.650000X0*%
%ADD27RoundRect,0.250000X-1.000000X-0.650000X1.000000X-0.650000X1.000000X0.650000X-1.000000X0.650000X0*%
%ADD28RoundRect,0.250000X-0.325000X-0.450000X0.325000X-0.450000X0.325000X0.450000X-0.325000X0.450000X0*%
%ADD29RoundRect,0.250000X-1.050000X1.050000X-1.050000X-1.050000X1.050000X-1.050000X1.050000X1.050000X0*%
%ADD30C,2.600000*%
G04 APERTURE END LIST*
D10*
%TO.C,F2*%
X121404000Y-36986000D03*
X121404000Y-40386000D03*
X134874000Y-36986000D03*
X134874000Y-40386000D03*
%TD*%
%TO.C,F7*%
X121265000Y-27178000D03*
X121265000Y-30578000D03*
X134735000Y-27178000D03*
X134735000Y-30578000D03*
%TD*%
D11*
%TO.C,R2*%
X139700000Y-41370000D03*
X139700000Y-39370000D03*
%TD*%
D12*
%TO.C,D7*%
X139700000Y-45974000D03*
X139700000Y-48024000D03*
%TD*%
D13*
%TO.C,5out5*%
X143000000Y-50000000D03*
D14*
X143000000Y-47500000D03*
%TD*%
D15*
%TO.C,5out2*%
X133489930Y-82948000D03*
D16*
X132239930Y-81608000D03*
D17*
X134739930Y-81608000D03*
%TD*%
D13*
%TO.C,3v3out1*%
X143002000Y-40000000D03*
D14*
X143002000Y-37500000D03*
%TD*%
D11*
%TO.C,R1*%
X139446000Y-31464000D03*
X139446000Y-29464000D03*
%TD*%
D12*
%TO.C,D8*%
X139442076Y-54929963D03*
X139442076Y-56979963D03*
%TD*%
D11*
%TO.C,R5*%
X139700000Y-69310000D03*
X139700000Y-67310000D03*
%TD*%
%TO.C,R4*%
X139446000Y-60706000D03*
X139446000Y-58706000D03*
%TD*%
D10*
%TO.C,F9*%
X80088000Y-46105000D03*
X83488000Y-46105000D03*
X80088000Y-32635000D03*
X83488000Y-32635000D03*
%TD*%
D13*
%TO.C,5out4*%
X143000000Y-68000000D03*
D14*
X143000000Y-65500000D03*
%TD*%
D13*
%TO.C,5out3*%
X143000000Y-77000000D03*
D14*
X143000000Y-74500000D03*
%TD*%
D13*
%TO.C,12vout1*%
X143002000Y-30000000D03*
D14*
X143002000Y-27500000D03*
%TD*%
D12*
%TO.C,D9*%
X139700000Y-63482000D03*
X139700000Y-65532000D03*
%TD*%
D18*
%TO.C,U2*%
X89952620Y-54775348D03*
D19*
X92492620Y-54775348D03*
X95032620Y-54775348D03*
X97572620Y-54775348D03*
X100112620Y-54775348D03*
X102652620Y-54775348D03*
X105192620Y-54775348D03*
X107732620Y-54775348D03*
X110272620Y-54775348D03*
X112812620Y-54775348D03*
D20*
X89954662Y-30349502D03*
D19*
X92484997Y-30128126D03*
X95015331Y-29906751D03*
X97545666Y-29685375D03*
X100076000Y-29464000D03*
X102606335Y-29242624D03*
X105136669Y-29021248D03*
X107667004Y-28799873D03*
X110197338Y-28578497D03*
X112727673Y-28357122D03*
%TD*%
D21*
%TO.C,R8*%
X84042000Y-51054000D03*
X82042000Y-51054000D03*
%TD*%
D22*
%TO.C,U1*%
X88025000Y-41912500D03*
X88025000Y-40642500D03*
X88025000Y-39372500D03*
X88025000Y-38102500D03*
X92975000Y-38102500D03*
X92975000Y-41912500D03*
X92975000Y-40642500D03*
X92975000Y-39372500D03*
%TD*%
D10*
%TO.C,F5*%
X121265000Y-65084753D03*
X121265000Y-68484753D03*
X134735000Y-65084753D03*
X134735000Y-68484753D03*
%TD*%
%TO.C,F8*%
X121404000Y-47146000D03*
X121404000Y-50546000D03*
X134874000Y-47146000D03*
X134874000Y-50546000D03*
%TD*%
D12*
%TO.C,D3*%
X139717524Y-35444890D03*
X139717524Y-37494890D03*
%TD*%
D10*
%TO.C,F6*%
X121265000Y-73800000D03*
X121265000Y-77200000D03*
X134735000Y-73800000D03*
X134735000Y-77200000D03*
%TD*%
D21*
%TO.C,R7*%
X128016000Y-81534000D03*
X126016000Y-81534000D03*
%TD*%
D23*
%TO.C,D4*%
X115570000Y-73660000D03*
X115570000Y-77660000D03*
%TD*%
D24*
%TO.C,H2*%
X77898000Y-83494000D03*
D25*
X77898000Y-83494000D03*
%TD*%
D23*
%TO.C,D5*%
X115316000Y-40386000D03*
X115316000Y-44386000D03*
%TD*%
D26*
%TO.C,D6*%
X113030000Y-23622000D03*
X109030000Y-23622000D03*
%TD*%
D27*
%TO.C,D1*%
X87000000Y-50000000D03*
X91000000Y-50000000D03*
%TD*%
D24*
%TO.C,H3*%
X77898000Y-20494000D03*
D25*
X77898000Y-20494000D03*
%TD*%
D28*
%TO.C,D11*%
X123921115Y-83659872D03*
X125971115Y-83659872D03*
%TD*%
D13*
%TO.C,5out1*%
X143000000Y-59000000D03*
D14*
X143000000Y-56500000D03*
%TD*%
D24*
%TO.C,H1*%
X144898000Y-83494000D03*
D25*
X144898000Y-83494000D03*
%TD*%
D18*
%TO.C,U3*%
X90000947Y-85498626D03*
D19*
X92540947Y-85498626D03*
X95080947Y-85498626D03*
X97620947Y-85498626D03*
X100160947Y-85498626D03*
X102700947Y-85498626D03*
X105240947Y-85498626D03*
X107780947Y-85498626D03*
X110320947Y-85498626D03*
X112860947Y-85498626D03*
D20*
X90002989Y-61072780D03*
D19*
X92533324Y-60851404D03*
X95063658Y-60630029D03*
X97593993Y-60408653D03*
X100124327Y-60187278D03*
X102654662Y-59965902D03*
X105184996Y-59744526D03*
X107715331Y-59523151D03*
X110245665Y-59301775D03*
X112776000Y-59080400D03*
%TD*%
D12*
%TO.C,D10*%
X139446000Y-72898511D03*
X139446000Y-74948511D03*
%TD*%
D10*
%TO.C,F4*%
X121265000Y-56036000D03*
X121265000Y-59436000D03*
X134735000Y-56036000D03*
X134735000Y-59436000D03*
%TD*%
D11*
%TO.C,R6*%
X139428881Y-78708000D03*
X139428881Y-76708000D03*
%TD*%
D24*
%TO.C,H4*%
X144898000Y-20494000D03*
D25*
X144898000Y-20494000D03*
%TD*%
D12*
%TO.C,D2*%
X139446000Y-25622000D03*
X139446000Y-27672000D03*
%TD*%
D11*
%TO.C,R3*%
X139700000Y-51784000D03*
X139700000Y-49784000D03*
%TD*%
D28*
%TO.C,D12*%
X78214000Y-51054000D03*
X80264000Y-51054000D03*
%TD*%
D29*
%TO.C,12in1*%
X81280000Y-55372000D03*
D30*
X81280000Y-60372000D03*
%TD*%
M02*
