%TF.GenerationSoftware,KiCad,Pcbnew,9.0.2*%
%TF.CreationDate,2025-06-04T19:58:56+07:00*%
%TF.ProjectId,PDM MOTHERBOARD,50444d20-4d4f-4544-9845-52424f415244,rev?*%
%TF.SameCoordinates,Original*%
%TF.FileFunction,Soldermask,Bot*%
%TF.FilePolarity,Negative*%
%FSLAX46Y46*%
G04 Gerber Fmt 4.6, Leading zero omitted, Abs format (unit mm)*
G04 Created by KiCad (PCBNEW 9.0.2) date 2025-06-04 19:58:56*
%MOMM*%
%LPD*%
G01*
G04 APERTURE LIST*
G04 Aperture macros list*
%AMRoundRect*
0 Rectangle with rounded corners*
0 $1 Rounding radius*
0 $2 $3 $4 $5 $6 $7 $8 $9 X,Y pos of 4 corners*
0 Add a 4 corners polygon primitive as box body*
4,1,4,$2,$3,$4,$5,$6,$7,$8,$9,$2,$3,0*
0 Add four circle primitives for the rounded corners*
1,1,$1+$1,$2,$3*
1,1,$1+$1,$4,$5*
1,1,$1+$1,$6,$7*
1,1,$1+$1,$8,$9*
0 Add four rect primitives between the rounded corners*
20,1,$1+$1,$2,$3,$4,$5,0*
20,1,$1+$1,$4,$5,$6,$7,0*
20,1,$1+$1,$6,$7,$8,$9,0*
20,1,$1+$1,$8,$9,$2,$3,0*%
%AMRotRect*
0 Rectangle, with rotation*
0 The origin of the aperture is its center*
0 $1 length*
0 $2 width*
0 $3 Rotation angle, in degrees counterclockwise*
0 Add horizontal line*
21,1,$1,$2,0,0,$3*%
%AMFreePoly0*
4,1,22,0.945671,0.830970,1.026777,0.776777,1.080970,0.695671,1.100000,0.600000,1.100000,-0.600000,1.080970,-0.695671,1.026777,-0.776777,0.945671,-0.830970,0.850000,-0.850000,-0.596447,-0.850000,-0.692118,-0.830970,-0.773224,-0.776777,-1.026777,-0.523224,-1.080970,-0.442118,-1.100000,-0.346447,-1.100000,0.600000,-1.080970,0.695671,-1.026777,0.776777,-0.945671,0.830970,-0.850000,0.850000,
0.850000,0.850000,0.945671,0.830970,0.945671,0.830970,$1*%
G04 Aperture macros list end*
%ADD10C,2.604000*%
%ADD11RoundRect,0.250000X0.750000X-0.600000X0.750000X0.600000X-0.750000X0.600000X-0.750000X-0.600000X0*%
%ADD12O,2.000000X1.700000*%
%ADD13C,1.300000*%
%ADD14FreePoly0,90.000000*%
%ADD15O,1.700000X2.200000*%
%ADD16R,1.700000X1.700000*%
%ADD17C,1.700000*%
%ADD18RotRect,1.700000X1.700000X95.000000*%
%ADD19C,3.600000*%
%ADD20C,5.700000*%
%ADD21RoundRect,0.250000X-1.050000X1.050000X-1.050000X-1.050000X1.050000X-1.050000X1.050000X1.050000X0*%
%ADD22C,2.600000*%
G04 APERTURE END LIST*
D10*
%TO.C,F2*%
X121404000Y-36986000D03*
X121404000Y-40386000D03*
X134874000Y-36986000D03*
X134874000Y-40386000D03*
%TD*%
%TO.C,F7*%
X121265000Y-27178000D03*
X121265000Y-30578000D03*
X134735000Y-27178000D03*
X134735000Y-30578000D03*
%TD*%
D11*
%TO.C,5out5*%
X143000000Y-50000000D03*
D12*
X143000000Y-47500000D03*
%TD*%
D13*
%TO.C,5out2*%
X133489930Y-82948000D03*
D14*
X132239930Y-81608000D03*
D15*
X134739930Y-81608000D03*
%TD*%
D11*
%TO.C,3v3out1*%
X143002000Y-40000000D03*
D12*
X143002000Y-37500000D03*
%TD*%
D10*
%TO.C,F9*%
X80088000Y-46105000D03*
X83488000Y-46105000D03*
X80088000Y-32635000D03*
X83488000Y-32635000D03*
%TD*%
D11*
%TO.C,5out4*%
X143000000Y-68000000D03*
D12*
X143000000Y-65500000D03*
%TD*%
D11*
%TO.C,5out3*%
X143000000Y-77000000D03*
D12*
X143000000Y-74500000D03*
%TD*%
D11*
%TO.C,12vout1*%
X143002000Y-30000000D03*
D12*
X143002000Y-27500000D03*
%TD*%
D16*
%TO.C,U2*%
X89952620Y-54775348D03*
D17*
X92492620Y-54775348D03*
X95032620Y-54775348D03*
X97572620Y-54775348D03*
X100112620Y-54775348D03*
X102652620Y-54775348D03*
X105192620Y-54775348D03*
X107732620Y-54775348D03*
X110272620Y-54775348D03*
X112812620Y-54775348D03*
D18*
X89954662Y-30349502D03*
D17*
X92484997Y-30128126D03*
X95015331Y-29906751D03*
X97545666Y-29685375D03*
X100076000Y-29464000D03*
X102606335Y-29242624D03*
X105136669Y-29021248D03*
X107667004Y-28799873D03*
X110197338Y-28578497D03*
X112727673Y-28357122D03*
%TD*%
D10*
%TO.C,F5*%
X121265000Y-65084753D03*
X121265000Y-68484753D03*
X134735000Y-65084753D03*
X134735000Y-68484753D03*
%TD*%
%TO.C,F8*%
X121404000Y-47146000D03*
X121404000Y-50546000D03*
X134874000Y-47146000D03*
X134874000Y-50546000D03*
%TD*%
%TO.C,F6*%
X121265000Y-73800000D03*
X121265000Y-77200000D03*
X134735000Y-73800000D03*
X134735000Y-77200000D03*
%TD*%
D19*
%TO.C,H2*%
X77898000Y-83494000D03*
D20*
X77898000Y-83494000D03*
%TD*%
D19*
%TO.C,H3*%
X77898000Y-20494000D03*
D20*
X77898000Y-20494000D03*
%TD*%
D11*
%TO.C,5out1*%
X143000000Y-59000000D03*
D12*
X143000000Y-56500000D03*
%TD*%
D19*
%TO.C,H1*%
X144898000Y-83494000D03*
D20*
X144898000Y-83494000D03*
%TD*%
D16*
%TO.C,U3*%
X90000947Y-85498626D03*
D17*
X92540947Y-85498626D03*
X95080947Y-85498626D03*
X97620947Y-85498626D03*
X100160947Y-85498626D03*
X102700947Y-85498626D03*
X105240947Y-85498626D03*
X107780947Y-85498626D03*
X110320947Y-85498626D03*
X112860947Y-85498626D03*
D18*
X90002989Y-61072780D03*
D17*
X92533324Y-60851404D03*
X95063658Y-60630029D03*
X97593993Y-60408653D03*
X100124327Y-60187278D03*
X102654662Y-59965902D03*
X105184996Y-59744526D03*
X107715331Y-59523151D03*
X110245665Y-59301775D03*
X112776000Y-59080400D03*
%TD*%
D10*
%TO.C,F4*%
X121265000Y-56036000D03*
X121265000Y-59436000D03*
X134735000Y-56036000D03*
X134735000Y-59436000D03*
%TD*%
D19*
%TO.C,H4*%
X144898000Y-20494000D03*
D20*
X144898000Y-20494000D03*
%TD*%
D21*
%TO.C,12in1*%
X81280000Y-55372000D03*
D22*
X81280000Y-60372000D03*
%TD*%
M02*
