%TF.GenerationSoftware,KiCad,Pcbnew,9.0.2*%
%TF.CreationDate,2025-06-04T19:58:56+07:00*%
%TF.ProjectId,PDM MOTHERBOARD,50444d20-4d4f-4544-9845-52424f415244,rev?*%
%TF.SameCoordinates,Original*%
%TF.FileFunction,Copper,L1,Top*%
%TF.FilePolarity,Positive*%
%FSLAX46Y46*%
G04 Gerber Fmt 4.6, Leading zero omitted, Abs format (unit mm)*
G04 Created by KiCad (PCBNEW 9.0.2) date 2025-06-04 19:58:56*
%MOMM*%
%LPD*%
G01*
G04 APERTURE LIST*
G04 Aperture macros list*
%AMRoundRect*
0 Rectangle with rounded corners*
0 $1 Rounding radius*
0 $2 $3 $4 $5 $6 $7 $8 $9 X,Y pos of 4 corners*
0 Add a 4 corners polygon primitive as box body*
4,1,4,$2,$3,$4,$5,$6,$7,$8,$9,$2,$3,0*
0 Add four circle primitives for the rounded corners*
1,1,$1+$1,$2,$3*
1,1,$1+$1,$4,$5*
1,1,$1+$1,$6,$7*
1,1,$1+$1,$8,$9*
0 Add four rect primitives between the rounded corners*
20,1,$1+$1,$2,$3,$4,$5,0*
20,1,$1+$1,$4,$5,$6,$7,0*
20,1,$1+$1,$6,$7,$8,$9,0*
20,1,$1+$1,$8,$9,$2,$3,0*%
%AMRotRect*
0 Rectangle, with rotation*
0 The origin of the aperture is its center*
0 $1 length*
0 $2 width*
0 $3 Rotation angle, in degrees counterclockwise*
0 Add horizontal line*
21,1,$1,$2,0,0,$3*%
%AMFreePoly0*
4,1,22,0.945671,0.830970,1.026777,0.776777,1.080970,0.695671,1.100000,0.600000,1.100000,-0.600000,1.080970,-0.695671,1.026777,-0.776777,0.945671,-0.830970,0.850000,-0.850000,-0.596447,-0.850000,-0.692118,-0.830970,-0.773224,-0.776777,-1.026777,-0.523224,-1.080970,-0.442118,-1.100000,-0.346447,-1.100000,0.600000,-1.080970,0.695671,-1.026777,0.776777,-0.945671,0.830970,-0.850000,0.850000,
0.850000,0.850000,0.945671,0.830970,0.945671,0.830970,$1*%
G04 Aperture macros list end*
%TA.AperFunction,ComponentPad*%
%ADD10C,2.400000*%
%TD*%
%TA.AperFunction,SMDPad,CuDef*%
%ADD11RoundRect,0.250000X0.450000X-0.350000X0.450000X0.350000X-0.450000X0.350000X-0.450000X-0.350000X0*%
%TD*%
%TA.AperFunction,SMDPad,CuDef*%
%ADD12RoundRect,0.250000X-0.450000X0.325000X-0.450000X-0.325000X0.450000X-0.325000X0.450000X0.325000X0*%
%TD*%
%TA.AperFunction,ComponentPad*%
%ADD13RoundRect,0.250000X0.750000X-0.600000X0.750000X0.600000X-0.750000X0.600000X-0.750000X-0.600000X0*%
%TD*%
%TA.AperFunction,ComponentPad*%
%ADD14O,2.000000X1.700000*%
%TD*%
%TA.AperFunction,ComponentPad*%
%ADD15FreePoly0,90.000000*%
%TD*%
%TA.AperFunction,ComponentPad*%
%ADD16O,1.700000X2.200000*%
%TD*%
%TA.AperFunction,ComponentPad*%
%ADD17R,1.700000X1.700000*%
%TD*%
%TA.AperFunction,ComponentPad*%
%ADD18C,1.700000*%
%TD*%
%TA.AperFunction,ComponentPad*%
%ADD19RotRect,1.700000X1.700000X95.000000*%
%TD*%
%TA.AperFunction,SMDPad,CuDef*%
%ADD20RoundRect,0.250000X0.350000X0.450000X-0.350000X0.450000X-0.350000X-0.450000X0.350000X-0.450000X0*%
%TD*%
%TA.AperFunction,SMDPad,CuDef*%
%ADD21RoundRect,0.150000X0.825000X0.150000X-0.825000X0.150000X-0.825000X-0.150000X0.825000X-0.150000X0*%
%TD*%
%TA.AperFunction,SMDPad,CuDef*%
%ADD22RoundRect,0.250000X-0.650000X1.000000X-0.650000X-1.000000X0.650000X-1.000000X0.650000X1.000000X0*%
%TD*%
%TA.AperFunction,ComponentPad*%
%ADD23C,3.600000*%
%TD*%
%TA.AperFunction,ConnectorPad*%
%ADD24C,5.700000*%
%TD*%
%TA.AperFunction,SMDPad,CuDef*%
%ADD25RoundRect,0.250000X1.000000X0.650000X-1.000000X0.650000X-1.000000X-0.650000X1.000000X-0.650000X0*%
%TD*%
%TA.AperFunction,SMDPad,CuDef*%
%ADD26RoundRect,0.250000X-1.000000X-0.650000X1.000000X-0.650000X1.000000X0.650000X-1.000000X0.650000X0*%
%TD*%
%TA.AperFunction,SMDPad,CuDef*%
%ADD27RoundRect,0.250000X-0.325000X-0.450000X0.325000X-0.450000X0.325000X0.450000X-0.325000X0.450000X0*%
%TD*%
%TA.AperFunction,ComponentPad*%
%ADD28RoundRect,0.250000X-1.050000X1.050000X-1.050000X-1.050000X1.050000X-1.050000X1.050000X1.050000X0*%
%TD*%
%TA.AperFunction,ComponentPad*%
%ADD29C,2.600000*%
%TD*%
%TA.AperFunction,Conductor*%
%ADD30C,0.500000*%
%TD*%
%TA.AperFunction,Conductor*%
%ADD31C,1.500000*%
%TD*%
G04 APERTURE END LIST*
D10*
%TO.P,F2,1_1*%
%TO.N,3Vin*%
X121404000Y-36986000D03*
%TO.P,F2,1_2*%
X121404000Y-40386000D03*
%TO.P,F2,2_1*%
%TO.N,Net-(3v3out1-Pin_1)*%
X134874000Y-36986000D03*
%TO.P,F2,2_2*%
X134874000Y-40386000D03*
%TD*%
%TO.P,F7,1_1*%
%TO.N,12tobuck*%
X121265000Y-27178000D03*
%TO.P,F7,1_2*%
X121265000Y-30578000D03*
%TO.P,F7,2_1*%
%TO.N,Net-(12vout1-Pin_1)*%
X134735000Y-27178000D03*
%TO.P,F7,2_2*%
X134735000Y-30578000D03*
%TD*%
D11*
%TO.P,R2,1*%
%TO.N,Net-(3v3out1-Pin_1)*%
X139700000Y-41370000D03*
%TO.P,R2,2*%
%TO.N,Net-(D3-A)*%
X139700000Y-39370000D03*
%TD*%
D12*
%TO.P,D7,1,K*%
%TO.N,GND*%
X139700000Y-45974000D03*
%TO.P,D7,2,A*%
%TO.N,Net-(D7-A)*%
X139700000Y-48024000D03*
%TD*%
D13*
%TO.P,5out5,1,Pin_1*%
%TO.N,Net-(5out5-Pin_1)*%
X143000000Y-50000000D03*
D14*
%TO.P,5out5,2,Pin_2*%
%TO.N,GND*%
X143000000Y-47500000D03*
%TD*%
D15*
%TO.P,5out2,1,Pin_1*%
%TO.N,/5v_f3*%
X132239930Y-81608000D03*
D16*
%TO.P,5out2,2,Pin_2*%
%TO.N,GND*%
X134739930Y-81608000D03*
%TD*%
D13*
%TO.P,3v3out1,1,Pin_1*%
%TO.N,Net-(3v3out1-Pin_1)*%
X143002000Y-40000000D03*
D14*
%TO.P,3v3out1,2,Pin_2*%
%TO.N,GND*%
X143002000Y-37500000D03*
%TD*%
D11*
%TO.P,R1,1*%
%TO.N,Net-(12vout1-Pin_1)*%
X139446000Y-31464000D03*
%TO.P,R1,2*%
%TO.N,Net-(D2-A)*%
X139446000Y-29464000D03*
%TD*%
D12*
%TO.P,D8,1,K*%
%TO.N,GND*%
X139442076Y-54929963D03*
%TO.P,D8,2,A*%
%TO.N,Net-(D8-A)*%
X139442076Y-56979963D03*
%TD*%
D11*
%TO.P,R5,1*%
%TO.N,Net-(5out4-Pin_1)*%
X139700000Y-69310000D03*
%TO.P,R5,2*%
%TO.N,Net-(D9-A)*%
X139700000Y-67310000D03*
%TD*%
%TO.P,R4,1*%
%TO.N,Net-(5out1-Pin_1)*%
X139446000Y-60706000D03*
%TO.P,R4,2*%
%TO.N,Net-(D8-A)*%
X139446000Y-58706000D03*
%TD*%
D10*
%TO.P,F9,1_1*%
%TO.N,Net-(12in1-Pin_2)*%
X80088000Y-46105000D03*
%TO.P,F9,1_2*%
X83488000Y-46105000D03*
%TO.P,F9,2_1*%
%TO.N,Net-(U1-D)*%
X80088000Y-32635000D03*
%TO.P,F9,2_2*%
X83488000Y-32635000D03*
%TD*%
D13*
%TO.P,5out4,1,Pin_1*%
%TO.N,Net-(5out4-Pin_1)*%
X143000000Y-68000000D03*
D14*
%TO.P,5out4,2,Pin_2*%
%TO.N,GND*%
X143000000Y-65500000D03*
%TD*%
D13*
%TO.P,5out3,1,Pin_1*%
%TO.N,/5v_f3*%
X143000000Y-77000000D03*
D14*
%TO.P,5out3,2,Pin_2*%
%TO.N,GND*%
X143000000Y-74500000D03*
%TD*%
D13*
%TO.P,12vout1,1,Pin_1*%
%TO.N,Net-(12vout1-Pin_1)*%
X143002000Y-30000000D03*
D14*
%TO.P,12vout1,2,Pin_2*%
%TO.N,GND*%
X143002000Y-27500000D03*
%TD*%
D12*
%TO.P,D9,1,K*%
%TO.N,GND*%
X139700000Y-63482000D03*
%TO.P,D9,2,A*%
%TO.N,Net-(D9-A)*%
X139700000Y-65532000D03*
%TD*%
D17*
%TO.P,U2,1,GND*%
%TO.N,GND*%
X89952620Y-54775348D03*
D18*
%TO.P,U2,2,GND*%
X92492620Y-54775348D03*
%TO.P,U2,3,GND*%
X95032620Y-54775348D03*
%TO.P,U2,4,GND*%
X97572620Y-54775348D03*
%TO.P,U2,5,GND*%
X100112620Y-54775348D03*
%TO.P,U2,6,12VIN*%
%TO.N,12tobuck*%
X102652620Y-54775348D03*
%TO.P,U2,7,12VIN*%
X105192620Y-54775348D03*
%TO.P,U2,8,12VIN*%
X107732620Y-54775348D03*
%TO.P,U2,9,12VIN*%
X110272620Y-54775348D03*
%TO.P,U2,10,12VIN*%
X112812620Y-54775348D03*
D19*
%TO.P,U2,11,GND*%
%TO.N,GND*%
X89954662Y-30349502D03*
D18*
%TO.P,U2,12,GND*%
X92484997Y-30128126D03*
%TO.P,U2,13,GND*%
X95015331Y-29906751D03*
%TO.P,U2,14,GND*%
X97545666Y-29685375D03*
%TO.P,U2,15,GND*%
X100076000Y-29464000D03*
%TO.P,U2,16,3V3*%
%TO.N,3Vin*%
X102606335Y-29242624D03*
%TO.P,U2,17,3V3*%
X105136669Y-29021248D03*
%TO.P,U2,18,3V3*%
X107667004Y-28799873D03*
%TO.P,U2,19,3V3*%
X110197338Y-28578497D03*
%TO.P,U2,20,3V3*%
X112727673Y-28357122D03*
%TD*%
D20*
%TO.P,R8,1*%
%TO.N,Net-(12in1-Pin_2)*%
X84042000Y-51054000D03*
%TO.P,R8,2*%
%TO.N,Net-(D12-A)*%
X82042000Y-51054000D03*
%TD*%
D21*
%TO.P,U1,1,D*%
%TO.N,Net-(U1-D)*%
X88025000Y-41912500D03*
X88025000Y-40642500D03*
X88025000Y-39372500D03*
X88025000Y-38102500D03*
%TO.P,U1,2,G*%
%TO.N,GND*%
X92975000Y-38102500D03*
%TO.P,U1,3,S*%
%TO.N,12tobuck*%
X92975000Y-41912500D03*
X92975000Y-40642500D03*
X92975000Y-39372500D03*
%TD*%
D10*
%TO.P,F5,1_1*%
%TO.N,5Vin*%
X121265000Y-65084753D03*
%TO.P,F5,1_2*%
X121265000Y-68484753D03*
%TO.P,F5,2_1*%
%TO.N,Net-(5out4-Pin_1)*%
X134735000Y-65084753D03*
%TO.P,F5,2_2*%
X134735000Y-68484753D03*
%TD*%
%TO.P,F8,1_1*%
%TO.N,5Vin*%
X121404000Y-47146000D03*
%TO.P,F8,1_2*%
X121404000Y-50546000D03*
%TO.P,F8,2_1*%
%TO.N,Net-(5out5-Pin_1)*%
X134874000Y-47146000D03*
%TO.P,F8,2_2*%
X134874000Y-50546000D03*
%TD*%
D12*
%TO.P,D3,1,K*%
%TO.N,GND*%
X139717524Y-35444890D03*
%TO.P,D3,2,A*%
%TO.N,Net-(D3-A)*%
X139717524Y-37494890D03*
%TD*%
D10*
%TO.P,F6,1_1*%
%TO.N,5Vin*%
X121265000Y-73800000D03*
%TO.P,F6,1_2*%
X121265000Y-77200000D03*
%TO.P,F6,2_1*%
%TO.N,/5v_f3*%
X134735000Y-73800000D03*
%TO.P,F6,2_2*%
X134735000Y-77200000D03*
%TD*%
D20*
%TO.P,R7,1*%
%TO.N,/5v_f3*%
X128016000Y-81534000D03*
%TO.P,R7,2*%
%TO.N,Net-(D11-A)*%
X126016000Y-81534000D03*
%TD*%
D22*
%TO.P,D4,1,A1*%
%TO.N,5Vin*%
X115570000Y-73660000D03*
%TO.P,D4,2,A2*%
%TO.N,GND*%
X115570000Y-77660000D03*
%TD*%
D23*
%TO.P,H2,1,1*%
%TO.N,GND*%
X77898000Y-83494000D03*
D24*
X77898000Y-83494000D03*
%TD*%
D22*
%TO.P,D5,1,A1*%
%TO.N,3Vin*%
X115316000Y-40386000D03*
%TO.P,D5,2,A2*%
%TO.N,GND*%
X115316000Y-44386000D03*
%TD*%
D25*
%TO.P,D6,1,A1*%
%TO.N,12tobuck*%
X113030000Y-23622000D03*
%TO.P,D6,2,A2*%
%TO.N,GND*%
X109030000Y-23622000D03*
%TD*%
D26*
%TO.P,D1,1,A1*%
%TO.N,Net-(12in1-Pin_2)*%
X87000000Y-50000000D03*
%TO.P,D1,2,A2*%
%TO.N,GND*%
X91000000Y-50000000D03*
%TD*%
D23*
%TO.P,H3,1,1*%
%TO.N,N/C*%
X77898000Y-20494000D03*
D24*
X77898000Y-20494000D03*
%TD*%
D27*
%TO.P,D11,1,K*%
%TO.N,GND*%
X123921115Y-83659872D03*
%TO.P,D11,2,A*%
%TO.N,Net-(D11-A)*%
X125971115Y-83659872D03*
%TD*%
D13*
%TO.P,5out1,1,Pin_1*%
%TO.N,Net-(5out1-Pin_1)*%
X143000000Y-59000000D03*
D14*
%TO.P,5out1,2,Pin_2*%
%TO.N,GND*%
X143000000Y-56500000D03*
%TD*%
D23*
%TO.P,H1,1,1*%
%TO.N,GND*%
X144898000Y-83494000D03*
D24*
X144898000Y-83494000D03*
%TD*%
D17*
%TO.P,U3,1,GND*%
%TO.N,GND*%
X90000947Y-85498626D03*
D18*
%TO.P,U3,2,GND*%
X92540947Y-85498626D03*
%TO.P,U3,3,GND*%
X95080947Y-85498626D03*
%TO.P,U3,4,GND*%
X97620947Y-85498626D03*
%TO.P,U3,5,GND*%
X100160947Y-85498626D03*
%TO.P,U3,6,12VIN*%
%TO.N,12tobuck*%
X102700947Y-85498626D03*
%TO.P,U3,7,12VIN*%
X105240947Y-85498626D03*
%TO.P,U3,8,12VIN*%
X107780947Y-85498626D03*
%TO.P,U3,9,12VIN*%
X110320947Y-85498626D03*
%TO.P,U3,10,12VIN*%
X112860947Y-85498626D03*
D19*
%TO.P,U3,11,GND*%
%TO.N,GND*%
X90002989Y-61072780D03*
D18*
%TO.P,U3,12,GND*%
X92533324Y-60851404D03*
%TO.P,U3,13,GND*%
X95063658Y-60630029D03*
%TO.P,U3,14,GND*%
X97593993Y-60408653D03*
%TO.P,U3,15,GND*%
X100124327Y-60187278D03*
%TO.P,U3,16,5V*%
%TO.N,5Vin*%
X102654662Y-59965902D03*
%TO.P,U3,17,5V*%
X105184996Y-59744526D03*
%TO.P,U3,18,5V*%
X107715331Y-59523151D03*
%TO.P,U3,19,5V*%
X110245665Y-59301775D03*
%TO.P,U3,20,5V*%
X112776000Y-59080400D03*
%TD*%
D12*
%TO.P,D10,1,K*%
%TO.N,GND*%
X139446000Y-72898511D03*
%TO.P,D10,2,A*%
%TO.N,Net-(D10-A)*%
X139446000Y-74948511D03*
%TD*%
D10*
%TO.P,F4,1_1*%
%TO.N,5Vin*%
X121265000Y-56036000D03*
%TO.P,F4,1_2*%
X121265000Y-59436000D03*
%TO.P,F4,2_1*%
%TO.N,Net-(5out1-Pin_1)*%
X134735000Y-56036000D03*
%TO.P,F4,2_2*%
X134735000Y-59436000D03*
%TD*%
D11*
%TO.P,R6,1*%
%TO.N,/5v_f3*%
X139428881Y-78708000D03*
%TO.P,R6,2*%
%TO.N,Net-(D10-A)*%
X139428881Y-76708000D03*
%TD*%
D23*
%TO.P,H4,1,1*%
%TO.N,N/C*%
X144898000Y-20494000D03*
D24*
X144898000Y-20494000D03*
%TD*%
D12*
%TO.P,D2,1,K*%
%TO.N,GND*%
X139446000Y-25622000D03*
%TO.P,D2,2,A*%
%TO.N,Net-(D2-A)*%
X139446000Y-27672000D03*
%TD*%
D11*
%TO.P,R3,1*%
%TO.N,Net-(5out5-Pin_1)*%
X139700000Y-51784000D03*
%TO.P,R3,2*%
%TO.N,Net-(D7-A)*%
X139700000Y-49784000D03*
%TD*%
D27*
%TO.P,D12,1,K*%
%TO.N,GND*%
X78214000Y-51054000D03*
%TO.P,D12,2,A*%
%TO.N,Net-(D12-A)*%
X80264000Y-51054000D03*
%TD*%
D28*
%TO.P,12in1,1,Pin_1*%
%TO.N,GND*%
X81280000Y-55372000D03*
D29*
%TO.P,12in1,2,Pin_2*%
%TO.N,Net-(12in1-Pin_2)*%
X81280000Y-60372000D03*
%TD*%
D30*
%TO.N,Net-(12in1-Pin_2)*%
X84042000Y-51054000D02*
X85852000Y-51054000D01*
D31*
X80088000Y-46105000D02*
X83488000Y-46105000D01*
D30*
X85852000Y-51054000D02*
X86106000Y-51308000D01*
D31*
X86106000Y-58166000D02*
X83900000Y-60372000D01*
X83951000Y-46105000D02*
X86106000Y-48260000D01*
X86106000Y-48260000D02*
X86106000Y-51308000D01*
X83488000Y-46105000D02*
X83951000Y-46105000D01*
X86106000Y-51308000D02*
X86106000Y-58166000D01*
X83900000Y-60372000D02*
X81280000Y-60372000D01*
%TO.N,Net-(3v3out1-Pin_1)*%
X141346000Y-41656000D02*
X143002000Y-40000000D01*
X136144000Y-41656000D02*
X141346000Y-41656000D01*
X134874000Y-40386000D02*
X136144000Y-41656000D01*
X134874000Y-36986000D02*
X134874000Y-40386000D01*
%TO.N,5Vin*%
X120000000Y-58373161D02*
X121274786Y-56993933D01*
X112776000Y-59080400D02*
X120000000Y-58373161D01*
X121265000Y-73800000D02*
X121265000Y-77200000D01*
X121265000Y-73299000D02*
X121404000Y-73160000D01*
X121265000Y-73800000D02*
X115710000Y-73800000D01*
X121404000Y-73160000D02*
X121404000Y-47146000D01*
X120000000Y-58373161D02*
X121369075Y-58239127D01*
X115710000Y-73800000D02*
X115570000Y-73660000D01*
X121265000Y-73800000D02*
X121265000Y-73299000D01*
X120000000Y-58373161D02*
X121286350Y-59445497D01*
X102654662Y-59965902D02*
X112776000Y-59080400D01*
%TO.N,3Vin*%
X121404000Y-36986000D02*
X121404000Y-40386000D01*
X112727673Y-28357122D02*
X112727673Y-37797673D01*
X102606335Y-29242624D02*
X111506000Y-28464004D01*
X112727673Y-37797673D02*
X115316000Y-40386000D01*
X115316000Y-40386000D02*
X121404000Y-40386000D01*
%TO.N,Net-(5out1-Pin_1)*%
X134735000Y-59436000D02*
X136513000Y-61214000D01*
X134735000Y-56036000D02*
X134735000Y-59436000D01*
X140786000Y-61214000D02*
X143000000Y-59000000D01*
X136513000Y-61214000D02*
X140786000Y-61214000D01*
%TO.N,Net-(12vout1-Pin_1)*%
X134735000Y-31384299D02*
X139366299Y-31384299D01*
X139366299Y-31384299D02*
X139446000Y-31464000D01*
X142538000Y-31464000D02*
X143002000Y-31000000D01*
X134735000Y-27984299D02*
X134735000Y-31384299D01*
X139446000Y-31464000D02*
X142538000Y-31464000D01*
%TO.N,Net-(5out4-Pin_1)*%
X134735000Y-65084753D02*
X134735000Y-68484753D01*
X136259000Y-70104000D02*
X139446000Y-70104000D01*
X140896000Y-70104000D02*
X143000000Y-68000000D01*
X134735000Y-68580000D02*
X136259000Y-70104000D01*
X139446000Y-70104000D02*
X140896000Y-70104000D01*
%TO.N,Net-(U1-D)*%
X88000000Y-37000000D02*
X88025000Y-37025000D01*
X83488000Y-32635000D02*
X80088000Y-32635000D01*
X83488000Y-32635000D02*
X87853000Y-37000000D01*
X88025000Y-37025000D02*
X88025000Y-41912500D01*
X87853000Y-37000000D02*
X88000000Y-37000000D01*
D30*
%TO.N,Net-(D2-A)*%
X139446000Y-29464000D02*
X139446000Y-27672000D01*
%TO.N,Net-(D3-A)*%
X139700000Y-37512414D02*
X139717524Y-37494890D01*
X139700000Y-39370000D02*
X139700000Y-37512414D01*
%TO.N,Net-(D7-A)*%
X139700000Y-49784000D02*
X139700000Y-48024000D01*
%TO.N,Net-(D8-A)*%
X139446000Y-56983887D02*
X139442076Y-56979963D01*
X139446000Y-58706000D02*
X139446000Y-56983887D01*
%TO.N,Net-(D9-A)*%
X139700000Y-65532000D02*
X139700000Y-67310000D01*
%TO.N,Net-(D10-A)*%
X139446000Y-76690881D02*
X139428881Y-76708000D01*
X139446000Y-74948511D02*
X139446000Y-76690881D01*
%TO.N,Net-(D11-A)*%
X125805361Y-81800551D02*
X125760476Y-81845436D01*
X126016000Y-81534000D02*
X126016000Y-83614987D01*
D31*
%TO.N,12tobuck*%
X76000000Y-28000000D02*
X76000000Y-72500000D01*
X107000687Y-83999313D02*
X108500000Y-85498626D01*
X88646000Y-21590000D02*
X86614000Y-23622000D01*
X86000000Y-31500000D02*
X86000000Y-26500000D01*
X96500000Y-39372500D02*
X96500000Y-36000000D01*
X89500000Y-35000000D02*
X86000000Y-31500000D01*
X112860947Y-85498626D02*
X108500000Y-85498626D01*
X103501374Y-80500000D02*
X107000687Y-83999313D01*
X108500000Y-85498626D02*
X102700947Y-85498626D01*
X77500000Y-26500000D02*
X76000000Y-28000000D01*
X113030000Y-23622000D02*
X116902701Y-23622000D01*
X92975000Y-39372500D02*
X92975000Y-41912500D01*
X95500000Y-35000000D02*
X89500000Y-35000000D01*
X102652620Y-54775348D02*
X106426000Y-54775348D01*
X121265000Y-27984299D02*
X121265000Y-31384299D01*
X107000687Y-83999313D02*
X106740260Y-83999313D01*
X86614000Y-23622000D02*
X86614000Y-26500000D01*
X106426000Y-54775348D02*
X112812620Y-54775348D01*
X92975000Y-39372500D02*
X96500000Y-39372500D01*
X84000000Y-80500000D02*
X103501374Y-80500000D01*
X103298500Y-39372500D02*
X106426000Y-42500000D01*
X86000000Y-26500000D02*
X77500000Y-26500000D01*
X96500000Y-39372500D02*
X103298500Y-39372500D01*
X106426000Y-42500000D02*
X106426000Y-54775348D01*
X76000000Y-72500000D02*
X84000000Y-80500000D01*
X116902701Y-23622000D02*
X121265000Y-27984299D01*
X113030000Y-23622000D02*
X110998000Y-21590000D01*
X110998000Y-21590000D02*
X88646000Y-21590000D01*
X113284000Y-85075573D02*
X112860947Y-85498626D01*
X106740260Y-83999313D02*
X105240947Y-85498626D01*
X96500000Y-36000000D02*
X95500000Y-35000000D01*
X86614000Y-26500000D02*
X86000000Y-26500000D01*
D30*
%TO.N,Net-(D12-A)*%
X82042000Y-51054000D02*
X80264000Y-51054000D01*
D31*
%TO.N,Net-(5out5-Pin_1)*%
X137128000Y-52800000D02*
X139700000Y-52800000D01*
X134874000Y-50546000D02*
X137128000Y-52800000D01*
X139700000Y-52800000D02*
X140494000Y-52800000D01*
X143000000Y-50294000D02*
X143000000Y-50000000D01*
X134874000Y-47146000D02*
X134874000Y-50546000D01*
X140494000Y-52800000D02*
X143000000Y-50294000D01*
D30*
%TO.N,GND*%
X139442076Y-54929963D02*
X141429963Y-54929963D01*
X141429963Y-54929963D02*
X143000000Y-56500000D01*
D31*
%TO.N,/5v_f3*%
X134735000Y-77200000D02*
X132239930Y-79695070D01*
X134735000Y-77200000D02*
X136243000Y-78708000D01*
X132239930Y-79695070D02*
X132239930Y-81608000D01*
D30*
X128016000Y-81534000D02*
X128090000Y-81608000D01*
D31*
X134735000Y-73800000D02*
X134735000Y-77200000D01*
X139428881Y-78708000D02*
X141292000Y-78708000D01*
D30*
X128090000Y-81608000D02*
X132239930Y-81608000D01*
D31*
X136243000Y-78708000D02*
X139428881Y-78708000D01*
X141292000Y-78708000D02*
X143000000Y-77000000D01*
%TD*%
%TA.AperFunction,Conductor*%
%TO.N,GND*%
G36*
X101759022Y-58951644D02*
G01*
X101624552Y-59086115D01*
X101499613Y-59258081D01*
X101403106Y-59447487D01*
X101337415Y-59649662D01*
X101304162Y-59859615D01*
X101304162Y-60072188D01*
X101323302Y-60193037D01*
X101337416Y-60282145D01*
X101348924Y-60317564D01*
X101403106Y-60484316D01*
X101499613Y-60673722D01*
X101624552Y-60845688D01*
X101774875Y-60996011D01*
X101946841Y-61120950D01*
X101946843Y-61120951D01*
X101946846Y-61120953D01*
X101982473Y-61139105D01*
X102206013Y-63327444D01*
X88813022Y-64008000D01*
X88494141Y-58921092D01*
X88392000Y-58928000D01*
X101655219Y-57935461D01*
X101759022Y-58951644D01*
G37*
%TD.AperFunction*%
%TD*%
%TA.AperFunction,Conductor*%
%TO.N,GND*%
G36*
X101452812Y-84973494D02*
G01*
X101449391Y-84980211D01*
X101383700Y-85182386D01*
X101379992Y-85205800D01*
X101350447Y-85392339D01*
X101350447Y-85604913D01*
X101383701Y-85814869D01*
X101436917Y-85978651D01*
X101449391Y-86017040D01*
X101545898Y-86206446D01*
X101584135Y-86259076D01*
X101715245Y-87542566D01*
X91424174Y-88065500D01*
X88312373Y-88065500D01*
X88003373Y-83136214D01*
X87901232Y-83143122D01*
X101164451Y-82150583D01*
X101452812Y-84973494D01*
G37*
%TD.AperFunction*%
%TD*%
%TA.AperFunction,Conductor*%
%TO.N,GND*%
G36*
X102179896Y-27961182D02*
G01*
X102087920Y-27991068D01*
X101898514Y-28087575D01*
X101726548Y-28212514D01*
X101576225Y-28362837D01*
X101451286Y-28534803D01*
X101354779Y-28724209D01*
X101289088Y-28926384D01*
X101255835Y-29136337D01*
X101255835Y-29348910D01*
X101289088Y-29558863D01*
X101354779Y-29761038D01*
X101451286Y-29950444D01*
X101576225Y-30122410D01*
X101726548Y-30272733D01*
X101898514Y-30397672D01*
X101898516Y-30397673D01*
X101898519Y-30397675D01*
X102087923Y-30494181D01*
X102290092Y-30559870D01*
X102447906Y-30584865D01*
X102574454Y-31823695D01*
X88792490Y-32524016D01*
X88127012Y-31858538D01*
X87851829Y-27468704D01*
X87749688Y-27475612D01*
X102021199Y-26407619D01*
X102179896Y-27961182D01*
G37*
%TD.AperFunction*%
%TD*%
%TA.AperFunction,Conductor*%
%TO.N,GND*%
G36*
X144901541Y-15994618D02*
G01*
X145285697Y-16011432D01*
X145296474Y-16012376D01*
X145675847Y-16062445D01*
X145686514Y-16064331D01*
X146060040Y-16147347D01*
X146070500Y-16150157D01*
X146435344Y-16265490D01*
X146445523Y-16269204D01*
X146798911Y-16415979D01*
X146808725Y-16420568D01*
X147147923Y-16597647D01*
X147157282Y-16603066D01*
X147479737Y-16809118D01*
X147488602Y-16815345D01*
X147678062Y-16961203D01*
X147791791Y-17048758D01*
X147800082Y-17055739D01*
X147930598Y-17175768D01*
X148081727Y-17314755D01*
X148089379Y-17322436D01*
X148347322Y-17605074D01*
X148354262Y-17613380D01*
X148496497Y-17799601D01*
X148586524Y-17917470D01*
X148592723Y-17926367D01*
X148797525Y-18249579D01*
X148802923Y-18258984D01*
X148978702Y-18598850D01*
X148983258Y-18608691D01*
X149128674Y-18962623D01*
X149132352Y-18972824D01*
X149246287Y-19338097D01*
X149249060Y-19348579D01*
X149252480Y-19364248D01*
X149328522Y-19712670D01*
X149330648Y-19722408D01*
X149332495Y-19733095D01*
X149381110Y-20112633D01*
X149382016Y-20123438D01*
X149397395Y-20508491D01*
X149397494Y-20513508D01*
X149397493Y-20513684D01*
X149397252Y-20577081D01*
X149397458Y-20577864D01*
X149397454Y-20586627D01*
X149397454Y-20586634D01*
X149359543Y-83491795D01*
X149359500Y-83492468D01*
X149359500Y-83563293D01*
X149359382Y-83568702D01*
X149342614Y-83952750D01*
X149341671Y-83963526D01*
X149291849Y-84341957D01*
X149289971Y-84352610D01*
X149207354Y-84725272D01*
X149204554Y-84735721D01*
X149089775Y-85099755D01*
X149086075Y-85109921D01*
X148940002Y-85462572D01*
X148935430Y-85472376D01*
X148759183Y-85810942D01*
X148753775Y-85820310D01*
X148548681Y-86142244D01*
X148542476Y-86151105D01*
X148310110Y-86453930D01*
X148303156Y-86462217D01*
X148045284Y-86743635D01*
X148037635Y-86751284D01*
X147756217Y-87009156D01*
X147747930Y-87016110D01*
X147445105Y-87248476D01*
X147436244Y-87254681D01*
X147114310Y-87459775D01*
X147104942Y-87465183D01*
X146766376Y-87641430D01*
X146756572Y-87646002D01*
X146403921Y-87792075D01*
X146393755Y-87795775D01*
X146029721Y-87910554D01*
X146019272Y-87913354D01*
X145646610Y-87995971D01*
X145635957Y-87997849D01*
X145257526Y-88047671D01*
X145246750Y-88048614D01*
X144862703Y-88065382D01*
X144857294Y-88065500D01*
X91424174Y-88065500D01*
X101715245Y-87542566D01*
X101584135Y-86259076D01*
X101670837Y-86378412D01*
X101821160Y-86528735D01*
X101993126Y-86653674D01*
X101993128Y-86653675D01*
X101993131Y-86653677D01*
X102182535Y-86750183D01*
X102384704Y-86815872D01*
X102594660Y-86849126D01*
X102594661Y-86849126D01*
X102807233Y-86849126D01*
X102807234Y-86849126D01*
X103017190Y-86815872D01*
X103148173Y-86773312D01*
X103203935Y-86755195D01*
X103242253Y-86749126D01*
X104699641Y-86749126D01*
X104737959Y-86755195D01*
X104810735Y-86778841D01*
X104924704Y-86815872D01*
X105134660Y-86849126D01*
X105134661Y-86849126D01*
X105347233Y-86849126D01*
X105347234Y-86849126D01*
X105557190Y-86815872D01*
X105688173Y-86773312D01*
X105743935Y-86755195D01*
X105782253Y-86749126D01*
X107239641Y-86749126D01*
X107277959Y-86755195D01*
X107350735Y-86778841D01*
X107464704Y-86815872D01*
X107674660Y-86849126D01*
X107674661Y-86849126D01*
X107887233Y-86849126D01*
X107887234Y-86849126D01*
X108097190Y-86815872D01*
X108228173Y-86773312D01*
X108283935Y-86755195D01*
X108322253Y-86749126D01*
X108401583Y-86749126D01*
X108401584Y-86749126D01*
X108598417Y-86749126D01*
X109779641Y-86749126D01*
X109817959Y-86755195D01*
X109890735Y-86778841D01*
X110004704Y-86815872D01*
X110214660Y-86849126D01*
X110214661Y-86849126D01*
X110427233Y-86849126D01*
X110427234Y-86849126D01*
X110637190Y-86815872D01*
X110768173Y-86773312D01*
X110823935Y-86755195D01*
X110862253Y-86749126D01*
X112319641Y-86749126D01*
X112357959Y-86755195D01*
X112430735Y-86778841D01*
X112544704Y-86815872D01*
X112754660Y-86849126D01*
X112754661Y-86849126D01*
X112967233Y-86849126D01*
X112967234Y-86849126D01*
X113177190Y-86815872D01*
X113379359Y-86750183D01*
X113568763Y-86653677D01*
X113655422Y-86590716D01*
X113740733Y-86528735D01*
X113740735Y-86528732D01*
X113740739Y-86528730D01*
X113891051Y-86378418D01*
X113891053Y-86378414D01*
X113891056Y-86378412D01*
X114015997Y-86206443D01*
X114032709Y-86173645D01*
X114105142Y-86031486D01*
X114127946Y-86000100D01*
X114237823Y-85890224D01*
X114237823Y-85890223D01*
X114237828Y-85890219D01*
X114353524Y-85730978D01*
X114442883Y-85555599D01*
X114503709Y-85368400D01*
X114520504Y-85262358D01*
X114534500Y-85173995D01*
X114534500Y-84977151D01*
X114514262Y-84849377D01*
X114503709Y-84782747D01*
X114442883Y-84595547D01*
X114442881Y-84595544D01*
X114442880Y-84595539D01*
X114353525Y-84420169D01*
X114259993Y-84291435D01*
X114237828Y-84260928D01*
X114136758Y-84159858D01*
X122846116Y-84159858D01*
X122856609Y-84262569D01*
X122911756Y-84428991D01*
X122911758Y-84428996D01*
X123003799Y-84578217D01*
X123127769Y-84702187D01*
X123276990Y-84794228D01*
X123276995Y-84794230D01*
X123443417Y-84849377D01*
X123521114Y-84857315D01*
X123521115Y-84857314D01*
X123521115Y-84059872D01*
X122846116Y-84059872D01*
X122846116Y-84159858D01*
X114136758Y-84159858D01*
X114098645Y-84121745D01*
X114013485Y-84059872D01*
X113939403Y-84006047D01*
X113764033Y-83916692D01*
X113722052Y-83903051D01*
X113576826Y-83855864D01*
X113576820Y-83855863D01*
X113382421Y-83825073D01*
X113382416Y-83825073D01*
X113185583Y-83825073D01*
X113185578Y-83825073D01*
X112991178Y-83855863D01*
X112991176Y-83855863D01*
X112991173Y-83855864D01*
X112897573Y-83886277D01*
X112803969Y-83916691D01*
X112628593Y-84006050D01*
X112628590Y-84006051D01*
X112469355Y-84121744D01*
X112469354Y-84121745D01*
X112379289Y-84211808D01*
X112317967Y-84245292D01*
X112291610Y-84248126D01*
X110862253Y-84248126D01*
X110823935Y-84242057D01*
X110637187Y-84181379D01*
X110475904Y-84155834D01*
X110427234Y-84148126D01*
X110214660Y-84148126D01*
X110175149Y-84154383D01*
X110004706Y-84181379D01*
X109817959Y-84242057D01*
X109779641Y-84248126D01*
X109069337Y-84248126D01*
X109002298Y-84228441D01*
X108981656Y-84211807D01*
X108515858Y-83746009D01*
X107929733Y-83159885D01*
X122846115Y-83159885D01*
X122846115Y-83259872D01*
X123521115Y-83259872D01*
X123521115Y-82462429D01*
X123521114Y-82462428D01*
X124321115Y-82462428D01*
X124321115Y-84857314D01*
X124398810Y-84849378D01*
X124398813Y-84849377D01*
X124565234Y-84794230D01*
X124565239Y-84794228D01*
X124714460Y-84702187D01*
X124838433Y-84578214D01*
X124840280Y-84575220D01*
X124842084Y-84573596D01*
X124842913Y-84572549D01*
X124843091Y-84572690D01*
X124892225Y-84528493D01*
X124961188Y-84517268D01*
X125025271Y-84545108D01*
X125051358Y-84575213D01*
X125053403Y-84578528D01*
X125177459Y-84702584D01*
X125326781Y-84794686D01*
X125493318Y-84849871D01*
X125596106Y-84860372D01*
X126346123Y-84860371D01*
X126346131Y-84860370D01*
X126346134Y-84860370D01*
X126402417Y-84854620D01*
X126448912Y-84849871D01*
X126615449Y-84794686D01*
X126764771Y-84702584D01*
X126888827Y-84578528D01*
X126980929Y-84429206D01*
X127036114Y-84262669D01*
X127046615Y-84159881D01*
X127046614Y-83159864D01*
X127041918Y-83113897D01*
X127036114Y-83057075D01*
X127036113Y-83057072D01*
X127004766Y-82962473D01*
X126980929Y-82890538D01*
X126888827Y-82741216D01*
X126867170Y-82719559D01*
X126862831Y-82711614D01*
X126855583Y-82706188D01*
X126846347Y-82681425D01*
X126833685Y-82658236D01*
X126834330Y-82649205D01*
X126831167Y-82640723D01*
X126836783Y-82614902D01*
X126838669Y-82588544D01*
X126844487Y-82579490D01*
X126846019Y-82572450D01*
X126867164Y-82544203D01*
X126928321Y-82483046D01*
X126989643Y-82449564D01*
X127059335Y-82454549D01*
X127103681Y-82483049D01*
X127197344Y-82576712D01*
X127346666Y-82668814D01*
X127513203Y-82723999D01*
X127615991Y-82734500D01*
X128416008Y-82734499D01*
X128416016Y-82734498D01*
X128416019Y-82734498D01*
X128472302Y-82728748D01*
X128518797Y-82723999D01*
X128685334Y-82668814D01*
X128834656Y-82576712D01*
X128958712Y-82452656D01*
X128967179Y-82438927D01*
X128980457Y-82417403D01*
X129032405Y-82370678D01*
X129085995Y-82358500D01*
X130757243Y-82358500D01*
X130824282Y-82378185D01*
X130870037Y-82430989D01*
X130880646Y-82470347D01*
X130889142Y-82556616D01*
X130908554Y-82654206D01*
X130908559Y-82654228D01*
X130916499Y-82685334D01*
X130921936Y-82706634D01*
X130984033Y-82836424D01*
X130984034Y-82836426D01*
X130984035Y-82836427D01*
X131018312Y-82887727D01*
X131039310Y-82919152D01*
X131071739Y-82962473D01*
X131178778Y-83058620D01*
X131254318Y-83109094D01*
X131261506Y-83113897D01*
X131308042Y-83141508D01*
X131308043Y-83141509D01*
X131443719Y-83189374D01*
X131443721Y-83189374D01*
X131443726Y-83189376D01*
X131541310Y-83208787D01*
X131639930Y-83218500D01*
X131639932Y-83218500D01*
X132544426Y-83218500D01*
X132611465Y-83238185D01*
X132657220Y-83290989D01*
X132658987Y-83295047D01*
X132691915Y-83374544D01*
X132790465Y-83522034D01*
X132790468Y-83522038D01*
X132915891Y-83647461D01*
X132915895Y-83647464D01*
X133063376Y-83746009D01*
X133063389Y-83746016D01*
X133148859Y-83781418D01*
X133227264Y-83813894D01*
X133227266Y-83813894D01*
X133227271Y-83813896D01*
X133401234Y-83848499D01*
X133401237Y-83848500D01*
X133401239Y-83848500D01*
X133578623Y-83848500D01*
X133578624Y-83848499D01*
X133636612Y-83836964D01*
X133752588Y-83813896D01*
X133752591Y-83813894D01*
X133752596Y-83813894D01*
X133916477Y-83746013D01*
X134063965Y-83647464D01*
X134189394Y-83522035D01*
X134287943Y-83374547D01*
X134355824Y-83210666D01*
X134360060Y-83189374D01*
X134378894Y-83094682D01*
X134390430Y-83036691D01*
X134390430Y-82859309D01*
X134390430Y-82859306D01*
X134390429Y-82859304D01*
X134355826Y-82685341D01*
X134355824Y-82685338D01*
X134355824Y-82685334D01*
X134349367Y-82669746D01*
X134339930Y-82622298D01*
X134339930Y-82056527D01*
X134371522Y-82088119D01*
X134508339Y-82167111D01*
X134660939Y-82208000D01*
X134818921Y-82208000D01*
X134971521Y-82167111D01*
X135108338Y-82088119D01*
X135139930Y-82056527D01*
X135139930Y-83147505D01*
X135258144Y-83109096D01*
X135258150Y-83109094D01*
X135447487Y-83012620D01*
X135619389Y-82887727D01*
X135619394Y-82887723D01*
X135769653Y-82737464D01*
X135769657Y-82737459D01*
X135894550Y-82565557D01*
X135991025Y-82376217D01*
X136056687Y-82174127D01*
X136083000Y-82008000D01*
X135188457Y-82008000D01*
X135220049Y-81976408D01*
X135299041Y-81839591D01*
X135339930Y-81686991D01*
X135339930Y-81529009D01*
X135299041Y-81376409D01*
X135220049Y-81239592D01*
X135188457Y-81208000D01*
X136083000Y-81208000D01*
X136056687Y-81041872D01*
X135991025Y-80839782D01*
X135894550Y-80650442D01*
X135769657Y-80478540D01*
X135769653Y-80478535D01*
X135619394Y-80328276D01*
X135619389Y-80328272D01*
X135447487Y-80203379D01*
X135258152Y-80106907D01*
X135139930Y-80068494D01*
X135139930Y-81159473D01*
X135108338Y-81127881D01*
X134971521Y-81048889D01*
X134818921Y-81008000D01*
X134660939Y-81008000D01*
X134508339Y-81048889D01*
X134371522Y-81127881D01*
X134339930Y-81159473D01*
X134339930Y-80068494D01*
X134339929Y-80068494D01*
X134221707Y-80106907D01*
X134032372Y-80203379D01*
X133860471Y-80328271D01*
X133721136Y-80467606D01*
X133695136Y-80481802D01*
X133670508Y-80498259D01*
X133664811Y-80498360D01*
X133659813Y-80501090D01*
X133630270Y-80498977D01*
X133600649Y-80499506D01*
X133595802Y-80496512D01*
X133590121Y-80496106D01*
X133566407Y-80478353D01*
X133541206Y-80462786D01*
X133536796Y-80456186D01*
X133534188Y-80454234D01*
X133521598Y-80433440D01*
X133502573Y-80393675D01*
X133490430Y-80340159D01*
X133490430Y-80264406D01*
X133510115Y-80197367D01*
X133526749Y-80176725D01*
X134647319Y-79056155D01*
X134708642Y-79022670D01*
X134778334Y-79027654D01*
X134822681Y-79056155D01*
X135428354Y-79661828D01*
X135587595Y-79777524D01*
X135670454Y-79819742D01*
X135762969Y-79866882D01*
X135762971Y-79866882D01*
X135762974Y-79866884D01*
X135863318Y-79899487D01*
X135950173Y-79927709D01*
X136144578Y-79958500D01*
X136144583Y-79958500D01*
X141390422Y-79958500D01*
X141584826Y-79927709D01*
X141772026Y-79866884D01*
X141947405Y-79777524D01*
X142106646Y-79661828D01*
X143381656Y-78386818D01*
X143442979Y-78353333D01*
X143469337Y-78350499D01*
X143800002Y-78350499D01*
X143800008Y-78350499D01*
X143902797Y-78339999D01*
X144069334Y-78284814D01*
X144218656Y-78192712D01*
X144342712Y-78068656D01*
X144434814Y-77919334D01*
X144489999Y-77752797D01*
X144500500Y-77650009D01*
X144500499Y-76349992D01*
X144496207Y-76307980D01*
X144489999Y-76247203D01*
X144489998Y-76247200D01*
X144476082Y-76205204D01*
X144434814Y-76080666D01*
X144342712Y-75931344D01*
X144218656Y-75807288D01*
X144069334Y-75715186D01*
X144069332Y-75715185D01*
X144063440Y-75711551D01*
X144016716Y-75659603D01*
X144005493Y-75590641D01*
X144033337Y-75526558D01*
X144040856Y-75518330D01*
X144179728Y-75379458D01*
X144304620Y-75207557D01*
X144401092Y-75018222D01*
X144439506Y-74900000D01*
X143307106Y-74900000D01*
X143400099Y-74807007D01*
X143465925Y-74692993D01*
X143500000Y-74565826D01*
X143500000Y-74434174D01*
X143465925Y-74307007D01*
X143400099Y-74192993D01*
X143307106Y-74100000D01*
X143400000Y-74100000D01*
X144439506Y-74100000D01*
X144439505Y-74099999D01*
X144401092Y-73981777D01*
X144304620Y-73792442D01*
X144179727Y-73620540D01*
X144179723Y-73620535D01*
X144029464Y-73470276D01*
X144029459Y-73470272D01*
X143857557Y-73345379D01*
X143668215Y-73248903D01*
X143466124Y-73183241D01*
X143400000Y-73172768D01*
X143400000Y-74100000D01*
X143307106Y-74100000D01*
X143307007Y-74099901D01*
X143192993Y-74034075D01*
X143065826Y-74000000D01*
X142934174Y-74000000D01*
X142807007Y-74034075D01*
X142692993Y-74099901D01*
X142599901Y-74192993D01*
X142534075Y-74307007D01*
X142500000Y-74434174D01*
X142500000Y-74565826D01*
X142534075Y-74692993D01*
X142599901Y-74807007D01*
X142692894Y-74900000D01*
X141560494Y-74900000D01*
X141598907Y-75018222D01*
X141695379Y-75207557D01*
X141820272Y-75379459D01*
X141820276Y-75379464D01*
X141959143Y-75518331D01*
X141992628Y-75579654D01*
X141987644Y-75649346D01*
X141945772Y-75705279D01*
X141936559Y-75711551D01*
X141781342Y-75807289D01*
X141657289Y-75931342D01*
X141565187Y-76080663D01*
X141565186Y-76080666D01*
X141510001Y-76247203D01*
X141510001Y-76247204D01*
X141510000Y-76247204D01*
X141499500Y-76349983D01*
X141499500Y-76680663D01*
X141479815Y-76747702D01*
X141463181Y-76768344D01*
X140810345Y-77421181D01*
X140783417Y-77435884D01*
X140757599Y-77452477D01*
X140751398Y-77453368D01*
X140749022Y-77454666D01*
X140722664Y-77457500D01*
X140708850Y-77457500D01*
X140641811Y-77437815D01*
X140596056Y-77385011D01*
X140586112Y-77315853D01*
X140591141Y-77294507D01*
X140618880Y-77210797D01*
X140629381Y-77108009D01*
X140629380Y-76307992D01*
X140623170Y-76247204D01*
X140618880Y-76205203D01*
X140618879Y-76205200D01*
X140577611Y-76080663D01*
X140563695Y-76038666D01*
X140473446Y-75892348D01*
X140455007Y-75824958D01*
X140475930Y-75758295D01*
X140484410Y-75747969D01*
X140484234Y-75747830D01*
X140488705Y-75742173D01*
X140488712Y-75742167D01*
X140580814Y-75592845D01*
X140635999Y-75426308D01*
X140646500Y-75323520D01*
X140646499Y-74573503D01*
X140644478Y-74553722D01*
X140635999Y-74470714D01*
X140635998Y-74470711D01*
X140623891Y-74434174D01*
X140580814Y-74304177D01*
X140488712Y-74154855D01*
X140433856Y-74099999D01*
X141560494Y-74099999D01*
X141560494Y-74100000D01*
X142600000Y-74100000D01*
X142600000Y-73172768D01*
X142599999Y-73172768D01*
X142533875Y-73183241D01*
X142331784Y-73248903D01*
X142142442Y-73345379D01*
X141970540Y-73470272D01*
X141970535Y-73470276D01*
X141820276Y-73620535D01*
X141820272Y-73620540D01*
X141695379Y-73792442D01*
X141598907Y-73981777D01*
X141560494Y-74099999D01*
X140433856Y-74099999D01*
X140364656Y-74030799D01*
X140361342Y-74028754D01*
X140359546Y-74026759D01*
X140358989Y-74026318D01*
X140359064Y-74026222D01*
X140314618Y-73976808D01*
X140303397Y-73907845D01*
X140331240Y-73843763D01*
X140361348Y-73817676D01*
X140364342Y-73815829D01*
X140488315Y-73691856D01*
X140580356Y-73542635D01*
X140580358Y-73542630D01*
X140635505Y-73376208D01*
X140635506Y-73376201D01*
X140643444Y-73298511D01*
X138248557Y-73298511D01*
X138256494Y-73376208D01*
X138311641Y-73542630D01*
X138311643Y-73542635D01*
X138403684Y-73691856D01*
X138527655Y-73815827D01*
X138527659Y-73815830D01*
X138530656Y-73817679D01*
X138532279Y-73819483D01*
X138533323Y-73820309D01*
X138533181Y-73820487D01*
X138577381Y-73869627D01*
X138588602Y-73938590D01*
X138560759Y-74002672D01*
X138530661Y-74028752D01*
X138527349Y-74030794D01*
X138527343Y-74030799D01*
X138403289Y-74154853D01*
X138311187Y-74304174D01*
X138311186Y-74304177D01*
X138256001Y-74470714D01*
X138256001Y-74470715D01*
X138256000Y-74470715D01*
X138245500Y-74573494D01*
X138245500Y-75323512D01*
X138245501Y-75323530D01*
X138256000Y-75426307D01*
X138256001Y-75426310D01*
X138311185Y-75592842D01*
X138311189Y-75592851D01*
X138401433Y-75739160D01*
X138419873Y-75806552D01*
X138398950Y-75873216D01*
X138390471Y-75883542D01*
X138390647Y-75883681D01*
X138386171Y-75889341D01*
X138294068Y-76038663D01*
X138294066Y-76038668D01*
X138280149Y-76080668D01*
X138238882Y-76205203D01*
X138238882Y-76205204D01*
X138238881Y-76205204D01*
X138228381Y-76307983D01*
X138228381Y-77108001D01*
X138228382Y-77108019D01*
X138238881Y-77210796D01*
X138238882Y-77210799D01*
X138266617Y-77294496D01*
X138269019Y-77364324D01*
X138233287Y-77424366D01*
X138170767Y-77455559D01*
X138148911Y-77457500D01*
X136812336Y-77457500D01*
X136745297Y-77437815D01*
X136724655Y-77421181D01*
X136471551Y-77168077D01*
X136438066Y-77106754D01*
X136436068Y-77092561D01*
X136436030Y-77092567D01*
X136406405Y-76867547D01*
X136406404Y-76867537D01*
X136348710Y-76652219D01*
X136263405Y-76446274D01*
X136151948Y-76253226D01*
X136115097Y-76205200D01*
X136013776Y-76073155D01*
X136014501Y-76072598D01*
X135986866Y-76013001D01*
X135985500Y-75994644D01*
X135985500Y-75005355D01*
X136005185Y-74938316D01*
X136013806Y-74926868D01*
X136013776Y-74926845D01*
X136067379Y-74856985D01*
X136151948Y-74746774D01*
X136263405Y-74553726D01*
X136348710Y-74347781D01*
X136406404Y-74132463D01*
X136435500Y-73911457D01*
X136435500Y-73688543D01*
X136406404Y-73467537D01*
X136348710Y-73252219D01*
X136347336Y-73248903D01*
X136263406Y-73046277D01*
X136263405Y-73046274D01*
X136151948Y-72853226D01*
X136016247Y-72676376D01*
X136016242Y-72676370D01*
X135858629Y-72518757D01*
X135858622Y-72518751D01*
X135832245Y-72498511D01*
X138248556Y-72498511D01*
X139046000Y-72498511D01*
X139846000Y-72498511D01*
X140643443Y-72498511D01*
X140643443Y-72498510D01*
X140635505Y-72420813D01*
X140580358Y-72254391D01*
X140580356Y-72254386D01*
X140488315Y-72105165D01*
X140364345Y-71981195D01*
X140215124Y-71889154D01*
X140215119Y-71889152D01*
X140048697Y-71834005D01*
X140048690Y-71834004D01*
X139945986Y-71823511D01*
X139846000Y-71823511D01*
X139846000Y-72498511D01*
X139046000Y-72498511D01*
X139046000Y-71823510D01*
X138946028Y-71823511D01*
X138946012Y-71823512D01*
X138843302Y-71834005D01*
X138676880Y-71889152D01*
X138676875Y-71889154D01*
X138527654Y-71981195D01*
X138403684Y-72105165D01*
X138311643Y-72254386D01*
X138311641Y-72254391D01*
X138256494Y-72420813D01*
X138256493Y-72420820D01*
X138248556Y-72498511D01*
X135832245Y-72498511D01*
X135681782Y-72383058D01*
X135681780Y-72383057D01*
X135681774Y-72383052D01*
X135488726Y-72271595D01*
X135488722Y-72271593D01*
X135282790Y-72186293D01*
X135282783Y-72186291D01*
X135282781Y-72186290D01*
X135067463Y-72128596D01*
X135067457Y-72128595D01*
X135067452Y-72128594D01*
X134846466Y-72099501D01*
X134846463Y-72099500D01*
X134846457Y-72099500D01*
X134623543Y-72099500D01*
X134623537Y-72099500D01*
X134623533Y-72099501D01*
X134402547Y-72128594D01*
X134402540Y-72128595D01*
X134402537Y-72128596D01*
X134187219Y-72186290D01*
X134187209Y-72186293D01*
X133981277Y-72271593D01*
X133981273Y-72271595D01*
X133788226Y-72383052D01*
X133788217Y-72383058D01*
X133611377Y-72518751D01*
X133611370Y-72518757D01*
X133453757Y-72676370D01*
X133453751Y-72676377D01*
X133318058Y-72853217D01*
X133318052Y-72853226D01*
X133206595Y-73046273D01*
X133206593Y-73046277D01*
X133121293Y-73252209D01*
X133121290Y-73252219D01*
X133088068Y-73376208D01*
X133063597Y-73467534D01*
X133063594Y-73467547D01*
X133034501Y-73688533D01*
X133034500Y-73688549D01*
X133034500Y-73911450D01*
X133034501Y-73911466D01*
X133063594Y-74132452D01*
X133063595Y-74132457D01*
X133063596Y-74132463D01*
X133109607Y-74304179D01*
X133121290Y-74347780D01*
X133121293Y-74347790D01*
X133206593Y-74553722D01*
X133206595Y-74553726D01*
X133318052Y-74746774D01*
X133318057Y-74746780D01*
X133318058Y-74746782D01*
X133456224Y-74926845D01*
X133455494Y-74927404D01*
X133483131Y-74986977D01*
X133484500Y-75005355D01*
X133484500Y-75994644D01*
X133464815Y-76061683D01*
X133456193Y-76073131D01*
X133456224Y-76073155D01*
X133318058Y-76253217D01*
X133318052Y-76253226D01*
X133206595Y-76446273D01*
X133206593Y-76446277D01*
X133121293Y-76652209D01*
X133121290Y-76652219D01*
X133113669Y-76680663D01*
X133063597Y-76867534D01*
X133063594Y-76867547D01*
X133033970Y-77092567D01*
X133033065Y-77092447D01*
X133010458Y-77154137D01*
X132998448Y-77168077D01*
X131286104Y-78880421D01*
X131286104Y-78880422D01*
X131286102Y-78880424D01*
X131271516Y-78900500D01*
X131170406Y-79039664D01*
X131080599Y-79215921D01*
X131079538Y-79219682D01*
X131020221Y-79402239D01*
X131020221Y-79402242D01*
X130989430Y-79596647D01*
X130989430Y-80336462D01*
X130972072Y-80399735D01*
X130956421Y-80426112D01*
X130956420Y-80426113D01*
X130908555Y-80561789D01*
X130908554Y-80561796D01*
X130889142Y-80659383D01*
X130880646Y-80745653D01*
X130854486Y-80810441D01*
X130797451Y-80850800D01*
X130757243Y-80857500D01*
X129171117Y-80857500D01*
X129104078Y-80837815D01*
X129058323Y-80785011D01*
X129053412Y-80772505D01*
X129050817Y-80764674D01*
X129050815Y-80764671D01*
X129050814Y-80764666D01*
X128958712Y-80615344D01*
X128834656Y-80491288D01*
X128685334Y-80399186D01*
X128518797Y-80344001D01*
X128518795Y-80344000D01*
X128416010Y-80333500D01*
X127615998Y-80333500D01*
X127615980Y-80333501D01*
X127513203Y-80344000D01*
X127513200Y-80344001D01*
X127346668Y-80399185D01*
X127346663Y-80399187D01*
X127197342Y-80491289D01*
X127103681Y-80584951D01*
X127042358Y-80618436D01*
X126972666Y-80613452D01*
X126928319Y-80584951D01*
X126834657Y-80491289D01*
X126834656Y-80491288D01*
X126685334Y-80399186D01*
X126518797Y-80344001D01*
X126518795Y-80344000D01*
X126416010Y-80333500D01*
X125615998Y-80333500D01*
X125615980Y-80333501D01*
X125513203Y-80344000D01*
X125513200Y-80344001D01*
X125346668Y-80399185D01*
X125346663Y-80399187D01*
X125197342Y-80491289D01*
X125073289Y-80615342D01*
X124981187Y-80764663D01*
X124981185Y-80764668D01*
X124956947Y-80837815D01*
X124926001Y-80931203D01*
X124926001Y-80931204D01*
X124926000Y-80931204D01*
X124915500Y-81033983D01*
X124915500Y-82034001D01*
X124915501Y-82034019D01*
X124926000Y-82136796D01*
X124926001Y-82136799D01*
X124981185Y-82303331D01*
X124981187Y-82303336D01*
X125073289Y-82452657D01*
X125119944Y-82499312D01*
X125123278Y-82505418D01*
X125128985Y-82509399D01*
X125139806Y-82535687D01*
X125153429Y-82560635D01*
X125152932Y-82567574D01*
X125155581Y-82574008D01*
X125150472Y-82601970D01*
X125148445Y-82630327D01*
X125143973Y-82637547D01*
X125143025Y-82642741D01*
X125127192Y-82664646D01*
X125122832Y-82671688D01*
X125121404Y-82673214D01*
X125053403Y-82741216D01*
X125044856Y-82755072D01*
X125036390Y-82764126D01*
X125016542Y-82775843D01*
X124999406Y-82791255D01*
X124987024Y-82793269D01*
X124976223Y-82799646D01*
X124953193Y-82798772D01*
X124930443Y-82802474D01*
X124918937Y-82797474D01*
X124906404Y-82796999D01*
X124887501Y-82783813D01*
X124866362Y-82774627D01*
X124854184Y-82760572D01*
X124849099Y-82757025D01*
X124847277Y-82752601D01*
X124840283Y-82744528D01*
X124838434Y-82741531D01*
X124838431Y-82741527D01*
X124714460Y-82617556D01*
X124565239Y-82525515D01*
X124565234Y-82525513D01*
X124398812Y-82470366D01*
X124398805Y-82470365D01*
X124321115Y-82462428D01*
X123521114Y-82462428D01*
X123443417Y-82470366D01*
X123276995Y-82525513D01*
X123276990Y-82525515D01*
X123127769Y-82617556D01*
X123003799Y-82741526D01*
X122911758Y-82890747D01*
X122911756Y-82890752D01*
X122856609Y-83057174D01*
X122856608Y-83057181D01*
X122846115Y-83159885D01*
X107929733Y-83159885D01*
X107815333Y-83045485D01*
X107815332Y-83045484D01*
X104316020Y-79546172D01*
X104156779Y-79430476D01*
X104101361Y-79402239D01*
X103981404Y-79341117D01*
X103794200Y-79280290D01*
X103599796Y-79249500D01*
X103599791Y-79249500D01*
X84569336Y-79249500D01*
X84502297Y-79229815D01*
X84481655Y-79213181D01*
X83978460Y-78709986D01*
X114170001Y-78709986D01*
X114180494Y-78812697D01*
X114235641Y-78979119D01*
X114235643Y-78979124D01*
X114327684Y-79128345D01*
X114451654Y-79252315D01*
X114600875Y-79344356D01*
X114600880Y-79344358D01*
X114767302Y-79399505D01*
X114767309Y-79399506D01*
X114870019Y-79409999D01*
X115169999Y-79409999D01*
X115970000Y-79409999D01*
X116269972Y-79409999D01*
X116269986Y-79409998D01*
X116372697Y-79399505D01*
X116539119Y-79344358D01*
X116539124Y-79344356D01*
X116688345Y-79252315D01*
X116812315Y-79128345D01*
X116904356Y-78979124D01*
X116904358Y-78979119D01*
X116959505Y-78812697D01*
X116959506Y-78812690D01*
X116969999Y-78709986D01*
X116970000Y-78709973D01*
X116970000Y-78060000D01*
X115970000Y-78060000D01*
X115970000Y-79409999D01*
X115169999Y-79409999D01*
X115170000Y-79409998D01*
X115170000Y-78060000D01*
X114170001Y-78060000D01*
X114170001Y-78709986D01*
X83978460Y-78709986D01*
X81878487Y-76610013D01*
X114170000Y-76610013D01*
X114170000Y-77260000D01*
X115170000Y-77260000D01*
X115970000Y-77260000D01*
X116969999Y-77260000D01*
X116969999Y-76610028D01*
X116969998Y-76610013D01*
X116959505Y-76507302D01*
X116904358Y-76340880D01*
X116904356Y-76340875D01*
X116812315Y-76191654D01*
X116688345Y-76067684D01*
X116539124Y-75975643D01*
X116539119Y-75975641D01*
X116372697Y-75920494D01*
X116372690Y-75920493D01*
X116269986Y-75910000D01*
X115970000Y-75910000D01*
X115970000Y-77260000D01*
X115170000Y-77260000D01*
X115170000Y-75910000D01*
X114870028Y-75910000D01*
X114870012Y-75910001D01*
X114767302Y-75920494D01*
X114600880Y-75975641D01*
X114600875Y-75975643D01*
X114451654Y-76067684D01*
X114327684Y-76191654D01*
X114235643Y-76340875D01*
X114235641Y-76340880D01*
X114180494Y-76507302D01*
X114180493Y-76507309D01*
X114170000Y-76610013D01*
X81878487Y-76610013D01*
X77286819Y-72018345D01*
X77253334Y-71957022D01*
X77250500Y-71930664D01*
X77250500Y-54272013D01*
X79480000Y-54272013D01*
X79480000Y-54972000D01*
X80765523Y-54972000D01*
X80703978Y-55064110D01*
X80654979Y-55182402D01*
X80630000Y-55307981D01*
X80630000Y-55436019D01*
X80654979Y-55561598D01*
X80703978Y-55679890D01*
X80765523Y-55772000D01*
X79480001Y-55772000D01*
X79480001Y-56471986D01*
X79490494Y-56574697D01*
X79545641Y-56741119D01*
X79545643Y-56741124D01*
X79637684Y-56890345D01*
X79761654Y-57014315D01*
X79910875Y-57106356D01*
X79910880Y-57106358D01*
X80077302Y-57161505D01*
X80077309Y-57161506D01*
X80180019Y-57171999D01*
X80879999Y-57171999D01*
X80880000Y-57171998D01*
X80880000Y-55886476D01*
X80972110Y-55948022D01*
X81090402Y-55997021D01*
X81215981Y-56022000D01*
X81344019Y-56022000D01*
X81469598Y-55997021D01*
X81587890Y-55948022D01*
X81680000Y-55886476D01*
X81680000Y-57171999D01*
X82379972Y-57171999D01*
X82379986Y-57171998D01*
X82482697Y-57161505D01*
X82649119Y-57106358D01*
X82649124Y-57106356D01*
X82798345Y-57014315D01*
X82922315Y-56890345D01*
X83014356Y-56741124D01*
X83014358Y-56741119D01*
X83069505Y-56574697D01*
X83069506Y-56574690D01*
X83079999Y-56471986D01*
X83080000Y-56471973D01*
X83080000Y-55772000D01*
X81794477Y-55772000D01*
X81856022Y-55679890D01*
X81905021Y-55561598D01*
X81930000Y-55436019D01*
X81930000Y-55307981D01*
X81905021Y-55182402D01*
X81856022Y-55064110D01*
X81794477Y-54972000D01*
X83079999Y-54972000D01*
X83079999Y-54272028D01*
X83079998Y-54272013D01*
X83069505Y-54169302D01*
X83014358Y-54002880D01*
X83014356Y-54002875D01*
X82922315Y-53853654D01*
X82798345Y-53729684D01*
X82649124Y-53637643D01*
X82649119Y-53637641D01*
X82482697Y-53582494D01*
X82482690Y-53582493D01*
X82379986Y-53572000D01*
X81680000Y-53572000D01*
X81680000Y-54857523D01*
X81587890Y-54795978D01*
X81469598Y-54746979D01*
X81344019Y-54722000D01*
X81215981Y-54722000D01*
X81090402Y-54746979D01*
X80972110Y-54795978D01*
X80880000Y-54857523D01*
X80880000Y-53572000D01*
X80180028Y-53572000D01*
X80180012Y-53572001D01*
X80077302Y-53582494D01*
X79910880Y-53637641D01*
X79910875Y-53637643D01*
X79761654Y-53729684D01*
X79637684Y-53853654D01*
X79545643Y-54002875D01*
X79545641Y-54002880D01*
X79490494Y-54169302D01*
X79490493Y-54169309D01*
X79480000Y-54272013D01*
X77250500Y-54272013D01*
X77250500Y-52213538D01*
X77270185Y-52146499D01*
X77322989Y-52100744D01*
X77392147Y-52090800D01*
X77439597Y-52108000D01*
X77569869Y-52188353D01*
X77569880Y-52188358D01*
X77736302Y-52243505D01*
X77813999Y-52251443D01*
X77814000Y-52251442D01*
X77814000Y-49856557D01*
X77813999Y-49856556D01*
X77736302Y-49864494D01*
X77569880Y-49919641D01*
X77569875Y-49919643D01*
X77439597Y-50000000D01*
X77372204Y-50018440D01*
X77305541Y-49997517D01*
X77260771Y-49943875D01*
X77250500Y-49894461D01*
X77250500Y-28569336D01*
X77270185Y-28502297D01*
X77286819Y-28481655D01*
X77981655Y-27786819D01*
X78042978Y-27753334D01*
X78069336Y-27750500D01*
X84625500Y-27750500D01*
X84692539Y-27770185D01*
X84738294Y-27822989D01*
X84749500Y-27874500D01*
X84749500Y-31208101D01*
X84729815Y-31275140D01*
X84677011Y-31320895D01*
X84607853Y-31330839D01*
X84550014Y-31306477D01*
X84434783Y-31218058D01*
X84434777Y-31218054D01*
X84434774Y-31218052D01*
X84241726Y-31106595D01*
X84241722Y-31106593D01*
X84035790Y-31021293D01*
X84035783Y-31021291D01*
X84035781Y-31021290D01*
X83820463Y-30963596D01*
X83820457Y-30963595D01*
X83820452Y-30963594D01*
X83599466Y-30934501D01*
X83599463Y-30934500D01*
X83599457Y-30934500D01*
X83376543Y-30934500D01*
X83376537Y-30934500D01*
X83376533Y-30934501D01*
X83155547Y-30963594D01*
X83155540Y-30963595D01*
X83155537Y-30963596D01*
X83148062Y-30965599D01*
X82940219Y-31021290D01*
X82940209Y-31021293D01*
X82734277Y-31106593D01*
X82734273Y-31106595D01*
X82541226Y-31218052D01*
X82541217Y-31218058D01*
X82361155Y-31356224D01*
X82360595Y-31355494D01*
X82301023Y-31383131D01*
X82282645Y-31384500D01*
X81293355Y-31384500D01*
X81226316Y-31364815D01*
X81214868Y-31356193D01*
X81214845Y-31356224D01*
X81034782Y-31218058D01*
X81034780Y-31218057D01*
X81034774Y-31218052D01*
X80841726Y-31106595D01*
X80841722Y-31106593D01*
X80635790Y-31021293D01*
X80635783Y-31021291D01*
X80635781Y-31021290D01*
X80420463Y-30963596D01*
X80420457Y-30963595D01*
X80420452Y-30963594D01*
X80199466Y-30934501D01*
X80199463Y-30934500D01*
X80199457Y-30934500D01*
X79976543Y-30934500D01*
X79976537Y-30934500D01*
X79976533Y-30934501D01*
X79755547Y-30963594D01*
X79755540Y-30963595D01*
X79755537Y-30963596D01*
X79748062Y-30965599D01*
X79540219Y-31021290D01*
X79540209Y-31021293D01*
X79334277Y-31106593D01*
X79334273Y-31106595D01*
X79141226Y-31218052D01*
X79141217Y-31218058D01*
X78964377Y-31353751D01*
X78964370Y-31353757D01*
X78806757Y-31511370D01*
X78806751Y-31511377D01*
X78671058Y-31688217D01*
X78671052Y-31688226D01*
X78559595Y-31881273D01*
X78559593Y-31881277D01*
X78474293Y-32087209D01*
X78474290Y-32087219D01*
X78416597Y-32302534D01*
X78416594Y-32302547D01*
X78387501Y-32523533D01*
X78387500Y-32523549D01*
X78387500Y-32746450D01*
X78387501Y-32746466D01*
X78416594Y-32967452D01*
X78416595Y-32967457D01*
X78416596Y-32967463D01*
X78416597Y-32967465D01*
X78474290Y-33182780D01*
X78474293Y-33182790D01*
X78559593Y-33388722D01*
X78559595Y-33388726D01*
X78671052Y-33581774D01*
X78671057Y-33581780D01*
X78671058Y-33581782D01*
X78806751Y-33758622D01*
X78806757Y-33758629D01*
X78964370Y-33916242D01*
X78964377Y-33916248D01*
X79090294Y-34012867D01*
X79141226Y-34051948D01*
X79334274Y-34163405D01*
X79540219Y-34248710D01*
X79755537Y-34306404D01*
X79976543Y-34335500D01*
X79976550Y-34335500D01*
X80199450Y-34335500D01*
X80199457Y-34335500D01*
X80420463Y-34306404D01*
X80635781Y-34248710D01*
X80841726Y-34163405D01*
X81034774Y-34051948D01*
X81144985Y-33967379D01*
X81214845Y-33913776D01*
X81215404Y-33914505D01*
X81274977Y-33886869D01*
X81293355Y-33885500D01*
X82282645Y-33885500D01*
X82349684Y-33905185D01*
X82361131Y-33913806D01*
X82361155Y-33913776D01*
X82514749Y-34031632D01*
X82541226Y-34051948D01*
X82734274Y-34163405D01*
X82940219Y-34248710D01*
X83155537Y-34306404D01*
X83285821Y-34323556D01*
X83380567Y-34336030D01*
X83380447Y-34336941D01*
X83442112Y-34359523D01*
X83456077Y-34371551D01*
X86596529Y-37512003D01*
X86630014Y-37573326D01*
X86625030Y-37643018D01*
X86615583Y-37662801D01*
X86598257Y-37692100D01*
X86598254Y-37692107D01*
X86552402Y-37849926D01*
X86552401Y-37849932D01*
X86549500Y-37886798D01*
X86549500Y-38318201D01*
X86552401Y-38355067D01*
X86552402Y-38355073D01*
X86598254Y-38512893D01*
X86598255Y-38512896D01*
X86598256Y-38512898D01*
X86620992Y-38551342D01*
X86681917Y-38654362D01*
X86686702Y-38660531D01*
X86684256Y-38662427D01*
X86710857Y-38711142D01*
X86705873Y-38780834D01*
X86685069Y-38813203D01*
X86686702Y-38814469D01*
X86681917Y-38820637D01*
X86598255Y-38962103D01*
X86598254Y-38962106D01*
X86552402Y-39119926D01*
X86552401Y-39119932D01*
X86549500Y-39156798D01*
X86549500Y-39588201D01*
X86552401Y-39625067D01*
X86552402Y-39625073D01*
X86598254Y-39782893D01*
X86598255Y-39782896D01*
X86681917Y-39924362D01*
X86686702Y-39930531D01*
X86684256Y-39932427D01*
X86710857Y-39981142D01*
X86705873Y-40050834D01*
X86685069Y-40083203D01*
X86686702Y-40084469D01*
X86681917Y-40090637D01*
X86598255Y-40232103D01*
X86598254Y-40232106D01*
X86552402Y-40389926D01*
X86552401Y-40389932D01*
X86549500Y-40426798D01*
X86549500Y-40858201D01*
X86552401Y-40895067D01*
X86552402Y-40895073D01*
X86598254Y-41052893D01*
X86598255Y-41052896D01*
X86681917Y-41194362D01*
X86686702Y-41200531D01*
X86684256Y-41202427D01*
X86710857Y-41251142D01*
X86705873Y-41320834D01*
X86685069Y-41353203D01*
X86686702Y-41354469D01*
X86681917Y-41360637D01*
X86598255Y-41502103D01*
X86598254Y-41502106D01*
X86552402Y-41659926D01*
X86552401Y-41659932D01*
X86549500Y-41696798D01*
X86549500Y-42128201D01*
X86552401Y-42165067D01*
X86552402Y-42165073D01*
X86598254Y-42322893D01*
X86598255Y-42322896D01*
X86681917Y-42464362D01*
X86681923Y-42464370D01*
X86798129Y-42580576D01*
X86798133Y-42580579D01*
X86798135Y-42580581D01*
X86939602Y-42664244D01*
X87007678Y-42684022D01*
X87066561Y-42721626D01*
X87068007Y-42723442D01*
X87068008Y-42723442D01*
X87071168Y-42727142D01*
X87071171Y-42727145D01*
X87071172Y-42727146D01*
X87210354Y-42866328D01*
X87369595Y-42982024D01*
X87440151Y-43017974D01*
X87544970Y-43071382D01*
X87544972Y-43071382D01*
X87544975Y-43071384D01*
X87645317Y-43103987D01*
X87732173Y-43132209D01*
X87926578Y-43163000D01*
X87926583Y-43163000D01*
X88123422Y-43163000D01*
X88317826Y-43132209D01*
X88505025Y-43071384D01*
X88680405Y-42982024D01*
X88839646Y-42866328D01*
X88978828Y-42727146D01*
X88978832Y-42727140D01*
X88982000Y-42723433D01*
X88983615Y-42724813D01*
X89031892Y-42687561D01*
X89042305Y-42684026D01*
X89110398Y-42664244D01*
X89251865Y-42580581D01*
X89368081Y-42464365D01*
X89451744Y-42322898D01*
X89497598Y-42165069D01*
X89500500Y-42128194D01*
X89500500Y-41696806D01*
X89497598Y-41659931D01*
X89451744Y-41502102D01*
X89368081Y-41360635D01*
X89368078Y-41360632D01*
X89363298Y-41354469D01*
X89365750Y-41352566D01*
X89339155Y-41303921D01*
X89344104Y-41234226D01*
X89364940Y-41201804D01*
X89363298Y-41200531D01*
X89368075Y-41194370D01*
X89368081Y-41194365D01*
X89451744Y-41052898D01*
X89497598Y-40895069D01*
X89500500Y-40858194D01*
X89500500Y-40426806D01*
X89497598Y-40389931D01*
X89496402Y-40385815D01*
X89463836Y-40273724D01*
X89451744Y-40232102D01*
X89368081Y-40090635D01*
X89368078Y-40090632D01*
X89363298Y-40084469D01*
X89365750Y-40082566D01*
X89339155Y-40033921D01*
X89344104Y-39964226D01*
X89364940Y-39931804D01*
X89363298Y-39930531D01*
X89368075Y-39924370D01*
X89368081Y-39924365D01*
X89451744Y-39782898D01*
X89497598Y-39625069D01*
X89500500Y-39588194D01*
X89500500Y-39156806D01*
X89497598Y-39119931D01*
X89496402Y-39115815D01*
X89451745Y-38962106D01*
X89451744Y-38962103D01*
X89451744Y-38962102D01*
X89368081Y-38820635D01*
X89368078Y-38820632D01*
X89363298Y-38814469D01*
X89365750Y-38812566D01*
X89339155Y-38763921D01*
X89344104Y-38694226D01*
X89364940Y-38661804D01*
X89363298Y-38660531D01*
X89368075Y-38654370D01*
X89368081Y-38654365D01*
X89451744Y-38512898D01*
X89497598Y-38355069D01*
X89500500Y-38318194D01*
X89500500Y-37886806D01*
X89497598Y-37849931D01*
X89483818Y-37802500D01*
X91516704Y-37802500D01*
X92675000Y-37802500D01*
X93275000Y-37802500D01*
X94433296Y-37802500D01*
X94401281Y-37692301D01*
X94317685Y-37550947D01*
X94317678Y-37550938D01*
X94201561Y-37434821D01*
X94201552Y-37434814D01*
X94060196Y-37351217D01*
X94060193Y-37351216D01*
X93902495Y-37305400D01*
X93902489Y-37305399D01*
X93865649Y-37302500D01*
X93275000Y-37302500D01*
X93275000Y-37802500D01*
X92675000Y-37802500D01*
X92675000Y-37302500D01*
X92084350Y-37302500D01*
X92047510Y-37305399D01*
X92047504Y-37305400D01*
X91889806Y-37351216D01*
X91889803Y-37351217D01*
X91748447Y-37434814D01*
X91748438Y-37434821D01*
X91632321Y-37550938D01*
X91632314Y-37550947D01*
X91548718Y-37692301D01*
X91516704Y-37802500D01*
X89483818Y-37802500D01*
X89451744Y-37692102D01*
X89368081Y-37550635D01*
X89368079Y-37550633D01*
X89368076Y-37550629D01*
X89311819Y-37494372D01*
X89278334Y-37433049D01*
X89275500Y-37406691D01*
X89275500Y-36926577D01*
X89244709Y-36732173D01*
X89194346Y-36577173D01*
X89183884Y-36544975D01*
X89183882Y-36544972D01*
X89183882Y-36544970D01*
X89119896Y-36419391D01*
X89112043Y-36403979D01*
X89099148Y-36335312D01*
X89125424Y-36270571D01*
X89182531Y-36230314D01*
X89241925Y-36225213D01*
X89286507Y-36232274D01*
X89401578Y-36250500D01*
X89401583Y-36250500D01*
X94930664Y-36250500D01*
X94997703Y-36270185D01*
X95018345Y-36286819D01*
X95213181Y-36481655D01*
X95246666Y-36542978D01*
X95249500Y-36569336D01*
X95249500Y-37998000D01*
X95229815Y-38065039D01*
X95177011Y-38110794D01*
X95125500Y-38122000D01*
X92876578Y-38122000D01*
X92682173Y-38152790D01*
X92494970Y-38213617D01*
X92319594Y-38302976D01*
X92215208Y-38378818D01*
X92149401Y-38402298D01*
X92142322Y-38402500D01*
X91516704Y-38402500D01*
X91548718Y-38512698D01*
X91632314Y-38654052D01*
X91637100Y-38660222D01*
X91634640Y-38662129D01*
X91661210Y-38710788D01*
X91656226Y-38780480D01*
X91635162Y-38813281D01*
X91636699Y-38814474D01*
X91631915Y-38820640D01*
X91548255Y-38962103D01*
X91548254Y-38962106D01*
X91502402Y-39119926D01*
X91502401Y-39119932D01*
X91499500Y-39156798D01*
X91499500Y-39588201D01*
X91502401Y-39625067D01*
X91502402Y-39625073D01*
X91548254Y-39782893D01*
X91548255Y-39782896D01*
X91631917Y-39924362D01*
X91636702Y-39930531D01*
X91634256Y-39932427D01*
X91660857Y-39981142D01*
X91655873Y-40050834D01*
X91635069Y-40083203D01*
X91636702Y-40084469D01*
X91631917Y-40090637D01*
X91548255Y-40232103D01*
X91548254Y-40232106D01*
X91502402Y-40389926D01*
X91502401Y-40389932D01*
X91499500Y-40426798D01*
X91499500Y-40858201D01*
X91502401Y-40895067D01*
X91502402Y-40895073D01*
X91548254Y-41052893D01*
X91548255Y-41052896D01*
X91631917Y-41194362D01*
X91636702Y-41200531D01*
X91634256Y-41202427D01*
X91660857Y-41251142D01*
X91655873Y-41320834D01*
X91635069Y-41353203D01*
X91636702Y-41354469D01*
X91631917Y-41360637D01*
X91548255Y-41502103D01*
X91548254Y-41502106D01*
X91502402Y-41659926D01*
X91502401Y-41659932D01*
X91499500Y-41696798D01*
X91499500Y-42128201D01*
X91502401Y-42165067D01*
X91502402Y-42165073D01*
X91548254Y-42322893D01*
X91548255Y-42322896D01*
X91631917Y-42464362D01*
X91631923Y-42464370D01*
X91748129Y-42580576D01*
X91748133Y-42580579D01*
X91748135Y-42580581D01*
X91889602Y-42664244D01*
X91957678Y-42684022D01*
X92016561Y-42721626D01*
X92018007Y-42723442D01*
X92018008Y-42723442D01*
X92021168Y-42727142D01*
X92021171Y-42727145D01*
X92021172Y-42727146D01*
X92160354Y-42866328D01*
X92319595Y-42982024D01*
X92390151Y-43017974D01*
X92494970Y-43071382D01*
X92494972Y-43071382D01*
X92494975Y-43071384D01*
X92595317Y-43103987D01*
X92682173Y-43132209D01*
X92876578Y-43163000D01*
X92876583Y-43163000D01*
X93073422Y-43163000D01*
X93267826Y-43132209D01*
X93455025Y-43071384D01*
X93630405Y-42982024D01*
X93789646Y-42866328D01*
X93928828Y-42727146D01*
X93928832Y-42727140D01*
X93932000Y-42723433D01*
X93933615Y-42724813D01*
X93981892Y-42687561D01*
X93992305Y-42684026D01*
X94060398Y-42664244D01*
X94201865Y-42580581D01*
X94318081Y-42464365D01*
X94401744Y-42322898D01*
X94447598Y-42165069D01*
X94450500Y-42128194D01*
X94450500Y-41696806D01*
X94447598Y-41659931D01*
X94401744Y-41502102D01*
X94318081Y-41360635D01*
X94318078Y-41360632D01*
X94313298Y-41354469D01*
X94315750Y-41352566D01*
X94289155Y-41303921D01*
X94294104Y-41234226D01*
X94314940Y-41201804D01*
X94313298Y-41200531D01*
X94318075Y-41194370D01*
X94318081Y-41194365D01*
X94401744Y-41052898D01*
X94447598Y-40895069D01*
X94450500Y-40858194D01*
X94450500Y-40747000D01*
X94470185Y-40679961D01*
X94522989Y-40634206D01*
X94574500Y-40623000D01*
X96401583Y-40623000D01*
X102729164Y-40623000D01*
X102796203Y-40642685D01*
X102816845Y-40659319D01*
X105139181Y-42981655D01*
X105172666Y-43042978D01*
X105175500Y-43069336D01*
X105175500Y-53304819D01*
X105155815Y-53371858D01*
X105103011Y-53417613D01*
X105070898Y-53427292D01*
X104876380Y-53458101D01*
X104876379Y-53458101D01*
X104689632Y-53518779D01*
X104651314Y-53524848D01*
X103193926Y-53524848D01*
X103155608Y-53518779D01*
X102968860Y-53458101D01*
X102807577Y-53432556D01*
X102758907Y-53424848D01*
X102546333Y-53424848D01*
X102497662Y-53432556D01*
X102336380Y-53458101D01*
X102134205Y-53523792D01*
X101944799Y-53620299D01*
X101785227Y-53736232D01*
X101549498Y-51428563D01*
X87356500Y-52490680D01*
X87356500Y-51524499D01*
X87376185Y-51457460D01*
X87428989Y-51411705D01*
X87480500Y-51400499D01*
X88050002Y-51400499D01*
X88050008Y-51400499D01*
X88152797Y-51389999D01*
X88319334Y-51334814D01*
X88468656Y-51242712D01*
X88592712Y-51118656D01*
X88684814Y-50969334D01*
X88739999Y-50802797D01*
X88750500Y-50700009D01*
X88750500Y-50699986D01*
X89250001Y-50699986D01*
X89260494Y-50802697D01*
X89315641Y-50969119D01*
X89315643Y-50969124D01*
X89407684Y-51118345D01*
X89531654Y-51242315D01*
X89680875Y-51334356D01*
X89680880Y-51334358D01*
X89847302Y-51389505D01*
X89847309Y-51389506D01*
X89950019Y-51399999D01*
X90599999Y-51399999D01*
X91400000Y-51399999D01*
X92049972Y-51399999D01*
X92049986Y-51399998D01*
X92152697Y-51389505D01*
X92319119Y-51334358D01*
X92319124Y-51334356D01*
X92468345Y-51242315D01*
X92592315Y-51118345D01*
X92684356Y-50969124D01*
X92684358Y-50969119D01*
X92739505Y-50802697D01*
X92739506Y-50802690D01*
X92749999Y-50699986D01*
X92750000Y-50699973D01*
X92750000Y-50400000D01*
X91400000Y-50400000D01*
X91400000Y-51399999D01*
X90599999Y-51399999D01*
X90600000Y-51399998D01*
X90600000Y-50400000D01*
X89250001Y-50400000D01*
X89250001Y-50699986D01*
X88750500Y-50699986D01*
X88750499Y-50000000D01*
X88750499Y-49300013D01*
X89250000Y-49300013D01*
X89250000Y-49600000D01*
X90600000Y-49600000D01*
X91400000Y-49600000D01*
X92749999Y-49600000D01*
X92749999Y-49300028D01*
X92749998Y-49300013D01*
X92739505Y-49197302D01*
X92684358Y-49030880D01*
X92684356Y-49030875D01*
X92592315Y-48881654D01*
X92468345Y-48757684D01*
X92319124Y-48665643D01*
X92319119Y-48665641D01*
X92152697Y-48610494D01*
X92152690Y-48610493D01*
X92049986Y-48600000D01*
X91400000Y-48600000D01*
X91400000Y-49600000D01*
X90600000Y-49600000D01*
X90600000Y-48600000D01*
X89950028Y-48600000D01*
X89950012Y-48600001D01*
X89847302Y-48610494D01*
X89680880Y-48665641D01*
X89680875Y-48665643D01*
X89531654Y-48757684D01*
X89407684Y-48881654D01*
X89315643Y-49030875D01*
X89315641Y-49030880D01*
X89260494Y-49197302D01*
X89260493Y-49197309D01*
X89250000Y-49300013D01*
X88750499Y-49300013D01*
X88750499Y-49299998D01*
X88750498Y-49299981D01*
X88739999Y-49197203D01*
X88739998Y-49197200D01*
X88684814Y-49030666D01*
X88592712Y-48881344D01*
X88468656Y-48757288D01*
X88319334Y-48665186D01*
X88152797Y-48610001D01*
X88152795Y-48610000D01*
X88050016Y-48599500D01*
X88050009Y-48599500D01*
X87480500Y-48599500D01*
X87413461Y-48579815D01*
X87367706Y-48527011D01*
X87356500Y-48475500D01*
X87356500Y-48161577D01*
X87325710Y-47967181D01*
X87325709Y-47967174D01*
X87320156Y-47950082D01*
X87264884Y-47779974D01*
X87175524Y-47604595D01*
X87059828Y-47445354D01*
X85069665Y-45455191D01*
X85042785Y-45414963D01*
X85016405Y-45351274D01*
X84904948Y-45158226D01*
X84769247Y-44981376D01*
X84769242Y-44981370D01*
X84611629Y-44823757D01*
X84611622Y-44823751D01*
X84434782Y-44688058D01*
X84434780Y-44688057D01*
X84434774Y-44688052D01*
X84241726Y-44576595D01*
X84241722Y-44576593D01*
X84035790Y-44491293D01*
X84035783Y-44491291D01*
X84035781Y-44491290D01*
X83820463Y-44433596D01*
X83820457Y-44433595D01*
X83820452Y-44433594D01*
X83599466Y-44404501D01*
X83599463Y-44404500D01*
X83599457Y-44404500D01*
X83376543Y-44404500D01*
X83376537Y-44404500D01*
X83376533Y-44404501D01*
X83155547Y-44433594D01*
X83155540Y-44433595D01*
X83155537Y-44433596D01*
X82940219Y-44491290D01*
X82940209Y-44491293D01*
X82734277Y-44576593D01*
X82734273Y-44576595D01*
X82541226Y-44688052D01*
X82541217Y-44688058D01*
X82361155Y-44826224D01*
X82360595Y-44825494D01*
X82301023Y-44853131D01*
X82282645Y-44854500D01*
X81293355Y-44854500D01*
X81226316Y-44834815D01*
X81214868Y-44826193D01*
X81214845Y-44826224D01*
X81034782Y-44688058D01*
X81034780Y-44688057D01*
X81034774Y-44688052D01*
X80841726Y-44576595D01*
X80841722Y-44576593D01*
X80635790Y-44491293D01*
X80635783Y-44491291D01*
X80635781Y-44491290D01*
X80420463Y-44433596D01*
X80420457Y-44433595D01*
X80420452Y-44433594D01*
X80199466Y-44404501D01*
X80199463Y-44404500D01*
X80199457Y-44404500D01*
X79976543Y-44404500D01*
X79976537Y-44404500D01*
X79976533Y-44404501D01*
X79755547Y-44433594D01*
X79755540Y-44433595D01*
X79755537Y-44433596D01*
X79540219Y-44491290D01*
X79540209Y-44491293D01*
X79334277Y-44576593D01*
X79334273Y-44576595D01*
X79141226Y-44688052D01*
X79141217Y-44688058D01*
X78964377Y-44823751D01*
X78964370Y-44823757D01*
X78806757Y-44981370D01*
X78806751Y-44981377D01*
X78671058Y-45158217D01*
X78671052Y-45158226D01*
X78559595Y-45351273D01*
X78559593Y-45351277D01*
X78474293Y-45557209D01*
X78474290Y-45557219D01*
X78416597Y-45772534D01*
X78416594Y-45772547D01*
X78387501Y-45993533D01*
X78387500Y-45993549D01*
X78387500Y-46216450D01*
X78387501Y-46216466D01*
X78416594Y-46437452D01*
X78416595Y-46437457D01*
X78416596Y-46437463D01*
X78465004Y-46618124D01*
X78474290Y-46652780D01*
X78474293Y-46652790D01*
X78540877Y-46813537D01*
X78559595Y-46858726D01*
X78671052Y-47051774D01*
X78671057Y-47051780D01*
X78671058Y-47051782D01*
X78806751Y-47228622D01*
X78806757Y-47228629D01*
X78964370Y-47386242D01*
X78964377Y-47386248D01*
X79041406Y-47445354D01*
X79141226Y-47521948D01*
X79334274Y-47633405D01*
X79371919Y-47648998D01*
X79480032Y-47693780D01*
X79540219Y-47718710D01*
X79755537Y-47776404D01*
X79976543Y-47805500D01*
X79976550Y-47805500D01*
X80199450Y-47805500D01*
X80199457Y-47805500D01*
X80420463Y-47776404D01*
X80635781Y-47718710D01*
X80841726Y-47633405D01*
X81034774Y-47521948D01*
X81211623Y-47386248D01*
X81214845Y-47383776D01*
X81215404Y-47384505D01*
X81274977Y-47356869D01*
X81293355Y-47355500D01*
X82282645Y-47355500D01*
X82349684Y-47375185D01*
X82361131Y-47383806D01*
X82361155Y-47383776D01*
X82514749Y-47501632D01*
X82541226Y-47521948D01*
X82734274Y-47633405D01*
X82771919Y-47648998D01*
X82880032Y-47693780D01*
X82940219Y-47718710D01*
X83155537Y-47776404D01*
X83376543Y-47805500D01*
X83376550Y-47805500D01*
X83599450Y-47805500D01*
X83599457Y-47805500D01*
X83789410Y-47780492D01*
X83858445Y-47791257D01*
X83893276Y-47815750D01*
X84819181Y-48741655D01*
X84852666Y-48802978D01*
X84855500Y-48829336D01*
X84855500Y-49795238D01*
X84835815Y-49862277D01*
X84783011Y-49908032D01*
X84713853Y-49917976D01*
X84692499Y-49912944D01*
X84544797Y-49864001D01*
X84544795Y-49864000D01*
X84442010Y-49853500D01*
X83641998Y-49853500D01*
X83641980Y-49853501D01*
X83539203Y-49864000D01*
X83539200Y-49864001D01*
X83372668Y-49919185D01*
X83372663Y-49919187D01*
X83223342Y-50011289D01*
X83129681Y-50104951D01*
X83068358Y-50138436D01*
X82998666Y-50133452D01*
X82954319Y-50104951D01*
X82860657Y-50011289D01*
X82860656Y-50011288D01*
X82767888Y-49954069D01*
X82711336Y-49919187D01*
X82711331Y-49919185D01*
X82692497Y-49912944D01*
X82544797Y-49864001D01*
X82544795Y-49864000D01*
X82442010Y-49853500D01*
X81641998Y-49853500D01*
X81641980Y-49853501D01*
X81539203Y-49864000D01*
X81539200Y-49864001D01*
X81372668Y-49919185D01*
X81372663Y-49919187D01*
X81223341Y-50011290D01*
X81217681Y-50015766D01*
X81215703Y-50013264D01*
X81166858Y-50039936D01*
X81097166Y-50034952D01*
X81064664Y-50014064D01*
X81063319Y-50015766D01*
X81057658Y-50011290D01*
X81057656Y-50011288D01*
X80908334Y-49919186D01*
X80741797Y-49864001D01*
X80741795Y-49864000D01*
X80639010Y-49853500D01*
X79888998Y-49853500D01*
X79888980Y-49853501D01*
X79786203Y-49864000D01*
X79786200Y-49864001D01*
X79619668Y-49919185D01*
X79619663Y-49919187D01*
X79470342Y-50011289D01*
X79346288Y-50135343D01*
X79346283Y-50135349D01*
X79344241Y-50138661D01*
X79342247Y-50140453D01*
X79341807Y-50141011D01*
X79341711Y-50140935D01*
X79292291Y-50185383D01*
X79223328Y-50196602D01*
X79159247Y-50168755D01*
X79133168Y-50138656D01*
X79131319Y-50135659D01*
X79131316Y-50135655D01*
X79007345Y-50011684D01*
X78858124Y-49919643D01*
X78858119Y-49919641D01*
X78691697Y-49864494D01*
X78691690Y-49864493D01*
X78614000Y-49856556D01*
X78614000Y-52251442D01*
X78691695Y-52243506D01*
X78691698Y-52243505D01*
X78858119Y-52188358D01*
X78858124Y-52188356D01*
X79007345Y-52096315D01*
X79131318Y-51972342D01*
X79133165Y-51969348D01*
X79134969Y-51967724D01*
X79135798Y-51966677D01*
X79135976Y-51966818D01*
X79185110Y-51922621D01*
X79254073Y-51911396D01*
X79318156Y-51939236D01*
X79344243Y-51969341D01*
X79346288Y-51972656D01*
X79470344Y-52096712D01*
X79619666Y-52188814D01*
X79786203Y-52243999D01*
X79888991Y-52254500D01*
X80639008Y-52254499D01*
X80639016Y-52254498D01*
X80639019Y-52254498D01*
X80712125Y-52247030D01*
X80741797Y-52243999D01*
X80908334Y-52188814D01*
X81057656Y-52096712D01*
X81057662Y-52096705D01*
X81063319Y-52092234D01*
X81065296Y-52094735D01*
X81114142Y-52068064D01*
X81183834Y-52073048D01*
X81216335Y-52093935D01*
X81217681Y-52092234D01*
X81223341Y-52096709D01*
X81223344Y-52096712D01*
X81372666Y-52188814D01*
X81539203Y-52243999D01*
X81641991Y-52254500D01*
X82442008Y-52254499D01*
X82442016Y-52254498D01*
X82442019Y-52254498D01*
X82515125Y-52247030D01*
X82544797Y-52243999D01*
X82711334Y-52188814D01*
X82860656Y-52096712D01*
X82954319Y-52003049D01*
X83015642Y-51969564D01*
X83085334Y-51974548D01*
X83129681Y-52003049D01*
X83223344Y-52096712D01*
X83372666Y-52188814D01*
X83539203Y-52243999D01*
X83641991Y-52254500D01*
X84442008Y-52254499D01*
X84442016Y-52254498D01*
X84442019Y-52254498D01*
X84515125Y-52247030D01*
X84544797Y-52243999D01*
X84692500Y-52195054D01*
X84762323Y-52192653D01*
X84822365Y-52228384D01*
X84853559Y-52290904D01*
X84855500Y-52312761D01*
X84855500Y-57596664D01*
X84835815Y-57663703D01*
X84819181Y-57684345D01*
X83418345Y-59085181D01*
X83357022Y-59118666D01*
X83330664Y-59121500D01*
X82627153Y-59121500D01*
X82560114Y-59101815D01*
X82539476Y-59085185D01*
X82469699Y-59015408D01*
X82469698Y-59015407D01*
X82469696Y-59015405D01*
X82282454Y-58871730D01*
X82282453Y-58871729D01*
X82282450Y-58871727D01*
X82195290Y-58821405D01*
X82078056Y-58753719D01*
X82078045Y-58753714D01*
X81859993Y-58663394D01*
X81632010Y-58602306D01*
X81398020Y-58571501D01*
X81398017Y-58571500D01*
X81398011Y-58571500D01*
X81161989Y-58571500D01*
X81161983Y-58571500D01*
X81161979Y-58571501D01*
X80927989Y-58602306D01*
X80700006Y-58663394D01*
X80481954Y-58753714D01*
X80481943Y-58753719D01*
X80277545Y-58871730D01*
X80090302Y-59015406D01*
X80090295Y-59015412D01*
X79923412Y-59182295D01*
X79923406Y-59182302D01*
X79779730Y-59369545D01*
X79779727Y-59369549D01*
X79779727Y-59369550D01*
X79774310Y-59378932D01*
X79661719Y-59573943D01*
X79661714Y-59573954D01*
X79571394Y-59792006D01*
X79510306Y-60019989D01*
X79479501Y-60253979D01*
X79479500Y-60253995D01*
X79479500Y-60490004D01*
X79479501Y-60490020D01*
X79510086Y-60722340D01*
X79510307Y-60724014D01*
X79534839Y-60815570D01*
X79571394Y-60951993D01*
X79661714Y-61170045D01*
X79661719Y-61170056D01*
X79689088Y-61217459D01*
X79779727Y-61374450D01*
X79779729Y-61374453D01*
X79779730Y-61374454D01*
X79923406Y-61561697D01*
X79923412Y-61561704D01*
X80090295Y-61728587D01*
X80090302Y-61728593D01*
X80117637Y-61749568D01*
X80277550Y-61872273D01*
X80392889Y-61938864D01*
X80481943Y-61990280D01*
X80481948Y-61990282D01*
X80481951Y-61990284D01*
X80700007Y-62080606D01*
X80927986Y-62141693D01*
X81161989Y-62172500D01*
X81161996Y-62172500D01*
X81398004Y-62172500D01*
X81398011Y-62172500D01*
X81632014Y-62141693D01*
X81859993Y-62080606D01*
X82078049Y-61990284D01*
X82282450Y-61872273D01*
X82469699Y-61728592D01*
X82539473Y-61658817D01*
X82600794Y-61625334D01*
X82627153Y-61622500D01*
X83998422Y-61622500D01*
X84192826Y-61591709D01*
X84251083Y-61572780D01*
X84380026Y-61530884D01*
X84555405Y-61441524D01*
X84714646Y-61325828D01*
X87059828Y-58980646D01*
X87098078Y-58928000D01*
X88392000Y-58928000D01*
X88494141Y-58921092D01*
X88579984Y-60290504D01*
X88579875Y-60296042D01*
X88581486Y-60314466D01*
X88813022Y-64008000D01*
X102206013Y-63327444D01*
X101982473Y-61139105D01*
X102136250Y-61217459D01*
X102338419Y-61283148D01*
X102548375Y-61316402D01*
X102548376Y-61316402D01*
X102760948Y-61316402D01*
X102760949Y-61316402D01*
X102970905Y-61283148D01*
X103173074Y-61217459D01*
X103250252Y-61178134D01*
X103295736Y-61165091D01*
X104760451Y-61036945D01*
X104809568Y-61042541D01*
X104868753Y-61061772D01*
X105078709Y-61095026D01*
X105078710Y-61095026D01*
X105291282Y-61095026D01*
X105291283Y-61095026D01*
X105501239Y-61061772D01*
X105703408Y-60996083D01*
X105780585Y-60956758D01*
X105826072Y-60943716D01*
X107290785Y-60815570D01*
X107339902Y-60821166D01*
X107399088Y-60840397D01*
X107609044Y-60873651D01*
X107609045Y-60873651D01*
X107821617Y-60873651D01*
X107821618Y-60873651D01*
X108031574Y-60840397D01*
X108233743Y-60774708D01*
X108310921Y-60735383D01*
X108356405Y-60722340D01*
X109821120Y-60594194D01*
X109870237Y-60599790D01*
X109929422Y-60619021D01*
X110139378Y-60652275D01*
X110139379Y-60652275D01*
X110351951Y-60652275D01*
X110351952Y-60652275D01*
X110561908Y-60619021D01*
X110764077Y-60553332D01*
X110841254Y-60514007D01*
X110886741Y-60500965D01*
X112351454Y-60372819D01*
X112400571Y-60378415D01*
X112459757Y-60397646D01*
X112669713Y-60430900D01*
X112669714Y-60430900D01*
X112882286Y-60430900D01*
X112882287Y-60430900D01*
X113092243Y-60397646D01*
X113294412Y-60331957D01*
X113384870Y-60285865D01*
X113429083Y-60272940D01*
X119463097Y-59682202D01*
X119531732Y-59695261D01*
X119582415Y-59743355D01*
X119594950Y-59773517D01*
X119651290Y-59983781D01*
X119651291Y-59983784D01*
X119651293Y-59983790D01*
X119723523Y-60158168D01*
X119736595Y-60189726D01*
X119848052Y-60382774D01*
X119848055Y-60382778D01*
X119848058Y-60382782D01*
X119983751Y-60559622D01*
X119983757Y-60559629D01*
X120117181Y-60693053D01*
X120150666Y-60754376D01*
X120153500Y-60780734D01*
X120153500Y-63740019D01*
X120133815Y-63807058D01*
X120117181Y-63827700D01*
X119983757Y-63961123D01*
X119983751Y-63961130D01*
X119848058Y-64137970D01*
X119848052Y-64137979D01*
X119736595Y-64331026D01*
X119736593Y-64331030D01*
X119651293Y-64536962D01*
X119651290Y-64536972D01*
X119597334Y-64738342D01*
X119593597Y-64752287D01*
X119593594Y-64752300D01*
X119564501Y-64973286D01*
X119564500Y-64973302D01*
X119564500Y-65196203D01*
X119564501Y-65196219D01*
X119593594Y-65417205D01*
X119593595Y-65417210D01*
X119593596Y-65417216D01*
X119593597Y-65417218D01*
X119651290Y-65632533D01*
X119651293Y-65632543D01*
X119723559Y-65807007D01*
X119736595Y-65838479D01*
X119848052Y-66031527D01*
X119848055Y-66031531D01*
X119848058Y-66031535D01*
X119983751Y-66208375D01*
X119983757Y-66208382D01*
X120117181Y-66341806D01*
X120150666Y-66403129D01*
X120153500Y-66429487D01*
X120153500Y-67140019D01*
X120133815Y-67207058D01*
X120117181Y-67227700D01*
X119983757Y-67361123D01*
X119983751Y-67361130D01*
X119848058Y-67537970D01*
X119848052Y-67537979D01*
X119736595Y-67731026D01*
X119736593Y-67731030D01*
X119651293Y-67936962D01*
X119651290Y-67936972D01*
X119599929Y-68128657D01*
X119593597Y-68152287D01*
X119593594Y-68152300D01*
X119564501Y-68373286D01*
X119564500Y-68373302D01*
X119564500Y-68596203D01*
X119564501Y-68596219D01*
X119593594Y-68817205D01*
X119593595Y-68817210D01*
X119593596Y-68817216D01*
X119620959Y-68919336D01*
X119651290Y-69032533D01*
X119651293Y-69032543D01*
X119736593Y-69238475D01*
X119736595Y-69238479D01*
X119848052Y-69431527D01*
X119848055Y-69431531D01*
X119848058Y-69431535D01*
X119983751Y-69608375D01*
X119983757Y-69608382D01*
X120117181Y-69741806D01*
X120150666Y-69803129D01*
X120153500Y-69829487D01*
X120153500Y-72425500D01*
X120133815Y-72492539D01*
X120081011Y-72538294D01*
X120029500Y-72549500D01*
X117063555Y-72549500D01*
X116996516Y-72529815D01*
X116950761Y-72477011D01*
X116945854Y-72464519D01*
X116904814Y-72340666D01*
X116812712Y-72191344D01*
X116688656Y-72067288D01*
X116595888Y-72010069D01*
X116539336Y-71975187D01*
X116539331Y-71975185D01*
X116537862Y-71974698D01*
X116372797Y-71920001D01*
X116372795Y-71920000D01*
X116270010Y-71909500D01*
X114869998Y-71909500D01*
X114869981Y-71909501D01*
X114767203Y-71920000D01*
X114767200Y-71920001D01*
X114600668Y-71975185D01*
X114600663Y-71975187D01*
X114451342Y-72067289D01*
X114327289Y-72191342D01*
X114235187Y-72340663D01*
X114235185Y-72340668D01*
X114215000Y-72401583D01*
X114180001Y-72507203D01*
X114180001Y-72507204D01*
X114180000Y-72507204D01*
X114169500Y-72609983D01*
X114169500Y-74710001D01*
X114169501Y-74710018D01*
X114180000Y-74812796D01*
X114180001Y-74812799D01*
X114208897Y-74900000D01*
X114235186Y-74979334D01*
X114327288Y-75128656D01*
X114451344Y-75252712D01*
X114600666Y-75344814D01*
X114767203Y-75399999D01*
X114869991Y-75410500D01*
X116270008Y-75410499D01*
X116372797Y-75399999D01*
X116539334Y-75344814D01*
X116688656Y-75252712D01*
X116812712Y-75128656D01*
X116817652Y-75120646D01*
X116824588Y-75109403D01*
X116876536Y-75062678D01*
X116930126Y-75050500D01*
X119890500Y-75050500D01*
X119957539Y-75070185D01*
X120003294Y-75122989D01*
X120014500Y-75174500D01*
X120014500Y-75994644D01*
X119994815Y-76061683D01*
X119986193Y-76073131D01*
X119986224Y-76073155D01*
X119848058Y-76253217D01*
X119848052Y-76253226D01*
X119736595Y-76446273D01*
X119736593Y-76446277D01*
X119651293Y-76652209D01*
X119651290Y-76652219D01*
X119643669Y-76680663D01*
X119593597Y-76867534D01*
X119593594Y-76867547D01*
X119564501Y-77088533D01*
X119564500Y-77088549D01*
X119564500Y-77311450D01*
X119564501Y-77311466D01*
X119593594Y-77532452D01*
X119593595Y-77532457D01*
X119593596Y-77532463D01*
X119625094Y-77650016D01*
X119651290Y-77747780D01*
X119651293Y-77747790D01*
X119722348Y-77919331D01*
X119736595Y-77953726D01*
X119848052Y-78146774D01*
X119848057Y-78146780D01*
X119848058Y-78146782D01*
X119983751Y-78323622D01*
X119983757Y-78323629D01*
X120141370Y-78481242D01*
X120141376Y-78481247D01*
X120318226Y-78616948D01*
X120511274Y-78728405D01*
X120717219Y-78813710D01*
X120932537Y-78871404D01*
X121153543Y-78900500D01*
X121153550Y-78900500D01*
X121376450Y-78900500D01*
X121376457Y-78900500D01*
X121597463Y-78871404D01*
X121812781Y-78813710D01*
X122018726Y-78728405D01*
X122211774Y-78616948D01*
X122388624Y-78481247D01*
X122546247Y-78323624D01*
X122681948Y-78146774D01*
X122793405Y-77953726D01*
X122878710Y-77747781D01*
X122936404Y-77532463D01*
X122965500Y-77311457D01*
X122965500Y-77088543D01*
X122936404Y-76867537D01*
X122878710Y-76652219D01*
X122793405Y-76446274D01*
X122681948Y-76253226D01*
X122645097Y-76205200D01*
X122543776Y-76073155D01*
X122544501Y-76072598D01*
X122516866Y-76013001D01*
X122515500Y-75994644D01*
X122515500Y-75005355D01*
X122535185Y-74938316D01*
X122543806Y-74926868D01*
X122543776Y-74926845D01*
X122597379Y-74856985D01*
X122681948Y-74746774D01*
X122793405Y-74553726D01*
X122878710Y-74347781D01*
X122936404Y-74132463D01*
X122965500Y-73911457D01*
X122965500Y-73688543D01*
X122936404Y-73467537D01*
X122878710Y-73252219D01*
X122877336Y-73248903D01*
X122793406Y-73046277D01*
X122793401Y-73046266D01*
X122681953Y-72853234D01*
X122681939Y-72853213D01*
X122680122Y-72850845D01*
X122679799Y-72850011D01*
X122679692Y-72849850D01*
X122679728Y-72849825D01*
X122654930Y-72785676D01*
X122654500Y-72775362D01*
X122654500Y-69509390D01*
X122674185Y-69442351D01*
X122680126Y-69433901D01*
X122681948Y-69431527D01*
X122793405Y-69238479D01*
X122878710Y-69032534D01*
X122936404Y-68817216D01*
X122965500Y-68596210D01*
X122965500Y-68373296D01*
X122936404Y-68152290D01*
X122878710Y-67936972D01*
X122793405Y-67731027D01*
X122793403Y-67731024D01*
X122793401Y-67731019D01*
X122681953Y-67537987D01*
X122681939Y-67537966D01*
X122680122Y-67535598D01*
X122679799Y-67534764D01*
X122679692Y-67534603D01*
X122679728Y-67534578D01*
X122654930Y-67470429D01*
X122654500Y-67460115D01*
X122654500Y-66109390D01*
X122674185Y-66042351D01*
X122680126Y-66033901D01*
X122681948Y-66031527D01*
X122793405Y-65838479D01*
X122878710Y-65632534D01*
X122936404Y-65417216D01*
X122965500Y-65196210D01*
X122965500Y-64973302D01*
X133034500Y-64973302D01*
X133034500Y-65196203D01*
X133034501Y-65196219D01*
X133063594Y-65417205D01*
X133063595Y-65417210D01*
X133063596Y-65417216D01*
X133063597Y-65417218D01*
X133121290Y-65632533D01*
X133121293Y-65632543D01*
X133193559Y-65807007D01*
X133206595Y-65838479D01*
X133318052Y-66031527D01*
X133318055Y-66031531D01*
X133318058Y-66031535D01*
X133453751Y-66208375D01*
X133453757Y-66208382D01*
X133611370Y-66365995D01*
X133611377Y-66366001D01*
X133632413Y-66382142D01*
X133788226Y-66501701D01*
X133981274Y-66613158D01*
X134018199Y-66628452D01*
X134118965Y-66670192D01*
X134173368Y-66714033D01*
X134195433Y-66780327D01*
X134178154Y-66848027D01*
X134127016Y-66895637D01*
X134118965Y-66899314D01*
X133981277Y-66956346D01*
X133981273Y-66956348D01*
X133788226Y-67067805D01*
X133788217Y-67067811D01*
X133611377Y-67203504D01*
X133611370Y-67203510D01*
X133453757Y-67361123D01*
X133453751Y-67361130D01*
X133318058Y-67537970D01*
X133318052Y-67537979D01*
X133206595Y-67731026D01*
X133206593Y-67731030D01*
X133121293Y-67936962D01*
X133121290Y-67936972D01*
X133069929Y-68128657D01*
X133063597Y-68152287D01*
X133063594Y-68152300D01*
X133034501Y-68373286D01*
X133034500Y-68373302D01*
X133034500Y-68596203D01*
X133034501Y-68596219D01*
X133063594Y-68817205D01*
X133063595Y-68817210D01*
X133063596Y-68817216D01*
X133090959Y-68919336D01*
X133121290Y-69032533D01*
X133121293Y-69032543D01*
X133206593Y-69238475D01*
X133206595Y-69238479D01*
X133318052Y-69431527D01*
X133318055Y-69431531D01*
X133318058Y-69431535D01*
X133453751Y-69608375D01*
X133453757Y-69608382D01*
X133611370Y-69765995D01*
X133611376Y-69766000D01*
X133788226Y-69901701D01*
X133981274Y-70013158D01*
X134187219Y-70098463D01*
X134402537Y-70156157D01*
X134522198Y-70171910D01*
X134586094Y-70200176D01*
X134593694Y-70207168D01*
X135305171Y-70918645D01*
X135305172Y-70918646D01*
X135444354Y-71057828D01*
X135603595Y-71173524D01*
X135778971Y-71262882D01*
X135778979Y-71262886D01*
X135863223Y-71290258D01*
X135905346Y-71303944D01*
X135905347Y-71303945D01*
X135905348Y-71303945D01*
X135966173Y-71323709D01*
X136039076Y-71335255D01*
X136160578Y-71354500D01*
X136160583Y-71354500D01*
X140994422Y-71354500D01*
X141188826Y-71323709D01*
X141249656Y-71303944D01*
X141376026Y-71262884D01*
X141551405Y-71173524D01*
X141710646Y-71057828D01*
X143381655Y-69386817D01*
X143442978Y-69353333D01*
X143469336Y-69350499D01*
X143800002Y-69350499D01*
X143800008Y-69350499D01*
X143902797Y-69339999D01*
X144069334Y-69284814D01*
X144218656Y-69192712D01*
X144342712Y-69068656D01*
X144434814Y-68919334D01*
X144489999Y-68752797D01*
X144500500Y-68650009D01*
X144500499Y-67349992D01*
X144489999Y-67247203D01*
X144434814Y-67080666D01*
X144342712Y-66931344D01*
X144218656Y-66807288D01*
X144069334Y-66715186D01*
X144069332Y-66715185D01*
X144063440Y-66711551D01*
X144016716Y-66659603D01*
X144005493Y-66590641D01*
X144033337Y-66526558D01*
X144040856Y-66518330D01*
X144179728Y-66379458D01*
X144304620Y-66207557D01*
X144401092Y-66018222D01*
X144439506Y-65900000D01*
X143307106Y-65900000D01*
X143400099Y-65807007D01*
X143465925Y-65692993D01*
X143500000Y-65565826D01*
X143500000Y-65434174D01*
X143465925Y-65307007D01*
X143400099Y-65192993D01*
X143307106Y-65100000D01*
X143400000Y-65100000D01*
X144439506Y-65100000D01*
X144439505Y-65099999D01*
X144401092Y-64981777D01*
X144304620Y-64792442D01*
X144179727Y-64620540D01*
X144179723Y-64620535D01*
X144029464Y-64470276D01*
X144029459Y-64470272D01*
X143857557Y-64345379D01*
X143668215Y-64248903D01*
X143466124Y-64183241D01*
X143400000Y-64172768D01*
X143400000Y-65100000D01*
X143307106Y-65100000D01*
X143307007Y-65099901D01*
X143192993Y-65034075D01*
X143065826Y-65000000D01*
X142934174Y-65000000D01*
X142807007Y-65034075D01*
X142692993Y-65099901D01*
X142599901Y-65192993D01*
X142534075Y-65307007D01*
X142500000Y-65434174D01*
X142500000Y-65565826D01*
X142534075Y-65692993D01*
X142599901Y-65807007D01*
X142692894Y-65900000D01*
X141560494Y-65900000D01*
X141598907Y-66018222D01*
X141695379Y-66207557D01*
X141820272Y-66379459D01*
X141820276Y-66379464D01*
X141959143Y-66518331D01*
X141992628Y-66579654D01*
X141987644Y-66649346D01*
X141945772Y-66705279D01*
X141936559Y-66711551D01*
X141781342Y-66807289D01*
X141657289Y-66931342D01*
X141565187Y-67080663D01*
X141565186Y-67080666D01*
X141510001Y-67247203D01*
X141510001Y-67247204D01*
X141510000Y-67247204D01*
X141499500Y-67349983D01*
X141499500Y-67680663D01*
X141479815Y-67747702D01*
X141463181Y-67768344D01*
X140829127Y-68402397D01*
X140821181Y-68406735D01*
X140815756Y-68413983D01*
X140790996Y-68423217D01*
X140767804Y-68435882D01*
X140758774Y-68435236D01*
X140750292Y-68438400D01*
X140724471Y-68432783D01*
X140698112Y-68430898D01*
X140689058Y-68425079D01*
X140682019Y-68423548D01*
X140653765Y-68402397D01*
X140649049Y-68397681D01*
X140615564Y-68336358D01*
X140620548Y-68266666D01*
X140649049Y-68222319D01*
X140742712Y-68128656D01*
X140834814Y-67979334D01*
X140889999Y-67812797D01*
X140900500Y-67710009D01*
X140900499Y-66909992D01*
X140889999Y-66807203D01*
X140834814Y-66640666D01*
X140742712Y-66491344D01*
X140742709Y-66491341D01*
X140738234Y-66485681D01*
X140740735Y-66483703D01*
X140714064Y-66434858D01*
X140719048Y-66365166D01*
X140739935Y-66332664D01*
X140738234Y-66331319D01*
X140742705Y-66325662D01*
X140742712Y-66325656D01*
X140834814Y-66176334D01*
X140889999Y-66009797D01*
X140900500Y-65907009D01*
X140900499Y-65156992D01*
X140899955Y-65151674D01*
X140898189Y-65134370D01*
X140894677Y-65099999D01*
X141560494Y-65099999D01*
X141560494Y-65100000D01*
X142600000Y-65100000D01*
X142600000Y-64172768D01*
X142599999Y-64172768D01*
X142533875Y-64183241D01*
X142331784Y-64248903D01*
X142142442Y-64345379D01*
X141970540Y-64470272D01*
X141970535Y-64470276D01*
X141820276Y-64620535D01*
X141820272Y-64620540D01*
X141695379Y-64792442D01*
X141598907Y-64981777D01*
X141560494Y-65099999D01*
X140894677Y-65099999D01*
X140894181Y-65095146D01*
X140889999Y-65054203D01*
X140834814Y-64887666D01*
X140742712Y-64738344D01*
X140618656Y-64614288D01*
X140615342Y-64612243D01*
X140613546Y-64610248D01*
X140612989Y-64609807D01*
X140613064Y-64609711D01*
X140568618Y-64560297D01*
X140557397Y-64491334D01*
X140585240Y-64427252D01*
X140615348Y-64401165D01*
X140618342Y-64399318D01*
X140742315Y-64275345D01*
X140834356Y-64126124D01*
X140834358Y-64126119D01*
X140889505Y-63959697D01*
X140889506Y-63959690D01*
X140897444Y-63882000D01*
X138502557Y-63882000D01*
X138510494Y-63959697D01*
X138565641Y-64126119D01*
X138565643Y-64126124D01*
X138657684Y-64275345D01*
X138781655Y-64399316D01*
X138781659Y-64399319D01*
X138784656Y-64401168D01*
X138786279Y-64402972D01*
X138787323Y-64403798D01*
X138787181Y-64403976D01*
X138831381Y-64453116D01*
X138842602Y-64522079D01*
X138814759Y-64586161D01*
X138784661Y-64612241D01*
X138781349Y-64614283D01*
X138781343Y-64614288D01*
X138657289Y-64738342D01*
X138565187Y-64887663D01*
X138565186Y-64887666D01*
X138510001Y-65054203D01*
X138510001Y-65054204D01*
X138510000Y-65054204D01*
X138499500Y-65156983D01*
X138499500Y-65907001D01*
X138499501Y-65907019D01*
X138510000Y-66009796D01*
X138510001Y-66009799D01*
X138517204Y-66031535D01*
X138565186Y-66176334D01*
X138657288Y-66325656D01*
X138657290Y-66325658D01*
X138661766Y-66331319D01*
X138659264Y-66333296D01*
X138685936Y-66382142D01*
X138680952Y-66451834D01*
X138660064Y-66484335D01*
X138661766Y-66485681D01*
X138657290Y-66491341D01*
X138565187Y-66640663D01*
X138565185Y-66640668D01*
X138540492Y-66715186D01*
X138510001Y-66807203D01*
X138510001Y-66807204D01*
X138510000Y-66807204D01*
X138499500Y-66909983D01*
X138499500Y-67710001D01*
X138499501Y-67710019D01*
X138510000Y-67812796D01*
X138510001Y-67812799D01*
X138565185Y-67979331D01*
X138565187Y-67979336D01*
X138657289Y-68128657D01*
X138750951Y-68222319D01*
X138784436Y-68283642D01*
X138779452Y-68353334D01*
X138750951Y-68397681D01*
X138657289Y-68491342D01*
X138565187Y-68640663D01*
X138565185Y-68640668D01*
X138545737Y-68699358D01*
X138528030Y-68752797D01*
X138522825Y-68768504D01*
X138483052Y-68825949D01*
X138418537Y-68852772D01*
X138405119Y-68853500D01*
X136828336Y-68853500D01*
X136761297Y-68833815D01*
X136740655Y-68817181D01*
X136471819Y-68548345D01*
X136438334Y-68487022D01*
X136435500Y-68460664D01*
X136435500Y-68373302D01*
X136435500Y-68373296D01*
X136406404Y-68152290D01*
X136348710Y-67936972D01*
X136263405Y-67731027D01*
X136151948Y-67537979D01*
X136016247Y-67361129D01*
X136016242Y-67361123D01*
X135858629Y-67203510D01*
X135858622Y-67203504D01*
X135681782Y-67067811D01*
X135681780Y-67067810D01*
X135681774Y-67067805D01*
X135488726Y-66956348D01*
X135488722Y-66956346D01*
X135351034Y-66899314D01*
X135296631Y-66855473D01*
X135274566Y-66789179D01*
X135291845Y-66721480D01*
X135342982Y-66673869D01*
X135351034Y-66670192D01*
X135401360Y-66649346D01*
X135488726Y-66613158D01*
X135681774Y-66501701D01*
X135858624Y-66366000D01*
X136016247Y-66208377D01*
X136151948Y-66031527D01*
X136263405Y-65838479D01*
X136348710Y-65632534D01*
X136406404Y-65417216D01*
X136435500Y-65196210D01*
X136435500Y-64973296D01*
X136406404Y-64752290D01*
X136348710Y-64536972D01*
X136342585Y-64522186D01*
X136293548Y-64403798D01*
X136263405Y-64331027D01*
X136151948Y-64137979D01*
X136016247Y-63961129D01*
X136016242Y-63961123D01*
X135858629Y-63803510D01*
X135858622Y-63803504D01*
X135681782Y-63667811D01*
X135681780Y-63667810D01*
X135681774Y-63667805D01*
X135488726Y-63556348D01*
X135488722Y-63556346D01*
X135282790Y-63471046D01*
X135282783Y-63471044D01*
X135282781Y-63471043D01*
X135067463Y-63413349D01*
X135067457Y-63413348D01*
X135067452Y-63413347D01*
X134846466Y-63384254D01*
X134846463Y-63384253D01*
X134846457Y-63384253D01*
X134623543Y-63384253D01*
X134623537Y-63384253D01*
X134623533Y-63384254D01*
X134402547Y-63413347D01*
X134402540Y-63413348D01*
X134402537Y-63413349D01*
X134187219Y-63471043D01*
X134187209Y-63471046D01*
X133981277Y-63556346D01*
X133981273Y-63556348D01*
X133788226Y-63667805D01*
X133788217Y-63667811D01*
X133611377Y-63803504D01*
X133611370Y-63803510D01*
X133453757Y-63961123D01*
X133453751Y-63961130D01*
X133318058Y-64137970D01*
X133318052Y-64137979D01*
X133206595Y-64331026D01*
X133206593Y-64331030D01*
X133121293Y-64536962D01*
X133121290Y-64536972D01*
X133067334Y-64738342D01*
X133063597Y-64752287D01*
X133063594Y-64752300D01*
X133034501Y-64973286D01*
X133034500Y-64973302D01*
X122965500Y-64973302D01*
X122965500Y-64973296D01*
X122936404Y-64752290D01*
X122878710Y-64536972D01*
X122872585Y-64522186D01*
X122823548Y-64403798D01*
X122793405Y-64331027D01*
X122793403Y-64331024D01*
X122793401Y-64331019D01*
X122681953Y-64137987D01*
X122681939Y-64137966D01*
X122680122Y-64135598D01*
X122679799Y-64134764D01*
X122679692Y-64134603D01*
X122679728Y-64134578D01*
X122654930Y-64070429D01*
X122654500Y-64060115D01*
X122654500Y-60460637D01*
X122674185Y-60393598D01*
X122680126Y-60385148D01*
X122681948Y-60382774D01*
X122793405Y-60189726D01*
X122878710Y-59983781D01*
X122936404Y-59768463D01*
X122965500Y-59547457D01*
X122965500Y-59324543D01*
X122936404Y-59103537D01*
X122878710Y-58888219D01*
X122793405Y-58682274D01*
X122793403Y-58682271D01*
X122793401Y-58682266D01*
X122681953Y-58489234D01*
X122681939Y-58489213D01*
X122680122Y-58486845D01*
X122679799Y-58486011D01*
X122679692Y-58485850D01*
X122679728Y-58485825D01*
X122654930Y-58421676D01*
X122654500Y-58411362D01*
X122654500Y-57060637D01*
X122674185Y-56993598D01*
X122680126Y-56985148D01*
X122681948Y-56982774D01*
X122793405Y-56789726D01*
X122878710Y-56583781D01*
X122936404Y-56368463D01*
X122965500Y-56147457D01*
X122965500Y-55924549D01*
X133034500Y-55924549D01*
X133034500Y-56147450D01*
X133034501Y-56147466D01*
X133063594Y-56368452D01*
X133063595Y-56368457D01*
X133063596Y-56368463D01*
X133099422Y-56502167D01*
X133121290Y-56583780D01*
X133121293Y-56583790D01*
X133186461Y-56741119D01*
X133206595Y-56789726D01*
X133318052Y-56982774D01*
X133318055Y-56982778D01*
X133318058Y-56982782D01*
X133456224Y-57162845D01*
X133455494Y-57163404D01*
X133483131Y-57222977D01*
X133484500Y-57241355D01*
X133484500Y-58230644D01*
X133464815Y-58297683D01*
X133456193Y-58309131D01*
X133456224Y-58309155D01*
X133318058Y-58489217D01*
X133318052Y-58489226D01*
X133206595Y-58682273D01*
X133206593Y-58682277D01*
X133121293Y-58888209D01*
X133121290Y-58888219D01*
X133064058Y-59101815D01*
X133063597Y-59103534D01*
X133063594Y-59103547D01*
X133034501Y-59324533D01*
X133034500Y-59324549D01*
X133034500Y-59547450D01*
X133034501Y-59547466D01*
X133063594Y-59768452D01*
X133063595Y-59768457D01*
X133063596Y-59768463D01*
X133121290Y-59983780D01*
X133121293Y-59983790D01*
X133193523Y-60158168D01*
X133206595Y-60189726D01*
X133318052Y-60382774D01*
X133318055Y-60382778D01*
X133318058Y-60382782D01*
X133453751Y-60559622D01*
X133453757Y-60559629D01*
X133611370Y-60717242D01*
X133611377Y-60717248D01*
X133652748Y-60748993D01*
X133788226Y-60852948D01*
X133981274Y-60964405D01*
X134000057Y-60972185D01*
X134158750Y-61037918D01*
X134187219Y-61049710D01*
X134402537Y-61107404D01*
X134505452Y-61120953D01*
X134627567Y-61137030D01*
X134627447Y-61137941D01*
X134689112Y-61160523D01*
X134703077Y-61172551D01*
X135698355Y-62167829D01*
X135857595Y-62283524D01*
X135940454Y-62325742D01*
X136032969Y-62372882D01*
X136032971Y-62372882D01*
X136032974Y-62372884D01*
X136133318Y-62405487D01*
X136220173Y-62433709D01*
X136414578Y-62464500D01*
X138582477Y-62464500D01*
X138649516Y-62484185D01*
X138695271Y-62536989D01*
X138705215Y-62606147D01*
X138676190Y-62669703D01*
X138670158Y-62676181D01*
X138657684Y-62688654D01*
X138565643Y-62837875D01*
X138565641Y-62837880D01*
X138510494Y-63004302D01*
X138510493Y-63004309D01*
X138502556Y-63082000D01*
X140897443Y-63082000D01*
X140897443Y-63081999D01*
X140889505Y-63004302D01*
X140834358Y-62837880D01*
X140834356Y-62837875D01*
X140742315Y-62688654D01*
X140729842Y-62676181D01*
X140696357Y-62614858D01*
X140701341Y-62545166D01*
X140743213Y-62489233D01*
X140808677Y-62464816D01*
X140817523Y-62464500D01*
X140884422Y-62464500D01*
X141078826Y-62433709D01*
X141266026Y-62372884D01*
X141441405Y-62283524D01*
X141600646Y-62167828D01*
X143381655Y-60386817D01*
X143442978Y-60353333D01*
X143469336Y-60350499D01*
X143800002Y-60350499D01*
X143800008Y-60350499D01*
X143902797Y-60339999D01*
X144069334Y-60284814D01*
X144218656Y-60192712D01*
X144342712Y-60068656D01*
X144434814Y-59919334D01*
X144489999Y-59752797D01*
X144500500Y-59650009D01*
X144500499Y-58349992D01*
X144496656Y-58312376D01*
X144489999Y-58247203D01*
X144489998Y-58247200D01*
X144441381Y-58100485D01*
X144434814Y-58080666D01*
X144342712Y-57931344D01*
X144218656Y-57807288D01*
X144069334Y-57715186D01*
X144069332Y-57715185D01*
X144063440Y-57711551D01*
X144016716Y-57659603D01*
X144005493Y-57590641D01*
X144033337Y-57526558D01*
X144040856Y-57518330D01*
X144179728Y-57379458D01*
X144304620Y-57207557D01*
X144401092Y-57018222D01*
X144439506Y-56900000D01*
X143307106Y-56900000D01*
X143400099Y-56807007D01*
X143465925Y-56692993D01*
X143500000Y-56565826D01*
X143500000Y-56434174D01*
X143465925Y-56307007D01*
X143400099Y-56192993D01*
X143307106Y-56100000D01*
X143400000Y-56100000D01*
X144439506Y-56100000D01*
X144439505Y-56099999D01*
X144401092Y-55981777D01*
X144304620Y-55792442D01*
X144179727Y-55620540D01*
X144179723Y-55620535D01*
X144029464Y-55470276D01*
X144029459Y-55470272D01*
X143857557Y-55345379D01*
X143668215Y-55248903D01*
X143466124Y-55183241D01*
X143400000Y-55172768D01*
X143400000Y-56100000D01*
X143307106Y-56100000D01*
X143307007Y-56099901D01*
X143192993Y-56034075D01*
X143065826Y-56000000D01*
X142934174Y-56000000D01*
X142807007Y-56034075D01*
X142692993Y-56099901D01*
X142599901Y-56192993D01*
X142534075Y-56307007D01*
X142500000Y-56434174D01*
X142500000Y-56565826D01*
X142534075Y-56692993D01*
X142599901Y-56807007D01*
X142692894Y-56900000D01*
X141560494Y-56900000D01*
X141598907Y-57018222D01*
X141695379Y-57207557D01*
X141820272Y-57379459D01*
X141820276Y-57379464D01*
X141959143Y-57518331D01*
X141992628Y-57579654D01*
X141987644Y-57649346D01*
X141945772Y-57705279D01*
X141936559Y-57711551D01*
X141781342Y-57807289D01*
X141657289Y-57931342D01*
X141565187Y-58080663D01*
X141565185Y-58080668D01*
X141537349Y-58164670D01*
X141510001Y-58247203D01*
X141510001Y-58247204D01*
X141510000Y-58247204D01*
X141499500Y-58349983D01*
X141499500Y-58680663D01*
X141479815Y-58747702D01*
X141463181Y-58768344D01*
X140814297Y-59417228D01*
X140752974Y-59450713D01*
X140683282Y-59445729D01*
X140627349Y-59403857D01*
X140602932Y-59338393D01*
X140608909Y-59290548D01*
X140635999Y-59208797D01*
X140646500Y-59106009D01*
X140646499Y-58305992D01*
X140635999Y-58203203D01*
X140580814Y-58036666D01*
X140491827Y-57892394D01*
X140473388Y-57825004D01*
X140491826Y-57762207D01*
X140576890Y-57624297D01*
X140632075Y-57457760D01*
X140642576Y-57354972D01*
X140642575Y-56604955D01*
X140639483Y-56574690D01*
X140632075Y-56502166D01*
X140632074Y-56502163D01*
X140622070Y-56471973D01*
X140576890Y-56335629D01*
X140484788Y-56186307D01*
X140398480Y-56099999D01*
X141560494Y-56099999D01*
X141560494Y-56100000D01*
X142600000Y-56100000D01*
X142600000Y-55172768D01*
X142599999Y-55172768D01*
X142533875Y-55183241D01*
X142331784Y-55248903D01*
X142142442Y-55345379D01*
X141970540Y-55470272D01*
X141970535Y-55470276D01*
X141820276Y-55620535D01*
X141820272Y-55620540D01*
X141695379Y-55792442D01*
X141598907Y-55981777D01*
X141560494Y-56099999D01*
X140398480Y-56099999D01*
X140360732Y-56062251D01*
X140345250Y-56052702D01*
X140335111Y-56042626D01*
X140324884Y-56024036D01*
X140310694Y-56008260D01*
X140308379Y-55994034D01*
X140301433Y-55981408D01*
X140302880Y-55960237D01*
X140299473Y-55939297D01*
X140305214Y-55926081D01*
X140306198Y-55911701D01*
X140318861Y-55894673D01*
X140327316Y-55875215D01*
X140344235Y-55860554D01*
X140347894Y-55855636D01*
X140351464Y-55854291D01*
X140357424Y-55849128D01*
X140360418Y-55847281D01*
X140484391Y-55723308D01*
X140576432Y-55574087D01*
X140576434Y-55574082D01*
X140631581Y-55407660D01*
X140631582Y-55407653D01*
X140639520Y-55329963D01*
X138244633Y-55329963D01*
X138252570Y-55407660D01*
X138307717Y-55574082D01*
X138307719Y-55574087D01*
X138399760Y-55723308D01*
X138523731Y-55847279D01*
X138523735Y-55847282D01*
X138526732Y-55849131D01*
X138528355Y-55850935D01*
X138529399Y-55851761D01*
X138529257Y-55851939D01*
X138573457Y-55901079D01*
X138584678Y-55970042D01*
X138556835Y-56034124D01*
X138526737Y-56060204D01*
X138523425Y-56062246D01*
X138523419Y-56062251D01*
X138399365Y-56186305D01*
X138307263Y-56335626D01*
X138307261Y-56335631D01*
X138296382Y-56368463D01*
X138252077Y-56502166D01*
X138252077Y-56502167D01*
X138252076Y-56502167D01*
X138241576Y-56604946D01*
X138241576Y-57354964D01*
X138241577Y-57354982D01*
X138252076Y-57457759D01*
X138252077Y-57457762D01*
X138307261Y-57624294D01*
X138307265Y-57624303D01*
X138396247Y-57768566D01*
X138414687Y-57835958D01*
X138396247Y-57898758D01*
X138311189Y-58036659D01*
X138311185Y-58036668D01*
X138283349Y-58120670D01*
X138256001Y-58203203D01*
X138256001Y-58203204D01*
X138256000Y-58203204D01*
X138245500Y-58305983D01*
X138245500Y-59106001D01*
X138245501Y-59106019D01*
X138256000Y-59208796D01*
X138256001Y-59208799D01*
X138311185Y-59375331D01*
X138311187Y-59375336D01*
X138403289Y-59524657D01*
X138496951Y-59618319D01*
X138499959Y-59623829D01*
X138505147Y-59627365D01*
X138516503Y-59654127D01*
X138530436Y-59679642D01*
X138529988Y-59685903D01*
X138532441Y-59691683D01*
X138527525Y-59720336D01*
X138525452Y-59749334D01*
X138521421Y-59755922D01*
X138520628Y-59760547D01*
X138506475Y-59780351D01*
X138500750Y-59789711D01*
X138498907Y-59791724D01*
X138403288Y-59887344D01*
X138386494Y-59914570D01*
X138378588Y-59923211D01*
X138358313Y-59935477D01*
X138340697Y-59951322D01*
X138326968Y-59954441D01*
X138318808Y-59959379D01*
X138306686Y-59959050D01*
X138287108Y-59963500D01*
X137082336Y-59963500D01*
X137015297Y-59943815D01*
X136994655Y-59927181D01*
X136471551Y-59404077D01*
X136438066Y-59342754D01*
X136436068Y-59328561D01*
X136436030Y-59328567D01*
X136420261Y-59208793D01*
X136406404Y-59103537D01*
X136348710Y-58888219D01*
X136263405Y-58682274D01*
X136151948Y-58489226D01*
X136119170Y-58446509D01*
X136013776Y-58309155D01*
X136014501Y-58308598D01*
X135986866Y-58249001D01*
X135985500Y-58230644D01*
X135985500Y-57241355D01*
X136005185Y-57174316D01*
X136013806Y-57162868D01*
X136013776Y-57162845D01*
X136092202Y-57060637D01*
X136151948Y-56982774D01*
X136263405Y-56789726D01*
X136348710Y-56583781D01*
X136406404Y-56368463D01*
X136435500Y-56147457D01*
X136435500Y-55924543D01*
X136406404Y-55703537D01*
X136348710Y-55488219D01*
X136263405Y-55282274D01*
X136151948Y-55089226D01*
X136016247Y-54912376D01*
X136016242Y-54912370D01*
X135858629Y-54754757D01*
X135858622Y-54754751D01*
X135681782Y-54619058D01*
X135681780Y-54619057D01*
X135681774Y-54619052D01*
X135488726Y-54507595D01*
X135488722Y-54507593D01*
X135282790Y-54422293D01*
X135282783Y-54422291D01*
X135282781Y-54422290D01*
X135067463Y-54364596D01*
X135067457Y-54364595D01*
X135067452Y-54364594D01*
X134846466Y-54335501D01*
X134846463Y-54335500D01*
X134846457Y-54335500D01*
X134623543Y-54335500D01*
X134623537Y-54335500D01*
X134623533Y-54335501D01*
X134402547Y-54364594D01*
X134402540Y-54364595D01*
X134402537Y-54364596D01*
X134362410Y-54375348D01*
X134187219Y-54422290D01*
X134187209Y-54422293D01*
X133981277Y-54507593D01*
X133981273Y-54507595D01*
X133788226Y-54619052D01*
X133788217Y-54619058D01*
X133611377Y-54754751D01*
X133611370Y-54754757D01*
X133453757Y-54912370D01*
X133453751Y-54912377D01*
X133318058Y-55089217D01*
X133318052Y-55089226D01*
X133206595Y-55282273D01*
X133206593Y-55282277D01*
X133121293Y-55488209D01*
X133121290Y-55488219D01*
X133076566Y-55655134D01*
X133063597Y-55703534D01*
X133063594Y-55703547D01*
X133034501Y-55924533D01*
X133034500Y-55924549D01*
X122965500Y-55924549D01*
X122965500Y-55924543D01*
X122936404Y-55703537D01*
X122878710Y-55488219D01*
X122793405Y-55282274D01*
X122793403Y-55282271D01*
X122793401Y-55282266D01*
X122681953Y-55089234D01*
X122681939Y-55089213D01*
X122680122Y-55086845D01*
X122679799Y-55086011D01*
X122679692Y-55085850D01*
X122679728Y-55085825D01*
X122654930Y-55021676D01*
X122654500Y-55011362D01*
X122654500Y-51751355D01*
X122674185Y-51684316D01*
X122682806Y-51672868D01*
X122682776Y-51672845D01*
X122736379Y-51602985D01*
X122820948Y-51492774D01*
X122932405Y-51299726D01*
X123017710Y-51093781D01*
X123075404Y-50878463D01*
X123104500Y-50657457D01*
X123104500Y-50434543D01*
X123075404Y-50213537D01*
X123017710Y-49998219D01*
X122932405Y-49792274D01*
X122820948Y-49599226D01*
X122800632Y-49572749D01*
X122682776Y-49419155D01*
X122683501Y-49418598D01*
X122655866Y-49359001D01*
X122654500Y-49340644D01*
X122654500Y-48351355D01*
X122674185Y-48284316D01*
X122682806Y-48272868D01*
X122682776Y-48272845D01*
X122768154Y-48161577D01*
X122820948Y-48092774D01*
X122932405Y-47899726D01*
X123017710Y-47693781D01*
X123075404Y-47478463D01*
X123104500Y-47257457D01*
X123104500Y-47034549D01*
X133173500Y-47034549D01*
X133173500Y-47257450D01*
X133173501Y-47257466D01*
X133202594Y-47478452D01*
X133202595Y-47478457D01*
X133202596Y-47478463D01*
X133260079Y-47692993D01*
X133260290Y-47693780D01*
X133260293Y-47693790D01*
X133310811Y-47815750D01*
X133345595Y-47899726D01*
X133457052Y-48092774D01*
X133457057Y-48092780D01*
X133457058Y-48092782D01*
X133595224Y-48272845D01*
X133594494Y-48273404D01*
X133622131Y-48332977D01*
X133623500Y-48351355D01*
X133623500Y-49340644D01*
X133603815Y-49407683D01*
X133595193Y-49419131D01*
X133595224Y-49419155D01*
X133457058Y-49599217D01*
X133457052Y-49599226D01*
X133345595Y-49792273D01*
X133345593Y-49792277D01*
X133260293Y-49998209D01*
X133260290Y-49998219D01*
X133250448Y-50034952D01*
X133202597Y-50213534D01*
X133202594Y-50213547D01*
X133173501Y-50434533D01*
X133173500Y-50434549D01*
X133173500Y-50657450D01*
X133173501Y-50657466D01*
X133202594Y-50878452D01*
X133202595Y-50878457D01*
X133202596Y-50878463D01*
X133253558Y-51068656D01*
X133260290Y-51093780D01*
X133260293Y-51093790D01*
X133337923Y-51281204D01*
X133345595Y-51299726D01*
X133457052Y-51492774D01*
X133457057Y-51492780D01*
X133457058Y-51492782D01*
X133592751Y-51669622D01*
X133592757Y-51669629D01*
X133750370Y-51827242D01*
X133750377Y-51827248D01*
X133860042Y-51911396D01*
X133927226Y-51962948D01*
X134120274Y-52074405D01*
X134326219Y-52159710D01*
X134541537Y-52217404D01*
X134671821Y-52234556D01*
X134766567Y-52247030D01*
X134766447Y-52247941D01*
X134828112Y-52270523D01*
X134842077Y-52282551D01*
X136174171Y-53614645D01*
X136174172Y-53614646D01*
X136313354Y-53753828D01*
X136472595Y-53869524D01*
X136647975Y-53958884D01*
X136769004Y-53998209D01*
X136835173Y-54019709D01*
X136890718Y-54028506D01*
X137029578Y-54050500D01*
X138230703Y-54050500D01*
X138297742Y-54070185D01*
X138343497Y-54122989D01*
X138353441Y-54192147D01*
X138336242Y-54239597D01*
X138307719Y-54285838D01*
X138307717Y-54285843D01*
X138252570Y-54452265D01*
X138252569Y-54452272D01*
X138244632Y-54529963D01*
X140639519Y-54529963D01*
X140639519Y-54529962D01*
X140631581Y-54452265D01*
X140576434Y-54285843D01*
X140576431Y-54285836D01*
X140543347Y-54232200D01*
X140524906Y-54164808D01*
X140545828Y-54098144D01*
X140599469Y-54053374D01*
X140629487Y-54044629D01*
X140671150Y-54038030D01*
X140786826Y-54019709D01*
X140974026Y-53958884D01*
X141149405Y-53869524D01*
X141308646Y-53753828D01*
X143675655Y-51386817D01*
X143736978Y-51353333D01*
X143763336Y-51350499D01*
X143800002Y-51350499D01*
X143800008Y-51350499D01*
X143902797Y-51339999D01*
X144069334Y-51284814D01*
X144218656Y-51192712D01*
X144342712Y-51068656D01*
X144434814Y-50919334D01*
X144489999Y-50752797D01*
X144500500Y-50650009D01*
X144500499Y-49349992D01*
X144495391Y-49299992D01*
X144489999Y-49247203D01*
X144489998Y-49247200D01*
X144473463Y-49197302D01*
X144434814Y-49080666D01*
X144342712Y-48931344D01*
X144218656Y-48807288D01*
X144069334Y-48715186D01*
X144069332Y-48715185D01*
X144063440Y-48711551D01*
X144016716Y-48659603D01*
X144005493Y-48590641D01*
X144033337Y-48526558D01*
X144040856Y-48518330D01*
X144179728Y-48379458D01*
X144304620Y-48207557D01*
X144401092Y-48018222D01*
X144439506Y-47900000D01*
X143307106Y-47900000D01*
X143400099Y-47807007D01*
X143465925Y-47692993D01*
X143500000Y-47565826D01*
X143500000Y-47434174D01*
X143465925Y-47307007D01*
X143400099Y-47192993D01*
X143307106Y-47100000D01*
X143400000Y-47100000D01*
X144439506Y-47100000D01*
X144439505Y-47099999D01*
X144401092Y-46981777D01*
X144304620Y-46792442D01*
X144179727Y-46620540D01*
X144179723Y-46620535D01*
X144029464Y-46470276D01*
X144029459Y-46470272D01*
X143857557Y-46345379D01*
X143668215Y-46248903D01*
X143466124Y-46183241D01*
X143400000Y-46172768D01*
X143400000Y-47100000D01*
X143307106Y-47100000D01*
X143307007Y-47099901D01*
X143192993Y-47034075D01*
X143065826Y-47000000D01*
X142934174Y-47000000D01*
X142807007Y-47034075D01*
X142692993Y-47099901D01*
X142599901Y-47192993D01*
X142534075Y-47307007D01*
X142500000Y-47434174D01*
X142500000Y-47565826D01*
X142534075Y-47692993D01*
X142599901Y-47807007D01*
X142692894Y-47900000D01*
X141560494Y-47900000D01*
X141598907Y-48018222D01*
X141695379Y-48207557D01*
X141820272Y-48379459D01*
X141820276Y-48379464D01*
X141959143Y-48518331D01*
X141992628Y-48579654D01*
X141987644Y-48649346D01*
X141945772Y-48705279D01*
X141936559Y-48711551D01*
X141781342Y-48807289D01*
X141657289Y-48931342D01*
X141565187Y-49080663D01*
X141565186Y-49080666D01*
X141510001Y-49247203D01*
X141510001Y-49247204D01*
X141510000Y-49247204D01*
X141499500Y-49349983D01*
X141499500Y-49974663D01*
X141479815Y-50041702D01*
X141463181Y-50062344D01*
X141087130Y-50438395D01*
X141025807Y-50471880D01*
X140956115Y-50466896D01*
X140900182Y-50425024D01*
X140875765Y-50359560D01*
X140881742Y-50311713D01*
X140889999Y-50286797D01*
X140900500Y-50184009D01*
X140900499Y-49383992D01*
X140897026Y-49349998D01*
X140889999Y-49281203D01*
X140889998Y-49281200D01*
X140878732Y-49247203D01*
X140834814Y-49114666D01*
X140742712Y-48965344D01*
X140742710Y-48965342D01*
X140738920Y-48959197D01*
X140740922Y-48957961D01*
X140718997Y-48903619D01*
X140732035Y-48834976D01*
X140739131Y-48823933D01*
X140738920Y-48823803D01*
X140742710Y-48817657D01*
X140742712Y-48817656D01*
X140834814Y-48668334D01*
X140889999Y-48501797D01*
X140900500Y-48399009D01*
X140900499Y-47648992D01*
X140889999Y-47546203D01*
X140834814Y-47379666D01*
X140742712Y-47230344D01*
X140618656Y-47106288D01*
X140608460Y-47099999D01*
X141560494Y-47099999D01*
X141560494Y-47100000D01*
X142600000Y-47100000D01*
X142600000Y-46172768D01*
X142599999Y-46172768D01*
X142533875Y-46183241D01*
X142331784Y-46248903D01*
X142142442Y-46345379D01*
X141970540Y-46470272D01*
X141970535Y-46470276D01*
X141820276Y-46620535D01*
X141820272Y-46620540D01*
X141695379Y-46792442D01*
X141598907Y-46981777D01*
X141560494Y-47099999D01*
X140608460Y-47099999D01*
X140604277Y-47097419D01*
X140594868Y-47088447D01*
X140583640Y-47068998D01*
X140568618Y-47052297D01*
X140566506Y-47039319D01*
X140559935Y-47027937D01*
X140561004Y-47005503D01*
X140557397Y-46983334D01*
X140562635Y-46971278D01*
X140563261Y-46958147D01*
X140576289Y-46939851D01*
X140585240Y-46919252D01*
X140600172Y-46906313D01*
X140603790Y-46901234D01*
X140607963Y-46899563D01*
X140615348Y-46893165D01*
X140618342Y-46891318D01*
X140742315Y-46767345D01*
X140834356Y-46618124D01*
X140834358Y-46618119D01*
X140889505Y-46451697D01*
X140889506Y-46451690D01*
X140897444Y-46374000D01*
X138502557Y-46374000D01*
X138510494Y-46451697D01*
X138565641Y-46618119D01*
X138565643Y-46618124D01*
X138657684Y-46767345D01*
X138781655Y-46891316D01*
X138781659Y-46891319D01*
X138784656Y-46893168D01*
X138786279Y-46894972D01*
X138787323Y-46895798D01*
X138787181Y-46895976D01*
X138831381Y-46945116D01*
X138842602Y-47014079D01*
X138814759Y-47078161D01*
X138784661Y-47104241D01*
X138781349Y-47106283D01*
X138781343Y-47106288D01*
X138657289Y-47230342D01*
X138565187Y-47379663D01*
X138565185Y-47379668D01*
X138563007Y-47386242D01*
X138510001Y-47546203D01*
X138510001Y-47546204D01*
X138510000Y-47546204D01*
X138499500Y-47648983D01*
X138499500Y-48399001D01*
X138499501Y-48399019D01*
X138510000Y-48501796D01*
X138510001Y-48501799D01*
X138558894Y-48649346D01*
X138565186Y-48668334D01*
X138610410Y-48741655D01*
X138661080Y-48823803D01*
X138659081Y-48825035D01*
X138681005Y-48879410D01*
X138667951Y-48948050D01*
X138660869Y-48959067D01*
X138661080Y-48959197D01*
X138565187Y-49114663D01*
X138565186Y-49114666D01*
X138510001Y-49281203D01*
X138510001Y-49281204D01*
X138510000Y-49281204D01*
X138499500Y-49383983D01*
X138499500Y-50184001D01*
X138499501Y-50184019D01*
X138510000Y-50286796D01*
X138510001Y-50286799D01*
X138530493Y-50348638D01*
X138565186Y-50453334D01*
X138627271Y-50553991D01*
X138657289Y-50602657D01*
X138750951Y-50696319D01*
X138784436Y-50757642D01*
X138779452Y-50827334D01*
X138750951Y-50871681D01*
X138657289Y-50965342D01*
X138565187Y-51114663D01*
X138565185Y-51114668D01*
X138539325Y-51192710D01*
X138510001Y-51281203D01*
X138510001Y-51281204D01*
X138510000Y-51281204D01*
X138499500Y-51383983D01*
X138499500Y-51425500D01*
X138479815Y-51492539D01*
X138427011Y-51538294D01*
X138375500Y-51549500D01*
X137697336Y-51549500D01*
X137630297Y-51529815D01*
X137609655Y-51513181D01*
X136610551Y-50514077D01*
X136577066Y-50452754D01*
X136575068Y-50438561D01*
X136575030Y-50438567D01*
X136545405Y-50213547D01*
X136545404Y-50213537D01*
X136487710Y-49998219D01*
X136402405Y-49792274D01*
X136290948Y-49599226D01*
X136270632Y-49572749D01*
X136152776Y-49419155D01*
X136153501Y-49418598D01*
X136125866Y-49359001D01*
X136124500Y-49340644D01*
X136124500Y-48351355D01*
X136144185Y-48284316D01*
X136152806Y-48272868D01*
X136152776Y-48272845D01*
X136238154Y-48161577D01*
X136290948Y-48092774D01*
X136402405Y-47899726D01*
X136487710Y-47693781D01*
X136545404Y-47478463D01*
X136574500Y-47257457D01*
X136574500Y-47034543D01*
X136545404Y-46813537D01*
X136487710Y-46598219D01*
X136402405Y-46392274D01*
X136290948Y-46199226D01*
X136251867Y-46148294D01*
X136155248Y-46022377D01*
X136155242Y-46022370D01*
X135997629Y-45864757D01*
X135997622Y-45864751D01*
X135820782Y-45729058D01*
X135820780Y-45729057D01*
X135820774Y-45729052D01*
X135627726Y-45617595D01*
X135627722Y-45617593D01*
X135522479Y-45574000D01*
X138502556Y-45574000D01*
X139300000Y-45574000D01*
X140100000Y-45574000D01*
X140897443Y-45574000D01*
X140897443Y-45573999D01*
X140889505Y-45496302D01*
X140834358Y-45329880D01*
X140834356Y-45329875D01*
X140742315Y-45180654D01*
X140618345Y-45056684D01*
X140469124Y-44964643D01*
X140469119Y-44964641D01*
X140302697Y-44909494D01*
X140302690Y-44909493D01*
X140199986Y-44899000D01*
X140100000Y-44899000D01*
X140100000Y-45574000D01*
X139300000Y-45574000D01*
X139300000Y-44898999D01*
X139200028Y-44899000D01*
X139200012Y-44899001D01*
X139097302Y-44909494D01*
X138930880Y-44964641D01*
X138930875Y-44964643D01*
X138781654Y-45056684D01*
X138657684Y-45180654D01*
X138565643Y-45329875D01*
X138565641Y-45329880D01*
X138510494Y-45496302D01*
X138510493Y-45496309D01*
X138502556Y-45574000D01*
X135522479Y-45574000D01*
X135421790Y-45532293D01*
X135421783Y-45532291D01*
X135421781Y-45532290D01*
X135206463Y-45474596D01*
X135206457Y-45474595D01*
X135206452Y-45474594D01*
X134985466Y-45445501D01*
X134985463Y-45445500D01*
X134985457Y-45445500D01*
X134762543Y-45445500D01*
X134762537Y-45445500D01*
X134762533Y-45445501D01*
X134541547Y-45474594D01*
X134541540Y-45474595D01*
X134541537Y-45474596D01*
X134460529Y-45496302D01*
X134326219Y-45532290D01*
X134326209Y-45532293D01*
X134120277Y-45617593D01*
X134120273Y-45617595D01*
X133927226Y-45729052D01*
X133927217Y-45729058D01*
X133750377Y-45864751D01*
X133750370Y-45864757D01*
X133592757Y-46022370D01*
X133592751Y-46022377D01*
X133457058Y-46199217D01*
X133457052Y-46199226D01*
X133345595Y-46392273D01*
X133345593Y-46392277D01*
X133260293Y-46598209D01*
X133260290Y-46598219D01*
X133208249Y-46792442D01*
X133202597Y-46813534D01*
X133202594Y-46813547D01*
X133173501Y-47034533D01*
X133173500Y-47034549D01*
X123104500Y-47034549D01*
X123104500Y-47034543D01*
X123075404Y-46813537D01*
X123017710Y-46598219D01*
X122932405Y-46392274D01*
X122820948Y-46199226D01*
X122781867Y-46148294D01*
X122685248Y-46022377D01*
X122685242Y-46022370D01*
X122527629Y-45864757D01*
X122527622Y-45864751D01*
X122350782Y-45729058D01*
X122350780Y-45729057D01*
X122350774Y-45729052D01*
X122157726Y-45617595D01*
X122157722Y-45617593D01*
X121951790Y-45532293D01*
X121951783Y-45532291D01*
X121951781Y-45532290D01*
X121736463Y-45474596D01*
X121736457Y-45474595D01*
X121736452Y-45474594D01*
X121515466Y-45445501D01*
X121515463Y-45445500D01*
X121515457Y-45445500D01*
X121292543Y-45445500D01*
X121292537Y-45445500D01*
X121292533Y-45445501D01*
X121071547Y-45474594D01*
X121071540Y-45474595D01*
X121071537Y-45474596D01*
X120990529Y-45496302D01*
X120856219Y-45532290D01*
X120856209Y-45532293D01*
X120650277Y-45617593D01*
X120650273Y-45617595D01*
X120457226Y-45729052D01*
X120457217Y-45729058D01*
X120280377Y-45864751D01*
X120280370Y-45864757D01*
X120122757Y-46022370D01*
X120122751Y-46022377D01*
X119987058Y-46199217D01*
X119987052Y-46199226D01*
X119875595Y-46392273D01*
X119875593Y-46392277D01*
X119790293Y-46598209D01*
X119790290Y-46598219D01*
X119738249Y-46792442D01*
X119732597Y-46813534D01*
X119732594Y-46813547D01*
X119703501Y-47034533D01*
X119703500Y-47034549D01*
X119703500Y-47257450D01*
X119703501Y-47257466D01*
X119732594Y-47478452D01*
X119732595Y-47478457D01*
X119732596Y-47478463D01*
X119790079Y-47692993D01*
X119790290Y-47693780D01*
X119790293Y-47693790D01*
X119840811Y-47815750D01*
X119875595Y-47899726D01*
X119987052Y-48092774D01*
X119987057Y-48092780D01*
X119987058Y-48092782D01*
X120125224Y-48272845D01*
X120124494Y-48273404D01*
X120152131Y-48332977D01*
X120153500Y-48351355D01*
X120153500Y-49340644D01*
X120133815Y-49407683D01*
X120125193Y-49419131D01*
X120125224Y-49419155D01*
X119987058Y-49599217D01*
X119987052Y-49599226D01*
X119875595Y-49792273D01*
X119875593Y-49792277D01*
X119790293Y-49998209D01*
X119790290Y-49998219D01*
X119780448Y-50034952D01*
X119732597Y-50213534D01*
X119732594Y-50213547D01*
X119703501Y-50434533D01*
X119703500Y-50434549D01*
X119703500Y-50657450D01*
X119703501Y-50657466D01*
X119732594Y-50878452D01*
X119732595Y-50878457D01*
X119732596Y-50878463D01*
X119783558Y-51068656D01*
X119790290Y-51093780D01*
X119790293Y-51093790D01*
X119867923Y-51281204D01*
X119875595Y-51299726D01*
X119987052Y-51492774D01*
X119987057Y-51492780D01*
X119987058Y-51492782D01*
X120125224Y-51672845D01*
X120124494Y-51673404D01*
X120152131Y-51732977D01*
X120153500Y-51751355D01*
X120153500Y-54691266D01*
X120133815Y-54758305D01*
X120117181Y-54778947D01*
X119983757Y-54912370D01*
X119983751Y-54912377D01*
X119848058Y-55089217D01*
X119848052Y-55089226D01*
X119736595Y-55282273D01*
X119736593Y-55282277D01*
X119651293Y-55488209D01*
X119651290Y-55488219D01*
X119606566Y-55655134D01*
X119593597Y-55703534D01*
X119593594Y-55703547D01*
X119564501Y-55924533D01*
X119564500Y-55924549D01*
X119564500Y-56147450D01*
X119564501Y-56147466D01*
X119593594Y-56368452D01*
X119593595Y-56368457D01*
X119593596Y-56368463D01*
X119629422Y-56502167D01*
X119651290Y-56583780D01*
X119651293Y-56583790D01*
X119713679Y-56734401D01*
X119721148Y-56803870D01*
X119690179Y-56866020D01*
X119436648Y-57140323D01*
X119376689Y-57176193D01*
X119357669Y-57179567D01*
X113188508Y-57783535D01*
X113138110Y-57778057D01*
X113124451Y-57773619D01*
X113092243Y-57763154D01*
X113092239Y-57763153D01*
X113092238Y-57763153D01*
X112973028Y-57744272D01*
X112882287Y-57729900D01*
X112669713Y-57729900D01*
X112621042Y-57737608D01*
X112459760Y-57763153D01*
X112257590Y-57828842D01*
X112257584Y-57828844D01*
X112180408Y-57868167D01*
X112134922Y-57881209D01*
X110670213Y-58009355D01*
X110621088Y-58003758D01*
X110561905Y-57984528D01*
X110400622Y-57958983D01*
X110351952Y-57951275D01*
X110139378Y-57951275D01*
X110090707Y-57958983D01*
X109929425Y-57984528D01*
X109727255Y-58050217D01*
X109727249Y-58050219D01*
X109650071Y-58089543D01*
X109604585Y-58102585D01*
X108139878Y-58230730D01*
X108090753Y-58225133D01*
X108031575Y-58205905D01*
X107926596Y-58189278D01*
X107821618Y-58172651D01*
X107609044Y-58172651D01*
X107560373Y-58180359D01*
X107399091Y-58205904D01*
X107196921Y-58271593D01*
X107196915Y-58271595D01*
X107119739Y-58310918D01*
X107074253Y-58323960D01*
X105609544Y-58452106D01*
X105560419Y-58446509D01*
X105501236Y-58427279D01*
X105339953Y-58401734D01*
X105291283Y-58394026D01*
X105078709Y-58394026D01*
X105030038Y-58401734D01*
X104868756Y-58427279D01*
X104801363Y-58449176D01*
X104678132Y-58489217D01*
X104666578Y-58492971D01*
X104589403Y-58532293D01*
X104543916Y-58545336D01*
X103079209Y-58673481D01*
X103030084Y-58667884D01*
X102970906Y-58648656D01*
X102865927Y-58632029D01*
X102760949Y-58615402D01*
X102548375Y-58615402D01*
X102499704Y-58623110D01*
X102338422Y-58648655D01*
X102136247Y-58714346D01*
X101946841Y-58810853D01*
X101774875Y-58935792D01*
X101759022Y-58951644D01*
X101655219Y-57935461D01*
X88392000Y-58928000D01*
X87098078Y-58928000D01*
X87175524Y-58821405D01*
X87264884Y-58646026D01*
X87325709Y-58458826D01*
X87330705Y-58427280D01*
X87356500Y-58264422D01*
X87356500Y-52491246D01*
X87380128Y-52489648D01*
X87699009Y-57576556D01*
X102102753Y-56844639D01*
X102012907Y-55965099D01*
X102134208Y-56026905D01*
X102336377Y-56092594D01*
X102546333Y-56125848D01*
X102546334Y-56125848D01*
X102758906Y-56125848D01*
X102758907Y-56125848D01*
X102968863Y-56092594D01*
X103122648Y-56042626D01*
X103155608Y-56031917D01*
X103193926Y-56025848D01*
X104651314Y-56025848D01*
X104689632Y-56031917D01*
X104762408Y-56055563D01*
X104876377Y-56092594D01*
X105086333Y-56125848D01*
X105086334Y-56125848D01*
X105298906Y-56125848D01*
X105298907Y-56125848D01*
X105508863Y-56092594D01*
X105662648Y-56042626D01*
X105695608Y-56031917D01*
X105733926Y-56025848D01*
X106327583Y-56025848D01*
X107191314Y-56025848D01*
X107229632Y-56031917D01*
X107302408Y-56055563D01*
X107416377Y-56092594D01*
X107626333Y-56125848D01*
X107626334Y-56125848D01*
X107838906Y-56125848D01*
X107838907Y-56125848D01*
X108048863Y-56092594D01*
X108202648Y-56042626D01*
X108235608Y-56031917D01*
X108273926Y-56025848D01*
X109731314Y-56025848D01*
X109769632Y-56031917D01*
X109842408Y-56055563D01*
X109956377Y-56092594D01*
X110166333Y-56125848D01*
X110166334Y-56125848D01*
X110378906Y-56125848D01*
X110378907Y-56125848D01*
X110588863Y-56092594D01*
X110742648Y-56042626D01*
X110775608Y-56031917D01*
X110813926Y-56025848D01*
X112271314Y-56025848D01*
X112309632Y-56031917D01*
X112382408Y-56055563D01*
X112496377Y-56092594D01*
X112706333Y-56125848D01*
X112706334Y-56125848D01*
X112918906Y-56125848D01*
X112918907Y-56125848D01*
X113128863Y-56092594D01*
X113282648Y-56042626D01*
X113315608Y-56031917D01*
X113353926Y-56025848D01*
X114912012Y-56025848D01*
X114979051Y-56045533D01*
X114999693Y-56062167D01*
X115771354Y-56833828D01*
X115930595Y-56949524D01*
X115962784Y-56965925D01*
X116105969Y-57038882D01*
X116105971Y-57038882D01*
X116105974Y-57038884D01*
X116172923Y-57060637D01*
X116293173Y-57099709D01*
X116487579Y-57130500D01*
X116487584Y-57130500D01*
X116684422Y-57130500D01*
X116878826Y-57099709D01*
X117066026Y-57038884D01*
X117241405Y-56949524D01*
X117400646Y-56833828D01*
X117539828Y-56694646D01*
X117655524Y-56535405D01*
X117744884Y-56360026D01*
X117805709Y-56172826D01*
X117809728Y-56147450D01*
X117836500Y-55978422D01*
X117836500Y-55781578D01*
X117805709Y-55587173D01*
X117771914Y-55483164D01*
X117744884Y-55399974D01*
X117744882Y-55399971D01*
X117744882Y-55399969D01*
X117681384Y-55275348D01*
X117655524Y-55224595D01*
X117539828Y-55065354D01*
X116295994Y-53821520D01*
X116136753Y-53705824D01*
X116092457Y-53683254D01*
X115961378Y-53616465D01*
X115774174Y-53555638D01*
X115579770Y-53524848D01*
X115579765Y-53524848D01*
X113353926Y-53524848D01*
X113315608Y-53518779D01*
X113128860Y-53458101D01*
X112967577Y-53432556D01*
X112918907Y-53424848D01*
X112706333Y-53424848D01*
X112666822Y-53431105D01*
X112496379Y-53458101D01*
X112309632Y-53518779D01*
X112271314Y-53524848D01*
X110813926Y-53524848D01*
X110775608Y-53518779D01*
X110588860Y-53458101D01*
X110427577Y-53432556D01*
X110378907Y-53424848D01*
X110166333Y-53424848D01*
X110126822Y-53431105D01*
X109956379Y-53458101D01*
X109769632Y-53518779D01*
X109731314Y-53524848D01*
X108273926Y-53524848D01*
X108235608Y-53518779D01*
X108048860Y-53458101D01*
X107887577Y-53432556D01*
X107838907Y-53424848D01*
X107838906Y-53424848D01*
X107800500Y-53424848D01*
X107733461Y-53405163D01*
X107687706Y-53352359D01*
X107676500Y-53300848D01*
X107676500Y-45435986D01*
X113916001Y-45435986D01*
X113926494Y-45538697D01*
X113981641Y-45705119D01*
X113981643Y-45705124D01*
X114073684Y-45854345D01*
X114197654Y-45978315D01*
X114346875Y-46070356D01*
X114346880Y-46070358D01*
X114513302Y-46125505D01*
X114513309Y-46125506D01*
X114616019Y-46135999D01*
X114915999Y-46135999D01*
X115716000Y-46135999D01*
X116015972Y-46135999D01*
X116015986Y-46135998D01*
X116118697Y-46125505D01*
X116285119Y-46070358D01*
X116285124Y-46070356D01*
X116434345Y-45978315D01*
X116558315Y-45854345D01*
X116650356Y-45705124D01*
X116650358Y-45705119D01*
X116705505Y-45538697D01*
X116705506Y-45538690D01*
X116715999Y-45435986D01*
X116716000Y-45435973D01*
X116716000Y-44786000D01*
X115716000Y-44786000D01*
X115716000Y-46135999D01*
X114915999Y-46135999D01*
X114916000Y-46135998D01*
X114916000Y-44786000D01*
X113916001Y-44786000D01*
X113916001Y-45435986D01*
X107676500Y-45435986D01*
X107676500Y-43336013D01*
X113916000Y-43336013D01*
X113916000Y-43986000D01*
X114916000Y-43986000D01*
X115716000Y-43986000D01*
X116715999Y-43986000D01*
X116715999Y-43336028D01*
X116715998Y-43336013D01*
X116705505Y-43233302D01*
X116650358Y-43066880D01*
X116650356Y-43066875D01*
X116558315Y-42917654D01*
X116434345Y-42793684D01*
X116285124Y-42701643D01*
X116285119Y-42701641D01*
X116118697Y-42646494D01*
X116118690Y-42646493D01*
X116015986Y-42636000D01*
X115716000Y-42636000D01*
X115716000Y-43986000D01*
X114916000Y-43986000D01*
X114916000Y-42636000D01*
X114616028Y-42636000D01*
X114616012Y-42636001D01*
X114513302Y-42646494D01*
X114346880Y-42701641D01*
X114346875Y-42701643D01*
X114197654Y-42793684D01*
X114073684Y-42917654D01*
X113981643Y-43066875D01*
X113981641Y-43066880D01*
X113926494Y-43233302D01*
X113926493Y-43233309D01*
X113916000Y-43336013D01*
X107676500Y-43336013D01*
X107676500Y-42401577D01*
X107645709Y-42207177D01*
X107645709Y-42207174D01*
X107638612Y-42185333D01*
X107632028Y-42165068D01*
X107584885Y-42019976D01*
X107584884Y-42019973D01*
X107531093Y-41914404D01*
X107495524Y-41844595D01*
X107379828Y-41685354D01*
X104113146Y-38418672D01*
X103953905Y-38302976D01*
X103778530Y-38213617D01*
X103591326Y-38152790D01*
X103396922Y-38122000D01*
X103396917Y-38122000D01*
X97874500Y-38122000D01*
X97807461Y-38102315D01*
X97761706Y-38049511D01*
X97750500Y-37998000D01*
X97750500Y-35901577D01*
X97719709Y-35707173D01*
X97658882Y-35519970D01*
X97569523Y-35344593D01*
X97547729Y-35314598D01*
X97547728Y-35314597D01*
X97547728Y-35314596D01*
X97453829Y-35185355D01*
X96314646Y-34046172D01*
X96155405Y-33930476D01*
X96127479Y-33916247D01*
X95980030Y-33841117D01*
X95792826Y-33780290D01*
X95598422Y-33749500D01*
X95598417Y-33749500D01*
X90069336Y-33749500D01*
X90002297Y-33729815D01*
X89981655Y-33713181D01*
X88792490Y-32524016D01*
X102574454Y-31823695D01*
X102447906Y-30584865D01*
X102500048Y-30593124D01*
X102500049Y-30593124D01*
X102712621Y-30593124D01*
X102712622Y-30593124D01*
X102922578Y-30559870D01*
X103124747Y-30494181D01*
X103201925Y-30454856D01*
X103247409Y-30441813D01*
X104712124Y-30313667D01*
X104761241Y-30319263D01*
X104820426Y-30338494D01*
X105030382Y-30371748D01*
X105030383Y-30371748D01*
X105242955Y-30371748D01*
X105242956Y-30371748D01*
X105452912Y-30338494D01*
X105655081Y-30272805D01*
X105732257Y-30233480D01*
X105777743Y-30220437D01*
X107242457Y-30092291D01*
X107291573Y-30097887D01*
X107350761Y-30117119D01*
X107560717Y-30150373D01*
X107560718Y-30150373D01*
X107773290Y-30150373D01*
X107773291Y-30150373D01*
X107983247Y-30117119D01*
X108185416Y-30051430D01*
X108262595Y-30012104D01*
X108308082Y-29999062D01*
X109772792Y-29870916D01*
X109821909Y-29876512D01*
X109881095Y-29895743D01*
X110091051Y-29928997D01*
X110091052Y-29928997D01*
X110303624Y-29928997D01*
X110303625Y-29928997D01*
X110513581Y-29895743D01*
X110715750Y-29830054D01*
X110792928Y-29790729D01*
X110838412Y-29777686D01*
X111342366Y-29733596D01*
X111410866Y-29747363D01*
X111461049Y-29795978D01*
X111477173Y-29857124D01*
X111477173Y-37896095D01*
X111507963Y-38090499D01*
X111568790Y-38277703D01*
X111632275Y-38402298D01*
X111658149Y-38453078D01*
X111773845Y-38612319D01*
X111773847Y-38612321D01*
X113879181Y-40717655D01*
X113912666Y-40778978D01*
X113915500Y-40805336D01*
X113915500Y-41436001D01*
X113915501Y-41436019D01*
X113926000Y-41538796D01*
X113926001Y-41538799D01*
X113974564Y-41685351D01*
X113981186Y-41705334D01*
X114073288Y-41854656D01*
X114197344Y-41978712D01*
X114346666Y-42070814D01*
X114513203Y-42125999D01*
X114615991Y-42136500D01*
X116016008Y-42136499D01*
X116118797Y-42125999D01*
X116285334Y-42070814D01*
X116434656Y-41978712D01*
X116558712Y-41854656D01*
X116650814Y-41705334D01*
X116650815Y-41705331D01*
X116654605Y-41699187D01*
X116656399Y-41700293D01*
X116695687Y-41655663D01*
X116761908Y-41636500D01*
X120198645Y-41636500D01*
X120265684Y-41656185D01*
X120277131Y-41664806D01*
X120277155Y-41664776D01*
X120430749Y-41782632D01*
X120457226Y-41802948D01*
X120650274Y-41914405D01*
X120856219Y-41999710D01*
X121071537Y-42057404D01*
X121292543Y-42086500D01*
X121292550Y-42086500D01*
X121515450Y-42086500D01*
X121515457Y-42086500D01*
X121736463Y-42057404D01*
X121951781Y-41999710D01*
X122157726Y-41914405D01*
X122350774Y-41802948D01*
X122527624Y-41667247D01*
X122685247Y-41509624D01*
X122820948Y-41332774D01*
X122932405Y-41139726D01*
X123017710Y-40933781D01*
X123075404Y-40718463D01*
X123104500Y-40497457D01*
X123104500Y-40274543D01*
X123075404Y-40053537D01*
X123017710Y-39838219D01*
X122932405Y-39632274D01*
X122820948Y-39439226D01*
X122800632Y-39412749D01*
X122682776Y-39259155D01*
X122683501Y-39258598D01*
X122655866Y-39199001D01*
X122654500Y-39180644D01*
X122654500Y-38191355D01*
X122674185Y-38124316D01*
X122682806Y-38112868D01*
X122682776Y-38112845D01*
X122769364Y-38000000D01*
X122820948Y-37932774D01*
X122932405Y-37739726D01*
X123017710Y-37533781D01*
X123075404Y-37318463D01*
X123104500Y-37097457D01*
X123104500Y-36874549D01*
X133173500Y-36874549D01*
X133173500Y-37097450D01*
X133173501Y-37097466D01*
X133202594Y-37318452D01*
X133202595Y-37318457D01*
X133202596Y-37318463D01*
X133254455Y-37512003D01*
X133260290Y-37533780D01*
X133260293Y-37533790D01*
X133345593Y-37739722D01*
X133345595Y-37739726D01*
X133457052Y-37932774D01*
X133457057Y-37932780D01*
X133457058Y-37932782D01*
X133595224Y-38112845D01*
X133594494Y-38113404D01*
X133622131Y-38172977D01*
X133623500Y-38191355D01*
X133623500Y-39180644D01*
X133603815Y-39247683D01*
X133595193Y-39259131D01*
X133595224Y-39259155D01*
X133457058Y-39439217D01*
X133457052Y-39439226D01*
X133345595Y-39632273D01*
X133345593Y-39632277D01*
X133260293Y-39838209D01*
X133260290Y-39838219D01*
X133206403Y-40039331D01*
X133202597Y-40053534D01*
X133202594Y-40053547D01*
X133173501Y-40274533D01*
X133173500Y-40274549D01*
X133173500Y-40497450D01*
X133173501Y-40497466D01*
X133202594Y-40718452D01*
X133202595Y-40718457D01*
X133202596Y-40718463D01*
X133260290Y-40933780D01*
X133260293Y-40933790D01*
X133316157Y-41068657D01*
X133345595Y-41139726D01*
X133457052Y-41332774D01*
X133457057Y-41332780D01*
X133457058Y-41332782D01*
X133592751Y-41509622D01*
X133592757Y-41509629D01*
X133750370Y-41667242D01*
X133750377Y-41667248D01*
X133800008Y-41705331D01*
X133927226Y-41802948D01*
X134120274Y-41914405D01*
X134326219Y-41999710D01*
X134541537Y-42057404D01*
X134671821Y-42074556D01*
X134766567Y-42087030D01*
X134766447Y-42087941D01*
X134828112Y-42110523D01*
X134842077Y-42122551D01*
X135329354Y-42609828D01*
X135488595Y-42725524D01*
X135571454Y-42767742D01*
X135663969Y-42814882D01*
X135663971Y-42814882D01*
X135663974Y-42814884D01*
X135764316Y-42847487D01*
X135851172Y-42875709D01*
X136045578Y-42906500D01*
X136045583Y-42906500D01*
X141444422Y-42906500D01*
X141638826Y-42875709D01*
X141826026Y-42814884D01*
X142001405Y-42725524D01*
X142160646Y-42609828D01*
X143383655Y-41386817D01*
X143444978Y-41353333D01*
X143471336Y-41350499D01*
X143802002Y-41350499D01*
X143802008Y-41350499D01*
X143904797Y-41339999D01*
X144071334Y-41284814D01*
X144220656Y-41192712D01*
X144344712Y-41068656D01*
X144436814Y-40919334D01*
X144491999Y-40752797D01*
X144502500Y-40650009D01*
X144502499Y-39349992D01*
X144491999Y-39247203D01*
X144436814Y-39080666D01*
X144344712Y-38931344D01*
X144220656Y-38807288D01*
X144071334Y-38715186D01*
X144071332Y-38715185D01*
X144065440Y-38711551D01*
X144018716Y-38659603D01*
X144007493Y-38590641D01*
X144035337Y-38526558D01*
X144042856Y-38518330D01*
X144181728Y-38379458D01*
X144306620Y-38207557D01*
X144403092Y-38018222D01*
X144441506Y-37900000D01*
X143309106Y-37900000D01*
X143402099Y-37807007D01*
X143467925Y-37692993D01*
X143502000Y-37565826D01*
X143502000Y-37434174D01*
X143467925Y-37307007D01*
X143402099Y-37192993D01*
X143309106Y-37100000D01*
X143402000Y-37100000D01*
X144441506Y-37100000D01*
X144441505Y-37099999D01*
X144403092Y-36981777D01*
X144306620Y-36792442D01*
X144181727Y-36620540D01*
X144181723Y-36620535D01*
X144031464Y-36470276D01*
X144031459Y-36470272D01*
X143859557Y-36345379D01*
X143670215Y-36248903D01*
X143468124Y-36183241D01*
X143402000Y-36172768D01*
X143402000Y-37100000D01*
X143309106Y-37100000D01*
X143309007Y-37099901D01*
X143194993Y-37034075D01*
X143067826Y-37000000D01*
X142936174Y-37000000D01*
X142809007Y-37034075D01*
X142694993Y-37099901D01*
X142601901Y-37192993D01*
X142536075Y-37307007D01*
X142502000Y-37434174D01*
X142502000Y-37565826D01*
X142536075Y-37692993D01*
X142601901Y-37807007D01*
X142694894Y-37900000D01*
X141562494Y-37900000D01*
X141600907Y-38018222D01*
X141697379Y-38207557D01*
X141822272Y-38379459D01*
X141822276Y-38379464D01*
X141961143Y-38518331D01*
X141994628Y-38579654D01*
X141989644Y-38649346D01*
X141947772Y-38705279D01*
X141938559Y-38711551D01*
X141783342Y-38807289D01*
X141659289Y-38931342D01*
X141567187Y-39080663D01*
X141567185Y-39080668D01*
X141552729Y-39124294D01*
X141512001Y-39247203D01*
X141512001Y-39247204D01*
X141512000Y-39247204D01*
X141501500Y-39349983D01*
X141501500Y-39680663D01*
X141481815Y-39747702D01*
X141465181Y-39768344D01*
X141006496Y-40227029D01*
X140945173Y-40260514D01*
X140875481Y-40255530D01*
X140819548Y-40213658D01*
X140795131Y-40148194D01*
X140809983Y-40079921D01*
X140813264Y-40074271D01*
X140834814Y-40039334D01*
X140889999Y-39872797D01*
X140900500Y-39770009D01*
X140900499Y-38969992D01*
X140899693Y-38962106D01*
X140889999Y-38867203D01*
X140889998Y-38867200D01*
X140834814Y-38700666D01*
X140742712Y-38551344D01*
X140707756Y-38516388D01*
X140674271Y-38455065D01*
X140679255Y-38385373D01*
X140707756Y-38341026D01*
X140730596Y-38318186D01*
X140760236Y-38288546D01*
X140852338Y-38139224D01*
X140907523Y-37972687D01*
X140918024Y-37869899D01*
X140918023Y-37119882D01*
X140915992Y-37099999D01*
X141562494Y-37099999D01*
X141562494Y-37100000D01*
X142602000Y-37100000D01*
X142602000Y-36172768D01*
X142601999Y-36172768D01*
X142535875Y-36183241D01*
X142333784Y-36248903D01*
X142144442Y-36345379D01*
X141972540Y-36470272D01*
X141972535Y-36470276D01*
X141822276Y-36620535D01*
X141822272Y-36620540D01*
X141697379Y-36792442D01*
X141600907Y-36981777D01*
X141562494Y-37099999D01*
X140915992Y-37099999D01*
X140907523Y-37017093D01*
X140852338Y-36850556D01*
X140760236Y-36701234D01*
X140636180Y-36577178D01*
X140632866Y-36575133D01*
X140631070Y-36573138D01*
X140630513Y-36572697D01*
X140630588Y-36572601D01*
X140586142Y-36523187D01*
X140574921Y-36454224D01*
X140602764Y-36390142D01*
X140632872Y-36364055D01*
X140635866Y-36362208D01*
X140759839Y-36238235D01*
X140851880Y-36089014D01*
X140851882Y-36089009D01*
X140907029Y-35922587D01*
X140907030Y-35922580D01*
X140914968Y-35844890D01*
X138520081Y-35844890D01*
X138528018Y-35922587D01*
X138583165Y-36089009D01*
X138583167Y-36089014D01*
X138675208Y-36238235D01*
X138799179Y-36362206D01*
X138799183Y-36362209D01*
X138802180Y-36364058D01*
X138803803Y-36365862D01*
X138804847Y-36366688D01*
X138804705Y-36366866D01*
X138848905Y-36416006D01*
X138860126Y-36484969D01*
X138832283Y-36549051D01*
X138802185Y-36575131D01*
X138798873Y-36577173D01*
X138798867Y-36577178D01*
X138674813Y-36701232D01*
X138582711Y-36850553D01*
X138582710Y-36850556D01*
X138527525Y-37017093D01*
X138527525Y-37017094D01*
X138527524Y-37017094D01*
X138517024Y-37119873D01*
X138517024Y-37869891D01*
X138517025Y-37869909D01*
X138527524Y-37972686D01*
X138527525Y-37972689D01*
X138582709Y-38139221D01*
X138582711Y-38139226D01*
X138674813Y-38288547D01*
X138709768Y-38323502D01*
X138743253Y-38384825D01*
X138738269Y-38454517D01*
X138709768Y-38498864D01*
X138657289Y-38551342D01*
X138565187Y-38700663D01*
X138565185Y-38700668D01*
X138552980Y-38737500D01*
X138510001Y-38867203D01*
X138510001Y-38867204D01*
X138510000Y-38867204D01*
X138499500Y-38969983D01*
X138499500Y-39770001D01*
X138499501Y-39770019D01*
X138510000Y-39872796D01*
X138510001Y-39872799D01*
X138565185Y-40039331D01*
X138565187Y-40039336D01*
X138657289Y-40188657D01*
X138662451Y-40193819D01*
X138695936Y-40255142D01*
X138690952Y-40324834D01*
X138649080Y-40380767D01*
X138583616Y-40405184D01*
X138574770Y-40405500D01*
X136713336Y-40405500D01*
X136683895Y-40396855D01*
X136653909Y-40390332D01*
X136648893Y-40386577D01*
X136646297Y-40385815D01*
X136625655Y-40369181D01*
X136610551Y-40354077D01*
X136577066Y-40292754D01*
X136575068Y-40278561D01*
X136575030Y-40278567D01*
X136549476Y-40084469D01*
X136545404Y-40053537D01*
X136487710Y-39838219D01*
X136402405Y-39632274D01*
X136290948Y-39439226D01*
X136270632Y-39412749D01*
X136152776Y-39259155D01*
X136153501Y-39258598D01*
X136125866Y-39199001D01*
X136124500Y-39180644D01*
X136124500Y-38191355D01*
X136144185Y-38124316D01*
X136152806Y-38112868D01*
X136152776Y-38112845D01*
X136239364Y-38000000D01*
X136290948Y-37932774D01*
X136402405Y-37739726D01*
X136487710Y-37533781D01*
X136545404Y-37318463D01*
X136574500Y-37097457D01*
X136574500Y-36874543D01*
X136545404Y-36653537D01*
X136487710Y-36438219D01*
X136484260Y-36429891D01*
X136456197Y-36362140D01*
X136402405Y-36232274D01*
X136290948Y-36039226D01*
X136201443Y-35922580D01*
X136155248Y-35862377D01*
X136155242Y-35862370D01*
X135997629Y-35704757D01*
X135997622Y-35704751D01*
X135820782Y-35569058D01*
X135820780Y-35569057D01*
X135820774Y-35569052D01*
X135627726Y-35457595D01*
X135627722Y-35457593D01*
X135421790Y-35372293D01*
X135421783Y-35372291D01*
X135421781Y-35372290D01*
X135206463Y-35314596D01*
X135206457Y-35314595D01*
X135206452Y-35314594D01*
X134985466Y-35285501D01*
X134985463Y-35285500D01*
X134985457Y-35285500D01*
X134762543Y-35285500D01*
X134762537Y-35285500D01*
X134762533Y-35285501D01*
X134541547Y-35314594D01*
X134541540Y-35314595D01*
X134541537Y-35314596D01*
X134541530Y-35314598D01*
X134326219Y-35372290D01*
X134326209Y-35372293D01*
X134120277Y-35457593D01*
X134120273Y-35457595D01*
X133927226Y-35569052D01*
X133927217Y-35569058D01*
X133750377Y-35704751D01*
X133750370Y-35704757D01*
X133592757Y-35862370D01*
X133592751Y-35862377D01*
X133457058Y-36039217D01*
X133457052Y-36039226D01*
X133345595Y-36232273D01*
X133345593Y-36232277D01*
X133260293Y-36438209D01*
X133260290Y-36438219D01*
X133211438Y-36620540D01*
X133202597Y-36653534D01*
X133202594Y-36653547D01*
X133173501Y-36874533D01*
X133173500Y-36874549D01*
X123104500Y-36874549D01*
X123104500Y-36874543D01*
X123075404Y-36653537D01*
X123017710Y-36438219D01*
X123014260Y-36429891D01*
X122986197Y-36362140D01*
X122932405Y-36232274D01*
X122820948Y-36039226D01*
X122731443Y-35922580D01*
X122685248Y-35862377D01*
X122685242Y-35862370D01*
X122527629Y-35704757D01*
X122527622Y-35704751D01*
X122350782Y-35569058D01*
X122350780Y-35569057D01*
X122350774Y-35569052D01*
X122157726Y-35457595D01*
X122157722Y-35457593D01*
X121951790Y-35372293D01*
X121951783Y-35372291D01*
X121951781Y-35372290D01*
X121736463Y-35314596D01*
X121736457Y-35314595D01*
X121736452Y-35314594D01*
X121515466Y-35285501D01*
X121515463Y-35285500D01*
X121515457Y-35285500D01*
X121292543Y-35285500D01*
X121292537Y-35285500D01*
X121292533Y-35285501D01*
X121071547Y-35314594D01*
X121071540Y-35314595D01*
X121071537Y-35314596D01*
X121071530Y-35314598D01*
X120856219Y-35372290D01*
X120856209Y-35372293D01*
X120650277Y-35457593D01*
X120650273Y-35457595D01*
X120457226Y-35569052D01*
X120457217Y-35569058D01*
X120280377Y-35704751D01*
X120280370Y-35704757D01*
X120122757Y-35862370D01*
X120122751Y-35862377D01*
X119987058Y-36039217D01*
X119987052Y-36039226D01*
X119875595Y-36232273D01*
X119875593Y-36232277D01*
X119790293Y-36438209D01*
X119790290Y-36438219D01*
X119741438Y-36620540D01*
X119732597Y-36653534D01*
X119732594Y-36653547D01*
X119703501Y-36874533D01*
X119703500Y-36874549D01*
X119703500Y-37097450D01*
X119703501Y-37097466D01*
X119732594Y-37318452D01*
X119732595Y-37318457D01*
X119732596Y-37318463D01*
X119784455Y-37512003D01*
X119790290Y-37533780D01*
X119790293Y-37533790D01*
X119875593Y-37739722D01*
X119875595Y-37739726D01*
X119987052Y-37932774D01*
X119987057Y-37932780D01*
X119987058Y-37932782D01*
X120125224Y-38112845D01*
X120124494Y-38113404D01*
X120152131Y-38172977D01*
X120153500Y-38191355D01*
X120153500Y-39011500D01*
X120133815Y-39078539D01*
X120081011Y-39124294D01*
X120029500Y-39135500D01*
X116761908Y-39135500D01*
X116694869Y-39115815D01*
X116656363Y-39071728D01*
X116654605Y-39072813D01*
X116650814Y-39066666D01*
X116558712Y-38917344D01*
X116434656Y-38793288D01*
X116308032Y-38715186D01*
X116285336Y-38701187D01*
X116285331Y-38701185D01*
X116264330Y-38694226D01*
X116118797Y-38646001D01*
X116118795Y-38646000D01*
X116016016Y-38635500D01*
X116016009Y-38635500D01*
X115385336Y-38635500D01*
X115318297Y-38615815D01*
X115297655Y-38599181D01*
X114014492Y-37316018D01*
X113981007Y-37254695D01*
X113978173Y-37228337D01*
X113978173Y-35044890D01*
X138520080Y-35044890D01*
X139317524Y-35044890D01*
X140117524Y-35044890D01*
X140914967Y-35044890D01*
X140914967Y-35044889D01*
X140907029Y-34967192D01*
X140851882Y-34800770D01*
X140851880Y-34800765D01*
X140759839Y-34651544D01*
X140635869Y-34527574D01*
X140486648Y-34435533D01*
X140486643Y-34435531D01*
X140320221Y-34380384D01*
X140320214Y-34380383D01*
X140217510Y-34369890D01*
X140117524Y-34369890D01*
X140117524Y-35044890D01*
X139317524Y-35044890D01*
X139317524Y-34369889D01*
X139217552Y-34369890D01*
X139217536Y-34369891D01*
X139114826Y-34380384D01*
X138948404Y-34435531D01*
X138948399Y-34435533D01*
X138799178Y-34527574D01*
X138675208Y-34651544D01*
X138583167Y-34800765D01*
X138583165Y-34800770D01*
X138528018Y-34967192D01*
X138528017Y-34967199D01*
X138520080Y-35044890D01*
X113978173Y-35044890D01*
X113978173Y-28898428D01*
X113984242Y-28860110D01*
X114013484Y-28770110D01*
X114044919Y-28673365D01*
X114078173Y-28463409D01*
X114078173Y-28250835D01*
X114044919Y-28040879D01*
X113979230Y-27838710D01*
X113882724Y-27649306D01*
X113882722Y-27649303D01*
X113882721Y-27649301D01*
X113757782Y-27477335D01*
X113607459Y-27327012D01*
X113435493Y-27202073D01*
X113246087Y-27105566D01*
X113246086Y-27105565D01*
X113246085Y-27105565D01*
X113043916Y-27039876D01*
X113043914Y-27039875D01*
X113043913Y-27039875D01*
X112882630Y-27014330D01*
X112833960Y-27006622D01*
X112621386Y-27006622D01*
X112572715Y-27014330D01*
X112411433Y-27039875D01*
X112209258Y-27105566D01*
X112019855Y-27202072D01*
X111964075Y-27242597D01*
X111898268Y-27266075D01*
X111863298Y-27263099D01*
X111691408Y-27223415D01*
X111495052Y-27209684D01*
X110621885Y-27286076D01*
X110572760Y-27280479D01*
X110513582Y-27261251D01*
X110395805Y-27242597D01*
X110303625Y-27227997D01*
X110091051Y-27227997D01*
X110051540Y-27234254D01*
X109881097Y-27261250D01*
X109678929Y-27326938D01*
X109601745Y-27366264D01*
X109556259Y-27379306D01*
X108091551Y-27507452D01*
X108042426Y-27501855D01*
X107983248Y-27482627D01*
X107878269Y-27466000D01*
X107773291Y-27449373D01*
X107560717Y-27449373D01*
X107532577Y-27453830D01*
X107350764Y-27482626D01*
X107148594Y-27548315D01*
X107148588Y-27548317D01*
X107071412Y-27587640D01*
X107025926Y-27600682D01*
X105561217Y-27728828D01*
X105512092Y-27723231D01*
X105452909Y-27704001D01*
X105291626Y-27678456D01*
X105242956Y-27670748D01*
X105030382Y-27670748D01*
X104990871Y-27677005D01*
X104820428Y-27704001D01*
X104618260Y-27769689D01*
X104541076Y-27809015D01*
X104495590Y-27822057D01*
X103030882Y-27950203D01*
X102981757Y-27944606D01*
X102922579Y-27925378D01*
X102772305Y-27901577D01*
X102712622Y-27892124D01*
X102500048Y-27892124D01*
X102451377Y-27899832D01*
X102290095Y-27925377D01*
X102179896Y-27961182D01*
X102021199Y-26407619D01*
X87749688Y-27475612D01*
X87851829Y-27468704D01*
X88127012Y-31858538D01*
X87286819Y-31018345D01*
X87272115Y-30991417D01*
X87255523Y-30965599D01*
X87254631Y-30959398D01*
X87253334Y-30957022D01*
X87250500Y-30930664D01*
X87250500Y-27646439D01*
X87270185Y-27579400D01*
X87301612Y-27546123D01*
X87428646Y-27453828D01*
X87567828Y-27314646D01*
X87683524Y-27155405D01*
X87772884Y-26980025D01*
X87833709Y-26792826D01*
X87840453Y-26750248D01*
X87864500Y-26598422D01*
X87864500Y-24321986D01*
X107280001Y-24321986D01*
X107290494Y-24424697D01*
X107345641Y-24591119D01*
X107345643Y-24591124D01*
X107437684Y-24740345D01*
X107561654Y-24864315D01*
X107710875Y-24956356D01*
X107710880Y-24956358D01*
X107877302Y-25011505D01*
X107877309Y-25011506D01*
X107980019Y-25021999D01*
X108629999Y-25021999D01*
X109430000Y-25021999D01*
X110079972Y-25021999D01*
X110079986Y-25021998D01*
X110182697Y-25011505D01*
X110349119Y-24956358D01*
X110349124Y-24956356D01*
X110498345Y-24864315D01*
X110622315Y-24740345D01*
X110714356Y-24591124D01*
X110714358Y-24591119D01*
X110769505Y-24424697D01*
X110769506Y-24424690D01*
X110779999Y-24321986D01*
X110780000Y-24321973D01*
X110780000Y-24022000D01*
X109430000Y-24022000D01*
X109430000Y-25021999D01*
X108629999Y-25021999D01*
X108630000Y-25021998D01*
X108630000Y-24022000D01*
X107280001Y-24022000D01*
X107280001Y-24321986D01*
X87864500Y-24321986D01*
X87864500Y-24191336D01*
X87884185Y-24124297D01*
X87900819Y-24103655D01*
X89127655Y-22876819D01*
X89188978Y-22843334D01*
X89215336Y-22840500D01*
X107156000Y-22840500D01*
X107223039Y-22860185D01*
X107268794Y-22912989D01*
X107280000Y-22964500D01*
X107280000Y-23222000D01*
X110810164Y-23222000D01*
X110877203Y-23241685D01*
X110897845Y-23258319D01*
X111243181Y-23603655D01*
X111276666Y-23664978D01*
X111279500Y-23691336D01*
X111279500Y-24322001D01*
X111279501Y-24322019D01*
X111290000Y-24424796D01*
X111290001Y-24424799D01*
X111345115Y-24591119D01*
X111345186Y-24591334D01*
X111437288Y-24740656D01*
X111561344Y-24864712D01*
X111710666Y-24956814D01*
X111877203Y-25011999D01*
X111979991Y-25022500D01*
X114080008Y-25022499D01*
X114182797Y-25011999D01*
X114349334Y-24956814D01*
X114427147Y-24908819D01*
X114456100Y-24890961D01*
X114521196Y-24872500D01*
X116333365Y-24872500D01*
X116400404Y-24892185D01*
X116421046Y-24908819D01*
X119978181Y-28465954D01*
X120011666Y-28527277D01*
X120014500Y-28553635D01*
X120014500Y-29372644D01*
X119994815Y-29439683D01*
X119986193Y-29451131D01*
X119986224Y-29451155D01*
X119848058Y-29631217D01*
X119848052Y-29631226D01*
X119736595Y-29824273D01*
X119736593Y-29824277D01*
X119651293Y-30030209D01*
X119651290Y-30030219D01*
X119596827Y-30233481D01*
X119593597Y-30245534D01*
X119593594Y-30245547D01*
X119564501Y-30466533D01*
X119564500Y-30466549D01*
X119564500Y-30689450D01*
X119564501Y-30689466D01*
X119593594Y-30910452D01*
X119593595Y-30910457D01*
X119593596Y-30910463D01*
X119646149Y-31106593D01*
X119651290Y-31125780D01*
X119651293Y-31125790D01*
X119736593Y-31331722D01*
X119736595Y-31331726D01*
X119848052Y-31524774D01*
X119848057Y-31524780D01*
X119848058Y-31524782D01*
X119983750Y-31701621D01*
X119983752Y-31701623D01*
X119983753Y-31701624D01*
X120065651Y-31783522D01*
X120095899Y-31832881D01*
X120106116Y-31864325D01*
X120195475Y-32039702D01*
X120195476Y-32039704D01*
X120311172Y-32198945D01*
X120450354Y-32338127D01*
X120609595Y-32453823D01*
X120692455Y-32496042D01*
X120784970Y-32543181D01*
X120784972Y-32543181D01*
X120784975Y-32543183D01*
X120858356Y-32567026D01*
X120972173Y-32604008D01*
X121166578Y-32634799D01*
X121166583Y-32634799D01*
X121363422Y-32634799D01*
X121557826Y-32604008D01*
X121745025Y-32543183D01*
X121920405Y-32453823D01*
X122079646Y-32338127D01*
X122218828Y-32198945D01*
X122334524Y-32039704D01*
X122423884Y-31864324D01*
X122434098Y-31832887D01*
X122464346Y-31783524D01*
X122546247Y-31701624D01*
X122681948Y-31524774D01*
X122793405Y-31331726D01*
X122878710Y-31125781D01*
X122936404Y-30910463D01*
X122965500Y-30689457D01*
X122965500Y-30466543D01*
X122936404Y-30245537D01*
X122878710Y-30030219D01*
X122876844Y-30025715D01*
X122829777Y-29912085D01*
X122793405Y-29824274D01*
X122681948Y-29631226D01*
X122626425Y-29558867D01*
X122543776Y-29451155D01*
X122544501Y-29450598D01*
X122516866Y-29391001D01*
X122515500Y-29372644D01*
X122515500Y-28383355D01*
X122535185Y-28316316D01*
X122543806Y-28304868D01*
X122543776Y-28304845D01*
X122614324Y-28212904D01*
X122681948Y-28124774D01*
X122793405Y-27931726D01*
X122878710Y-27725781D01*
X122936404Y-27510463D01*
X122965500Y-27289457D01*
X122965500Y-27066549D01*
X133034500Y-27066549D01*
X133034500Y-27289450D01*
X133034501Y-27289466D01*
X133063594Y-27510452D01*
X133063595Y-27510457D01*
X133063596Y-27510463D01*
X133120607Y-27723231D01*
X133121290Y-27725780D01*
X133121293Y-27725790D01*
X133206593Y-27931722D01*
X133206595Y-27931726D01*
X133318052Y-28124774D01*
X133318057Y-28124780D01*
X133318058Y-28124782D01*
X133456224Y-28304845D01*
X133455494Y-28305404D01*
X133483131Y-28364977D01*
X133484500Y-28383355D01*
X133484500Y-29372644D01*
X133464815Y-29439683D01*
X133456193Y-29451131D01*
X133456224Y-29451155D01*
X133318058Y-29631217D01*
X133318052Y-29631226D01*
X133206595Y-29824273D01*
X133206593Y-29824277D01*
X133121293Y-30030209D01*
X133121290Y-30030219D01*
X133066827Y-30233481D01*
X133063597Y-30245534D01*
X133063594Y-30245547D01*
X133034501Y-30466533D01*
X133034500Y-30466549D01*
X133034500Y-30689450D01*
X133034501Y-30689466D01*
X133063594Y-30910452D01*
X133063595Y-30910457D01*
X133063596Y-30910463D01*
X133116149Y-31106593D01*
X133121290Y-31125780D01*
X133121293Y-31125790D01*
X133206593Y-31331722D01*
X133206595Y-31331726D01*
X133318052Y-31524774D01*
X133318057Y-31524780D01*
X133318058Y-31524782D01*
X133453750Y-31701621D01*
X133453752Y-31701623D01*
X133453753Y-31701624D01*
X133535651Y-31783522D01*
X133565899Y-31832881D01*
X133576116Y-31864325D01*
X133665475Y-32039702D01*
X133665476Y-32039704D01*
X133781172Y-32198945D01*
X133920354Y-32338127D01*
X134079595Y-32453823D01*
X134162455Y-32496042D01*
X134254970Y-32543181D01*
X134254972Y-32543181D01*
X134254975Y-32543183D01*
X134328356Y-32567026D01*
X134442173Y-32604008D01*
X134636578Y-32634799D01*
X134636583Y-32634799D01*
X134833417Y-32634799D01*
X138983004Y-32634799D01*
X139021321Y-32640867D01*
X139070811Y-32656948D01*
X139153172Y-32683709D01*
X139347578Y-32714500D01*
X139347583Y-32714500D01*
X142636422Y-32714500D01*
X142830826Y-32683709D01*
X143018026Y-32622884D01*
X143193405Y-32533524D01*
X143352646Y-32417828D01*
X143955828Y-31814646D01*
X144071524Y-31655405D01*
X144160884Y-31480026D01*
X144221709Y-31292826D01*
X144234444Y-31212412D01*
X144264372Y-31149281D01*
X144269236Y-31144131D01*
X144287587Y-31125780D01*
X144344712Y-31068656D01*
X144436814Y-30919334D01*
X144491999Y-30752797D01*
X144502500Y-30650009D01*
X144502499Y-29349992D01*
X144491999Y-29247203D01*
X144436814Y-29080666D01*
X144344712Y-28931344D01*
X144220656Y-28807288D01*
X144071334Y-28715186D01*
X144071332Y-28715185D01*
X144065440Y-28711551D01*
X144018716Y-28659603D01*
X144007493Y-28590641D01*
X144035337Y-28526558D01*
X144042856Y-28518330D01*
X144181728Y-28379458D01*
X144306620Y-28207557D01*
X144403092Y-28018222D01*
X144441506Y-27900000D01*
X143309106Y-27900000D01*
X143402099Y-27807007D01*
X143467925Y-27692993D01*
X143502000Y-27565826D01*
X143502000Y-27434174D01*
X143467925Y-27307007D01*
X143402099Y-27192993D01*
X143309106Y-27100000D01*
X143402000Y-27100000D01*
X144441506Y-27100000D01*
X144441505Y-27099999D01*
X144403092Y-26981777D01*
X144306620Y-26792442D01*
X144181727Y-26620540D01*
X144181723Y-26620535D01*
X144031464Y-26470276D01*
X144031459Y-26470272D01*
X143859557Y-26345379D01*
X143670215Y-26248903D01*
X143468124Y-26183241D01*
X143402000Y-26172768D01*
X143402000Y-27100000D01*
X143309106Y-27100000D01*
X143309007Y-27099901D01*
X143194993Y-27034075D01*
X143067826Y-27000000D01*
X142936174Y-27000000D01*
X142809007Y-27034075D01*
X142694993Y-27099901D01*
X142601901Y-27192993D01*
X142536075Y-27307007D01*
X142502000Y-27434174D01*
X142502000Y-27565826D01*
X142536075Y-27692993D01*
X142601901Y-27807007D01*
X142694894Y-27900000D01*
X141562494Y-27900000D01*
X141600907Y-28018222D01*
X141697379Y-28207557D01*
X141822272Y-28379459D01*
X141822276Y-28379464D01*
X141961143Y-28518331D01*
X141994628Y-28579654D01*
X141989644Y-28649346D01*
X141947772Y-28705279D01*
X141938559Y-28711551D01*
X141783342Y-28807289D01*
X141659289Y-28931342D01*
X141567187Y-29080663D01*
X141567185Y-29080668D01*
X141550746Y-29130278D01*
X141512001Y-29247203D01*
X141512001Y-29247204D01*
X141512000Y-29247204D01*
X141501500Y-29349983D01*
X141501500Y-29349991D01*
X141501500Y-29779787D01*
X141501501Y-30089500D01*
X141481817Y-30156539D01*
X141429013Y-30202294D01*
X141377501Y-30213500D01*
X140725969Y-30213500D01*
X140658930Y-30193815D01*
X140613175Y-30141011D01*
X140603231Y-30071853D01*
X140608260Y-30050507D01*
X140635999Y-29966797D01*
X140646500Y-29864009D01*
X140646499Y-29063992D01*
X140635999Y-28961203D01*
X140580814Y-28794666D01*
X140488712Y-28645344D01*
X140486549Y-28643181D01*
X140485539Y-28641331D01*
X140484234Y-28639681D01*
X140484516Y-28639457D01*
X140453064Y-28581858D01*
X140458048Y-28512166D01*
X140484277Y-28471353D01*
X140484234Y-28471319D01*
X140484584Y-28470875D01*
X140486549Y-28467819D01*
X140488712Y-28465656D01*
X140580814Y-28316334D01*
X140635999Y-28149797D01*
X140646500Y-28047009D01*
X140646499Y-27296992D01*
X140645729Y-27289457D01*
X140635999Y-27194203D01*
X140624922Y-27160776D01*
X140604783Y-27099999D01*
X141562494Y-27099999D01*
X141562494Y-27100000D01*
X142602000Y-27100000D01*
X142602000Y-26172768D01*
X142601999Y-26172768D01*
X142535875Y-26183241D01*
X142333784Y-26248903D01*
X142144442Y-26345379D01*
X141972540Y-26470272D01*
X141972535Y-26470276D01*
X141822276Y-26620535D01*
X141822272Y-26620540D01*
X141697379Y-26792442D01*
X141600907Y-26981777D01*
X141562494Y-27099999D01*
X140604783Y-27099999D01*
X140580814Y-27027666D01*
X140488712Y-26878344D01*
X140364656Y-26754288D01*
X140361342Y-26752243D01*
X140359546Y-26750248D01*
X140358989Y-26749807D01*
X140359064Y-26749711D01*
X140314618Y-26700297D01*
X140303397Y-26631334D01*
X140331240Y-26567252D01*
X140361348Y-26541165D01*
X140364342Y-26539318D01*
X140488315Y-26415345D01*
X140580356Y-26266124D01*
X140580358Y-26266119D01*
X140635505Y-26099697D01*
X140635506Y-26099690D01*
X140643444Y-26022000D01*
X138248557Y-26022000D01*
X138256494Y-26099697D01*
X138311641Y-26266119D01*
X138311643Y-26266124D01*
X138403684Y-26415345D01*
X138527655Y-26539316D01*
X138527659Y-26539319D01*
X138530656Y-26541168D01*
X138532279Y-26542972D01*
X138533323Y-26543798D01*
X138533181Y-26543976D01*
X138577381Y-26593116D01*
X138588602Y-26662079D01*
X138560759Y-26726161D01*
X138530661Y-26752241D01*
X138527349Y-26754283D01*
X138527343Y-26754288D01*
X138403289Y-26878342D01*
X138311187Y-27027663D01*
X138311186Y-27027666D01*
X138256001Y-27194203D01*
X138256001Y-27194204D01*
X138256000Y-27194204D01*
X138245500Y-27296983D01*
X138245500Y-28047001D01*
X138245501Y-28047019D01*
X138256000Y-28149796D01*
X138256001Y-28149799D01*
X138311185Y-28316331D01*
X138311187Y-28316336D01*
X138339866Y-28362832D01*
X138401901Y-28463408D01*
X138403289Y-28465657D01*
X138405451Y-28467819D01*
X138406460Y-28469668D01*
X138407766Y-28471319D01*
X138407483Y-28471542D01*
X138438936Y-28529142D01*
X138433952Y-28598834D01*
X138407722Y-28639646D01*
X138407766Y-28639681D01*
X138407415Y-28640124D01*
X138405451Y-28643181D01*
X138403289Y-28645342D01*
X138311187Y-28794663D01*
X138311186Y-28794666D01*
X138256001Y-28961203D01*
X138256001Y-28961204D01*
X138256000Y-28961204D01*
X138245500Y-29063983D01*
X138245500Y-29864001D01*
X138245501Y-29864019D01*
X138256000Y-29966796D01*
X138256001Y-29966800D01*
X138257324Y-29970790D01*
X138257413Y-29973397D01*
X138257419Y-29973422D01*
X138257414Y-29973422D01*
X138259729Y-30040618D01*
X138224000Y-30100662D01*
X138161481Y-30131857D01*
X138139620Y-30133799D01*
X136471612Y-30133799D01*
X136404573Y-30114114D01*
X136358818Y-30061310D01*
X136351840Y-30041903D01*
X136348710Y-30030219D01*
X136346844Y-30025715D01*
X136299777Y-29912085D01*
X136263405Y-29824274D01*
X136151948Y-29631226D01*
X136096425Y-29558867D01*
X136013776Y-29451155D01*
X136014501Y-29450598D01*
X135986866Y-29391001D01*
X135985500Y-29372644D01*
X135985500Y-28383355D01*
X136005185Y-28316316D01*
X136013806Y-28304868D01*
X136013776Y-28304845D01*
X136084324Y-28212904D01*
X136151948Y-28124774D01*
X136263405Y-27931726D01*
X136348710Y-27725781D01*
X136406404Y-27510463D01*
X136435500Y-27289457D01*
X136435500Y-27066543D01*
X136406404Y-26845537D01*
X136348710Y-26630219D01*
X136333341Y-26593116D01*
X136311057Y-26539316D01*
X136263405Y-26424274D01*
X136151948Y-26231226D01*
X136051023Y-26099697D01*
X136016248Y-26054377D01*
X136016242Y-26054370D01*
X135858629Y-25896757D01*
X135858622Y-25896751D01*
X135681782Y-25761058D01*
X135681780Y-25761057D01*
X135681774Y-25761052D01*
X135488726Y-25649595D01*
X135488722Y-25649593D01*
X135282790Y-25564293D01*
X135282783Y-25564291D01*
X135282781Y-25564290D01*
X135067463Y-25506596D01*
X135067457Y-25506595D01*
X135067452Y-25506594D01*
X134846466Y-25477501D01*
X134846463Y-25477500D01*
X134846457Y-25477500D01*
X134623543Y-25477500D01*
X134623537Y-25477500D01*
X134623533Y-25477501D01*
X134402547Y-25506594D01*
X134402540Y-25506595D01*
X134402537Y-25506596D01*
X134292456Y-25536092D01*
X134187219Y-25564290D01*
X134187209Y-25564293D01*
X133981277Y-25649593D01*
X133981273Y-25649595D01*
X133788226Y-25761052D01*
X133788217Y-25761058D01*
X133611377Y-25896751D01*
X133611370Y-25896757D01*
X133453757Y-26054370D01*
X133453751Y-26054377D01*
X133318058Y-26231217D01*
X133318052Y-26231226D01*
X133206595Y-26424273D01*
X133206593Y-26424277D01*
X133121293Y-26630209D01*
X133121290Y-26630219D01*
X133088594Y-26752245D01*
X133063597Y-26845534D01*
X133063594Y-26845547D01*
X133034501Y-27066533D01*
X133034500Y-27066549D01*
X122965500Y-27066549D01*
X122965500Y-27066543D01*
X122936404Y-26845537D01*
X122878710Y-26630219D01*
X122863341Y-26593116D01*
X122841057Y-26539316D01*
X122793405Y-26424274D01*
X122681948Y-26231226D01*
X122581023Y-26099697D01*
X122546248Y-26054377D01*
X122546242Y-26054370D01*
X122388629Y-25896757D01*
X122388622Y-25896751D01*
X122211782Y-25761058D01*
X122211780Y-25761057D01*
X122211774Y-25761052D01*
X122018726Y-25649595D01*
X122018722Y-25649593D01*
X121812790Y-25564293D01*
X121812783Y-25564291D01*
X121812781Y-25564290D01*
X121597463Y-25506596D01*
X121597457Y-25506595D01*
X121597452Y-25506594D01*
X121376466Y-25477501D01*
X121376463Y-25477500D01*
X121376457Y-25477500D01*
X121153543Y-25477500D01*
X121153537Y-25477500D01*
X121153533Y-25477501D01*
X120932547Y-25506594D01*
X120932540Y-25506595D01*
X120932537Y-25506596D01*
X120879990Y-25520675D01*
X120717213Y-25564291D01*
X120713371Y-25565596D01*
X120712760Y-25563797D01*
X120650913Y-25570437D01*
X120588438Y-25539153D01*
X120585267Y-25536092D01*
X120271175Y-25222000D01*
X138248556Y-25222000D01*
X139046000Y-25222000D01*
X139846000Y-25222000D01*
X140643443Y-25222000D01*
X140643443Y-25221999D01*
X140635505Y-25144302D01*
X140580358Y-24977880D01*
X140580356Y-24977875D01*
X140488315Y-24828654D01*
X140364345Y-24704684D01*
X140215124Y-24612643D01*
X140215119Y-24612641D01*
X140048697Y-24557494D01*
X140048690Y-24557493D01*
X139945986Y-24547000D01*
X139846000Y-24547000D01*
X139846000Y-25222000D01*
X139046000Y-25222000D01*
X139046000Y-24546999D01*
X138946028Y-24547000D01*
X138946012Y-24547001D01*
X138843302Y-24557494D01*
X138676880Y-24612641D01*
X138676875Y-24612643D01*
X138527654Y-24704684D01*
X138403684Y-24828654D01*
X138311643Y-24977875D01*
X138311641Y-24977880D01*
X138256494Y-25144302D01*
X138256493Y-25144309D01*
X138248556Y-25222000D01*
X120271175Y-25222000D01*
X117717349Y-22668174D01*
X117717347Y-22668172D01*
X117558106Y-22552476D01*
X117382731Y-22463117D01*
X117195527Y-22402290D01*
X117001123Y-22371500D01*
X117001118Y-22371500D01*
X114521196Y-22371500D01*
X114456100Y-22353039D01*
X114349340Y-22287189D01*
X114349335Y-22287187D01*
X114349334Y-22287186D01*
X114182797Y-22232001D01*
X114182795Y-22232000D01*
X114080016Y-22221500D01*
X114080009Y-22221500D01*
X113449336Y-22221500D01*
X113382297Y-22201815D01*
X113361655Y-22185181D01*
X111812648Y-20636174D01*
X111812646Y-20636172D01*
X111653405Y-20520476D01*
X111489262Y-20436841D01*
X111489260Y-20436839D01*
X111478032Y-20431118D01*
X111290826Y-20370290D01*
X111096422Y-20339500D01*
X111096417Y-20339500D01*
X88744417Y-20339500D01*
X88547583Y-20339500D01*
X88547578Y-20339500D01*
X88353173Y-20370290D01*
X88165969Y-20431117D01*
X87990594Y-20520476D01*
X87912685Y-20577081D01*
X87831354Y-20636172D01*
X87831352Y-20636174D01*
X87831351Y-20636174D01*
X85660174Y-22807351D01*
X85660174Y-22807352D01*
X85660172Y-22807354D01*
X85636090Y-22840500D01*
X85544476Y-22966594D01*
X85454669Y-23142851D01*
X85453608Y-23146612D01*
X85394291Y-23329169D01*
X85394291Y-23329172D01*
X85363500Y-23523577D01*
X85363500Y-25125500D01*
X85343815Y-25192539D01*
X85291011Y-25238294D01*
X85239500Y-25249500D01*
X77401578Y-25249500D01*
X77207172Y-25280291D01*
X77146348Y-25300053D01*
X77146348Y-25300054D01*
X77103103Y-25314105D01*
X77019970Y-25341117D01*
X76844594Y-25430476D01*
X76779872Y-25477500D01*
X76685354Y-25546172D01*
X76685352Y-25546174D01*
X76685351Y-25546174D01*
X75046174Y-27185351D01*
X75046174Y-27185352D01*
X75046172Y-27185354D01*
X75018519Y-27223415D01*
X74930476Y-27344594D01*
X74841117Y-27519969D01*
X74795981Y-27658885D01*
X74780291Y-27707170D01*
X74780291Y-27707173D01*
X74749500Y-27901577D01*
X74749500Y-72598422D01*
X74780290Y-72792826D01*
X74841117Y-72980030D01*
X74930476Y-73155405D01*
X75046172Y-73314646D01*
X83046171Y-81314645D01*
X83046172Y-81314646D01*
X83185354Y-81453828D01*
X83344595Y-81569524D01*
X83519975Y-81658884D01*
X83629931Y-81694611D01*
X83707173Y-81719709D01*
X83762718Y-81728506D01*
X83901578Y-81750500D01*
X83901583Y-81750500D01*
X102932038Y-81750500D01*
X102999077Y-81770185D01*
X103019719Y-81786819D01*
X105014318Y-83781418D01*
X105047803Y-83842741D01*
X105042819Y-83912433D01*
X105014318Y-83956780D01*
X104759291Y-84211807D01*
X104697968Y-84245292D01*
X104671610Y-84248126D01*
X103242253Y-84248126D01*
X103203935Y-84242057D01*
X103017187Y-84181379D01*
X102855904Y-84155834D01*
X102807234Y-84148126D01*
X102594660Y-84148126D01*
X102545989Y-84155834D01*
X102384707Y-84181379D01*
X102182532Y-84247070D01*
X101993126Y-84343577D01*
X101821160Y-84468516D01*
X101670837Y-84618839D01*
X101545897Y-84790806D01*
X101535413Y-84811382D01*
X101487436Y-84862176D01*
X101442576Y-84873283D01*
X101164451Y-82150583D01*
X87901232Y-83143122D01*
X88003373Y-83136214D01*
X88312373Y-88065500D01*
X77900706Y-88065500D01*
X77895297Y-88065382D01*
X77511249Y-88048614D01*
X77500473Y-88047671D01*
X77122042Y-87997849D01*
X77111389Y-87995971D01*
X76738727Y-87913354D01*
X76728278Y-87910554D01*
X76364244Y-87795775D01*
X76354078Y-87792075D01*
X76001427Y-87646002D01*
X75991623Y-87641430D01*
X75653057Y-87465183D01*
X75643689Y-87459775D01*
X75321755Y-87254681D01*
X75312894Y-87248476D01*
X75010069Y-87016110D01*
X75001782Y-87009156D01*
X74720364Y-86751284D01*
X74712715Y-86743635D01*
X74454843Y-86462217D01*
X74447889Y-86453930D01*
X74215523Y-86151105D01*
X74209318Y-86142244D01*
X74128142Y-86014823D01*
X74004223Y-85820309D01*
X73998816Y-85810942D01*
X73870501Y-85564452D01*
X73822566Y-85472369D01*
X73817997Y-85462572D01*
X73778990Y-85368400D01*
X73671920Y-85109911D01*
X73668224Y-85099755D01*
X73553442Y-84735710D01*
X73550649Y-84725290D01*
X73468025Y-84352597D01*
X73466152Y-84341971D01*
X73416326Y-83963506D01*
X73415386Y-83952771D01*
X73398618Y-83568702D01*
X73398500Y-83563293D01*
X73398500Y-20496706D01*
X73398618Y-20491298D01*
X73398927Y-20484197D01*
X73405685Y-20329403D01*
X74547500Y-20329403D01*
X74547500Y-20658596D01*
X74579765Y-20986201D01*
X74579768Y-20986218D01*
X74643984Y-21309066D01*
X74643987Y-21309077D01*
X74739552Y-21624112D01*
X74865528Y-21928244D01*
X74865535Y-21928258D01*
X75020707Y-22218567D01*
X75020718Y-22218585D01*
X75203601Y-22492289D01*
X75203611Y-22492303D01*
X75412453Y-22746777D01*
X75645222Y-22979546D01*
X75645227Y-22979550D01*
X75645228Y-22979551D01*
X75899702Y-23188393D01*
X76173421Y-23371286D01*
X76463749Y-23526469D01*
X76767889Y-23652448D01*
X77082913Y-23748010D01*
X77082919Y-23748011D01*
X77082922Y-23748012D01*
X77082933Y-23748015D01*
X77263361Y-23783903D01*
X77405787Y-23812233D01*
X77733400Y-23844500D01*
X77733403Y-23844500D01*
X78062597Y-23844500D01*
X78062600Y-23844500D01*
X78390213Y-23812233D01*
X78567760Y-23776916D01*
X78713066Y-23748015D01*
X78713077Y-23748012D01*
X78713077Y-23748011D01*
X78713087Y-23748010D01*
X79028111Y-23652448D01*
X79332251Y-23526469D01*
X79622579Y-23371286D01*
X79896298Y-23188393D01*
X80150772Y-22979551D01*
X80383551Y-22746772D01*
X80592393Y-22492298D01*
X80775286Y-22218579D01*
X80930469Y-21928251D01*
X81056448Y-21624111D01*
X81152010Y-21309087D01*
X81152012Y-21309077D01*
X81152015Y-21309066D01*
X81180916Y-21163760D01*
X81216233Y-20986213D01*
X81248500Y-20658600D01*
X81248500Y-20329403D01*
X141547500Y-20329403D01*
X141547500Y-20658596D01*
X141579765Y-20986201D01*
X141579768Y-20986218D01*
X141643984Y-21309066D01*
X141643987Y-21309077D01*
X141739552Y-21624112D01*
X141865528Y-21928244D01*
X141865535Y-21928258D01*
X142020707Y-22218567D01*
X142020718Y-22218585D01*
X142203601Y-22492289D01*
X142203611Y-22492303D01*
X142412453Y-22746777D01*
X142645222Y-22979546D01*
X142645227Y-22979550D01*
X142645228Y-22979551D01*
X142899702Y-23188393D01*
X143173421Y-23371286D01*
X143463749Y-23526469D01*
X143767889Y-23652448D01*
X144082913Y-23748010D01*
X144082919Y-23748011D01*
X144082922Y-23748012D01*
X144082933Y-23748015D01*
X144263361Y-23783903D01*
X144405787Y-23812233D01*
X144733400Y-23844500D01*
X144733403Y-23844500D01*
X145062597Y-23844500D01*
X145062600Y-23844500D01*
X145390213Y-23812233D01*
X145567760Y-23776916D01*
X145713066Y-23748015D01*
X145713077Y-23748012D01*
X145713077Y-23748011D01*
X145713087Y-23748010D01*
X146028111Y-23652448D01*
X146332251Y-23526469D01*
X146622579Y-23371286D01*
X146896298Y-23188393D01*
X147150772Y-22979551D01*
X147383551Y-22746772D01*
X147592393Y-22492298D01*
X147775286Y-22218579D01*
X147930469Y-21928251D01*
X148056448Y-21624111D01*
X148152010Y-21309087D01*
X148152012Y-21309077D01*
X148152015Y-21309066D01*
X148180916Y-21163760D01*
X148216233Y-20986213D01*
X148248500Y-20658600D01*
X148248500Y-20329400D01*
X148216233Y-20001787D01*
X148178691Y-19813047D01*
X148152015Y-19678933D01*
X148152012Y-19678922D01*
X148152011Y-19678919D01*
X148152010Y-19678913D01*
X148056448Y-19363889D01*
X147930469Y-19059749D01*
X147775286Y-18769421D01*
X147592393Y-18495702D01*
X147383551Y-18241228D01*
X147383550Y-18241227D01*
X147383546Y-18241222D01*
X147150777Y-18008453D01*
X146896303Y-17799611D01*
X146896302Y-17799610D01*
X146896298Y-17799607D01*
X146622579Y-17616714D01*
X146622574Y-17616711D01*
X146622567Y-17616707D01*
X146332258Y-17461535D01*
X146332251Y-17461531D01*
X146332244Y-17461528D01*
X146028112Y-17335552D01*
X145713077Y-17239987D01*
X145713066Y-17239984D01*
X145390218Y-17175768D01*
X145390213Y-17175767D01*
X145390211Y-17175766D01*
X145390201Y-17175765D01*
X145149522Y-17152061D01*
X145062600Y-17143500D01*
X144733400Y-17143500D01*
X144653540Y-17151365D01*
X144405798Y-17175765D01*
X144405781Y-17175768D01*
X144082933Y-17239984D01*
X144082922Y-17239987D01*
X143767887Y-17335552D01*
X143463755Y-17461528D01*
X143463741Y-17461535D01*
X143173432Y-17616707D01*
X143173414Y-17616718D01*
X142899710Y-17799601D01*
X142899696Y-17799611D01*
X142645222Y-18008453D01*
X142412453Y-18241222D01*
X142203611Y-18495696D01*
X142203601Y-18495710D01*
X142020718Y-18769414D01*
X142020707Y-18769432D01*
X141865535Y-19059741D01*
X141865528Y-19059755D01*
X141739552Y-19363887D01*
X141643987Y-19678922D01*
X141643984Y-19678933D01*
X141579768Y-20001781D01*
X141579765Y-20001798D01*
X141567785Y-20123438D01*
X141548333Y-20320948D01*
X141547500Y-20329403D01*
X81248500Y-20329403D01*
X81248500Y-20329400D01*
X81216233Y-20001787D01*
X81178691Y-19813047D01*
X81152015Y-19678933D01*
X81152012Y-19678922D01*
X81152011Y-19678919D01*
X81152010Y-19678913D01*
X81056448Y-19363889D01*
X80930469Y-19059749D01*
X80775286Y-18769421D01*
X80592393Y-18495702D01*
X80383551Y-18241228D01*
X80383550Y-18241227D01*
X80383546Y-18241222D01*
X80150777Y-18008453D01*
X79896303Y-17799611D01*
X79896302Y-17799610D01*
X79896298Y-17799607D01*
X79622579Y-17616714D01*
X79622574Y-17616711D01*
X79622567Y-17616707D01*
X79332258Y-17461535D01*
X79332251Y-17461531D01*
X79332244Y-17461528D01*
X79028112Y-17335552D01*
X78713077Y-17239987D01*
X78713066Y-17239984D01*
X78390218Y-17175768D01*
X78390213Y-17175767D01*
X78390211Y-17175766D01*
X78390201Y-17175765D01*
X78149522Y-17152061D01*
X78062600Y-17143500D01*
X77733400Y-17143500D01*
X77653540Y-17151365D01*
X77405798Y-17175765D01*
X77405781Y-17175768D01*
X77082933Y-17239984D01*
X77082922Y-17239987D01*
X76767887Y-17335552D01*
X76463755Y-17461528D01*
X76463741Y-17461535D01*
X76173432Y-17616707D01*
X76173414Y-17616718D01*
X75899710Y-17799601D01*
X75899696Y-17799611D01*
X75645222Y-18008453D01*
X75412453Y-18241222D01*
X75203611Y-18495696D01*
X75203601Y-18495710D01*
X75020718Y-18769414D01*
X75020707Y-18769432D01*
X74865535Y-19059741D01*
X74865528Y-19059755D01*
X74739552Y-19363887D01*
X74643987Y-19678922D01*
X74643984Y-19678933D01*
X74579768Y-20001781D01*
X74579765Y-20001798D01*
X74567785Y-20123438D01*
X74548333Y-20320948D01*
X74547500Y-20329403D01*
X73405685Y-20329403D01*
X73415386Y-20107226D01*
X73416326Y-20096495D01*
X73466152Y-19718025D01*
X73468025Y-19707405D01*
X73550649Y-19334709D01*
X73553440Y-19324295D01*
X73668230Y-18960227D01*
X73671917Y-18950095D01*
X73818003Y-18597412D01*
X73822561Y-18587638D01*
X73998822Y-18249045D01*
X74004217Y-18239700D01*
X74209325Y-17917744D01*
X74215515Y-17908905D01*
X74447896Y-17606060D01*
X74454834Y-17597791D01*
X74712726Y-17316352D01*
X74720352Y-17308726D01*
X75001791Y-17050834D01*
X75010060Y-17043896D01*
X75312905Y-16811515D01*
X75321744Y-16805325D01*
X75643700Y-16600217D01*
X75653045Y-16594822D01*
X75991638Y-16418561D01*
X76001412Y-16414003D01*
X76354095Y-16267917D01*
X76364227Y-16264230D01*
X76728295Y-16149440D01*
X76738709Y-16146649D01*
X77111405Y-16064025D01*
X77122025Y-16062152D01*
X77500495Y-16012326D01*
X77511226Y-16011386D01*
X77895297Y-15994617D01*
X77900706Y-15994500D01*
X77963892Y-15994500D01*
X144896120Y-15994500D01*
X144901541Y-15994618D01*
G37*
%TD.AperFunction*%
%TD*%
%TA.AperFunction,Conductor*%
%TO.N,GND*%
G36*
X101785227Y-53736232D02*
G01*
X101772833Y-53745238D01*
X101622510Y-53895561D01*
X101497571Y-54067527D01*
X101401064Y-54256933D01*
X101335373Y-54459108D01*
X101331665Y-54482522D01*
X101302120Y-54669061D01*
X101302120Y-54881635D01*
X101335374Y-55091591D01*
X101388590Y-55255373D01*
X101401064Y-55293762D01*
X101497571Y-55483168D01*
X101622510Y-55655134D01*
X101772833Y-55805457D01*
X101944799Y-55930396D01*
X101944801Y-55930397D01*
X101944804Y-55930399D01*
X102012907Y-55965099D01*
X102102753Y-56844639D01*
X87699009Y-57576556D01*
X87380128Y-52489648D01*
X87356500Y-52491246D01*
X87356500Y-52490680D01*
X101549498Y-51428563D01*
X101785227Y-53736232D01*
G37*
%TD.AperFunction*%
%TD*%
M02*
