%TF.GenerationSoftware,KiCad,Pcbnew,9.0.2*%
%TF.CreationDate,2025-06-04T19:52:51+07:00*%
%TF.ProjectId,Power Delivery Management_3.3V,506f7765-7220-4446-956c-697665727920,rev?*%
%TF.SameCoordinates,Original*%
%TF.FileFunction,Plated,1,4,PTH,Drill*%
%TF.FilePolarity,Positive*%
%FSLAX46Y46*%
G04 Gerber Fmt 4.6, Leading zero omitted, Abs format (unit mm)*
G04 Created by KiCad (PCBNEW 9.0.2) date 2025-06-04 19:52:51*
%MOMM*%
%LPD*%
G01*
G04 APERTURE LIST*
%TA.AperFunction,ViaDrill*%
%ADD10C,0.300000*%
%TD*%
%TA.AperFunction,ComponentDrill*%
%ADD11C,0.700000*%
%TD*%
%TA.AperFunction,ComponentDrill*%
%ADD12C,1.000000*%
%TD*%
G04 APERTURE END LIST*
D10*
X45339000Y-57785000D03*
X45339000Y-58547000D03*
X45339000Y-59309000D03*
X45339000Y-61087000D03*
X45339000Y-61849000D03*
X45339000Y-62611000D03*
X45339000Y-64389000D03*
X45339000Y-65151000D03*
X45339000Y-65913000D03*
X49784000Y-50292000D03*
X50546000Y-50292000D03*
X51308000Y-50292000D03*
X52070000Y-50292000D03*
X52070000Y-51181000D03*
X52070000Y-52070000D03*
X52070000Y-52832000D03*
X52070000Y-53594000D03*
X52070000Y-54356000D03*
X53340000Y-54356000D03*
X54356000Y-55118000D03*
X54356000Y-61087000D03*
X54737000Y-54356000D03*
X54737000Y-61849000D03*
X55118000Y-53721000D03*
X55118000Y-55118000D03*
X55118000Y-61087000D03*
X55118000Y-62484000D03*
X55253894Y-59782224D03*
X55258917Y-56126070D03*
X55283483Y-57221194D03*
X55283483Y-58771194D03*
X55499000Y-54356000D03*
X55499000Y-61849000D03*
X55826929Y-52029853D03*
X55880000Y-53721000D03*
X55880000Y-55118000D03*
X55880000Y-61087000D03*
X55880000Y-62484000D03*
X56261000Y-54356000D03*
X56261000Y-61849000D03*
X56488483Y-57221194D03*
X56488483Y-58771194D03*
X56495083Y-59764365D03*
X56497129Y-56143929D03*
X56642000Y-53721000D03*
X56642000Y-55118000D03*
X56642000Y-61087000D03*
X56642000Y-62484000D03*
X56682342Y-52019160D03*
X57023000Y-54356000D03*
X57023000Y-61849000D03*
X57404000Y-55118000D03*
X57404000Y-61087000D03*
X57580527Y-52008468D03*
X58928000Y-46736000D03*
X58928000Y-47752000D03*
X58928000Y-48768000D03*
X59944000Y-48260000D03*
X60706000Y-55499000D03*
X60858400Y-44450000D03*
X60960000Y-48260000D03*
X61595000Y-55499000D03*
X61722000Y-52832000D03*
X61874400Y-44196000D03*
X61976000Y-48260000D03*
X62357000Y-55499000D03*
X62484000Y-65278000D03*
X62992000Y-46228000D03*
X62992000Y-47244000D03*
X62992000Y-48260000D03*
X63246000Y-55499000D03*
X63692429Y-65247673D03*
X64008000Y-46228000D03*
X64008000Y-48260000D03*
X64135000Y-55499000D03*
X64897000Y-46228000D03*
X64897000Y-55499000D03*
X65024000Y-48260000D03*
X65024000Y-65024000D03*
X65405000Y-61722000D03*
X65405000Y-62865000D03*
X65532000Y-58420000D03*
X65786000Y-46228000D03*
X65786000Y-55499000D03*
X66040000Y-48260000D03*
X66040000Y-62230000D03*
X66040000Y-65024000D03*
X66294000Y-49149000D03*
X66294000Y-50038000D03*
X66294000Y-50927000D03*
X66294000Y-51816000D03*
X66675000Y-46228000D03*
X66675000Y-55499000D03*
X66853624Y-64348143D03*
X67182000Y-62103000D03*
X67564000Y-63500000D03*
X67818000Y-45821600D03*
X68199000Y-61341000D03*
X68199000Y-62738000D03*
X68529200Y-48107600D03*
X69088000Y-61341000D03*
X69088000Y-62738000D03*
X69291200Y-48107600D03*
X69977000Y-61341000D03*
X69977000Y-62730000D03*
X70180200Y-48107600D03*
X70739000Y-60960000D03*
X70866000Y-62738000D03*
X71069200Y-48107600D03*
X71374000Y-60325000D03*
X71534522Y-62273205D03*
X71988327Y-59619043D03*
X72009000Y-56134000D03*
X72009000Y-57023000D03*
X72009000Y-57912000D03*
X72009000Y-58801000D03*
X72126835Y-61680891D03*
X72719149Y-61061345D03*
X73263805Y-60462223D03*
X73398000Y-59690000D03*
X73406000Y-56134000D03*
X73406000Y-57912000D03*
X73406000Y-58801000D03*
X73414000Y-57023000D03*
D11*
%TO.C,3.3*%
X46863000Y-52959000D03*
X46863000Y-54959000D03*
%TO.C,GND1*%
X48749200Y-46990000D03*
%TO.C,+12*%
X49530000Y-52975000D03*
X49530000Y-54975000D03*
%TO.C,GND1*%
X50749200Y-46990000D03*
%TO.C,SENS1*%
X69469000Y-56039000D03*
X69469000Y-58039000D03*
D12*
%TO.C,J4*%
X47090827Y-43944567D03*
%TO.C,J3*%
X47090827Y-68404360D03*
%TO.C,J4*%
X49621163Y-43723191D03*
%TO.C,J3*%
X49630827Y-68404360D03*
%TO.C,J4*%
X52151496Y-43501816D03*
%TO.C,J3*%
X52170827Y-68404360D03*
%TO.C,J4*%
X54681831Y-43280440D03*
%TO.C,J3*%
X54710827Y-68404360D03*
%TO.C,J4*%
X57212165Y-43059065D03*
%TO.C,J3*%
X57250827Y-68404360D03*
%TO.C,J4*%
X59742500Y-42837689D03*
%TO.C,J3*%
X59790827Y-68404360D03*
%TO.C,J4*%
X62272834Y-42616313D03*
%TO.C,J3*%
X62330827Y-68404360D03*
%TO.C,J4*%
X64803169Y-42394938D03*
%TO.C,J3*%
X64870827Y-68404360D03*
%TO.C,J4*%
X67333503Y-42173562D03*
%TO.C,J3*%
X67410827Y-68404360D03*
%TO.C,J4*%
X69863838Y-41952187D03*
%TO.C,J3*%
X69950827Y-68404360D03*
M02*
