%TF.GenerationSoftware,KiCad,Pcbnew,9.0.2*%
%TF.CreationDate,2025-06-04T00:25:23+07:00*%
%TF.ProjectId,Power Delivery Management_3.3V,506f7765-7220-4446-956c-697665727920,rev?*%
%TF.SameCoordinates,Original*%
%TF.FileFunction,Copper,L1,Top*%
%TF.FilePolarity,Positive*%
%FSLAX46Y46*%
G04 Gerber Fmt 4.6, Leading zero omitted, Abs format (unit mm)*
G04 Created by KiCad (PCBNEW 9.0.2) date 2025-06-04 00:25:23*
%MOMM*%
%LPD*%
G01*
G04 APERTURE LIST*
G04 Aperture macros list*
%AMRoundRect*
0 Rectangle with rounded corners*
0 $1 Rounding radius*
0 $2 $3 $4 $5 $6 $7 $8 $9 X,Y pos of 4 corners*
0 Add a 4 corners polygon primitive as box body*
4,1,4,$2,$3,$4,$5,$6,$7,$8,$9,$2,$3,0*
0 Add four circle primitives for the rounded corners*
1,1,$1+$1,$2,$3*
1,1,$1+$1,$4,$5*
1,1,$1+$1,$6,$7*
1,1,$1+$1,$8,$9*
0 Add four rect primitives between the rounded corners*
20,1,$1+$1,$2,$3,$4,$5,0*
20,1,$1+$1,$4,$5,$6,$7,0*
20,1,$1+$1,$6,$7,$8,$9,0*
20,1,$1+$1,$8,$9,$2,$3,0*%
%AMRotRect*
0 Rectangle, with rotation*
0 The origin of the aperture is its center*
0 $1 length*
0 $2 width*
0 $3 Rotation angle, in degrees counterclockwise*
0 Add horizontal line*
21,1,$1,$2,0,0,$3*%
G04 Aperture macros list end*
%TA.AperFunction,SMDPad,CuDef*%
%ADD10RoundRect,0.250000X0.325000X1.100000X-0.325000X1.100000X-0.325000X-1.100000X0.325000X-1.100000X0*%
%TD*%
%TA.AperFunction,SMDPad,CuDef*%
%ADD11RoundRect,0.249999X0.450001X1.850001X-0.450001X1.850001X-0.450001X-1.850001X0.450001X-1.850001X0*%
%TD*%
%TA.AperFunction,SMDPad,CuDef*%
%ADD12RoundRect,0.200000X-0.275000X0.200000X-0.275000X-0.200000X0.275000X-0.200000X0.275000X0.200000X0*%
%TD*%
%TA.AperFunction,SMDPad,CuDef*%
%ADD13RoundRect,0.225000X0.225000X0.250000X-0.225000X0.250000X-0.225000X-0.250000X0.225000X-0.250000X0*%
%TD*%
%TA.AperFunction,SMDPad,CuDef*%
%ADD14RoundRect,0.225000X-0.250000X0.225000X-0.250000X-0.225000X0.250000X-0.225000X0.250000X0.225000X0*%
%TD*%
%TA.AperFunction,SMDPad,CuDef*%
%ADD15RoundRect,0.200000X-0.200000X-0.275000X0.200000X-0.275000X0.200000X0.275000X-0.200000X0.275000X0*%
%TD*%
%TA.AperFunction,ComponentPad*%
%ADD16C,1.400000*%
%TD*%
%TA.AperFunction,SMDPad,CuDef*%
%ADD17RoundRect,0.250000X-1.000000X-0.650000X1.000000X-0.650000X1.000000X0.650000X-1.000000X0.650000X0*%
%TD*%
%TA.AperFunction,SMDPad,CuDef*%
%ADD18RoundRect,0.225000X0.250000X-0.225000X0.250000X0.225000X-0.250000X0.225000X-0.250000X-0.225000X0*%
%TD*%
%TA.AperFunction,SMDPad,CuDef*%
%ADD19RoundRect,0.237500X0.287500X0.237500X-0.287500X0.237500X-0.287500X-0.237500X0.287500X-0.237500X0*%
%TD*%
%TA.AperFunction,SMDPad,CuDef*%
%ADD20RoundRect,0.200000X0.200000X0.275000X-0.200000X0.275000X-0.200000X-0.275000X0.200000X-0.275000X0*%
%TD*%
%TA.AperFunction,SMDPad,CuDef*%
%ADD21RoundRect,0.200000X0.275000X-0.200000X0.275000X0.200000X-0.275000X0.200000X-0.275000X-0.200000X0*%
%TD*%
%TA.AperFunction,SMDPad,CuDef*%
%ADD22R,1.910000X0.610000*%
%TD*%
%TA.AperFunction,SMDPad,CuDef*%
%ADD23R,1.205000X1.550000*%
%TD*%
%TA.AperFunction,ComponentPad*%
%ADD24RotRect,1.700000X1.700000X275.000000*%
%TD*%
%TA.AperFunction,ComponentPad*%
%ADD25C,1.700000*%
%TD*%
%TA.AperFunction,ComponentPad*%
%ADD26R,1.700000X1.700000*%
%TD*%
%TA.AperFunction,ViaPad*%
%ADD27C,0.600000*%
%TD*%
%TA.AperFunction,Conductor*%
%ADD28C,0.200000*%
%TD*%
%TA.AperFunction,Conductor*%
%ADD29C,0.800000*%
%TD*%
%TA.AperFunction,Conductor*%
%ADD30C,1.500000*%
%TD*%
%TA.AperFunction,Conductor*%
%ADD31C,0.254000*%
%TD*%
%TA.AperFunction,Conductor*%
%ADD32C,0.762000*%
%TD*%
G04 APERTURE END LIST*
D10*
%TO.P,C1,1*%
%TO.N,+12V*%
X49518013Y-58442586D03*
%TO.P,C1,2*%
%TO.N,GND*%
X46568013Y-58442586D03*
%TD*%
D11*
%TO.P,L1,1,1*%
%TO.N,PH*%
X57388571Y-49025399D03*
%TO.P,L1,2,2*%
%TO.N,3.3V*%
X53688571Y-49025399D03*
%TD*%
D10*
%TO.P,C3,1*%
%TO.N,+12V*%
X49500654Y-65307408D03*
%TO.P,C3,2*%
%TO.N,GND*%
X46550654Y-65307408D03*
%TD*%
D12*
%TO.P,R7,1*%
%TO.N,Net-(U1-SS)*%
X53086000Y-61468000D03*
%TO.P,R7,2*%
%TO.N,GND*%
X53086000Y-63118000D03*
%TD*%
D13*
%TO.P,C10,1*%
%TO.N,3.3V*%
X63955161Y-63881000D03*
%TO.P,C10,2*%
%TO.N,GND*%
X62405161Y-63881000D03*
%TD*%
D14*
%TO.P,C9,1*%
%TO.N,3.3V*%
X60071000Y-45527851D03*
%TO.P,C9,2*%
%TO.N,GND*%
X60071000Y-47077851D03*
%TD*%
%TO.P,C6,1*%
%TO.N,Net-(C6-Pad1)*%
X64527249Y-57085692D03*
%TO.P,C6,2*%
%TO.N,GND*%
X64527249Y-58635692D03*
%TD*%
D15*
%TO.P,R3,1*%
%TO.N,Net-(R2-Pad1)*%
X62358000Y-60579000D03*
%TO.P,R3,2*%
%TO.N,VSENSE*%
X64008000Y-60579000D03*
%TD*%
D16*
%TO.P,GND1,1,1*%
%TO.N,GND*%
X50749200Y-46990000D03*
X48749200Y-46990000D03*
%TD*%
D17*
%TO.P,D1,1,K*%
%TO.N,PH*%
X60135000Y-50546000D03*
%TO.P,D1,2,A*%
%TO.N,GND*%
X64135000Y-50546000D03*
%TD*%
D16*
%TO.P,3.3,1,1*%
%TO.N,3.3V*%
X46863000Y-54959000D03*
X46863000Y-52959000D03*
%TD*%
D15*
%TO.P,R2,1*%
%TO.N,Net-(R2-Pad1)*%
X62355532Y-62190349D03*
%TO.P,R2,2*%
%TO.N,GND*%
X64005532Y-62190349D03*
%TD*%
D10*
%TO.P,C2,1*%
%TO.N,+12V*%
X49530000Y-61976000D03*
%TO.P,C2,2*%
%TO.N,GND*%
X46580000Y-61976000D03*
%TD*%
D18*
%TO.P,C5,1*%
%TO.N,COMP*%
X61217862Y-58620581D03*
%TO.P,C5,2*%
%TO.N,GND*%
X61217862Y-57070581D03*
%TD*%
D19*
%TO.P,D2,1,K*%
%TO.N,GND*%
X72644000Y-46736000D03*
%TO.P,D2,2,A*%
%TO.N,Net-(D2-A)*%
X70894000Y-46736000D03*
%TD*%
D20*
%TO.P,R4,1*%
%TO.N,3.3V*%
X67182000Y-60452000D03*
%TO.P,R4,2*%
%TO.N,VSENSE*%
X65532000Y-60452000D03*
%TD*%
D21*
%TO.P,R1,1*%
%TO.N,COMP*%
X62865000Y-58673000D03*
%TO.P,R1,2*%
%TO.N,Net-(C6-Pad1)*%
X62865000Y-57023000D03*
%TD*%
D13*
%TO.P,C7,1*%
%TO.N,BOOT*%
X60280917Y-54097495D03*
%TO.P,C7,2*%
%TO.N,PH*%
X58730917Y-54097495D03*
%TD*%
D22*
%TO.P,U1,1,BOOT*%
%TO.N,BOOT*%
X53105983Y-56091194D03*
%TO.P,U1,2,Vin*%
%TO.N,+12V*%
X53105983Y-57361194D03*
%TO.P,U1,3,EN*%
%TO.N,unconnected-(U1-EN-Pad3)*%
X53105983Y-58631194D03*
%TO.P,U1,4,SS*%
%TO.N,Net-(U1-SS)*%
X53105983Y-59901194D03*
%TO.P,U1,5,VSENSE*%
%TO.N,VSENSE*%
X58665983Y-59901194D03*
%TO.P,U1,6,COMP*%
%TO.N,COMP*%
X58665983Y-58631194D03*
%TO.P,U1,7,GND*%
%TO.N,GND*%
X58665983Y-57361194D03*
%TO.P,U1,8,PH*%
%TO.N,PH*%
X58665983Y-56091194D03*
D23*
%TO.P,U1,9,Power_PAD*%
%TO.N,GND*%
X55283483Y-57221194D03*
X55283483Y-58771194D03*
X56488483Y-57221194D03*
X56488483Y-58771194D03*
%TD*%
D15*
%TO.P,R5,1*%
%TO.N,3.3V*%
X67755000Y-46736000D03*
%TO.P,R5,2*%
%TO.N,Net-(D2-A)*%
X69405000Y-46736000D03*
%TD*%
D16*
%TO.P,+12,1,1*%
%TO.N,+12V*%
X49530000Y-52975000D03*
X49530000Y-54975000D03*
%TD*%
%TO.P,SENS1,1,1*%
%TO.N,VSENSE*%
X69469000Y-56039000D03*
X69469000Y-58039000D03*
%TD*%
D14*
%TO.P,C8,1*%
%TO.N,3.3V*%
X61595000Y-45541000D03*
%TO.P,C8,2*%
%TO.N,GND*%
X61595000Y-47091000D03*
%TD*%
D24*
%TO.P,J4,1,Pin_1*%
%TO.N,GND*%
X47090827Y-43944567D03*
D25*
%TO.P,J4,2,Pin_2*%
X49621163Y-43723191D03*
%TO.P,J4,3,Pin_3*%
X52151496Y-43501816D03*
%TO.P,J4,4,Pin_4*%
X54681831Y-43280440D03*
%TO.P,J4,5,Pin_5*%
X57212165Y-43059065D03*
%TO.P,J4,6,Pin_6*%
%TO.N,3.3V*%
X59742500Y-42837689D03*
%TO.P,J4,7,Pin_7*%
X62272834Y-42616313D03*
%TO.P,J4,8,Pin_8*%
X64803169Y-42394938D03*
%TO.P,J4,9,Pin_9*%
X67333503Y-42173562D03*
%TO.P,J4,10,Pin_10*%
X69863838Y-41952187D03*
%TD*%
D26*
%TO.P,J3,1,Pin_1*%
%TO.N,GND*%
X47090827Y-68404360D03*
D25*
%TO.P,J3,2,Pin_2*%
X49630827Y-68404360D03*
%TO.P,J3,3,Pin_3*%
X52170827Y-68404360D03*
%TO.P,J3,4,Pin_4*%
X54710827Y-68404360D03*
%TO.P,J3,5,Pin_5*%
X57250827Y-68404360D03*
%TO.P,J3,6,Pin_6*%
%TO.N,+12V*%
X59790827Y-68404360D03*
%TO.P,J3,7,Pin_7*%
X62330827Y-68404360D03*
%TO.P,J3,8,Pin_8*%
X64870827Y-68404360D03*
%TO.P,J3,9,Pin_9*%
X67410827Y-68404360D03*
%TO.P,J3,10,Pin_10*%
X69950827Y-68404360D03*
%TD*%
D27*
%TO.N,3.3V*%
X61874400Y-44196000D03*
X60858400Y-44450000D03*
X67182000Y-62103000D03*
X67818000Y-45821600D03*
%TO.N,GND*%
X66040000Y-62230000D03*
X65024000Y-48260000D03*
X65786000Y-46228000D03*
X69291200Y-48107600D03*
X70739000Y-60960000D03*
X54737000Y-54356000D03*
X57404000Y-55118000D03*
X56642000Y-55118000D03*
X55826929Y-52029853D03*
X56261000Y-54356000D03*
X68199000Y-62738000D03*
X56488483Y-57221194D03*
X45339000Y-58547000D03*
X55880000Y-53721000D03*
X55118000Y-55118000D03*
X45339000Y-64389000D03*
X56682342Y-52019160D03*
X71534522Y-62273205D03*
X51308000Y-50292000D03*
X60960000Y-48260000D03*
X68529200Y-48107600D03*
X71374000Y-60325000D03*
X66294000Y-49149000D03*
X66675000Y-55499000D03*
X56642000Y-53721000D03*
X45339000Y-65913000D03*
X73406000Y-57912000D03*
X55118000Y-53721000D03*
X62992000Y-48260000D03*
X45339000Y-61849000D03*
X63246000Y-55499000D03*
X62357000Y-55499000D03*
X73398000Y-59690000D03*
X66675000Y-46228000D03*
X58928000Y-48768000D03*
X52070000Y-53594000D03*
X55880000Y-62484000D03*
X65786000Y-55499000D03*
X57023000Y-54356000D03*
X45339000Y-62611000D03*
X72126835Y-61680891D03*
X64135000Y-55499000D03*
X70866000Y-62738000D03*
X68199000Y-61341000D03*
X45339000Y-59309000D03*
X70180200Y-48107600D03*
X52070000Y-50292000D03*
X54356000Y-61087000D03*
X55253894Y-59782224D03*
X60706000Y-55499000D03*
X66040000Y-48260000D03*
X71069200Y-48107600D03*
X66294000Y-50038000D03*
X55880000Y-61087000D03*
X56495083Y-59764365D03*
X69088000Y-62738000D03*
X66294000Y-50927000D03*
X64897000Y-55499000D03*
X52070000Y-51181000D03*
X66294000Y-51816000D03*
X57404000Y-61087000D03*
X49784000Y-50292000D03*
X65405000Y-61722000D03*
X65405000Y-62865000D03*
X73414000Y-57023000D03*
X61595000Y-55499000D03*
X55880000Y-55118000D03*
X50546000Y-50292000D03*
X56497129Y-56143929D03*
X45339000Y-65151000D03*
X67564000Y-63500000D03*
X72009000Y-58801000D03*
X62992000Y-47244000D03*
X56488483Y-58771194D03*
X55118000Y-62484000D03*
X65532000Y-58420000D03*
X62992000Y-46228000D03*
X69977000Y-61341000D03*
X73406000Y-56134000D03*
X65024000Y-65024000D03*
X72009000Y-56134000D03*
X55283483Y-57221194D03*
X57023000Y-61849000D03*
X52070000Y-54356000D03*
X61976000Y-48260000D03*
X73263805Y-60462223D03*
X64897000Y-46228000D03*
X66040000Y-65024000D03*
X55499000Y-61849000D03*
X52070000Y-52832000D03*
X72009000Y-57023000D03*
X63692429Y-65247673D03*
X45339000Y-61087000D03*
X52070000Y-52070000D03*
X54737000Y-61849000D03*
X54356000Y-55118000D03*
X72009000Y-57912000D03*
X55258917Y-56126070D03*
X69977000Y-62730000D03*
X66853624Y-64348143D03*
X56642000Y-61087000D03*
X55499000Y-54356000D03*
X58928000Y-46736000D03*
X69088000Y-61341000D03*
X71988327Y-59619043D03*
X72719149Y-61061345D03*
X59944000Y-48260000D03*
X58928000Y-47752000D03*
X64008000Y-46228000D03*
X62484000Y-65278000D03*
X64008000Y-48260000D03*
X56642000Y-62484000D03*
X56261000Y-61849000D03*
X55118000Y-61087000D03*
X45339000Y-57785000D03*
X57580527Y-52008468D03*
X55283483Y-58771194D03*
X73406000Y-58801000D03*
%TO.N,BOOT*%
X61722000Y-52832000D03*
X53340000Y-54356000D03*
%TD*%
D28*
%TO.N,Net-(D2-A)*%
X69405000Y-46736000D02*
X70894000Y-46736000D01*
D29*
%TO.N,3.3V*%
X53688571Y-49025399D02*
X49653601Y-49025399D01*
D30*
X55128971Y-45485000D02*
X53688571Y-46925400D01*
D28*
X63907000Y-63881000D02*
X65889208Y-63881000D01*
X67182000Y-60452000D02*
X67182000Y-62588209D01*
X67182000Y-62588209D02*
X65964604Y-63805604D01*
D30*
X53688571Y-46925400D02*
X53688571Y-49025399D01*
D29*
X46863000Y-51816000D02*
X46863000Y-54959000D01*
D28*
X67818000Y-45821600D02*
X67818000Y-46673000D01*
X67818000Y-46673000D02*
X67755000Y-46736000D01*
D29*
X49653601Y-49025399D02*
X46863000Y-51816000D01*
D28*
X65889208Y-63881000D02*
X65964604Y-63805604D01*
D30*
X60028149Y-45485000D02*
X55128971Y-45485000D01*
D31*
%TO.N,GND*%
X58665983Y-57361194D02*
X56628483Y-57361194D01*
X56628483Y-57361194D02*
X56488483Y-57221194D01*
D28*
X62405161Y-63790720D02*
X64005532Y-62190349D01*
X62405161Y-63881000D02*
X62405161Y-63790720D01*
X58956596Y-57070581D02*
X58665983Y-57361194D01*
X61217862Y-57070581D02*
X61388581Y-57070581D01*
X61217862Y-57070581D02*
X58956596Y-57070581D01*
D29*
%TO.N,+12V*%
X49530000Y-52975000D02*
X49530000Y-54975000D01*
X69950827Y-68350369D02*
X67410827Y-68350369D01*
X49518013Y-54986987D02*
X49530000Y-54975000D01*
X49518013Y-58442586D02*
X49518013Y-54986987D01*
D28*
%TO.N,Net-(U1-SS)*%
X53105983Y-59901194D02*
X53105983Y-61448017D01*
X53105983Y-61448017D02*
X53086000Y-61468000D01*
X53105983Y-59901194D02*
X53086000Y-59921177D01*
D31*
%TO.N,COMP*%
X58665983Y-58631194D02*
X62822194Y-58631194D01*
X62822194Y-58631194D02*
X62992000Y-58801000D01*
D28*
X62914372Y-58623628D02*
X62865000Y-58673000D01*
%TO.N,Net-(C6-Pad1)*%
X64464557Y-57023000D02*
X64527249Y-57085692D01*
X62865000Y-57023000D02*
X64464557Y-57023000D01*
D32*
%TO.N,PH*%
X58665983Y-56091194D02*
X58665983Y-54610000D01*
X58665983Y-52832000D02*
X58665983Y-51316018D01*
X58665983Y-51316018D02*
X58923992Y-51058009D01*
X58665983Y-54610000D02*
X58665983Y-52832000D01*
X58665983Y-53594000D02*
X58665983Y-52832000D01*
X58665983Y-51316017D02*
X59436000Y-50546000D01*
X59436000Y-50546000D02*
X59427983Y-50546000D01*
X58665983Y-52832000D02*
X58665983Y-51316017D01*
D28*
%TO.N,BOOT*%
X61722000Y-52832000D02*
X61748000Y-52858000D01*
X60452000Y-54102000D02*
X61227000Y-54102000D01*
X61227000Y-54102000D02*
X61722000Y-53607000D01*
D31*
X53105983Y-54590017D02*
X53105983Y-56091194D01*
D28*
X61722000Y-53607000D02*
X61722000Y-52832000D01*
D31*
X53340000Y-54356000D02*
X53105983Y-54590017D01*
D28*
%TO.N,Net-(R2-Pad1)*%
X62358000Y-60579000D02*
X62358000Y-62187881D01*
X62358000Y-62187881D02*
X62355532Y-62190349D01*
%TO.N,VSENSE*%
X64008000Y-60579000D02*
X64008000Y-60198000D01*
X65611410Y-60579000D02*
X65624701Y-60565709D01*
X67056000Y-58039000D02*
X69469000Y-58039000D01*
X60748806Y-59901194D02*
X58665983Y-59901194D01*
X65532000Y-60452000D02*
X65532000Y-59563000D01*
D31*
X58665983Y-59901194D02*
X59393194Y-59901194D01*
D28*
X69469000Y-58039000D02*
X69469000Y-56039000D01*
X63500000Y-59690000D02*
X60960000Y-59690000D01*
X64008000Y-60579000D02*
X65611410Y-60579000D01*
X65532000Y-59563000D02*
X67056000Y-58039000D01*
X60960000Y-59690000D02*
X60748806Y-59901194D01*
X64008000Y-60198000D02*
X63500000Y-59690000D01*
%TD*%
%TA.AperFunction,Conductor*%
%TO.N,GND*%
G36*
X73777881Y-40612568D02*
G01*
X73784225Y-40613572D01*
X73796909Y-40615582D01*
X73853304Y-40633907D01*
X73857423Y-40636006D01*
X73869249Y-40644598D01*
X73875179Y-40646977D01*
X73880431Y-40652723D01*
X73905380Y-40670850D01*
X73908650Y-40674120D01*
X73943502Y-40722093D01*
X73945599Y-40726209D01*
X73963915Y-40782574D01*
X73966999Y-40802042D01*
X73969334Y-40831695D01*
X73969334Y-46112407D01*
X73950568Y-46194628D01*
X73897985Y-46260564D01*
X73822002Y-46297156D01*
X73737666Y-46297156D01*
X73661683Y-46260564D01*
X73609100Y-46194628D01*
X73608089Y-46192495D01*
X73604451Y-46184694D01*
X73513945Y-46037963D01*
X73392036Y-45916054D01*
X73245304Y-45825547D01*
X73081651Y-45771319D01*
X72980650Y-45761000D01*
X72894001Y-45761000D01*
X72894000Y-45761001D01*
X72894000Y-47710998D01*
X72894001Y-47710999D01*
X72980644Y-47710999D01*
X73081651Y-47700680D01*
X73081652Y-47700680D01*
X73245304Y-47646452D01*
X73392036Y-47555945D01*
X73513945Y-47434036D01*
X73604453Y-47287301D01*
X73608088Y-47279508D01*
X73659843Y-47212921D01*
X73735364Y-47175384D01*
X73819693Y-47174331D01*
X73896127Y-47209972D01*
X73949528Y-47275247D01*
X73969319Y-47357227D01*
X73969334Y-47359592D01*
X73969334Y-69336680D01*
X73969330Y-69336695D01*
X73969333Y-69382397D01*
X73969333Y-69387684D01*
X73969331Y-69387691D01*
X73967002Y-69417315D01*
X73963917Y-69436800D01*
X73945597Y-69493191D01*
X73943501Y-69497305D01*
X73925379Y-69522248D01*
X73922159Y-69529339D01*
X73917250Y-69533437D01*
X73908649Y-69545277D01*
X73905379Y-69548547D01*
X73857422Y-69583391D01*
X73853305Y-69585489D01*
X73796922Y-69603813D01*
X73777888Y-69606829D01*
X73748231Y-69609164D01*
X70945120Y-69609164D01*
X70862899Y-69590398D01*
X70796963Y-69537815D01*
X70760371Y-69461832D01*
X70760371Y-69377496D01*
X70796963Y-69301513D01*
X70811114Y-69285676D01*
X70890163Y-69206628D01*
X71004100Y-69049807D01*
X71092103Y-68877092D01*
X71152003Y-68692737D01*
X71182327Y-68501281D01*
X71182327Y-68307439D01*
X71152003Y-68115983D01*
X71152002Y-68115979D01*
X71092105Y-67931633D01*
X71092103Y-67931627D01*
X71062017Y-67872582D01*
X71004100Y-67758913D01*
X70890163Y-67602092D01*
X70753095Y-67465024D01*
X70596274Y-67351087D01*
X70498527Y-67301282D01*
X70423559Y-67263083D01*
X70423553Y-67263081D01*
X70239207Y-67203184D01*
X70047749Y-67172860D01*
X70047748Y-67172860D01*
X69853906Y-67172860D01*
X69853905Y-67172860D01*
X69662446Y-67203184D01*
X69478100Y-67263081D01*
X69478094Y-67263083D01*
X69305378Y-67351088D01*
X69148561Y-67465022D01*
X69148559Y-67465023D01*
X69148559Y-67465024D01*
X69100215Y-67513367D01*
X69028809Y-67558235D01*
X68966221Y-67568869D01*
X68395433Y-67568869D01*
X68313212Y-67550103D01*
X68261439Y-67513368D01*
X68213095Y-67465024D01*
X68056274Y-67351087D01*
X67958527Y-67301282D01*
X67883559Y-67263083D01*
X67883553Y-67263081D01*
X67699207Y-67203184D01*
X67507749Y-67172860D01*
X67507748Y-67172860D01*
X67313906Y-67172860D01*
X67313905Y-67172860D01*
X67122446Y-67203184D01*
X66938101Y-67263081D01*
X66903564Y-67280678D01*
X66821784Y-67301282D01*
X66745385Y-67287057D01*
X65955842Y-66961951D01*
X65955836Y-66961949D01*
X65955826Y-66961945D01*
X65883684Y-66940186D01*
X65836470Y-66930846D01*
X65761475Y-66923500D01*
X65761470Y-66923500D01*
X62284266Y-66923500D01*
X62202045Y-66904734D01*
X62136109Y-66852151D01*
X62126593Y-66839116D01*
X60809980Y-64864198D01*
X60803233Y-64855999D01*
X60760687Y-64804293D01*
X60725541Y-64769403D01*
X60699186Y-64747406D01*
X60674426Y-64726740D01*
X60565656Y-64673905D01*
X60498807Y-64653584D01*
X60498803Y-64653583D01*
X60498802Y-64653583D01*
X60390067Y-64636892D01*
X52545139Y-64562309D01*
X52463101Y-64542762D01*
X52397667Y-64489555D01*
X52361800Y-64413227D01*
X52357445Y-64373939D01*
X52356237Y-64168133D01*
X52364484Y-64131001D01*
X61455162Y-64131001D01*
X61455162Y-64179311D01*
X61465305Y-64278606D01*
X61518614Y-64439485D01*
X61607587Y-64583730D01*
X61727430Y-64703573D01*
X61871675Y-64792546D01*
X62032554Y-64845855D01*
X62131849Y-64855999D01*
X62155160Y-64855998D01*
X62155161Y-64855998D01*
X62155161Y-64131000D01*
X61455163Y-64131000D01*
X61455162Y-64131001D01*
X52364484Y-64131001D01*
X52374521Y-64085807D01*
X52426716Y-64019563D01*
X52502483Y-63982527D01*
X52586817Y-63982032D01*
X52602113Y-63986106D01*
X52683890Y-64011589D01*
X52683901Y-64011592D01*
X52754405Y-64017998D01*
X52754435Y-64017999D01*
X52836000Y-64017998D01*
X53336000Y-64017998D01*
X53336001Y-64017999D01*
X53417568Y-64017999D01*
X53488109Y-64011589D01*
X53488112Y-64011589D01*
X53650392Y-63961020D01*
X53650400Y-63961016D01*
X53795869Y-63873077D01*
X53795874Y-63873074D01*
X53916074Y-63752874D01*
X53916077Y-63752869D01*
X54004016Y-63607400D01*
X54004019Y-63607394D01*
X54054589Y-63445112D01*
X54054592Y-63445098D01*
X54061000Y-63374579D01*
X54061000Y-63368001D01*
X54060999Y-63368000D01*
X53336000Y-63368000D01*
X53336000Y-64017998D01*
X52836000Y-64017998D01*
X52836000Y-63307500D01*
X52840751Y-63286684D01*
X52840751Y-63265332D01*
X52850014Y-63246095D01*
X52854766Y-63225279D01*
X52868079Y-63208584D01*
X52877343Y-63189349D01*
X52894036Y-63176036D01*
X52907349Y-63159343D01*
X52926584Y-63150079D01*
X52943279Y-63136766D01*
X52964095Y-63132014D01*
X52983332Y-63122751D01*
X53025500Y-63118000D01*
X53086000Y-63118000D01*
X53086000Y-63057500D01*
X53104766Y-62975279D01*
X53157349Y-62909343D01*
X53233332Y-62872751D01*
X53275500Y-62868000D01*
X54060998Y-62868000D01*
X54060999Y-62867999D01*
X54060999Y-62861431D01*
X54054589Y-62790890D01*
X54054589Y-62790887D01*
X54004020Y-62628607D01*
X54004016Y-62628599D01*
X53916077Y-62483130D01*
X53916074Y-62483126D01*
X53795870Y-62362922D01*
X53795852Y-62362908D01*
X53795834Y-62362886D01*
X53787768Y-62354820D01*
X53788606Y-62353981D01*
X53742702Y-62297428D01*
X53723226Y-62215373D01*
X53741282Y-62132993D01*
X53769159Y-62093345D01*
X53768170Y-62092586D01*
X53868937Y-61961262D01*
X53868939Y-61961258D01*
X53877600Y-61940349D01*
X53927533Y-61819802D01*
X53942500Y-61706116D01*
X53942500Y-61229884D01*
X53927533Y-61116198D01*
X53868939Y-60974741D01*
X53868937Y-60974737D01*
X53775734Y-60853272D01*
X53775730Y-60853268D01*
X53661623Y-60765711D01*
X53660465Y-60764313D01*
X53658832Y-60763527D01*
X53633613Y-60731904D01*
X53607817Y-60700769D01*
X53607380Y-60699010D01*
X53606249Y-60697591D01*
X53597247Y-60658152D01*
X53587516Y-60618914D01*
X53587483Y-60615370D01*
X53587483Y-60596194D01*
X53606249Y-60513973D01*
X53658832Y-60448037D01*
X53734815Y-60411445D01*
X53776983Y-60406694D01*
X54080731Y-60406694D01*
X54139214Y-60395061D01*
X54205535Y-60350746D01*
X54249850Y-60284425D01*
X54261483Y-60225942D01*
X54261483Y-60196308D01*
X54280249Y-60114087D01*
X54332832Y-60048151D01*
X54408815Y-60011559D01*
X54493151Y-60011559D01*
X54517206Y-60018756D01*
X54573606Y-60039792D01*
X54633143Y-60046193D01*
X54633160Y-60046194D01*
X55033482Y-60046194D01*
X55033483Y-60046193D01*
X55033483Y-55946195D01*
X55533483Y-55946195D01*
X55533483Y-60046193D01*
X55533484Y-60046194D01*
X56238482Y-60046194D01*
X56238483Y-60046193D01*
X56238483Y-55946195D01*
X56238482Y-55946194D01*
X55533484Y-55946194D01*
X55533483Y-55946195D01*
X55033483Y-55946195D01*
X55033482Y-55946194D01*
X54633143Y-55946194D01*
X54573606Y-55952595D01*
X54517204Y-55973632D01*
X54433608Y-55984781D01*
X54353454Y-55958555D01*
X54292617Y-55900149D01*
X54263146Y-55821130D01*
X54261483Y-55796079D01*
X54261483Y-55766446D01*
X54249850Y-55707963D01*
X54205536Y-55641643D01*
X54205533Y-55641640D01*
X54139213Y-55597326D01*
X54080731Y-55585694D01*
X53803983Y-55585694D01*
X53783167Y-55580943D01*
X53761815Y-55580943D01*
X53742578Y-55571679D01*
X53721762Y-55566928D01*
X53705067Y-55553614D01*
X53685832Y-55544351D01*
X53672519Y-55527657D01*
X53655826Y-55514345D01*
X53646562Y-55495109D01*
X53633249Y-55478415D01*
X53628497Y-55457598D01*
X53619234Y-55438362D01*
X53614483Y-55396194D01*
X53614483Y-55093518D01*
X53633249Y-55011297D01*
X53685832Y-54945361D01*
X53698690Y-54935962D01*
X53774431Y-54885355D01*
X53869355Y-54790431D01*
X53943937Y-54678811D01*
X53943938Y-54678808D01*
X53943940Y-54678805D01*
X53995307Y-54554793D01*
X53995306Y-54554793D01*
X53995310Y-54554786D01*
X54021500Y-54423122D01*
X54021500Y-54288878D01*
X53995310Y-54157214D01*
X53995307Y-54157206D01*
X53943940Y-54033194D01*
X53943936Y-54033187D01*
X53869354Y-53921568D01*
X53774431Y-53826645D01*
X53662812Y-53752063D01*
X53662805Y-53752059D01*
X53538793Y-53700692D01*
X53538788Y-53700691D01*
X53538786Y-53700690D01*
X53407122Y-53674500D01*
X53272878Y-53674500D01*
X53141214Y-53700690D01*
X53141212Y-53700690D01*
X53141206Y-53700692D01*
X53017194Y-53752059D01*
X53017187Y-53752063D01*
X52905568Y-53826645D01*
X52810645Y-53921568D01*
X52736063Y-54033187D01*
X52736059Y-54033194D01*
X52684692Y-54157206D01*
X52684690Y-54157212D01*
X52684690Y-54157214D01*
X52663572Y-54263380D01*
X52658500Y-54288880D01*
X52658500Y-54297301D01*
X52639734Y-54379522D01*
X52633113Y-54392048D01*
X52632140Y-54393732D01*
X52632136Y-54393740D01*
X52597483Y-54523071D01*
X52597483Y-55396194D01*
X52578717Y-55478415D01*
X52526134Y-55544351D01*
X52450151Y-55580943D01*
X52407983Y-55585694D01*
X52131235Y-55585694D01*
X52072752Y-55597326D01*
X52006432Y-55641640D01*
X52006429Y-55641643D01*
X51962115Y-55707963D01*
X51950483Y-55766446D01*
X51950483Y-56276970D01*
X51931717Y-56359191D01*
X51879134Y-56425127D01*
X51803151Y-56461719D01*
X51727164Y-56463428D01*
X50898503Y-56313129D01*
X50820951Y-56279990D01*
X50765458Y-56216485D01*
X50762841Y-56211444D01*
X50484157Y-55654075D01*
X50464172Y-55572142D01*
X50481715Y-55489651D01*
X50484805Y-55483297D01*
X50532265Y-55390152D01*
X50584870Y-55228252D01*
X50611500Y-55060116D01*
X50611500Y-54889884D01*
X50610123Y-54881193D01*
X50595748Y-54790431D01*
X50584870Y-54721748D01*
X50532265Y-54559848D01*
X50462600Y-54423122D01*
X50454983Y-54408172D01*
X50454981Y-54408170D01*
X50453264Y-54405807D01*
X50354922Y-54270450D01*
X50354920Y-54270448D01*
X50350545Y-54264426D01*
X50351983Y-54263380D01*
X50345535Y-54251067D01*
X50330266Y-54231920D01*
X50326215Y-54214174D01*
X50317772Y-54198050D01*
X50311500Y-54149699D01*
X50311500Y-53800300D01*
X50330266Y-53718079D01*
X50351168Y-53686027D01*
X50350545Y-53685574D01*
X50361576Y-53670391D01*
X50454982Y-53541829D01*
X50532265Y-53390152D01*
X50584870Y-53228252D01*
X50611500Y-53060116D01*
X50611500Y-52889884D01*
X50584870Y-52721748D01*
X50532265Y-52559848D01*
X50454982Y-52408171D01*
X50354922Y-52270450D01*
X50234550Y-52150078D01*
X50096829Y-52050018D01*
X50096827Y-52050016D01*
X49945156Y-51972737D01*
X49945155Y-51972736D01*
X49945152Y-51972735D01*
X49830568Y-51935504D01*
X49783253Y-51920130D01*
X49615116Y-51893500D01*
X49444884Y-51893500D01*
X49276746Y-51920130D01*
X49114848Y-51972735D01*
X49114843Y-51972737D01*
X48963172Y-52050016D01*
X48963170Y-52050018D01*
X48825450Y-52150078D01*
X48825447Y-52150080D01*
X48705080Y-52270447D01*
X48705078Y-52270450D01*
X48605018Y-52408170D01*
X48605016Y-52408172D01*
X48527737Y-52559843D01*
X48527735Y-52559848D01*
X48475130Y-52721746D01*
X48448500Y-52889883D01*
X48448500Y-53060116D01*
X48475130Y-53228253D01*
X48527735Y-53390151D01*
X48527737Y-53390156D01*
X48605016Y-53541827D01*
X48605018Y-53541829D01*
X48693453Y-53663550D01*
X48709455Y-53685574D01*
X48708012Y-53686621D01*
X48714456Y-53698921D01*
X48729734Y-53718079D01*
X48733781Y-53735811D01*
X48742221Y-53751922D01*
X48748500Y-53800300D01*
X48748500Y-54149699D01*
X48729734Y-54231920D01*
X48708833Y-54263974D01*
X48709455Y-54264426D01*
X48605018Y-54408170D01*
X48605016Y-54408172D01*
X48527737Y-54559843D01*
X48527735Y-54559848D01*
X48475130Y-54721746D01*
X48448500Y-54889883D01*
X48448500Y-55060116D01*
X48475130Y-55228253D01*
X48527735Y-55390151D01*
X48527737Y-55390156D01*
X48591008Y-55514333D01*
X48611614Y-55596113D01*
X48594697Y-55678734D01*
X48588877Y-55690454D01*
X48188884Y-56430655D01*
X48188880Y-56430663D01*
X48171511Y-56475237D01*
X48124172Y-56545033D01*
X48051237Y-56587377D01*
X47994386Y-56595931D01*
X47050511Y-56593159D01*
X47050417Y-56593159D01*
X47050115Y-56593158D01*
X46955799Y-56592800D01*
X46955805Y-56592783D01*
X46955376Y-56592783D01*
X46955375Y-56592798D01*
X46950964Y-56592782D01*
X46950880Y-56592762D01*
X46943931Y-56592586D01*
X46818014Y-56592586D01*
X46818013Y-56592587D01*
X46818013Y-59956238D01*
X46819366Y-59958392D01*
X46830000Y-60020980D01*
X46830000Y-63913661D01*
X46811234Y-63995882D01*
X46800654Y-64010793D01*
X46800654Y-65057407D01*
X46800655Y-65057408D01*
X47625652Y-65057408D01*
X47625653Y-65057407D01*
X47625653Y-64157432D01*
X47615158Y-64054705D01*
X47614903Y-64053510D01*
X47614918Y-64052354D01*
X47614108Y-64044419D01*
X47615027Y-64044325D01*
X47615458Y-64012599D01*
X47615458Y-63971685D01*
X47616029Y-63970499D01*
X47616047Y-63969182D01*
X47634302Y-63932554D01*
X47652050Y-63895702D01*
X47653079Y-63894881D01*
X47653667Y-63893702D01*
X47685995Y-63868631D01*
X47717986Y-63843119D01*
X47719270Y-63842825D01*
X47720311Y-63842019D01*
X47800207Y-63824353D01*
X47938000Y-63824353D01*
X48020221Y-63843119D01*
X48086157Y-63895702D01*
X48122749Y-63971685D01*
X48127500Y-64013853D01*
X48127500Y-64449637D01*
X48131622Y-64489555D01*
X48135656Y-64528619D01*
X48146013Y-64578233D01*
X48163801Y-64636893D01*
X48165864Y-64643696D01*
X48228047Y-64747406D01*
X48272908Y-64800971D01*
X48354826Y-64874399D01*
X48459770Y-64944361D01*
X48517771Y-65005581D01*
X48543467Y-65085907D01*
X48544154Y-65102034D01*
X48544154Y-66471178D01*
X48546972Y-66506982D01*
X48562407Y-66560111D01*
X48591487Y-66660202D01*
X48653687Y-66765378D01*
X48672705Y-66797535D01*
X48785527Y-66910357D01*
X48785529Y-66910358D01*
X48785531Y-66910360D01*
X48870656Y-66960702D01*
X48915667Y-67003351D01*
X47572638Y-67001718D01*
X47549181Y-66983011D01*
X47512589Y-66907028D01*
X47512589Y-66822692D01*
X47536051Y-66765378D01*
X47560010Y-66726532D01*
X47560013Y-66726527D01*
X47615158Y-66560111D01*
X47615159Y-66560106D01*
X47625653Y-66457390D01*
X47625654Y-66457377D01*
X47625654Y-65557409D01*
X47625653Y-65557408D01*
X46482000Y-65557408D01*
X46482000Y-64065028D01*
X46300654Y-64065028D01*
X46300654Y-63369747D01*
X46319420Y-63287526D01*
X46330000Y-63272614D01*
X46330000Y-62992000D01*
X46482000Y-62992000D01*
X46482000Y-60833000D01*
X46330000Y-60833000D01*
X46330000Y-60462347D01*
X46328647Y-60460194D01*
X46318013Y-60397606D01*
X46318013Y-59690000D01*
X46482000Y-59690000D01*
X46482000Y-57531000D01*
X46318013Y-57531000D01*
X46318013Y-56592585D01*
X46193037Y-56592586D01*
X46090316Y-56603080D01*
X46090310Y-56603081D01*
X45923893Y-56658226D01*
X45923888Y-56658229D01*
X45774673Y-56750265D01*
X45650692Y-56874246D01*
X45558656Y-57023461D01*
X45558653Y-57023466D01*
X45503508Y-57189882D01*
X45503507Y-57189887D01*
X45493013Y-57292603D01*
X45493013Y-57531000D01*
X45085000Y-57531000D01*
X45085000Y-59690000D01*
X45502967Y-59690000D01*
X45503507Y-59695282D01*
X45503508Y-59695288D01*
X45558653Y-59861705D01*
X45558656Y-59861710D01*
X45650692Y-60010925D01*
X45721056Y-60081289D01*
X45765925Y-60152698D01*
X45775367Y-60236503D01*
X45747513Y-60316106D01*
X45721057Y-60349282D01*
X45662679Y-60407660D01*
X45570643Y-60556875D01*
X45570640Y-60556880D01*
X45515495Y-60723296D01*
X45515494Y-60723301D01*
X45505000Y-60826017D01*
X45505000Y-60833000D01*
X45085000Y-60833000D01*
X45085000Y-62992000D01*
X45505001Y-62992000D01*
X45505001Y-63125975D01*
X45515494Y-63228696D01*
X45515495Y-63228702D01*
X45570640Y-63395119D01*
X45570643Y-63395124D01*
X45647635Y-63519949D01*
X45674826Y-63599781D01*
X45664687Y-63683504D01*
X45639069Y-63729631D01*
X45639131Y-63729669D01*
X45638303Y-63731010D01*
X45635000Y-63736959D01*
X45633337Y-63739061D01*
X45541297Y-63888283D01*
X45541294Y-63888288D01*
X45486149Y-64054704D01*
X45486148Y-64054709D01*
X45485094Y-64065028D01*
X45085000Y-64065028D01*
X45085000Y-66294000D01*
X45475655Y-66294000D01*
X45475655Y-66457383D01*
X45486148Y-66560104D01*
X45486149Y-66560110D01*
X45541294Y-66726527D01*
X45541297Y-66726532D01*
X45633333Y-66875747D01*
X45757096Y-66999510D01*
X45366837Y-66999036D01*
X45340510Y-69609164D01*
X45255197Y-69609164D01*
X45255120Y-69609159D01*
X45191826Y-69609163D01*
X45162178Y-69606831D01*
X45142720Y-69603750D01*
X45086327Y-69585428D01*
X45082226Y-69583339D01*
X45034241Y-69548470D01*
X45030991Y-69545219D01*
X45022400Y-69533393D01*
X45017488Y-69529292D01*
X45014261Y-69522188D01*
X44996161Y-69497271D01*
X44994070Y-69493167D01*
X44975749Y-69436776D01*
X44972667Y-69417311D01*
X44970337Y-69387685D01*
X44970337Y-69353107D01*
X44970338Y-69336695D01*
X44970337Y-69336691D01*
X44970337Y-48753976D01*
X48877216Y-48696574D01*
X46255969Y-51317822D01*
X46177672Y-51435002D01*
X46170448Y-51445813D01*
X46170441Y-51445826D01*
X46111532Y-51588045D01*
X46081500Y-51739029D01*
X46081500Y-52133699D01*
X46062734Y-52215920D01*
X46041833Y-52247974D01*
X46042455Y-52248426D01*
X45938018Y-52392170D01*
X45938016Y-52392172D01*
X45860737Y-52543843D01*
X45860735Y-52543848D01*
X45808130Y-52705746D01*
X45781500Y-52873883D01*
X45781500Y-53044116D01*
X45808130Y-53212253D01*
X45825734Y-53266431D01*
X45839996Y-53310326D01*
X45860735Y-53374151D01*
X45860737Y-53374156D01*
X45938016Y-53525827D01*
X45938018Y-53525829D01*
X46042455Y-53669574D01*
X46041012Y-53670621D01*
X46047456Y-53682921D01*
X46062734Y-53702079D01*
X46066781Y-53719811D01*
X46075221Y-53735922D01*
X46081500Y-53784300D01*
X46081500Y-54133699D01*
X46062734Y-54215920D01*
X46041833Y-54247974D01*
X46042455Y-54248426D01*
X46038078Y-54254449D01*
X46038078Y-54254450D01*
X46030830Y-54264426D01*
X45938018Y-54392170D01*
X45938016Y-54392172D01*
X45860737Y-54543843D01*
X45860735Y-54543848D01*
X45808130Y-54705746D01*
X45781500Y-54873883D01*
X45781500Y-55044116D01*
X45808130Y-55212253D01*
X45860735Y-55374151D01*
X45860737Y-55374156D01*
X45938016Y-55525827D01*
X45938018Y-55525829D01*
X46038078Y-55663550D01*
X46158450Y-55783922D01*
X46296170Y-55883981D01*
X46296172Y-55883983D01*
X46375071Y-55924183D01*
X46447848Y-55961265D01*
X46609748Y-56013870D01*
X46777884Y-56040500D01*
X46948116Y-56040500D01*
X47116252Y-56013870D01*
X47278152Y-55961265D01*
X47429829Y-55883982D01*
X47567550Y-55783922D01*
X47687922Y-55663550D01*
X47787982Y-55525829D01*
X47865265Y-55374152D01*
X47917870Y-55212252D01*
X47944500Y-55044116D01*
X47944500Y-54873884D01*
X47917870Y-54705748D01*
X47865265Y-54543848D01*
X47807533Y-54430542D01*
X47787983Y-54392172D01*
X47787981Y-54392170D01*
X47687922Y-54254450D01*
X47687920Y-54254448D01*
X47683545Y-54248426D01*
X47684983Y-54247380D01*
X47678535Y-54235067D01*
X47663266Y-54215920D01*
X47659215Y-54198174D01*
X47650772Y-54182050D01*
X47644500Y-54133699D01*
X47644500Y-53784300D01*
X47663266Y-53702079D01*
X47684168Y-53670027D01*
X47683545Y-53669574D01*
X47687922Y-53663550D01*
X47787982Y-53525829D01*
X47865265Y-53374152D01*
X47917870Y-53212252D01*
X47944500Y-53044116D01*
X47944500Y-52873884D01*
X47917870Y-52705748D01*
X47865265Y-52543848D01*
X47796135Y-52408172D01*
X47787983Y-52392172D01*
X47787981Y-52392170D01*
X47716497Y-52293780D01*
X47683351Y-52216231D01*
X47687135Y-52131981D01*
X47727099Y-52057715D01*
X47735794Y-52048413D01*
X49921806Y-49862402D01*
X49993215Y-49817533D01*
X50055803Y-49806899D01*
X52417571Y-49806899D01*
X52499792Y-49825665D01*
X52565728Y-49878248D01*
X52602320Y-49954231D01*
X52607071Y-49996399D01*
X52607071Y-50939167D01*
X52609889Y-50974974D01*
X52654402Y-51128190D01*
X52724059Y-51245975D01*
X52735622Y-51265526D01*
X52848444Y-51378348D01*
X52985778Y-51459567D01*
X53138997Y-51504081D01*
X53174801Y-51506899D01*
X53174802Y-51506899D01*
X54202340Y-51506899D01*
X54202341Y-51506899D01*
X54238145Y-51504081D01*
X54391364Y-51459567D01*
X54483483Y-51405087D01*
X54563807Y-51379387D01*
X54647328Y-51391082D01*
X54712591Y-51432862D01*
X54741687Y-51461379D01*
X56134000Y-51435000D01*
X56133829Y-51424196D01*
X56151293Y-51341691D01*
X56202826Y-51274931D01*
X56278222Y-51237143D01*
X56362547Y-51235810D01*
X56439099Y-51271196D01*
X56457293Y-51287197D01*
X56548444Y-51378348D01*
X56685778Y-51459567D01*
X56838997Y-51504081D01*
X56874801Y-51506899D01*
X57706822Y-51506899D01*
X57737793Y-51513967D01*
X57769360Y-51517516D01*
X57778507Y-51523260D01*
X57789043Y-51525665D01*
X57840781Y-51562365D01*
X57847942Y-51569522D01*
X57892831Y-51640918D01*
X57903483Y-51703556D01*
X57903483Y-53764439D01*
X57901862Y-53789175D01*
X57899417Y-53807745D01*
X57899417Y-54387241D01*
X57899418Y-54387245D01*
X57901862Y-54405807D01*
X57903483Y-54430542D01*
X57903483Y-55184021D01*
X57900187Y-55198458D01*
X57901218Y-55213230D01*
X57891625Y-55235974D01*
X57884717Y-55266242D01*
X57870003Y-55291576D01*
X57867852Y-55294696D01*
X57751413Y-55449949D01*
X57706159Y-55529247D01*
X57701586Y-55535882D01*
X57676313Y-55559089D01*
X57653099Y-55584362D01*
X57648028Y-55587119D01*
X57639810Y-55592610D01*
X57639468Y-55592925D01*
X57639233Y-55592995D01*
X57566430Y-55641642D01*
X57566429Y-55641643D01*
X57522115Y-55707963D01*
X57510483Y-55766446D01*
X57510483Y-55796079D01*
X57491717Y-55878300D01*
X57439134Y-55944236D01*
X57363151Y-55980828D01*
X57278815Y-55980828D01*
X57254762Y-55973632D01*
X57198359Y-55952595D01*
X57138822Y-55946194D01*
X56738484Y-55946194D01*
X56738483Y-55946195D01*
X56738483Y-56971193D01*
X56738484Y-56971194D01*
X57596983Y-56971194D01*
X57679204Y-56989960D01*
X57745140Y-57042543D01*
X57770506Y-57095216D01*
X57786484Y-57111194D01*
X58476483Y-57111194D01*
X58497299Y-57115945D01*
X58518651Y-57115945D01*
X58537887Y-57125208D01*
X58558704Y-57129960D01*
X58575398Y-57143273D01*
X58594634Y-57152537D01*
X58607946Y-57169230D01*
X58624640Y-57182543D01*
X58633903Y-57201778D01*
X58647217Y-57218473D01*
X58651968Y-57239289D01*
X58661232Y-57258526D01*
X58665983Y-57300694D01*
X58665983Y-57421694D01*
X58647217Y-57503915D01*
X58594634Y-57569851D01*
X58518651Y-57606443D01*
X58476483Y-57611194D01*
X57204983Y-57611194D01*
X57122762Y-57592428D01*
X57056826Y-57539845D01*
X57031459Y-57487171D01*
X57015482Y-57471194D01*
X56738484Y-57471194D01*
X56738483Y-57471195D01*
X56738483Y-60046193D01*
X56738484Y-60046194D01*
X57138806Y-60046194D01*
X57138822Y-60046193D01*
X57198359Y-60039792D01*
X57254760Y-60018756D01*
X57338355Y-60007606D01*
X57418509Y-60033831D01*
X57479348Y-60092236D01*
X57508820Y-60171254D01*
X57510483Y-60196308D01*
X57510483Y-60225941D01*
X57522115Y-60284424D01*
X57566429Y-60350744D01*
X57566431Y-60350746D01*
X57632752Y-60395061D01*
X57691235Y-60406694D01*
X58065994Y-60406694D01*
X58148215Y-60425460D01*
X58214151Y-60478043D01*
X58250743Y-60554026D01*
X58255489Y-60597392D01*
X58254634Y-60732401D01*
X58248420Y-61712992D01*
X58248421Y-61712991D01*
X58248421Y-61712993D01*
X61383970Y-61703665D01*
X61466245Y-61722187D01*
X61532337Y-61774572D01*
X61569155Y-61850447D01*
X61574032Y-61893164D01*
X61574032Y-62503468D01*
X61588998Y-62617149D01*
X61645995Y-62754749D01*
X61647593Y-62758608D01*
X61672364Y-62790890D01*
X61711261Y-62841583D01*
X61746424Y-62918238D01*
X61744847Y-63002559D01*
X61706840Y-63077844D01*
X61694917Y-63090937D01*
X61607588Y-63178266D01*
X61518614Y-63322514D01*
X61465305Y-63483393D01*
X61455161Y-63582681D01*
X61455161Y-63630999D01*
X61455162Y-63631000D01*
X62215661Y-63631000D01*
X62236477Y-63635751D01*
X62257829Y-63635751D01*
X62277065Y-63645014D01*
X62297882Y-63649766D01*
X62314576Y-63663079D01*
X62333812Y-63672343D01*
X62347124Y-63689036D01*
X62363818Y-63702349D01*
X62373081Y-63721584D01*
X62386395Y-63738279D01*
X62391146Y-63759095D01*
X62400410Y-63778332D01*
X62405161Y-63820500D01*
X62405161Y-63881000D01*
X62465661Y-63881000D01*
X62547882Y-63899766D01*
X62613818Y-63952349D01*
X62650410Y-64028332D01*
X62655161Y-64070500D01*
X62655161Y-64855998D01*
X62655162Y-64855999D01*
X62678473Y-64855999D01*
X62777767Y-64845855D01*
X62938646Y-64792546D01*
X63082890Y-64703574D01*
X63137822Y-64648642D01*
X63209231Y-64603773D01*
X63293036Y-64594329D01*
X63372639Y-64622183D01*
X63387175Y-64632294D01*
X63424294Y-64660776D01*
X63571833Y-64721889D01*
X63690412Y-64737500D01*
X64219909Y-64737499D01*
X64338489Y-64721889D01*
X64486028Y-64660776D01*
X64612722Y-64563561D01*
X64639535Y-64528617D01*
X64710111Y-64436641D01*
X64775052Y-64382834D01*
X64856908Y-64362533D01*
X64860452Y-64362500D01*
X65952599Y-64362500D01*
X66075060Y-64329687D01*
X66184856Y-64266296D01*
X66349900Y-64101252D01*
X66349899Y-64101252D01*
X67567296Y-62883857D01*
X67630687Y-62774062D01*
X67663500Y-62651600D01*
X67663500Y-62651599D01*
X67665121Y-62639288D01*
X67668922Y-62639788D01*
X67682266Y-62581326D01*
X67706510Y-62543335D01*
X67711348Y-62537437D01*
X67711355Y-62537431D01*
X67785937Y-62425811D01*
X67785938Y-62425808D01*
X67785940Y-62425805D01*
X67837307Y-62301793D01*
X67837306Y-62301793D01*
X67837310Y-62301786D01*
X67863500Y-62170122D01*
X67863500Y-62035878D01*
X67837310Y-61904214D01*
X67832733Y-61893164D01*
X67785940Y-61780194D01*
X67785936Y-61780187D01*
X67734805Y-61703665D01*
X67711355Y-61668569D01*
X67711353Y-61668567D01*
X67711351Y-61668564D01*
X67706506Y-61662659D01*
X67696392Y-61642386D01*
X67682266Y-61624673D01*
X67677805Y-61605129D01*
X67668857Y-61587193D01*
X67663500Y-61542452D01*
X67663500Y-61337413D01*
X67682266Y-61255192D01*
X67734849Y-61189256D01*
X67737642Y-61187071D01*
X67796731Y-61141731D01*
X67889939Y-61020259D01*
X67948533Y-60878802D01*
X67963500Y-60765116D01*
X67963500Y-60138884D01*
X67948533Y-60025198D01*
X67889939Y-59883741D01*
X67889937Y-59883737D01*
X67796734Y-59762272D01*
X67796727Y-59762265D01*
X67675262Y-59669062D01*
X67675258Y-59669060D01*
X67533800Y-59610466D01*
X67533801Y-59610466D01*
X67420119Y-59595500D01*
X67420116Y-59595500D01*
X66943884Y-59595500D01*
X66943880Y-59595500D01*
X66830199Y-59610466D01*
X66688741Y-59669060D01*
X66688737Y-59669062D01*
X66567272Y-59762265D01*
X66567268Y-59762269D01*
X66507341Y-59840369D01*
X66442400Y-59894175D01*
X66360544Y-59914476D01*
X66277987Y-59897250D01*
X66211079Y-59845911D01*
X66206658Y-59840367D01*
X66190128Y-59818824D01*
X66154964Y-59742169D01*
X66156543Y-59657848D01*
X66194550Y-59582563D01*
X66206461Y-59569481D01*
X67199941Y-58576003D01*
X67271350Y-58531134D01*
X67333938Y-58520500D01*
X68385603Y-58520500D01*
X68467824Y-58539266D01*
X68533760Y-58591849D01*
X68539441Y-58599951D01*
X68539642Y-58599806D01*
X68544017Y-58605827D01*
X68544018Y-58605829D01*
X68644078Y-58743550D01*
X68764450Y-58863922D01*
X68891105Y-58955942D01*
X68902170Y-58963981D01*
X68902172Y-58963983D01*
X68981071Y-59004183D01*
X69053848Y-59041265D01*
X69215748Y-59093870D01*
X69383884Y-59120500D01*
X69554116Y-59120500D01*
X69722252Y-59093870D01*
X69884152Y-59041265D01*
X70035829Y-58963982D01*
X70173550Y-58863922D01*
X70293922Y-58743550D01*
X70393982Y-58605829D01*
X70471265Y-58454152D01*
X70523870Y-58292252D01*
X70550500Y-58124116D01*
X70550500Y-57953884D01*
X70523870Y-57785748D01*
X70471265Y-57623848D01*
X70434183Y-57551071D01*
X70393983Y-57472172D01*
X70393981Y-57472170D01*
X70393272Y-57471194D01*
X70293922Y-57334450D01*
X70173550Y-57214078D01*
X70143585Y-57192307D01*
X70088099Y-57128798D01*
X70065663Y-57047502D01*
X70080721Y-56964522D01*
X70130292Y-56896293D01*
X70143581Y-56885695D01*
X70173550Y-56863922D01*
X70293922Y-56743550D01*
X70393982Y-56605829D01*
X70471265Y-56454152D01*
X70523870Y-56292252D01*
X70550500Y-56124116D01*
X70550500Y-55953884D01*
X70523870Y-55785748D01*
X70471265Y-55623848D01*
X70425283Y-55533603D01*
X70393983Y-55472172D01*
X70393981Y-55472170D01*
X70383394Y-55457598D01*
X70293922Y-55334450D01*
X70173550Y-55214078D01*
X70035829Y-55114018D01*
X70035827Y-55114016D01*
X69884156Y-55036737D01*
X69884155Y-55036736D01*
X69884152Y-55036735D01*
X69803202Y-55010432D01*
X69722253Y-54984130D01*
X69554116Y-54957500D01*
X69383884Y-54957500D01*
X69215746Y-54984130D01*
X69053848Y-55036735D01*
X69053843Y-55036737D01*
X68902172Y-55114016D01*
X68902170Y-55114018D01*
X68764450Y-55214078D01*
X68764447Y-55214080D01*
X68644080Y-55334447D01*
X68644078Y-55334450D01*
X68544018Y-55472170D01*
X68544016Y-55472172D01*
X68466737Y-55623843D01*
X68466735Y-55623848D01*
X68414130Y-55785746D01*
X68387500Y-55953883D01*
X68387500Y-56124116D01*
X68411709Y-56276970D01*
X68414130Y-56292252D01*
X68463146Y-56443107D01*
X68466735Y-56454151D01*
X68466737Y-56454156D01*
X68544016Y-56605827D01*
X68544018Y-56605829D01*
X68644078Y-56743550D01*
X68644080Y-56743552D01*
X68764447Y-56863919D01*
X68764455Y-56863926D01*
X68794414Y-56885693D01*
X68849901Y-56949204D01*
X68872336Y-57030500D01*
X68857277Y-57113480D01*
X68807705Y-57181708D01*
X68794414Y-57192307D01*
X68764455Y-57214073D01*
X68764447Y-57214080D01*
X68644080Y-57334447D01*
X68644078Y-57334450D01*
X68539642Y-57478194D01*
X68537658Y-57476753D01*
X68488202Y-57527323D01*
X68408914Y-57556061D01*
X68385603Y-57557500D01*
X66992609Y-57557500D01*
X66870147Y-57590313D01*
X66870142Y-57590315D01*
X66824690Y-57616558D01*
X66824689Y-57616559D01*
X66760356Y-57653701D01*
X66760352Y-57653704D01*
X66386541Y-58027513D01*
X65278000Y-57658000D01*
X65258032Y-57697934D01*
X65268433Y-57668212D01*
X65278538Y-57653683D01*
X65307025Y-57616559D01*
X65368138Y-57469020D01*
X65383749Y-57350441D01*
X65383748Y-56820944D01*
X65368138Y-56702364D01*
X65307025Y-56554825D01*
X65209810Y-56428131D01*
X65165476Y-56394112D01*
X65083115Y-56330915D01*
X64935575Y-56269802D01*
X64817000Y-56254192D01*
X64237502Y-56254192D01*
X64237493Y-56254193D01*
X64118921Y-56269802D01*
X63971385Y-56330914D01*
X63971382Y-56330915D01*
X63844685Y-56428132D01*
X63842034Y-56430784D01*
X63837598Y-56433570D01*
X63834834Y-56435692D01*
X63834634Y-56435432D01*
X63770623Y-56475650D01*
X63686817Y-56485089D01*
X63607216Y-56457231D01*
X63557701Y-56412139D01*
X63554733Y-56408271D01*
X63554727Y-56408265D01*
X63433262Y-56315062D01*
X63433258Y-56315060D01*
X63291800Y-56256466D01*
X63291801Y-56256466D01*
X63178119Y-56241500D01*
X63178116Y-56241500D01*
X62551884Y-56241500D01*
X62551880Y-56241500D01*
X62438199Y-56256466D01*
X62296741Y-56315060D01*
X62296738Y-56315062D01*
X62239542Y-56358949D01*
X62162887Y-56394112D01*
X62078566Y-56392533D01*
X62003281Y-56354525D01*
X61990188Y-56342603D01*
X61920592Y-56273007D01*
X61776347Y-56184034D01*
X61689962Y-56155409D01*
X61681240Y-55217781D01*
X60604400Y-55219600D01*
X60299600Y-55727600D01*
X59843373Y-56183827D01*
X59844709Y-56580339D01*
X59833799Y-56567485D01*
X59812526Y-56485877D01*
X59816078Y-56443111D01*
X59821483Y-56415942D01*
X59821483Y-56121201D01*
X59840249Y-56038980D01*
X59847631Y-56025147D01*
X59847959Y-56024587D01*
X59847967Y-56024577D01*
X59878546Y-55961755D01*
X59910130Y-55867861D01*
X59914833Y-55747028D01*
X59906595Y-55677646D01*
X59878208Y-55571358D01*
X59775884Y-55331877D01*
X59760647Y-55257996D01*
X59760285Y-55136957D01*
X59778805Y-55054681D01*
X59831190Y-54988588D01*
X59907064Y-54951769D01*
X59974519Y-54948512D01*
X59980229Y-54949263D01*
X60016168Y-54953995D01*
X60336501Y-54953994D01*
X60418721Y-54972760D01*
X60444428Y-54991000D01*
X60452000Y-54991000D01*
X66420999Y-54991000D01*
X66421000Y-54991000D01*
X66421000Y-54610000D01*
X66421000Y-54609999D01*
X61762303Y-54709121D01*
X61679701Y-54692108D01*
X61612662Y-54640940D01*
X61574462Y-54565752D01*
X61572668Y-54481436D01*
X61607635Y-54404691D01*
X61624261Y-54385682D01*
X62107296Y-53902648D01*
X62170687Y-53792852D01*
X62203500Y-53670391D01*
X62203500Y-53543609D01*
X62203500Y-53392547D01*
X62222266Y-53310326D01*
X62246510Y-53272335D01*
X62251348Y-53266437D01*
X62251355Y-53266431D01*
X62325937Y-53154811D01*
X62325938Y-53154808D01*
X62325940Y-53154805D01*
X62368916Y-53051050D01*
X62377310Y-53030786D01*
X62403500Y-52899122D01*
X62403500Y-52764878D01*
X62377310Y-52633214D01*
X62346919Y-52559843D01*
X62325940Y-52509194D01*
X62325936Y-52509187D01*
X62288392Y-52452998D01*
X62251355Y-52397569D01*
X62156431Y-52302645D01*
X62108248Y-52270450D01*
X62044812Y-52228063D01*
X62044805Y-52228059D01*
X61920793Y-52176692D01*
X61920788Y-52176691D01*
X61920786Y-52176690D01*
X61789122Y-52150500D01*
X61654878Y-52150500D01*
X61523214Y-52176690D01*
X61523212Y-52176690D01*
X61523206Y-52176692D01*
X61399194Y-52228059D01*
X61399187Y-52228063D01*
X61287568Y-52302645D01*
X61192645Y-52397568D01*
X61118063Y-52509187D01*
X61118059Y-52509194D01*
X61066692Y-52633206D01*
X61066690Y-52633212D01*
X61066690Y-52633214D01*
X61040500Y-52764878D01*
X61040500Y-52899122D01*
X61066690Y-53030786D01*
X61066691Y-53030791D01*
X61089385Y-53085579D01*
X61103511Y-53168723D01*
X61080163Y-53249763D01*
X61023965Y-53312646D01*
X60946049Y-53344919D01*
X60861847Y-53340189D01*
X60819558Y-53322207D01*
X60811785Y-53317719D01*
X60664243Y-53256605D01*
X60545668Y-53240995D01*
X60016170Y-53240995D01*
X60016156Y-53240996D01*
X59968295Y-53247297D01*
X59884328Y-53239422D01*
X59812093Y-53195894D01*
X59765898Y-53125336D01*
X59754065Y-53059985D01*
X59754017Y-53044116D01*
X59750944Y-52017566D01*
X59769464Y-51935291D01*
X59821849Y-51869197D01*
X59897722Y-51832378D01*
X59940443Y-51827500D01*
X61198769Y-51827500D01*
X61198770Y-51827500D01*
X61234574Y-51824682D01*
X61387792Y-51780168D01*
X61525127Y-51698949D01*
X61637949Y-51586127D01*
X61719168Y-51448792D01*
X61763682Y-51295574D01*
X61766500Y-51259770D01*
X61766500Y-50796001D01*
X62385001Y-50796001D01*
X62385001Y-51245975D01*
X62395494Y-51348696D01*
X62395495Y-51348702D01*
X62450640Y-51515119D01*
X62450643Y-51515124D01*
X62542679Y-51664339D01*
X62666660Y-51788320D01*
X62815875Y-51880356D01*
X62815880Y-51880359D01*
X62982296Y-51935504D01*
X62982301Y-51935505D01*
X63085024Y-51945999D01*
X63885000Y-51945999D01*
X63885000Y-50796001D01*
X64385000Y-50796001D01*
X64385000Y-51945998D01*
X64385001Y-51945999D01*
X65184976Y-51945999D01*
X65287696Y-51935505D01*
X65287702Y-51935504D01*
X65454119Y-51880359D01*
X65454124Y-51880356D01*
X65603339Y-51788320D01*
X65727320Y-51664339D01*
X65819356Y-51515124D01*
X65819359Y-51515119D01*
X65874504Y-51348703D01*
X65874505Y-51348698D01*
X65884999Y-51245982D01*
X65885000Y-51245969D01*
X65885000Y-50796001D01*
X65884999Y-50796000D01*
X64385001Y-50796000D01*
X64385000Y-50796001D01*
X63885000Y-50796001D01*
X63884999Y-50796000D01*
X62385002Y-50796000D01*
X62385001Y-50796001D01*
X61766500Y-50796001D01*
X61766500Y-49846017D01*
X62385000Y-49846017D01*
X62385000Y-50295999D01*
X62385001Y-50296000D01*
X63884999Y-50296000D01*
X63885000Y-50295999D01*
X63885000Y-49146001D01*
X64385000Y-49146001D01*
X64385000Y-50295999D01*
X64385001Y-50296000D01*
X65884998Y-50296000D01*
X65884999Y-50295999D01*
X65884999Y-49846024D01*
X65874505Y-49743303D01*
X65874504Y-49743297D01*
X65819359Y-49576880D01*
X65819356Y-49576875D01*
X65727320Y-49427660D01*
X65603339Y-49303679D01*
X65454124Y-49211643D01*
X65454119Y-49211640D01*
X65287703Y-49156495D01*
X65287698Y-49156494D01*
X65184982Y-49146000D01*
X64385001Y-49146000D01*
X64385000Y-49146001D01*
X63885000Y-49146001D01*
X63885000Y-49146000D01*
X63085024Y-49146000D01*
X62982303Y-49156494D01*
X62982297Y-49156495D01*
X62815880Y-49211640D01*
X62815875Y-49211643D01*
X62666660Y-49303679D01*
X62542679Y-49427660D01*
X62450643Y-49576875D01*
X62450640Y-49576880D01*
X62395495Y-49743296D01*
X62395494Y-49743301D01*
X62385000Y-49846017D01*
X61766500Y-49846017D01*
X61766500Y-49832230D01*
X61763682Y-49796426D01*
X61719168Y-49643208D01*
X61637949Y-49505873D01*
X61525127Y-49393051D01*
X61387792Y-49311832D01*
X61234574Y-49267318D01*
X61198770Y-49264500D01*
X61198769Y-49264500D01*
X59109122Y-49264500D01*
X59059750Y-49257955D01*
X58610199Y-49136639D01*
X58535707Y-49097099D01*
X58485748Y-49029154D01*
X58470071Y-48953684D01*
X58470071Y-47327852D01*
X59096001Y-47327852D01*
X59096001Y-47351162D01*
X59106144Y-47450457D01*
X59159453Y-47611336D01*
X59248426Y-47755581D01*
X59368269Y-47875424D01*
X59512514Y-47964397D01*
X59673393Y-48017706D01*
X59772687Y-48027850D01*
X59820999Y-48027849D01*
X59821000Y-48027849D01*
X59821000Y-47327852D01*
X60321000Y-47327852D01*
X60321000Y-48027849D01*
X60321001Y-48027850D01*
X60369312Y-48027850D01*
X60468606Y-48017706D01*
X60629485Y-47964397D01*
X60722857Y-47906804D01*
X60802688Y-47879612D01*
X60886412Y-47889750D01*
X60921825Y-47906804D01*
X61036514Y-47977546D01*
X61197393Y-48030855D01*
X61296687Y-48040999D01*
X61344999Y-48040998D01*
X61345000Y-48040998D01*
X61345000Y-47341001D01*
X61845000Y-47341001D01*
X61845000Y-48040998D01*
X61845001Y-48040999D01*
X61893312Y-48040999D01*
X61992606Y-48030855D01*
X62153485Y-47977546D01*
X62297730Y-47888573D01*
X62417573Y-47768730D01*
X62506546Y-47624485D01*
X62559855Y-47463606D01*
X62569999Y-47364318D01*
X62570000Y-47364305D01*
X62570000Y-47341001D01*
X62569999Y-47341000D01*
X61845001Y-47341000D01*
X61845000Y-47341001D01*
X61345000Y-47341001D01*
X61344999Y-47341000D01*
X60516142Y-47341000D01*
X60458531Y-47327851D01*
X60321001Y-47327851D01*
X60321000Y-47327852D01*
X59821000Y-47327852D01*
X59820999Y-47327851D01*
X59096002Y-47327851D01*
X59096001Y-47327852D01*
X58470071Y-47327852D01*
X58470071Y-47111630D01*
X58467931Y-47084442D01*
X58467253Y-47075825D01*
X58422739Y-46922606D01*
X58410826Y-46902461D01*
X58401899Y-46874560D01*
X58389189Y-46848168D01*
X58389189Y-46834835D01*
X58385126Y-46822137D01*
X58389189Y-46793125D01*
X58389189Y-46763832D01*
X58394973Y-46751819D01*
X58396823Y-46738617D01*
X58413070Y-46714242D01*
X58425781Y-46687849D01*
X58436204Y-46679536D01*
X58443599Y-46668443D01*
X58468812Y-46653532D01*
X58491717Y-46635266D01*
X58504716Y-46632299D01*
X58516191Y-46625513D01*
X58573938Y-46616500D01*
X58906500Y-46616500D01*
X58988721Y-46635266D01*
X59054657Y-46687849D01*
X59091249Y-46763832D01*
X59096000Y-46806000D01*
X59096000Y-46827850D01*
X59096001Y-46827851D01*
X61149858Y-46827851D01*
X61207469Y-46841000D01*
X62569998Y-46841000D01*
X62569999Y-46840999D01*
X62569999Y-46817688D01*
X62559855Y-46718393D01*
X62506546Y-46557515D01*
X62485795Y-46523872D01*
X62409298Y-46422880D01*
X66973500Y-46422880D01*
X66973500Y-47049119D01*
X66988466Y-47162800D01*
X67047060Y-47304258D01*
X67047062Y-47304262D01*
X67140265Y-47425727D01*
X67140272Y-47425734D01*
X67261737Y-47518937D01*
X67261741Y-47518939D01*
X67403198Y-47577533D01*
X67516884Y-47592500D01*
X67516885Y-47592500D01*
X67993115Y-47592500D01*
X67993116Y-47592500D01*
X68106802Y-47577533D01*
X68248259Y-47518939D01*
X68369731Y-47425731D01*
X68383135Y-47408261D01*
X68429659Y-47347631D01*
X68494599Y-47293824D01*
X68576455Y-47273523D01*
X68659013Y-47290748D01*
X68725921Y-47342088D01*
X68730341Y-47347631D01*
X68790265Y-47425727D01*
X68790272Y-47425734D01*
X68911737Y-47518937D01*
X68911741Y-47518939D01*
X69053198Y-47577533D01*
X69166884Y-47592500D01*
X69166885Y-47592500D01*
X69643115Y-47592500D01*
X69643116Y-47592500D01*
X69756802Y-47577533D01*
X69898259Y-47518939D01*
X69980457Y-47455866D01*
X70057111Y-47420703D01*
X70141431Y-47422280D01*
X70214639Y-47459236D01*
X70214677Y-47459188D01*
X70214928Y-47459383D01*
X70216717Y-47460286D01*
X70220308Y-47463556D01*
X70224091Y-47466490D01*
X70224095Y-47466494D01*
X70358711Y-47546105D01*
X70466885Y-47577533D01*
X70508893Y-47589738D01*
X70508897Y-47589739D01*
X70543981Y-47592500D01*
X71244018Y-47592499D01*
X71279103Y-47589739D01*
X71429289Y-47546105D01*
X71563905Y-47466494D01*
X71563914Y-47466484D01*
X71568515Y-47462917D01*
X71644982Y-47427347D01*
X71729310Y-47428478D01*
X71804796Y-47466086D01*
X71818666Y-47478648D01*
X71895963Y-47555945D01*
X72042695Y-47646452D01*
X72206348Y-47700680D01*
X72307356Y-47710999D01*
X72394000Y-47710998D01*
X72394000Y-45760999D01*
X72307356Y-45761000D01*
X72206348Y-45771319D01*
X72206347Y-45771319D01*
X72042695Y-45825547D01*
X71895963Y-45916054D01*
X71818665Y-45993352D01*
X71747256Y-46038220D01*
X71663451Y-46047662D01*
X71583848Y-46019808D01*
X71568522Y-46009087D01*
X71563907Y-46005507D01*
X71429289Y-45925895D01*
X71279106Y-45882261D01*
X71258052Y-45880604D01*
X71244019Y-45879500D01*
X71244017Y-45879500D01*
X70543984Y-45879500D01*
X70543969Y-45879501D01*
X70508899Y-45882260D01*
X70358710Y-45925895D01*
X70224096Y-46005505D01*
X70214677Y-46012812D01*
X70212846Y-46010452D01*
X70158371Y-46044668D01*
X70074564Y-46054096D01*
X69994966Y-46026227D01*
X69980457Y-46016132D01*
X69898262Y-45953062D01*
X69898258Y-45953060D01*
X69756800Y-45894466D01*
X69756801Y-45894466D01*
X69643119Y-45879500D01*
X69643116Y-45879500D01*
X69166884Y-45879500D01*
X69166880Y-45879500D01*
X69053199Y-45894466D01*
X68911741Y-45953060D01*
X68911737Y-45953063D01*
X68804359Y-46035456D01*
X68727704Y-46070620D01*
X68643384Y-46069043D01*
X68568098Y-46031036D01*
X68516758Y-45964128D01*
X68499500Y-45885115D01*
X68499500Y-45754480D01*
X68498322Y-45748557D01*
X68473310Y-45622814D01*
X68473307Y-45622806D01*
X68421940Y-45498794D01*
X68421936Y-45498787D01*
X68347354Y-45387168D01*
X68252431Y-45292245D01*
X68140812Y-45217663D01*
X68140805Y-45217659D01*
X68016793Y-45166292D01*
X68016788Y-45166291D01*
X68016786Y-45166290D01*
X67885122Y-45140100D01*
X67750878Y-45140100D01*
X67619214Y-45166290D01*
X67619212Y-45166290D01*
X67619206Y-45166292D01*
X67495194Y-45217659D01*
X67495187Y-45217663D01*
X67383568Y-45292245D01*
X67288645Y-45387168D01*
X67214063Y-45498787D01*
X67214059Y-45498794D01*
X67162692Y-45622806D01*
X67162690Y-45622812D01*
X67162690Y-45622814D01*
X67136500Y-45754478D01*
X67136500Y-45888722D01*
X67145412Y-45933524D01*
X67143047Y-46017826D01*
X67109895Y-46085853D01*
X67047060Y-46167742D01*
X66988466Y-46309199D01*
X66973500Y-46422880D01*
X62409298Y-46422880D01*
X62345580Y-46338759D01*
X62333456Y-46311890D01*
X62317772Y-46286928D01*
X62316300Y-46273867D01*
X62310895Y-46261887D01*
X62311630Y-46232414D01*
X62308330Y-46203123D01*
X62312670Y-46190719D01*
X62312998Y-46177578D01*
X62326448Y-46151342D01*
X62336184Y-46123520D01*
X62346289Y-46108991D01*
X62374776Y-46071867D01*
X62435889Y-45924328D01*
X62451500Y-45805749D01*
X62451499Y-45276252D01*
X62449568Y-45261592D01*
X62449106Y-45215940D01*
X62528603Y-44500479D01*
X62556335Y-44420834D01*
X62581900Y-44388465D01*
X62935890Y-44028891D01*
X63006942Y-43983467D01*
X63047046Y-43973850D01*
X69518797Y-43152041D01*
X69572313Y-43152864D01*
X69575458Y-43153362D01*
X69575461Y-43153363D01*
X69711721Y-43174944D01*
X69766916Y-43183687D01*
X69766917Y-43183687D01*
X69960760Y-43183687D01*
X70005143Y-43176657D01*
X70152215Y-43153363D01*
X70336570Y-43093463D01*
X70509285Y-43005460D01*
X70666106Y-42891523D01*
X70803174Y-42754455D01*
X70917111Y-42597634D01*
X71005114Y-42424919D01*
X71065014Y-42240564D01*
X71095338Y-42049108D01*
X71095338Y-41855266D01*
X71088811Y-41814059D01*
X71070178Y-41696413D01*
X71065014Y-41663810D01*
X71040112Y-41587169D01*
X71005116Y-41479460D01*
X71005114Y-41479454D01*
X70956891Y-41384813D01*
X70917111Y-41306740D01*
X70803174Y-41149919D01*
X70666106Y-41012851D01*
X70583786Y-40953042D01*
X70528300Y-40889533D01*
X70505864Y-40808237D01*
X70520922Y-40725257D01*
X70570493Y-40657028D01*
X70644759Y-40617064D01*
X70695173Y-40610235D01*
X73748239Y-40610235D01*
X73777881Y-40612568D01*
G37*
%TD.AperFunction*%
%TA.AperFunction,Conductor*%
G36*
X56476160Y-66953266D02*
G01*
X56542096Y-67005849D01*
X56545361Y-67012629D01*
X55421261Y-67011262D01*
X55443036Y-66981293D01*
X55517301Y-66941329D01*
X55567715Y-66934500D01*
X56393939Y-66934500D01*
X56476160Y-66953266D01*
G37*
%TD.AperFunction*%
%TA.AperFunction,Conductor*%
G36*
X53936160Y-66953266D02*
G01*
X54002096Y-67005849D01*
X54003872Y-67009538D01*
X52883503Y-67008176D01*
X52903036Y-66981293D01*
X52977301Y-66941329D01*
X53027715Y-66934500D01*
X53853939Y-66934500D01*
X53936160Y-66953266D01*
G37*
%TD.AperFunction*%
%TA.AperFunction,Conductor*%
G36*
X51396160Y-66953266D02*
G01*
X51462096Y-67005849D01*
X51462384Y-67006448D01*
X50345745Y-67005090D01*
X50363036Y-66981293D01*
X50437301Y-66941329D01*
X50487715Y-66934500D01*
X51313939Y-66934500D01*
X51396160Y-66953266D01*
G37*
%TD.AperFunction*%
%TA.AperFunction,Conductor*%
G36*
X66436013Y-61006748D02*
G01*
X66502921Y-61058088D01*
X66507341Y-61063631D01*
X66567265Y-61141727D01*
X66567271Y-61141733D01*
X66626358Y-61187071D01*
X66627515Y-61188468D01*
X66629151Y-61189256D01*
X66654374Y-61220885D01*
X66680165Y-61252012D01*
X66680601Y-61253771D01*
X66681734Y-61255192D01*
X66690735Y-61294629D01*
X66700467Y-61333867D01*
X66700500Y-61337413D01*
X66700500Y-61542452D01*
X66681734Y-61624673D01*
X66657494Y-61662659D01*
X66652648Y-61668564D01*
X66578063Y-61780187D01*
X66578059Y-61780194D01*
X66526692Y-61904206D01*
X66526690Y-61904212D01*
X66526690Y-61904214D01*
X66500500Y-62035878D01*
X66500500Y-62170122D01*
X66516290Y-62249500D01*
X66526691Y-62301791D01*
X66554617Y-62369208D01*
X66568744Y-62452352D01*
X66545397Y-62533391D01*
X66513539Y-62575724D01*
X65745267Y-63343997D01*
X65673858Y-63388866D01*
X65611270Y-63399500D01*
X64860452Y-63399500D01*
X64858683Y-63399096D01*
X64856908Y-63399467D01*
X64817669Y-63389735D01*
X64778231Y-63380734D01*
X64776811Y-63379602D01*
X64775053Y-63379166D01*
X64743917Y-63353369D01*
X64712295Y-63328151D01*
X64710111Y-63325360D01*
X64649289Y-63246095D01*
X64648618Y-63245220D01*
X64613455Y-63168568D01*
X64615032Y-63084247D01*
X64653038Y-63008961D01*
X64664964Y-62995865D01*
X64760602Y-62900227D01*
X64760609Y-62900218D01*
X64781899Y-62865000D01*
X65659000Y-62865000D01*
X65786000Y-62738000D01*
X65786000Y-61468000D01*
X64757696Y-61468000D01*
X64736810Y-61404836D01*
X64747698Y-61321206D01*
X64793793Y-61250582D01*
X64865966Y-61206952D01*
X64949922Y-61198958D01*
X65029032Y-61228182D01*
X65037812Y-61234402D01*
X65038738Y-61234937D01*
X65038741Y-61234939D01*
X65180198Y-61293533D01*
X65293884Y-61308500D01*
X65293885Y-61308500D01*
X65770115Y-61308500D01*
X65770116Y-61308500D01*
X65883802Y-61293533D01*
X66025259Y-61234939D01*
X66146731Y-61141731D01*
X66206659Y-61063631D01*
X66271599Y-61009824D01*
X66353455Y-60989523D01*
X66436013Y-61006748D01*
G37*
%TD.AperFunction*%
%TA.AperFunction,Conductor*%
G36*
X45222081Y-45592010D02*
G01*
X53688513Y-44728061D01*
X52821340Y-45482128D01*
X52821338Y-45482130D01*
X52821335Y-45482132D01*
X52767717Y-45539287D01*
X52767712Y-45539293D01*
X52721350Y-45600037D01*
X52721322Y-45600075D01*
X52696776Y-45636323D01*
X52651756Y-45748557D01*
X52632990Y-45830777D01*
X52632989Y-45830784D01*
X52623300Y-45916774D01*
X52623300Y-46512341D01*
X52614025Y-46570900D01*
X52584932Y-46660435D01*
X52584932Y-46660436D01*
X52557071Y-46836347D01*
X52557071Y-48054399D01*
X52538305Y-48136620D01*
X52485722Y-48202556D01*
X52409739Y-48239148D01*
X52367571Y-48243899D01*
X51589167Y-48243899D01*
X51506946Y-48225133D01*
X51441010Y-48172550D01*
X51404418Y-48096567D01*
X51400251Y-48039533D01*
X51403528Y-47997883D01*
X50749200Y-47343553D01*
X50094870Y-47997883D01*
X50098148Y-48039531D01*
X50093981Y-48067895D01*
X50093981Y-48096567D01*
X50087920Y-48109152D01*
X50085890Y-48122971D01*
X50069829Y-48146718D01*
X50057389Y-48172550D01*
X50046467Y-48181259D01*
X50038643Y-48192829D01*
X50013870Y-48207255D01*
X49991453Y-48225133D01*
X49977834Y-48228241D01*
X49965765Y-48235270D01*
X49909232Y-48243899D01*
X49589167Y-48243899D01*
X49506946Y-48225133D01*
X49441010Y-48172550D01*
X49404418Y-48096567D01*
X49400251Y-48039533D01*
X49403528Y-47997883D01*
X49149000Y-47743354D01*
X49149000Y-47036246D01*
X49749200Y-47636445D01*
X50395646Y-46990000D01*
X50349568Y-46943922D01*
X50399200Y-46943922D01*
X50399200Y-47036078D01*
X50423052Y-47125095D01*
X50469130Y-47204905D01*
X50534295Y-47270070D01*
X50614105Y-47316148D01*
X50703122Y-47340000D01*
X50795278Y-47340000D01*
X50884295Y-47316148D01*
X50964105Y-47270070D01*
X51029270Y-47204905D01*
X51075348Y-47125095D01*
X51099200Y-47036078D01*
X51099200Y-46990000D01*
X51102753Y-46990000D01*
X51757083Y-47644328D01*
X51775528Y-47618942D01*
X51861284Y-47450638D01*
X51861284Y-47450636D01*
X51919651Y-47271002D01*
X51949200Y-47084442D01*
X51949200Y-46895557D01*
X51919651Y-46708997D01*
X51861284Y-46529363D01*
X51861279Y-46529351D01*
X51775530Y-46361061D01*
X51757083Y-46335670D01*
X51102753Y-46990000D01*
X51099200Y-46990000D01*
X51099200Y-46943922D01*
X51075348Y-46854905D01*
X51029270Y-46775095D01*
X50964105Y-46709930D01*
X50884295Y-46663852D01*
X50795278Y-46640000D01*
X50703122Y-46640000D01*
X50614105Y-46663852D01*
X50534295Y-46709930D01*
X50469130Y-46775095D01*
X50423052Y-46854905D01*
X50399200Y-46943922D01*
X50349568Y-46943922D01*
X49749200Y-46343553D01*
X49149000Y-46943753D01*
X49149000Y-46236643D01*
X49403528Y-45982115D01*
X50094870Y-45982115D01*
X50749200Y-46636445D01*
X51403528Y-45982115D01*
X51378136Y-45963667D01*
X51209843Y-45877918D01*
X51209836Y-45877915D01*
X51030202Y-45819548D01*
X50843642Y-45790000D01*
X50654758Y-45790000D01*
X50468197Y-45819548D01*
X50288563Y-45877915D01*
X50288561Y-45877915D01*
X50120263Y-45963668D01*
X50094870Y-45982115D01*
X49403528Y-45982115D01*
X49378136Y-45963667D01*
X49209843Y-45877918D01*
X49209836Y-45877915D01*
X49030202Y-45819548D01*
X48843642Y-45790000D01*
X48654758Y-45790000D01*
X48468197Y-45819548D01*
X48288563Y-45877915D01*
X48288561Y-45877915D01*
X48120263Y-45963668D01*
X48094870Y-45982115D01*
X48340420Y-46227665D01*
X44970337Y-46221682D01*
X44970337Y-42445212D01*
X45222081Y-45592010D01*
G37*
%TD.AperFunction*%
%TA.AperFunction,Conductor*%
G36*
X58672489Y-44248207D02*
G01*
X58605826Y-44299864D01*
X58525995Y-44317500D01*
X58258345Y-44317500D01*
X58176124Y-44298734D01*
X58144323Y-44273373D01*
X58687590Y-44217936D01*
X58672489Y-44248207D01*
G37*
%TD.AperFunction*%
%TA.AperFunction,Conductor*%
G36*
X58680251Y-43527584D02*
G01*
X58702854Y-43533822D01*
X58717351Y-43546487D01*
X58734504Y-43555227D01*
X58766366Y-43589309D01*
X58778926Y-43606596D01*
X58812072Y-43684145D01*
X58809760Y-43762725D01*
X58725795Y-44108296D01*
X58677276Y-43526068D01*
X58680251Y-43527584D01*
G37*
%TD.AperFunction*%
%TA.AperFunction,Conductor*%
G36*
X67045477Y-40629001D02*
G01*
X67111413Y-40681584D01*
X67148005Y-40757567D01*
X67148005Y-40841903D01*
X67111413Y-40917886D01*
X67045477Y-40970469D01*
X67021814Y-40979960D01*
X66860776Y-41032283D01*
X66860775Y-41032283D01*
X66688061Y-41120286D01*
X66688055Y-41120289D01*
X66681983Y-41124701D01*
X66604432Y-41157842D01*
X66593762Y-41159465D01*
X65440999Y-41301384D01*
X65357101Y-41292805D01*
X65331814Y-41282151D01*
X65275893Y-41253658D01*
X65091549Y-41193762D01*
X64900091Y-41163438D01*
X64900090Y-41163438D01*
X64706248Y-41163438D01*
X64706247Y-41163438D01*
X64514788Y-41193762D01*
X64330442Y-41253659D01*
X64330436Y-41253661D01*
X64157720Y-41341666D01*
X64002279Y-41454600D01*
X63924730Y-41487746D01*
X63914049Y-41489371D01*
X63049981Y-41595748D01*
X62966083Y-41587169D01*
X62925178Y-41566014D01*
X62924620Y-41566925D01*
X62918279Y-41563038D01*
X62745561Y-41475034D01*
X62561214Y-41415137D01*
X62369756Y-41384813D01*
X62369755Y-41384813D01*
X62175913Y-41384813D01*
X62175912Y-41384813D01*
X61984453Y-41415137D01*
X61800107Y-41475034D01*
X61800101Y-41475036D01*
X61627385Y-41563041D01*
X61470564Y-41676977D01*
X61387565Y-41759976D01*
X61316156Y-41804845D01*
X61276724Y-41814059D01*
X60625739Y-41894204D01*
X60541841Y-41885625D01*
X60491199Y-41859433D01*
X60420366Y-41807970D01*
X60387947Y-41784416D01*
X60305304Y-41742307D01*
X60215232Y-41696412D01*
X60215226Y-41696410D01*
X60030880Y-41636513D01*
X59839422Y-41606189D01*
X59839421Y-41606189D01*
X59645579Y-41606189D01*
X59645578Y-41606189D01*
X59454119Y-41636513D01*
X59269773Y-41696410D01*
X59269767Y-41696412D01*
X59097051Y-41784417D01*
X58940234Y-41898351D01*
X58803162Y-42035423D01*
X58689229Y-42192238D01*
X58649002Y-42271187D01*
X58594952Y-42335926D01*
X58578713Y-42343301D01*
X58482353Y-41186972D01*
X44970337Y-42289992D01*
X44970337Y-40831693D01*
X44972670Y-40802049D01*
X44973699Y-40795548D01*
X44975750Y-40782605D01*
X44994067Y-40726230D01*
X44996163Y-40722117D01*
X45014266Y-40697204D01*
X45017499Y-40690090D01*
X45022423Y-40685979D01*
X45031024Y-40674143D01*
X45034282Y-40670885D01*
X45082241Y-40636050D01*
X45086346Y-40633959D01*
X45142721Y-40615647D01*
X45162186Y-40612565D01*
X45191812Y-40610235D01*
X66963256Y-40610235D01*
X67045477Y-40629001D01*
G37*
%TD.AperFunction*%
%TD*%
%TA.AperFunction,Conductor*%
%TO.N,GND*%
G36*
X48963591Y-67003408D02*
G01*
X49076080Y-67036090D01*
X49111884Y-67038908D01*
X49111890Y-67038908D01*
X49889418Y-67038908D01*
X49889424Y-67038908D01*
X49925228Y-67036090D01*
X50033238Y-67004710D01*
X57773794Y-67014123D01*
X58422778Y-67546622D01*
X58434993Y-69488052D01*
X58416157Y-69552203D01*
X58363353Y-69597958D01*
X58311842Y-69609164D01*
X45340509Y-69609164D01*
X45366837Y-66999036D01*
X48963591Y-67003408D01*
G37*
%TD.AperFunction*%
%TD*%
%TA.AperFunction,Conductor*%
%TO.N,GND*%
G36*
X58584744Y-42415673D02*
G01*
X58541324Y-42549310D01*
X58511000Y-42740768D01*
X58511000Y-42934609D01*
X58541324Y-43126067D01*
X58601222Y-43310418D01*
X58601223Y-43310421D01*
X58670663Y-43446702D01*
X58725795Y-44108297D01*
X58699450Y-44216725D01*
X57711895Y-44317500D01*
X54376069Y-44317500D01*
X54324646Y-44320937D01*
X54324640Y-44320937D01*
X54324634Y-44320938D01*
X54324627Y-44320939D01*
X54274668Y-44327646D01*
X54257959Y-44330262D01*
X54196634Y-44351560D01*
X54143726Y-44369935D01*
X54143724Y-44369935D01*
X54143721Y-44369937D01*
X54069366Y-44409726D01*
X53998103Y-44458851D01*
X53998102Y-44458851D01*
X53688511Y-44728062D01*
X45222081Y-45592010D01*
X44970337Y-42445212D01*
X44970337Y-42289992D01*
X58482353Y-41186972D01*
X58584744Y-42415673D01*
G37*
%TD.AperFunction*%
%TD*%
%TA.AperFunction,Conductor*%
%TO.N,GND*%
G36*
X49149000Y-46229101D02*
G01*
X49149000Y-48424790D01*
X48877215Y-48696574D01*
X44970337Y-48753976D01*
X44970337Y-46221682D01*
X49149000Y-46229101D01*
G37*
%TD.AperFunction*%
%TD*%
%TA.AperFunction,Conductor*%
%TO.N,GND*%
G36*
X46482000Y-62992000D02*
G01*
X45085000Y-62992000D01*
X45085000Y-60833000D01*
X46482000Y-60833000D01*
X46482000Y-62992000D01*
G37*
%TD.AperFunction*%
%TD*%
%TA.AperFunction,Conductor*%
%TO.N,+12V*%
G36*
X49901403Y-55391685D02*
G01*
X49945273Y-55440546D01*
X50545999Y-56641999D01*
X50546000Y-56642000D01*
X52841971Y-57058433D01*
X52904421Y-57089765D01*
X52940018Y-57149887D01*
X52943826Y-57182379D01*
X52938031Y-57553276D01*
X52917301Y-57620000D01*
X52869950Y-57662022D01*
X51184780Y-58513173D01*
X51184779Y-58513174D01*
X51180556Y-64935854D01*
X51476882Y-64938671D01*
X60386396Y-65023376D01*
X60453245Y-65043697D01*
X60488391Y-65078587D01*
X61976000Y-67310000D01*
X65761470Y-67310000D01*
X65808682Y-67319339D01*
X69541003Y-68856177D01*
X69595496Y-68899903D01*
X69617699Y-68966151D01*
X69600562Y-69033886D01*
X69549524Y-69081604D01*
X69495179Y-69094828D01*
X60317669Y-69197769D01*
X60250413Y-69178838D01*
X60216260Y-69147074D01*
X58311568Y-66548000D01*
X49400000Y-66548000D01*
X49332961Y-66528315D01*
X49287206Y-66475511D01*
X49276000Y-66424000D01*
X49276000Y-65023999D01*
X48569217Y-64552811D01*
X48524356Y-64499246D01*
X48514000Y-64449637D01*
X48514000Y-56673361D01*
X48528909Y-56614410D01*
X49165138Y-55437048D01*
X49214327Y-55387428D01*
X49274229Y-55372000D01*
X49834364Y-55372000D01*
X49901403Y-55391685D01*
G37*
%TD.AperFunction*%
%TD*%
%TA.AperFunction,Conductor*%
%TO.N,GND*%
G36*
X46482000Y-59690000D02*
G01*
X45085000Y-59690000D01*
X45085000Y-57531000D01*
X46482000Y-57531000D01*
X46482000Y-59690000D01*
G37*
%TD.AperFunction*%
%TD*%
%TA.AperFunction,Conductor*%
%TO.N,GND*%
G36*
X65786000Y-62738000D02*
G01*
X65659000Y-62865000D01*
X63615502Y-62865000D01*
X63615502Y-61468000D01*
X65786000Y-61468000D01*
X65786000Y-62738000D01*
G37*
%TD.AperFunction*%
%TD*%
%TA.AperFunction,Conductor*%
%TO.N,PH*%
G36*
X57968077Y-46960696D02*
G01*
X58014091Y-47013274D01*
X58025550Y-47064651D01*
X58038433Y-49382670D01*
X58038434Y-49382671D01*
X59055000Y-49657000D01*
X61229784Y-49882392D01*
X61294436Y-49908882D01*
X61334504Y-49966122D01*
X61341000Y-50005731D01*
X61341000Y-51252372D01*
X61321315Y-51319411D01*
X61268511Y-51365166D01*
X61216571Y-51376371D01*
X59362504Y-51369962D01*
X59362503Y-51369962D01*
X59374501Y-55376153D01*
X59522791Y-55723217D01*
X59531029Y-55792599D01*
X59500450Y-55855421D01*
X59440760Y-55891738D01*
X59406826Y-55895922D01*
X58511239Y-55881933D01*
X58419998Y-55880508D01*
X58417751Y-55880505D01*
X58159690Y-55880247D01*
X58092670Y-55860495D01*
X58046968Y-55807645D01*
X58037094Y-55738477D01*
X58060613Y-55681849D01*
X58293000Y-55372000D01*
X58293000Y-51467913D01*
X57710774Y-50885938D01*
X57710773Y-50885937D01*
X56927306Y-50886274D01*
X56860258Y-50866618D01*
X56814481Y-50813834D01*
X56803282Y-50764948D01*
X56723739Y-47073199D01*
X56741975Y-47005754D01*
X56793781Y-46958872D01*
X56847094Y-46946533D01*
X57900942Y-46941342D01*
X57968077Y-46960696D01*
G37*
%TD.AperFunction*%
%TD*%
%TA.AperFunction,Conductor*%
%TO.N,3.3V*%
G36*
X69767550Y-41177058D02*
G01*
X69839417Y-41221190D01*
X69885019Y-41292133D01*
X69890649Y-41310598D01*
X70179234Y-42464936D01*
X70180969Y-42549254D01*
X70145949Y-42625975D01*
X70081109Y-42679902D01*
X70019264Y-42698887D01*
X62800436Y-43615563D01*
X62166501Y-44259497D01*
X62166500Y-44259500D01*
X61992303Y-45827266D01*
X61964571Y-45906912D01*
X61905029Y-45966638D01*
X61829734Y-45994078D01*
X60176488Y-46221031D01*
X60093807Y-46214045D01*
X58928002Y-45847000D01*
X58928000Y-45847000D01*
X55753000Y-45847000D01*
X55046625Y-45847000D01*
X54403887Y-46312430D01*
X54403886Y-46312431D01*
X54382453Y-46934030D01*
X54360865Y-47015556D01*
X54306041Y-47079641D01*
X54228842Y-47113592D01*
X54193066Y-47117000D01*
X53199300Y-47117000D01*
X53117079Y-47098234D01*
X53051143Y-47045651D01*
X53014551Y-46969668D01*
X53009800Y-46927500D01*
X53009800Y-45916781D01*
X53028566Y-45834560D01*
X53074954Y-45773783D01*
X54251723Y-44750502D01*
X54326081Y-44710712D01*
X54376069Y-44704000D01*
X58978799Y-44704000D01*
X58978800Y-44704000D01*
X59503307Y-42545325D01*
X59540955Y-42469861D01*
X59607619Y-42418204D01*
X59664292Y-42401989D01*
X69683654Y-41168479D01*
X69767550Y-41177058D01*
G37*
%TD.AperFunction*%
%TD*%
%TA.AperFunction,Conductor*%
%TO.N,GND*%
G36*
X66386540Y-58027513D02*
G01*
X65355318Y-59058737D01*
X63996502Y-59055000D01*
X63996502Y-58166000D01*
X65024000Y-58166000D01*
X65278000Y-57658000D01*
X66386540Y-58027513D01*
G37*
%TD.AperFunction*%
%TD*%
%TA.AperFunction,Conductor*%
%TO.N,GND*%
G36*
X61700634Y-57302599D02*
G01*
X61518800Y-57516410D01*
X60960000Y-57516410D01*
X60745604Y-57168993D01*
X59846701Y-57170884D01*
X59843373Y-56183827D01*
X60299600Y-55727600D01*
X60604400Y-55219600D01*
X61681240Y-55217781D01*
X61700634Y-57302599D01*
G37*
%TD.AperFunction*%
%TD*%
%TA.AperFunction,Conductor*%
%TO.N,GND*%
G36*
X46482000Y-66294000D02*
G01*
X45085000Y-66294000D01*
X45085000Y-64065028D01*
X46482000Y-64065028D01*
X46482000Y-66294000D01*
G37*
%TD.AperFunction*%
%TD*%
M02*
