%TF.GenerationSoftware,KiCad,Pcbnew,9.0.2*%
%TF.CreationDate,2025-06-04T00:25:23+07:00*%
%TF.ProjectId,Power Delivery Management_3.3V,506f7765-7220-4446-956c-697665727920,rev?*%
%TF.SameCoordinates,Original*%
%TF.FileFunction,Soldermask,Top*%
%TF.FilePolarity,Negative*%
%FSLAX46Y46*%
G04 Gerber Fmt 4.6, Leading zero omitted, Abs format (unit mm)*
G04 Created by KiCad (PCBNEW 9.0.2) date 2025-06-04 00:25:23*
%MOMM*%
%LPD*%
G01*
G04 APERTURE LIST*
G04 Aperture macros list*
%AMRoundRect*
0 Rectangle with rounded corners*
0 $1 Rounding radius*
0 $2 $3 $4 $5 $6 $7 $8 $9 X,Y pos of 4 corners*
0 Add a 4 corners polygon primitive as box body*
4,1,4,$2,$3,$4,$5,$6,$7,$8,$9,$2,$3,0*
0 Add four circle primitives for the rounded corners*
1,1,$1+$1,$2,$3*
1,1,$1+$1,$4,$5*
1,1,$1+$1,$6,$7*
1,1,$1+$1,$8,$9*
0 Add four rect primitives between the rounded corners*
20,1,$1+$1,$2,$3,$4,$5,0*
20,1,$1+$1,$4,$5,$6,$7,0*
20,1,$1+$1,$6,$7,$8,$9,0*
20,1,$1+$1,$8,$9,$2,$3,0*%
%AMRotRect*
0 Rectangle, with rotation*
0 The origin of the aperture is its center*
0 $1 length*
0 $2 width*
0 $3 Rotation angle, in degrees counterclockwise*
0 Add horizontal line*
21,1,$1,$2,0,0,$3*%
G04 Aperture macros list end*
%ADD10RoundRect,0.250000X0.325000X1.100000X-0.325000X1.100000X-0.325000X-1.100000X0.325000X-1.100000X0*%
%ADD11RoundRect,0.249999X0.450001X1.850001X-0.450001X1.850001X-0.450001X-1.850001X0.450001X-1.850001X0*%
%ADD12RoundRect,0.200000X-0.275000X0.200000X-0.275000X-0.200000X0.275000X-0.200000X0.275000X0.200000X0*%
%ADD13RoundRect,0.225000X0.225000X0.250000X-0.225000X0.250000X-0.225000X-0.250000X0.225000X-0.250000X0*%
%ADD14RoundRect,0.225000X-0.250000X0.225000X-0.250000X-0.225000X0.250000X-0.225000X0.250000X0.225000X0*%
%ADD15RoundRect,0.200000X-0.200000X-0.275000X0.200000X-0.275000X0.200000X0.275000X-0.200000X0.275000X0*%
%ADD16C,1.400000*%
%ADD17RoundRect,0.250000X-1.000000X-0.650000X1.000000X-0.650000X1.000000X0.650000X-1.000000X0.650000X0*%
%ADD18RoundRect,0.225000X0.250000X-0.225000X0.250000X0.225000X-0.250000X0.225000X-0.250000X-0.225000X0*%
%ADD19RoundRect,0.237500X0.287500X0.237500X-0.287500X0.237500X-0.287500X-0.237500X0.287500X-0.237500X0*%
%ADD20RoundRect,0.200000X0.200000X0.275000X-0.200000X0.275000X-0.200000X-0.275000X0.200000X-0.275000X0*%
%ADD21RoundRect,0.200000X0.275000X-0.200000X0.275000X0.200000X-0.275000X0.200000X-0.275000X-0.200000X0*%
%ADD22R,1.910000X0.610000*%
%ADD23R,1.205000X1.550000*%
%ADD24RotRect,1.700000X1.700000X275.000000*%
%ADD25C,1.700000*%
%ADD26R,1.700000X1.700000*%
G04 APERTURE END LIST*
D10*
%TO.C,C1*%
X49518013Y-58442586D03*
X46568013Y-58442586D03*
%TD*%
D11*
%TO.C,L1*%
X57388571Y-49025399D03*
X53688571Y-49025399D03*
%TD*%
D10*
%TO.C,C3*%
X49500654Y-65307408D03*
X46550654Y-65307408D03*
%TD*%
D12*
%TO.C,R7*%
X53086000Y-61468000D03*
X53086000Y-63118000D03*
%TD*%
D13*
%TO.C,C10*%
X63955161Y-63881000D03*
X62405161Y-63881000D03*
%TD*%
D14*
%TO.C,C9*%
X60071000Y-45527851D03*
X60071000Y-47077851D03*
%TD*%
%TO.C,C6*%
X64527249Y-57085692D03*
X64527249Y-58635692D03*
%TD*%
D15*
%TO.C,R3*%
X62358000Y-60579000D03*
X64008000Y-60579000D03*
%TD*%
D16*
%TO.C,GND1*%
X50749200Y-46990000D03*
X48749200Y-46990000D03*
%TD*%
D17*
%TO.C,D1*%
X60135000Y-50546000D03*
X64135000Y-50546000D03*
%TD*%
D16*
%TO.C,3.3*%
X46863000Y-54959000D03*
X46863000Y-52959000D03*
%TD*%
D15*
%TO.C,R2*%
X62355532Y-62190349D03*
X64005532Y-62190349D03*
%TD*%
D10*
%TO.C,C2*%
X49530000Y-61976000D03*
X46580000Y-61976000D03*
%TD*%
D18*
%TO.C,C5*%
X61217862Y-58620581D03*
X61217862Y-57070581D03*
%TD*%
D19*
%TO.C,D2*%
X72644000Y-46736000D03*
X70894000Y-46736000D03*
%TD*%
D20*
%TO.C,R4*%
X67182000Y-60452000D03*
X65532000Y-60452000D03*
%TD*%
D21*
%TO.C,R1*%
X62865000Y-58673000D03*
X62865000Y-57023000D03*
%TD*%
D13*
%TO.C,C7*%
X60280917Y-54097495D03*
X58730917Y-54097495D03*
%TD*%
D22*
%TO.C,U1*%
X53105983Y-56091194D03*
X53105983Y-57361194D03*
X53105983Y-58631194D03*
X53105983Y-59901194D03*
X58665983Y-59901194D03*
X58665983Y-58631194D03*
X58665983Y-57361194D03*
X58665983Y-56091194D03*
D23*
X55283483Y-57221194D03*
X55283483Y-58771194D03*
X56488483Y-57221194D03*
X56488483Y-58771194D03*
%TD*%
D15*
%TO.C,R5*%
X67755000Y-46736000D03*
X69405000Y-46736000D03*
%TD*%
D16*
%TO.C,+12*%
X49530000Y-52975000D03*
X49530000Y-54975000D03*
%TD*%
%TO.C,SENS1*%
X69469000Y-56039000D03*
X69469000Y-58039000D03*
%TD*%
D14*
%TO.C,C8*%
X61595000Y-45541000D03*
X61595000Y-47091000D03*
%TD*%
D24*
%TO.C,J4*%
X47090827Y-43944567D03*
D25*
X49621163Y-43723191D03*
X52151496Y-43501816D03*
X54681831Y-43280440D03*
X57212165Y-43059065D03*
X59742500Y-42837689D03*
X62272834Y-42616313D03*
X64803169Y-42394938D03*
X67333503Y-42173562D03*
X69863838Y-41952187D03*
%TD*%
D26*
%TO.C,J3*%
X47090827Y-68404360D03*
D25*
X49630827Y-68404360D03*
X52170827Y-68404360D03*
X54710827Y-68404360D03*
X57250827Y-68404360D03*
X59790827Y-68404360D03*
X62330827Y-68404360D03*
X64870827Y-68404360D03*
X67410827Y-68404360D03*
X69950827Y-68404360D03*
%TD*%
M02*
