%TF.GenerationSoftware,KiCad,Pcbnew,9.0.2*%
%TF.CreationDate,2025-06-04T00:25:23+07:00*%
%TF.ProjectId,Power Delivery Management_3.3V,506f7765-7220-4446-956c-697665727920,rev?*%
%TF.SameCoordinates,Original*%
%TF.FileFunction,Legend,Top*%
%TF.FilePolarity,Positive*%
%FSLAX46Y46*%
G04 Gerber Fmt 4.6, Leading zero omitted, Abs format (unit mm)*
G04 Created by KiCad (PCBNEW 9.0.2) date 2025-06-04 00:25:23*
%MOMM*%
%LPD*%
G01*
G04 APERTURE LIST*
%ADD10C,0.100000*%
%ADD11C,0.125000*%
%ADD12C,0.080000*%
%ADD13C,0.040000*%
%ADD14C,0.120000*%
%ADD15C,0.150000*%
%ADD16C,0.075000*%
%ADD17C,0.000000*%
G04 APERTURE END LIST*
D10*
X71503370Y-44513897D02*
X66973828Y-44880032D01*
X66379065Y-43775767D01*
X58665826Y-44775820D01*
X58184545Y-41527181D01*
X71008807Y-40269901D01*
X71503370Y-44513897D01*
X58248233Y-66703342D02*
X58248233Y-69977000D01*
X45466000Y-69977000D01*
X45466000Y-67056000D01*
X50800000Y-67056000D01*
X51968551Y-65887449D01*
X57432340Y-65887449D01*
X58248233Y-66703342D01*
X54203600Y-63398400D02*
X59323969Y-63398400D01*
X59323969Y-64465200D01*
X54203600Y-64465200D01*
X54203600Y-63398400D01*
X71447537Y-66452991D02*
X71447537Y-69923967D01*
X58978242Y-69923967D01*
X58978242Y-66960991D01*
X65478537Y-66960991D01*
X66875537Y-65563991D01*
X70558537Y-65563991D01*
X71447537Y-66452991D01*
X49340278Y-42435626D02*
X57944323Y-41564508D01*
X58301421Y-44392465D01*
X46057298Y-45724406D01*
X45435725Y-41447698D01*
X48768000Y-41148000D01*
X49340278Y-42435626D01*
D11*
X46242119Y-51511525D02*
X47242119Y-51178192D01*
X47242119Y-51178192D02*
X46242119Y-50844859D01*
X46242119Y-50321049D02*
X46242119Y-50130573D01*
X46242119Y-50130573D02*
X46289738Y-50035335D01*
X46289738Y-50035335D02*
X46384976Y-49940097D01*
X46384976Y-49940097D02*
X46575452Y-49892478D01*
X46575452Y-49892478D02*
X46908785Y-49892478D01*
X46908785Y-49892478D02*
X47099261Y-49940097D01*
X47099261Y-49940097D02*
X47194500Y-50035335D01*
X47194500Y-50035335D02*
X47242119Y-50130573D01*
X47242119Y-50130573D02*
X47242119Y-50321049D01*
X47242119Y-50321049D02*
X47194500Y-50416287D01*
X47194500Y-50416287D02*
X47099261Y-50511525D01*
X47099261Y-50511525D02*
X46908785Y-50559144D01*
X46908785Y-50559144D02*
X46575452Y-50559144D01*
X46575452Y-50559144D02*
X46384976Y-50511525D01*
X46384976Y-50511525D02*
X46289738Y-50416287D01*
X46289738Y-50416287D02*
X46242119Y-50321049D01*
X46242119Y-49463906D02*
X47051642Y-49463906D01*
X47051642Y-49463906D02*
X47146880Y-49416287D01*
X47146880Y-49416287D02*
X47194500Y-49368668D01*
X47194500Y-49368668D02*
X47242119Y-49273430D01*
X47242119Y-49273430D02*
X47242119Y-49082954D01*
X47242119Y-49082954D02*
X47194500Y-48987716D01*
X47194500Y-48987716D02*
X47146880Y-48940097D01*
X47146880Y-48940097D02*
X47051642Y-48892478D01*
X47051642Y-48892478D02*
X46242119Y-48892478D01*
X46242119Y-48559144D02*
X46242119Y-47987716D01*
X47242119Y-48273430D02*
X46242119Y-48273430D01*
X46593690Y-41648280D02*
X46494664Y-41609143D01*
X46494664Y-41609143D02*
X46352350Y-41621594D01*
X46352350Y-41621594D02*
X46214187Y-41681483D01*
X46214187Y-41681483D02*
X46127612Y-41784659D01*
X46127612Y-41784659D02*
X46088475Y-41883685D01*
X46088475Y-41883685D02*
X46057638Y-42077586D01*
X46057638Y-42077586D02*
X46070089Y-42219900D01*
X46070089Y-42219900D02*
X46134128Y-42405501D01*
X46134128Y-42405501D02*
X46189866Y-42496226D01*
X46189866Y-42496226D02*
X46293042Y-42582802D01*
X46293042Y-42582802D02*
X46439506Y-42617789D01*
X46439506Y-42617789D02*
X46534382Y-42609488D01*
X46534382Y-42609488D02*
X46672545Y-42549599D01*
X46672545Y-42549599D02*
X46715833Y-42498011D01*
X46715833Y-42498011D02*
X46686781Y-42165946D01*
X46686781Y-42165946D02*
X46497029Y-42182547D01*
X47151074Y-42555535D02*
X47063918Y-41559340D01*
X47063918Y-41559340D02*
X47720328Y-42505731D01*
X47720328Y-42505731D02*
X47633172Y-41509537D01*
X48194706Y-42464229D02*
X48107551Y-41468034D01*
X48107551Y-41468034D02*
X48344740Y-41447282D01*
X48344740Y-41447282D02*
X48491204Y-41482269D01*
X48491204Y-41482269D02*
X48594380Y-41568845D01*
X48594380Y-41568845D02*
X48650118Y-41659570D01*
X48650118Y-41659570D02*
X48714157Y-41845171D01*
X48714157Y-41845171D02*
X48726608Y-41987485D01*
X48726608Y-41987485D02*
X48695771Y-42181386D01*
X48695771Y-42181386D02*
X48656634Y-42280412D01*
X48656634Y-42280412D02*
X48570059Y-42383588D01*
X48570059Y-42383588D02*
X48431895Y-42443477D01*
X48431895Y-42443477D02*
X48194706Y-42464229D01*
D12*
X54383202Y-62983363D02*
X54249869Y-62983363D01*
X54249869Y-63192887D02*
X54249869Y-62792887D01*
X54249869Y-62792887D02*
X54440345Y-62792887D01*
X54649868Y-63192887D02*
X54611773Y-63173840D01*
X54611773Y-63173840D02*
X54592726Y-63154792D01*
X54592726Y-63154792D02*
X54573678Y-63116697D01*
X54573678Y-63116697D02*
X54573678Y-63002411D01*
X54573678Y-63002411D02*
X54592726Y-62964316D01*
X54592726Y-62964316D02*
X54611773Y-62945268D01*
X54611773Y-62945268D02*
X54649868Y-62926220D01*
X54649868Y-62926220D02*
X54707011Y-62926220D01*
X54707011Y-62926220D02*
X54745107Y-62945268D01*
X54745107Y-62945268D02*
X54764154Y-62964316D01*
X54764154Y-62964316D02*
X54783202Y-63002411D01*
X54783202Y-63002411D02*
X54783202Y-63116697D01*
X54783202Y-63116697D02*
X54764154Y-63154792D01*
X54764154Y-63154792D02*
X54745107Y-63173840D01*
X54745107Y-63173840D02*
X54707011Y-63192887D01*
X54707011Y-63192887D02*
X54649868Y-63192887D01*
X54954631Y-63192887D02*
X54954631Y-62926220D01*
X54954631Y-63002411D02*
X54973678Y-62964316D01*
X54973678Y-62964316D02*
X54992726Y-62945268D01*
X54992726Y-62945268D02*
X55030821Y-62926220D01*
X55030821Y-62926220D02*
X55068916Y-62926220D01*
X55487964Y-63173840D02*
X55545107Y-63192887D01*
X55545107Y-63192887D02*
X55640345Y-63192887D01*
X55640345Y-63192887D02*
X55678440Y-63173840D01*
X55678440Y-63173840D02*
X55697488Y-63154792D01*
X55697488Y-63154792D02*
X55716535Y-63116697D01*
X55716535Y-63116697D02*
X55716535Y-63078601D01*
X55716535Y-63078601D02*
X55697488Y-63040506D01*
X55697488Y-63040506D02*
X55678440Y-63021459D01*
X55678440Y-63021459D02*
X55640345Y-63002411D01*
X55640345Y-63002411D02*
X55564154Y-62983363D01*
X55564154Y-62983363D02*
X55526059Y-62964316D01*
X55526059Y-62964316D02*
X55507012Y-62945268D01*
X55507012Y-62945268D02*
X55487964Y-62907173D01*
X55487964Y-62907173D02*
X55487964Y-62869078D01*
X55487964Y-62869078D02*
X55507012Y-62830982D01*
X55507012Y-62830982D02*
X55526059Y-62811935D01*
X55526059Y-62811935D02*
X55564154Y-62792887D01*
X55564154Y-62792887D02*
X55659393Y-62792887D01*
X55659393Y-62792887D02*
X55716535Y-62811935D01*
X55849868Y-62926220D02*
X55926059Y-63192887D01*
X55926059Y-63192887D02*
X56002249Y-63002411D01*
X56002249Y-63002411D02*
X56078440Y-63192887D01*
X56078440Y-63192887D02*
X56154630Y-62926220D01*
X56307012Y-63192887D02*
X56307012Y-62926220D01*
X56307012Y-62792887D02*
X56287964Y-62811935D01*
X56287964Y-62811935D02*
X56307012Y-62830982D01*
X56307012Y-62830982D02*
X56326059Y-62811935D01*
X56326059Y-62811935D02*
X56307012Y-62792887D01*
X56307012Y-62792887D02*
X56307012Y-62830982D01*
X56440345Y-62926220D02*
X56592726Y-62926220D01*
X56497488Y-62792887D02*
X56497488Y-63135744D01*
X56497488Y-63135744D02*
X56516535Y-63173840D01*
X56516535Y-63173840D02*
X56554630Y-63192887D01*
X56554630Y-63192887D02*
X56592726Y-63192887D01*
X56897487Y-63173840D02*
X56859392Y-63192887D01*
X56859392Y-63192887D02*
X56783201Y-63192887D01*
X56783201Y-63192887D02*
X56745106Y-63173840D01*
X56745106Y-63173840D02*
X56726059Y-63154792D01*
X56726059Y-63154792D02*
X56707011Y-63116697D01*
X56707011Y-63116697D02*
X56707011Y-63002411D01*
X56707011Y-63002411D02*
X56726059Y-62964316D01*
X56726059Y-62964316D02*
X56745106Y-62945268D01*
X56745106Y-62945268D02*
X56783201Y-62926220D01*
X56783201Y-62926220D02*
X56859392Y-62926220D01*
X56859392Y-62926220D02*
X56897487Y-62945268D01*
X57068916Y-63192887D02*
X57068916Y-62792887D01*
X57240344Y-63192887D02*
X57240344Y-62983363D01*
X57240344Y-62983363D02*
X57221297Y-62945268D01*
X57221297Y-62945268D02*
X57183201Y-62926220D01*
X57183201Y-62926220D02*
X57126058Y-62926220D01*
X57126058Y-62926220D02*
X57087963Y-62945268D01*
X57087963Y-62945268D02*
X57068916Y-62964316D01*
X57868916Y-62983363D02*
X57735583Y-62983363D01*
X57735583Y-63192887D02*
X57735583Y-62792887D01*
X57735583Y-62792887D02*
X57926059Y-62792887D01*
X58078440Y-63192887D02*
X58078440Y-62926220D01*
X58078440Y-63002411D02*
X58097487Y-62964316D01*
X58097487Y-62964316D02*
X58116535Y-62945268D01*
X58116535Y-62945268D02*
X58154630Y-62926220D01*
X58154630Y-62926220D02*
X58192725Y-62926220D01*
X58478440Y-63173840D02*
X58440344Y-63192887D01*
X58440344Y-63192887D02*
X58364154Y-63192887D01*
X58364154Y-63192887D02*
X58326059Y-63173840D01*
X58326059Y-63173840D02*
X58307011Y-63135744D01*
X58307011Y-63135744D02*
X58307011Y-62983363D01*
X58307011Y-62983363D02*
X58326059Y-62945268D01*
X58326059Y-62945268D02*
X58364154Y-62926220D01*
X58364154Y-62926220D02*
X58440344Y-62926220D01*
X58440344Y-62926220D02*
X58478440Y-62945268D01*
X58478440Y-62945268D02*
X58497487Y-62983363D01*
X58497487Y-62983363D02*
X58497487Y-63021459D01*
X58497487Y-63021459D02*
X58307011Y-63059554D01*
X58840344Y-62926220D02*
X58840344Y-63326220D01*
X58840344Y-63173840D02*
X58802249Y-63192887D01*
X58802249Y-63192887D02*
X58726058Y-63192887D01*
X58726058Y-63192887D02*
X58687963Y-63173840D01*
X58687963Y-63173840D02*
X58668916Y-63154792D01*
X58668916Y-63154792D02*
X58649868Y-63116697D01*
X58649868Y-63116697D02*
X58649868Y-63002411D01*
X58649868Y-63002411D02*
X58668916Y-62964316D01*
X58668916Y-62964316D02*
X58687963Y-62945268D01*
X58687963Y-62945268D02*
X58726058Y-62926220D01*
X58726058Y-62926220D02*
X58802249Y-62926220D01*
X58802249Y-62926220D02*
X58840344Y-62945268D01*
X55163862Y-50241047D02*
X55182909Y-50202952D01*
X55182909Y-50202952D02*
X55182909Y-50126761D01*
X55182909Y-50126761D02*
X55163862Y-50088666D01*
X55163862Y-50088666D02*
X55125766Y-50069618D01*
X55125766Y-50069618D02*
X55106719Y-50069618D01*
X55106719Y-50069618D02*
X55068623Y-50088666D01*
X55068623Y-50088666D02*
X55049576Y-50126761D01*
X55049576Y-50126761D02*
X55049576Y-50183904D01*
X55049576Y-50183904D02*
X55030528Y-50221999D01*
X55030528Y-50221999D02*
X54992433Y-50241047D01*
X54992433Y-50241047D02*
X54973385Y-50241047D01*
X54973385Y-50241047D02*
X54935290Y-50221999D01*
X54935290Y-50221999D02*
X54916242Y-50183904D01*
X54916242Y-50183904D02*
X54916242Y-50126761D01*
X54916242Y-50126761D02*
X54935290Y-50088666D01*
X55163862Y-49745808D02*
X55182909Y-49783904D01*
X55182909Y-49783904D02*
X55182909Y-49860094D01*
X55182909Y-49860094D02*
X55163862Y-49898189D01*
X55163862Y-49898189D02*
X55125766Y-49917237D01*
X55125766Y-49917237D02*
X54973385Y-49917237D01*
X54973385Y-49917237D02*
X54935290Y-49898189D01*
X54935290Y-49898189D02*
X54916242Y-49860094D01*
X54916242Y-49860094D02*
X54916242Y-49783904D01*
X54916242Y-49783904D02*
X54935290Y-49745808D01*
X54935290Y-49745808D02*
X54973385Y-49726761D01*
X54973385Y-49726761D02*
X55011481Y-49726761D01*
X55011481Y-49726761D02*
X55049576Y-49917237D01*
X55182909Y-49555332D02*
X54916242Y-49555332D01*
X54954338Y-49555332D02*
X54935290Y-49536285D01*
X54935290Y-49536285D02*
X54916242Y-49498190D01*
X54916242Y-49498190D02*
X54916242Y-49441047D01*
X54916242Y-49441047D02*
X54935290Y-49402951D01*
X54935290Y-49402951D02*
X54973385Y-49383904D01*
X54973385Y-49383904D02*
X55182909Y-49383904D01*
X54973385Y-49383904D02*
X54935290Y-49364856D01*
X54935290Y-49364856D02*
X54916242Y-49326761D01*
X54916242Y-49326761D02*
X54916242Y-49269618D01*
X54916242Y-49269618D02*
X54935290Y-49231523D01*
X54935290Y-49231523D02*
X54973385Y-49212475D01*
X54973385Y-49212475D02*
X55182909Y-49212475D01*
X55182909Y-48964857D02*
X55163862Y-49002952D01*
X55163862Y-49002952D02*
X55144814Y-49021999D01*
X55144814Y-49021999D02*
X55106719Y-49041047D01*
X55106719Y-49041047D02*
X54992433Y-49041047D01*
X54992433Y-49041047D02*
X54954338Y-49021999D01*
X54954338Y-49021999D02*
X54935290Y-49002952D01*
X54935290Y-49002952D02*
X54916242Y-48964857D01*
X54916242Y-48964857D02*
X54916242Y-48907714D01*
X54916242Y-48907714D02*
X54935290Y-48869618D01*
X54935290Y-48869618D02*
X54954338Y-48850571D01*
X54954338Y-48850571D02*
X54992433Y-48831523D01*
X54992433Y-48831523D02*
X55106719Y-48831523D01*
X55106719Y-48831523D02*
X55144814Y-48850571D01*
X55144814Y-48850571D02*
X55163862Y-48869618D01*
X55163862Y-48869618D02*
X55182909Y-48907714D01*
X55182909Y-48907714D02*
X55182909Y-48964857D01*
X54916242Y-48488666D02*
X55240052Y-48488666D01*
X55240052Y-48488666D02*
X55278147Y-48507713D01*
X55278147Y-48507713D02*
X55297195Y-48526761D01*
X55297195Y-48526761D02*
X55316242Y-48564856D01*
X55316242Y-48564856D02*
X55316242Y-48621999D01*
X55316242Y-48621999D02*
X55297195Y-48660094D01*
X55163862Y-48488666D02*
X55182909Y-48526761D01*
X55182909Y-48526761D02*
X55182909Y-48602952D01*
X55182909Y-48602952D02*
X55163862Y-48641047D01*
X55163862Y-48641047D02*
X55144814Y-48660094D01*
X55144814Y-48660094D02*
X55106719Y-48679142D01*
X55106719Y-48679142D02*
X54992433Y-48679142D01*
X54992433Y-48679142D02*
X54954338Y-48660094D01*
X54954338Y-48660094D02*
X54935290Y-48641047D01*
X54935290Y-48641047D02*
X54916242Y-48602952D01*
X54916242Y-48602952D02*
X54916242Y-48526761D01*
X54916242Y-48526761D02*
X54935290Y-48488666D01*
X55182909Y-48126761D02*
X54973385Y-48126761D01*
X54973385Y-48126761D02*
X54935290Y-48145808D01*
X54935290Y-48145808D02*
X54916242Y-48183904D01*
X54916242Y-48183904D02*
X54916242Y-48260094D01*
X54916242Y-48260094D02*
X54935290Y-48298189D01*
X55163862Y-48126761D02*
X55182909Y-48164856D01*
X55182909Y-48164856D02*
X55182909Y-48260094D01*
X55182909Y-48260094D02*
X55163862Y-48298189D01*
X55163862Y-48298189D02*
X55125766Y-48317237D01*
X55125766Y-48317237D02*
X55087671Y-48317237D01*
X55087671Y-48317237D02*
X55049576Y-48298189D01*
X55049576Y-48298189D02*
X55030528Y-48260094D01*
X55030528Y-48260094D02*
X55030528Y-48164856D01*
X55030528Y-48164856D02*
X55011481Y-48126761D01*
X55560220Y-50202952D02*
X55674506Y-50507713D01*
X55674506Y-50507713D02*
X55788792Y-50202952D01*
X55826887Y-49802952D02*
X55826887Y-50031523D01*
X55826887Y-49917237D02*
X55426887Y-49917237D01*
X55426887Y-49917237D02*
X55484030Y-49955333D01*
X55484030Y-49955333D02*
X55522125Y-49993428D01*
X55522125Y-49993428D02*
X55541173Y-50031523D01*
X55426887Y-49555333D02*
X55426887Y-49517238D01*
X55426887Y-49517238D02*
X55445935Y-49479142D01*
X55445935Y-49479142D02*
X55464982Y-49460095D01*
X55464982Y-49460095D02*
X55503078Y-49441047D01*
X55503078Y-49441047D02*
X55579268Y-49422000D01*
X55579268Y-49422000D02*
X55674506Y-49422000D01*
X55674506Y-49422000D02*
X55750697Y-49441047D01*
X55750697Y-49441047D02*
X55788792Y-49460095D01*
X55788792Y-49460095D02*
X55807840Y-49479142D01*
X55807840Y-49479142D02*
X55826887Y-49517238D01*
X55826887Y-49517238D02*
X55826887Y-49555333D01*
X55826887Y-49555333D02*
X55807840Y-49593428D01*
X55807840Y-49593428D02*
X55788792Y-49612476D01*
X55788792Y-49612476D02*
X55750697Y-49631523D01*
X55750697Y-49631523D02*
X55674506Y-49650571D01*
X55674506Y-49650571D02*
X55579268Y-49650571D01*
X55579268Y-49650571D02*
X55503078Y-49631523D01*
X55503078Y-49631523D02*
X55464982Y-49612476D01*
X55464982Y-49612476D02*
X55445935Y-49593428D01*
X55445935Y-49593428D02*
X55426887Y-49555333D01*
X55826887Y-49250571D02*
X55560220Y-49250571D01*
X55598316Y-49250571D02*
X55579268Y-49231524D01*
X55579268Y-49231524D02*
X55560220Y-49193429D01*
X55560220Y-49193429D02*
X55560220Y-49136286D01*
X55560220Y-49136286D02*
X55579268Y-49098190D01*
X55579268Y-49098190D02*
X55617363Y-49079143D01*
X55617363Y-49079143D02*
X55826887Y-49079143D01*
X55617363Y-49079143D02*
X55579268Y-49060095D01*
X55579268Y-49060095D02*
X55560220Y-49022000D01*
X55560220Y-49022000D02*
X55560220Y-48964857D01*
X55560220Y-48964857D02*
X55579268Y-48926762D01*
X55579268Y-48926762D02*
X55617363Y-48907714D01*
X55617363Y-48907714D02*
X55826887Y-48907714D01*
X55560220Y-48755334D02*
X55826887Y-48660096D01*
X55826887Y-48660096D02*
X55560220Y-48564857D01*
X55426887Y-48469619D02*
X55826887Y-48336286D01*
X55826887Y-48336286D02*
X55426887Y-48202953D01*
X55560220Y-48069619D02*
X55960220Y-48069619D01*
X55579268Y-48069619D02*
X55560220Y-48031524D01*
X55560220Y-48031524D02*
X55560220Y-47955334D01*
X55560220Y-47955334D02*
X55579268Y-47917238D01*
X55579268Y-47917238D02*
X55598316Y-47898191D01*
X55598316Y-47898191D02*
X55636411Y-47879143D01*
X55636411Y-47879143D02*
X55750697Y-47879143D01*
X55750697Y-47879143D02*
X55788792Y-47898191D01*
X55788792Y-47898191D02*
X55807840Y-47917238D01*
X55807840Y-47917238D02*
X55826887Y-47955334D01*
X55826887Y-47955334D02*
X55826887Y-48031524D01*
X55826887Y-48031524D02*
X55807840Y-48069619D01*
X55560220Y-47707714D02*
X55960220Y-47707714D01*
X55579268Y-47707714D02*
X55560220Y-47669619D01*
X55560220Y-47669619D02*
X55560220Y-47593429D01*
X55560220Y-47593429D02*
X55579268Y-47555333D01*
X55579268Y-47555333D02*
X55598316Y-47536286D01*
X55598316Y-47536286D02*
X55636411Y-47517238D01*
X55636411Y-47517238D02*
X55750697Y-47517238D01*
X55750697Y-47517238D02*
X55788792Y-47536286D01*
X55788792Y-47536286D02*
X55807840Y-47555333D01*
X55807840Y-47555333D02*
X55826887Y-47593429D01*
X55826887Y-47593429D02*
X55826887Y-47669619D01*
X55826887Y-47669619D02*
X55807840Y-47707714D01*
D11*
X67295574Y-43682722D02*
X67714794Y-44649865D01*
X67714794Y-44649865D02*
X67959704Y-43624619D01*
X68481520Y-43578966D02*
X68671271Y-43562364D01*
X68671271Y-43562364D02*
X68770297Y-43601502D01*
X68770297Y-43601502D02*
X68873474Y-43688077D01*
X68873474Y-43688077D02*
X68937513Y-43873678D01*
X68937513Y-43873678D02*
X68966564Y-44205743D01*
X68966564Y-44205743D02*
X68935728Y-44399645D01*
X68935728Y-44399645D02*
X68849153Y-44502821D01*
X68849153Y-44502821D02*
X68758427Y-44558559D01*
X68758427Y-44558559D02*
X68568676Y-44575160D01*
X68568676Y-44575160D02*
X68469650Y-44536023D01*
X68469650Y-44536023D02*
X68366474Y-44449448D01*
X68366474Y-44449448D02*
X68302435Y-44263847D01*
X68302435Y-44263847D02*
X68273383Y-43931782D01*
X68273383Y-43931782D02*
X68304219Y-43737880D01*
X68304219Y-43737880D02*
X68390795Y-43634704D01*
X68390795Y-43634704D02*
X68481520Y-43578966D01*
X69335401Y-43504261D02*
X69405956Y-44310704D01*
X69405956Y-44310704D02*
X69461694Y-44401429D01*
X69461694Y-44401429D02*
X69513282Y-44444717D01*
X69513282Y-44444717D02*
X69612308Y-44483854D01*
X69612308Y-44483854D02*
X69802060Y-44467253D01*
X69802060Y-44467253D02*
X69892785Y-44411515D01*
X69892785Y-44411515D02*
X69936073Y-44359927D01*
X69936073Y-44359927D02*
X69975210Y-44260901D01*
X69975210Y-44260901D02*
X69904655Y-43454457D01*
X70236720Y-43425405D02*
X70805974Y-43375602D01*
X70608503Y-44396698D02*
X70521347Y-43400504D01*
D12*
X54596272Y-63544233D02*
X54405796Y-63544233D01*
X54405796Y-63544233D02*
X54386748Y-63734709D01*
X54386748Y-63734709D02*
X54405796Y-63715662D01*
X54405796Y-63715662D02*
X54443891Y-63696614D01*
X54443891Y-63696614D02*
X54539129Y-63696614D01*
X54539129Y-63696614D02*
X54577224Y-63715662D01*
X54577224Y-63715662D02*
X54596272Y-63734709D01*
X54596272Y-63734709D02*
X54615319Y-63772805D01*
X54615319Y-63772805D02*
X54615319Y-63868043D01*
X54615319Y-63868043D02*
X54596272Y-63906138D01*
X54596272Y-63906138D02*
X54577224Y-63925186D01*
X54577224Y-63925186D02*
X54539129Y-63944233D01*
X54539129Y-63944233D02*
X54443891Y-63944233D01*
X54443891Y-63944233D02*
X54405796Y-63925186D01*
X54405796Y-63925186D02*
X54386748Y-63906138D01*
X54958176Y-63544233D02*
X54881986Y-63544233D01*
X54881986Y-63544233D02*
X54843890Y-63563281D01*
X54843890Y-63563281D02*
X54824843Y-63582328D01*
X54824843Y-63582328D02*
X54786748Y-63639471D01*
X54786748Y-63639471D02*
X54767700Y-63715662D01*
X54767700Y-63715662D02*
X54767700Y-63868043D01*
X54767700Y-63868043D02*
X54786748Y-63906138D01*
X54786748Y-63906138D02*
X54805795Y-63925186D01*
X54805795Y-63925186D02*
X54843890Y-63944233D01*
X54843890Y-63944233D02*
X54920081Y-63944233D01*
X54920081Y-63944233D02*
X54958176Y-63925186D01*
X54958176Y-63925186D02*
X54977224Y-63906138D01*
X54977224Y-63906138D02*
X54996271Y-63868043D01*
X54996271Y-63868043D02*
X54996271Y-63772805D01*
X54996271Y-63772805D02*
X54977224Y-63734709D01*
X54977224Y-63734709D02*
X54958176Y-63715662D01*
X54958176Y-63715662D02*
X54920081Y-63696614D01*
X54920081Y-63696614D02*
X54843890Y-63696614D01*
X54843890Y-63696614D02*
X54805795Y-63715662D01*
X54805795Y-63715662D02*
X54786748Y-63734709D01*
X54786748Y-63734709D02*
X54767700Y-63772805D01*
X55167700Y-63944233D02*
X55167700Y-63544233D01*
X55205795Y-63791852D02*
X55320081Y-63944233D01*
X55320081Y-63677566D02*
X55167700Y-63829947D01*
X55796272Y-63734709D02*
X56101034Y-63734709D01*
X56101034Y-63848995D02*
X55796272Y-63848995D01*
X56653414Y-63715662D02*
X56615319Y-63696614D01*
X56615319Y-63696614D02*
X56596272Y-63677566D01*
X56596272Y-63677566D02*
X56577224Y-63639471D01*
X56577224Y-63639471D02*
X56577224Y-63620424D01*
X56577224Y-63620424D02*
X56596272Y-63582328D01*
X56596272Y-63582328D02*
X56615319Y-63563281D01*
X56615319Y-63563281D02*
X56653414Y-63544233D01*
X56653414Y-63544233D02*
X56729605Y-63544233D01*
X56729605Y-63544233D02*
X56767700Y-63563281D01*
X56767700Y-63563281D02*
X56786748Y-63582328D01*
X56786748Y-63582328D02*
X56805795Y-63620424D01*
X56805795Y-63620424D02*
X56805795Y-63639471D01*
X56805795Y-63639471D02*
X56786748Y-63677566D01*
X56786748Y-63677566D02*
X56767700Y-63696614D01*
X56767700Y-63696614D02*
X56729605Y-63715662D01*
X56729605Y-63715662D02*
X56653414Y-63715662D01*
X56653414Y-63715662D02*
X56615319Y-63734709D01*
X56615319Y-63734709D02*
X56596272Y-63753757D01*
X56596272Y-63753757D02*
X56577224Y-63791852D01*
X56577224Y-63791852D02*
X56577224Y-63868043D01*
X56577224Y-63868043D02*
X56596272Y-63906138D01*
X56596272Y-63906138D02*
X56615319Y-63925186D01*
X56615319Y-63925186D02*
X56653414Y-63944233D01*
X56653414Y-63944233D02*
X56729605Y-63944233D01*
X56729605Y-63944233D02*
X56767700Y-63925186D01*
X56767700Y-63925186D02*
X56786748Y-63906138D01*
X56786748Y-63906138D02*
X56805795Y-63868043D01*
X56805795Y-63868043D02*
X56805795Y-63791852D01*
X56805795Y-63791852D02*
X56786748Y-63753757D01*
X56786748Y-63753757D02*
X56767700Y-63734709D01*
X56767700Y-63734709D02*
X56729605Y-63715662D01*
X56939128Y-63544233D02*
X57186747Y-63544233D01*
X57186747Y-63544233D02*
X57053414Y-63696614D01*
X57053414Y-63696614D02*
X57110557Y-63696614D01*
X57110557Y-63696614D02*
X57148652Y-63715662D01*
X57148652Y-63715662D02*
X57167700Y-63734709D01*
X57167700Y-63734709D02*
X57186747Y-63772805D01*
X57186747Y-63772805D02*
X57186747Y-63868043D01*
X57186747Y-63868043D02*
X57167700Y-63906138D01*
X57167700Y-63906138D02*
X57148652Y-63925186D01*
X57148652Y-63925186D02*
X57110557Y-63944233D01*
X57110557Y-63944233D02*
X56996271Y-63944233D01*
X56996271Y-63944233D02*
X56958176Y-63925186D01*
X56958176Y-63925186D02*
X56939128Y-63906138D01*
X57529604Y-63677566D02*
X57529604Y-63944233D01*
X57434366Y-63525186D02*
X57339128Y-63810900D01*
X57339128Y-63810900D02*
X57586747Y-63810900D01*
X57739128Y-63944233D02*
X57739128Y-63544233D01*
X57777223Y-63791852D02*
X57891509Y-63944233D01*
X57891509Y-63677566D02*
X57739128Y-63829947D01*
X58062938Y-63944233D02*
X58062938Y-63544233D01*
X58062938Y-63734709D02*
X58291509Y-63734709D01*
X58291509Y-63944233D02*
X58291509Y-63544233D01*
X58443890Y-63677566D02*
X58653414Y-63677566D01*
X58653414Y-63677566D02*
X58443890Y-63944233D01*
X58443890Y-63944233D02*
X58653414Y-63944233D01*
D11*
X67294232Y-66853581D02*
X66722804Y-66853581D01*
X67008518Y-66853581D02*
X67008518Y-65853581D01*
X67008518Y-65853581D02*
X66913280Y-65996438D01*
X66913280Y-65996438D02*
X66818042Y-66091676D01*
X66818042Y-66091676D02*
X66722804Y-66139295D01*
X67675185Y-65948819D02*
X67722804Y-65901200D01*
X67722804Y-65901200D02*
X67818042Y-65853581D01*
X67818042Y-65853581D02*
X68056137Y-65853581D01*
X68056137Y-65853581D02*
X68151375Y-65901200D01*
X68151375Y-65901200D02*
X68198994Y-65948819D01*
X68198994Y-65948819D02*
X68246613Y-66044057D01*
X68246613Y-66044057D02*
X68246613Y-66139295D01*
X68246613Y-66139295D02*
X68198994Y-66282152D01*
X68198994Y-66282152D02*
X67627566Y-66853581D01*
X67627566Y-66853581D02*
X68246613Y-66853581D01*
X68532328Y-65853581D02*
X68865661Y-66853581D01*
X68865661Y-66853581D02*
X69198994Y-65853581D01*
X69532328Y-66853581D02*
X69532328Y-65853581D01*
X70008518Y-66853581D02*
X70008518Y-65853581D01*
X70008518Y-65853581D02*
X70579946Y-66853581D01*
X70579946Y-66853581D02*
X70579946Y-65853581D01*
D12*
X47850985Y-65971462D02*
X47850985Y-66161938D01*
X47850985Y-66161938D02*
X48041461Y-66180986D01*
X48041461Y-66180986D02*
X48022414Y-66161938D01*
X48022414Y-66161938D02*
X48003366Y-66123843D01*
X48003366Y-66123843D02*
X48003366Y-66028605D01*
X48003366Y-66028605D02*
X48022414Y-65990510D01*
X48022414Y-65990510D02*
X48041461Y-65971462D01*
X48041461Y-65971462D02*
X48079557Y-65952415D01*
X48079557Y-65952415D02*
X48174795Y-65952415D01*
X48174795Y-65952415D02*
X48212890Y-65971462D01*
X48212890Y-65971462D02*
X48231938Y-65990510D01*
X48231938Y-65990510D02*
X48250985Y-66028605D01*
X48250985Y-66028605D02*
X48250985Y-66123843D01*
X48250985Y-66123843D02*
X48231938Y-66161938D01*
X48231938Y-66161938D02*
X48212890Y-66180986D01*
X47850985Y-65838129D02*
X48250985Y-65704796D01*
X48250985Y-65704796D02*
X47850985Y-65571463D01*
X47850985Y-65190510D02*
X48250985Y-65057177D01*
X48250985Y-65057177D02*
X47850985Y-64923844D01*
X48231938Y-64638129D02*
X48250985Y-64676225D01*
X48250985Y-64676225D02*
X48250985Y-64752415D01*
X48250985Y-64752415D02*
X48231938Y-64790510D01*
X48231938Y-64790510D02*
X48193842Y-64809558D01*
X48193842Y-64809558D02*
X48041461Y-64809558D01*
X48041461Y-64809558D02*
X48003366Y-64790510D01*
X48003366Y-64790510D02*
X47984318Y-64752415D01*
X47984318Y-64752415D02*
X47984318Y-64676225D01*
X47984318Y-64676225D02*
X48003366Y-64638129D01*
X48003366Y-64638129D02*
X48041461Y-64619082D01*
X48041461Y-64619082D02*
X48079557Y-64619082D01*
X48079557Y-64619082D02*
X48117652Y-64809558D01*
X48250985Y-64447653D02*
X47984318Y-64447653D01*
X48060509Y-64447653D02*
X48022414Y-64428606D01*
X48022414Y-64428606D02*
X48003366Y-64409558D01*
X48003366Y-64409558D02*
X47984318Y-64371463D01*
X47984318Y-64371463D02*
X47984318Y-64333368D01*
D11*
X55077326Y-66223262D02*
X54982088Y-66175643D01*
X54982088Y-66175643D02*
X54839231Y-66175643D01*
X54839231Y-66175643D02*
X54696374Y-66223262D01*
X54696374Y-66223262D02*
X54601136Y-66318500D01*
X54601136Y-66318500D02*
X54553517Y-66413738D01*
X54553517Y-66413738D02*
X54505898Y-66604214D01*
X54505898Y-66604214D02*
X54505898Y-66747071D01*
X54505898Y-66747071D02*
X54553517Y-66937547D01*
X54553517Y-66937547D02*
X54601136Y-67032785D01*
X54601136Y-67032785D02*
X54696374Y-67128024D01*
X54696374Y-67128024D02*
X54839231Y-67175643D01*
X54839231Y-67175643D02*
X54934469Y-67175643D01*
X54934469Y-67175643D02*
X55077326Y-67128024D01*
X55077326Y-67128024D02*
X55124945Y-67080404D01*
X55124945Y-67080404D02*
X55124945Y-66747071D01*
X55124945Y-66747071D02*
X54934469Y-66747071D01*
X55553517Y-67175643D02*
X55553517Y-66175643D01*
X55553517Y-66175643D02*
X56124945Y-67175643D01*
X56124945Y-67175643D02*
X56124945Y-66175643D01*
X56601136Y-67175643D02*
X56601136Y-66175643D01*
X56601136Y-66175643D02*
X56839231Y-66175643D01*
X56839231Y-66175643D02*
X56982088Y-66223262D01*
X56982088Y-66223262D02*
X57077326Y-66318500D01*
X57077326Y-66318500D02*
X57124945Y-66413738D01*
X57124945Y-66413738D02*
X57172564Y-66604214D01*
X57172564Y-66604214D02*
X57172564Y-66747071D01*
X57172564Y-66747071D02*
X57124945Y-66937547D01*
X57124945Y-66937547D02*
X57077326Y-67032785D01*
X57077326Y-67032785D02*
X56982088Y-67128024D01*
X56982088Y-67128024D02*
X56839231Y-67175643D01*
X56839231Y-67175643D02*
X56601136Y-67175643D01*
D13*
X54501139Y-64408103D02*
X54491616Y-64398579D01*
X54491616Y-64398579D02*
X54472568Y-64370008D01*
X54472568Y-64370008D02*
X54463044Y-64350960D01*
X54463044Y-64350960D02*
X54453520Y-64322389D01*
X54453520Y-64322389D02*
X54443997Y-64274769D01*
X54443997Y-64274769D02*
X54443997Y-64236674D01*
X54443997Y-64236674D02*
X54453520Y-64189055D01*
X54453520Y-64189055D02*
X54463044Y-64160484D01*
X54463044Y-64160484D02*
X54472568Y-64141436D01*
X54472568Y-64141436D02*
X54491616Y-64112865D01*
X54491616Y-64112865D02*
X54501139Y-64103341D01*
X54577330Y-64331912D02*
X54577330Y-64198579D01*
X54577330Y-64236674D02*
X54586853Y-64217627D01*
X54586853Y-64217627D02*
X54596377Y-64208103D01*
X54596377Y-64208103D02*
X54615425Y-64198579D01*
X54615425Y-64198579D02*
X54634472Y-64198579D01*
X54777330Y-64322389D02*
X54758282Y-64331912D01*
X54758282Y-64331912D02*
X54720187Y-64331912D01*
X54720187Y-64331912D02*
X54701140Y-64322389D01*
X54701140Y-64322389D02*
X54691616Y-64303341D01*
X54691616Y-64303341D02*
X54691616Y-64227150D01*
X54691616Y-64227150D02*
X54701140Y-64208103D01*
X54701140Y-64208103D02*
X54720187Y-64198579D01*
X54720187Y-64198579D02*
X54758282Y-64198579D01*
X54758282Y-64198579D02*
X54777330Y-64208103D01*
X54777330Y-64208103D02*
X54786854Y-64227150D01*
X54786854Y-64227150D02*
X54786854Y-64246198D01*
X54786854Y-64246198D02*
X54691616Y-64265246D01*
X54843997Y-64198579D02*
X54920188Y-64198579D01*
X54872569Y-64331912D02*
X54872569Y-64160484D01*
X54872569Y-64160484D02*
X54882092Y-64141436D01*
X54882092Y-64141436D02*
X54901140Y-64131912D01*
X54901140Y-64131912D02*
X54920188Y-64131912D01*
X55063045Y-64322389D02*
X55043997Y-64331912D01*
X55043997Y-64331912D02*
X55005902Y-64331912D01*
X55005902Y-64331912D02*
X54986855Y-64322389D01*
X54986855Y-64322389D02*
X54977331Y-64303341D01*
X54977331Y-64303341D02*
X54977331Y-64227150D01*
X54977331Y-64227150D02*
X54986855Y-64208103D01*
X54986855Y-64208103D02*
X55005902Y-64198579D01*
X55005902Y-64198579D02*
X55043997Y-64198579D01*
X55043997Y-64198579D02*
X55063045Y-64208103D01*
X55063045Y-64208103D02*
X55072569Y-64227150D01*
X55072569Y-64227150D02*
X55072569Y-64246198D01*
X55072569Y-64246198D02*
X54977331Y-64265246D01*
X55158284Y-64331912D02*
X55158284Y-64198579D01*
X55158284Y-64236674D02*
X55167807Y-64217627D01*
X55167807Y-64217627D02*
X55177331Y-64208103D01*
X55177331Y-64208103D02*
X55196379Y-64198579D01*
X55196379Y-64198579D02*
X55215426Y-64198579D01*
X55405903Y-64198579D02*
X55482094Y-64198579D01*
X55434475Y-64131912D02*
X55434475Y-64303341D01*
X55434475Y-64303341D02*
X55443998Y-64322389D01*
X55443998Y-64322389D02*
X55463046Y-64331912D01*
X55463046Y-64331912D02*
X55482094Y-64331912D01*
X55577332Y-64331912D02*
X55558284Y-64322389D01*
X55558284Y-64322389D02*
X55548761Y-64312865D01*
X55548761Y-64312865D02*
X55539237Y-64293817D01*
X55539237Y-64293817D02*
X55539237Y-64236674D01*
X55539237Y-64236674D02*
X55548761Y-64217627D01*
X55548761Y-64217627D02*
X55558284Y-64208103D01*
X55558284Y-64208103D02*
X55577332Y-64198579D01*
X55577332Y-64198579D02*
X55605903Y-64198579D01*
X55605903Y-64198579D02*
X55624951Y-64208103D01*
X55624951Y-64208103D02*
X55634475Y-64217627D01*
X55634475Y-64217627D02*
X55643999Y-64236674D01*
X55643999Y-64236674D02*
X55643999Y-64293817D01*
X55643999Y-64293817D02*
X55634475Y-64312865D01*
X55634475Y-64312865D02*
X55624951Y-64322389D01*
X55624951Y-64322389D02*
X55605903Y-64331912D01*
X55605903Y-64331912D02*
X55577332Y-64331912D01*
X55967808Y-64331912D02*
X55967808Y-64131912D01*
X55967808Y-64322389D02*
X55948760Y-64331912D01*
X55948760Y-64331912D02*
X55910665Y-64331912D01*
X55910665Y-64331912D02*
X55891617Y-64322389D01*
X55891617Y-64322389D02*
X55882094Y-64312865D01*
X55882094Y-64312865D02*
X55872570Y-64293817D01*
X55872570Y-64293817D02*
X55872570Y-64236674D01*
X55872570Y-64236674D02*
X55882094Y-64217627D01*
X55882094Y-64217627D02*
X55891617Y-64208103D01*
X55891617Y-64208103D02*
X55910665Y-64198579D01*
X55910665Y-64198579D02*
X55948760Y-64198579D01*
X55948760Y-64198579D02*
X55967808Y-64208103D01*
X56148760Y-64331912D02*
X56148760Y-64227150D01*
X56148760Y-64227150D02*
X56139236Y-64208103D01*
X56139236Y-64208103D02*
X56120188Y-64198579D01*
X56120188Y-64198579D02*
X56082093Y-64198579D01*
X56082093Y-64198579D02*
X56063046Y-64208103D01*
X56148760Y-64322389D02*
X56129712Y-64331912D01*
X56129712Y-64331912D02*
X56082093Y-64331912D01*
X56082093Y-64331912D02*
X56063046Y-64322389D01*
X56063046Y-64322389D02*
X56053522Y-64303341D01*
X56053522Y-64303341D02*
X56053522Y-64284293D01*
X56053522Y-64284293D02*
X56063046Y-64265246D01*
X56063046Y-64265246D02*
X56082093Y-64255722D01*
X56082093Y-64255722D02*
X56129712Y-64255722D01*
X56129712Y-64255722D02*
X56148760Y-64246198D01*
X56215426Y-64198579D02*
X56291617Y-64198579D01*
X56243998Y-64131912D02*
X56243998Y-64303341D01*
X56243998Y-64303341D02*
X56253521Y-64322389D01*
X56253521Y-64322389D02*
X56272569Y-64331912D01*
X56272569Y-64331912D02*
X56291617Y-64331912D01*
X56443998Y-64331912D02*
X56443998Y-64227150D01*
X56443998Y-64227150D02*
X56434474Y-64208103D01*
X56434474Y-64208103D02*
X56415426Y-64198579D01*
X56415426Y-64198579D02*
X56377331Y-64198579D01*
X56377331Y-64198579D02*
X56358284Y-64208103D01*
X56443998Y-64322389D02*
X56424950Y-64331912D01*
X56424950Y-64331912D02*
X56377331Y-64331912D01*
X56377331Y-64331912D02*
X56358284Y-64322389D01*
X56358284Y-64322389D02*
X56348760Y-64303341D01*
X56348760Y-64303341D02*
X56348760Y-64284293D01*
X56348760Y-64284293D02*
X56358284Y-64265246D01*
X56358284Y-64265246D02*
X56377331Y-64255722D01*
X56377331Y-64255722D02*
X56424950Y-64255722D01*
X56424950Y-64255722D02*
X56443998Y-64246198D01*
X56529712Y-64322389D02*
X56548759Y-64331912D01*
X56548759Y-64331912D02*
X56586855Y-64331912D01*
X56586855Y-64331912D02*
X56605902Y-64322389D01*
X56605902Y-64322389D02*
X56615426Y-64303341D01*
X56615426Y-64303341D02*
X56615426Y-64293817D01*
X56615426Y-64293817D02*
X56605902Y-64274769D01*
X56605902Y-64274769D02*
X56586855Y-64265246D01*
X56586855Y-64265246D02*
X56558283Y-64265246D01*
X56558283Y-64265246D02*
X56539236Y-64255722D01*
X56539236Y-64255722D02*
X56529712Y-64236674D01*
X56529712Y-64236674D02*
X56529712Y-64227150D01*
X56529712Y-64227150D02*
X56539236Y-64208103D01*
X56539236Y-64208103D02*
X56558283Y-64198579D01*
X56558283Y-64198579D02*
X56586855Y-64198579D01*
X56586855Y-64198579D02*
X56605902Y-64208103D01*
X56701141Y-64331912D02*
X56701141Y-64131912D01*
X56786855Y-64331912D02*
X56786855Y-64227150D01*
X56786855Y-64227150D02*
X56777331Y-64208103D01*
X56777331Y-64208103D02*
X56758283Y-64198579D01*
X56758283Y-64198579D02*
X56729712Y-64198579D01*
X56729712Y-64198579D02*
X56710664Y-64208103D01*
X56710664Y-64208103D02*
X56701141Y-64217627D01*
X56958283Y-64322389D02*
X56939235Y-64331912D01*
X56939235Y-64331912D02*
X56901140Y-64331912D01*
X56901140Y-64331912D02*
X56882093Y-64322389D01*
X56882093Y-64322389D02*
X56872569Y-64303341D01*
X56872569Y-64303341D02*
X56872569Y-64227150D01*
X56872569Y-64227150D02*
X56882093Y-64208103D01*
X56882093Y-64208103D02*
X56901140Y-64198579D01*
X56901140Y-64198579D02*
X56939235Y-64198579D01*
X56939235Y-64198579D02*
X56958283Y-64208103D01*
X56958283Y-64208103D02*
X56967807Y-64227150D01*
X56967807Y-64227150D02*
X56967807Y-64246198D01*
X56967807Y-64246198D02*
X56872569Y-64265246D01*
X57129712Y-64322389D02*
X57110664Y-64331912D01*
X57110664Y-64331912D02*
X57072569Y-64331912D01*
X57072569Y-64331912D02*
X57053522Y-64322389D01*
X57053522Y-64322389D02*
X57043998Y-64303341D01*
X57043998Y-64303341D02*
X57043998Y-64227150D01*
X57043998Y-64227150D02*
X57053522Y-64208103D01*
X57053522Y-64208103D02*
X57072569Y-64198579D01*
X57072569Y-64198579D02*
X57110664Y-64198579D01*
X57110664Y-64198579D02*
X57129712Y-64208103D01*
X57129712Y-64208103D02*
X57139236Y-64227150D01*
X57139236Y-64227150D02*
X57139236Y-64246198D01*
X57139236Y-64246198D02*
X57043998Y-64265246D01*
X57196379Y-64198579D02*
X57272570Y-64198579D01*
X57224951Y-64131912D02*
X57224951Y-64303341D01*
X57224951Y-64303341D02*
X57234474Y-64322389D01*
X57234474Y-64322389D02*
X57253522Y-64331912D01*
X57253522Y-64331912D02*
X57272570Y-64331912D01*
X57463046Y-64198579D02*
X57539237Y-64198579D01*
X57491618Y-64331912D02*
X57491618Y-64160484D01*
X57491618Y-64160484D02*
X57501141Y-64141436D01*
X57501141Y-64141436D02*
X57520189Y-64131912D01*
X57520189Y-64131912D02*
X57539237Y-64131912D01*
X57634475Y-64331912D02*
X57615427Y-64322389D01*
X57615427Y-64322389D02*
X57605904Y-64312865D01*
X57605904Y-64312865D02*
X57596380Y-64293817D01*
X57596380Y-64293817D02*
X57596380Y-64236674D01*
X57596380Y-64236674D02*
X57605904Y-64217627D01*
X57605904Y-64217627D02*
X57615427Y-64208103D01*
X57615427Y-64208103D02*
X57634475Y-64198579D01*
X57634475Y-64198579D02*
X57663046Y-64198579D01*
X57663046Y-64198579D02*
X57682094Y-64208103D01*
X57682094Y-64208103D02*
X57691618Y-64217627D01*
X57691618Y-64217627D02*
X57701142Y-64236674D01*
X57701142Y-64236674D02*
X57701142Y-64293817D01*
X57701142Y-64293817D02*
X57691618Y-64312865D01*
X57691618Y-64312865D02*
X57682094Y-64322389D01*
X57682094Y-64322389D02*
X57663046Y-64331912D01*
X57663046Y-64331912D02*
X57634475Y-64331912D01*
X57786856Y-64331912D02*
X57786856Y-64198579D01*
X57786856Y-64236674D02*
X57796379Y-64217627D01*
X57796379Y-64217627D02*
X57805903Y-64208103D01*
X57805903Y-64208103D02*
X57824951Y-64198579D01*
X57824951Y-64198579D02*
X57843998Y-64198579D01*
X58034475Y-64198579D02*
X58110666Y-64198579D01*
X58063047Y-64331912D02*
X58063047Y-64160484D01*
X58063047Y-64160484D02*
X58072570Y-64141436D01*
X58072570Y-64141436D02*
X58091618Y-64131912D01*
X58091618Y-64131912D02*
X58110666Y-64131912D01*
X58205904Y-64331912D02*
X58186856Y-64322389D01*
X58186856Y-64322389D02*
X58177333Y-64312865D01*
X58177333Y-64312865D02*
X58167809Y-64293817D01*
X58167809Y-64293817D02*
X58167809Y-64236674D01*
X58167809Y-64236674D02*
X58177333Y-64217627D01*
X58177333Y-64217627D02*
X58186856Y-64208103D01*
X58186856Y-64208103D02*
X58205904Y-64198579D01*
X58205904Y-64198579D02*
X58234475Y-64198579D01*
X58234475Y-64198579D02*
X58253523Y-64208103D01*
X58253523Y-64208103D02*
X58263047Y-64217627D01*
X58263047Y-64217627D02*
X58272571Y-64236674D01*
X58272571Y-64236674D02*
X58272571Y-64293817D01*
X58272571Y-64293817D02*
X58263047Y-64312865D01*
X58263047Y-64312865D02*
X58253523Y-64322389D01*
X58253523Y-64322389D02*
X58234475Y-64331912D01*
X58234475Y-64331912D02*
X58205904Y-64331912D01*
X58358285Y-64331912D02*
X58358285Y-64198579D01*
X58358285Y-64236674D02*
X58367808Y-64217627D01*
X58367808Y-64217627D02*
X58377332Y-64208103D01*
X58377332Y-64208103D02*
X58396380Y-64198579D01*
X58396380Y-64198579D02*
X58415427Y-64198579D01*
X58482095Y-64331912D02*
X58482095Y-64198579D01*
X58482095Y-64217627D02*
X58491618Y-64208103D01*
X58491618Y-64208103D02*
X58510666Y-64198579D01*
X58510666Y-64198579D02*
X58539237Y-64198579D01*
X58539237Y-64198579D02*
X58558285Y-64208103D01*
X58558285Y-64208103D02*
X58567809Y-64227150D01*
X58567809Y-64227150D02*
X58567809Y-64331912D01*
X58567809Y-64227150D02*
X58577333Y-64208103D01*
X58577333Y-64208103D02*
X58596380Y-64198579D01*
X58596380Y-64198579D02*
X58624952Y-64198579D01*
X58624952Y-64198579D02*
X58643999Y-64208103D01*
X58643999Y-64208103D02*
X58653523Y-64227150D01*
X58653523Y-64227150D02*
X58653523Y-64331912D01*
X58834476Y-64198579D02*
X58834476Y-64331912D01*
X58748762Y-64198579D02*
X58748762Y-64303341D01*
X58748762Y-64303341D02*
X58758285Y-64322389D01*
X58758285Y-64322389D02*
X58777333Y-64331912D01*
X58777333Y-64331912D02*
X58805904Y-64331912D01*
X58805904Y-64331912D02*
X58824952Y-64322389D01*
X58824952Y-64322389D02*
X58834476Y-64312865D01*
X58958285Y-64331912D02*
X58939237Y-64322389D01*
X58939237Y-64322389D02*
X58929714Y-64303341D01*
X58929714Y-64303341D02*
X58929714Y-64131912D01*
X59120190Y-64331912D02*
X59120190Y-64227150D01*
X59120190Y-64227150D02*
X59110666Y-64208103D01*
X59110666Y-64208103D02*
X59091618Y-64198579D01*
X59091618Y-64198579D02*
X59053523Y-64198579D01*
X59053523Y-64198579D02*
X59034476Y-64208103D01*
X59120190Y-64322389D02*
X59101142Y-64331912D01*
X59101142Y-64331912D02*
X59053523Y-64331912D01*
X59053523Y-64331912D02*
X59034476Y-64322389D01*
X59034476Y-64322389D02*
X59024952Y-64303341D01*
X59024952Y-64303341D02*
X59024952Y-64284293D01*
X59024952Y-64284293D02*
X59034476Y-64265246D01*
X59034476Y-64265246D02*
X59053523Y-64255722D01*
X59053523Y-64255722D02*
X59101142Y-64255722D01*
X59101142Y-64255722D02*
X59120190Y-64246198D01*
X59196380Y-64408103D02*
X59205904Y-64398579D01*
X59205904Y-64398579D02*
X59224951Y-64370008D01*
X59224951Y-64370008D02*
X59234475Y-64350960D01*
X59234475Y-64350960D02*
X59243999Y-64322389D01*
X59243999Y-64322389D02*
X59253523Y-64274769D01*
X59253523Y-64274769D02*
X59253523Y-64236674D01*
X59253523Y-64236674D02*
X59243999Y-64189055D01*
X59243999Y-64189055D02*
X59234475Y-64160484D01*
X59234475Y-64160484D02*
X59224951Y-64141436D01*
X59224951Y-64141436D02*
X59205904Y-64112865D01*
X59205904Y-64112865D02*
X59196380Y-64103341D01*
D14*
X72945331Y-63852910D02*
X72945331Y-64195767D01*
X72945331Y-64024338D02*
X72345331Y-64024338D01*
X72345331Y-64024338D02*
X72431045Y-64081481D01*
X72431045Y-64081481D02*
X72488188Y-64138624D01*
X72488188Y-64138624D02*
X72516760Y-64195767D01*
X72402474Y-63624338D02*
X72373902Y-63595766D01*
X72373902Y-63595766D02*
X72345331Y-63538624D01*
X72345331Y-63538624D02*
X72345331Y-63395766D01*
X72345331Y-63395766D02*
X72373902Y-63338624D01*
X72373902Y-63338624D02*
X72402474Y-63310052D01*
X72402474Y-63310052D02*
X72459617Y-63281481D01*
X72459617Y-63281481D02*
X72516760Y-63281481D01*
X72516760Y-63281481D02*
X72602474Y-63310052D01*
X72602474Y-63310052D02*
X72945331Y-63652909D01*
X72945331Y-63652909D02*
X72945331Y-63281481D01*
X72345331Y-63110052D02*
X72945331Y-62910052D01*
X72945331Y-62910052D02*
X72345331Y-62710052D01*
X72631045Y-61852908D02*
X72659617Y-61767194D01*
X72659617Y-61767194D02*
X72688188Y-61738623D01*
X72688188Y-61738623D02*
X72745331Y-61710051D01*
X72745331Y-61710051D02*
X72831045Y-61710051D01*
X72831045Y-61710051D02*
X72888188Y-61738623D01*
X72888188Y-61738623D02*
X72916760Y-61767194D01*
X72916760Y-61767194D02*
X72945331Y-61824337D01*
X72945331Y-61824337D02*
X72945331Y-62052908D01*
X72945331Y-62052908D02*
X72345331Y-62052908D01*
X72345331Y-62052908D02*
X72345331Y-61852908D01*
X72345331Y-61852908D02*
X72373902Y-61795766D01*
X72373902Y-61795766D02*
X72402474Y-61767194D01*
X72402474Y-61767194D02*
X72459617Y-61738623D01*
X72459617Y-61738623D02*
X72516760Y-61738623D01*
X72516760Y-61738623D02*
X72573902Y-61767194D01*
X72573902Y-61767194D02*
X72602474Y-61795766D01*
X72602474Y-61795766D02*
X72631045Y-61852908D01*
X72631045Y-61852908D02*
X72631045Y-62052908D01*
X72545331Y-61195766D02*
X72945331Y-61195766D01*
X72545331Y-61452908D02*
X72859617Y-61452908D01*
X72859617Y-61452908D02*
X72916760Y-61424337D01*
X72916760Y-61424337D02*
X72945331Y-61367194D01*
X72945331Y-61367194D02*
X72945331Y-61281480D01*
X72945331Y-61281480D02*
X72916760Y-61224337D01*
X72916760Y-61224337D02*
X72888188Y-61195766D01*
X72916760Y-60652909D02*
X72945331Y-60710051D01*
X72945331Y-60710051D02*
X72945331Y-60824337D01*
X72945331Y-60824337D02*
X72916760Y-60881480D01*
X72916760Y-60881480D02*
X72888188Y-60910051D01*
X72888188Y-60910051D02*
X72831045Y-60938623D01*
X72831045Y-60938623D02*
X72659617Y-60938623D01*
X72659617Y-60938623D02*
X72602474Y-60910051D01*
X72602474Y-60910051D02*
X72573902Y-60881480D01*
X72573902Y-60881480D02*
X72545331Y-60824337D01*
X72545331Y-60824337D02*
X72545331Y-60710051D01*
X72545331Y-60710051D02*
X72573902Y-60652909D01*
X72945331Y-60395765D02*
X72345331Y-60395765D01*
X72716760Y-60338623D02*
X72945331Y-60167194D01*
X72545331Y-60167194D02*
X72773902Y-60395765D01*
X72888188Y-59110051D02*
X72916760Y-59138623D01*
X72916760Y-59138623D02*
X72945331Y-59224337D01*
X72945331Y-59224337D02*
X72945331Y-59281480D01*
X72945331Y-59281480D02*
X72916760Y-59367194D01*
X72916760Y-59367194D02*
X72859617Y-59424337D01*
X72859617Y-59424337D02*
X72802474Y-59452908D01*
X72802474Y-59452908D02*
X72688188Y-59481480D01*
X72688188Y-59481480D02*
X72602474Y-59481480D01*
X72602474Y-59481480D02*
X72488188Y-59452908D01*
X72488188Y-59452908D02*
X72431045Y-59424337D01*
X72431045Y-59424337D02*
X72373902Y-59367194D01*
X72373902Y-59367194D02*
X72345331Y-59281480D01*
X72345331Y-59281480D02*
X72345331Y-59224337D01*
X72345331Y-59224337D02*
X72373902Y-59138623D01*
X72373902Y-59138623D02*
X72402474Y-59110051D01*
X72945331Y-58767194D02*
X72916760Y-58824337D01*
X72916760Y-58824337D02*
X72888188Y-58852908D01*
X72888188Y-58852908D02*
X72831045Y-58881480D01*
X72831045Y-58881480D02*
X72659617Y-58881480D01*
X72659617Y-58881480D02*
X72602474Y-58852908D01*
X72602474Y-58852908D02*
X72573902Y-58824337D01*
X72573902Y-58824337D02*
X72545331Y-58767194D01*
X72545331Y-58767194D02*
X72545331Y-58681480D01*
X72545331Y-58681480D02*
X72573902Y-58624337D01*
X72573902Y-58624337D02*
X72602474Y-58595766D01*
X72602474Y-58595766D02*
X72659617Y-58567194D01*
X72659617Y-58567194D02*
X72831045Y-58567194D01*
X72831045Y-58567194D02*
X72888188Y-58595766D01*
X72888188Y-58595766D02*
X72916760Y-58624337D01*
X72916760Y-58624337D02*
X72945331Y-58681480D01*
X72945331Y-58681480D02*
X72945331Y-58767194D01*
X72545331Y-58310051D02*
X72945331Y-58310051D01*
X72602474Y-58310051D02*
X72573902Y-58281480D01*
X72573902Y-58281480D02*
X72545331Y-58224337D01*
X72545331Y-58224337D02*
X72545331Y-58138623D01*
X72545331Y-58138623D02*
X72573902Y-58081480D01*
X72573902Y-58081480D02*
X72631045Y-58052909D01*
X72631045Y-58052909D02*
X72945331Y-58052909D01*
X72545331Y-57824337D02*
X72945331Y-57681480D01*
X72945331Y-57681480D02*
X72545331Y-57538623D01*
X72916760Y-57081480D02*
X72945331Y-57138623D01*
X72945331Y-57138623D02*
X72945331Y-57252909D01*
X72945331Y-57252909D02*
X72916760Y-57310051D01*
X72916760Y-57310051D02*
X72859617Y-57338623D01*
X72859617Y-57338623D02*
X72631045Y-57338623D01*
X72631045Y-57338623D02*
X72573902Y-57310051D01*
X72573902Y-57310051D02*
X72545331Y-57252909D01*
X72545331Y-57252909D02*
X72545331Y-57138623D01*
X72545331Y-57138623D02*
X72573902Y-57081480D01*
X72573902Y-57081480D02*
X72631045Y-57052909D01*
X72631045Y-57052909D02*
X72688188Y-57052909D01*
X72688188Y-57052909D02*
X72745331Y-57338623D01*
X72945331Y-56795765D02*
X72545331Y-56795765D01*
X72659617Y-56795765D02*
X72602474Y-56767194D01*
X72602474Y-56767194D02*
X72573902Y-56738623D01*
X72573902Y-56738623D02*
X72545331Y-56681480D01*
X72545331Y-56681480D02*
X72545331Y-56624337D01*
X72545331Y-56510051D02*
X72545331Y-56281479D01*
X72345331Y-56424336D02*
X72859617Y-56424336D01*
X72859617Y-56424336D02*
X72916760Y-56395765D01*
X72916760Y-56395765D02*
X72945331Y-56338622D01*
X72945331Y-56338622D02*
X72945331Y-56281479D01*
X72916760Y-55852908D02*
X72945331Y-55910051D01*
X72945331Y-55910051D02*
X72945331Y-56024337D01*
X72945331Y-56024337D02*
X72916760Y-56081479D01*
X72916760Y-56081479D02*
X72859617Y-56110051D01*
X72859617Y-56110051D02*
X72631045Y-56110051D01*
X72631045Y-56110051D02*
X72573902Y-56081479D01*
X72573902Y-56081479D02*
X72545331Y-56024337D01*
X72545331Y-56024337D02*
X72545331Y-55910051D01*
X72545331Y-55910051D02*
X72573902Y-55852908D01*
X72573902Y-55852908D02*
X72631045Y-55824337D01*
X72631045Y-55824337D02*
X72688188Y-55824337D01*
X72688188Y-55824337D02*
X72745331Y-56110051D01*
X72945331Y-55567193D02*
X72545331Y-55567193D01*
X72659617Y-55567193D02*
X72602474Y-55538622D01*
X72602474Y-55538622D02*
X72573902Y-55510051D01*
X72573902Y-55510051D02*
X72545331Y-55452908D01*
X72545331Y-55452908D02*
X72545331Y-55395765D01*
D15*
X51528593Y-58736252D02*
X51576213Y-58783871D01*
X51576213Y-58783871D02*
X51623832Y-58926728D01*
X51623832Y-58926728D02*
X51623832Y-59021966D01*
X51623832Y-59021966D02*
X51576213Y-59164823D01*
X51576213Y-59164823D02*
X51480974Y-59260061D01*
X51480974Y-59260061D02*
X51385736Y-59307680D01*
X51385736Y-59307680D02*
X51195260Y-59355299D01*
X51195260Y-59355299D02*
X51052403Y-59355299D01*
X51052403Y-59355299D02*
X50861927Y-59307680D01*
X50861927Y-59307680D02*
X50766689Y-59260061D01*
X50766689Y-59260061D02*
X50671451Y-59164823D01*
X50671451Y-59164823D02*
X50623832Y-59021966D01*
X50623832Y-59021966D02*
X50623832Y-58926728D01*
X50623832Y-58926728D02*
X50671451Y-58783871D01*
X50671451Y-58783871D02*
X50719070Y-58736252D01*
X51623832Y-57783871D02*
X51623832Y-58355299D01*
X51623832Y-58069585D02*
X50623832Y-58069585D01*
X50623832Y-58069585D02*
X50766689Y-58164823D01*
X50766689Y-58164823D02*
X50861927Y-58260061D01*
X50861927Y-58260061D02*
X50909546Y-58355299D01*
X55371904Y-52980218D02*
X54895714Y-52980218D01*
X54895714Y-52980218D02*
X54895714Y-51980218D01*
X56229047Y-52980218D02*
X55657619Y-52980218D01*
X55943333Y-52980218D02*
X55943333Y-51980218D01*
X55943333Y-51980218D02*
X55848095Y-52123075D01*
X55848095Y-52123075D02*
X55752857Y-52218313D01*
X55752857Y-52218313D02*
X55657619Y-52265932D01*
X51159580Y-65444666D02*
X51207200Y-65492285D01*
X51207200Y-65492285D02*
X51254819Y-65635142D01*
X51254819Y-65635142D02*
X51254819Y-65730380D01*
X51254819Y-65730380D02*
X51207200Y-65873237D01*
X51207200Y-65873237D02*
X51111961Y-65968475D01*
X51111961Y-65968475D02*
X51016723Y-66016094D01*
X51016723Y-66016094D02*
X50826247Y-66063713D01*
X50826247Y-66063713D02*
X50683390Y-66063713D01*
X50683390Y-66063713D02*
X50492914Y-66016094D01*
X50492914Y-66016094D02*
X50397676Y-65968475D01*
X50397676Y-65968475D02*
X50302438Y-65873237D01*
X50302438Y-65873237D02*
X50254819Y-65730380D01*
X50254819Y-65730380D02*
X50254819Y-65635142D01*
X50254819Y-65635142D02*
X50302438Y-65492285D01*
X50302438Y-65492285D02*
X50350057Y-65444666D01*
X50254819Y-65111332D02*
X50254819Y-64492285D01*
X50254819Y-64492285D02*
X50635771Y-64825618D01*
X50635771Y-64825618D02*
X50635771Y-64682761D01*
X50635771Y-64682761D02*
X50683390Y-64587523D01*
X50683390Y-64587523D02*
X50731009Y-64539904D01*
X50731009Y-64539904D02*
X50826247Y-64492285D01*
X50826247Y-64492285D02*
X51064342Y-64492285D01*
X51064342Y-64492285D02*
X51159580Y-64539904D01*
X51159580Y-64539904D02*
X51207200Y-64587523D01*
X51207200Y-64587523D02*
X51254819Y-64682761D01*
X51254819Y-64682761D02*
X51254819Y-64968475D01*
X51254819Y-64968475D02*
X51207200Y-65063713D01*
X51207200Y-65063713D02*
X51159580Y-65111332D01*
X54798933Y-62481619D02*
X54465600Y-62005428D01*
X54227505Y-62481619D02*
X54227505Y-61481619D01*
X54227505Y-61481619D02*
X54608457Y-61481619D01*
X54608457Y-61481619D02*
X54703695Y-61529238D01*
X54703695Y-61529238D02*
X54751314Y-61576857D01*
X54751314Y-61576857D02*
X54798933Y-61672095D01*
X54798933Y-61672095D02*
X54798933Y-61814952D01*
X54798933Y-61814952D02*
X54751314Y-61910190D01*
X54751314Y-61910190D02*
X54703695Y-61957809D01*
X54703695Y-61957809D02*
X54608457Y-62005428D01*
X54608457Y-62005428D02*
X54227505Y-62005428D01*
X55132267Y-61481619D02*
X55798933Y-61481619D01*
X55798933Y-61481619D02*
X55370362Y-62481619D01*
X65397142Y-64240580D02*
X65349523Y-64288200D01*
X65349523Y-64288200D02*
X65206666Y-64335819D01*
X65206666Y-64335819D02*
X65111428Y-64335819D01*
X65111428Y-64335819D02*
X64968571Y-64288200D01*
X64968571Y-64288200D02*
X64873333Y-64192961D01*
X64873333Y-64192961D02*
X64825714Y-64097723D01*
X64825714Y-64097723D02*
X64778095Y-63907247D01*
X64778095Y-63907247D02*
X64778095Y-63764390D01*
X64778095Y-63764390D02*
X64825714Y-63573914D01*
X64825714Y-63573914D02*
X64873333Y-63478676D01*
X64873333Y-63478676D02*
X64968571Y-63383438D01*
X64968571Y-63383438D02*
X65111428Y-63335819D01*
X65111428Y-63335819D02*
X65206666Y-63335819D01*
X65206666Y-63335819D02*
X65349523Y-63383438D01*
X65349523Y-63383438D02*
X65397142Y-63431057D01*
X66349523Y-64335819D02*
X65778095Y-64335819D01*
X66063809Y-64335819D02*
X66063809Y-63335819D01*
X66063809Y-63335819D02*
X65968571Y-63478676D01*
X65968571Y-63478676D02*
X65873333Y-63573914D01*
X65873333Y-63573914D02*
X65778095Y-63621533D01*
X66968571Y-63335819D02*
X67063809Y-63335819D01*
X67063809Y-63335819D02*
X67159047Y-63383438D01*
X67159047Y-63383438D02*
X67206666Y-63431057D01*
X67206666Y-63431057D02*
X67254285Y-63526295D01*
X67254285Y-63526295D02*
X67301904Y-63716771D01*
X67301904Y-63716771D02*
X67301904Y-63954866D01*
X67301904Y-63954866D02*
X67254285Y-64145342D01*
X67254285Y-64145342D02*
X67206666Y-64240580D01*
X67206666Y-64240580D02*
X67159047Y-64288200D01*
X67159047Y-64288200D02*
X67063809Y-64335819D01*
X67063809Y-64335819D02*
X66968571Y-64335819D01*
X66968571Y-64335819D02*
X66873333Y-64288200D01*
X66873333Y-64288200D02*
X66825714Y-64240580D01*
X66825714Y-64240580D02*
X66778095Y-64145342D01*
X66778095Y-64145342D02*
X66730476Y-63954866D01*
X66730476Y-63954866D02*
X66730476Y-63716771D01*
X66730476Y-63716771D02*
X66778095Y-63526295D01*
X66778095Y-63526295D02*
X66825714Y-63431057D01*
X66825714Y-63431057D02*
X66873333Y-63383438D01*
X66873333Y-63383438D02*
X66968571Y-63335819D01*
D16*
X60185704Y-48281701D02*
X60214276Y-48310273D01*
X60214276Y-48310273D02*
X60242847Y-48395987D01*
X60242847Y-48395987D02*
X60242847Y-48453130D01*
X60242847Y-48453130D02*
X60214276Y-48538844D01*
X60214276Y-48538844D02*
X60157133Y-48595987D01*
X60157133Y-48595987D02*
X60099990Y-48624558D01*
X60099990Y-48624558D02*
X59985704Y-48653130D01*
X59985704Y-48653130D02*
X59899990Y-48653130D01*
X59899990Y-48653130D02*
X59785704Y-48624558D01*
X59785704Y-48624558D02*
X59728561Y-48595987D01*
X59728561Y-48595987D02*
X59671418Y-48538844D01*
X59671418Y-48538844D02*
X59642847Y-48453130D01*
X59642847Y-48453130D02*
X59642847Y-48395987D01*
X59642847Y-48395987D02*
X59671418Y-48310273D01*
X59671418Y-48310273D02*
X59699990Y-48281701D01*
X60242847Y-47995987D02*
X60242847Y-47881701D01*
X60242847Y-47881701D02*
X60214276Y-47824558D01*
X60214276Y-47824558D02*
X60185704Y-47795987D01*
X60185704Y-47795987D02*
X60099990Y-47738844D01*
X60099990Y-47738844D02*
X59985704Y-47710273D01*
X59985704Y-47710273D02*
X59757133Y-47710273D01*
X59757133Y-47710273D02*
X59699990Y-47738844D01*
X59699990Y-47738844D02*
X59671418Y-47767416D01*
X59671418Y-47767416D02*
X59642847Y-47824558D01*
X59642847Y-47824558D02*
X59642847Y-47938844D01*
X59642847Y-47938844D02*
X59671418Y-47995987D01*
X59671418Y-47995987D02*
X59699990Y-48024558D01*
X59699990Y-48024558D02*
X59757133Y-48053130D01*
X59757133Y-48053130D02*
X59899990Y-48053130D01*
X59899990Y-48053130D02*
X59957133Y-48024558D01*
X59957133Y-48024558D02*
X59985704Y-47995987D01*
X59985704Y-47995987D02*
X60014276Y-47938844D01*
X60014276Y-47938844D02*
X60014276Y-47824558D01*
X60014276Y-47824558D02*
X59985704Y-47767416D01*
X59985704Y-47767416D02*
X59957133Y-47738844D01*
X59957133Y-47738844D02*
X59899990Y-47710273D01*
X64859528Y-55725999D02*
X64888100Y-55754571D01*
X64888100Y-55754571D02*
X64916671Y-55840285D01*
X64916671Y-55840285D02*
X64916671Y-55897428D01*
X64916671Y-55897428D02*
X64888100Y-55983142D01*
X64888100Y-55983142D02*
X64830957Y-56040285D01*
X64830957Y-56040285D02*
X64773814Y-56068856D01*
X64773814Y-56068856D02*
X64659528Y-56097428D01*
X64659528Y-56097428D02*
X64573814Y-56097428D01*
X64573814Y-56097428D02*
X64459528Y-56068856D01*
X64459528Y-56068856D02*
X64402385Y-56040285D01*
X64402385Y-56040285D02*
X64345242Y-55983142D01*
X64345242Y-55983142D02*
X64316671Y-55897428D01*
X64316671Y-55897428D02*
X64316671Y-55840285D01*
X64316671Y-55840285D02*
X64345242Y-55754571D01*
X64345242Y-55754571D02*
X64373814Y-55725999D01*
X64316671Y-55211714D02*
X64316671Y-55325999D01*
X64316671Y-55325999D02*
X64345242Y-55383142D01*
X64345242Y-55383142D02*
X64373814Y-55411714D01*
X64373814Y-55411714D02*
X64459528Y-55468856D01*
X64459528Y-55468856D02*
X64573814Y-55497428D01*
X64573814Y-55497428D02*
X64802385Y-55497428D01*
X64802385Y-55497428D02*
X64859528Y-55468856D01*
X64859528Y-55468856D02*
X64888100Y-55440285D01*
X64888100Y-55440285D02*
X64916671Y-55383142D01*
X64916671Y-55383142D02*
X64916671Y-55268856D01*
X64916671Y-55268856D02*
X64888100Y-55211714D01*
X64888100Y-55211714D02*
X64859528Y-55183142D01*
X64859528Y-55183142D02*
X64802385Y-55154571D01*
X64802385Y-55154571D02*
X64659528Y-55154571D01*
X64659528Y-55154571D02*
X64602385Y-55183142D01*
X64602385Y-55183142D02*
X64573814Y-55211714D01*
X64573814Y-55211714D02*
X64545242Y-55268856D01*
X64545242Y-55268856D02*
X64545242Y-55383142D01*
X64545242Y-55383142D02*
X64573814Y-55440285D01*
X64573814Y-55440285D02*
X64602385Y-55468856D01*
X64602385Y-55468856D02*
X64659528Y-55497428D01*
D15*
X60666333Y-61033819D02*
X60333000Y-60557628D01*
X60094905Y-61033819D02*
X60094905Y-60033819D01*
X60094905Y-60033819D02*
X60475857Y-60033819D01*
X60475857Y-60033819D02*
X60571095Y-60081438D01*
X60571095Y-60081438D02*
X60618714Y-60129057D01*
X60618714Y-60129057D02*
X60666333Y-60224295D01*
X60666333Y-60224295D02*
X60666333Y-60367152D01*
X60666333Y-60367152D02*
X60618714Y-60462390D01*
X60618714Y-60462390D02*
X60571095Y-60510009D01*
X60571095Y-60510009D02*
X60475857Y-60557628D01*
X60475857Y-60557628D02*
X60094905Y-60557628D01*
X60999667Y-60033819D02*
X61618714Y-60033819D01*
X61618714Y-60033819D02*
X61285381Y-60414771D01*
X61285381Y-60414771D02*
X61428238Y-60414771D01*
X61428238Y-60414771D02*
X61523476Y-60462390D01*
X61523476Y-60462390D02*
X61571095Y-60510009D01*
X61571095Y-60510009D02*
X61618714Y-60605247D01*
X61618714Y-60605247D02*
X61618714Y-60843342D01*
X61618714Y-60843342D02*
X61571095Y-60938580D01*
X61571095Y-60938580D02*
X61523476Y-60986200D01*
X61523476Y-60986200D02*
X61428238Y-61033819D01*
X61428238Y-61033819D02*
X61142524Y-61033819D01*
X61142524Y-61033819D02*
X61047286Y-60986200D01*
X61047286Y-60986200D02*
X60999667Y-60938580D01*
X48495104Y-48397438D02*
X48399866Y-48349819D01*
X48399866Y-48349819D02*
X48257009Y-48349819D01*
X48257009Y-48349819D02*
X48114152Y-48397438D01*
X48114152Y-48397438D02*
X48018914Y-48492676D01*
X48018914Y-48492676D02*
X47971295Y-48587914D01*
X47971295Y-48587914D02*
X47923676Y-48778390D01*
X47923676Y-48778390D02*
X47923676Y-48921247D01*
X47923676Y-48921247D02*
X47971295Y-49111723D01*
X47971295Y-49111723D02*
X48018914Y-49206961D01*
X48018914Y-49206961D02*
X48114152Y-49302200D01*
X48114152Y-49302200D02*
X48257009Y-49349819D01*
X48257009Y-49349819D02*
X48352247Y-49349819D01*
X48352247Y-49349819D02*
X48495104Y-49302200D01*
X48495104Y-49302200D02*
X48542723Y-49254580D01*
X48542723Y-49254580D02*
X48542723Y-48921247D01*
X48542723Y-48921247D02*
X48352247Y-48921247D01*
X48971295Y-49349819D02*
X48971295Y-48349819D01*
X48971295Y-48349819D02*
X49542723Y-49349819D01*
X49542723Y-49349819D02*
X49542723Y-48349819D01*
X50018914Y-49349819D02*
X50018914Y-48349819D01*
X50018914Y-48349819D02*
X50257009Y-48349819D01*
X50257009Y-48349819D02*
X50399866Y-48397438D01*
X50399866Y-48397438D02*
X50495104Y-48492676D01*
X50495104Y-48492676D02*
X50542723Y-48587914D01*
X50542723Y-48587914D02*
X50590342Y-48778390D01*
X50590342Y-48778390D02*
X50590342Y-48921247D01*
X50590342Y-48921247D02*
X50542723Y-49111723D01*
X50542723Y-49111723D02*
X50495104Y-49206961D01*
X50495104Y-49206961D02*
X50399866Y-49302200D01*
X50399866Y-49302200D02*
X50257009Y-49349819D01*
X50257009Y-49349819D02*
X50018914Y-49349819D01*
X51542723Y-49349819D02*
X50971295Y-49349819D01*
X51257009Y-49349819D02*
X51257009Y-48349819D01*
X51257009Y-48349819D02*
X51161771Y-48492676D01*
X51161771Y-48492676D02*
X51066533Y-48587914D01*
X51066533Y-48587914D02*
X50971295Y-48635533D01*
X56983905Y-49730819D02*
X56983905Y-48730819D01*
X56983905Y-48730819D02*
X57222000Y-48730819D01*
X57222000Y-48730819D02*
X57364857Y-48778438D01*
X57364857Y-48778438D02*
X57460095Y-48873676D01*
X57460095Y-48873676D02*
X57507714Y-48968914D01*
X57507714Y-48968914D02*
X57555333Y-49159390D01*
X57555333Y-49159390D02*
X57555333Y-49302247D01*
X57555333Y-49302247D02*
X57507714Y-49492723D01*
X57507714Y-49492723D02*
X57460095Y-49587961D01*
X57460095Y-49587961D02*
X57364857Y-49683200D01*
X57364857Y-49683200D02*
X57222000Y-49730819D01*
X57222000Y-49730819D02*
X56983905Y-49730819D01*
X58507714Y-49730819D02*
X57936286Y-49730819D01*
X58222000Y-49730819D02*
X58222000Y-48730819D01*
X58222000Y-48730819D02*
X58126762Y-48873676D01*
X58126762Y-48873676D02*
X58031524Y-48968914D01*
X58031524Y-48968914D02*
X57936286Y-49016533D01*
X65490865Y-62645168D02*
X65157532Y-62168977D01*
X64919437Y-62645168D02*
X64919437Y-61645168D01*
X64919437Y-61645168D02*
X65300389Y-61645168D01*
X65300389Y-61645168D02*
X65395627Y-61692787D01*
X65395627Y-61692787D02*
X65443246Y-61740406D01*
X65443246Y-61740406D02*
X65490865Y-61835644D01*
X65490865Y-61835644D02*
X65490865Y-61978501D01*
X65490865Y-61978501D02*
X65443246Y-62073739D01*
X65443246Y-62073739D02*
X65395627Y-62121358D01*
X65395627Y-62121358D02*
X65300389Y-62168977D01*
X65300389Y-62168977D02*
X64919437Y-62168977D01*
X65871818Y-61740406D02*
X65919437Y-61692787D01*
X65919437Y-61692787D02*
X66014675Y-61645168D01*
X66014675Y-61645168D02*
X66252770Y-61645168D01*
X66252770Y-61645168D02*
X66348008Y-61692787D01*
X66348008Y-61692787D02*
X66395627Y-61740406D01*
X66395627Y-61740406D02*
X66443246Y-61835644D01*
X66443246Y-61835644D02*
X66443246Y-61930882D01*
X66443246Y-61930882D02*
X66395627Y-62073739D01*
X66395627Y-62073739D02*
X65824199Y-62645168D01*
X65824199Y-62645168D02*
X66443246Y-62645168D01*
X51667580Y-62142666D02*
X51715200Y-62190285D01*
X51715200Y-62190285D02*
X51762819Y-62333142D01*
X51762819Y-62333142D02*
X51762819Y-62428380D01*
X51762819Y-62428380D02*
X51715200Y-62571237D01*
X51715200Y-62571237D02*
X51619961Y-62666475D01*
X51619961Y-62666475D02*
X51524723Y-62714094D01*
X51524723Y-62714094D02*
X51334247Y-62761713D01*
X51334247Y-62761713D02*
X51191390Y-62761713D01*
X51191390Y-62761713D02*
X51000914Y-62714094D01*
X51000914Y-62714094D02*
X50905676Y-62666475D01*
X50905676Y-62666475D02*
X50810438Y-62571237D01*
X50810438Y-62571237D02*
X50762819Y-62428380D01*
X50762819Y-62428380D02*
X50762819Y-62333142D01*
X50762819Y-62333142D02*
X50810438Y-62190285D01*
X50810438Y-62190285D02*
X50858057Y-62142666D01*
X50858057Y-61761713D02*
X50810438Y-61714094D01*
X50810438Y-61714094D02*
X50762819Y-61618856D01*
X50762819Y-61618856D02*
X50762819Y-61380761D01*
X50762819Y-61380761D02*
X50810438Y-61285523D01*
X50810438Y-61285523D02*
X50858057Y-61237904D01*
X50858057Y-61237904D02*
X50953295Y-61190285D01*
X50953295Y-61190285D02*
X51048533Y-61190285D01*
X51048533Y-61190285D02*
X51191390Y-61237904D01*
X51191390Y-61237904D02*
X51762819Y-61809332D01*
X51762819Y-61809332D02*
X51762819Y-61190285D01*
D16*
X61430528Y-55725999D02*
X61459100Y-55754571D01*
X61459100Y-55754571D02*
X61487671Y-55840285D01*
X61487671Y-55840285D02*
X61487671Y-55897428D01*
X61487671Y-55897428D02*
X61459100Y-55983142D01*
X61459100Y-55983142D02*
X61401957Y-56040285D01*
X61401957Y-56040285D02*
X61344814Y-56068856D01*
X61344814Y-56068856D02*
X61230528Y-56097428D01*
X61230528Y-56097428D02*
X61144814Y-56097428D01*
X61144814Y-56097428D02*
X61030528Y-56068856D01*
X61030528Y-56068856D02*
X60973385Y-56040285D01*
X60973385Y-56040285D02*
X60916242Y-55983142D01*
X60916242Y-55983142D02*
X60887671Y-55897428D01*
X60887671Y-55897428D02*
X60887671Y-55840285D01*
X60887671Y-55840285D02*
X60916242Y-55754571D01*
X60916242Y-55754571D02*
X60944814Y-55725999D01*
X60887671Y-55183142D02*
X60887671Y-55468856D01*
X60887671Y-55468856D02*
X61173385Y-55497428D01*
X61173385Y-55497428D02*
X61144814Y-55468856D01*
X61144814Y-55468856D02*
X61116242Y-55411714D01*
X61116242Y-55411714D02*
X61116242Y-55268856D01*
X61116242Y-55268856D02*
X61144814Y-55211714D01*
X61144814Y-55211714D02*
X61173385Y-55183142D01*
X61173385Y-55183142D02*
X61230528Y-55154571D01*
X61230528Y-55154571D02*
X61373385Y-55154571D01*
X61373385Y-55154571D02*
X61430528Y-55183142D01*
X61430528Y-55183142D02*
X61459100Y-55211714D01*
X61459100Y-55211714D02*
X61487671Y-55268856D01*
X61487671Y-55268856D02*
X61487671Y-55411714D01*
X61487671Y-55411714D02*
X61459100Y-55468856D01*
X61459100Y-55468856D02*
X61430528Y-55497428D01*
D15*
X71030905Y-45666819D02*
X71030905Y-44666819D01*
X71030905Y-44666819D02*
X71269000Y-44666819D01*
X71269000Y-44666819D02*
X71411857Y-44714438D01*
X71411857Y-44714438D02*
X71507095Y-44809676D01*
X71507095Y-44809676D02*
X71554714Y-44904914D01*
X71554714Y-44904914D02*
X71602333Y-45095390D01*
X71602333Y-45095390D02*
X71602333Y-45238247D01*
X71602333Y-45238247D02*
X71554714Y-45428723D01*
X71554714Y-45428723D02*
X71507095Y-45523961D01*
X71507095Y-45523961D02*
X71411857Y-45619200D01*
X71411857Y-45619200D02*
X71269000Y-45666819D01*
X71269000Y-45666819D02*
X71030905Y-45666819D01*
X71983286Y-44762057D02*
X72030905Y-44714438D01*
X72030905Y-44714438D02*
X72126143Y-44666819D01*
X72126143Y-44666819D02*
X72364238Y-44666819D01*
X72364238Y-44666819D02*
X72459476Y-44714438D01*
X72459476Y-44714438D02*
X72507095Y-44762057D01*
X72507095Y-44762057D02*
X72554714Y-44857295D01*
X72554714Y-44857295D02*
X72554714Y-44952533D01*
X72554714Y-44952533D02*
X72507095Y-45095390D01*
X72507095Y-45095390D02*
X71935667Y-45666819D01*
X71935667Y-45666819D02*
X72554714Y-45666819D01*
X68707772Y-60921523D02*
X68374439Y-60445332D01*
X68136344Y-60921523D02*
X68136344Y-59921523D01*
X68136344Y-59921523D02*
X68517296Y-59921523D01*
X68517296Y-59921523D02*
X68612534Y-59969142D01*
X68612534Y-59969142D02*
X68660153Y-60016761D01*
X68660153Y-60016761D02*
X68707772Y-60111999D01*
X68707772Y-60111999D02*
X68707772Y-60254856D01*
X68707772Y-60254856D02*
X68660153Y-60350094D01*
X68660153Y-60350094D02*
X68612534Y-60397713D01*
X68612534Y-60397713D02*
X68517296Y-60445332D01*
X68517296Y-60445332D02*
X68136344Y-60445332D01*
X69564915Y-60254856D02*
X69564915Y-60921523D01*
X69326820Y-59873904D02*
X69088725Y-60588189D01*
X69088725Y-60588189D02*
X69707772Y-60588189D01*
D16*
X63138671Y-55598999D02*
X62852957Y-55798999D01*
X63138671Y-55941856D02*
X62538671Y-55941856D01*
X62538671Y-55941856D02*
X62538671Y-55713285D01*
X62538671Y-55713285D02*
X62567242Y-55656142D01*
X62567242Y-55656142D02*
X62595814Y-55627571D01*
X62595814Y-55627571D02*
X62652957Y-55598999D01*
X62652957Y-55598999D02*
X62738671Y-55598999D01*
X62738671Y-55598999D02*
X62795814Y-55627571D01*
X62795814Y-55627571D02*
X62824385Y-55656142D01*
X62824385Y-55656142D02*
X62852957Y-55713285D01*
X62852957Y-55713285D02*
X62852957Y-55941856D01*
X63138671Y-55027571D02*
X63138671Y-55370428D01*
X63138671Y-55198999D02*
X62538671Y-55198999D01*
X62538671Y-55198999D02*
X62624385Y-55256142D01*
X62624385Y-55256142D02*
X62681528Y-55313285D01*
X62681528Y-55313285D02*
X62710100Y-55370428D01*
X61622000Y-54470928D02*
X61593428Y-54499500D01*
X61593428Y-54499500D02*
X61507714Y-54528071D01*
X61507714Y-54528071D02*
X61450571Y-54528071D01*
X61450571Y-54528071D02*
X61364857Y-54499500D01*
X61364857Y-54499500D02*
X61307714Y-54442357D01*
X61307714Y-54442357D02*
X61279143Y-54385214D01*
X61279143Y-54385214D02*
X61250571Y-54270928D01*
X61250571Y-54270928D02*
X61250571Y-54185214D01*
X61250571Y-54185214D02*
X61279143Y-54070928D01*
X61279143Y-54070928D02*
X61307714Y-54013785D01*
X61307714Y-54013785D02*
X61364857Y-53956642D01*
X61364857Y-53956642D02*
X61450571Y-53928071D01*
X61450571Y-53928071D02*
X61507714Y-53928071D01*
X61507714Y-53928071D02*
X61593428Y-53956642D01*
X61593428Y-53956642D02*
X61622000Y-53985214D01*
X61822000Y-53928071D02*
X62222000Y-53928071D01*
X62222000Y-53928071D02*
X61964857Y-54528071D01*
D15*
X55124078Y-54151013D02*
X55124078Y-54960536D01*
X55124078Y-54960536D02*
X55171697Y-55055774D01*
X55171697Y-55055774D02*
X55219316Y-55103394D01*
X55219316Y-55103394D02*
X55314554Y-55151013D01*
X55314554Y-55151013D02*
X55505030Y-55151013D01*
X55505030Y-55151013D02*
X55600268Y-55103394D01*
X55600268Y-55103394D02*
X55647887Y-55055774D01*
X55647887Y-55055774D02*
X55695506Y-54960536D01*
X55695506Y-54960536D02*
X55695506Y-54151013D01*
X56695506Y-55151013D02*
X56124078Y-55151013D01*
X56409792Y-55151013D02*
X56409792Y-54151013D01*
X56409792Y-54151013D02*
X56314554Y-54293870D01*
X56314554Y-54293870D02*
X56219316Y-54389108D01*
X56219316Y-54389108D02*
X56124078Y-54436727D01*
X68413333Y-48460819D02*
X68080000Y-47984628D01*
X67841905Y-48460819D02*
X67841905Y-47460819D01*
X67841905Y-47460819D02*
X68222857Y-47460819D01*
X68222857Y-47460819D02*
X68318095Y-47508438D01*
X68318095Y-47508438D02*
X68365714Y-47556057D01*
X68365714Y-47556057D02*
X68413333Y-47651295D01*
X68413333Y-47651295D02*
X68413333Y-47794152D01*
X68413333Y-47794152D02*
X68365714Y-47889390D01*
X68365714Y-47889390D02*
X68318095Y-47937009D01*
X68318095Y-47937009D02*
X68222857Y-47984628D01*
X68222857Y-47984628D02*
X67841905Y-47984628D01*
X69318095Y-47460819D02*
X68841905Y-47460819D01*
X68841905Y-47460819D02*
X68794286Y-47937009D01*
X68794286Y-47937009D02*
X68841905Y-47889390D01*
X68841905Y-47889390D02*
X68937143Y-47841771D01*
X68937143Y-47841771D02*
X69175238Y-47841771D01*
X69175238Y-47841771D02*
X69270476Y-47889390D01*
X69270476Y-47889390D02*
X69318095Y-47937009D01*
X69318095Y-47937009D02*
X69365714Y-48032247D01*
X69365714Y-48032247D02*
X69365714Y-48270342D01*
X69365714Y-48270342D02*
X69318095Y-48365580D01*
X69318095Y-48365580D02*
X69270476Y-48413200D01*
X69270476Y-48413200D02*
X69175238Y-48460819D01*
X69175238Y-48460819D02*
X68937143Y-48460819D01*
X68937143Y-48460819D02*
X68841905Y-48413200D01*
X68841905Y-48413200D02*
X68794286Y-48365580D01*
X51517874Y-55144578D02*
X51517874Y-54382674D01*
X51898827Y-54763626D02*
X51136922Y-54763626D01*
X51898827Y-53382674D02*
X51898827Y-53954102D01*
X51898827Y-53668388D02*
X50898827Y-53668388D01*
X50898827Y-53668388D02*
X51041684Y-53763626D01*
X51041684Y-53763626D02*
X51136922Y-53858864D01*
X51136922Y-53858864D02*
X51184541Y-53954102D01*
X50994065Y-53001721D02*
X50946446Y-52954102D01*
X50946446Y-52954102D02*
X50898827Y-52858864D01*
X50898827Y-52858864D02*
X50898827Y-52620769D01*
X50898827Y-52620769D02*
X50946446Y-52525531D01*
X50946446Y-52525531D02*
X50994065Y-52477912D01*
X50994065Y-52477912D02*
X51089303Y-52430293D01*
X51089303Y-52430293D02*
X51184541Y-52430293D01*
X51184541Y-52430293D02*
X51327398Y-52477912D01*
X51327398Y-52477912D02*
X51898827Y-53049340D01*
X51898827Y-53049340D02*
X51898827Y-52430293D01*
X68176200Y-59353285D02*
X68223819Y-59210428D01*
X68223819Y-59210428D02*
X68223819Y-58972333D01*
X68223819Y-58972333D02*
X68176200Y-58877095D01*
X68176200Y-58877095D02*
X68128580Y-58829476D01*
X68128580Y-58829476D02*
X68033342Y-58781857D01*
X68033342Y-58781857D02*
X67938104Y-58781857D01*
X67938104Y-58781857D02*
X67842866Y-58829476D01*
X67842866Y-58829476D02*
X67795247Y-58877095D01*
X67795247Y-58877095D02*
X67747628Y-58972333D01*
X67747628Y-58972333D02*
X67700009Y-59162809D01*
X67700009Y-59162809D02*
X67652390Y-59258047D01*
X67652390Y-59258047D02*
X67604771Y-59305666D01*
X67604771Y-59305666D02*
X67509533Y-59353285D01*
X67509533Y-59353285D02*
X67414295Y-59353285D01*
X67414295Y-59353285D02*
X67319057Y-59305666D01*
X67319057Y-59305666D02*
X67271438Y-59258047D01*
X67271438Y-59258047D02*
X67223819Y-59162809D01*
X67223819Y-59162809D02*
X67223819Y-58924714D01*
X67223819Y-58924714D02*
X67271438Y-58781857D01*
X67700009Y-58353285D02*
X67700009Y-58019952D01*
X68223819Y-57877095D02*
X68223819Y-58353285D01*
X68223819Y-58353285D02*
X67223819Y-58353285D01*
X67223819Y-58353285D02*
X67223819Y-57877095D01*
X68223819Y-57448523D02*
X67223819Y-57448523D01*
X67223819Y-57448523D02*
X68223819Y-56877095D01*
X68223819Y-56877095D02*
X67223819Y-56877095D01*
X68176200Y-56448523D02*
X68223819Y-56305666D01*
X68223819Y-56305666D02*
X68223819Y-56067571D01*
X68223819Y-56067571D02*
X68176200Y-55972333D01*
X68176200Y-55972333D02*
X68128580Y-55924714D01*
X68128580Y-55924714D02*
X68033342Y-55877095D01*
X68033342Y-55877095D02*
X67938104Y-55877095D01*
X67938104Y-55877095D02*
X67842866Y-55924714D01*
X67842866Y-55924714D02*
X67795247Y-55972333D01*
X67795247Y-55972333D02*
X67747628Y-56067571D01*
X67747628Y-56067571D02*
X67700009Y-56258047D01*
X67700009Y-56258047D02*
X67652390Y-56353285D01*
X67652390Y-56353285D02*
X67604771Y-56400904D01*
X67604771Y-56400904D02*
X67509533Y-56448523D01*
X67509533Y-56448523D02*
X67414295Y-56448523D01*
X67414295Y-56448523D02*
X67319057Y-56400904D01*
X67319057Y-56400904D02*
X67271438Y-56353285D01*
X67271438Y-56353285D02*
X67223819Y-56258047D01*
X67223819Y-56258047D02*
X67223819Y-56019952D01*
X67223819Y-56019952D02*
X67271438Y-55877095D01*
X68223819Y-54924714D02*
X68223819Y-55496142D01*
X68223819Y-55210428D02*
X67223819Y-55210428D01*
X67223819Y-55210428D02*
X67366676Y-55305666D01*
X67366676Y-55305666D02*
X67461914Y-55400904D01*
X67461914Y-55400904D02*
X67509533Y-55496142D01*
D16*
X61811528Y-48307999D02*
X61840100Y-48336571D01*
X61840100Y-48336571D02*
X61868671Y-48422285D01*
X61868671Y-48422285D02*
X61868671Y-48479428D01*
X61868671Y-48479428D02*
X61840100Y-48565142D01*
X61840100Y-48565142D02*
X61782957Y-48622285D01*
X61782957Y-48622285D02*
X61725814Y-48650856D01*
X61725814Y-48650856D02*
X61611528Y-48679428D01*
X61611528Y-48679428D02*
X61525814Y-48679428D01*
X61525814Y-48679428D02*
X61411528Y-48650856D01*
X61411528Y-48650856D02*
X61354385Y-48622285D01*
X61354385Y-48622285D02*
X61297242Y-48565142D01*
X61297242Y-48565142D02*
X61268671Y-48479428D01*
X61268671Y-48479428D02*
X61268671Y-48422285D01*
X61268671Y-48422285D02*
X61297242Y-48336571D01*
X61297242Y-48336571D02*
X61325814Y-48307999D01*
X61525814Y-47965142D02*
X61497242Y-48022285D01*
X61497242Y-48022285D02*
X61468671Y-48050856D01*
X61468671Y-48050856D02*
X61411528Y-48079428D01*
X61411528Y-48079428D02*
X61382957Y-48079428D01*
X61382957Y-48079428D02*
X61325814Y-48050856D01*
X61325814Y-48050856D02*
X61297242Y-48022285D01*
X61297242Y-48022285D02*
X61268671Y-47965142D01*
X61268671Y-47965142D02*
X61268671Y-47850856D01*
X61268671Y-47850856D02*
X61297242Y-47793714D01*
X61297242Y-47793714D02*
X61325814Y-47765142D01*
X61325814Y-47765142D02*
X61382957Y-47736571D01*
X61382957Y-47736571D02*
X61411528Y-47736571D01*
X61411528Y-47736571D02*
X61468671Y-47765142D01*
X61468671Y-47765142D02*
X61497242Y-47793714D01*
X61497242Y-47793714D02*
X61525814Y-47850856D01*
X61525814Y-47850856D02*
X61525814Y-47965142D01*
X61525814Y-47965142D02*
X61554385Y-48022285D01*
X61554385Y-48022285D02*
X61582957Y-48050856D01*
X61582957Y-48050856D02*
X61640100Y-48079428D01*
X61640100Y-48079428D02*
X61754385Y-48079428D01*
X61754385Y-48079428D02*
X61811528Y-48050856D01*
X61811528Y-48050856D02*
X61840100Y-48022285D01*
X61840100Y-48022285D02*
X61868671Y-47965142D01*
X61868671Y-47965142D02*
X61868671Y-47850856D01*
X61868671Y-47850856D02*
X61840100Y-47793714D01*
X61840100Y-47793714D02*
X61811528Y-47765142D01*
X61811528Y-47765142D02*
X61754385Y-47736571D01*
X61754385Y-47736571D02*
X61640100Y-47736571D01*
X61640100Y-47736571D02*
X61582957Y-47765142D01*
X61582957Y-47765142D02*
X61554385Y-47793714D01*
X61554385Y-47793714D02*
X61525814Y-47850856D01*
D14*
%TO.C,C1*%
X48754265Y-57082586D02*
X47331761Y-57082586D01*
X48754265Y-59802586D02*
X47331761Y-59802586D01*
%TO.C,L1*%
X52778571Y-46265399D02*
X52778571Y-46665399D01*
X52778571Y-51785399D02*
X52778571Y-51385399D01*
X58298571Y-46265399D02*
X52778571Y-46265399D01*
X58298571Y-46265399D02*
X58298571Y-46665399D01*
X58298571Y-51785399D02*
X52778571Y-51785399D01*
X58298571Y-51785399D02*
X58298571Y-51385399D01*
%TO.C,C3*%
X48736906Y-63947408D02*
X47314402Y-63947408D01*
X48736906Y-66667408D02*
X47314402Y-66667408D01*
%TO.C,R7*%
X52563500Y-62055742D02*
X52563500Y-62530258D01*
X53608500Y-62055742D02*
X53608500Y-62530258D01*
%TO.C,C10*%
X63320741Y-63371000D02*
X63039581Y-63371000D01*
X63320741Y-64391000D02*
X63039581Y-64391000D01*
%TO.C,C9*%
X59561000Y-46162271D02*
X59561000Y-46443431D01*
X60581000Y-46162271D02*
X60581000Y-46443431D01*
%TO.C,C6*%
X64017249Y-57720112D02*
X64017249Y-58001272D01*
X65037249Y-57720112D02*
X65037249Y-58001272D01*
%TO.C,R3*%
X62945742Y-60056500D02*
X63420258Y-60056500D01*
X62945742Y-61101500D02*
X63420258Y-61101500D01*
%TO.C,GND1*%
X47849200Y-46090000D02*
X47849200Y-47890000D01*
X47849200Y-47890000D02*
X51649200Y-47890000D01*
X51649200Y-46090000D02*
X47849200Y-46090000D01*
X51649200Y-47890000D02*
X51649200Y-46090000D01*
%TO.C,D1*%
X58625000Y-48896000D02*
X58625000Y-52196000D01*
X58625000Y-48896000D02*
X64135000Y-48896000D01*
X58625000Y-52196000D02*
X64135000Y-52196000D01*
%TO.C,3.3*%
X45963000Y-52059000D02*
X45963000Y-55859000D01*
X45963000Y-55859000D02*
X47763000Y-55859000D01*
X47763000Y-52059000D02*
X45963000Y-52059000D01*
X47763000Y-55859000D02*
X47763000Y-52059000D01*
%TO.C,R2*%
X62943274Y-61667849D02*
X63417790Y-61667849D01*
X62943274Y-62712849D02*
X63417790Y-62712849D01*
D17*
%TO.C,G\u002A\u002A\u002A*%
G36*
X70523388Y-53329015D02*
G01*
X70526958Y-53330349D01*
X70535716Y-53338314D01*
X70548473Y-53355016D01*
X70563737Y-53378359D01*
X70576312Y-53399636D01*
X70606524Y-53450519D01*
X70635542Y-53493603D01*
X70666181Y-53532551D01*
X70701256Y-53571026D01*
X70730002Y-53599686D01*
X70780343Y-53645139D01*
X70832534Y-53685316D01*
X70888430Y-53721247D01*
X70949882Y-53753961D01*
X71018745Y-53784487D01*
X71096872Y-53813856D01*
X71144461Y-53829887D01*
X71184280Y-53842735D01*
X71222950Y-53855010D01*
X71258001Y-53865944D01*
X71286965Y-53874766D01*
X71307371Y-53880709D01*
X71310272Y-53881502D01*
X71335239Y-53889206D01*
X71348449Y-53895887D01*
X71350218Y-53901794D01*
X71342400Y-53906614D01*
X71332047Y-53907203D01*
X71311604Y-53905535D01*
X71282858Y-53901878D01*
X71247598Y-53896501D01*
X71207612Y-53889674D01*
X71164688Y-53881664D01*
X71129624Y-53874624D01*
X71024001Y-53848193D01*
X70927793Y-53814446D01*
X70840410Y-53772951D01*
X70761261Y-53723276D01*
X70689756Y-53664989D01*
X70625307Y-53597658D01*
X70567321Y-53520852D01*
X70515210Y-53434138D01*
X70507243Y-53419055D01*
X70493812Y-53391734D01*
X70484173Y-53369175D01*
X70479164Y-53353493D01*
X70478895Y-53347654D01*
X70489280Y-53335454D01*
X70505915Y-53328591D01*
X70523388Y-53329015D01*
G37*
G36*
X71246054Y-52872405D02*
G01*
X71246936Y-52876929D01*
X71246598Y-52878150D01*
X71240268Y-52884940D01*
X71223929Y-52897724D01*
X71197972Y-52916231D01*
X71162793Y-52940189D01*
X71118784Y-52969329D01*
X71066339Y-53003379D01*
X71042167Y-53018903D01*
X70966971Y-53067055D01*
X70984539Y-53081180D01*
X71002197Y-53092258D01*
X71029879Y-53105670D01*
X71065837Y-53120776D01*
X71108321Y-53136934D01*
X71155582Y-53153504D01*
X71205871Y-53169845D01*
X71257438Y-53185316D01*
X71303091Y-53197860D01*
X71340878Y-53207909D01*
X71368024Y-53215567D01*
X71385703Y-53221260D01*
X71395087Y-53225414D01*
X71397349Y-53228455D01*
X71393764Y-53230774D01*
X71374034Y-53235520D01*
X71349626Y-53237258D01*
X71319241Y-53235859D01*
X71281582Y-53231192D01*
X71235348Y-53223125D01*
X71179243Y-53211529D01*
X71159985Y-53207274D01*
X71109521Y-53194813D01*
X71058361Y-53180047D01*
X71008283Y-53163667D01*
X70961066Y-53146366D01*
X70918490Y-53128837D01*
X70882333Y-53111773D01*
X70854374Y-53095865D01*
X70836392Y-53081807D01*
X70835649Y-53081015D01*
X70820995Y-53065013D01*
X70896371Y-53029122D01*
X70925142Y-53015391D01*
X70961867Y-52997815D01*
X71003565Y-52977825D01*
X71047251Y-52956851D01*
X71089942Y-52936324D01*
X71099144Y-52931895D01*
X71145143Y-52909970D01*
X71181295Y-52893301D01*
X71208531Y-52881550D01*
X71227782Y-52874377D01*
X71239980Y-52871441D01*
X71246054Y-52872405D01*
G37*
G36*
X72237557Y-53671500D02*
G01*
X72264005Y-53679842D01*
X72290413Y-53692820D01*
X72322954Y-53713605D01*
X72358638Y-53741459D01*
X72393958Y-53773291D01*
X72425406Y-53806009D01*
X72442735Y-53827112D01*
X72459754Y-53850182D01*
X72469858Y-53865345D01*
X72473812Y-53874103D01*
X72472380Y-53877957D01*
X72468896Y-53878544D01*
X72462299Y-53874942D01*
X72448184Y-53865064D01*
X72428447Y-53850304D01*
X72404987Y-53832054D01*
X72397971Y-53826478D01*
X72351255Y-53790996D01*
X72311159Y-53764546D01*
X72276817Y-53746598D01*
X72254671Y-53738498D01*
X72231100Y-53737060D01*
X72207299Y-53744260D01*
X72186312Y-53758057D01*
X72171183Y-53776411D01*
X72164957Y-53797281D01*
X72164933Y-53798634D01*
X72169439Y-53817294D01*
X72183148Y-53840908D01*
X72206344Y-53869831D01*
X72239313Y-53904419D01*
X72281551Y-53944313D01*
X72319268Y-53979568D01*
X72347600Y-54008174D01*
X72366435Y-54030006D01*
X72375665Y-54044937D01*
X72375489Y-54052561D01*
X72369503Y-54050657D01*
X72355182Y-54043316D01*
X72334406Y-54031661D01*
X72309061Y-54016815D01*
X72281027Y-53999903D01*
X72252190Y-53982048D01*
X72224431Y-53964373D01*
X72199634Y-53948002D01*
X72195294Y-53945050D01*
X72157796Y-53915981D01*
X72127709Y-53885612D01*
X72106153Y-53855406D01*
X72094245Y-53826823D01*
X72092200Y-53810427D01*
X72097182Y-53786932D01*
X72110265Y-53759909D01*
X72129254Y-53732270D01*
X72151953Y-53706927D01*
X72176166Y-53686790D01*
X72192393Y-53677549D01*
X72214626Y-53670882D01*
X72237557Y-53671500D01*
G37*
G36*
X72416041Y-51913860D02*
G01*
X72434134Y-51921635D01*
X72460928Y-51933951D01*
X72495382Y-51950284D01*
X72536456Y-51970109D01*
X72583111Y-51992901D01*
X72634305Y-52018136D01*
X72688999Y-52045289D01*
X72746154Y-52073834D01*
X72804727Y-52103248D01*
X72863681Y-52133005D01*
X72921974Y-52162581D01*
X72978566Y-52191450D01*
X73032417Y-52219089D01*
X73082487Y-52244972D01*
X73127736Y-52268574D01*
X73167125Y-52289371D01*
X73199611Y-52306838D01*
X73224157Y-52320450D01*
X73239720Y-52329683D01*
X73245069Y-52333640D01*
X73250039Y-52340832D01*
X73253519Y-52349105D01*
X73255757Y-52360610D01*
X73256999Y-52377499D01*
X73257490Y-52401923D01*
X73257478Y-52436033D01*
X73257449Y-52441770D01*
X73257096Y-52474316D01*
X73256442Y-52502768D01*
X73255568Y-52524812D01*
X73254552Y-52538132D01*
X73254041Y-52540742D01*
X73248976Y-52544533D01*
X73237281Y-52542790D01*
X73227975Y-52539768D01*
X73218860Y-52535757D01*
X73199807Y-52526734D01*
X73171727Y-52513149D01*
X73135528Y-52495450D01*
X73092122Y-52474085D01*
X73042417Y-52449505D01*
X72987323Y-52422158D01*
X72927752Y-52392492D01*
X72864611Y-52360958D01*
X72803205Y-52330206D01*
X72725867Y-52291380D01*
X72658715Y-52257559D01*
X72601049Y-52228370D01*
X72552167Y-52203437D01*
X72511367Y-52182389D01*
X72477948Y-52164850D01*
X72451209Y-52150447D01*
X72430448Y-52138805D01*
X72414963Y-52129553D01*
X72404053Y-52122314D01*
X72397017Y-52116717D01*
X72393154Y-52112386D01*
X72392552Y-52111364D01*
X72388234Y-52098578D01*
X72385409Y-52078833D01*
X72383905Y-52050319D01*
X72383532Y-52018113D01*
X72384112Y-51978055D01*
X72386057Y-51948739D01*
X72389672Y-51928810D01*
X72395263Y-51916911D01*
X72403138Y-51911687D01*
X72407689Y-51911152D01*
X72416041Y-51913860D01*
G37*
G36*
X72395870Y-48069347D02*
G01*
X72407478Y-48073412D01*
X72426625Y-48081484D01*
X72453714Y-48093756D01*
X72489147Y-48110418D01*
X72533324Y-48131664D01*
X72586649Y-48157684D01*
X72649523Y-48188669D01*
X72722347Y-48224812D01*
X72805523Y-48266303D01*
X72814954Y-48271018D01*
X72881736Y-48304489D01*
X72945540Y-48336617D01*
X73005505Y-48366960D01*
X73060769Y-48395074D01*
X73110468Y-48420516D01*
X73153742Y-48442842D01*
X73189728Y-48461610D01*
X73217564Y-48476377D01*
X73236388Y-48486698D01*
X73245338Y-48492131D01*
X73245802Y-48492523D01*
X73250399Y-48498042D01*
X73253667Y-48505257D01*
X73255831Y-48516161D01*
X73257113Y-48532749D01*
X73257736Y-48557012D01*
X73257924Y-48590945D01*
X73257929Y-48600793D01*
X73257685Y-48633802D01*
X73257013Y-48662444D01*
X73255999Y-48684560D01*
X73254730Y-48697991D01*
X73253881Y-48700984D01*
X73244960Y-48704451D01*
X73238598Y-48705032D01*
X73231485Y-48702372D01*
X73214386Y-48694671D01*
X73188165Y-48682350D01*
X73153682Y-48665828D01*
X73111802Y-48645526D01*
X73063386Y-48621863D01*
X73009296Y-48595260D01*
X72950394Y-48566136D01*
X72887544Y-48534913D01*
X72821607Y-48502009D01*
X72814114Y-48498261D01*
X72737272Y-48459799D01*
X72670562Y-48426361D01*
X72613250Y-48397549D01*
X72564599Y-48372963D01*
X72523875Y-48352207D01*
X72490344Y-48334881D01*
X72463269Y-48320588D01*
X72441917Y-48308930D01*
X72425551Y-48299508D01*
X72413437Y-48291925D01*
X72404841Y-48285782D01*
X72399026Y-48280682D01*
X72395258Y-48276225D01*
X72392802Y-48272015D01*
X72391653Y-48269442D01*
X72387734Y-48256849D01*
X72385261Y-48240044D01*
X72384084Y-48216815D01*
X72384059Y-48184953D01*
X72384505Y-48161978D01*
X72385581Y-48130558D01*
X72387111Y-48103236D01*
X72388914Y-48082438D01*
X72390811Y-48070591D01*
X72391401Y-48069100D01*
X72395870Y-48069347D01*
G37*
G36*
X72499316Y-50070761D02*
G01*
X72535376Y-50082223D01*
X72565347Y-50094482D01*
X72597116Y-50108673D01*
X72619440Y-50120438D01*
X72634062Y-50132073D01*
X72642726Y-50145874D01*
X72647173Y-50164137D01*
X72649149Y-50189158D01*
X72649781Y-50205686D01*
X72650264Y-50251115D01*
X72648340Y-50287186D01*
X72644091Y-50312965D01*
X72639270Y-50325239D01*
X72634222Y-50328754D01*
X72624423Y-50327778D01*
X72607393Y-50321865D01*
X72597125Y-50317649D01*
X72575422Y-50309475D01*
X72556036Y-50303819D01*
X72544629Y-50302020D01*
X72534149Y-50303632D01*
X72529931Y-50310876D01*
X72529265Y-50322733D01*
X72532170Y-50339875D01*
X72542691Y-50354409D01*
X72549000Y-50360105D01*
X72577589Y-50379758D01*
X72608207Y-50393338D01*
X72636562Y-50398986D01*
X72638903Y-50399042D01*
X72650876Y-50398091D01*
X72662668Y-50394279D01*
X72676000Y-50386406D01*
X72692599Y-50373268D01*
X72714186Y-50353665D01*
X72740977Y-50327867D01*
X72777247Y-50295862D01*
X72811540Y-50272282D01*
X72842550Y-50257896D01*
X72867151Y-50253442D01*
X72892449Y-50256585D01*
X72925455Y-50265334D01*
X72963697Y-50278674D01*
X73004702Y-50295588D01*
X73045999Y-50315059D01*
X73085116Y-50336072D01*
X73118268Y-50356712D01*
X73165836Y-50395616D01*
X73204897Y-50442160D01*
X73235915Y-50497048D01*
X73259354Y-50560984D01*
X73263904Y-50577758D01*
X73272920Y-50627368D01*
X73275772Y-50678531D01*
X73272462Y-50727147D01*
X73263836Y-50766543D01*
X73247372Y-50803511D01*
X73225077Y-50830516D01*
X73197583Y-50847089D01*
X73165521Y-50852764D01*
X73149076Y-50851536D01*
X73127927Y-50846701D01*
X73101107Y-50838078D01*
X73070897Y-50826690D01*
X73039577Y-50813564D01*
X73009427Y-50799723D01*
X72982729Y-50786192D01*
X72961761Y-50773995D01*
X72948805Y-50764158D01*
X72945975Y-50760273D01*
X72944003Y-50748748D01*
X72942762Y-50728410D01*
X72942210Y-50702224D01*
X72942305Y-50673154D01*
X72943003Y-50644167D01*
X72944263Y-50618226D01*
X72946042Y-50598298D01*
X72948297Y-50587347D01*
X72948460Y-50587014D01*
X72953750Y-50579768D01*
X72961113Y-50576547D01*
X72972468Y-50577710D01*
X72989730Y-50583613D01*
X73014817Y-50594616D01*
X73031850Y-50602594D01*
X73067854Y-50618460D01*
X73094407Y-50627277D01*
X73111991Y-50628981D01*
X73121090Y-50623509D01*
X73122185Y-50610797D01*
X73116077Y-50591535D01*
X73101399Y-50569753D01*
X73076882Y-50548661D01*
X73044788Y-50529982D01*
X73023283Y-50520816D01*
X73000575Y-50513084D01*
X72981534Y-50509245D01*
X72964208Y-50510065D01*
X72946648Y-50516310D01*
X72926902Y-50528743D01*
X72903020Y-50548130D01*
X72873053Y-50575236D01*
X72864710Y-50583001D01*
X72838183Y-50606586D01*
X72814382Y-50625508D01*
X72795408Y-50638169D01*
X72786744Y-50642258D01*
X72752391Y-50647781D01*
X72712556Y-50644525D01*
X72668982Y-50633471D01*
X72623409Y-50615602D01*
X72577580Y-50591900D01*
X72533235Y-50563349D01*
X72492117Y-50530931D01*
X72455966Y-50495629D01*
X72426526Y-50458424D01*
X72409736Y-50429536D01*
X72389915Y-50380884D01*
X72376218Y-50330327D01*
X72368566Y-50279604D01*
X72366878Y-50230452D01*
X72371072Y-50184610D01*
X72381069Y-50143817D01*
X72396787Y-50109808D01*
X72418147Y-50084324D01*
X72426038Y-50078335D01*
X72446250Y-50069002D01*
X72470141Y-50066415D01*
X72499316Y-50070761D01*
G37*
G36*
X72418435Y-50656331D02*
G01*
X72418584Y-50656355D01*
X72426759Y-50658428D01*
X72442489Y-50663270D01*
X72466109Y-50670997D01*
X72497953Y-50681725D01*
X72538354Y-50695571D01*
X72587647Y-50712651D01*
X72646167Y-50733083D01*
X72714248Y-50756982D01*
X72792223Y-50784465D01*
X72880428Y-50815649D01*
X72979196Y-50850649D01*
X73088862Y-50889584D01*
X73157348Y-50913927D01*
X73187128Y-50925020D01*
X73213437Y-50935756D01*
X73233781Y-50945049D01*
X73245664Y-50951815D01*
X73246913Y-50952873D01*
X73251042Y-50958210D01*
X73254002Y-50965935D01*
X73255982Y-50977953D01*
X73257171Y-50996168D01*
X73257756Y-51022482D01*
X73257927Y-51058800D01*
X73257929Y-51064081D01*
X73257929Y-51164272D01*
X73237312Y-51164272D01*
X73221611Y-51161883D01*
X73199469Y-51155587D01*
X73175412Y-51146692D01*
X73173063Y-51145705D01*
X73151033Y-51137064D01*
X73132471Y-51131104D01*
X73120843Y-51128912D01*
X73119732Y-51129006D01*
X73111427Y-51135667D01*
X73105061Y-51149065D01*
X73105053Y-51149092D01*
X73102534Y-51166862D01*
X73106488Y-51182288D01*
X73118188Y-51197053D01*
X73138908Y-51212836D01*
X73165426Y-51228796D01*
X73190658Y-51243860D01*
X73214141Y-51259291D01*
X73232239Y-51272642D01*
X73237867Y-51277519D01*
X73257929Y-51296646D01*
X73257929Y-51397086D01*
X73257575Y-51434383D01*
X73256572Y-51464891D01*
X73255010Y-51487061D01*
X73252977Y-51499344D01*
X73251927Y-51501236D01*
X73248739Y-51502148D01*
X73243736Y-51501543D01*
X73236275Y-51499037D01*
X73225711Y-51494243D01*
X73211399Y-51486778D01*
X73192697Y-51476255D01*
X73168960Y-51462291D01*
X73139543Y-51444498D01*
X73103804Y-51422493D01*
X73061097Y-51395891D01*
X73010779Y-51364306D01*
X72952206Y-51327353D01*
X72927205Y-51311529D01*
X72884733Y-51284646D01*
X72807717Y-51235802D01*
X72802514Y-51232500D01*
X72722034Y-51181321D01*
X72651494Y-51136244D01*
X72590493Y-51097003D01*
X72538630Y-51063333D01*
X72495504Y-51034967D01*
X72460713Y-51011640D01*
X72433856Y-50993086D01*
X72414534Y-50979039D01*
X72402343Y-50969234D01*
X72400115Y-50966926D01*
X72713507Y-50966926D01*
X72717853Y-50971480D01*
X72730706Y-50981088D01*
X72750170Y-50994535D01*
X72774349Y-51010610D01*
X72801348Y-51028100D01*
X72829270Y-51045792D01*
X72856219Y-51062473D01*
X72880300Y-51076930D01*
X72899616Y-51087951D01*
X72912271Y-51094322D01*
X72913332Y-51094747D01*
X72927205Y-51096476D01*
X72933066Y-51095282D01*
X72939936Y-51086958D01*
X72942143Y-51072290D01*
X72939823Y-51056092D01*
X72933113Y-51043176D01*
X72931548Y-51041656D01*
X72921552Y-51035769D01*
X72902626Y-51026834D01*
X72877291Y-51015850D01*
X72848068Y-51003817D01*
X72817477Y-50991735D01*
X72788039Y-50980602D01*
X72762274Y-50971420D01*
X72742703Y-50965187D01*
X72733214Y-50962997D01*
X72720007Y-50963291D01*
X72713507Y-50966926D01*
X72400115Y-50966926D01*
X72397195Y-50963900D01*
X72392663Y-50956736D01*
X72389262Y-50949164D01*
X72386830Y-50939416D01*
X72385204Y-50925723D01*
X72384224Y-50906318D01*
X72383727Y-50879432D01*
X72383551Y-50843297D01*
X72383532Y-50814618D01*
X72383823Y-50773374D01*
X72384639Y-50736388D01*
X72385900Y-50705559D01*
X72387526Y-50682788D01*
X72389435Y-50669975D01*
X72389741Y-50669029D01*
X72395150Y-50658457D01*
X72403198Y-50654890D01*
X72418435Y-50656331D01*
G37*
G36*
X72413584Y-49539813D02*
G01*
X72416929Y-49540744D01*
X72431343Y-49545319D01*
X72455494Y-49553422D01*
X72488223Y-49564642D01*
X72528372Y-49578565D01*
X72574781Y-49594778D01*
X72626292Y-49612869D01*
X72681746Y-49632426D01*
X72739983Y-49653034D01*
X72799845Y-49674283D01*
X72860173Y-49695758D01*
X72919808Y-49717048D01*
X72977591Y-49737739D01*
X73032363Y-49757419D01*
X73082965Y-49775675D01*
X73128238Y-49792095D01*
X73167023Y-49806265D01*
X73198162Y-49817773D01*
X73220495Y-49826206D01*
X73232864Y-49831151D01*
X73234422Y-49831874D01*
X73247347Y-49841063D01*
X73254157Y-49849913D01*
X73255447Y-49859137D01*
X73256548Y-49878182D01*
X73257376Y-49904724D01*
X73257849Y-49936442D01*
X73257929Y-49956401D01*
X73257929Y-50053060D01*
X73240100Y-50053060D01*
X73226212Y-50050867D01*
X73205091Y-50045041D01*
X73180675Y-50036709D01*
X73173694Y-50034045D01*
X73145423Y-50023843D01*
X73125995Y-50019395D01*
X73113504Y-50020799D01*
X73106045Y-50028153D01*
X73102581Y-50037737D01*
X73100809Y-50054036D01*
X73105129Y-50068793D01*
X73116772Y-50083476D01*
X73136968Y-50099553D01*
X73166948Y-50118490D01*
X73173599Y-50122386D01*
X73203269Y-50139567D01*
X73225033Y-50153115D01*
X73240112Y-50165324D01*
X73249725Y-50178488D01*
X73255094Y-50194900D01*
X73257438Y-50216855D01*
X73257977Y-50246646D01*
X73257929Y-50280900D01*
X73257690Y-50314243D01*
X73257030Y-50343232D01*
X73256032Y-50365732D01*
X73254783Y-50379606D01*
X73253881Y-50382983D01*
X73241348Y-50387025D01*
X73221299Y-50381862D01*
X73194038Y-50367580D01*
X73188721Y-50364260D01*
X73177732Y-50357275D01*
X73157397Y-50344366D01*
X73128624Y-50326109D01*
X73092327Y-50303082D01*
X73049413Y-50275863D01*
X73000795Y-50245029D01*
X72947382Y-50211157D01*
X72924753Y-50196808D01*
X72890084Y-50174825D01*
X72829813Y-50136610D01*
X72779441Y-50104674D01*
X72706741Y-50058532D01*
X72643670Y-50018375D01*
X72589554Y-49983753D01*
X72543722Y-49954215D01*
X72505502Y-49929311D01*
X72474223Y-49908590D01*
X72449212Y-49891601D01*
X72429799Y-49877896D01*
X72415311Y-49867023D01*
X72405077Y-49858531D01*
X72398424Y-49851971D01*
X72394682Y-49846892D01*
X72394524Y-49846605D01*
X72391977Y-49841182D01*
X72695312Y-49841182D01*
X72696756Y-49844984D01*
X72702827Y-49850911D01*
X72714638Y-49859793D01*
X72733303Y-49872457D01*
X72759935Y-49889734D01*
X72795646Y-49912452D01*
X72800922Y-49915791D01*
X72838964Y-49939744D01*
X72868201Y-49957805D01*
X72890015Y-49970693D01*
X72905790Y-49979126D01*
X72916908Y-49983823D01*
X72924753Y-49985500D01*
X72930707Y-49984877D01*
X72932679Y-49984219D01*
X72939855Y-49975766D01*
X72942172Y-49960956D01*
X72939752Y-49944511D01*
X72932716Y-49931149D01*
X72931274Y-49929705D01*
X72922248Y-49924340D01*
X72904503Y-49915972D01*
X72880132Y-49905414D01*
X72851228Y-49893481D01*
X72819883Y-49880988D01*
X72788191Y-49868749D01*
X72758245Y-49857580D01*
X72732137Y-49848294D01*
X72711961Y-49841706D01*
X72699810Y-49838631D01*
X72697381Y-49838675D01*
X72695312Y-49841182D01*
X72391977Y-49841182D01*
X72390837Y-49838755D01*
X72388080Y-49829701D01*
X72386149Y-49817737D01*
X72384942Y-49801154D01*
X72384354Y-49778244D01*
X72384282Y-49747300D01*
X72384624Y-49706613D01*
X72384856Y-49686980D01*
X72385548Y-49639706D01*
X72386499Y-49603277D01*
X72387994Y-49576398D01*
X72390317Y-49557770D01*
X72393753Y-49546095D01*
X72398587Y-49540076D01*
X72405102Y-49538415D01*
X72413584Y-49539813D01*
G37*
G36*
X72006577Y-53038377D02*
G01*
X72008868Y-53040196D01*
X72011075Y-53046241D01*
X72005948Y-53054499D01*
X71992140Y-53066946D01*
X71988840Y-53069615D01*
X71959576Y-53094722D01*
X71928087Y-53124548D01*
X71896569Y-53156744D01*
X71867219Y-53188961D01*
X71842233Y-53218851D01*
X71823807Y-53244065D01*
X71820026Y-53250130D01*
X71797539Y-53291245D01*
X71782272Y-53327568D01*
X71773048Y-53363077D01*
X71768689Y-53401753D01*
X71767935Y-53426165D01*
X71769543Y-53469947D01*
X71775846Y-53510361D01*
X71787726Y-53549945D01*
X71806064Y-53591236D01*
X71831740Y-53636771D01*
X71852261Y-53669053D01*
X71892058Y-53725010D01*
X71930736Y-53769841D01*
X71969070Y-53804416D01*
X71980076Y-53812539D01*
X72018979Y-53841960D01*
X72047045Y-53868507D01*
X72064870Y-53893396D01*
X72073051Y-53917844D01*
X72072186Y-53943067D01*
X72062871Y-53970282D01*
X72060188Y-53975792D01*
X72047132Y-53996944D01*
X72031496Y-54011628D01*
X72010987Y-54020844D01*
X71983311Y-54025596D01*
X71946176Y-54026885D01*
X71943298Y-54026872D01*
X71885533Y-54023440D01*
X71826770Y-54014506D01*
X71820687Y-54013240D01*
X71776936Y-54004963D01*
X71741121Y-54000991D01*
X71709853Y-54001238D01*
X71679746Y-54005617D01*
X71664508Y-54009213D01*
X71629855Y-54021165D01*
X71604608Y-54037266D01*
X71586264Y-54059290D01*
X71581268Y-54068221D01*
X71558178Y-54124591D01*
X71545720Y-54181291D01*
X71543797Y-54236946D01*
X71552312Y-54290182D01*
X71571167Y-54339623D01*
X71600264Y-54383895D01*
X71603986Y-54388276D01*
X71625288Y-54408716D01*
X71654829Y-54431592D01*
X71689537Y-54454916D01*
X71726340Y-54476705D01*
X71762166Y-54494973D01*
X71782574Y-54503674D01*
X71811590Y-54513432D01*
X71845820Y-54522843D01*
X71878428Y-54530050D01*
X71882104Y-54530713D01*
X71910525Y-54535916D01*
X71928580Y-54540002D01*
X71937925Y-54543578D01*
X71940214Y-54547249D01*
X71937706Y-54551040D01*
X71928842Y-54553683D01*
X71910470Y-54555204D01*
X71885164Y-54555689D01*
X71855501Y-54555223D01*
X71824055Y-54553894D01*
X71793403Y-54551786D01*
X71766120Y-54548985D01*
X71744781Y-54545578D01*
X71739880Y-54544439D01*
X71675945Y-54522376D01*
X71619840Y-54491703D01*
X71572137Y-54453126D01*
X71533408Y-54407355D01*
X71504225Y-54355095D01*
X71485160Y-54297054D01*
X71476784Y-54233940D01*
X71476429Y-54218587D01*
X71479634Y-54169767D01*
X71488927Y-54120841D01*
X71503383Y-54074461D01*
X71522077Y-54033281D01*
X71544085Y-53999955D01*
X71557577Y-53985653D01*
X71593092Y-53961491D01*
X71637247Y-53944870D01*
X71689044Y-53935943D01*
X71747486Y-53934861D01*
X71811577Y-53941774D01*
X71827926Y-53944685D01*
X71871422Y-53951824D01*
X71910865Y-53956020D01*
X71944261Y-53957190D01*
X71969615Y-53955251D01*
X71983167Y-53951197D01*
X71993601Y-53940067D01*
X71994835Y-53924768D01*
X71987830Y-53907780D01*
X71973545Y-53891588D01*
X71955573Y-53879896D01*
X71932720Y-53866956D01*
X71910990Y-53850282D01*
X71888434Y-53828019D01*
X71863101Y-53798310D01*
X71843648Y-53773373D01*
X71792276Y-53700755D01*
X71752106Y-53632589D01*
X71723080Y-53568774D01*
X71721392Y-53564273D01*
X71711751Y-53536145D01*
X71705453Y-53511437D01*
X71701596Y-53485336D01*
X71699276Y-53453028D01*
X71698862Y-53444130D01*
X71699996Y-53381644D01*
X71709649Y-53325402D01*
X71728493Y-53272378D01*
X71743855Y-53241987D01*
X71776135Y-53194377D01*
X71817941Y-53148548D01*
X71866665Y-53106790D01*
X71919698Y-53071391D01*
X71963578Y-53049144D01*
X71985144Y-53040463D01*
X71998614Y-53037044D01*
X72006577Y-53038377D01*
G37*
G36*
X72505070Y-52293996D02*
G01*
X72519574Y-52295412D01*
X72534076Y-52298746D01*
X72551045Y-52304795D01*
X72572950Y-52314354D01*
X72602261Y-52328221D01*
X72616663Y-52335177D01*
X72647901Y-52350749D01*
X72676691Y-52365918D01*
X72700563Y-52379323D01*
X72717048Y-52389603D01*
X72721522Y-52392953D01*
X72734113Y-52406847D01*
X72748378Y-52427341D01*
X72760715Y-52449040D01*
X72771169Y-52468906D01*
X72780092Y-52484193D01*
X72785709Y-52491878D01*
X72786033Y-52492120D01*
X72793390Y-52490469D01*
X72804950Y-52482251D01*
X72808019Y-52479446D01*
X72825009Y-52465881D01*
X72843024Y-52457971D01*
X72863835Y-52455840D01*
X72889214Y-52459611D01*
X72920931Y-52469408D01*
X72960760Y-52485352D01*
X72973631Y-52490946D01*
X73040496Y-52522861D01*
X73098875Y-52555868D01*
X73147963Y-52589393D01*
X73186953Y-52622860D01*
X73215038Y-52655691D01*
X73223520Y-52669395D01*
X73232589Y-52687486D01*
X73239938Y-52706053D01*
X73245740Y-52726584D01*
X73250171Y-52750569D01*
X73253404Y-52779496D01*
X73255611Y-52814852D01*
X73256968Y-52858126D01*
X73257648Y-52910807D01*
X73257823Y-52963160D01*
X73257798Y-53015092D01*
X73257609Y-53056132D01*
X73257190Y-53087529D01*
X73256477Y-53110537D01*
X73255402Y-53126406D01*
X73253900Y-53136386D01*
X73251905Y-53141731D01*
X73249350Y-53143691D01*
X73248286Y-53143808D01*
X73242208Y-53142876D01*
X73232564Y-53139874D01*
X73218720Y-53134496D01*
X73200037Y-53126435D01*
X73175880Y-53115385D01*
X73145613Y-53101039D01*
X73108599Y-53083089D01*
X73083962Y-53070959D01*
X73064201Y-53061230D01*
X73011783Y-53035155D01*
X72950709Y-53004557D01*
X72880342Y-52969128D01*
X72800046Y-52928564D01*
X72767974Y-52912334D01*
X72706508Y-52881209D01*
X72695525Y-52875648D01*
X72633144Y-52844013D01*
X72580060Y-52817002D01*
X72535502Y-52794186D01*
X72498699Y-52775138D01*
X72468882Y-52759430D01*
X72445279Y-52746635D01*
X72427119Y-52736325D01*
X72413632Y-52728071D01*
X72404047Y-52721447D01*
X72397593Y-52716025D01*
X72393501Y-52711377D01*
X72390998Y-52707075D01*
X72389353Y-52702789D01*
X72876263Y-52702789D01*
X72876544Y-52717441D01*
X72877592Y-52726365D01*
X72880154Y-52733562D01*
X72885898Y-52740344D01*
X72896494Y-52748019D01*
X72913611Y-52757896D01*
X72938919Y-52771287D01*
X72957355Y-52780841D01*
X72998951Y-52802126D01*
X73031171Y-52817986D01*
X73055254Y-52828900D01*
X73072438Y-52835343D01*
X73083962Y-52837794D01*
X73091063Y-52836728D01*
X73094412Y-52833634D01*
X73099589Y-52817803D01*
X73094626Y-52800771D01*
X73082454Y-52784242D01*
X73068748Y-52772377D01*
X73047434Y-52758189D01*
X73020929Y-52742862D01*
X72991652Y-52727574D01*
X72962020Y-52713509D01*
X72934452Y-52701847D01*
X72911364Y-52693770D01*
X72895175Y-52690459D01*
X72891109Y-52690749D01*
X72880314Y-52694927D01*
X72876263Y-52702789D01*
X72389353Y-52702789D01*
X72389315Y-52702691D01*
X72389110Y-52702076D01*
X72386543Y-52689557D01*
X72384855Y-52669551D01*
X72384019Y-52640965D01*
X72384009Y-52602709D01*
X72384742Y-52557190D01*
X72543740Y-52557190D01*
X72552279Y-52569483D01*
X72572342Y-52584727D01*
X72603707Y-52602785D01*
X72646151Y-52623522D01*
X72668786Y-52633682D01*
X72691925Y-52643324D01*
X72706508Y-52647871D01*
X72714756Y-52647828D01*
X72718216Y-52644943D01*
X72723189Y-52629344D01*
X72718008Y-52612650D01*
X72702130Y-52593300D01*
X72699255Y-52590511D01*
X72681100Y-52576070D01*
X72657110Y-52560782D01*
X72630547Y-52546318D01*
X72604675Y-52534351D01*
X72582758Y-52526555D01*
X72570359Y-52524444D01*
X72553057Y-52529156D01*
X72543753Y-52541673D01*
X72543740Y-52557190D01*
X72384742Y-52557190D01*
X72384798Y-52553692D01*
X72385109Y-52539935D01*
X72387053Y-52478154D01*
X72389972Y-52427450D01*
X72394308Y-52386767D01*
X72400502Y-52355051D01*
X72408996Y-52331244D01*
X72420232Y-52314292D01*
X72434650Y-52303140D01*
X72452692Y-52296730D01*
X72474801Y-52294009D01*
X72488095Y-52293701D01*
X72505070Y-52293996D01*
G37*
G36*
X72407473Y-51132857D02*
G01*
X72424330Y-51139850D01*
X72449946Y-51151374D01*
X72483298Y-51166918D01*
X72523366Y-51185972D01*
X72569128Y-51208027D01*
X72619561Y-51232573D01*
X72673645Y-51259099D01*
X72730359Y-51287095D01*
X72788679Y-51316051D01*
X72847586Y-51345457D01*
X72906056Y-51374803D01*
X72963069Y-51403580D01*
X73017604Y-51431276D01*
X73068637Y-51457383D01*
X73115149Y-51481389D01*
X73156116Y-51502785D01*
X73190518Y-51521061D01*
X73217334Y-51535707D01*
X73235541Y-51546213D01*
X73244117Y-51552068D01*
X73244266Y-51552220D01*
X73249731Y-51558812D01*
X73253508Y-51566385D01*
X73255907Y-51577174D01*
X73257237Y-51593415D01*
X73257808Y-51617343D01*
X73257929Y-51650934D01*
X73257929Y-51735059D01*
X73243122Y-51735059D01*
X73234167Y-51732418D01*
X73215831Y-51724937D01*
X73189558Y-51713280D01*
X73156792Y-51698107D01*
X73118980Y-51680083D01*
X73077565Y-51659870D01*
X73057761Y-51650048D01*
X73005076Y-51623955D01*
X72962254Y-51603164D01*
X72928419Y-51587311D01*
X72902692Y-51576033D01*
X72884195Y-51568966D01*
X72872050Y-51565748D01*
X72865378Y-51566014D01*
X72863303Y-51569403D01*
X72863303Y-51569591D01*
X72868099Y-51574871D01*
X72880610Y-51584342D01*
X72898134Y-51595961D01*
X72898218Y-51596014D01*
X72967028Y-51639355D01*
X73029488Y-51679024D01*
X73085045Y-51714658D01*
X73133141Y-51745891D01*
X73173224Y-51772360D01*
X73204737Y-51793702D01*
X73227125Y-51809551D01*
X73239835Y-51819545D01*
X73241454Y-51821106D01*
X73249419Y-51830164D01*
X73254285Y-51838856D01*
X73256689Y-51850281D01*
X73257271Y-51867538D01*
X73256667Y-51893724D01*
X73256634Y-51894799D01*
X73254893Y-51950622D01*
X73227568Y-51949392D01*
X73213356Y-51946855D01*
X73188843Y-51940245D01*
X73155050Y-51929882D01*
X73112995Y-51916091D01*
X73063700Y-51899192D01*
X73021465Y-51884270D01*
X72964442Y-51864062D01*
X72917862Y-51847982D01*
X72881771Y-51836130D01*
X72856215Y-51828603D01*
X72841241Y-51825502D01*
X72836895Y-51826924D01*
X72843222Y-51832969D01*
X72860270Y-51843735D01*
X72888084Y-51859322D01*
X72926710Y-51879827D01*
X72976195Y-51905350D01*
X73036585Y-51935989D01*
X73048438Y-51941965D01*
X73092492Y-51964394D01*
X73133527Y-51985735D01*
X73170152Y-52005231D01*
X73200979Y-52022125D01*
X73224619Y-52035659D01*
X73239683Y-52045076D01*
X73244266Y-52048686D01*
X73249907Y-52055698D01*
X73253742Y-52063737D01*
X73256116Y-52075158D01*
X73257374Y-52092318D01*
X73257862Y-52117572D01*
X73257929Y-52142021D01*
X73257782Y-52174422D01*
X73257145Y-52196784D01*
X73255723Y-52211210D01*
X73253222Y-52219801D01*
X73249348Y-52224661D01*
X73246067Y-52226755D01*
X73242346Y-52227233D01*
X73235552Y-52225870D01*
X73224999Y-52222342D01*
X73210000Y-52216326D01*
X73189869Y-52207499D01*
X73163921Y-52195538D01*
X73131469Y-52180120D01*
X73091827Y-52160922D01*
X73044308Y-52137621D01*
X72988228Y-52109894D01*
X72922899Y-52077417D01*
X72847635Y-52039868D01*
X72822531Y-52027323D01*
X72756305Y-51994123D01*
X72693061Y-51962231D01*
X72633668Y-51932097D01*
X72578997Y-51904171D01*
X72529920Y-51878904D01*
X72487305Y-51856747D01*
X72452024Y-51838149D01*
X72424948Y-51823562D01*
X72406946Y-51813435D01*
X72398890Y-51808219D01*
X72398713Y-51808040D01*
X72394458Y-51802417D01*
X72391270Y-51795147D01*
X72388958Y-51784438D01*
X72387328Y-51768499D01*
X72386186Y-51745539D01*
X72385340Y-51713764D01*
X72384702Y-51678062D01*
X72384242Y-51630670D01*
X72384700Y-51594110D01*
X72386276Y-51567091D01*
X72389169Y-51548322D01*
X72393578Y-51536512D01*
X72399703Y-51530370D01*
X72407741Y-51528604D01*
X72407764Y-51528604D01*
X72416915Y-51530567D01*
X72435667Y-51536067D01*
X72462198Y-51544514D01*
X72494685Y-51555324D01*
X72531308Y-51567907D01*
X72549086Y-51574145D01*
X72586952Y-51587342D01*
X72621473Y-51599038D01*
X72650841Y-51608645D01*
X72673244Y-51615579D01*
X72686873Y-51619253D01*
X72689712Y-51619687D01*
X72695922Y-51617693D01*
X72693691Y-51611520D01*
X72682648Y-51600882D01*
X72662419Y-51585493D01*
X72632631Y-51565067D01*
X72592911Y-51539318D01*
X72549055Y-51511785D01*
X72513195Y-51489341D01*
X72479737Y-51468071D01*
X72450424Y-51449109D01*
X72427000Y-51433592D01*
X72411211Y-51422652D01*
X72406358Y-51418953D01*
X72386569Y-51402444D01*
X72384659Y-51287915D01*
X72384061Y-51240371D01*
X72384140Y-51203556D01*
X72385038Y-51176063D01*
X72386895Y-51156489D01*
X72389852Y-51143428D01*
X72394049Y-51135477D01*
X72399628Y-51131231D01*
X72400396Y-51130904D01*
X72407473Y-51132857D01*
G37*
G36*
X72409686Y-48346581D02*
G01*
X72425297Y-48351777D01*
X72447177Y-48361096D01*
X72472395Y-48373045D01*
X72498020Y-48386129D01*
X72521121Y-48398855D01*
X72538768Y-48409728D01*
X72547812Y-48416983D01*
X72553069Y-48429727D01*
X72557194Y-48453250D01*
X72559802Y-48483592D01*
X72562597Y-48515345D01*
X72566700Y-48538092D01*
X72571684Y-48550087D01*
X72578543Y-48554605D01*
X72595317Y-48564019D01*
X72621042Y-48577831D01*
X72654755Y-48595539D01*
X72695489Y-48616646D01*
X72742282Y-48640651D01*
X72794169Y-48667055D01*
X72850186Y-48695358D01*
X72909367Y-48725061D01*
X72912785Y-48726771D01*
X72985242Y-48763151D01*
X73049978Y-48795955D01*
X73106546Y-48824948D01*
X73154499Y-48849895D01*
X73193389Y-48870561D01*
X73222770Y-48886709D01*
X73242193Y-48898105D01*
X73251212Y-48904512D01*
X73251728Y-48905174D01*
X73254324Y-48916664D01*
X73256038Y-48939023D01*
X73256814Y-48971000D01*
X73256595Y-49011348D01*
X73256565Y-49013086D01*
X73254893Y-49108833D01*
X73233938Y-49107127D01*
X73223818Y-49103969D01*
X73203559Y-49095482D01*
X73173784Y-49081965D01*
X73135118Y-49063715D01*
X73088182Y-49041030D01*
X73033601Y-49014209D01*
X72971998Y-48983548D01*
X72906808Y-48950768D01*
X72849850Y-48922122D01*
X72795836Y-48895197D01*
X72745790Y-48870486D01*
X72700733Y-48848484D01*
X72661689Y-48829683D01*
X72629681Y-48814577D01*
X72605731Y-48803661D01*
X72590863Y-48797428D01*
X72586415Y-48796115D01*
X72571641Y-48801439D01*
X72562705Y-48817387D01*
X72559628Y-48843923D01*
X72559626Y-48844693D01*
X72557454Y-48867254D01*
X72551675Y-48884229D01*
X72543400Y-48892775D01*
X72540696Y-48893270D01*
X72532361Y-48890967D01*
X72516251Y-48884888D01*
X72495647Y-48876283D01*
X72492832Y-48875054D01*
X72464227Y-48863268D01*
X72445658Y-48857520D01*
X72436658Y-48857752D01*
X72436761Y-48863903D01*
X72439413Y-48868246D01*
X72446834Y-48875993D01*
X72462369Y-48890182D01*
X72484642Y-48909675D01*
X72512277Y-48933336D01*
X72543898Y-48960029D01*
X72578128Y-48988618D01*
X72613590Y-49017966D01*
X72648910Y-49046937D01*
X72682710Y-49074394D01*
X72713615Y-49099202D01*
X72740248Y-49120223D01*
X72761232Y-49136321D01*
X72775192Y-49146361D01*
X72779154Y-49148777D01*
X72790409Y-49152719D01*
X72812039Y-49158641D01*
X72842502Y-49166180D01*
X72880258Y-49174977D01*
X72923765Y-49184671D01*
X72971481Y-49194900D01*
X73013314Y-49203568D01*
X73072252Y-49215645D01*
X73120413Y-49225685D01*
X73158937Y-49233986D01*
X73188967Y-49240845D01*
X73211642Y-49246559D01*
X73228104Y-49251425D01*
X73239494Y-49255741D01*
X73246952Y-49259804D01*
X73251620Y-49263912D01*
X73253282Y-49266101D01*
X73254795Y-49274180D01*
X73256100Y-49292197D01*
X73257101Y-49317947D01*
X73257704Y-49349224D01*
X73257836Y-49371242D01*
X73257773Y-49408084D01*
X73257365Y-49434629D01*
X73256409Y-49452726D01*
X73254698Y-49464222D01*
X73252028Y-49470963D01*
X73248193Y-49474798D01*
X73246198Y-49475980D01*
X73238700Y-49477630D01*
X73225579Y-49476886D01*
X73205397Y-49473496D01*
X73176721Y-49467211D01*
X73138116Y-49457779D01*
X73129308Y-49455552D01*
X73076053Y-49442247D01*
X73034383Y-49432453D01*
X73004210Y-49426340D01*
X72985444Y-49424077D01*
X72977996Y-49425834D01*
X72981777Y-49431781D01*
X72996696Y-49442087D01*
X73022664Y-49456922D01*
X73059592Y-49476455D01*
X73105826Y-49500066D01*
X73143303Y-49519361D01*
X73177481Y-49537608D01*
X73206744Y-49553890D01*
X73229474Y-49567294D01*
X73244055Y-49576902D01*
X73248552Y-49580888D01*
X73252281Y-49588623D01*
X73254924Y-49600713D01*
X73256638Y-49619012D01*
X73257584Y-49645376D01*
X73257921Y-49681658D01*
X73257929Y-49690079D01*
X73257929Y-49785883D01*
X73239127Y-49785883D01*
X73229472Y-49783122D01*
X73209319Y-49774827D01*
X73178636Y-49760982D01*
X73137389Y-49741572D01*
X73085545Y-49716581D01*
X73023071Y-49685992D01*
X72949933Y-49649790D01*
X72866099Y-49607959D01*
X72815591Y-49582634D01*
X72737087Y-49543159D01*
X72668791Y-49508692D01*
X72610019Y-49478871D01*
X72560086Y-49453330D01*
X72518309Y-49431706D01*
X72484003Y-49413636D01*
X72456485Y-49398755D01*
X72435070Y-49386701D01*
X72419076Y-49377108D01*
X72407817Y-49369613D01*
X72400610Y-49363853D01*
X72397195Y-49360101D01*
X72391133Y-49350331D01*
X72387169Y-49339657D01*
X72384871Y-49325302D01*
X72383803Y-49304490D01*
X72383533Y-49274448D01*
X72383532Y-49272732D01*
X72383887Y-49241792D01*
X72384844Y-49212236D01*
X72386244Y-49188039D01*
X72387413Y-49176334D01*
X72388870Y-49165424D01*
X72390794Y-49157638D01*
X72394608Y-49153255D01*
X72401733Y-49152558D01*
X72413591Y-49155826D01*
X72431605Y-49163341D01*
X72457196Y-49175385D01*
X72491786Y-49192237D01*
X72508012Y-49200169D01*
X72553165Y-49221822D01*
X72587851Y-49237474D01*
X72612207Y-49247042D01*
X72626369Y-49250444D01*
X72630474Y-49247598D01*
X72624658Y-49238423D01*
X72609059Y-49222838D01*
X72583814Y-49200759D01*
X72551531Y-49174110D01*
X72522669Y-49150833D01*
X72493897Y-49127886D01*
X72467986Y-49107463D01*
X72447710Y-49091758D01*
X72442373Y-49087718D01*
X72430676Y-49079125D01*
X72420789Y-49071614D01*
X72412553Y-49064138D01*
X72405805Y-49055648D01*
X72400387Y-49045097D01*
X72396137Y-49031438D01*
X72392895Y-49013623D01*
X72390501Y-48990605D01*
X72388795Y-48961335D01*
X72387615Y-48924767D01*
X72386801Y-48879853D01*
X72386193Y-48825545D01*
X72385631Y-48760795D01*
X72385232Y-48714635D01*
X72384764Y-48653313D01*
X72384474Y-48594790D01*
X72384357Y-48540362D01*
X72384410Y-48491328D01*
X72384626Y-48448984D01*
X72385003Y-48414627D01*
X72385536Y-48389554D01*
X72386220Y-48375061D01*
X72386378Y-48373517D01*
X72390299Y-48342136D01*
X72409686Y-48346581D01*
G37*
G36*
X70949189Y-48196496D02*
G01*
X70959272Y-48197330D01*
X70968026Y-48198601D01*
X70976668Y-48201118D01*
X70986411Y-48205689D01*
X70998472Y-48213119D01*
X71014066Y-48224217D01*
X71034408Y-48239790D01*
X71060713Y-48260645D01*
X71094196Y-48287590D01*
X71130644Y-48317044D01*
X71170035Y-48349668D01*
X71205475Y-48380556D01*
X71235294Y-48408186D01*
X71257822Y-48431037D01*
X71266248Y-48440704D01*
X71281566Y-48457980D01*
X71303908Y-48481123D01*
X71331140Y-48508024D01*
X71361128Y-48536575D01*
X71390728Y-48563757D01*
X71434500Y-48603749D01*
X71470352Y-48638009D01*
X71499897Y-48668330D01*
X71524746Y-48696505D01*
X71546512Y-48724326D01*
X71566808Y-48753587D01*
X71579863Y-48774045D01*
X71595220Y-48797631D01*
X71615886Y-48827771D01*
X71639724Y-48861429D01*
X71664594Y-48895569D01*
X71679203Y-48915125D01*
X71726648Y-48979814D01*
X71767445Y-49039755D01*
X71803865Y-49098441D01*
X71838179Y-49159366D01*
X71839084Y-49161049D01*
X71850193Y-49182827D01*
X71864743Y-49213001D01*
X71882022Y-49249948D01*
X71901315Y-49292048D01*
X71921908Y-49337677D01*
X71943087Y-49385215D01*
X71964138Y-49433040D01*
X71984348Y-49479529D01*
X72003001Y-49523062D01*
X72019385Y-49562017D01*
X72032786Y-49594772D01*
X72042488Y-49619704D01*
X72047696Y-49634898D01*
X72051584Y-49650545D01*
X72054415Y-49667482D01*
X72056319Y-49687814D01*
X72057426Y-49713642D01*
X72057863Y-49747071D01*
X72057761Y-49790204D01*
X72057704Y-49798028D01*
X72055911Y-49878106D01*
X72051586Y-49947417D01*
X72044308Y-50007154D01*
X72033656Y-50058509D01*
X72019208Y-50102675D01*
X72000545Y-50140846D01*
X71977244Y-50174212D01*
X71948886Y-50203967D01*
X71915049Y-50231304D01*
X71901441Y-50240786D01*
X71859009Y-50268334D01*
X71816726Y-50293932D01*
X71776624Y-50316473D01*
X71740734Y-50334850D01*
X71711088Y-50347956D01*
X71694338Y-50353618D01*
X71678327Y-50357220D01*
X71660885Y-50359578D01*
X71640514Y-50360734D01*
X71639690Y-50360781D01*
X71612425Y-50360917D01*
X71576768Y-50360075D01*
X71550123Y-50359128D01*
X71510922Y-50357642D01*
X71482266Y-50356881D01*
X71462566Y-50357213D01*
X71450228Y-50359004D01*
X71443660Y-50362622D01*
X71441269Y-50368434D01*
X71441464Y-50376806D01*
X71442245Y-50383995D01*
X71445369Y-50396926D01*
X71452712Y-50410437D01*
X71465419Y-50425703D01*
X71484633Y-50443900D01*
X71511499Y-50466203D01*
X71547162Y-50493787D01*
X71554678Y-50499459D01*
X71676295Y-50598533D01*
X71789557Y-50706398D01*
X71894414Y-50822987D01*
X71990818Y-50948232D01*
X72078720Y-51082067D01*
X72158071Y-51224424D01*
X72228823Y-51375235D01*
X72279712Y-51503316D01*
X72297432Y-51553304D01*
X72313242Y-51601325D01*
X72326823Y-51646104D01*
X72337858Y-51686367D01*
X72346028Y-51720839D01*
X72351015Y-51748244D01*
X72352500Y-51767310D01*
X72350165Y-51776759D01*
X72348217Y-51777564D01*
X72344535Y-51772223D01*
X72336867Y-51757230D01*
X72325932Y-51734127D01*
X72312449Y-51704457D01*
X72297137Y-51669762D01*
X72286650Y-51645494D01*
X72256956Y-51577876D01*
X72224890Y-51507810D01*
X72191669Y-51437792D01*
X72158509Y-51370318D01*
X72126625Y-51307883D01*
X72097234Y-51252982D01*
X72083220Y-51228030D01*
X72059133Y-51187576D01*
X72030002Y-51141136D01*
X71997567Y-51091288D01*
X71963571Y-51040615D01*
X71929754Y-50991695D01*
X71897857Y-50947110D01*
X71869621Y-50909440D01*
X71859910Y-50897095D01*
X71760340Y-50780947D01*
X71656767Y-50676213D01*
X71548990Y-50582772D01*
X71436812Y-50500505D01*
X71320032Y-50429292D01*
X71244880Y-50392032D01*
X71198452Y-50369013D01*
X71071872Y-50319549D01*
X70940093Y-50280779D01*
X70802916Y-50252585D01*
X70782326Y-50249331D01*
X70749842Y-50245630D01*
X70707701Y-50242704D01*
X70658367Y-50240567D01*
X70604304Y-50239237D01*
X70547976Y-50238727D01*
X70491846Y-50239056D01*
X70438379Y-50240237D01*
X70390038Y-50242288D01*
X70349287Y-50245223D01*
X70337202Y-50246470D01*
X70182468Y-50268531D01*
X70036849Y-50298437D01*
X69949852Y-50322538D01*
X69900073Y-50336328D01*
X69771868Y-50382343D01*
X69651963Y-50436622D01*
X69540086Y-50499304D01*
X69435964Y-50570528D01*
X69339327Y-50650433D01*
X69249902Y-50739161D01*
X69167419Y-50836848D01*
X69155115Y-50852964D01*
X69109577Y-50916979D01*
X69063066Y-50988902D01*
X69017093Y-51065987D01*
X68973168Y-51145489D01*
X68932801Y-51224662D01*
X68897502Y-51300760D01*
X68868781Y-51371037D01*
X68865860Y-51378918D01*
X68828582Y-51492709D01*
X68801478Y-51603693D01*
X68784022Y-51714807D01*
X68775686Y-51828986D01*
X68774772Y-51886863D01*
X68775906Y-51951492D01*
X68779341Y-52012467D01*
X68785452Y-52072840D01*
X68794613Y-52135667D01*
X68807197Y-52204003D01*
X68822370Y-52275484D01*
X68844796Y-52369326D01*
X68868251Y-52452653D01*
X68893551Y-52527093D01*
X68921511Y-52594273D01*
X68952948Y-52655821D01*
X68988678Y-52713364D01*
X69029517Y-52768530D01*
X69076281Y-52822947D01*
X69119414Y-52867945D01*
X69156258Y-52904101D01*
X69187986Y-52933372D01*
X69217380Y-52958097D01*
X69247222Y-52980617D01*
X69279966Y-53003058D01*
X69367917Y-53056740D01*
X69456348Y-53102184D01*
X69543905Y-53138863D01*
X69629235Y-53166252D01*
X69710985Y-53183826D01*
X69760343Y-53189644D01*
X69830132Y-53189644D01*
X69899600Y-53179561D01*
X69967358Y-53160233D01*
X70032016Y-53132500D01*
X70092184Y-53097200D01*
X70146473Y-53055172D01*
X70193494Y-53007256D01*
X70231857Y-52954289D01*
X70260172Y-52897110D01*
X70264484Y-52885309D01*
X70272644Y-52853164D01*
X70276019Y-52820430D01*
X70274494Y-52790965D01*
X70267957Y-52768632D01*
X70267914Y-52768549D01*
X70248116Y-52742414D01*
X70219362Y-52719661D01*
X70184650Y-52701524D01*
X70146977Y-52689238D01*
X70109342Y-52684039D01*
X70074742Y-52687163D01*
X70072080Y-52687840D01*
X70049131Y-52697639D01*
X70030459Y-52714230D01*
X70015336Y-52738872D01*
X70003034Y-52772821D01*
X69992826Y-52817335D01*
X69990895Y-52828054D01*
X69983382Y-52858371D01*
X69971847Y-52879390D01*
X69954143Y-52893815D01*
X69931011Y-52903438D01*
X69887407Y-52913799D01*
X69842914Y-52916542D01*
X69795131Y-52911529D01*
X69741660Y-52898621D01*
X69717840Y-52891116D01*
X69692229Y-52880774D01*
X69659444Y-52867535D01*
X69605987Y-52836737D01*
X69554561Y-52796891D01*
X69526000Y-52770368D01*
X69462944Y-52700156D01*
X69408859Y-52622244D01*
X69364184Y-52537572D01*
X69329356Y-52447079D01*
X69306948Y-52360010D01*
X69382359Y-52360010D01*
X69384480Y-52379440D01*
X69389304Y-52403671D01*
X69396079Y-52429410D01*
X69404056Y-52453359D01*
X69411360Y-52470120D01*
X69418639Y-52481823D01*
X69432171Y-52501384D01*
X69450690Y-52527121D01*
X69472933Y-52557353D01*
X69497635Y-52590399D01*
X69523530Y-52624578D01*
X69549355Y-52658210D01*
X69573845Y-52689613D01*
X69595735Y-52717107D01*
X69612874Y-52737961D01*
X69637845Y-52765793D01*
X69658343Y-52784044D01*
X69675945Y-52793662D01*
X69692229Y-52795595D01*
X69703988Y-52792774D01*
X69720522Y-52785936D01*
X69745615Y-52774645D01*
X69777098Y-52759962D01*
X69812798Y-52742946D01*
X69850544Y-52724657D01*
X69888165Y-52706157D01*
X69923488Y-52688505D01*
X69954342Y-52672761D01*
X69978555Y-52659985D01*
X69993957Y-52651237D01*
X69994123Y-52651134D01*
X70020070Y-52637421D01*
X70051415Y-52624397D01*
X70079116Y-52615461D01*
X70120858Y-52602135D01*
X70152113Y-52587317D01*
X70153034Y-52586582D01*
X70240324Y-52586582D01*
X70242646Y-52604378D01*
X70251388Y-52625375D01*
X70267249Y-52651053D01*
X70290925Y-52682896D01*
X70304707Y-52700114D01*
X70333318Y-52732722D01*
X70359173Y-52755750D01*
X70384726Y-52770587D01*
X70412434Y-52778622D01*
X70444752Y-52781244D01*
X70448177Y-52781262D01*
X70471575Y-52780472D01*
X70488567Y-52776849D01*
X70501328Y-52768513D01*
X70512029Y-52753582D01*
X70522842Y-52730177D01*
X70530915Y-52709646D01*
X70568681Y-52627717D01*
X70618270Y-52548447D01*
X70679646Y-52471893D01*
X70722664Y-52426742D01*
X70742855Y-52405968D01*
X70759358Y-52387414D01*
X70770441Y-52373135D01*
X70774379Y-52365293D01*
X70770399Y-52358014D01*
X70757417Y-52350672D01*
X70734291Y-52342522D01*
X70713012Y-52336274D01*
X70695846Y-52331822D01*
X70686543Y-52330134D01*
X70677277Y-52332935D01*
X70658844Y-52340831D01*
X70632721Y-52353062D01*
X70600380Y-52368865D01*
X70563295Y-52387481D01*
X70522941Y-52408148D01*
X70480792Y-52430106D01*
X70438320Y-52452592D01*
X70397001Y-52474848D01*
X70358308Y-52496110D01*
X70323715Y-52515620D01*
X70296857Y-52531318D01*
X70274921Y-52545190D01*
X70257125Y-52557836D01*
X70246018Y-52567376D01*
X70243725Y-52570502D01*
X70240324Y-52586582D01*
X70153034Y-52586582D01*
X70172079Y-52571389D01*
X70172601Y-52570771D01*
X70175161Y-52564983D01*
X70173490Y-52557483D01*
X70166676Y-52547259D01*
X70153809Y-52533303D01*
X70133978Y-52514603D01*
X70106272Y-52490149D01*
X70078285Y-52466156D01*
X70020189Y-52413399D01*
X69972631Y-52362584D01*
X69934500Y-52312216D01*
X69904685Y-52260801D01*
X69882076Y-52206845D01*
X69879202Y-52198333D01*
X69870412Y-52164402D01*
X69869257Y-52139003D01*
X69875722Y-52121234D01*
X69877847Y-52118606D01*
X69887309Y-52112088D01*
X69905508Y-52102683D01*
X69929774Y-52091678D01*
X69955900Y-52080960D01*
X70016942Y-52055439D01*
X70083863Y-52024515D01*
X70152853Y-51990105D01*
X70220104Y-51954130D01*
X70281805Y-51918508D01*
X70297656Y-51908804D01*
X70328377Y-51890268D01*
X70355339Y-51875052D01*
X70376738Y-51864105D01*
X70390771Y-51858377D01*
X70394646Y-51857787D01*
X70405229Y-51864781D01*
X70415286Y-51883036D01*
X70417626Y-51889027D01*
X70425695Y-51905636D01*
X70439514Y-51928868D01*
X70457412Y-51956373D01*
X70477716Y-51985800D01*
X70498755Y-52014801D01*
X70518855Y-52041025D01*
X70536345Y-52062122D01*
X70549552Y-52075743D01*
X70551784Y-52077553D01*
X70558527Y-52081993D01*
X70566407Y-52085299D01*
X70577266Y-52087662D01*
X70592951Y-52089277D01*
X70615306Y-52090334D01*
X70646177Y-52091027D01*
X70685870Y-52091531D01*
X70732299Y-52092561D01*
X70777986Y-52094545D01*
X70819614Y-52097288D01*
X70853865Y-52100593D01*
X70865628Y-52102157D01*
X70904025Y-52107695D01*
X70931637Y-52110753D01*
X70949658Y-52110821D01*
X70959288Y-52107389D01*
X70961723Y-52099946D01*
X70958159Y-52087983D01*
X70949795Y-52070988D01*
X70947762Y-52067149D01*
X70927385Y-52031990D01*
X70900518Y-51990344D01*
X70868933Y-51944626D01*
X70834401Y-51897252D01*
X70798694Y-51850636D01*
X70763584Y-51807194D01*
X70730842Y-51769340D01*
X70723079Y-51760865D01*
X70700580Y-51737777D01*
X70682572Y-51723577D01*
X70665981Y-51717649D01*
X70647737Y-51719380D01*
X70624767Y-51728156D01*
X70605745Y-51737397D01*
X70558661Y-51760469D01*
X70515047Y-51780624D01*
X70476353Y-51797267D01*
X70444030Y-51809797D01*
X70419531Y-51817617D01*
X70404970Y-51820140D01*
X70395093Y-51819423D01*
X70385789Y-51816262D01*
X70375151Y-51809242D01*
X70361269Y-51796948D01*
X70342236Y-51777968D01*
X70327522Y-51762754D01*
X70257240Y-51681598D01*
X70195843Y-51594045D01*
X70164144Y-51539674D01*
X70147201Y-51509428D01*
X70132970Y-51488669D01*
X70118874Y-51475952D01*
X70102339Y-51469832D01*
X70080790Y-51468861D01*
X70051650Y-51471596D01*
X70044462Y-51472488D01*
X69957636Y-51488905D01*
X69874770Y-51515901D01*
X69795133Y-51553839D01*
X69717993Y-51603082D01*
X69642619Y-51663991D01*
X69625064Y-51680054D01*
X69603327Y-51701569D01*
X69590267Y-51717636D01*
X69584671Y-51729852D01*
X69584250Y-51733784D01*
X69588470Y-51754039D01*
X69600985Y-51782577D01*
X69621573Y-51819018D01*
X69650012Y-51862987D01*
X69686082Y-51914107D01*
X69705254Y-51940023D01*
X69743015Y-51991128D01*
X69773065Y-52033412D01*
X69795637Y-52067235D01*
X69810966Y-52092962D01*
X69819284Y-52110954D01*
X69821065Y-52119424D01*
X69819379Y-52125800D01*
X69813724Y-52133001D01*
X69803204Y-52141520D01*
X69786924Y-52151849D01*
X69763989Y-52164480D01*
X69733503Y-52179906D01*
X69694571Y-52198618D01*
X69646298Y-52221108D01*
X69587789Y-52247870D01*
X69585494Y-52248913D01*
X69538519Y-52270482D01*
X69495548Y-52290642D01*
X69457806Y-52308789D01*
X69426519Y-52324315D01*
X69402911Y-52336616D01*
X69388210Y-52345084D01*
X69383692Y-52348678D01*
X69382359Y-52360010D01*
X69306948Y-52360010D01*
X69304811Y-52351705D01*
X69292462Y-52268520D01*
X69289448Y-52185479D01*
X69297477Y-52103858D01*
X69316782Y-52022482D01*
X69347598Y-51940174D01*
X69365520Y-51902044D01*
X69416514Y-51813407D01*
X69478221Y-51730445D01*
X69550583Y-51653215D01*
X69633545Y-51581776D01*
X69727050Y-51516185D01*
X69753527Y-51499829D01*
X69832300Y-51459455D01*
X69917256Y-51429208D01*
X70007548Y-51409309D01*
X70102332Y-51399979D01*
X70136820Y-51399252D01*
X70225259Y-51403796D01*
X70309354Y-51418012D01*
X70390592Y-51442395D01*
X70470455Y-51477444D01*
X70550430Y-51523656D01*
X70591748Y-51551690D01*
X70664121Y-51608459D01*
X70735463Y-51675221D01*
X70806138Y-51752403D01*
X70876512Y-51840434D01*
X70946949Y-51939739D01*
X71016204Y-52048101D01*
X71032336Y-52073699D01*
X71047709Y-52096593D01*
X71060447Y-52114070D01*
X71067905Y-52122742D01*
X71079442Y-52129561D01*
X71099823Y-52137732D01*
X71126671Y-52146649D01*
X71157610Y-52155706D01*
X71190263Y-52164296D01*
X71222254Y-52171813D01*
X71251206Y-52177649D01*
X71274742Y-52181200D01*
X71290485Y-52181857D01*
X71295054Y-52180710D01*
X71302243Y-52172045D01*
X71307521Y-52155732D01*
X71310974Y-52130863D01*
X71312686Y-52096529D01*
X71312744Y-52051820D01*
X71311566Y-52005271D01*
X71303426Y-51872707D01*
X71288328Y-51748257D01*
X71266376Y-51632251D01*
X71237673Y-51525021D01*
X71202321Y-51426898D01*
X71160423Y-51338214D01*
X71112081Y-51259299D01*
X71060089Y-51193467D01*
X71022631Y-51157992D01*
X70977281Y-51125068D01*
X70928283Y-51097594D01*
X70904108Y-51086952D01*
X70887303Y-51080577D01*
X70872456Y-51076080D01*
X70856888Y-51073133D01*
X70837920Y-51071405D01*
X70812874Y-51070568D01*
X70779072Y-51070293D01*
X70768328Y-51070273D01*
X70717212Y-51071059D01*
X70673804Y-51074025D01*
X70633893Y-51079865D01*
X70593270Y-51089273D01*
X70547726Y-51102944D01*
X70525487Y-51110338D01*
X70498623Y-51119317D01*
X70480691Y-51124700D01*
X70469166Y-51126914D01*
X70461520Y-51126384D01*
X70455229Y-51123536D01*
X70453519Y-51122479D01*
X70449604Y-51113846D01*
X70454422Y-51100019D01*
X70466545Y-51082450D01*
X70484543Y-51062594D01*
X70506987Y-51041902D01*
X70532448Y-51021829D01*
X70559496Y-51003827D01*
X70582555Y-50991293D01*
X70653595Y-50963789D01*
X70729717Y-50946894D01*
X70810285Y-50940506D01*
X70894662Y-50944523D01*
X70982211Y-50958840D01*
X71072293Y-50983356D01*
X71164273Y-51017967D01*
X71257513Y-51062571D01*
X71348042Y-51114963D01*
X71439713Y-51175320D01*
X71526324Y-51237792D01*
X71605973Y-51300908D01*
X71676761Y-51363197D01*
X71709529Y-51394864D01*
X71788705Y-51482222D01*
X71861578Y-51578891D01*
X71927088Y-51683226D01*
X71984170Y-51793583D01*
X72018388Y-51873136D01*
X72029077Y-51901178D01*
X72041071Y-51934287D01*
X72053625Y-51970221D01*
X72065995Y-52006736D01*
X72077437Y-52041588D01*
X72087206Y-52072535D01*
X72094557Y-52097333D01*
X72098748Y-52113738D01*
X72099324Y-52117043D01*
X72099501Y-52130598D01*
X72095504Y-52133421D01*
X72087794Y-52126004D01*
X72076830Y-52108841D01*
X72063072Y-52082425D01*
X72058913Y-52073718D01*
X72017364Y-51986272D01*
X71979502Y-51908908D01*
X71944557Y-51840411D01*
X71911758Y-51779568D01*
X71880337Y-51725161D01*
X71849524Y-51675978D01*
X71818549Y-51630803D01*
X71786642Y-51588421D01*
X71753034Y-51547617D01*
X71716956Y-51507176D01*
X71677638Y-51465884D01*
X71667013Y-51455085D01*
X71610114Y-51399412D01*
X71555438Y-51350068D01*
X71499677Y-51304349D01*
X71439524Y-51259552D01*
X71371670Y-51212973D01*
X71367054Y-51209911D01*
X71311881Y-51174768D01*
X71257146Y-51142501D01*
X71204177Y-51113731D01*
X71154302Y-51089077D01*
X71108848Y-51069160D01*
X71069143Y-51054598D01*
X71036513Y-51046013D01*
X71012287Y-51044024D01*
X71011881Y-51044057D01*
X70990862Y-51045864D01*
X71045471Y-51089403D01*
X71105897Y-51144876D01*
X71160503Y-51210375D01*
X71209431Y-51286125D01*
X71252824Y-51372353D01*
X71290828Y-51469285D01*
X71295809Y-51483970D01*
X71317663Y-51555667D01*
X71335781Y-51629017D01*
X71350582Y-51706350D01*
X71362484Y-51789996D01*
X71371908Y-51882283D01*
X71375384Y-51926333D01*
X71378856Y-51984709D01*
X71380759Y-52041366D01*
X71381157Y-52094889D01*
X71380109Y-52143862D01*
X71377679Y-52186869D01*
X71373929Y-52222494D01*
X71368919Y-52249322D01*
X71362712Y-52265935D01*
X71360431Y-52268914D01*
X71354139Y-52273665D01*
X71345926Y-52274974D01*
X71332459Y-52272756D01*
X71313239Y-52267716D01*
X71218320Y-52242089D01*
X71133003Y-52220612D01*
X71055608Y-52202936D01*
X70984455Y-52188714D01*
X70917864Y-52177597D01*
X70854157Y-52169239D01*
X70821057Y-52165815D01*
X70767397Y-52162280D01*
X70706751Y-52160825D01*
X70642522Y-52161343D01*
X70578113Y-52163729D01*
X70516926Y-52167876D01*
X70462365Y-52173678D01*
X70434432Y-52177874D01*
X70398663Y-52184365D01*
X70372844Y-52189990D01*
X70357248Y-52194980D01*
X70352147Y-52199562D01*
X70357813Y-52203969D01*
X70374518Y-52208428D01*
X70402536Y-52213171D01*
X70442137Y-52218426D01*
X70489007Y-52223907D01*
X70598271Y-52239676D01*
X70698718Y-52261296D01*
X70789721Y-52288598D01*
X70870653Y-52321409D01*
X70898880Y-52335415D01*
X70923392Y-52348833D01*
X70953582Y-52366237D01*
X70988071Y-52386749D01*
X71025478Y-52409490D01*
X71064422Y-52433583D01*
X71103522Y-52458148D01*
X71141397Y-52482307D01*
X71176668Y-52505183D01*
X71207952Y-52525896D01*
X71233870Y-52543568D01*
X71253041Y-52557322D01*
X71264083Y-52566278D01*
X71266248Y-52569121D01*
X71264648Y-52571742D01*
X71259190Y-52571816D01*
X71248887Y-52568930D01*
X71232753Y-52562669D01*
X71209800Y-52552621D01*
X71179044Y-52538372D01*
X71139495Y-52519508D01*
X71090170Y-52495616D01*
X71085911Y-52493543D01*
X71033918Y-52468275D01*
X70991633Y-52447900D01*
X70957870Y-52431944D01*
X70931441Y-52419935D01*
X70911162Y-52411398D01*
X70895845Y-52405860D01*
X70884304Y-52402848D01*
X70875354Y-52401886D01*
X70867807Y-52402503D01*
X70861498Y-52403945D01*
X70848664Y-52410680D01*
X70829617Y-52424818D01*
X70806172Y-52444650D01*
X70780145Y-52468468D01*
X70753354Y-52494565D01*
X70727614Y-52521232D01*
X70704743Y-52546763D01*
X70689153Y-52565980D01*
X70667287Y-52598243D01*
X70643890Y-52638694D01*
X70620684Y-52683822D01*
X70599396Y-52730114D01*
X70581749Y-52774060D01*
X70570993Y-52806620D01*
X70549948Y-52898869D01*
X70537250Y-52998466D01*
X70533038Y-53103809D01*
X70536568Y-53201494D01*
X70538849Y-53236834D01*
X70539845Y-53262174D01*
X70539504Y-53279595D01*
X70537772Y-53291179D01*
X70534599Y-53299007D01*
X70534079Y-53299854D01*
X70528703Y-53306489D01*
X70520292Y-53313110D01*
X70507178Y-53320564D01*
X70487695Y-53329701D01*
X70460175Y-53341366D01*
X70422952Y-53356410D01*
X70422613Y-53356545D01*
X70385200Y-53373809D01*
X70357493Y-53392698D01*
X70337068Y-53415425D01*
X70321500Y-53444203D01*
X70318473Y-53451599D01*
X70310588Y-53480908D01*
X70305709Y-53518641D01*
X70303852Y-53561451D01*
X70305030Y-53605991D01*
X70309258Y-53648915D01*
X70316549Y-53686876D01*
X70317457Y-53690306D01*
X70342680Y-53764781D01*
X70378478Y-53842760D01*
X70424229Y-53923048D01*
X70479311Y-54004450D01*
X70484958Y-54012132D01*
X70506524Y-54039142D01*
X70535468Y-54072280D01*
X70569980Y-54109726D01*
X70608253Y-54149664D01*
X70648481Y-54190274D01*
X70688855Y-54229739D01*
X70727567Y-54266240D01*
X70762810Y-54297960D01*
X70792777Y-54323080D01*
X70798689Y-54327699D01*
X70924588Y-54417604D01*
X71056064Y-54498489D01*
X71191598Y-54569549D01*
X71329671Y-54629980D01*
X71451973Y-54673698D01*
X71552279Y-54702354D01*
X71655073Y-54724680D01*
X71762494Y-54741352D01*
X71795833Y-54745915D01*
X71825515Y-54750504D01*
X71849166Y-54754712D01*
X71864413Y-54758131D01*
X71868320Y-54759507D01*
X71876794Y-54768096D01*
X71878797Y-54782429D01*
X71874289Y-54804138D01*
X71866780Y-54825807D01*
X71857351Y-54864805D01*
X71859013Y-54900849D01*
X71870824Y-54932620D01*
X71891843Y-54958802D01*
X71921128Y-54978077D01*
X71957736Y-54989126D01*
X71985086Y-54991274D01*
X72017330Y-54988648D01*
X72044878Y-54979651D01*
X72071807Y-54962602D01*
X72088374Y-54948697D01*
X72102094Y-54937058D01*
X72113070Y-54931122D01*
X72126022Y-54929537D01*
X72145671Y-54930951D01*
X72149096Y-54931298D01*
X72176560Y-54934459D01*
X72205593Y-54938332D01*
X72219583Y-54940437D01*
X72258374Y-54943426D01*
X72291403Y-54939471D01*
X72316833Y-54928928D01*
X72327736Y-54919520D01*
X72336321Y-54907752D01*
X72340086Y-54895653D01*
X72340125Y-54878411D01*
X72339309Y-54868637D01*
X72334960Y-54845308D01*
X72326720Y-54817480D01*
X72317113Y-54792897D01*
X72307147Y-54769573D01*
X72303413Y-54754714D01*
X72306676Y-54745942D01*
X72317703Y-54740877D01*
X72334955Y-54737512D01*
X72366922Y-54729325D01*
X72388670Y-54716455D01*
X72401488Y-54698107D01*
X72402388Y-54695774D01*
X72406993Y-54684908D01*
X72412740Y-54678792D01*
X72421921Y-54677329D01*
X72436830Y-54680424D01*
X72459760Y-54687982D01*
X72473325Y-54692820D01*
X72496270Y-54700734D01*
X72512500Y-54704104D01*
X72524824Y-54701755D01*
X72536052Y-54692511D01*
X72548994Y-54675194D01*
X72561786Y-54655785D01*
X72569976Y-54644524D01*
X72578205Y-54638411D01*
X72589089Y-54637350D01*
X72605244Y-54641247D01*
X72629286Y-54650007D01*
X72637111Y-54653053D01*
X72668917Y-54663881D01*
X72693053Y-54667749D01*
X72711901Y-54664513D01*
X72727843Y-54654028D01*
X72734509Y-54647128D01*
X72746931Y-54629817D01*
X72755580Y-54612077D01*
X72756902Y-54607527D01*
X72759299Y-54590876D01*
X72758437Y-54574281D01*
X72753602Y-54556039D01*
X72744080Y-54534447D01*
X72729158Y-54507803D01*
X72708122Y-54474406D01*
X72688901Y-54445389D01*
X72660809Y-54402982D01*
X72639471Y-54369488D01*
X72624418Y-54344057D01*
X72615180Y-54325840D01*
X72611286Y-54313988D01*
X72612266Y-54307652D01*
X72612493Y-54307405D01*
X72618094Y-54304230D01*
X72625761Y-54304950D01*
X72636425Y-54310302D01*
X72651015Y-54321020D01*
X72670462Y-54337842D01*
X72695697Y-54361502D01*
X72727648Y-54392736D01*
X72755581Y-54420574D01*
X72807965Y-54472301D01*
X72855054Y-54516975D01*
X72899411Y-54556802D01*
X72943600Y-54593989D01*
X72990185Y-54630739D01*
X73041730Y-54669260D01*
X73060582Y-54682966D01*
X73092512Y-54706424D01*
X73127673Y-54732862D01*
X73161419Y-54758758D01*
X73185062Y-54777346D01*
X73217764Y-54803366D01*
X73242560Y-54822393D01*
X73261032Y-54835012D01*
X73274765Y-54841810D01*
X73285339Y-54843374D01*
X73294339Y-54840290D01*
X73303345Y-54833144D01*
X73312094Y-54824413D01*
X73331421Y-54796583D01*
X73343333Y-54762204D01*
X73347516Y-54724576D01*
X73343660Y-54686999D01*
X73331454Y-54652774D01*
X73328752Y-54647909D01*
X73311913Y-54624652D01*
X73287056Y-54597308D01*
X73256551Y-54568080D01*
X73222769Y-54539173D01*
X73188078Y-54512792D01*
X73170957Y-54501123D01*
X73143180Y-54484325D01*
X73108809Y-54465466D01*
X73072514Y-54447024D01*
X73043441Y-54433440D01*
X73014915Y-54420199D01*
X72989760Y-54407411D01*
X72970464Y-54396417D01*
X72959511Y-54388559D01*
X72958732Y-54387724D01*
X72951103Y-54370819D01*
X72954216Y-54353634D01*
X72966871Y-54338105D01*
X72987869Y-54326169D01*
X72999008Y-54322663D01*
X73031578Y-54310650D01*
X73055844Y-54293743D01*
X73070678Y-54273180D01*
X73074957Y-54250196D01*
X73073499Y-54240753D01*
X73067988Y-54230295D01*
X73055849Y-54213305D01*
X73038819Y-54192053D01*
X73018639Y-54168807D01*
X73016629Y-54166586D01*
X72995061Y-54142486D01*
X72975135Y-54119581D01*
X72959035Y-54100421D01*
X72948945Y-54087557D01*
X72948780Y-54087327D01*
X72933792Y-54066261D01*
X72945406Y-54046787D01*
X72954192Y-54023372D01*
X72957187Y-53997102D01*
X72957896Y-53978850D01*
X72961051Y-53968941D01*
X72968588Y-53963584D01*
X72975572Y-53961120D01*
X72992957Y-53955030D01*
X73013848Y-53946964D01*
X73019595Y-53944613D01*
X73037155Y-53934462D01*
X73045037Y-53921558D01*
X73043494Y-53904164D01*
X73032778Y-53880545D01*
X73029713Y-53875189D01*
X73018333Y-53848388D01*
X73018160Y-53826200D01*
X73029087Y-53808819D01*
X73051007Y-53796443D01*
X73075763Y-53790376D01*
X73094524Y-53786843D01*
X73109209Y-53781907D01*
X73120563Y-53774070D01*
X73129333Y-53761832D01*
X73136266Y-53743692D01*
X73142107Y-53718153D01*
X73147603Y-53683715D01*
X73153501Y-53638878D01*
X73154284Y-53632620D01*
X73158803Y-53596442D01*
X73163036Y-53562563D01*
X73166653Y-53533639D01*
X73169321Y-53512323D01*
X73170417Y-53503586D01*
X73173960Y-53485639D01*
X73178422Y-53478467D01*
X73183521Y-53480760D01*
X73188974Y-53491207D01*
X73194500Y-53508500D01*
X73199815Y-53531328D01*
X73204637Y-53558380D01*
X73208684Y-53588348D01*
X73211673Y-53619921D01*
X73213322Y-53651789D01*
X73213349Y-53682643D01*
X73212549Y-53698987D01*
X73206119Y-53747711D01*
X73193959Y-53786664D01*
X73175405Y-53817113D01*
X73149794Y-53840324D01*
X73133449Y-53849962D01*
X73124466Y-53855035D01*
X73119062Y-53860906D01*
X73116328Y-53870506D01*
X73115355Y-53886765D01*
X73115232Y-53908662D01*
X73115232Y-53958067D01*
X73074245Y-53996166D01*
X73054125Y-54015553D01*
X73041729Y-54029675D01*
X73035354Y-54040926D01*
X73033300Y-54051701D01*
X73033257Y-54053861D01*
X73035649Y-54073049D01*
X73043764Y-54091842D01*
X73059014Y-54112585D01*
X73082808Y-54137621D01*
X73084885Y-54139649D01*
X73115365Y-54173252D01*
X73134997Y-54204995D01*
X73144502Y-54236708D01*
X73144601Y-54270224D01*
X73142089Y-54284919D01*
X73130407Y-54315877D01*
X73114859Y-54338822D01*
X73103648Y-54354115D01*
X73097558Y-54366860D01*
X73097268Y-54371896D01*
X73103754Y-54378443D01*
X73118451Y-54388925D01*
X73138828Y-54401617D01*
X73151873Y-54409102D01*
X73199676Y-54438221D01*
X73246554Y-54471418D01*
X73290690Y-54507065D01*
X73330269Y-54543536D01*
X73363473Y-54579204D01*
X73388488Y-54612442D01*
X73398570Y-54630051D01*
X73408748Y-54660451D01*
X73414114Y-54697778D01*
X73414510Y-54737742D01*
X73409782Y-54776056D01*
X73404577Y-54795999D01*
X73384800Y-54840703D01*
X73357952Y-54876961D01*
X73324961Y-54903534D01*
X73322864Y-54904761D01*
X73295367Y-54918217D01*
X73272978Y-54922606D01*
X73252348Y-54917579D01*
X73230130Y-54902788D01*
X73220042Y-54894053D01*
X73200239Y-54876909D01*
X73174123Y-54855463D01*
X73142998Y-54830687D01*
X73108168Y-54803551D01*
X73070940Y-54775028D01*
X73032618Y-54746087D01*
X72994506Y-54717699D01*
X72957911Y-54690836D01*
X72924136Y-54666468D01*
X72894487Y-54645567D01*
X72870269Y-54629103D01*
X72852786Y-54618048D01*
X72843344Y-54613371D01*
X72842679Y-54613280D01*
X72834688Y-54618526D01*
X72824136Y-54632652D01*
X72815387Y-54648195D01*
X72795054Y-54683516D01*
X72773979Y-54708300D01*
X72749770Y-54723884D01*
X72720037Y-54731604D01*
X72682391Y-54732796D01*
X72665732Y-54731831D01*
X72638918Y-54730113D01*
X72621504Y-54729995D01*
X72610822Y-54731745D01*
X72604200Y-54735631D01*
X72601756Y-54738241D01*
X72580764Y-54754584D01*
X72549898Y-54765516D01*
X72510329Y-54770674D01*
X72495868Y-54771046D01*
X72467208Y-54771996D01*
X72447030Y-54775049D01*
X72431762Y-54780839D01*
X72427676Y-54783162D01*
X72408062Y-54795121D01*
X72409318Y-54851451D01*
X72409496Y-54880257D01*
X72408111Y-54900844D01*
X72404569Y-54917100D01*
X72398279Y-54932912D01*
X72396247Y-54937170D01*
X72374258Y-54969217D01*
X72344092Y-54992665D01*
X72306446Y-55007207D01*
X72262017Y-55012536D01*
X72229360Y-55010860D01*
X72194446Y-55007414D01*
X72168117Y-55006412D01*
X72146963Y-55008389D01*
X72127575Y-55013880D01*
X72106543Y-55023421D01*
X72088737Y-55032951D01*
X72064986Y-55045704D01*
X72047316Y-55053563D01*
X72031296Y-55057708D01*
X72012491Y-55059321D01*
X71988840Y-55059586D01*
X71944579Y-55056871D01*
X71908061Y-55047908D01*
X71875972Y-55031477D01*
X71845264Y-55006605D01*
X71814378Y-54970209D01*
X71794640Y-54929515D01*
X71785480Y-54883268D01*
X71784916Y-54874384D01*
X71783935Y-54852841D01*
X71783147Y-54835777D01*
X71782757Y-54827569D01*
X71781247Y-54823960D01*
X71776234Y-54820420D01*
X71766419Y-54816609D01*
X71750504Y-54812186D01*
X71727190Y-54806811D01*
X71695180Y-54800144D01*
X71653176Y-54791844D01*
X71627544Y-54786884D01*
X71482676Y-54752839D01*
X71339758Y-54707012D01*
X71199344Y-54649687D01*
X71061984Y-54581144D01*
X70928230Y-54501666D01*
X70798634Y-54411535D01*
X70673748Y-54311034D01*
X70641496Y-54282684D01*
X70564863Y-54209251D01*
X70493797Y-54131494D01*
X70429265Y-54050812D01*
X70372237Y-53968606D01*
X70323681Y-53886277D01*
X70284565Y-53805226D01*
X70255859Y-53726853D01*
X70254915Y-53723703D01*
X70244756Y-53680004D01*
X70237919Y-53630581D01*
X70234593Y-53579283D01*
X70234967Y-53529961D01*
X70239229Y-53486464D01*
X70242467Y-53469814D01*
X70255482Y-53426054D01*
X70272335Y-53387243D01*
X70291689Y-53356156D01*
X70303757Y-53342544D01*
X70317848Y-53332210D01*
X70340185Y-53319328D01*
X70367639Y-53305602D01*
X70389485Y-53295870D01*
X70421649Y-53281615D01*
X70443722Y-53270062D01*
X70457216Y-53260329D01*
X70462977Y-53253015D01*
X70465199Y-53242659D01*
X70467072Y-53222436D01*
X70468585Y-53194435D01*
X70469723Y-53160746D01*
X70470474Y-53123457D01*
X70470825Y-53084658D01*
X70470763Y-53046438D01*
X70470274Y-53010887D01*
X70469346Y-52980094D01*
X70467966Y-52956147D01*
X70466120Y-52941137D01*
X70464947Y-52937516D01*
X70460503Y-52933108D01*
X70452850Y-52931979D01*
X70448177Y-52932748D01*
X70439099Y-52934242D01*
X70419000Y-52939306D01*
X70381157Y-52949849D01*
X70352488Y-52959423D01*
X70330286Y-52969583D01*
X70311844Y-52981883D01*
X70294457Y-52997880D01*
X70275419Y-53019127D01*
X70271000Y-53024352D01*
X70244263Y-53055504D01*
X70221805Y-53079778D01*
X70200612Y-53100007D01*
X70177666Y-53119024D01*
X70149952Y-53139658D01*
X70142563Y-53144947D01*
X70072781Y-53189085D01*
X70002252Y-53222250D01*
X69929984Y-53244591D01*
X69854984Y-53256256D01*
X69776258Y-53257393D01*
X69692814Y-53248151D01*
X69603658Y-53228677D01*
X69595924Y-53226593D01*
X69483022Y-53189694D01*
X69375977Y-53142234D01*
X69274545Y-53084073D01*
X69178482Y-53015072D01*
X69087545Y-52935091D01*
X69087237Y-52934794D01*
X69014538Y-52858597D01*
X68951963Y-52779961D01*
X68898576Y-52697234D01*
X68853437Y-52608760D01*
X68815610Y-52512886D01*
X68784158Y-52407959D01*
X68780551Y-52393817D01*
X68760912Y-52313034D01*
X68744929Y-52241507D01*
X68732288Y-52177014D01*
X68722672Y-52117333D01*
X68715767Y-52060244D01*
X68711257Y-52003526D01*
X68708827Y-51944957D01*
X68708159Y-51883827D01*
X68711407Y-51773232D01*
X68721294Y-51669556D01*
X68738446Y-51569389D01*
X68763486Y-51469319D01*
X68797042Y-51365935D01*
X68809130Y-51333052D01*
X68814471Y-51318249D01*
X68818393Y-51304841D01*
X68821104Y-51290625D01*
X68822811Y-51273393D01*
X68823720Y-51250941D01*
X68824038Y-51221062D01*
X68823973Y-51181553D01*
X68823945Y-51175174D01*
X68823961Y-51130576D01*
X68824621Y-51094881D01*
X68826168Y-51064857D01*
X68828846Y-51037271D01*
X68832897Y-51008888D01*
X68838565Y-50976476D01*
X68839085Y-50973670D01*
X68849784Y-50922785D01*
X68861656Y-50881499D01*
X68875864Y-50847266D01*
X68893572Y-50817540D01*
X68915944Y-50789775D01*
X68929806Y-50775269D01*
X68943896Y-50761771D01*
X68957907Y-50750044D01*
X68973804Y-50738887D01*
X68993553Y-50727096D01*
X69019120Y-50713469D01*
X69052469Y-50696805D01*
X69079815Y-50683502D01*
X69141586Y-50653584D01*
X69193485Y-50628309D01*
X69236599Y-50607091D01*
X69272018Y-50589347D01*
X69300830Y-50574490D01*
X69324123Y-50561937D01*
X69342987Y-50551101D01*
X69358510Y-50541399D01*
X69371780Y-50532245D01*
X69383887Y-50523054D01*
X69394493Y-50514429D01*
X69417040Y-50494370D01*
X69432079Y-50478144D01*
X69438396Y-50467087D01*
X69438517Y-50465923D01*
X69436778Y-50448326D01*
X69431923Y-50421343D01*
X69424494Y-50387172D01*
X69415033Y-50348006D01*
X69404084Y-50306042D01*
X69392188Y-50263475D01*
X69379887Y-50222500D01*
X69373274Y-50201829D01*
X69365375Y-50178248D01*
X69357408Y-50155751D01*
X69348844Y-50133176D01*
X69339151Y-50109365D01*
X69327799Y-50083156D01*
X69314257Y-50053390D01*
X69297994Y-50018907D01*
X69278481Y-49978545D01*
X69255185Y-49931146D01*
X69227576Y-49875548D01*
X69195124Y-49810593D01*
X69185792Y-49791956D01*
X69155826Y-49732267D01*
X69139659Y-49700197D01*
X69306015Y-49700197D01*
X69308091Y-49716040D01*
X69315344Y-49737936D01*
X69328156Y-49766811D01*
X69346907Y-49803593D01*
X69371980Y-49849208D01*
X69381101Y-49865296D01*
X69401285Y-49901248D01*
X69420514Y-49936523D01*
X69437521Y-49968715D01*
X69451037Y-49995421D01*
X69459794Y-50014238D01*
X69460249Y-50015326D01*
X69471690Y-50041511D01*
X69481231Y-50057700D01*
X69490952Y-50065370D01*
X69502933Y-50065998D01*
X69519253Y-50061063D01*
X69522751Y-50059721D01*
X69539824Y-50052748D01*
X69565522Y-50041838D01*
X69597744Y-50027921D01*
X69634385Y-50011927D01*
X69673344Y-49994787D01*
X69712516Y-49977430D01*
X69749800Y-49960785D01*
X69783092Y-49945783D01*
X69810289Y-49933354D01*
X69829288Y-49924427D01*
X69834169Y-49922022D01*
X69852599Y-49913648D01*
X69862841Y-49911701D01*
X69866472Y-49914751D01*
X69868297Y-49922742D01*
X69871959Y-49940878D01*
X69877108Y-49967359D01*
X69883397Y-50000383D01*
X69890478Y-50038149D01*
X69894370Y-50059132D01*
X69904088Y-50110700D01*
X69912274Y-50151510D01*
X69919278Y-50182804D01*
X69925451Y-50205821D01*
X69931145Y-50221801D01*
X69936709Y-50231986D01*
X69942494Y-50237616D01*
X69945220Y-50238977D01*
X69949852Y-50239866D01*
X69955995Y-50238857D01*
X69964686Y-50235297D01*
X69976961Y-50228533D01*
X69993859Y-50217913D01*
X70016417Y-50202785D01*
X70045672Y-50182496D01*
X70082662Y-50156393D01*
X70094006Y-50148320D01*
X70344074Y-50148320D01*
X70345295Y-50158065D01*
X70350415Y-50164869D01*
X70360850Y-50169089D01*
X70378018Y-50171087D01*
X70403335Y-50171222D01*
X70438217Y-50169853D01*
X70473929Y-50167919D01*
X70509545Y-50165625D01*
X70541435Y-50163054D01*
X70567415Y-50160425D01*
X70585302Y-50157953D01*
X70592511Y-50156139D01*
X70601561Y-50150266D01*
X70617746Y-50138821D01*
X70638554Y-50123607D01*
X70655736Y-50110768D01*
X70677522Y-50094930D01*
X70695889Y-50082686D01*
X70708655Y-50075421D01*
X70713407Y-50074145D01*
X70717210Y-50081179D01*
X70722559Y-50096828D01*
X70728362Y-50117851D01*
X70728930Y-50120144D01*
X70735748Y-50144402D01*
X70743776Y-50161034D01*
X70755484Y-50171973D01*
X70773340Y-50179153D01*
X70799815Y-50184507D01*
X70813869Y-50186643D01*
X70876391Y-50196861D01*
X70936356Y-50209182D01*
X70996511Y-50224353D01*
X71059603Y-50243119D01*
X71128378Y-50266225D01*
X71192039Y-50289345D01*
X71214737Y-50297708D01*
X71232734Y-50304149D01*
X71243297Y-50307697D01*
X71244880Y-50308092D01*
X71245156Y-50302824D01*
X71241245Y-50288241D01*
X71233776Y-50266182D01*
X71223377Y-50238480D01*
X71210676Y-50206973D01*
X71209982Y-50205313D01*
X71208526Y-50201829D01*
X71194048Y-50164642D01*
X71541215Y-50164642D01*
X71547798Y-50171926D01*
X71562225Y-50182589D01*
X71581372Y-50194791D01*
X71602115Y-50206694D01*
X71621332Y-50216460D01*
X71635897Y-50222251D01*
X71640514Y-50223082D01*
X71646147Y-50222590D01*
X71652419Y-50220497D01*
X71660522Y-50215878D01*
X71671649Y-50207806D01*
X71686990Y-50195356D01*
X71707738Y-50177601D01*
X71735084Y-50153615D01*
X71770220Y-50122472D01*
X71771844Y-50121030D01*
X71811008Y-50084915D01*
X71840319Y-50054764D01*
X71860158Y-50030000D01*
X71870903Y-50010046D01*
X71872936Y-49994325D01*
X71866635Y-49982260D01*
X71864497Y-49980307D01*
X71854095Y-49977934D01*
X71834923Y-49978922D01*
X71809704Y-49982712D01*
X71781162Y-49988747D01*
X71752022Y-49996467D01*
X71737940Y-50001079D01*
X71725007Y-50005315D01*
X71707494Y-50012486D01*
X71688199Y-50023389D01*
X71665089Y-50039500D01*
X71639891Y-50059240D01*
X71614332Y-50081027D01*
X71590139Y-50103283D01*
X71569038Y-50124425D01*
X71552758Y-50142875D01*
X71543025Y-50157051D01*
X71541215Y-50164642D01*
X71194048Y-50164642D01*
X71176837Y-50120438D01*
X71151334Y-50042313D01*
X71133101Y-49970980D01*
X71125083Y-49934254D01*
X71118715Y-49907779D01*
X71113296Y-49889891D01*
X71108120Y-49878928D01*
X71102485Y-49873226D01*
X71095687Y-49871122D01*
X71090773Y-49870894D01*
X71073923Y-49872429D01*
X71049595Y-49876489D01*
X71021424Y-49882255D01*
X70993044Y-49888910D01*
X70968090Y-49895637D01*
X70950198Y-49901616D01*
X70946193Y-49903425D01*
X70935862Y-49909554D01*
X70917409Y-49921251D01*
X70892763Y-49937265D01*
X70863850Y-49956344D01*
X70833577Y-49976578D01*
X70803142Y-49996752D01*
X70775778Y-50014335D01*
X70753209Y-50028265D01*
X70737157Y-50037479D01*
X70729347Y-50040913D01*
X70729265Y-50040916D01*
X70719832Y-50038334D01*
X70710631Y-50029555D01*
X70700627Y-50013030D01*
X70688783Y-49987208D01*
X70681528Y-49969531D01*
X70661162Y-49906486D01*
X70651980Y-49847225D01*
X70653998Y-49792019D01*
X70667232Y-49741142D01*
X70668369Y-49738268D01*
X70675528Y-49724937D01*
X70688823Y-49704225D01*
X70706805Y-49678237D01*
X70728023Y-49649075D01*
X70747882Y-49622897D01*
X70769671Y-49594475D01*
X70788631Y-49569239D01*
X70789856Y-49567564D01*
X71120515Y-49567564D01*
X71122021Y-49578265D01*
X71126181Y-49598556D01*
X71132460Y-49626310D01*
X71140325Y-49659400D01*
X71149239Y-49695700D01*
X71158669Y-49733080D01*
X71168079Y-49769414D01*
X71176935Y-49802575D01*
X71184703Y-49830435D01*
X71190846Y-49850866D01*
X71193983Y-49859831D01*
X71201897Y-49872987D01*
X71209982Y-49879707D01*
X71218186Y-49878912D01*
X71235354Y-49874824D01*
X71259008Y-49868224D01*
X71286670Y-49859891D01*
X71315863Y-49850604D01*
X71344110Y-49841145D01*
X71368933Y-49832293D01*
X71387854Y-49824828D01*
X71395282Y-49821371D01*
X71404348Y-49812056D01*
X71404775Y-49797530D01*
X71396339Y-49777051D01*
X71378817Y-49749877D01*
X71370300Y-49738388D01*
X71334809Y-49695490D01*
X71313040Y-49672815D01*
X71296045Y-49655112D01*
X71256315Y-49619345D01*
X71217925Y-49590280D01*
X71186093Y-49571417D01*
X71158482Y-49558345D01*
X71139749Y-49551272D01*
X71128266Y-49550104D01*
X71122409Y-49554745D01*
X71120551Y-49565099D01*
X71120515Y-49567564D01*
X70789856Y-49567564D01*
X70803592Y-49548790D01*
X70813382Y-49534728D01*
X70816831Y-49528683D01*
X70812417Y-49526063D01*
X70799912Y-49530506D01*
X70780697Y-49541474D01*
X70775497Y-49544846D01*
X70765108Y-49554182D01*
X70747613Y-49573092D01*
X70723152Y-49601406D01*
X70691867Y-49638953D01*
X70653895Y-49685562D01*
X70609379Y-49741061D01*
X70558457Y-49805279D01*
X70501269Y-49878044D01*
X70463268Y-49926684D01*
X70429910Y-49970086D01*
X70403623Y-50005951D01*
X70383494Y-50035895D01*
X70368609Y-50061532D01*
X70358057Y-50084478D01*
X70350924Y-50106347D01*
X70346297Y-50128755D01*
X70345336Y-50135274D01*
X70344074Y-50148320D01*
X70094006Y-50148320D01*
X70128424Y-50123825D01*
X70129427Y-50123109D01*
X70183016Y-50084516D01*
X70227454Y-50051637D01*
X70263786Y-50023592D01*
X70293060Y-49999500D01*
X70316323Y-49978482D01*
X70334621Y-49959658D01*
X70349001Y-49942147D01*
X70355328Y-49933194D01*
X70366728Y-49914423D01*
X70371828Y-49899543D01*
X70372178Y-49883181D01*
X70371565Y-49876966D01*
X70367676Y-49858700D01*
X70360037Y-49833896D01*
X70350067Y-49807004D01*
X70346439Y-49798269D01*
X70335989Y-49774650D01*
X70326627Y-49754853D01*
X70319802Y-49741889D01*
X70317926Y-49739065D01*
X70309155Y-49733339D01*
X70298570Y-49731969D01*
X70294952Y-49731501D01*
X70274561Y-49733772D01*
X70247228Y-49740370D01*
X70212200Y-49751515D01*
X70168722Y-49767427D01*
X70116039Y-49788325D01*
X70053398Y-49814429D01*
X70041243Y-49819597D01*
X69987018Y-49842356D01*
X69943633Y-49859785D01*
X69911025Y-49871906D01*
X69889134Y-49878743D01*
X69877897Y-49880318D01*
X69877583Y-49880252D01*
X69867332Y-49873181D01*
X69854593Y-49856076D01*
X69838798Y-49828167D01*
X69838429Y-49827458D01*
X69825322Y-49803321D01*
X69812558Y-49781601D01*
X69802264Y-49765862D01*
X69799473Y-49762226D01*
X69772986Y-49725983D01*
X69747377Y-49682590D01*
X69725402Y-49636894D01*
X69720910Y-49625719D01*
X69718464Y-49619634D01*
X69708345Y-49594075D01*
X69700395Y-49577810D01*
X69693155Y-49568547D01*
X69685166Y-49563988D01*
X69682616Y-49563248D01*
X69660231Y-49561881D01*
X69627501Y-49566332D01*
X69584705Y-49576536D01*
X69532123Y-49592432D01*
X69488770Y-49607219D01*
X69433538Y-49627484D01*
X69387597Y-49645789D01*
X69351512Y-49661879D01*
X69325847Y-49675493D01*
X69311167Y-49686375D01*
X69308735Y-49689480D01*
X69306015Y-49700197D01*
X69139659Y-49700197D01*
X69126202Y-49673503D01*
X69097597Y-49616994D01*
X69075743Y-49574006D01*
X69070692Y-49564071D01*
X69046164Y-49516065D01*
X69024692Y-49474307D01*
X69006957Y-49440127D01*
X68993636Y-49414855D01*
X68989059Y-49406371D01*
X68944432Y-49328732D01*
X68896540Y-49253670D01*
X68843918Y-49179177D01*
X68785103Y-49103242D01*
X68718629Y-49023856D01*
X68670368Y-48969173D01*
X68634190Y-48928334D01*
X68624924Y-48917432D01*
X68808651Y-48917432D01*
X68809931Y-48935240D01*
X68812301Y-48940392D01*
X68818979Y-48950526D01*
X68831885Y-48968103D01*
X68849837Y-48991650D01*
X68871652Y-49019693D01*
X68896146Y-49050760D01*
X68922138Y-49083378D01*
X68948445Y-49116073D01*
X68973884Y-49147372D01*
X68997271Y-49175803D01*
X69017425Y-49199892D01*
X69033163Y-49218166D01*
X69043302Y-49229153D01*
X69046105Y-49231580D01*
X69062333Y-49237385D01*
X69075743Y-49239170D01*
X69086892Y-49237512D01*
X69107273Y-49232770D01*
X69134954Y-49225526D01*
X69168005Y-49216359D01*
X69204494Y-49205849D01*
X69242487Y-49194575D01*
X69280055Y-49183118D01*
X69315265Y-49172058D01*
X69346185Y-49161974D01*
X69370883Y-49153447D01*
X69387429Y-49147055D01*
X69393622Y-49143753D01*
X69396655Y-49139700D01*
X69457962Y-49139700D01*
X69460958Y-49148968D01*
X69471352Y-49167267D01*
X69489204Y-49194690D01*
X69514574Y-49231327D01*
X69547522Y-49277269D01*
X69560108Y-49294542D01*
X69587283Y-49331456D01*
X69612727Y-49365535D01*
X69635404Y-49395429D01*
X69654278Y-49419787D01*
X69668314Y-49437261D01*
X69676475Y-49446501D01*
X69677287Y-49447223D01*
X69687980Y-49453432D01*
X69701904Y-49456636D01*
X69720910Y-49456766D01*
X69746848Y-49453756D01*
X69781570Y-49447539D01*
X69805885Y-49442559D01*
X69863506Y-49429816D01*
X69913406Y-49417311D01*
X69959921Y-49403827D01*
X70007385Y-49388143D01*
X70036628Y-49377716D01*
X70071593Y-49364480D01*
X70096255Y-49353724D01*
X70107115Y-49347391D01*
X70186116Y-49347391D01*
X70187057Y-49360573D01*
X70190177Y-49373984D01*
X70196691Y-49395571D01*
X70205848Y-49423304D01*
X70216901Y-49455154D01*
X70229100Y-49489089D01*
X70241696Y-49523080D01*
X70253940Y-49555096D01*
X70265083Y-49583107D01*
X70274377Y-49605082D01*
X70281073Y-49618991D01*
X70283804Y-49622836D01*
X70290153Y-49625687D01*
X70298570Y-49626792D01*
X70310198Y-49625826D01*
X70326181Y-49622461D01*
X70347663Y-49616370D01*
X70375786Y-49607226D01*
X70411696Y-49594702D01*
X70456534Y-49578470D01*
X70511446Y-49558204D01*
X70517089Y-49556109D01*
X70576643Y-49533922D01*
X70625770Y-49515423D01*
X70665459Y-49500162D01*
X70696701Y-49487687D01*
X70720485Y-49477548D01*
X70737802Y-49469293D01*
X70749642Y-49462472D01*
X70756993Y-49456633D01*
X70760847Y-49451326D01*
X70762193Y-49446100D01*
X70762256Y-49444430D01*
X70759355Y-49435177D01*
X70751274Y-49417295D01*
X70738950Y-49392649D01*
X70723317Y-49363104D01*
X70718865Y-49355049D01*
X71031887Y-49355049D01*
X71037928Y-49366193D01*
X71039162Y-49367588D01*
X71049118Y-49375430D01*
X71068356Y-49387783D01*
X71095286Y-49403748D01*
X71128320Y-49422425D01*
X71165866Y-49442914D01*
X71206335Y-49464316D01*
X71246424Y-49484867D01*
X71272031Y-49497561D01*
X71289754Y-49505382D01*
X71302466Y-49509094D01*
X71313040Y-49509462D01*
X71324348Y-49507251D01*
X71327438Y-49506436D01*
X71331862Y-49505103D01*
X71532216Y-49505103D01*
X71532550Y-49524325D01*
X71536418Y-49551286D01*
X71543400Y-49587838D01*
X71545367Y-49597622D01*
X71552219Y-49630401D01*
X71558766Y-49659594D01*
X71564441Y-49682824D01*
X71568678Y-49697713D01*
X71570096Y-49701317D01*
X71575192Y-49708917D01*
X71582599Y-49714987D01*
X71594313Y-49720255D01*
X71612331Y-49725449D01*
X71638650Y-49731297D01*
X71668719Y-49737263D01*
X71699428Y-49743065D01*
X71721435Y-49746564D01*
X71737940Y-49747869D01*
X71752142Y-49747087D01*
X71767243Y-49744329D01*
X71780929Y-49741065D01*
X71823784Y-49726469D01*
X71865695Y-49703549D01*
X71909078Y-49670933D01*
X71917953Y-49663294D01*
X71934151Y-49648540D01*
X71944833Y-49636047D01*
X71950403Y-49623223D01*
X71951265Y-49607480D01*
X71947825Y-49586228D01*
X71940485Y-49556878D01*
X71936739Y-49542995D01*
X71915111Y-49476590D01*
X71889318Y-49421475D01*
X71859289Y-49377505D01*
X71845732Y-49362663D01*
X71828621Y-49346999D01*
X71813352Y-49335547D01*
X71802937Y-49330532D01*
X71802158Y-49330469D01*
X71788558Y-49334317D01*
X71766641Y-49345489D01*
X71737329Y-49363424D01*
X71701542Y-49387559D01*
X71663202Y-49415120D01*
X71636982Y-49433418D01*
X71610835Y-49449904D01*
X71588132Y-49462543D01*
X71574617Y-49468553D01*
X71556617Y-49475345D01*
X71543829Y-49482466D01*
X71535835Y-49491768D01*
X71532216Y-49505103D01*
X71331862Y-49505103D01*
X71355161Y-49498082D01*
X71372248Y-49489750D01*
X71380048Y-49479486D01*
X71379907Y-49465333D01*
X71373172Y-49445337D01*
X71371808Y-49442028D01*
X71358121Y-49414618D01*
X71338740Y-49382973D01*
X71315541Y-49349525D01*
X71290399Y-49316706D01*
X71265189Y-49286950D01*
X71241786Y-49262689D01*
X71240259Y-49261424D01*
X71222066Y-49246355D01*
X71219909Y-49244965D01*
X71199484Y-49236069D01*
X71185011Y-49235622D01*
X71173465Y-49240897D01*
X71155125Y-49251892D01*
X71132372Y-49266895D01*
X71107589Y-49284198D01*
X71083159Y-49302090D01*
X71061463Y-49318861D01*
X71044885Y-49332801D01*
X71035805Y-49342200D01*
X71035225Y-49343136D01*
X71031887Y-49355049D01*
X70718865Y-49355049D01*
X70705310Y-49330524D01*
X70703693Y-49327664D01*
X70679232Y-49284627D01*
X70659794Y-49251083D01*
X70651030Y-49236635D01*
X70644519Y-49225902D01*
X70632544Y-49207955D01*
X70623008Y-49196113D01*
X70615047Y-49189244D01*
X70607802Y-49186221D01*
X70600408Y-49185913D01*
X70595974Y-49186491D01*
X70586509Y-49189195D01*
X70567373Y-49195571D01*
X70540253Y-49205001D01*
X70506841Y-49216864D01*
X70468824Y-49230542D01*
X70427892Y-49245416D01*
X70385734Y-49260866D01*
X70344040Y-49276274D01*
X70304498Y-49291020D01*
X70268797Y-49304485D01*
X70238628Y-49316051D01*
X70215678Y-49325097D01*
X70201638Y-49331006D01*
X70201465Y-49331085D01*
X70189915Y-49338053D01*
X70186116Y-49347391D01*
X70107115Y-49347391D01*
X70111976Y-49344556D01*
X70120119Y-49336083D01*
X70122047Y-49327411D01*
X70121018Y-49322440D01*
X70116642Y-49314323D01*
X70106295Y-49297701D01*
X70090942Y-49274038D01*
X70071543Y-49244802D01*
X70049062Y-49211459D01*
X70027052Y-49179244D01*
X70001631Y-49142542D01*
X69977304Y-49107941D01*
X69955259Y-49077090D01*
X69936685Y-49051641D01*
X69922771Y-49033244D01*
X69915695Y-49024604D01*
X69894476Y-49001097D01*
X69853216Y-49005155D01*
X69826211Y-49008356D01*
X69793961Y-49012959D01*
X69763137Y-49018010D01*
X69761149Y-49018365D01*
X69723368Y-49026429D01*
X69682731Y-49037274D01*
X69640935Y-49050223D01*
X69599676Y-49064595D01*
X69560651Y-49079713D01*
X69525556Y-49094897D01*
X69496087Y-49109468D01*
X69473942Y-49122748D01*
X69460815Y-49134056D01*
X69457962Y-49139700D01*
X69396655Y-49139700D01*
X69399617Y-49135743D01*
X69401194Y-49126175D01*
X69397889Y-49112590D01*
X69389240Y-49092527D01*
X69380751Y-49075278D01*
X69362680Y-49041584D01*
X69341420Y-49005478D01*
X69318210Y-48968730D01*
X69294289Y-48933109D01*
X69270896Y-48900387D01*
X69249270Y-48872332D01*
X69230651Y-48850714D01*
X69216276Y-48837304D01*
X69212443Y-48834859D01*
X69200728Y-48830147D01*
X69186490Y-48827732D01*
X69166642Y-48827383D01*
X69138094Y-48828867D01*
X69135280Y-48829063D01*
X69046501Y-48837719D01*
X68968285Y-48850539D01*
X68899723Y-48867710D01*
X68841843Y-48888584D01*
X68819293Y-48901871D01*
X68808651Y-48917432D01*
X68624924Y-48917432D01*
X68606131Y-48895321D01*
X68585660Y-48869438D01*
X68572245Y-48849989D01*
X68565354Y-48836277D01*
X68564121Y-48830076D01*
X68566740Y-48821808D01*
X68575462Y-48814235D01*
X68591579Y-48806837D01*
X68616384Y-48799092D01*
X68651172Y-48790480D01*
X68676456Y-48784878D01*
X68711593Y-48777542D01*
X68745772Y-48770949D01*
X68781059Y-48764776D01*
X68819522Y-48758704D01*
X68863229Y-48752410D01*
X68914247Y-48745573D01*
X68974643Y-48737870D01*
X68995246Y-48735300D01*
X69012815Y-48733076D01*
X69779775Y-48733076D01*
X69783656Y-48740443D01*
X69793415Y-48756109D01*
X69807972Y-48778423D01*
X69826245Y-48805730D01*
X69847154Y-48836378D01*
X69850865Y-48841763D01*
X69877813Y-48880164D01*
X69899082Y-48908985D01*
X69915314Y-48929017D01*
X69927148Y-48941053D01*
X69935089Y-48945850D01*
X69953535Y-48946979D01*
X69981963Y-48943526D01*
X70020652Y-48935431D01*
X70069878Y-48922634D01*
X70129918Y-48905076D01*
X70141866Y-48901415D01*
X70206315Y-48881844D01*
X70260550Y-48866151D01*
X70305797Y-48854145D01*
X70343286Y-48845632D01*
X70374245Y-48840423D01*
X70399900Y-48838326D01*
X70421480Y-48839148D01*
X70440213Y-48842699D01*
X70457326Y-48848787D01*
X70462863Y-48851337D01*
X70479784Y-48861349D01*
X70496252Y-48875390D01*
X70513517Y-48894971D01*
X70532830Y-48921607D01*
X70555441Y-48956811D01*
X70570301Y-48981317D01*
X70589171Y-49012732D01*
X70603171Y-49035386D01*
X70613569Y-49050997D01*
X70621633Y-49061285D01*
X70628633Y-49067966D01*
X70635836Y-49072759D01*
X70639169Y-49074591D01*
X70644867Y-49077275D01*
X70651030Y-49078757D01*
X70659050Y-49078660D01*
X70670318Y-49076609D01*
X70686224Y-49072225D01*
X70708160Y-49065132D01*
X70737517Y-49054953D01*
X70775686Y-49041310D01*
X70816906Y-49026416D01*
X70868628Y-49007622D01*
X70910021Y-48992370D01*
X70942211Y-48980170D01*
X70957870Y-48973909D01*
X71059549Y-48973909D01*
X71061864Y-48982129D01*
X71068991Y-48993003D01*
X71081724Y-49007949D01*
X71100860Y-49028388D01*
X71127194Y-49055739D01*
X71139206Y-49068191D01*
X71168508Y-49098053D01*
X71191533Y-49119765D01*
X71210012Y-49134307D01*
X71225677Y-49142659D01*
X71240259Y-49145800D01*
X71255489Y-49144710D01*
X71268874Y-49141569D01*
X71289014Y-49134877D01*
X71316000Y-49124273D01*
X71348105Y-49110596D01*
X71383604Y-49094681D01*
X71420770Y-49077367D01*
X71457877Y-49059491D01*
X71493198Y-49041891D01*
X71525007Y-49025404D01*
X71551577Y-49010868D01*
X71571183Y-48999120D01*
X71582097Y-48990997D01*
X71583678Y-48988856D01*
X71584186Y-48978812D01*
X71579420Y-48964172D01*
X71568672Y-48943369D01*
X71551235Y-48914840D01*
X71547761Y-48909429D01*
X71517127Y-48864673D01*
X71489924Y-48830877D01*
X71465616Y-48807521D01*
X71443670Y-48794088D01*
X71424637Y-48790043D01*
X71415439Y-48792352D01*
X71396908Y-48798793D01*
X71370838Y-48808637D01*
X71339024Y-48821153D01*
X71303262Y-48835612D01*
X71265347Y-48851283D01*
X71227073Y-48867438D01*
X71190236Y-48883347D01*
X71156630Y-48898279D01*
X71142409Y-48904777D01*
X71106496Y-48923721D01*
X71081413Y-48942544D01*
X71073512Y-48950967D01*
X71066168Y-48959747D01*
X71061249Y-48966922D01*
X71059549Y-48973909D01*
X70957870Y-48973909D01*
X70966324Y-48970529D01*
X70983484Y-48962957D01*
X70994819Y-48956962D01*
X71001453Y-48952053D01*
X71004513Y-48947738D01*
X71005144Y-48944248D01*
X71001989Y-48936239D01*
X70993181Y-48919753D01*
X70979708Y-48896482D01*
X70962553Y-48868120D01*
X70942705Y-48836358D01*
X70937730Y-48828543D01*
X70916724Y-48796274D01*
X70897131Y-48767319D01*
X70880135Y-48743339D01*
X70869393Y-48729238D01*
X70866921Y-48725993D01*
X70858672Y-48716943D01*
X70857651Y-48716235D01*
X70839577Y-48711571D01*
X70811673Y-48710989D01*
X70775477Y-48714293D01*
X70732526Y-48721289D01*
X70684358Y-48731781D01*
X70637776Y-48744065D01*
X70593536Y-48756238D01*
X70558892Y-48764626D01*
X70531970Y-48769439D01*
X70510897Y-48770889D01*
X70493800Y-48769185D01*
X70478805Y-48764537D01*
X70474086Y-48762434D01*
X70463956Y-48755534D01*
X70446737Y-48741506D01*
X70424005Y-48721733D01*
X70397333Y-48697596D01*
X70368299Y-48670480D01*
X70356714Y-48659432D01*
X70327594Y-48631952D01*
X70300594Y-48607324D01*
X70277191Y-48586828D01*
X70258863Y-48571745D01*
X70247088Y-48563356D01*
X70244436Y-48562133D01*
X70232849Y-48562651D01*
X70211535Y-48566945D01*
X70182116Y-48574473D01*
X70146215Y-48584689D01*
X70105454Y-48597051D01*
X70061455Y-48611013D01*
X70015841Y-48626032D01*
X69970234Y-48641565D01*
X69926257Y-48657067D01*
X69885533Y-48671995D01*
X69849684Y-48685804D01*
X69820331Y-48697950D01*
X69799099Y-48707890D01*
X69787608Y-48715080D01*
X69787291Y-48715385D01*
X69780477Y-48726439D01*
X69779775Y-48733076D01*
X69012815Y-48733076D01*
X69026995Y-48731281D01*
X69068277Y-48725943D01*
X69116595Y-48719614D01*
X69169452Y-48712624D01*
X69224349Y-48705302D01*
X69278789Y-48697978D01*
X69295820Y-48695672D01*
X69376839Y-48684625D01*
X69448018Y-48674670D01*
X69510910Y-48665405D01*
X69567068Y-48656428D01*
X69618045Y-48647338D01*
X69665394Y-48637733D01*
X69710666Y-48627212D01*
X69755415Y-48615374D01*
X69801194Y-48601817D01*
X69849554Y-48586139D01*
X69902049Y-48567940D01*
X69960232Y-48546817D01*
X70025654Y-48522369D01*
X70099869Y-48494195D01*
X70152000Y-48474289D01*
X70205439Y-48453867D01*
X70261919Y-48432287D01*
X70318721Y-48410587D01*
X70359973Y-48394830D01*
X70725823Y-48394830D01*
X70729230Y-48407252D01*
X70738563Y-48427148D01*
X70752485Y-48452466D01*
X70769662Y-48481157D01*
X70788758Y-48511167D01*
X70808438Y-48540447D01*
X70827367Y-48566944D01*
X70844209Y-48588608D01*
X70857629Y-48603386D01*
X70865201Y-48608950D01*
X70869393Y-48609469D01*
X70876274Y-48608398D01*
X70886852Y-48605340D01*
X70902132Y-48599894D01*
X70923120Y-48591661D01*
X70950823Y-48580243D01*
X70986245Y-48565240D01*
X71030395Y-48546254D01*
X71084277Y-48522885D01*
X71106248Y-48513323D01*
X71128649Y-48500462D01*
X71141896Y-48485995D01*
X71144804Y-48475726D01*
X71141854Y-48466124D01*
X71134023Y-48449392D01*
X71122838Y-48428716D01*
X71119534Y-48423028D01*
X71102498Y-48397882D01*
X71079694Y-48369445D01*
X71053392Y-48340068D01*
X71025863Y-48312097D01*
X70999377Y-48287881D01*
X70976205Y-48269768D01*
X70964398Y-48262582D01*
X70945646Y-48254654D01*
X70928765Y-48250070D01*
X70923990Y-48249617D01*
X70913542Y-48252949D01*
X70895377Y-48262058D01*
X70871625Y-48275617D01*
X70844418Y-48292299D01*
X70815887Y-48310774D01*
X70788163Y-48329717D01*
X70763378Y-48347797D01*
X70751629Y-48357008D01*
X70734784Y-48372810D01*
X70726984Y-48386404D01*
X70725823Y-48394830D01*
X70359973Y-48394830D01*
X70373120Y-48389808D01*
X70422396Y-48370990D01*
X70463827Y-48355171D01*
X70473826Y-48351354D01*
X70517156Y-48335065D01*
X70568419Y-48316199D01*
X70624036Y-48296046D01*
X70680428Y-48275900D01*
X70734019Y-48257051D01*
X70759220Y-48248319D01*
X70807197Y-48231899D01*
X70845275Y-48219163D01*
X70874986Y-48209694D01*
X70897862Y-48203072D01*
X70915434Y-48198881D01*
X70929234Y-48196702D01*
X70940795Y-48196118D01*
X70949189Y-48196496D01*
G37*
D14*
%TO.C,C2*%
X48766252Y-60616000D02*
X47343748Y-60616000D01*
X48766252Y-63336000D02*
X47343748Y-63336000D01*
%TO.C,C5*%
X60707862Y-57986161D02*
X60707862Y-57705001D01*
X61727862Y-57986161D02*
X61727862Y-57705001D01*
%TO.C,D2*%
X70969000Y-47471000D02*
X73429000Y-47471000D01*
X73429000Y-46001000D02*
X70969000Y-46001000D01*
X73429000Y-47471000D02*
X73429000Y-46001000D01*
%TO.C,R4*%
X66594258Y-59929500D02*
X66119742Y-59929500D01*
X66594258Y-60974500D02*
X66119742Y-60974500D01*
%TO.C,R1*%
X62342500Y-58085258D02*
X62342500Y-57610742D01*
X63387500Y-58085258D02*
X63387500Y-57610742D01*
%TO.C,C7*%
X59646497Y-53587495D02*
X59365337Y-53587495D01*
X59646497Y-54607495D02*
X59365337Y-54607495D01*
D15*
%TO.C,U1*%
X53810983Y-55421194D02*
X57960983Y-55421194D01*
X53810983Y-60571194D02*
X57960983Y-60571194D01*
D14*
X53385983Y-55496194D02*
X53145983Y-55166194D01*
X53625983Y-55166194D01*
X53385983Y-55496194D01*
G36*
X53385983Y-55496194D02*
G01*
X53145983Y-55166194D01*
X53625983Y-55166194D01*
X53385983Y-55496194D01*
G37*
%TO.C,R5*%
X68342742Y-46213500D02*
X68817258Y-46213500D01*
X68342742Y-47258500D02*
X68817258Y-47258500D01*
%TO.C,+12*%
X48630000Y-52075000D02*
X48630000Y-55875000D01*
X48630000Y-55875000D02*
X50430000Y-55875000D01*
X50430000Y-52075000D02*
X48630000Y-52075000D01*
X50430000Y-55875000D02*
X50430000Y-52075000D01*
%TO.C,SENS1*%
X68569000Y-55139000D02*
X68569000Y-58939000D01*
X68569000Y-58939000D02*
X70369000Y-58939000D01*
X70369000Y-55139000D02*
X68569000Y-55139000D01*
X70369000Y-58939000D02*
X70369000Y-55139000D01*
%TO.C,C8*%
X61085000Y-46175420D02*
X61085000Y-46456580D01*
X62105000Y-46175420D02*
X62105000Y-46456580D01*
%TD*%
M02*
