%TF.GenerationSoftware,KiCad,Pcbnew,9.0.2*%
%TF.CreationDate,2025-06-04T19:43:54+07:00*%
%TF.ProjectId,Wheelspeed New,57686565-6c73-4706-9565-64204e65772e,rev?*%
%TF.SameCoordinates,Original*%
%TF.FileFunction,Copper,L1,Top*%
%TF.FilePolarity,Positive*%
%FSLAX46Y46*%
G04 Gerber Fmt 4.6, Leading zero omitted, Abs format (unit mm)*
G04 Created by KiCad (PCBNEW 9.0.2) date 2025-06-04 19:43:54*
%MOMM*%
%LPD*%
G01*
G04 APERTURE LIST*
G04 Aperture macros list*
%AMRoundRect*
0 Rectangle with rounded corners*
0 $1 Rounding radius*
0 $2 $3 $4 $5 $6 $7 $8 $9 X,Y pos of 4 corners*
0 Add a 4 corners polygon primitive as box body*
4,1,4,$2,$3,$4,$5,$6,$7,$8,$9,$2,$3,0*
0 Add four circle primitives for the rounded corners*
1,1,$1+$1,$2,$3*
1,1,$1+$1,$4,$5*
1,1,$1+$1,$6,$7*
1,1,$1+$1,$8,$9*
0 Add four rect primitives between the rounded corners*
20,1,$1+$1,$2,$3,$4,$5,0*
20,1,$1+$1,$4,$5,$6,$7,0*
20,1,$1+$1,$6,$7,$8,$9,0*
20,1,$1+$1,$8,$9,$2,$3,0*%
G04 Aperture macros list end*
%TA.AperFunction,SMDPad,CuDef*%
%ADD10R,3.025000X1.524000*%
%TD*%
%TA.AperFunction,ComponentPad*%
%ADD11R,1.700000X1.700000*%
%TD*%
%TA.AperFunction,ComponentPad*%
%ADD12C,1.700000*%
%TD*%
%TA.AperFunction,SMDPad,CuDef*%
%ADD13R,1.460500X0.533400*%
%TD*%
%TA.AperFunction,SMDPad,CuDef*%
%ADD14RoundRect,0.237500X-0.237500X0.250000X-0.237500X-0.250000X0.237500X-0.250000X0.237500X0.250000X0*%
%TD*%
%TA.AperFunction,SMDPad,CuDef*%
%ADD15RoundRect,0.237500X0.237500X-0.250000X0.237500X0.250000X-0.237500X0.250000X-0.237500X-0.250000X0*%
%TD*%
%TA.AperFunction,SMDPad,CuDef*%
%ADD16RoundRect,0.237500X0.250000X0.237500X-0.250000X0.237500X-0.250000X-0.237500X0.250000X-0.237500X0*%
%TD*%
%TA.AperFunction,SMDPad,CuDef*%
%ADD17RoundRect,0.237500X-0.250000X-0.237500X0.250000X-0.237500X0.250000X0.237500X-0.250000X0.237500X0*%
%TD*%
%TA.AperFunction,SMDPad,CuDef*%
%ADD18RoundRect,0.237500X0.300000X0.237500X-0.300000X0.237500X-0.300000X-0.237500X0.300000X-0.237500X0*%
%TD*%
%TA.AperFunction,ComponentPad*%
%ADD19C,1.400000*%
%TD*%
%TA.AperFunction,ViaPad*%
%ADD20C,0.600000*%
%TD*%
%TA.AperFunction,Conductor*%
%ADD21C,0.400000*%
%TD*%
%TA.AperFunction,Conductor*%
%ADD22C,0.600000*%
%TD*%
G04 APERTURE END LIST*
D10*
%TO.P,U1,G,GND*%
%TO.N,GND*%
X122985000Y-109640000D03*
%TO.P,U1,21,GPIO21*%
%TO.N,/TX*%
X107015000Y-124880000D03*
%TO.P,U1,20,GPIO20*%
%TO.N,/RX*%
X107015000Y-122340000D03*
%TO.P,U1,10,GPIO10*%
%TO.N,unconnected-(U1-GPIO10-Pad10)*%
X107015000Y-119800000D03*
%TO.P,U1,9,GPIO9*%
%TO.N,/SCL*%
X107015000Y-117260000D03*
%TO.P,U1,8,GPIO8*%
%TO.N,/SDA*%
X107015000Y-114720000D03*
%TO.P,U1,7,GPIO7*%
%TO.N,unconnected-(U1-GPIO7-Pad7)*%
X107015000Y-112180000D03*
%TO.P,U1,6,GPIO6*%
%TO.N,unconnected-(U1-GPIO6-Pad6)*%
X107015000Y-109640000D03*
%TO.P,U1,5V,5V*%
%TO.N,+5V*%
X122985000Y-107100000D03*
%TO.P,U1,5,GPIO5*%
%TO.N,unconnected-(U1-GPIO5-Pad5)*%
X107015000Y-107100000D03*
%TO.P,U1,4,GPIO4*%
%TO.N,unconnected-(U1-GPIO4-Pad4)*%
X122985000Y-114720000D03*
%TO.P,U1,3.3,3V3*%
%TO.N,+3.3V*%
X122985000Y-112180000D03*
%TO.P,U1,3,GPIO3*%
%TO.N,/WS_FL_Signal*%
X122985000Y-117260000D03*
%TO.P,U1,2,GPIO2*%
%TO.N,/WS_FR_Signal*%
X122985000Y-119800000D03*
%TO.P,U1,1,GPIO1*%
%TO.N,/WS_RR_Signal*%
X122985000Y-122340000D03*
%TO.P,U1,0,GPIO0*%
%TO.N,/WS_RL_Signal*%
X122985000Y-124880000D03*
%TD*%
D11*
%TO.P,J4,1,Pin_1*%
%TO.N,+5V*%
X128000000Y-108000000D03*
D12*
%TO.P,J4,2,Pin_2*%
%TO.N,GND*%
X128000000Y-110540000D03*
%TO.P,J4,3,Pin_3*%
X128000000Y-113080000D03*
%TO.P,J4,4,Pin_4*%
X128000000Y-115620000D03*
%TO.P,J4,5,Pin_5*%
X128000000Y-118160000D03*
%TO.P,J4,6,Pin_6*%
X128000000Y-120700000D03*
%TO.P,J4,7,Pin_7*%
X128000000Y-123240000D03*
%TO.P,J4,8,Pin_8*%
X128000000Y-125780000D03*
%TO.P,J4,9,Pin_9*%
%TO.N,/WS_RL_Signal_5V*%
X128000000Y-128320000D03*
%TO.P,J4,10,Pin_10*%
%TO.N,/WS_RR_Signal_5V*%
X128000000Y-130860000D03*
%TO.P,J4,11,Pin_11*%
%TO.N,/WS_FR_Signal_5V*%
X128000000Y-133400000D03*
%TO.P,J4,12,Pin_12*%
%TO.N,/WS_FL_Signal_5V*%
X128000000Y-135940000D03*
%TO.P,J4,13,Pin_13*%
%TO.N,unconnected-(J4-Pin_13-Pad13)*%
X128000000Y-138480000D03*
%TO.P,J4,14,Pin_14*%
%TO.N,unconnected-(J4-Pin_14-Pad14)*%
X128000000Y-141020000D03*
%TO.P,J4,15,Pin_15*%
%TO.N,+12V*%
X128000000Y-143560000D03*
%TD*%
D13*
%TO.P,U2,1*%
%TO.N,/WS_FR_Signal*%
X108275850Y-137495000D03*
%TO.P,U2,2,-*%
%TO.N,Net-(U2A--)*%
X108275850Y-138765000D03*
%TO.P,U2,3,+*%
%TO.N,/WS_FR*%
X108275850Y-140035000D03*
%TO.P,U2,4,V-*%
%TO.N,GND*%
X108275850Y-141305000D03*
%TO.P,U2,5,+*%
%TO.N,/WS_FL*%
X113724150Y-141305000D03*
%TO.P,U2,6,-*%
%TO.N,Net-(U2B--)*%
X113724150Y-140035000D03*
%TO.P,U2,7*%
%TO.N,/WS_FL_Signal*%
X113724150Y-138765000D03*
%TO.P,U2,8,V+*%
%TO.N,+12V*%
X113724150Y-137495000D03*
%TD*%
D14*
%TO.P,R21,1*%
%TO.N,/WS_RR_Signal*%
X108900000Y-129775000D03*
%TO.P,R21,2*%
%TO.N,/WS_RR*%
X108900000Y-131600000D03*
%TD*%
D15*
%TO.P,R24,1*%
%TO.N,GND*%
X111900000Y-131600000D03*
%TO.P,R24,2*%
%TO.N,/WS_RL_Signal*%
X111900000Y-129775000D03*
%TD*%
D16*
%TO.P,R4,1*%
%TO.N,Net-(U2B--)*%
X114012500Y-143500000D03*
%TO.P,R4,2*%
%TO.N,GND*%
X112187500Y-143500000D03*
%TD*%
%TO.P,R10,1*%
%TO.N,+3.3V*%
X121700000Y-143600000D03*
%TO.P,R10,2*%
%TO.N,/WS_FL_Signal*%
X119875000Y-143600000D03*
%TD*%
%TO.P,R13,1*%
%TO.N,+12V*%
X109610000Y-146510000D03*
%TO.P,R13,2*%
%TO.N,/WS_FR*%
X107785000Y-146510000D03*
%TD*%
D17*
%TO.P,R2,1*%
%TO.N,Net-(U2A--)*%
X107785000Y-143500000D03*
%TO.P,R2,2*%
%TO.N,GND*%
X109610000Y-143500000D03*
%TD*%
D18*
%TO.P,C1,1*%
%TO.N,+12V*%
X114000000Y-135800000D03*
%TO.P,C1,2*%
%TO.N,GND*%
X112275000Y-135800000D03*
%TD*%
D16*
%TO.P,R1,1*%
%TO.N,+12V*%
X109612500Y-145000000D03*
%TO.P,R1,2*%
%TO.N,Net-(U2A--)*%
X107787500Y-145000000D03*
%TD*%
%TO.P,R9,1*%
%TO.N,+3.3V*%
X121700000Y-142100000D03*
%TO.P,R9,2*%
%TO.N,/WS_FR_Signal*%
X119875000Y-142100000D03*
%TD*%
D17*
%TO.P,R3,1*%
%TO.N,+12V*%
X112187500Y-145000000D03*
%TO.P,R3,2*%
%TO.N,Net-(U2B--)*%
X114012500Y-145000000D03*
%TD*%
D15*
%TO.P,R22,1*%
%TO.N,GND*%
X110400000Y-131600000D03*
%TO.P,R22,2*%
%TO.N,/WS_RR_Signal*%
X110400000Y-129775000D03*
%TD*%
D14*
%TO.P,R23,1*%
%TO.N,/WS_RL_Signal*%
X113400000Y-129775000D03*
%TO.P,R23,2*%
%TO.N,/WS_RL*%
X113400000Y-131600000D03*
%TD*%
D17*
%TO.P,R14,1*%
%TO.N,+12V*%
X112187500Y-146500000D03*
%TO.P,R14,2*%
%TO.N,/WS_FL*%
X114012500Y-146500000D03*
%TD*%
D11*
%TO.P,J3,1,Pin_1*%
%TO.N,/SDA*%
X102000000Y-108000000D03*
D12*
%TO.P,J3,2,Pin_2*%
%TO.N,/SCL*%
X102000000Y-110540000D03*
%TO.P,J3,3,Pin_3*%
%TO.N,GND*%
X102000000Y-113080000D03*
%TO.P,J3,4,Pin_4*%
X102000000Y-115620000D03*
%TO.P,J3,5,Pin_5*%
X102000000Y-118160000D03*
%TO.P,J3,6,Pin_6*%
X102000000Y-120700000D03*
%TO.P,J3,7,Pin_7*%
%TO.N,/RX*%
X102000000Y-123240000D03*
%TO.P,J3,8,Pin_8*%
%TO.N,/TX*%
X102000000Y-125780000D03*
%TO.P,J3,9,Pin_9*%
%TO.N,GND*%
X102000000Y-128320000D03*
%TO.P,J3,10,Pin_10*%
X102000000Y-130860000D03*
%TO.P,J3,11,Pin_11*%
X102000000Y-133400000D03*
%TO.P,J3,12,Pin_12*%
%TO.N,/WS_RR*%
X102000000Y-135940000D03*
%TO.P,J3,13,Pin_13*%
%TO.N,/WS_RL*%
X102000000Y-138480000D03*
%TO.P,J3,14,Pin_14*%
%TO.N,/WS_FR*%
X102000000Y-141020000D03*
%TO.P,J3,15,Pin_15*%
%TO.N,/WS_FL*%
X102000000Y-143560000D03*
%TD*%
D19*
%TO.P,FR1,1,1*%
%TO.N,/WS_FR_Signal*%
X119960000Y-136500000D03*
X122500000Y-136500000D03*
%TD*%
%TO.P,RL1,1,1*%
%TO.N,/WS_RL_Signal*%
X119960000Y-131500000D03*
X122500000Y-131500000D03*
%TD*%
%TO.P,RR1,1,1*%
%TO.N,/WS_RR_Signal*%
X119960000Y-134000000D03*
X122500000Y-134000000D03*
%TD*%
%TO.P,FL1,1,1*%
%TO.N,/WS_FL_Signal*%
X119960000Y-139000000D03*
X122500000Y-139000000D03*
%TD*%
D20*
%TO.N,GND*%
X119250000Y-119750000D03*
%TO.N,+3.3V*%
X120750000Y-112250000D03*
X129750000Y-139750000D03*
%TO.N,/WS_FL_Signal*%
X119500000Y-117500000D03*
%TO.N,/WS_FR_Signal*%
X120250000Y-119500000D03*
%TO.N,/WS_RR_Signal*%
X120000000Y-122340000D03*
%TO.N,/WS_RL_Signal*%
X120874293Y-124755707D03*
%TO.N,+5V*%
X109750000Y-114000000D03*
%TO.N,+12V*%
X115600000Y-137300000D03*
X110800000Y-145800000D03*
%TO.N,GND*%
X110900000Y-140700000D03*
X110900000Y-137900000D03*
X110900000Y-141400000D03*
X110200000Y-138600000D03*
X110900000Y-142100000D03*
X110900000Y-138600000D03*
X110900000Y-135800000D03*
X110900000Y-139300000D03*
X111600000Y-139300000D03*
X111600000Y-138600000D03*
X110200000Y-137900000D03*
X110900000Y-140000000D03*
X111600000Y-137900000D03*
X110900000Y-142800000D03*
X111600000Y-137200000D03*
X110900000Y-143500000D03*
X106700000Y-142100000D03*
X109900000Y-132800000D03*
X110900000Y-137200000D03*
X110200000Y-137200000D03*
%TO.N,+3.3V*%
X124200000Y-141700000D03*
%TO.N,/WS_RR_Signal*%
X109700000Y-128400000D03*
%TO.N,/WS_RL_Signal*%
X112700000Y-128400000D03*
%TD*%
D21*
%TO.N,+3.3V*%
X129750000Y-112500000D02*
X129750000Y-139750000D01*
X123356439Y-111808561D02*
X129058561Y-111808561D01*
X129058561Y-111808561D02*
X129750000Y-112500000D01*
X122985000Y-112180000D02*
X123356439Y-111808561D01*
X120750000Y-112250000D02*
X122915000Y-112250000D01*
X122915000Y-112250000D02*
X122985000Y-112180000D01*
%TO.N,/WS_RL_Signal*%
X112700000Y-127400000D02*
X112700000Y-128400000D01*
X115220000Y-124880000D02*
X112700000Y-127400000D01*
X120750000Y-124880000D02*
X115220000Y-124880000D01*
X120874293Y-124755707D02*
X120750000Y-124880000D01*
X120998586Y-124880000D02*
X122985000Y-124880000D01*
X120874293Y-124755707D02*
X120998586Y-124880000D01*
%TO.N,/WS_FL_Signal*%
X126250000Y-138750000D02*
X126250000Y-118950000D01*
X126250000Y-118950000D02*
X124560000Y-117260000D01*
X124560000Y-117260000D02*
X122985000Y-117260000D01*
X125900000Y-139100000D02*
X126250000Y-138750000D01*
X125900000Y-139100000D02*
X126300000Y-139500000D01*
X125800000Y-139000000D02*
X125900000Y-139100000D01*
X119760000Y-139000000D02*
X125500000Y-139000000D01*
X125500000Y-139000000D02*
X125800000Y-139000000D01*
X122745000Y-117500000D02*
X122985000Y-117260000D01*
X119500000Y-117500000D02*
X122745000Y-117500000D01*
%TO.N,/WS_FR_Signal*%
X122685000Y-119500000D02*
X122985000Y-119800000D01*
X120250000Y-119500000D02*
X122685000Y-119500000D01*
%TO.N,/WS_RR_Signal*%
X120000000Y-122340000D02*
X122985000Y-122340000D01*
%TO.N,+5V*%
X111150000Y-107100000D02*
X122985000Y-107100000D01*
X109750000Y-114000000D02*
X109750000Y-108500000D01*
X109750000Y-108500000D02*
X111150000Y-107100000D01*
%TO.N,/WS_RL_Signal*%
X119760000Y-131800000D02*
X122300000Y-131800000D01*
%TO.N,/WS_RR_Signal*%
X119760000Y-134200000D02*
X122300000Y-134200000D01*
%TO.N,+12V*%
X111700000Y-145800000D02*
X110800000Y-145800000D01*
X111800000Y-145800000D02*
X111700000Y-145800000D01*
X114000000Y-135800000D02*
X114000000Y-136700000D01*
X112187500Y-145800000D02*
X111800000Y-145800000D01*
X112187500Y-146500000D02*
X112187500Y-146287500D01*
X112187500Y-145800000D02*
X112187500Y-146500000D01*
X109612500Y-146087500D02*
X109600000Y-146100000D01*
X112187500Y-146287500D02*
X111700000Y-145800000D01*
X114000000Y-137219150D02*
X113724150Y-137495000D01*
X112187500Y-145000000D02*
X112187500Y-145800000D01*
X109612500Y-145412500D02*
X110000000Y-145800000D01*
X109612500Y-146507500D02*
X109610000Y-146510000D01*
X113724150Y-137495000D02*
X114400000Y-136819150D01*
X112187500Y-145412500D02*
X111800000Y-145800000D01*
X109612500Y-145800000D02*
X109612500Y-146507500D01*
X112187500Y-145000000D02*
X112187500Y-145412500D01*
X115000000Y-136700000D02*
X115600000Y-137300000D01*
X114000000Y-136700000D02*
X114400000Y-136700000D01*
X114000000Y-136300000D02*
X114400000Y-136700000D01*
X114400000Y-136819150D02*
X114400000Y-136700000D01*
X114400000Y-136700000D02*
X115000000Y-136700000D01*
X109610000Y-146510000D02*
X109610000Y-146190000D01*
X109612500Y-145000000D02*
X109612500Y-145412500D01*
X109610000Y-146190000D02*
X110000000Y-145800000D01*
X110800000Y-145800000D02*
X110000000Y-145800000D01*
X114000000Y-136700000D02*
X114000000Y-137219150D01*
X114000000Y-135800000D02*
X114000000Y-136300000D01*
X109612500Y-145000000D02*
X109612500Y-145800000D01*
X110000000Y-145800000D02*
X109612500Y-145800000D01*
%TO.N,GND*%
X109610000Y-143500000D02*
X110900000Y-143500000D01*
X110400000Y-132300000D02*
X109900000Y-132800000D01*
X106900000Y-142100000D02*
X107695000Y-141305000D01*
X106700000Y-142100000D02*
X106900000Y-142100000D01*
X110400000Y-131600000D02*
X110400000Y-132300000D01*
X110400000Y-131600000D02*
X111900000Y-131600000D01*
X112275000Y-135800000D02*
X110900000Y-135800000D01*
X112187500Y-143500000D02*
X110900000Y-143500000D01*
X107695000Y-141305000D02*
X108275850Y-141305000D01*
%TO.N,/WS_FL*%
X102000000Y-143560000D02*
X102560000Y-143560000D01*
X114100000Y-147750000D02*
X114450000Y-147750000D01*
X114750000Y-147750000D02*
X115600000Y-146900000D01*
X102560000Y-143560000D02*
X106750000Y-147750000D01*
X114012500Y-147662500D02*
X114100000Y-147750000D01*
X114362500Y-147750000D02*
X114012500Y-147400000D01*
X114450000Y-147750000D02*
X114362500Y-147750000D01*
X115600000Y-141900000D02*
X115005000Y-141305000D01*
X115600000Y-146900000D02*
X115600000Y-141900000D01*
X115005000Y-141305000D02*
X113724150Y-141305000D01*
X114012500Y-146500000D02*
X114012500Y-147400000D01*
X106750000Y-147750000D02*
X113300000Y-147750000D01*
X114450000Y-147750000D02*
X114750000Y-147750000D01*
X114012500Y-147400000D02*
X114012500Y-147662500D01*
X113300000Y-147750000D02*
X113662500Y-147750000D01*
X113300000Y-147750000D02*
X114100000Y-147750000D01*
X113662500Y-147750000D02*
X114012500Y-147400000D01*
%TO.N,/WS_FL_Signal*%
X119875000Y-143600000D02*
X119875000Y-144375000D01*
X116500000Y-142300000D02*
X116500000Y-139800000D01*
X115465000Y-138765000D02*
X113724150Y-138765000D01*
X122400000Y-145400000D02*
X126300000Y-141500000D01*
X117800000Y-143600000D02*
X116500000Y-142300000D01*
X119875000Y-144375000D02*
X120900000Y-145400000D01*
X116500000Y-139800000D02*
X115465000Y-138765000D01*
X117800000Y-143600000D02*
X119875000Y-143600000D01*
X120900000Y-145400000D02*
X122400000Y-145400000D01*
X126300000Y-141500000D02*
X126300000Y-139500000D01*
%TO.N,/WS_FR*%
X105800000Y-145000000D02*
X107310000Y-146510000D01*
X108275850Y-140035000D02*
X107265000Y-140035000D01*
X105800000Y-142900000D02*
X105800000Y-145000000D01*
X107310000Y-146510000D02*
X107785000Y-146510000D01*
X105800000Y-142000000D02*
X105800000Y-142500000D01*
X105800000Y-142500000D02*
X105800000Y-142900000D01*
X103480000Y-142500000D02*
X105400000Y-142500000D01*
X105800000Y-142000000D02*
X105800000Y-142100000D01*
X102000000Y-141020000D02*
X103480000Y-142500000D01*
X107265000Y-140035000D02*
X105800000Y-141500000D01*
X105800000Y-142100000D02*
X105400000Y-142500000D01*
X105800000Y-141500000D02*
X105800000Y-142000000D01*
X105800000Y-142900000D02*
X105400000Y-142500000D01*
X105400000Y-142500000D02*
X105800000Y-142500000D01*
%TO.N,/WS_FR_Signal*%
X125399000Y-126851000D02*
X125399000Y-121499000D01*
X125399000Y-121499000D02*
X123700000Y-119800000D01*
X118000000Y-136600000D02*
X117600000Y-137000000D01*
X124750000Y-127500000D02*
X125399000Y-126851000D01*
X117600000Y-137000000D02*
X117600000Y-139825000D01*
X123700000Y-119800000D02*
X122985000Y-119800000D01*
X117600000Y-136600000D02*
X117600000Y-129150000D01*
X117100000Y-136600000D02*
X117600000Y-136600000D01*
X110404150Y-134700000D02*
X115200000Y-134700000D01*
X108275850Y-137495000D02*
X108275850Y-136828300D01*
X117600000Y-139825000D02*
X119875000Y-142100000D01*
X119250000Y-127500000D02*
X124750000Y-127500000D01*
X115200000Y-134700000D02*
X117100000Y-136600000D01*
X117600000Y-136600000D02*
X118200000Y-136600000D01*
X108275850Y-136828300D02*
X110404150Y-134700000D01*
X117600000Y-136600000D02*
X117600000Y-137000000D01*
X117100000Y-136600000D02*
X117500000Y-137000000D01*
X117600000Y-129150000D02*
X119250000Y-127500000D01*
X118200000Y-136600000D02*
X122800000Y-136600000D01*
X117500000Y-137000000D02*
X117600000Y-137000000D01*
X118200000Y-136600000D02*
X118000000Y-136600000D01*
%TO.N,/WS_RL*%
X112212500Y-133600000D02*
X109100000Y-133600000D01*
X104220000Y-138480000D02*
X102000000Y-138480000D01*
X109100000Y-133600000D02*
X104220000Y-138480000D01*
X113400000Y-131600000D02*
X113400000Y-132412500D01*
X113400000Y-132412500D02*
X112212500Y-133600000D01*
D22*
%TO.N,+5V*%
X128000000Y-108000000D02*
X127100000Y-107100000D01*
X127100000Y-107100000D02*
X122985000Y-107100000D01*
D21*
%TO.N,/WS_RR*%
X104060000Y-135940000D02*
X108400000Y-131600000D01*
X102000000Y-135940000D02*
X104060000Y-135940000D01*
X108400000Y-131600000D02*
X108900000Y-131600000D01*
%TO.N,Net-(U2A--)*%
X108500000Y-142400000D02*
X108900000Y-142400000D01*
X107785000Y-143500000D02*
X107785000Y-143115000D01*
X107775000Y-144587500D02*
X107787500Y-144600000D01*
X109600000Y-141700000D02*
X109600000Y-139625600D01*
X109600000Y-139625600D02*
X108739400Y-138765000D01*
X107775000Y-143200000D02*
X107900000Y-143200000D01*
X108900000Y-142400000D02*
X109600000Y-141700000D01*
X107785000Y-143500000D02*
X107785000Y-144997500D01*
X107785000Y-143115000D02*
X108500000Y-142400000D01*
X108739400Y-138765000D02*
X108275850Y-138765000D01*
X107785000Y-144997500D02*
X107787500Y-145000000D01*
D22*
%TO.N,Net-(U2B--)*%
X114012500Y-145000000D02*
X114012500Y-143500000D01*
D21*
X112300000Y-141800000D02*
X112300000Y-140300000D01*
X114012500Y-143200000D02*
X114012500Y-142712500D01*
X112800000Y-142300000D02*
X112300000Y-141800000D01*
X114012500Y-142712500D02*
X113600000Y-142300000D01*
X112565000Y-140035000D02*
X113724150Y-140035000D01*
X112300000Y-140300000D02*
X112565000Y-140035000D01*
X113600000Y-142300000D02*
X112800000Y-142300000D01*
%TO.N,+3.3V*%
X121700000Y-143600000D02*
X121700000Y-143100000D01*
X121700000Y-143100000D02*
X122000000Y-142800000D01*
X121700000Y-142500000D02*
X122000000Y-142800000D01*
X122000000Y-142800000D02*
X123100000Y-142800000D01*
X121700000Y-142800000D02*
X121700000Y-143600000D01*
X121700000Y-142100000D02*
X121700000Y-142800000D01*
X123100000Y-142800000D02*
X124200000Y-141700000D01*
X121700000Y-142800000D02*
X122000000Y-142800000D01*
X121700000Y-142100000D02*
X121700000Y-142500000D01*
%TO.N,/WS_RR_Signal*%
X110175000Y-129775000D02*
X109700000Y-129300000D01*
X109700000Y-129775000D02*
X109700000Y-129300000D01*
X109700000Y-129300000D02*
X109700000Y-128400000D01*
X110400000Y-129775000D02*
X110175000Y-129775000D01*
X114760000Y-122340000D02*
X120000000Y-122340000D01*
X108900000Y-129775000D02*
X109700000Y-129775000D01*
X108900000Y-129775000D02*
X109225000Y-129775000D01*
X123740000Y-122340000D02*
X122985000Y-122340000D01*
X109225000Y-129775000D02*
X109700000Y-129300000D01*
X109700000Y-129775000D02*
X110400000Y-129775000D01*
X109700000Y-128400000D02*
X109700000Y-127400000D01*
X109700000Y-127400000D02*
X114760000Y-122340000D01*
%TO.N,/WS_RL_Signal*%
X122985000Y-124880000D02*
X124080000Y-124880000D01*
X112325000Y-129775000D02*
X112700000Y-129400000D01*
X112700000Y-129775000D02*
X112700000Y-129400000D01*
X111900000Y-129775000D02*
X112700000Y-129775000D01*
X112700000Y-129775000D02*
X113400000Y-129775000D01*
X113075000Y-129775000D02*
X112700000Y-129400000D01*
X113400000Y-129775000D02*
X113075000Y-129775000D01*
X112700000Y-129400000D02*
X112700000Y-128400000D01*
X111900000Y-129775000D02*
X112325000Y-129775000D01*
%TO.N,/RX*%
X102900000Y-122340000D02*
X107015000Y-122340000D01*
X102000000Y-123240000D02*
X102900000Y-122340000D01*
%TO.N,/TX*%
X102900000Y-124880000D02*
X107015000Y-124880000D01*
X102000000Y-125780000D02*
X102900000Y-124880000D01*
D22*
%TO.N,/SDA*%
X104750000Y-113191500D02*
X104750000Y-108750000D01*
X107015000Y-114720000D02*
X106278500Y-114720000D01*
X104750000Y-108750000D02*
X104000000Y-108000000D01*
X106278500Y-114720000D02*
X104750000Y-113191500D01*
X104000000Y-108000000D02*
X102000000Y-108000000D01*
%TO.N,/SCL*%
X102790000Y-110540000D02*
X103750000Y-111500000D01*
X103750000Y-111500000D02*
X103750000Y-116750000D01*
X104260000Y-117260000D02*
X107015000Y-117260000D01*
X102000000Y-110540000D02*
X102790000Y-110540000D01*
X103750000Y-116750000D02*
X104260000Y-117260000D01*
%TD*%
%TA.AperFunction,Conductor*%
%TO.N,GND*%
G36*
X127003032Y-102500648D02*
G01*
X127336929Y-102517052D01*
X127349037Y-102518245D01*
X127452146Y-102533539D01*
X127676699Y-102566849D01*
X127688617Y-102569219D01*
X128009951Y-102649709D01*
X128021588Y-102653240D01*
X128092806Y-102678722D01*
X128333467Y-102764832D01*
X128344688Y-102769479D01*
X128644163Y-102911120D01*
X128654871Y-102916844D01*
X128938988Y-103087137D01*
X128949106Y-103093897D01*
X129215170Y-103291224D01*
X129224576Y-103298944D01*
X129470013Y-103521395D01*
X129478604Y-103529986D01*
X129665755Y-103736475D01*
X129701055Y-103775423D01*
X129708775Y-103784829D01*
X129906102Y-104050893D01*
X129912862Y-104061011D01*
X130041776Y-104276092D01*
X130083148Y-104345116D01*
X130088885Y-104355848D01*
X130230514Y-104655297D01*
X130235170Y-104666540D01*
X130346759Y-104978411D01*
X130350292Y-104990055D01*
X130430777Y-105311369D01*
X130433151Y-105323305D01*
X130481754Y-105650962D01*
X130482947Y-105663071D01*
X130499351Y-105996966D01*
X130499500Y-106003051D01*
X130499500Y-111959481D01*
X130493261Y-111980726D01*
X130491682Y-112002814D01*
X130483609Y-112013597D01*
X130479815Y-112026520D01*
X130463083Y-112041018D01*
X130449811Y-112058748D01*
X130437188Y-112063455D01*
X130427011Y-112072275D01*
X130405095Y-112075426D01*
X130384347Y-112083165D01*
X130371185Y-112080302D01*
X130357853Y-112082219D01*
X130337711Y-112073020D01*
X130316074Y-112068314D01*
X130298345Y-112055042D01*
X130294297Y-112053194D01*
X130287819Y-112047163D01*
X130243470Y-112002814D01*
X130196542Y-111955886D01*
X130032213Y-111791557D01*
X129505107Y-111264449D01*
X129505106Y-111264448D01*
X129390371Y-111187785D01*
X129336408Y-111165433D01*
X129282005Y-111121591D01*
X129259941Y-111055297D01*
X129265931Y-111012553D01*
X129316758Y-110856126D01*
X129350000Y-110646246D01*
X129350000Y-110433753D01*
X129316757Y-110223872D01*
X129316757Y-110223869D01*
X129251095Y-110021782D01*
X129154624Y-109832449D01*
X129115270Y-109778282D01*
X129115269Y-109778282D01*
X128482962Y-110410589D01*
X128465925Y-110347007D01*
X128400099Y-110232993D01*
X128307007Y-110139901D01*
X128192993Y-110074075D01*
X128129409Y-110057037D01*
X128799627Y-109386818D01*
X128860950Y-109353333D01*
X128887307Y-109350499D01*
X128897872Y-109350499D01*
X128957483Y-109344091D01*
X129092331Y-109293796D01*
X129207546Y-109207546D01*
X129293796Y-109092331D01*
X129344091Y-108957483D01*
X129350500Y-108897873D01*
X129350499Y-107102128D01*
X129344091Y-107042517D01*
X129293796Y-106907669D01*
X129293795Y-106907668D01*
X129293793Y-106907664D01*
X129207547Y-106792455D01*
X129207544Y-106792452D01*
X129092335Y-106706206D01*
X129092328Y-106706202D01*
X128957482Y-106655908D01*
X128957483Y-106655908D01*
X128897883Y-106649501D01*
X128897881Y-106649500D01*
X128897873Y-106649500D01*
X128897865Y-106649500D01*
X127832940Y-106649500D01*
X127765901Y-106629815D01*
X127745263Y-106613185D01*
X127610289Y-106478211D01*
X127610288Y-106478210D01*
X127610287Y-106478209D01*
X127479185Y-106390609D01*
X127479172Y-106390602D01*
X127333501Y-106330264D01*
X127333489Y-106330261D01*
X127178845Y-106299500D01*
X127178842Y-106299500D01*
X125103415Y-106299500D01*
X125036376Y-106279815D01*
X124990621Y-106227011D01*
X124987233Y-106218833D01*
X124941297Y-106095671D01*
X124941293Y-106095664D01*
X124855047Y-105980455D01*
X124855044Y-105980452D01*
X124739835Y-105894206D01*
X124739828Y-105894202D01*
X124604982Y-105843908D01*
X124604983Y-105843908D01*
X124545383Y-105837501D01*
X124545381Y-105837500D01*
X124545373Y-105837500D01*
X124545364Y-105837500D01*
X121424629Y-105837500D01*
X121424623Y-105837501D01*
X121365016Y-105843908D01*
X121230171Y-105894202D01*
X121230164Y-105894206D01*
X121114955Y-105980452D01*
X121114952Y-105980455D01*
X121028706Y-106095664D01*
X121028702Y-106095671D01*
X120978408Y-106230516D01*
X120972147Y-106288756D01*
X120945409Y-106353307D01*
X120888016Y-106393155D01*
X120848858Y-106399500D01*
X111081004Y-106399500D01*
X110945677Y-106426418D01*
X110945667Y-106426421D01*
X110818192Y-106479222D01*
X110703454Y-106555887D01*
X109237818Y-108021523D01*
X109176495Y-108055008D01*
X109106803Y-108050024D01*
X109050870Y-108008152D01*
X109026453Y-107942688D01*
X109026848Y-107920585D01*
X109027999Y-107909878D01*
X109028000Y-107909873D01*
X109027999Y-106290128D01*
X109021591Y-106230517D01*
X109020283Y-106227011D01*
X108971297Y-106095671D01*
X108971293Y-106095664D01*
X108885047Y-105980455D01*
X108885044Y-105980452D01*
X108769835Y-105894206D01*
X108769828Y-105894202D01*
X108634982Y-105843908D01*
X108634983Y-105843908D01*
X108575383Y-105837501D01*
X108575381Y-105837500D01*
X108575373Y-105837500D01*
X108575364Y-105837500D01*
X105454629Y-105837500D01*
X105454623Y-105837501D01*
X105395016Y-105843908D01*
X105260171Y-105894202D01*
X105260164Y-105894206D01*
X105144955Y-105980452D01*
X105144952Y-105980455D01*
X105058706Y-106095664D01*
X105058702Y-106095671D01*
X105008408Y-106230517D01*
X105002147Y-106288756D01*
X105002001Y-106290123D01*
X105002000Y-106290135D01*
X105002000Y-107570559D01*
X104982315Y-107637598D01*
X104929511Y-107683353D01*
X104860353Y-107693297D01*
X104796797Y-107664272D01*
X104790319Y-107658240D01*
X104510292Y-107378213D01*
X104510288Y-107378210D01*
X104379185Y-107290609D01*
X104379172Y-107290602D01*
X104233501Y-107230264D01*
X104233489Y-107230261D01*
X104078845Y-107199500D01*
X104078842Y-107199500D01*
X103472351Y-107199500D01*
X103405312Y-107179815D01*
X103359557Y-107127011D01*
X103349061Y-107088752D01*
X103344091Y-107042516D01*
X103293797Y-106907671D01*
X103293793Y-106907664D01*
X103207547Y-106792455D01*
X103207544Y-106792452D01*
X103092335Y-106706206D01*
X103092328Y-106706202D01*
X102957482Y-106655908D01*
X102957483Y-106655908D01*
X102897883Y-106649501D01*
X102897881Y-106649500D01*
X102897873Y-106649500D01*
X102897864Y-106649500D01*
X101102129Y-106649500D01*
X101102123Y-106649501D01*
X101042516Y-106655908D01*
X100907671Y-106706202D01*
X100907664Y-106706206D01*
X100792455Y-106792452D01*
X100792452Y-106792455D01*
X100706206Y-106907664D01*
X100706202Y-106907671D01*
X100655908Y-107042517D01*
X100650938Y-107088752D01*
X100649501Y-107102123D01*
X100649500Y-107102135D01*
X100649500Y-108897870D01*
X100649501Y-108897876D01*
X100655908Y-108957483D01*
X100706202Y-109092328D01*
X100706206Y-109092335D01*
X100792452Y-109207544D01*
X100792455Y-109207547D01*
X100907664Y-109293793D01*
X100907671Y-109293797D01*
X101039082Y-109342810D01*
X101095016Y-109384681D01*
X101119433Y-109450145D01*
X101104582Y-109518418D01*
X101083431Y-109546673D01*
X100969889Y-109660215D01*
X100844951Y-109832179D01*
X100748444Y-110021585D01*
X100682753Y-110223760D01*
X100649500Y-110433713D01*
X100649500Y-110646286D01*
X100682735Y-110856127D01*
X100682754Y-110856243D01*
X100734527Y-111015584D01*
X100748444Y-111058414D01*
X100844951Y-111247820D01*
X100969890Y-111419786D01*
X101120213Y-111570109D01*
X101292179Y-111695048D01*
X101292181Y-111695049D01*
X101292184Y-111695051D01*
X101301493Y-111699794D01*
X101352290Y-111747766D01*
X101369087Y-111815587D01*
X101346552Y-111881722D01*
X101301505Y-111920760D01*
X101292446Y-111925376D01*
X101292440Y-111925380D01*
X101238282Y-111964727D01*
X101238282Y-111964728D01*
X101870591Y-112597037D01*
X101807007Y-112614075D01*
X101692993Y-112679901D01*
X101599901Y-112772993D01*
X101534075Y-112887007D01*
X101517037Y-112950591D01*
X100884728Y-112318282D01*
X100884727Y-112318282D01*
X100845380Y-112372439D01*
X100748904Y-112561782D01*
X100683242Y-112763869D01*
X100683242Y-112763872D01*
X100650000Y-112973753D01*
X100650000Y-113186246D01*
X100683242Y-113396127D01*
X100683242Y-113396130D01*
X100748904Y-113598217D01*
X100845375Y-113787550D01*
X100884728Y-113841716D01*
X101517037Y-113209408D01*
X101534075Y-113272993D01*
X101599901Y-113387007D01*
X101692993Y-113480099D01*
X101807007Y-113545925D01*
X101870589Y-113562962D01*
X101238282Y-114195269D01*
X101238282Y-114195270D01*
X101292452Y-114234626D01*
X101302048Y-114239516D01*
X101352844Y-114287491D01*
X101369638Y-114355312D01*
X101347100Y-114421447D01*
X101302051Y-114460483D01*
X101292440Y-114465380D01*
X101238282Y-114504727D01*
X101238282Y-114504728D01*
X101870591Y-115137037D01*
X101807007Y-115154075D01*
X101692993Y-115219901D01*
X101599901Y-115312993D01*
X101534075Y-115427007D01*
X101517037Y-115490591D01*
X100884728Y-114858282D01*
X100884727Y-114858282D01*
X100845380Y-114912439D01*
X100748904Y-115101782D01*
X100683242Y-115303869D01*
X100683242Y-115303872D01*
X100650000Y-115513753D01*
X100650000Y-115726246D01*
X100683242Y-115936127D01*
X100683242Y-115936130D01*
X100748904Y-116138217D01*
X100845375Y-116327550D01*
X100884728Y-116381716D01*
X101517037Y-115749408D01*
X101534075Y-115812993D01*
X101599901Y-115927007D01*
X101692993Y-116020099D01*
X101807007Y-116085925D01*
X101870589Y-116102962D01*
X101238282Y-116735269D01*
X101238282Y-116735270D01*
X101292452Y-116774626D01*
X101302048Y-116779516D01*
X101352844Y-116827491D01*
X101369638Y-116895312D01*
X101347100Y-116961447D01*
X101302051Y-117000483D01*
X101292440Y-117005380D01*
X101238282Y-117044727D01*
X101238282Y-117044728D01*
X101870591Y-117677037D01*
X101807007Y-117694075D01*
X101692993Y-117759901D01*
X101599901Y-117852993D01*
X101534075Y-117967007D01*
X101517037Y-118030591D01*
X100884728Y-117398282D01*
X100884727Y-117398282D01*
X100845380Y-117452439D01*
X100748904Y-117641782D01*
X100683242Y-117843869D01*
X100683242Y-117843872D01*
X100650000Y-118053753D01*
X100650000Y-118266246D01*
X100683242Y-118476127D01*
X100683242Y-118476130D01*
X100748904Y-118678217D01*
X100845375Y-118867550D01*
X100884728Y-118921716D01*
X101517037Y-118289408D01*
X101534075Y-118352993D01*
X101599901Y-118467007D01*
X101692993Y-118560099D01*
X101807007Y-118625925D01*
X101870591Y-118642962D01*
X101269971Y-119243581D01*
X101348711Y-119360895D01*
X101349920Y-119364729D01*
X101352844Y-119367491D01*
X101360343Y-119397778D01*
X101369727Y-119427529D01*
X101368671Y-119431408D01*
X101369638Y-119435312D01*
X101359573Y-119464844D01*
X101351383Y-119494947D01*
X101348397Y-119497640D01*
X101347100Y-119501447D01*
X101302051Y-119540483D01*
X101292440Y-119545380D01*
X101238282Y-119584727D01*
X101238282Y-119584728D01*
X101870591Y-120217037D01*
X101807007Y-120234075D01*
X101692993Y-120299901D01*
X101599901Y-120392993D01*
X101534075Y-120507007D01*
X101517037Y-120570591D01*
X100884728Y-119938282D01*
X100884727Y-119938282D01*
X100845380Y-119992439D01*
X100748904Y-120181782D01*
X100683242Y-120383869D01*
X100683242Y-120383872D01*
X100650000Y-120593753D01*
X100650000Y-120806246D01*
X100683242Y-121016127D01*
X100683242Y-121016130D01*
X100748904Y-121218217D01*
X100845375Y-121407550D01*
X100884728Y-121461716D01*
X101517037Y-120829408D01*
X101534075Y-120892993D01*
X101599901Y-121007007D01*
X101692993Y-121100099D01*
X101807007Y-121165925D01*
X101870590Y-121182962D01*
X101238282Y-121815269D01*
X101238282Y-121815270D01*
X101292452Y-121854626D01*
X101292451Y-121854626D01*
X101301495Y-121859234D01*
X101352292Y-121907208D01*
X101369087Y-121975029D01*
X101346550Y-122041164D01*
X101301499Y-122080202D01*
X101292182Y-122084949D01*
X101120213Y-122209890D01*
X100969890Y-122360213D01*
X100844951Y-122532179D01*
X100748444Y-122721585D01*
X100682753Y-122923760D01*
X100649500Y-123133713D01*
X100649500Y-123346286D01*
X100677380Y-123522318D01*
X100682754Y-123556243D01*
X100732474Y-123709266D01*
X100748444Y-123758414D01*
X100844951Y-123947820D01*
X100969890Y-124119786D01*
X101120213Y-124270109D01*
X101292182Y-124395050D01*
X101300946Y-124399516D01*
X101351742Y-124447491D01*
X101368536Y-124515312D01*
X101345998Y-124581447D01*
X101300946Y-124620484D01*
X101292182Y-124624949D01*
X101120213Y-124749890D01*
X100969890Y-124900213D01*
X100844951Y-125072179D01*
X100748444Y-125261585D01*
X100682753Y-125463760D01*
X100649500Y-125673713D01*
X100649500Y-125886286D01*
X100681099Y-126085797D01*
X100682754Y-126096243D01*
X100737288Y-126264082D01*
X100748444Y-126298414D01*
X100844951Y-126487820D01*
X100969890Y-126659786D01*
X101120213Y-126810109D01*
X101292179Y-126935048D01*
X101292181Y-126935049D01*
X101292184Y-126935051D01*
X101301493Y-126939794D01*
X101352290Y-126987766D01*
X101369087Y-127055587D01*
X101346552Y-127121722D01*
X101301505Y-127160760D01*
X101292446Y-127165376D01*
X101292440Y-127165380D01*
X101238282Y-127204727D01*
X101238282Y-127204728D01*
X101870591Y-127837037D01*
X101807007Y-127854075D01*
X101692993Y-127919901D01*
X101599901Y-128012993D01*
X101534075Y-128127007D01*
X101517037Y-128190591D01*
X100884728Y-127558282D01*
X100884727Y-127558282D01*
X100845380Y-127612439D01*
X100748904Y-127801782D01*
X100683242Y-128003869D01*
X100683242Y-128003872D01*
X100650000Y-128213753D01*
X100650000Y-128426246D01*
X100683242Y-128636127D01*
X100683242Y-128636130D01*
X100748904Y-128838217D01*
X100845375Y-129027550D01*
X100884728Y-129081716D01*
X101517037Y-128449408D01*
X101534075Y-128512993D01*
X101599901Y-128627007D01*
X101692993Y-128720099D01*
X101807007Y-128785925D01*
X101870591Y-128802962D01*
X101269971Y-129403581D01*
X101348711Y-129520895D01*
X101349920Y-129524729D01*
X101352844Y-129527491D01*
X101360343Y-129557778D01*
X101369727Y-129587529D01*
X101368671Y-129591408D01*
X101369638Y-129595312D01*
X101359573Y-129624844D01*
X101351383Y-129654947D01*
X101348397Y-129657640D01*
X101347100Y-129661447D01*
X101302051Y-129700483D01*
X101292440Y-129705380D01*
X101238282Y-129744727D01*
X101238282Y-129744728D01*
X101870591Y-130377037D01*
X101807007Y-130394075D01*
X101692993Y-130459901D01*
X101599901Y-130552993D01*
X101534075Y-130667007D01*
X101517037Y-130730591D01*
X100884728Y-130098282D01*
X100884727Y-130098282D01*
X100845380Y-130152439D01*
X100748904Y-130341782D01*
X100683242Y-130543869D01*
X100683242Y-130543872D01*
X100650000Y-130753753D01*
X100650000Y-130966246D01*
X100683242Y-131176127D01*
X100683242Y-131176130D01*
X100748904Y-131378217D01*
X100845375Y-131567550D01*
X100884728Y-131621716D01*
X101517037Y-130989408D01*
X101534075Y-131052993D01*
X101599901Y-131167007D01*
X101692993Y-131260099D01*
X101807007Y-131325925D01*
X101870591Y-131342962D01*
X101269971Y-131943581D01*
X101348711Y-132060895D01*
X101349920Y-132064729D01*
X101352844Y-132067491D01*
X101360343Y-132097778D01*
X101369727Y-132127529D01*
X101368671Y-132131408D01*
X101369638Y-132135312D01*
X101359573Y-132164844D01*
X101351383Y-132194947D01*
X101348397Y-132197640D01*
X101347100Y-132201447D01*
X101302051Y-132240483D01*
X101292440Y-132245380D01*
X101238282Y-132284727D01*
X101238282Y-132284728D01*
X101870591Y-132917037D01*
X101807007Y-132934075D01*
X101692993Y-132999901D01*
X101599901Y-133092993D01*
X101534075Y-133207007D01*
X101517037Y-133270591D01*
X100884728Y-132638282D01*
X100884727Y-132638282D01*
X100845380Y-132692439D01*
X100748904Y-132881782D01*
X100683242Y-133083869D01*
X100683242Y-133083872D01*
X100650000Y-133293753D01*
X100650000Y-133506246D01*
X100683242Y-133716127D01*
X100683242Y-133716130D01*
X100748904Y-133918217D01*
X100845375Y-134107550D01*
X100884728Y-134161716D01*
X101517037Y-133529408D01*
X101534075Y-133592993D01*
X101599901Y-133707007D01*
X101692993Y-133800099D01*
X101807007Y-133865925D01*
X101870590Y-133882962D01*
X101238282Y-134515269D01*
X101238282Y-134515270D01*
X101292452Y-134554626D01*
X101292451Y-134554626D01*
X101301495Y-134559234D01*
X101352292Y-134607208D01*
X101369087Y-134675029D01*
X101346550Y-134741164D01*
X101301499Y-134780202D01*
X101292182Y-134784949D01*
X101120213Y-134909890D01*
X100969890Y-135060213D01*
X100844951Y-135232179D01*
X100748444Y-135421585D01*
X100682753Y-135623760D01*
X100649500Y-135833713D01*
X100649500Y-136046286D01*
X100676836Y-136218882D01*
X100682754Y-136256243D01*
X100723535Y-136381754D01*
X100748444Y-136458414D01*
X100844951Y-136647820D01*
X100969888Y-136819783D01*
X100969894Y-136819790D01*
X101120213Y-136970109D01*
X101292182Y-137095050D01*
X101300946Y-137099516D01*
X101351742Y-137147491D01*
X101368536Y-137215312D01*
X101345998Y-137281447D01*
X101300946Y-137320484D01*
X101292182Y-137324949D01*
X101120213Y-137449890D01*
X100969890Y-137600213D01*
X100844951Y-137772179D01*
X100748444Y-137961585D01*
X100748443Y-137961587D01*
X100748443Y-137961588D01*
X100729422Y-138020129D01*
X100682753Y-138163760D01*
X100664372Y-138279815D01*
X100649500Y-138373713D01*
X100649500Y-138586287D01*
X100682754Y-138796243D01*
X100741329Y-138976519D01*
X100748444Y-138998414D01*
X100844951Y-139187820D01*
X100969890Y-139359786D01*
X101120213Y-139510109D01*
X101292182Y-139635050D01*
X101300946Y-139639516D01*
X101351742Y-139687491D01*
X101368536Y-139755312D01*
X101345998Y-139821447D01*
X101300946Y-139860484D01*
X101292182Y-139864949D01*
X101120213Y-139989890D01*
X100969890Y-140140213D01*
X100844951Y-140312179D01*
X100748444Y-140501585D01*
X100682753Y-140703760D01*
X100667162Y-140802199D01*
X100649500Y-140913713D01*
X100649500Y-141126287D01*
X100654599Y-141158480D01*
X100680311Y-141320823D01*
X100682754Y-141336243D01*
X100747520Y-141535572D01*
X100748444Y-141538414D01*
X100844951Y-141727820D01*
X100969890Y-141899786D01*
X101120213Y-142050109D01*
X101292182Y-142175050D01*
X101300946Y-142179516D01*
X101351742Y-142227491D01*
X101368536Y-142295312D01*
X101345998Y-142361447D01*
X101300946Y-142400484D01*
X101292182Y-142404949D01*
X101120213Y-142529890D01*
X100969890Y-142680213D01*
X100844951Y-142852179D01*
X100748444Y-143041585D01*
X100682753Y-143243760D01*
X100649500Y-143453713D01*
X100649500Y-143666286D01*
X100668569Y-143786687D01*
X100682754Y-143876243D01*
X100739637Y-144051311D01*
X100748444Y-144078414D01*
X100844951Y-144267820D01*
X100969890Y-144439786D01*
X101120213Y-144590109D01*
X101292179Y-144715048D01*
X101292181Y-144715049D01*
X101292184Y-144715051D01*
X101481588Y-144811557D01*
X101683757Y-144877246D01*
X101893713Y-144910500D01*
X101893714Y-144910500D01*
X102106286Y-144910500D01*
X102106287Y-144910500D01*
X102316243Y-144877246D01*
X102518412Y-144811557D01*
X102638526Y-144750355D01*
X102707195Y-144737459D01*
X102771935Y-144763735D01*
X102782502Y-144773159D01*
X105797162Y-147787819D01*
X105830647Y-147849142D01*
X105825663Y-147918834D01*
X105783791Y-147974767D01*
X105718327Y-147999184D01*
X105709481Y-147999500D01*
X103003051Y-147999500D01*
X102996968Y-147999351D01*
X102976900Y-147998365D01*
X102663071Y-147982947D01*
X102650962Y-147981754D01*
X102323305Y-147933151D01*
X102311369Y-147930777D01*
X101990055Y-147850292D01*
X101978411Y-147846759D01*
X101666540Y-147735170D01*
X101655301Y-147730515D01*
X101355844Y-147588883D01*
X101345121Y-147583150D01*
X101061011Y-147412862D01*
X101050893Y-147406102D01*
X100784829Y-147208775D01*
X100775423Y-147201055D01*
X100668694Y-147104322D01*
X100529986Y-146978604D01*
X100521395Y-146970013D01*
X100298944Y-146724576D01*
X100291224Y-146715170D01*
X100182052Y-146567969D01*
X100093895Y-146449103D01*
X100087137Y-146438988D01*
X99916844Y-146154871D01*
X99911120Y-146144163D01*
X99769479Y-145844688D01*
X99764829Y-145833459D01*
X99737203Y-145756250D01*
X99653240Y-145521588D01*
X99649707Y-145509944D01*
X99640958Y-145475015D01*
X99569219Y-145188617D01*
X99566848Y-145176694D01*
X99555397Y-145099500D01*
X99518245Y-144849037D01*
X99517052Y-144836927D01*
X99516770Y-144831195D01*
X99500649Y-144503032D01*
X99500500Y-144496948D01*
X99500500Y-106003051D01*
X99500649Y-105996967D01*
X99505697Y-105894204D01*
X99517052Y-105663068D01*
X99518245Y-105650962D01*
X99566849Y-105323296D01*
X99569218Y-105311385D01*
X99649710Y-104990043D01*
X99653240Y-104978411D01*
X99764835Y-104666525D01*
X99769476Y-104655318D01*
X99911124Y-104355828D01*
X99916840Y-104345136D01*
X100087145Y-104060998D01*
X100093888Y-104050905D01*
X100291232Y-103784818D01*
X100298935Y-103775433D01*
X100521405Y-103529975D01*
X100529975Y-103521405D01*
X100775433Y-103298935D01*
X100784818Y-103291232D01*
X101050905Y-103093888D01*
X101060998Y-103087145D01*
X101345136Y-102916840D01*
X101355828Y-102911124D01*
X101655318Y-102769476D01*
X101666525Y-102764835D01*
X101978412Y-102653239D01*
X101990043Y-102649710D01*
X102311385Y-102569218D01*
X102323296Y-102566849D01*
X102650962Y-102518244D01*
X102663068Y-102517052D01*
X102996967Y-102500648D01*
X103003051Y-102500500D01*
X103065892Y-102500500D01*
X126934108Y-102500500D01*
X126996949Y-102500500D01*
X127003032Y-102500648D01*
G37*
%TD.AperFunction*%
%TA.AperFunction,Conductor*%
G36*
X111180539Y-135420185D02*
G01*
X111226294Y-135472989D01*
X111237500Y-135524500D01*
X111237500Y-135550000D01*
X112151000Y-135550000D01*
X112218039Y-135569685D01*
X112263794Y-135622489D01*
X112275000Y-135674000D01*
X112275000Y-135800000D01*
X112401000Y-135800000D01*
X112468039Y-135819685D01*
X112513794Y-135872489D01*
X112525000Y-135924000D01*
X112525000Y-136774999D01*
X112553699Y-136803698D01*
X112587184Y-136865021D01*
X112582200Y-136934713D01*
X112565285Y-136965690D01*
X112550103Y-136985969D01*
X112550102Y-136985971D01*
X112499810Y-137120813D01*
X112499809Y-137120817D01*
X112493400Y-137180427D01*
X112493400Y-137180434D01*
X112493400Y-137180435D01*
X112493400Y-137809570D01*
X112493401Y-137809576D01*
X112499808Y-137869183D01*
X112550102Y-138004028D01*
X112550104Y-138004031D01*
X112588775Y-138055689D01*
X112613192Y-138121154D01*
X112598340Y-138189427D01*
X112588775Y-138204311D01*
X112550104Y-138255968D01*
X112550102Y-138255971D01*
X112507274Y-138370801D01*
X112499809Y-138390817D01*
X112493400Y-138450427D01*
X112493400Y-138450434D01*
X112493400Y-138450435D01*
X112493400Y-139079570D01*
X112493401Y-139079576D01*
X112499808Y-139139183D01*
X112516443Y-139183782D01*
X112521427Y-139253474D01*
X112487942Y-139314797D01*
X112426618Y-139348281D01*
X112424454Y-139348732D01*
X112360676Y-139361418D01*
X112360667Y-139361421D01*
X112233192Y-139414222D01*
X112118454Y-139490887D01*
X111755887Y-139853454D01*
X111679222Y-139968192D01*
X111626421Y-140095667D01*
X111626418Y-140095679D01*
X111611448Y-140170940D01*
X111606356Y-140196542D01*
X111599500Y-140231007D01*
X111599500Y-141731006D01*
X111599500Y-141868994D01*
X111599500Y-141868996D01*
X111599499Y-141868996D01*
X111626418Y-142004322D01*
X111626421Y-142004332D01*
X111679222Y-142131807D01*
X111755887Y-142246545D01*
X111838465Y-142329123D01*
X111871950Y-142390446D01*
X111866966Y-142460138D01*
X111825094Y-142516071D01*
X111789788Y-142534510D01*
X111623699Y-142589546D01*
X111623688Y-142589551D01*
X111476965Y-142680052D01*
X111476961Y-142680055D01*
X111355055Y-142801961D01*
X111355052Y-142801965D01*
X111264551Y-142948688D01*
X111264546Y-142948699D01*
X111210319Y-143112347D01*
X111200000Y-143213345D01*
X111200000Y-143250000D01*
X112063500Y-143250000D01*
X112130539Y-143269685D01*
X112176294Y-143322489D01*
X112187500Y-143374000D01*
X112187500Y-143626000D01*
X112167815Y-143693039D01*
X112115011Y-143738794D01*
X112063500Y-143750000D01*
X111200001Y-143750000D01*
X111200001Y-143786654D01*
X111210319Y-143887652D01*
X111264546Y-144051300D01*
X111264551Y-144051311D01*
X111346658Y-144184426D01*
X111365099Y-144251818D01*
X111346659Y-144314619D01*
X111264095Y-144448477D01*
X111264091Y-144448486D01*
X111247021Y-144500000D01*
X111209826Y-144612247D01*
X111209826Y-144612248D01*
X111209825Y-144612248D01*
X111199500Y-144713316D01*
X111199500Y-144913444D01*
X111179815Y-144980483D01*
X111127011Y-145026238D01*
X111057853Y-145036182D01*
X111039575Y-145031202D01*
X111039324Y-145032031D01*
X111033500Y-145030264D01*
X111033497Y-145030263D01*
X111033492Y-145030262D01*
X111033489Y-145030261D01*
X110878845Y-144999500D01*
X110878842Y-144999500D01*
X110724499Y-144999500D01*
X110657460Y-144979815D01*
X110611705Y-144927011D01*
X110600499Y-144875500D01*
X110600499Y-144713330D01*
X110600498Y-144713313D01*
X110590174Y-144612247D01*
X110579267Y-144579332D01*
X110535908Y-144448484D01*
X110452089Y-144312593D01*
X110433650Y-144245201D01*
X110452091Y-144182400D01*
X110532948Y-144051311D01*
X110532953Y-144051300D01*
X110587180Y-143887652D01*
X110597499Y-143786654D01*
X110597500Y-143786641D01*
X110597500Y-143750000D01*
X109734000Y-143750000D01*
X109666961Y-143730315D01*
X109621206Y-143677511D01*
X109610000Y-143626000D01*
X109610000Y-143374000D01*
X109629685Y-143306961D01*
X109682489Y-143261206D01*
X109734000Y-143250000D01*
X110597499Y-143250000D01*
X110597499Y-143213360D01*
X110597498Y-143213345D01*
X110587180Y-143112347D01*
X110532953Y-142948699D01*
X110532948Y-142948688D01*
X110442447Y-142801965D01*
X110442444Y-142801961D01*
X110320538Y-142680055D01*
X110320534Y-142680052D01*
X110173811Y-142589551D01*
X110173800Y-142589546D01*
X110009587Y-142535132D01*
X109952142Y-142495360D01*
X109925319Y-142430844D01*
X109937634Y-142362068D01*
X109960906Y-142329749D01*
X110144113Y-142146543D01*
X110172321Y-142104328D01*
X110220775Y-142031811D01*
X110256094Y-141946543D01*
X110262530Y-141931007D01*
X110273578Y-141904333D01*
X110273580Y-141904329D01*
X110284563Y-141849114D01*
X110300500Y-141768993D01*
X110300500Y-139556607D01*
X110300500Y-139556604D01*
X110282377Y-139465500D01*
X110275676Y-139431811D01*
X110275516Y-139431007D01*
X110273581Y-139421275D01*
X110273580Y-139421274D01*
X110273580Y-139421271D01*
X110220775Y-139293789D01*
X110144114Y-139179057D01*
X110144112Y-139179054D01*
X109542918Y-138577860D01*
X109509433Y-138516537D01*
X109506599Y-138490179D01*
X109506599Y-138450429D01*
X109506598Y-138450423D01*
X109500191Y-138390816D01*
X109449897Y-138255971D01*
X109449895Y-138255968D01*
X109424745Y-138222372D01*
X109411224Y-138204310D01*
X109386807Y-138138848D01*
X109401658Y-138070575D01*
X109411221Y-138055693D01*
X109449896Y-138004031D01*
X109500191Y-137869183D01*
X109506600Y-137809573D01*
X109506599Y-137180428D01*
X109500191Y-137120817D01*
X109492246Y-137099516D01*
X109449897Y-136985971D01*
X109449893Y-136985964D01*
X109368275Y-136876937D01*
X109343857Y-136811473D01*
X109358708Y-136743200D01*
X109379856Y-136714949D01*
X110008152Y-136086654D01*
X111237501Y-136086654D01*
X111247819Y-136187652D01*
X111302046Y-136351300D01*
X111302051Y-136351311D01*
X111392552Y-136498034D01*
X111392555Y-136498038D01*
X111514461Y-136619944D01*
X111514465Y-136619947D01*
X111661188Y-136710448D01*
X111661199Y-136710453D01*
X111824847Y-136764680D01*
X111925851Y-136774999D01*
X112025000Y-136774998D01*
X112025000Y-136050000D01*
X111237501Y-136050000D01*
X111237501Y-136086654D01*
X110008152Y-136086654D01*
X110657988Y-135436819D01*
X110719311Y-135403334D01*
X110745669Y-135400500D01*
X111113500Y-135400500D01*
X111180539Y-135420185D01*
G37*
%TD.AperFunction*%
%TA.AperFunction,Conductor*%
G36*
X106951498Y-141427275D02*
G01*
X106964934Y-141428236D01*
X106982660Y-141441506D01*
X107002803Y-141450705D01*
X107010085Y-141462036D01*
X107020867Y-141470108D01*
X107028604Y-141490853D01*
X107040577Y-141509483D01*
X107043728Y-141531401D01*
X107045284Y-141535572D01*
X107045600Y-141544418D01*
X107045600Y-141619544D01*
X107052001Y-141679072D01*
X107052003Y-141679079D01*
X107102245Y-141813786D01*
X107102249Y-141813793D01*
X107188409Y-141928887D01*
X107188412Y-141928890D01*
X107303506Y-142015050D01*
X107303513Y-142015054D01*
X107438220Y-142065296D01*
X107438227Y-142065298D01*
X107497755Y-142071699D01*
X107497772Y-142071700D01*
X107538281Y-142071700D01*
X107605320Y-142091385D01*
X107651075Y-142144189D01*
X107661019Y-142213347D01*
X107631994Y-142276903D01*
X107625983Y-142283358D01*
X107421590Y-142487752D01*
X107390228Y-142519114D01*
X107341553Y-142549137D01*
X107220986Y-142589090D01*
X107074148Y-142679661D01*
X106952161Y-142801648D01*
X106861593Y-142948481D01*
X106861591Y-142948486D01*
X106837637Y-143020775D01*
X106807326Y-143112247D01*
X106807326Y-143112248D01*
X106807325Y-143112248D01*
X106797000Y-143213315D01*
X106797000Y-143786669D01*
X106797001Y-143786687D01*
X106807325Y-143887752D01*
X106840463Y-143987753D01*
X106861592Y-144051516D01*
X106945116Y-144186930D01*
X106963556Y-144254322D01*
X106945116Y-144317122D01*
X106864095Y-144448477D01*
X106864091Y-144448486D01*
X106847021Y-144500000D01*
X106809826Y-144612247D01*
X106809826Y-144612248D01*
X106809825Y-144612248D01*
X106799498Y-144713333D01*
X106799372Y-144715823D01*
X106799191Y-144716337D01*
X106799179Y-144716464D01*
X106799148Y-144716460D01*
X106776302Y-144781774D01*
X106721239Y-144824783D01*
X106651664Y-144831195D01*
X106589667Y-144798974D01*
X106587852Y-144797195D01*
X106536819Y-144746162D01*
X106503334Y-144684839D01*
X106500500Y-144658481D01*
X106500500Y-141841518D01*
X106520185Y-141774479D01*
X106536815Y-141753841D01*
X106833920Y-141456736D01*
X106853355Y-141446124D01*
X106870089Y-141431624D01*
X106883420Y-141429707D01*
X106895242Y-141423252D01*
X106917328Y-141424831D01*
X106939247Y-141421680D01*
X106951498Y-141427275D01*
G37*
%TD.AperFunction*%
%TA.AperFunction,Conductor*%
G36*
X111843039Y-131369685D02*
G01*
X111888794Y-131422489D01*
X111900000Y-131474000D01*
X111900000Y-131600000D01*
X112026000Y-131600000D01*
X112093039Y-131619685D01*
X112138794Y-131672489D01*
X112150000Y-131724000D01*
X112150000Y-132620480D01*
X112130315Y-132687519D01*
X112113683Y-132708159D01*
X111958660Y-132863182D01*
X111897339Y-132896666D01*
X111870981Y-132899500D01*
X109031003Y-132899500D01*
X108922590Y-132921065D01*
X108922589Y-132921065D01*
X108895671Y-132926420D01*
X108768190Y-132979224D01*
X108653454Y-133055887D01*
X108653453Y-133055888D01*
X103966162Y-137743181D01*
X103904839Y-137776666D01*
X103878481Y-137779500D01*
X103223547Y-137779500D01*
X103156508Y-137759815D01*
X103123230Y-137728385D01*
X103061785Y-137643813D01*
X103030107Y-137600211D01*
X102879786Y-137449890D01*
X102707820Y-137324951D01*
X102707115Y-137324591D01*
X102699054Y-137320485D01*
X102648259Y-137272512D01*
X102631463Y-137204692D01*
X102653999Y-137138556D01*
X102699054Y-137099515D01*
X102707816Y-137095051D01*
X102774582Y-137046543D01*
X102879786Y-136970109D01*
X102879788Y-136970106D01*
X102879792Y-136970104D01*
X103030104Y-136819792D01*
X103123229Y-136691614D01*
X103178558Y-136648949D01*
X103223547Y-136640500D01*
X104128996Y-136640500D01*
X104220040Y-136622389D01*
X104264328Y-136613580D01*
X104328069Y-136587177D01*
X104391807Y-136560777D01*
X104391808Y-136560776D01*
X104391811Y-136560775D01*
X104506543Y-136484114D01*
X108383607Y-132607048D01*
X108444928Y-132573565D01*
X108505521Y-132576773D01*
X108505632Y-132576257D01*
X108508872Y-132576950D01*
X108510291Y-132577025D01*
X108512247Y-132577674D01*
X108613323Y-132588000D01*
X109186676Y-132587999D01*
X109186684Y-132587998D01*
X109186687Y-132587998D01*
X109242030Y-132582344D01*
X109287753Y-132577674D01*
X109451516Y-132523408D01*
X109585380Y-132440839D01*
X109652772Y-132422400D01*
X109715573Y-132440841D01*
X109848688Y-132522948D01*
X109848699Y-132522953D01*
X110012347Y-132577180D01*
X110113352Y-132587499D01*
X110150000Y-132587499D01*
X110650000Y-132587499D01*
X110686640Y-132587499D01*
X110686654Y-132587498D01*
X110787652Y-132577180D01*
X110951300Y-132522953D01*
X110951307Y-132522950D01*
X111084902Y-132440547D01*
X111152295Y-132422106D01*
X111215098Y-132440547D01*
X111348692Y-132522950D01*
X111348699Y-132522953D01*
X111512347Y-132577180D01*
X111613352Y-132587499D01*
X111650000Y-132587499D01*
X111650000Y-131850000D01*
X110650000Y-131850000D01*
X110650000Y-132587499D01*
X110150000Y-132587499D01*
X110150000Y-131724000D01*
X110169685Y-131656961D01*
X110222489Y-131611206D01*
X110274000Y-131600000D01*
X110400000Y-131600000D01*
X110400000Y-131474000D01*
X110419685Y-131406961D01*
X110472489Y-131361206D01*
X110524000Y-131350000D01*
X111776000Y-131350000D01*
X111843039Y-131369685D01*
G37*
%TD.AperFunction*%
%TA.AperFunction,Conductor*%
G36*
X120915898Y-107820185D02*
G01*
X120961653Y-107872989D01*
X120972149Y-107911247D01*
X120978408Y-107969483D01*
X121028702Y-108104328D01*
X121028706Y-108104335D01*
X121114952Y-108219544D01*
X121114955Y-108219547D01*
X121183748Y-108271046D01*
X121225619Y-108326980D01*
X121230603Y-108396671D01*
X121197117Y-108457994D01*
X121183749Y-108469578D01*
X121115309Y-108520812D01*
X121029149Y-108635906D01*
X121029145Y-108635913D01*
X120978903Y-108770620D01*
X120978901Y-108770627D01*
X120972500Y-108830155D01*
X120972500Y-109390000D01*
X124997500Y-109390000D01*
X124997500Y-108830172D01*
X124997499Y-108830155D01*
X124991098Y-108770627D01*
X124991096Y-108770620D01*
X124940854Y-108635913D01*
X124940850Y-108635906D01*
X124854690Y-108520813D01*
X124786251Y-108469579D01*
X124744380Y-108413645D01*
X124739396Y-108343953D01*
X124772881Y-108282630D01*
X124786242Y-108271052D01*
X124855046Y-108219546D01*
X124941296Y-108104331D01*
X124987233Y-107981166D01*
X125029104Y-107925234D01*
X125094568Y-107900816D01*
X125103415Y-107900500D01*
X126525500Y-107900500D01*
X126592539Y-107920185D01*
X126638294Y-107972989D01*
X126649500Y-108024500D01*
X126649500Y-108897870D01*
X126649501Y-108897876D01*
X126655908Y-108957483D01*
X126706202Y-109092328D01*
X126706206Y-109092335D01*
X126792452Y-109207544D01*
X126792455Y-109207547D01*
X126907664Y-109293793D01*
X126907671Y-109293797D01*
X126952618Y-109310561D01*
X127042517Y-109344091D01*
X127102127Y-109350500D01*
X127112685Y-109350499D01*
X127179723Y-109370179D01*
X127200372Y-109386818D01*
X127870591Y-110057037D01*
X127807007Y-110074075D01*
X127692993Y-110139901D01*
X127599901Y-110232993D01*
X127534075Y-110347007D01*
X127517037Y-110410591D01*
X126884728Y-109778282D01*
X126884727Y-109778282D01*
X126845380Y-109832439D01*
X126748904Y-110021782D01*
X126683242Y-110223869D01*
X126683242Y-110223872D01*
X126650000Y-110433753D01*
X126650000Y-110646246D01*
X126683242Y-110856127D01*
X126683242Y-110856130D01*
X126712360Y-110945743D01*
X126714355Y-111015584D01*
X126678275Y-111075417D01*
X126615574Y-111106245D01*
X126594429Y-111108061D01*
X124952754Y-111108061D01*
X124885715Y-111088376D01*
X124874896Y-111080571D01*
X124862801Y-111070814D01*
X124855046Y-111060454D01*
X124784454Y-111007609D01*
X124782704Y-111006197D01*
X124764018Y-110979254D01*
X124744380Y-110953019D01*
X124744213Y-110950697D01*
X124742887Y-110948784D01*
X124741734Y-110916022D01*
X124739396Y-110883327D01*
X124740511Y-110881283D01*
X124740430Y-110878957D01*
X124757170Y-110850777D01*
X124772882Y-110822005D01*
X124775727Y-110819539D01*
X124776115Y-110818887D01*
X124776978Y-110818455D01*
X124786252Y-110810420D01*
X124854689Y-110759188D01*
X124854690Y-110759187D01*
X124940850Y-110644093D01*
X124940854Y-110644086D01*
X124991096Y-110509379D01*
X124991098Y-110509372D01*
X124997499Y-110449844D01*
X124997500Y-110449827D01*
X124997500Y-109890000D01*
X120972500Y-109890000D01*
X120972500Y-110449844D01*
X120978901Y-110509372D01*
X120978903Y-110509379D01*
X121029145Y-110644086D01*
X121029149Y-110644093D01*
X121115308Y-110759186D01*
X121183748Y-110810420D01*
X121225619Y-110866354D01*
X121230603Y-110936046D01*
X121197118Y-110997369D01*
X121183749Y-111008953D01*
X121114952Y-111060455D01*
X121028706Y-111175664D01*
X121028702Y-111175671D01*
X120978408Y-111310516D01*
X120975141Y-111340905D01*
X120948401Y-111405456D01*
X120891008Y-111445302D01*
X120835034Y-111448805D01*
X120834907Y-111450097D01*
X120828845Y-111449500D01*
X120828842Y-111449500D01*
X120671158Y-111449500D01*
X120671155Y-111449500D01*
X120516510Y-111480261D01*
X120516498Y-111480264D01*
X120370827Y-111540602D01*
X120370814Y-111540609D01*
X120239711Y-111628210D01*
X120239707Y-111628213D01*
X120128213Y-111739707D01*
X120128210Y-111739711D01*
X120040609Y-111870814D01*
X120040602Y-111870827D01*
X119980264Y-112016498D01*
X119980261Y-112016510D01*
X119949500Y-112171153D01*
X119949500Y-112328846D01*
X119980261Y-112483489D01*
X119980264Y-112483501D01*
X120040602Y-112629172D01*
X120040609Y-112629185D01*
X120128210Y-112760288D01*
X120128213Y-112760292D01*
X120239707Y-112871786D01*
X120239711Y-112871789D01*
X120370814Y-112959390D01*
X120370827Y-112959397D01*
X120516498Y-113019735D01*
X120516503Y-113019737D01*
X120635062Y-113043320D01*
X120671153Y-113050499D01*
X120671156Y-113050500D01*
X120671158Y-113050500D01*
X120828841Y-113050500D01*
X120828842Y-113050500D01*
X120864935Y-113043320D01*
X120934523Y-113049546D01*
X120989701Y-113092407D01*
X121005308Y-113121604D01*
X121028702Y-113184328D01*
X121028706Y-113184335D01*
X121114952Y-113299544D01*
X121114953Y-113299544D01*
X121114954Y-113299546D01*
X121163947Y-113336222D01*
X121183332Y-113350734D01*
X121225202Y-113406668D01*
X121230186Y-113476360D01*
X121196700Y-113537682D01*
X121183332Y-113549266D01*
X121114952Y-113600455D01*
X121028706Y-113715664D01*
X121028702Y-113715671D01*
X120978408Y-113850517D01*
X120972001Y-113910116D01*
X120972000Y-113910135D01*
X120972000Y-115529870D01*
X120972001Y-115529876D01*
X120978408Y-115589483D01*
X121028702Y-115724328D01*
X121028706Y-115724335D01*
X121114952Y-115839544D01*
X121114953Y-115839544D01*
X121114954Y-115839546D01*
X121163947Y-115876222D01*
X121183332Y-115890734D01*
X121225202Y-115946668D01*
X121230186Y-116016360D01*
X121196700Y-116077682D01*
X121183332Y-116089266D01*
X121114952Y-116140455D01*
X121028706Y-116255664D01*
X121028702Y-116255671D01*
X120978408Y-116390517D01*
X120972001Y-116450116D01*
X120972001Y-116450123D01*
X120972000Y-116450135D01*
X120972000Y-116675500D01*
X120952315Y-116742539D01*
X120899511Y-116788294D01*
X120848000Y-116799500D01*
X119925316Y-116799500D01*
X119877864Y-116790061D01*
X119733501Y-116730264D01*
X119733489Y-116730261D01*
X119578845Y-116699500D01*
X119578842Y-116699500D01*
X119421158Y-116699500D01*
X119421155Y-116699500D01*
X119266510Y-116730261D01*
X119266498Y-116730264D01*
X119120827Y-116790602D01*
X119120814Y-116790609D01*
X118989711Y-116878210D01*
X118989707Y-116878213D01*
X118878213Y-116989707D01*
X118878210Y-116989711D01*
X118790609Y-117120814D01*
X118790602Y-117120827D01*
X118730264Y-117266498D01*
X118730261Y-117266510D01*
X118699500Y-117421153D01*
X118699500Y-117578846D01*
X118730261Y-117733489D01*
X118730264Y-117733501D01*
X118790602Y-117879172D01*
X118790609Y-117879185D01*
X118878210Y-118010288D01*
X118878213Y-118010292D01*
X118989707Y-118121786D01*
X118989711Y-118121789D01*
X119120814Y-118209390D01*
X119120827Y-118209397D01*
X119253461Y-118264335D01*
X119266503Y-118269737D01*
X119421153Y-118300499D01*
X119421156Y-118300500D01*
X119421158Y-118300500D01*
X119578844Y-118300500D01*
X119578845Y-118300499D01*
X119733497Y-118269737D01*
X119808963Y-118238478D01*
X119877864Y-118209939D01*
X119925316Y-118200500D01*
X120920277Y-118200500D01*
X120987316Y-118220185D01*
X121022456Y-118257928D01*
X121023388Y-118257231D01*
X121114952Y-118379544D01*
X121114953Y-118379544D01*
X121114954Y-118379546D01*
X121163947Y-118416222D01*
X121183332Y-118430734D01*
X121225202Y-118486668D01*
X121230186Y-118556360D01*
X121196776Y-118617607D01*
X121190474Y-118623919D01*
X121114954Y-118680454D01*
X121057747Y-118756871D01*
X121051523Y-118763107D01*
X121028294Y-118775816D01*
X121007100Y-118791682D01*
X120995458Y-118793782D01*
X120990228Y-118796644D01*
X120982588Y-118796104D01*
X120963767Y-118799500D01*
X120675316Y-118799500D01*
X120627864Y-118790061D01*
X120483501Y-118730264D01*
X120483489Y-118730261D01*
X120328845Y-118699500D01*
X120328842Y-118699500D01*
X120171158Y-118699500D01*
X120171155Y-118699500D01*
X120016510Y-118730261D01*
X120016498Y-118730264D01*
X119870827Y-118790602D01*
X119870814Y-118790609D01*
X119739711Y-118878210D01*
X119739707Y-118878213D01*
X119628213Y-118989707D01*
X119628210Y-118989711D01*
X119540609Y-119120814D01*
X119540602Y-119120827D01*
X119480264Y-119266498D01*
X119480261Y-119266510D01*
X119449500Y-119421153D01*
X119449500Y-119578846D01*
X119480261Y-119733489D01*
X119480264Y-119733501D01*
X119540602Y-119879172D01*
X119540609Y-119879185D01*
X119628210Y-120010288D01*
X119628213Y-120010292D01*
X119739707Y-120121786D01*
X119739711Y-120121789D01*
X119870814Y-120209390D01*
X119870827Y-120209397D01*
X120016498Y-120269735D01*
X120016503Y-120269737D01*
X120168147Y-120299901D01*
X120171153Y-120300499D01*
X120171156Y-120300500D01*
X120171158Y-120300500D01*
X120328844Y-120300500D01*
X120328845Y-120300499D01*
X120483497Y-120269737D01*
X120569593Y-120234075D01*
X120627864Y-120209939D01*
X120636040Y-120208312D01*
X120640381Y-120205523D01*
X120675316Y-120200500D01*
X120848001Y-120200500D01*
X120915040Y-120220185D01*
X120960795Y-120272989D01*
X120972001Y-120324500D01*
X120972001Y-120609876D01*
X120978408Y-120669483D01*
X121028702Y-120804328D01*
X121028706Y-120804335D01*
X121114952Y-120919544D01*
X121114953Y-120919544D01*
X121114954Y-120919546D01*
X121163947Y-120956222D01*
X121183332Y-120970734D01*
X121225202Y-121026668D01*
X121230186Y-121096360D01*
X121196700Y-121157682D01*
X121183332Y-121169266D01*
X121114952Y-121220455D01*
X121028706Y-121335664D01*
X121028702Y-121335671D01*
X120978408Y-121470516D01*
X120972147Y-121528756D01*
X120945409Y-121593307D01*
X120888016Y-121633155D01*
X120848858Y-121639500D01*
X120425316Y-121639500D01*
X120377864Y-121630061D01*
X120233501Y-121570264D01*
X120233489Y-121570261D01*
X120078845Y-121539500D01*
X120078842Y-121539500D01*
X119921158Y-121539500D01*
X119921155Y-121539500D01*
X119766510Y-121570261D01*
X119766498Y-121570264D01*
X119622136Y-121630061D01*
X119574684Y-121639500D01*
X114691004Y-121639500D01*
X114555677Y-121666418D01*
X114555667Y-121666421D01*
X114428192Y-121719222D01*
X114313454Y-121795887D01*
X109155887Y-126953454D01*
X109079222Y-127068192D01*
X109026421Y-127195667D01*
X109026418Y-127195679D01*
X109006529Y-127295670D01*
X109006529Y-127295673D01*
X108999500Y-127331006D01*
X108999500Y-127974684D01*
X108990061Y-128022136D01*
X108930264Y-128166498D01*
X108930261Y-128166510D01*
X108899500Y-128321153D01*
X108899500Y-128478846D01*
X108931319Y-128638809D01*
X108925092Y-128708400D01*
X108882229Y-128763578D01*
X108816339Y-128786822D01*
X108809703Y-128787000D01*
X108613331Y-128787000D01*
X108613312Y-128787001D01*
X108512247Y-128797325D01*
X108348484Y-128851592D01*
X108348481Y-128851593D01*
X108201648Y-128942161D01*
X108079661Y-129064148D01*
X107989093Y-129210981D01*
X107989092Y-129210984D01*
X107934826Y-129374747D01*
X107934826Y-129374748D01*
X107934825Y-129374748D01*
X107924500Y-129475815D01*
X107924500Y-130074169D01*
X107924501Y-130074187D01*
X107934825Y-130175252D01*
X107989092Y-130339015D01*
X107989093Y-130339018D01*
X108079661Y-130485851D01*
X108193629Y-130599819D01*
X108227114Y-130661142D01*
X108222130Y-130730834D01*
X108193629Y-130775181D01*
X108079660Y-130889149D01*
X108079657Y-130889153D01*
X108007375Y-131006340D01*
X107970731Y-131044343D01*
X107953460Y-131055883D01*
X107953454Y-131055888D01*
X103806162Y-135203181D01*
X103744839Y-135236666D01*
X103718481Y-135239500D01*
X103223547Y-135239500D01*
X103156508Y-135219815D01*
X103123230Y-135188385D01*
X103030108Y-135060213D01*
X103030107Y-135060211D01*
X102879786Y-134909890D01*
X102707817Y-134784949D01*
X102698504Y-134780204D01*
X102647707Y-134732230D01*
X102630912Y-134664409D01*
X102653449Y-134598274D01*
X102698507Y-134559232D01*
X102707555Y-134554622D01*
X102761716Y-134515270D01*
X102761717Y-134515270D01*
X102129408Y-133882962D01*
X102192993Y-133865925D01*
X102307007Y-133800099D01*
X102400099Y-133707007D01*
X102465925Y-133592993D01*
X102482962Y-133529409D01*
X103115270Y-134161717D01*
X103115270Y-134161716D01*
X103154622Y-134107554D01*
X103251095Y-133918217D01*
X103316757Y-133716130D01*
X103316757Y-133716127D01*
X103350000Y-133506246D01*
X103350000Y-133293753D01*
X103316757Y-133083872D01*
X103316757Y-133083869D01*
X103251095Y-132881782D01*
X103154624Y-132692449D01*
X103115270Y-132638282D01*
X103115269Y-132638282D01*
X102482962Y-133270590D01*
X102465925Y-133207007D01*
X102400099Y-133092993D01*
X102307007Y-132999901D01*
X102192993Y-132934075D01*
X102129409Y-132917037D01*
X102761716Y-132284728D01*
X102707550Y-132245375D01*
X102697954Y-132240486D01*
X102647157Y-132192512D01*
X102630361Y-132124692D01*
X102652897Y-132058556D01*
X102697954Y-132019514D01*
X102707554Y-132014622D01*
X102761716Y-131975270D01*
X102761717Y-131975270D01*
X102129408Y-131342962D01*
X102192993Y-131325925D01*
X102307007Y-131260099D01*
X102400099Y-131167007D01*
X102465925Y-131052993D01*
X102482962Y-130989409D01*
X103115270Y-131621717D01*
X103115270Y-131621716D01*
X103154622Y-131567554D01*
X103251095Y-131378217D01*
X103316757Y-131176130D01*
X103316757Y-131176127D01*
X103350000Y-130966246D01*
X103350000Y-130753753D01*
X103316757Y-130543872D01*
X103316757Y-130543869D01*
X103251095Y-130341782D01*
X103154624Y-130152449D01*
X103115270Y-130098282D01*
X103115269Y-130098282D01*
X102482962Y-130730590D01*
X102465925Y-130667007D01*
X102400099Y-130552993D01*
X102307007Y-130459901D01*
X102192993Y-130394075D01*
X102129409Y-130377037D01*
X102761716Y-129744728D01*
X102707550Y-129705375D01*
X102697954Y-129700486D01*
X102647157Y-129652512D01*
X102630361Y-129584692D01*
X102652897Y-129518556D01*
X102697954Y-129479514D01*
X102707554Y-129474622D01*
X102761716Y-129435270D01*
X102761717Y-129435270D01*
X102129408Y-128802962D01*
X102192993Y-128785925D01*
X102307007Y-128720099D01*
X102400099Y-128627007D01*
X102465925Y-128512993D01*
X102482962Y-128449409D01*
X103115270Y-129081717D01*
X103115270Y-129081716D01*
X103154622Y-129027554D01*
X103251095Y-128838217D01*
X103316757Y-128636130D01*
X103316757Y-128636127D01*
X103350000Y-128426246D01*
X103350000Y-128213753D01*
X103316757Y-128003872D01*
X103316757Y-128003869D01*
X103251095Y-127801782D01*
X103154624Y-127612449D01*
X103115270Y-127558282D01*
X103115269Y-127558282D01*
X102482962Y-128190590D01*
X102465925Y-128127007D01*
X102400099Y-128012993D01*
X102307007Y-127919901D01*
X102192993Y-127854075D01*
X102129409Y-127837037D01*
X102761716Y-127204728D01*
X102707547Y-127165373D01*
X102707547Y-127165372D01*
X102698500Y-127160763D01*
X102647706Y-127112788D01*
X102630912Y-127044966D01*
X102653451Y-126978832D01*
X102698508Y-126939793D01*
X102707816Y-126935051D01*
X102827229Y-126848293D01*
X102879786Y-126810109D01*
X102879788Y-126810106D01*
X102879792Y-126810104D01*
X103030104Y-126659792D01*
X103030106Y-126659788D01*
X103030109Y-126659786D01*
X103155048Y-126487820D01*
X103155047Y-126487820D01*
X103155051Y-126487816D01*
X103251557Y-126298412D01*
X103317246Y-126096243D01*
X103350500Y-125886287D01*
X103350500Y-125704500D01*
X103370185Y-125637461D01*
X103422989Y-125591706D01*
X103474500Y-125580500D01*
X104878859Y-125580500D01*
X104945898Y-125600185D01*
X104991653Y-125652989D01*
X105002149Y-125691247D01*
X105008408Y-125749483D01*
X105058702Y-125884328D01*
X105058706Y-125884335D01*
X105144952Y-125999544D01*
X105144955Y-125999547D01*
X105260164Y-126085793D01*
X105260171Y-126085797D01*
X105395017Y-126136091D01*
X105395016Y-126136091D01*
X105401944Y-126136835D01*
X105454627Y-126142500D01*
X108575372Y-126142499D01*
X108634983Y-126136091D01*
X108769831Y-126085796D01*
X108885046Y-125999546D01*
X108971296Y-125884331D01*
X109021591Y-125749483D01*
X109028000Y-125689873D01*
X109027999Y-124070128D01*
X109021591Y-124010517D01*
X109011184Y-123982615D01*
X108971297Y-123875671D01*
X108971293Y-123875664D01*
X108885047Y-123760456D01*
X108885048Y-123760456D01*
X108885046Y-123760454D01*
X108816666Y-123709265D01*
X108774797Y-123653333D01*
X108769813Y-123583641D01*
X108803298Y-123522318D01*
X108816661Y-123510738D01*
X108885046Y-123459546D01*
X108971296Y-123344331D01*
X109021591Y-123209483D01*
X109028000Y-123149873D01*
X109027999Y-121530128D01*
X109021591Y-121470517D01*
X109018308Y-121461716D01*
X108971297Y-121335671D01*
X108971293Y-121335664D01*
X108885047Y-121220456D01*
X108885048Y-121220456D01*
X108885046Y-121220454D01*
X108816666Y-121169265D01*
X108774797Y-121113333D01*
X108769813Y-121043641D01*
X108803298Y-120982318D01*
X108816661Y-120970738D01*
X108885046Y-120919546D01*
X108971296Y-120804331D01*
X109021591Y-120669483D01*
X109028000Y-120609873D01*
X109027999Y-118990128D01*
X109021591Y-118930517D01*
X109018308Y-118921716D01*
X108971297Y-118795671D01*
X108971293Y-118795664D01*
X108885047Y-118680456D01*
X108885048Y-118680456D01*
X108885046Y-118680454D01*
X108816666Y-118629265D01*
X108774797Y-118573333D01*
X108769813Y-118503641D01*
X108803298Y-118442318D01*
X108816661Y-118430738D01*
X108885046Y-118379546D01*
X108971296Y-118264331D01*
X109021591Y-118129483D01*
X109028000Y-118069873D01*
X109027999Y-116450128D01*
X109022799Y-116401757D01*
X109021591Y-116390516D01*
X108971297Y-116255671D01*
X108971293Y-116255664D01*
X108885047Y-116140456D01*
X108885048Y-116140456D01*
X108885046Y-116140454D01*
X108816666Y-116089265D01*
X108774797Y-116033333D01*
X108769813Y-115963641D01*
X108803298Y-115902318D01*
X108816661Y-115890738D01*
X108885046Y-115839546D01*
X108971296Y-115724331D01*
X109021591Y-115589483D01*
X109028000Y-115529873D01*
X109027999Y-114709438D01*
X109047683Y-114642401D01*
X109100487Y-114596646D01*
X109169646Y-114586702D01*
X109233202Y-114615727D01*
X109239680Y-114621759D01*
X109239707Y-114621786D01*
X109239711Y-114621789D01*
X109370814Y-114709390D01*
X109370827Y-114709397D01*
X109516498Y-114769735D01*
X109516503Y-114769737D01*
X109671153Y-114800499D01*
X109671156Y-114800500D01*
X109671158Y-114800500D01*
X109828844Y-114800500D01*
X109828845Y-114800499D01*
X109983497Y-114769737D01*
X110129179Y-114709394D01*
X110260289Y-114621789D01*
X110371789Y-114510289D01*
X110459394Y-114379179D01*
X110519737Y-114233497D01*
X110550500Y-114078842D01*
X110550500Y-113921158D01*
X110550500Y-113921155D01*
X110550499Y-113921153D01*
X110548304Y-113910116D01*
X110519737Y-113766503D01*
X110459939Y-113622136D01*
X110450500Y-113574684D01*
X110450500Y-108841519D01*
X110470185Y-108774480D01*
X110486819Y-108753838D01*
X111403838Y-107836819D01*
X111465161Y-107803334D01*
X111491519Y-107800500D01*
X120848859Y-107800500D01*
X120915898Y-107820185D01*
G37*
%TD.AperFunction*%
%TA.AperFunction,Conductor*%
G36*
X103452431Y-117597383D02*
G01*
X103491843Y-117623922D01*
X103749707Y-117881786D01*
X103749711Y-117881789D01*
X103880814Y-117969390D01*
X103880827Y-117969397D01*
X103979558Y-118010292D01*
X104026503Y-118029737D01*
X104147239Y-118053753D01*
X104181153Y-118060499D01*
X104181156Y-118060500D01*
X104181158Y-118060500D01*
X104338842Y-118060500D01*
X104896585Y-118060500D01*
X104963624Y-118080185D01*
X105009379Y-118132989D01*
X105012767Y-118141167D01*
X105058702Y-118264328D01*
X105058706Y-118264335D01*
X105144952Y-118379544D01*
X105144953Y-118379544D01*
X105144954Y-118379546D01*
X105193947Y-118416222D01*
X105213332Y-118430734D01*
X105255202Y-118486668D01*
X105260186Y-118556360D01*
X105226700Y-118617682D01*
X105213332Y-118629266D01*
X105144952Y-118680455D01*
X105058706Y-118795664D01*
X105058702Y-118795671D01*
X105008408Y-118930517D01*
X105002227Y-118988018D01*
X105002001Y-118990123D01*
X105002000Y-118990135D01*
X105002000Y-120609870D01*
X105002001Y-120609876D01*
X105008408Y-120669483D01*
X105058702Y-120804328D01*
X105058706Y-120804335D01*
X105144952Y-120919544D01*
X105144953Y-120919544D01*
X105144954Y-120919546D01*
X105193947Y-120956222D01*
X105213332Y-120970734D01*
X105255202Y-121026668D01*
X105260186Y-121096360D01*
X105226700Y-121157682D01*
X105213332Y-121169266D01*
X105144952Y-121220455D01*
X105058706Y-121335664D01*
X105058702Y-121335671D01*
X105008408Y-121470516D01*
X105002147Y-121528756D01*
X104975409Y-121593307D01*
X104918016Y-121633155D01*
X104878858Y-121639500D01*
X103229469Y-121639500D01*
X103162430Y-121619815D01*
X103116675Y-121567011D01*
X103106731Y-121497853D01*
X103129150Y-121442616D01*
X103154621Y-121407556D01*
X103251095Y-121218217D01*
X103316757Y-121016130D01*
X103316757Y-121016127D01*
X103350000Y-120806246D01*
X103350000Y-120593753D01*
X103316757Y-120383872D01*
X103316757Y-120383869D01*
X103251095Y-120181782D01*
X103154624Y-119992449D01*
X103115270Y-119938282D01*
X103115269Y-119938282D01*
X102482962Y-120570590D01*
X102465925Y-120507007D01*
X102400099Y-120392993D01*
X102307007Y-120299901D01*
X102192993Y-120234075D01*
X102129409Y-120217037D01*
X102761716Y-119584728D01*
X102707550Y-119545375D01*
X102697954Y-119540486D01*
X102647157Y-119492512D01*
X102630361Y-119424692D01*
X102652897Y-119358556D01*
X102697954Y-119319514D01*
X102707554Y-119314622D01*
X102761716Y-119275270D01*
X102761717Y-119275270D01*
X102129408Y-118642962D01*
X102192993Y-118625925D01*
X102307007Y-118560099D01*
X102400099Y-118467007D01*
X102465925Y-118352993D01*
X102482962Y-118289408D01*
X103115270Y-118921717D01*
X103115270Y-118921716D01*
X103154622Y-118867554D01*
X103251095Y-118678217D01*
X103316757Y-118476130D01*
X103316757Y-118476127D01*
X103350000Y-118266246D01*
X103350000Y-118053753D01*
X103316758Y-117843873D01*
X103286231Y-117749922D01*
X103284236Y-117680080D01*
X103320316Y-117620247D01*
X103383017Y-117589419D01*
X103452431Y-117597383D01*
G37*
%TD.AperFunction*%
%TD*%
M02*
