%TF.GenerationSoftware,KiCad,Pcbnew,9.0.2*%
%TF.CreationDate,2025-06-04T19:43:58+07:00*%
%TF.ProjectId,Wheelspeed New,57686565-6c73-4706-9565-64204e65772e,rev?*%
%TF.SameCoordinates,Original*%
%TF.FileFunction,Plated,1,2,PTH,Drill*%
%TF.FilePolarity,Positive*%
%FSLAX46Y46*%
G04 Gerber Fmt 4.6, Leading zero omitted, Abs format (unit mm)*
G04 Created by KiCad (PCBNEW 9.0.2) date 2025-06-04 19:43:58*
%MOMM*%
%LPD*%
G01*
G04 APERTURE LIST*
%TA.AperFunction,ViaDrill*%
%ADD10C,0.300000*%
%TD*%
%TA.AperFunction,ComponentDrill*%
%ADD11C,0.700000*%
%TD*%
%TA.AperFunction,ComponentDrill*%
%ADD12C,1.000000*%
%TD*%
G04 APERTURE END LIST*
D10*
X106700000Y-142100000D03*
X109700000Y-128400000D03*
X109750000Y-114000000D03*
X109900000Y-132800000D03*
X110200000Y-137200000D03*
X110200000Y-137900000D03*
X110200000Y-138600000D03*
X110800000Y-145800000D03*
X110900000Y-135800000D03*
X110900000Y-137200000D03*
X110900000Y-137900000D03*
X110900000Y-138600000D03*
X110900000Y-139300000D03*
X110900000Y-140000000D03*
X110900000Y-140700000D03*
X110900000Y-141400000D03*
X110900000Y-142100000D03*
X110900000Y-142800000D03*
X110900000Y-143500000D03*
X111600000Y-137200000D03*
X111600000Y-137900000D03*
X111600000Y-138600000D03*
X111600000Y-139300000D03*
X112700000Y-128400000D03*
X115600000Y-137300000D03*
X119250000Y-119750000D03*
X119500000Y-117500000D03*
X120000000Y-122340000D03*
X120250000Y-119500000D03*
X120750000Y-112250000D03*
X120874293Y-124755707D03*
X124200000Y-141700000D03*
X129750000Y-139750000D03*
D11*
%TO.C,RL1*%
X119960000Y-131500000D03*
%TO.C,RR1*%
X119960000Y-134000000D03*
%TO.C,FR1*%
X119960000Y-136500000D03*
%TO.C,FL1*%
X119960000Y-139000000D03*
%TO.C,RL1*%
X122500000Y-131500000D03*
%TO.C,RR1*%
X122500000Y-134000000D03*
%TO.C,FR1*%
X122500000Y-136500000D03*
%TO.C,FL1*%
X122500000Y-139000000D03*
D12*
%TO.C,J3*%
X102000000Y-108000000D03*
X102000000Y-110540000D03*
X102000000Y-113080000D03*
X102000000Y-115620000D03*
X102000000Y-118160000D03*
X102000000Y-120700000D03*
X102000000Y-123240000D03*
X102000000Y-125780000D03*
X102000000Y-128320000D03*
X102000000Y-130860000D03*
X102000000Y-133400000D03*
X102000000Y-135940000D03*
X102000000Y-138480000D03*
X102000000Y-141020000D03*
X102000000Y-143560000D03*
%TO.C,J4*%
X128000000Y-108000000D03*
X128000000Y-110540000D03*
X128000000Y-113080000D03*
X128000000Y-115620000D03*
X128000000Y-118160000D03*
X128000000Y-120700000D03*
X128000000Y-123240000D03*
X128000000Y-125780000D03*
X128000000Y-128320000D03*
X128000000Y-130860000D03*
X128000000Y-133400000D03*
X128000000Y-135940000D03*
X128000000Y-138480000D03*
X128000000Y-141020000D03*
X128000000Y-143560000D03*
M02*
