%TF.GenerationSoftware,KiCad,Pcbnew,9.0.2*%
%TF.CreationDate,2025-06-04T19:43:54+07:00*%
%TF.ProjectId,Wheelspeed New,57686565-6c73-4706-9565-64204e65772e,rev?*%
%TF.SameCoordinates,Original*%
%TF.FileFunction,Paste,Top*%
%TF.FilePolarity,Positive*%
%FSLAX46Y46*%
G04 Gerber Fmt 4.6, Leading zero omitted, Abs format (unit mm)*
G04 Created by KiCad (PCBNEW 9.0.2) date 2025-06-04 19:43:54*
%MOMM*%
%LPD*%
G01*
G04 APERTURE LIST*
G04 Aperture macros list*
%AMRoundRect*
0 Rectangle with rounded corners*
0 $1 Rounding radius*
0 $2 $3 $4 $5 $6 $7 $8 $9 X,Y pos of 4 corners*
0 Add a 4 corners polygon primitive as box body*
4,1,4,$2,$3,$4,$5,$6,$7,$8,$9,$2,$3,0*
0 Add four circle primitives for the rounded corners*
1,1,$1+$1,$2,$3*
1,1,$1+$1,$4,$5*
1,1,$1+$1,$6,$7*
1,1,$1+$1,$8,$9*
0 Add four rect primitives between the rounded corners*
20,1,$1+$1,$2,$3,$4,$5,0*
20,1,$1+$1,$4,$5,$6,$7,0*
20,1,$1+$1,$6,$7,$8,$9,0*
20,1,$1+$1,$8,$9,$2,$3,0*%
G04 Aperture macros list end*
%ADD10R,3.025000X1.524000*%
%ADD11R,1.460500X0.533400*%
%ADD12RoundRect,0.237500X-0.237500X0.250000X-0.237500X-0.250000X0.237500X-0.250000X0.237500X0.250000X0*%
%ADD13RoundRect,0.237500X0.237500X-0.250000X0.237500X0.250000X-0.237500X0.250000X-0.237500X-0.250000X0*%
%ADD14RoundRect,0.237500X0.250000X0.237500X-0.250000X0.237500X-0.250000X-0.237500X0.250000X-0.237500X0*%
%ADD15RoundRect,0.237500X-0.250000X-0.237500X0.250000X-0.237500X0.250000X0.237500X-0.250000X0.237500X0*%
%ADD16RoundRect,0.237500X0.300000X0.237500X-0.300000X0.237500X-0.300000X-0.237500X0.300000X-0.237500X0*%
G04 APERTURE END LIST*
D10*
%TO.C,U1*%
X122985000Y-109640000D03*
X107015000Y-124880000D03*
X107015000Y-122340000D03*
X107015000Y-119800000D03*
X107015000Y-117260000D03*
X107015000Y-114720000D03*
X107015000Y-112180000D03*
X107015000Y-109640000D03*
X122985000Y-107100000D03*
X107015000Y-107100000D03*
X122985000Y-114720000D03*
X122985000Y-112180000D03*
X122985000Y-117260000D03*
X122985000Y-119800000D03*
X122985000Y-122340000D03*
X122985000Y-124880000D03*
%TD*%
D11*
%TO.C,U2*%
X108275850Y-137495000D03*
X108275850Y-138765000D03*
X108275850Y-140035000D03*
X108275850Y-141305000D03*
X113724150Y-141305000D03*
X113724150Y-140035000D03*
X113724150Y-138765000D03*
X113724150Y-137495000D03*
%TD*%
D12*
%TO.C,R21*%
X108900000Y-129775000D03*
X108900000Y-131600000D03*
%TD*%
D13*
%TO.C,R24*%
X111900000Y-131600000D03*
X111900000Y-129775000D03*
%TD*%
D14*
%TO.C,R4*%
X114012500Y-143500000D03*
X112187500Y-143500000D03*
%TD*%
%TO.C,R10*%
X121700000Y-143600000D03*
X119875000Y-143600000D03*
%TD*%
%TO.C,R13*%
X109610000Y-146510000D03*
X107785000Y-146510000D03*
%TD*%
D15*
%TO.C,R2*%
X107785000Y-143500000D03*
X109610000Y-143500000D03*
%TD*%
D16*
%TO.C,C1*%
X114000000Y-135800000D03*
X112275000Y-135800000D03*
%TD*%
D14*
%TO.C,R1*%
X109612500Y-145000000D03*
X107787500Y-145000000D03*
%TD*%
%TO.C,R9*%
X121700000Y-142100000D03*
X119875000Y-142100000D03*
%TD*%
D15*
%TO.C,R3*%
X112187500Y-145000000D03*
X114012500Y-145000000D03*
%TD*%
D13*
%TO.C,R22*%
X110400000Y-131600000D03*
X110400000Y-129775000D03*
%TD*%
D12*
%TO.C,R23*%
X113400000Y-129775000D03*
X113400000Y-131600000D03*
%TD*%
D15*
%TO.C,R14*%
X112187500Y-146500000D03*
X114012500Y-146500000D03*
%TD*%
M02*
