%TF.GenerationSoftware,KiCad,Pcbnew,9.0.2*%
%TF.CreationDate,2025-06-04T00:09:23+07:00*%
%TF.ProjectId,BSPD jadi 1,42535044-206a-4616-9469-20312e6b6963,rev?*%
%TF.SameCoordinates,Original*%
%TF.FileFunction,Profile,NP*%
%FSLAX46Y46*%
G04 Gerber Fmt 4.6, Leading zero omitted, Abs format (unit mm)*
G04 Created by KiCad (PCBNEW 9.0.2) date 2025-06-04 00:09:23*
%MOMM*%
%LPD*%
G01*
G04 APERTURE LIST*
%TA.AperFunction,Profile*%
%ADD10C,0.050000*%
%TD*%
G04 APERTURE END LIST*
D10*
X101512225Y-107964076D02*
G75*
G02*
X102755164Y-107969687I617939J-784769D01*
G01*
X102755773Y-133526445D02*
G75*
G02*
X101512834Y-133520834I-617939J784769D01*
G01*
X101513488Y-132581860D02*
G75*
G02*
X102756427Y-132587471I617939J-784769D01*
G01*
X102755768Y-132587471D02*
X102742584Y-108554450D01*
X101499647Y-108548839D02*
X101512781Y-132583239D01*
X102742586Y-108554450D02*
G75*
G02*
X101499647Y-108548839I-617939J784769D01*
G01*
X101500000Y-81000000D02*
X101507061Y-88715231D01*
X102750000Y-88720842D02*
X102750000Y-81000000D01*
X101509686Y-107966083D02*
X101508371Y-89279158D01*
X102751310Y-89284769D02*
X102752625Y-107969687D01*
X101507061Y-88715231D02*
G75*
G02*
X102750000Y-88720842I617939J-784769D01*
G01*
X102751310Y-89284769D02*
G75*
G02*
X101508371Y-89279158I-617939J784769D01*
G01*
X102755772Y-133526445D02*
X102750000Y-141000000D01*
X101500000Y-141000000D02*
X101512768Y-133520834D01*
X56500000Y-146000000D02*
X96500000Y-146000000D01*
X51500000Y-81000000D02*
X51500000Y-141000000D01*
X96500000Y-76000000D02*
X56500000Y-76000000D01*
X147750000Y-76000000D02*
X107750000Y-76000000D01*
X107750000Y-146000000D02*
X147750000Y-146000000D01*
X96500000Y-76000000D02*
G75*
G02*
X101500000Y-81000000I0J-5000000D01*
G01*
X101500000Y-141000000D02*
G75*
G02*
X96500000Y-146000000I-5000000J0D01*
G01*
X56500000Y-146000000D02*
G75*
G02*
X51500000Y-141000000I0J5000000D01*
G01*
X51500000Y-81000000D02*
G75*
G02*
X56500000Y-76000000I5000000J0D01*
G01*
X147750000Y-76000000D02*
G75*
G02*
X152750000Y-81000000I0J-5000000D01*
G01*
X152750000Y-141000000D02*
G75*
G02*
X147750000Y-146000000I-5000000J0D01*
G01*
X107750000Y-146000000D02*
G75*
G02*
X102750000Y-141000000I0J5000000D01*
G01*
X102750000Y-81000000D02*
G75*
G02*
X107750000Y-76000000I5000000J0D01*
G01*
X152750000Y-141000000D02*
X152750000Y-81000000D01*
M02*
