%TF.GenerationSoftware,KiCad,Pcbnew,9.0.2*%
%TF.CreationDate,2025-06-04T19:49:48+07:00*%
%TF.ProjectId,BSPD jadi 1,42535044-206a-4616-9469-20312e6b6963,rev?*%
%TF.SameCoordinates,Original*%
%TF.FileFunction,Plated,1,2,PTH,Drill*%
%TF.FilePolarity,Positive*%
%FSLAX46Y46*%
G04 Gerber Fmt 4.6, Leading zero omitted, Abs format (unit mm)*
G04 Created by KiCad (PCBNEW 9.0.2) date 2025-06-04 19:49:48*
%MOMM*%
%LPD*%
G01*
G04 APERTURE LIST*
%TA.AperFunction,ViaDrill*%
%ADD10C,0.300000*%
%TD*%
%TA.AperFunction,ViaDrill*%
%ADD11C,0.700000*%
%TD*%
%TA.AperFunction,ComponentDrill*%
%ADD12C,0.800000*%
%TD*%
%TA.AperFunction,ComponentDrill*%
%ADD13C,1.000000*%
%TD*%
%TA.AperFunction,ComponentDrill*%
%ADD14C,3.200000*%
%TD*%
G04 APERTURE END LIST*
D10*
X58987500Y-100212500D03*
X59675000Y-85300000D03*
X62750000Y-108950000D03*
X63250000Y-106050000D03*
X63500000Y-138750000D03*
X63500000Y-139500000D03*
X63500000Y-140250000D03*
X63500000Y-141000000D03*
X64000000Y-82000000D03*
X64250000Y-107640000D03*
X64250000Y-110180000D03*
X64250000Y-138750000D03*
X64250000Y-139500000D03*
X64250000Y-140250000D03*
X64250000Y-141000000D03*
X65000000Y-138750000D03*
X65000000Y-139500000D03*
X65000000Y-140250000D03*
X65000000Y-141000000D03*
X65750000Y-138750000D03*
X65750000Y-139500000D03*
X65750000Y-140250000D03*
X65750000Y-141000000D03*
X66500000Y-138750000D03*
X66500000Y-139500000D03*
X66500000Y-140250000D03*
X66500000Y-141000000D03*
X67250000Y-138750000D03*
X67250000Y-139500000D03*
X67250000Y-140250000D03*
X67250000Y-141000000D03*
X68000000Y-138750000D03*
X68000000Y-139500000D03*
X68000000Y-140250000D03*
X68000000Y-141000000D03*
X68750000Y-138750000D03*
X68750000Y-139500000D03*
X68750000Y-140250000D03*
X68750000Y-141000000D03*
X69500000Y-138750000D03*
X69500000Y-139500000D03*
X69500000Y-140250000D03*
X69500000Y-141000000D03*
X70250000Y-138750000D03*
X70250000Y-139500000D03*
X70250000Y-140250000D03*
X70250000Y-141000000D03*
X71000000Y-138750000D03*
X71000000Y-139500000D03*
X71000000Y-140250000D03*
X71000000Y-141000000D03*
X71750000Y-138750000D03*
X71750000Y-139500000D03*
X71750000Y-140250000D03*
X71750000Y-141000000D03*
X73250000Y-108910000D03*
X73500000Y-121790000D03*
X74750000Y-105500000D03*
X74750000Y-106250000D03*
X75500000Y-105500000D03*
X75500000Y-106250000D03*
X75500000Y-111250000D03*
X75500000Y-112000000D03*
X75500000Y-112750000D03*
X75500000Y-113500000D03*
X76250000Y-105500000D03*
X76250000Y-106250000D03*
X76250000Y-111250000D03*
X76250000Y-112000000D03*
X76250000Y-112750000D03*
X76250000Y-113500000D03*
X77000000Y-105500000D03*
X77000000Y-106250000D03*
X78500000Y-106000000D03*
X79000000Y-97250000D03*
X81250000Y-77750000D03*
X81250000Y-78500000D03*
X81250000Y-79250000D03*
X81250000Y-80000000D03*
X82000000Y-77750000D03*
X82000000Y-78500000D03*
X82000000Y-79250000D03*
X82000000Y-80000000D03*
X82750000Y-77750000D03*
X82750000Y-78500000D03*
X82750000Y-79250000D03*
X82750000Y-80000000D03*
X83500000Y-77750000D03*
X83500000Y-78500000D03*
X83500000Y-79250000D03*
X83500000Y-80000000D03*
X84250000Y-77750000D03*
X84250000Y-78500000D03*
X84250000Y-79250000D03*
X84250000Y-80000000D03*
X85000000Y-77750000D03*
X85000000Y-78500000D03*
X85000000Y-79250000D03*
X85000000Y-80000000D03*
X85750000Y-77750000D03*
X85750000Y-78500000D03*
X85750000Y-79250000D03*
X85750000Y-80000000D03*
X86500000Y-77750000D03*
X86500000Y-78500000D03*
X86500000Y-79250000D03*
X86500000Y-80000000D03*
X87250000Y-77750000D03*
X87250000Y-78500000D03*
X87250000Y-79250000D03*
X87250000Y-80000000D03*
X88000000Y-77750000D03*
X88000000Y-78500000D03*
X88000000Y-79250000D03*
X88000000Y-80000000D03*
X88750000Y-77750000D03*
X88750000Y-78500000D03*
X88750000Y-79250000D03*
X88750000Y-80000000D03*
X89500000Y-77750000D03*
X89500000Y-78500000D03*
X89500000Y-79250000D03*
X89500000Y-80000000D03*
X89500000Y-99000000D03*
X114487500Y-100212500D03*
X115175000Y-85300000D03*
X118250000Y-108950000D03*
X118750000Y-106050000D03*
X119000000Y-138750000D03*
X119000000Y-139500000D03*
X119000000Y-140250000D03*
X119000000Y-141000000D03*
X119500000Y-82000000D03*
X119750000Y-107640000D03*
X119750000Y-110180000D03*
X119750000Y-138750000D03*
X119750000Y-139500000D03*
X119750000Y-140250000D03*
X119750000Y-141000000D03*
X120500000Y-138750000D03*
X120500000Y-139500000D03*
X120500000Y-140250000D03*
X120500000Y-141000000D03*
X121250000Y-138750000D03*
X121250000Y-139500000D03*
X121250000Y-140250000D03*
X121250000Y-141000000D03*
X122000000Y-138750000D03*
X122000000Y-139500000D03*
X122000000Y-140250000D03*
X122000000Y-141000000D03*
X122750000Y-138750000D03*
X122750000Y-139500000D03*
X122750000Y-140250000D03*
X122750000Y-141000000D03*
X123500000Y-138750000D03*
X123500000Y-139500000D03*
X123500000Y-140250000D03*
X123500000Y-141000000D03*
X124250000Y-138750000D03*
X124250000Y-139500000D03*
X124250000Y-140250000D03*
X124250000Y-141000000D03*
X125000000Y-138750000D03*
X125000000Y-139500000D03*
X125000000Y-140250000D03*
X125000000Y-141000000D03*
X125750000Y-138750000D03*
X125750000Y-139500000D03*
X125750000Y-140250000D03*
X125750000Y-141000000D03*
X126500000Y-138750000D03*
X126500000Y-139500000D03*
X126500000Y-140250000D03*
X126500000Y-141000000D03*
X127250000Y-138750000D03*
X127250000Y-139500000D03*
X127250000Y-140250000D03*
X127250000Y-141000000D03*
X129000000Y-121790000D03*
X129850000Y-108300000D03*
X130250000Y-105500000D03*
X130250000Y-106250000D03*
X131000000Y-105500000D03*
X131000000Y-106250000D03*
X131000000Y-111250000D03*
X131000000Y-112000000D03*
X131000000Y-112750000D03*
X131000000Y-113500000D03*
X131750000Y-105500000D03*
X131750000Y-106250000D03*
X131750000Y-111250000D03*
X131750000Y-112000000D03*
X131750000Y-112750000D03*
X131750000Y-113500000D03*
X132500000Y-105500000D03*
X132500000Y-106250000D03*
X134000000Y-106000000D03*
X134500000Y-97250000D03*
X136750000Y-77750000D03*
X136750000Y-78500000D03*
X136750000Y-79250000D03*
X136750000Y-80000000D03*
X137500000Y-77750000D03*
X137500000Y-78500000D03*
X137500000Y-79250000D03*
X137500000Y-80000000D03*
X138250000Y-77750000D03*
X138250000Y-78500000D03*
X138250000Y-79250000D03*
X138250000Y-80000000D03*
X139000000Y-77750000D03*
X139000000Y-78500000D03*
X139000000Y-79250000D03*
X139000000Y-80000000D03*
X139750000Y-77750000D03*
X139750000Y-78500000D03*
X139750000Y-79250000D03*
X139750000Y-80000000D03*
X140500000Y-77750000D03*
X140500000Y-78500000D03*
X140500000Y-79250000D03*
X140500000Y-80000000D03*
X141250000Y-77750000D03*
X141250000Y-78500000D03*
X141250000Y-79250000D03*
X141250000Y-80000000D03*
X142000000Y-77750000D03*
X142000000Y-78500000D03*
X142000000Y-79250000D03*
X142000000Y-80000000D03*
X142750000Y-77750000D03*
X142750000Y-78500000D03*
X142750000Y-79250000D03*
X142750000Y-80000000D03*
X143500000Y-77750000D03*
X143500000Y-78500000D03*
X143500000Y-79250000D03*
X143500000Y-80000000D03*
X144250000Y-77750000D03*
X144250000Y-78500000D03*
X144250000Y-79250000D03*
X144250000Y-80000000D03*
X145000000Y-77750000D03*
X145000000Y-78500000D03*
X145000000Y-79250000D03*
X145000000Y-80000000D03*
X145000000Y-99000000D03*
D11*
X60000000Y-104450000D03*
X64250000Y-104500000D03*
X66750000Y-132000000D03*
X80450000Y-133550000D03*
X90750000Y-85000000D03*
X115500000Y-104450000D03*
X119750000Y-104500000D03*
X122250000Y-132000000D03*
X135950000Y-133550000D03*
X146250000Y-85000000D03*
D12*
%TO.C,BPS*%
X55970000Y-88950000D03*
%TO.C,TPS*%
X55970000Y-95350000D03*
%TO.C,BPS*%
X58510000Y-88950000D03*
%TO.C,TPS*%
X58510000Y-95350000D03*
%TO.C,BPS*%
X61050000Y-88950000D03*
%TO.C,TPS*%
X61050000Y-95350000D03*
%TO.C,BPSTH*%
X90670000Y-88500000D03*
%TO.C,TPSTH*%
X90710000Y-94500000D03*
%TO.C,BPSTH*%
X93210000Y-88500000D03*
%TO.C,TPSTH*%
X93250000Y-94500000D03*
%TO.C,BPSTH*%
X95750000Y-88500000D03*
%TO.C,TPSTH*%
X95790000Y-94500000D03*
%TO.C,BPS1*%
X107220000Y-88950000D03*
%TO.C,TPS1*%
X107220000Y-95350000D03*
%TO.C,BPS1*%
X109760000Y-88950000D03*
%TO.C,TPS1*%
X109760000Y-95350000D03*
%TO.C,BPS1*%
X112300000Y-88950000D03*
%TO.C,TPS1*%
X112300000Y-95350000D03*
%TO.C,BPSTH1*%
X141920000Y-88500000D03*
%TO.C,TPSTH1*%
X141960000Y-94500000D03*
%TO.C,BPSTH1*%
X144460000Y-88500000D03*
%TO.C,TPSTH1*%
X144500000Y-94500000D03*
%TO.C,BPSTH1*%
X147000000Y-88500000D03*
%TO.C,TPSTH1*%
X147040000Y-94500000D03*
D13*
%TO.C,J1*%
X56490000Y-106140000D03*
X56490000Y-108680000D03*
X56490000Y-111220000D03*
X56490000Y-113760000D03*
X56490000Y-116300000D03*
X56490000Y-118840000D03*
X56490000Y-121380000D03*
X56490000Y-123920000D03*
X56490000Y-126460000D03*
X56490000Y-129000000D03*
%TO.C,K2*%
X61145000Y-124635000D03*
X61145000Y-129715000D03*
X63685000Y-124635000D03*
X63685000Y-129715000D03*
X71305000Y-124635000D03*
X71305000Y-129715000D03*
%TO.C,J1*%
X107740000Y-106140000D03*
X107740000Y-108680000D03*
X107740000Y-111220000D03*
X107740000Y-113760000D03*
X107740000Y-116300000D03*
X107740000Y-118840000D03*
X107740000Y-121380000D03*
X107740000Y-123920000D03*
X107740000Y-126460000D03*
X107740000Y-129000000D03*
%TO.C,K2*%
X112395000Y-124635000D03*
X112395000Y-129715000D03*
X114935000Y-124635000D03*
X114935000Y-129715000D03*
X122555000Y-124635000D03*
X122555000Y-129715000D03*
D14*
%TO.C,H1*%
X56500000Y-81000000D03*
%TO.C,H4*%
X56500000Y-141000000D03*
%TO.C,H2*%
X96500000Y-81000000D03*
%TO.C,H3*%
X96500000Y-141000000D03*
%TO.C,H1*%
X107750000Y-81000000D03*
%TO.C,H4*%
X107750000Y-141000000D03*
%TO.C,H2*%
X147750000Y-81000000D03*
%TO.C,H3*%
X147750000Y-141000000D03*
M02*
