%TF.GenerationSoftware,KiCad,Pcbnew,9.0.2*%
%TF.CreationDate,2025-06-04T00:41:33+07:00*%
%TF.ProjectId,Torque Vectoring Board,546f7271-7565-4205-9665-63746f72696e,rev?*%
%TF.SameCoordinates,Original*%
%TF.FileFunction,Copper,L2,Bot*%
%TF.FilePolarity,Positive*%
%FSLAX46Y46*%
G04 Gerber Fmt 4.6, Leading zero omitted, Abs format (unit mm)*
G04 Created by KiCad (PCBNEW 9.0.2) date 2025-06-04 00:41:33*
%MOMM*%
%LPD*%
G01*
G04 APERTURE LIST*
G04 Aperture macros list*
%AMRoundRect*
0 Rectangle with rounded corners*
0 $1 Rounding radius*
0 $2 $3 $4 $5 $6 $7 $8 $9 X,Y pos of 4 corners*
0 Add a 4 corners polygon primitive as box body*
4,1,4,$2,$3,$4,$5,$6,$7,$8,$9,$2,$3,0*
0 Add four circle primitives for the rounded corners*
1,1,$1+$1,$2,$3*
1,1,$1+$1,$4,$5*
1,1,$1+$1,$6,$7*
1,1,$1+$1,$8,$9*
0 Add four rect primitives between the rounded corners*
20,1,$1+$1,$2,$3,$4,$5,0*
20,1,$1+$1,$4,$5,$6,$7,0*
20,1,$1+$1,$6,$7,$8,$9,0*
20,1,$1+$1,$8,$9,$2,$3,0*%
%AMFreePoly0*
4,1,22,0.945671,0.830970,1.026777,0.776777,1.080970,0.695671,1.100000,0.600000,1.100000,-0.600000,1.080970,-0.695671,1.026777,-0.776777,0.945671,-0.830970,0.850000,-0.850000,-0.596447,-0.850000,-0.692118,-0.830970,-0.773224,-0.776777,-1.026777,-0.523224,-1.080970,-0.442118,-1.100000,-0.346447,-1.100000,0.600000,-1.080970,0.695671,-1.026777,0.776777,-0.945671,0.830970,-0.850000,0.850000,
0.850000,0.850000,0.945671,0.830970,0.945671,0.830970,$1*%
G04 Aperture macros list end*
%TA.AperFunction,ComponentPad*%
%ADD10FreePoly0,90.000000*%
%TD*%
%TA.AperFunction,ComponentPad*%
%ADD11O,1.700000X2.200000*%
%TD*%
%TA.AperFunction,ComponentPad*%
%ADD12C,3.600000*%
%TD*%
%TA.AperFunction,ConnectorPad*%
%ADD13C,5.700000*%
%TD*%
%TA.AperFunction,ComponentPad*%
%ADD14C,1.524000*%
%TD*%
%TA.AperFunction,ComponentPad*%
%ADD15FreePoly0,180.000000*%
%TD*%
%TA.AperFunction,ComponentPad*%
%ADD16O,2.200000X1.700000*%
%TD*%
%TA.AperFunction,ComponentPad*%
%ADD17RoundRect,0.250000X0.600000X-0.600000X0.600000X0.600000X-0.600000X0.600000X-0.600000X-0.600000X0*%
%TD*%
%TA.AperFunction,ComponentPad*%
%ADD18C,1.700000*%
%TD*%
%TA.AperFunction,ComponentPad*%
%ADD19R,1.700000X1.700000*%
%TD*%
%TA.AperFunction,ViaPad*%
%ADD20C,0.600000*%
%TD*%
%TA.AperFunction,Conductor*%
%ADD21C,0.350000*%
%TD*%
%TA.AperFunction,Conductor*%
%ADD22C,0.508000*%
%TD*%
%TA.AperFunction,Conductor*%
%ADD23C,0.700000*%
%TD*%
G04 APERTURE END LIST*
D10*
%TO.P,J3,1,Pin_1*%
%TO.N,WS_FRo*%
X113000000Y-43000000D03*
D11*
%TO.P,J3,2,Pin_2*%
%TO.N,WS_FLo*%
X115500000Y-43000000D03*
%TD*%
D12*
%TO.P,H3,1,1*%
%TO.N,GND*%
X49000000Y-136000000D03*
D13*
X49000000Y-136000000D03*
%TD*%
D14*
%TO.P,U2,1,VCC*%
%TO.N,3V3*%
X111450000Y-128185000D03*
%TO.P,U2,2,GND*%
%TO.N,GND*%
X111450000Y-125645000D03*
%TO.P,U2,3,SCL*%
%TO.N,SCL*%
X111450000Y-123105000D03*
%TO.P,U2,4,SDA*%
%TO.N,SDA*%
X111450000Y-120565000D03*
%TO.P,U2,5,INT*%
%TO.N,unconnected-(U2-INT-Pad5)*%
X111450000Y-118025000D03*
%TO.P,U2,6,BOOT*%
%TO.N,unconnected-(U2-BOOT-Pad6)*%
X129230000Y-128185000D03*
%TO.P,U2,7,PS1*%
%TO.N,unconnected-(U2-PS1-Pad7)*%
X129230000Y-125645000D03*
%TO.P,U2,8,PS2*%
%TO.N,unconnected-(U2-PS2-Pad8)*%
X129230000Y-123105000D03*
%TO.P,U2,9,BL-IND*%
%TO.N,unconnected-(U2-BL-IND-Pad9)*%
X129230000Y-120565000D03*
%TO.P,U2,10,RST*%
%TO.N,unconnected-(U2-RST-Pad10)*%
X129230000Y-118025000D03*
%TD*%
D10*
%TO.P,12Vin1,1,Pin_1*%
%TO.N,12V*%
X65332000Y-133048000D03*
D11*
%TO.P,12Vin1,2,Pin_2*%
%TO.N,GND*%
X67832000Y-133048000D03*
%TD*%
D15*
%TO.P,5Vin1,1,Pin_1*%
%TO.N,5V*%
X138275000Y-119868000D03*
D16*
%TO.P,5Vin1,2,Pin_2*%
%TO.N,GND*%
X138275000Y-117368000D03*
%TD*%
D17*
%TO.P,J2,1,Pin_1*%
%TO.N,GND*%
X92332000Y-133048000D03*
D18*
%TO.P,J2,2,Pin_2*%
%TO.N,WS_RL*%
X94832000Y-133048000D03*
%TO.P,J2,3,Pin_3*%
%TO.N,WS_RR*%
X97332000Y-133048000D03*
%TO.P,J2,4,Pin_4*%
%TO.N,WS_FL*%
X99832000Y-133048000D03*
%TO.P,J2,5,Pin_5*%
%TO.N,WS_FR*%
X102332000Y-133048000D03*
%TO.P,J2,6,Pin_6*%
%TO.N,GND*%
X104832000Y-133048000D03*
%TO.P,J2,7,Pin_7*%
X92332000Y-130548000D03*
%TO.P,J2,8,Pin_8*%
X94832000Y-130548000D03*
%TO.P,J2,9,Pin_9*%
X97332000Y-130548000D03*
%TO.P,J2,10,Pin_10*%
%TO.N,ESC2_LO*%
X99832000Y-130548000D03*
%TO.P,J2,11,Pin_11*%
%TO.N,ESC2_HI*%
X102332000Y-130548000D03*
%TO.P,J2,12,Pin_12*%
%TO.N,GND*%
X104832000Y-130548000D03*
%TD*%
D10*
%TO.P,J4,1,Pin_1*%
%TO.N,WS_RRo*%
X123000000Y-43000000D03*
D11*
%TO.P,J4,2,Pin_2*%
%TO.N,WS_RLo*%
X125500000Y-43000000D03*
%TD*%
D19*
%TO.P,U6,1,5V*%
%TO.N,5V*%
X130556000Y-66040000D03*
D18*
%TO.P,U6,2,12V*%
%TO.N,12V*%
X130556000Y-101600000D03*
%TO.P,U6,3,RX*%
%TO.N,STM_TX*%
X104551250Y-81374914D03*
%TO.P,U6,4,TX*%
%TO.N,STM_RX*%
X104551250Y-83914914D03*
%TO.P,U6,5,WS_RR*%
%TO.N,WS_RR*%
X104551250Y-94074914D03*
%TO.P,U6,6,WS_RL*%
%TO.N,WS_RL*%
X104551250Y-96614914D03*
%TO.P,U6,7,WS_FR*%
%TO.N,WS_FR*%
X104551250Y-99154914D03*
%TO.P,U6,8,WS_FL*%
%TO.N,WS_FL*%
X104551250Y-101694914D03*
%TO.P,U6,9,WS_RL_O*%
%TO.N,WS_RLo*%
X130556000Y-86360000D03*
%TO.P,U6,10,WS_RR_O*%
%TO.N,WS_RRo*%
X130556000Y-88900000D03*
%TO.P,U6,11,WS_FR_O*%
%TO.N,WS_FRo*%
X130556000Y-91440000D03*
%TO.P,U6,12,WS_FL_O*%
%TO.N,WS_FLo*%
X130556000Y-93980000D03*
D19*
%TO.P,U6,13,SDA*%
%TO.N,SDA*%
X104551250Y-66134914D03*
D18*
%TO.P,U6,14,SCL*%
%TO.N,SCL*%
X104551250Y-68674914D03*
%TO.P,U6,15,GND*%
%TO.N,GND*%
X104551250Y-71214914D03*
X104551250Y-73754914D03*
X104551250Y-76294914D03*
X104551250Y-78834914D03*
X104551250Y-86454914D03*
X104551250Y-88994914D03*
X104551250Y-91534914D03*
X130556000Y-68580000D03*
X130556000Y-71120000D03*
X130556000Y-73660000D03*
X130556000Y-76200000D03*
X130556000Y-78740000D03*
X130556000Y-81280000D03*
X130556000Y-83820000D03*
X130556000Y-96520000D03*
X130556000Y-99060000D03*
%TD*%
D19*
%TO.P,ADDR_SELECT1,1,Pin_1*%
%TO.N,3V3*%
X92694000Y-111014000D03*
D18*
%TO.P,ADDR_SELECT1,2,Pin_2*%
%TO.N,ADDR*%
X95234000Y-111014000D03*
%TO.P,ADDR_SELECT1,3,Pin_3*%
%TO.N,GND*%
X97774000Y-111014000D03*
%TD*%
D12*
%TO.P,H2,1,1*%
%TO.N,GND*%
X138000000Y-38000000D03*
D13*
X138000000Y-38000000D03*
%TD*%
D17*
%TO.P,J1,1,Pin_1*%
%TO.N,SCK*%
X73332000Y-133048000D03*
D18*
%TO.P,J1,2,Pin_2*%
%TO.N,MISO*%
X75832000Y-133048000D03*
%TO.P,J1,3,Pin_3*%
%TO.N,MOSI*%
X78332000Y-133048000D03*
%TO.P,J1,4,Pin_4*%
%TO.N,SS*%
X80832000Y-133048000D03*
%TO.P,J1,5,Pin_5*%
%TO.N,STM_TX_2*%
X83332000Y-133048000D03*
%TO.P,J1,6,Pin_6*%
%TO.N,STM_RX_2*%
X85832000Y-133048000D03*
%TO.P,J1,7,Pin_7*%
%TO.N,GND*%
X73332000Y-130548000D03*
%TO.P,J1,8,Pin_8*%
%TO.N,ESC1_LO*%
X75832000Y-130548000D03*
%TO.P,J1,9,Pin_9*%
%TO.N,ESC1_HI*%
X78332000Y-130548000D03*
%TO.P,J1,10,Pin_10*%
%TO.N,STEER_IN*%
X80832000Y-130548000D03*
%TO.P,J1,11,Pin_11*%
%TO.N,APPS_IN2*%
X83332000Y-130548000D03*
%TO.P,J1,12,Pin_12*%
%TO.N,APPS_IN1*%
X85832000Y-130548000D03*
%TD*%
D12*
%TO.P,H1,1,1*%
%TO.N,GND*%
X49000000Y-38000000D03*
D13*
X49000000Y-38000000D03*
%TD*%
D12*
%TO.P,H4,1,1*%
%TO.N,GND*%
X138000000Y-136000000D03*
D13*
X138000000Y-136000000D03*
%TD*%
D19*
%TO.P,U1,1,5V*%
%TO.N,5V*%
X93472000Y-99060000D03*
D18*
%TO.P,U1,2,5V*%
X90932000Y-99060000D03*
%TO.P,U1,3,3V3*%
%TO.N,3V3*%
X93472000Y-96520000D03*
%TO.P,U1,4,3V3*%
X90932000Y-96520000D03*
%TO.P,U1,5,GND*%
%TO.N,GND*%
X93472000Y-93980000D03*
%TO.P,U1,6,GND*%
X90932000Y-93980000D03*
%TO.P,U1,7,PD9*%
%TO.N,unconnected-(U1-PD9-Pad7)*%
X93472000Y-91440000D03*
%TO.P,U1,8,PD8*%
%TO.N,unconnected-(U1-PD8-Pad8)*%
X90932000Y-91440000D03*
%TO.P,U1,9,PD11*%
%TO.N,unconnected-(U1-PD11-Pad9)*%
X93472000Y-88900000D03*
%TO.P,U1,10,PD10*%
%TO.N,unconnected-(U1-PD10-Pad10)*%
X90932000Y-88900000D03*
%TO.P,U1,11,PD13*%
%TO.N,unconnected-(U1-PD13-Pad11)*%
X93472000Y-86360000D03*
%TO.P,U1,12,PD12*%
%TO.N,unconnected-(U1-PD12-Pad12)*%
X90932000Y-86360000D03*
%TO.P,U1,13,PD15*%
%TO.N,unconnected-(U1-PD15-Pad13)*%
X93472000Y-83820000D03*
%TO.P,U1,14,PD14*%
%TO.N,unconnected-(U1-PD14-Pad14)*%
X90932000Y-83820000D03*
%TO.P,U1,15,PC7*%
%TO.N,unconnected-(U1-PC7-Pad15)*%
X93472000Y-81280000D03*
%TO.P,U1,16,PC6*%
%TO.N,unconnected-(U1-PC6-Pad16)*%
X90932000Y-81280000D03*
%TO.P,U1,17,PC9*%
%TO.N,unconnected-(U1-PC9-Pad17)*%
X93472000Y-78740000D03*
%TO.P,U1,18,PC8*%
%TO.N,unconnected-(U1-PC8-Pad18)*%
X90932000Y-78740000D03*
%TO.P,U1,19,PA9/TXD1*%
%TO.N,unconnected-(U1-PA9{slash}TXD1-Pad19)*%
X93472000Y-76200000D03*
%TO.P,U1,20,PA8*%
%TO.N,unconnected-(U1-PA8-Pad20)*%
X90932000Y-76200000D03*
%TO.P,U1,21,PA11/USBM*%
%TO.N,CAN1_RX*%
X93472000Y-73660000D03*
%TO.P,U1,22,PA10/RXD1*%
%TO.N,unconnected-(U1-PA10{slash}RXD1-Pad22)*%
X90932000Y-73660000D03*
%TO.P,U1,23,PA15*%
%TO.N,unconnected-(U1-PA15-Pad23)*%
X93472000Y-71120000D03*
%TO.P,U1,24,PA12/USB_DP*%
%TO.N,CAN1_TX*%
X90932000Y-71120000D03*
%TO.P,U1,25,PC11*%
%TO.N,unconnected-(U1-PC11-Pad25)*%
X93472000Y-68580000D03*
%TO.P,U1,26,PC10*%
%TO.N,unconnected-(U1-PC10-Pad26)*%
X90932000Y-68580000D03*
%TO.P,U1,27,PD0*%
%TO.N,unconnected-(U1-PD0-Pad27)*%
X93472000Y-66040000D03*
%TO.P,U1,28,PC12*%
%TO.N,STM_TX_2*%
X90932000Y-66040000D03*
%TO.P,U1,29,PD2*%
%TO.N,STM_RX_2*%
X93472000Y-63500000D03*
%TO.P,U1,30,PD1*%
%TO.N,unconnected-(U1-PD1-Pad30)*%
X90932000Y-63500000D03*
%TO.P,U1,31,PD4*%
%TO.N,unconnected-(U1-PD4-Pad31)*%
X93472000Y-60960000D03*
%TO.P,U1,32,PD3*%
%TO.N,unconnected-(U1-PD3-Pad32)*%
X90932000Y-60960000D03*
%TO.P,U1,33,PD6*%
%TO.N,unconnected-(U1-PD6-Pad33)*%
X93472000Y-58420000D03*
%TO.P,U1,34,PD5*%
%TO.N,unconnected-(U1-PD5-Pad34)*%
X90932000Y-58420000D03*
%TO.P,U1,35,PB3*%
%TO.N,WS_RLo*%
X93472000Y-55880000D03*
%TO.P,U1,36,PD7*%
%TO.N,MOSI*%
X90932000Y-55880000D03*
%TO.P,U1,37,PB5*%
%TO.N,WS_RRo*%
X93472000Y-53340000D03*
%TO.P,U1,38,PB4*%
%TO.N,MISO*%
X90932000Y-53340000D03*
%TO.P,U1,39,PB7*%
%TO.N,SDA*%
X93472000Y-50800000D03*
%TO.P,U1,40,PB6*%
%TO.N,SCL*%
X90932000Y-50800000D03*
%TO.P,U1,41,PB9*%
%TO.N,WS_FLo*%
X93472000Y-48260000D03*
%TO.P,U1,42,PB8*%
%TO.N,unconnected-(U1-PB8-Pad42)*%
X90932000Y-48260000D03*
%TO.P,U1,43,PE1*%
%TO.N,WS_FRo*%
X93472000Y-45720000D03*
%TO.P,U1,44,PE0*%
%TO.N,unconnected-(U1-PE0-Pad44)*%
X90932000Y-45720000D03*
D19*
%TO.P,U1,45,3V3*%
%TO.N,unconnected-(U1-3V3-Pad45)*%
X57912000Y-99060000D03*
D18*
%TO.P,U1,46,3V3*%
%TO.N,unconnected-(U1-3V3-Pad46)*%
X55372000Y-99060000D03*
%TO.P,U1,47,GND*%
%TO.N,unconnected-(U1-GND-Pad47)*%
X57912000Y-96520000D03*
%TO.P,U1,48,GND*%
%TO.N,unconnected-(U1-GND-Pad48)*%
X55372000Y-96520000D03*
%TO.P,U1,49,VDDA*%
%TO.N,unconnected-(U1-VDDA-Pad49)*%
X57912000Y-93980000D03*
%TO.P,U1,50,VREF+*%
%TO.N,unconnected-(U1-VREF+-Pad50)*%
X55372000Y-93980000D03*
%TO.P,U1,51,PB15*%
%TO.N,unconnected-(U1-PB15-Pad51)*%
X57912000Y-91440000D03*
%TO.P,U1,52,PB14*%
%TO.N,unconnected-(U1-PB14-Pad52)*%
X55372000Y-91440000D03*
%TO.P,U1,53,PB13*%
%TO.N,CAN2_TX*%
X57912000Y-88900000D03*
%TO.P,U1,54,PB12*%
%TO.N,CAN2_RX*%
X55372000Y-88900000D03*
%TO.P,U1,55,PB11*%
%TO.N,unconnected-(U1-PB11-Pad55)*%
X57912000Y-86360000D03*
%TO.P,U1,56,PB10*%
%TO.N,unconnected-(U1-PB10-Pad56)*%
X55372000Y-86360000D03*
%TO.P,U1,57,PE15*%
%TO.N,unconnected-(U1-PE15-Pad57)*%
X57912000Y-83820000D03*
%TO.P,U1,58,PE14*%
%TO.N,unconnected-(U1-PE14-Pad58)*%
X55372000Y-83820000D03*
%TO.P,U1,59,PE13*%
%TO.N,unconnected-(U1-PE13-Pad59)*%
X57912000Y-81280000D03*
%TO.P,U1,60,PE12*%
%TO.N,unconnected-(U1-PE12-Pad60)*%
X55372000Y-81280000D03*
%TO.P,U1,61,PE11*%
%TO.N,unconnected-(U1-PE11-Pad61)*%
X57912000Y-78740000D03*
%TO.P,U1,62,PE10*%
%TO.N,unconnected-(U1-PE10-Pad62)*%
X55372000Y-78740000D03*
%TO.P,U1,63,PE9*%
%TO.N,unconnected-(U1-PE9-Pad63)*%
X57912000Y-76200000D03*
%TO.P,U1,64,PE8*%
%TO.N,unconnected-(U1-PE8-Pad64)*%
X55372000Y-76200000D03*
%TO.P,U1,65,PE7*%
%TO.N,unconnected-(U1-PE7-Pad65)*%
X57912000Y-73660000D03*
%TO.P,U1,66,PB2*%
%TO.N,unconnected-(U1-PB2-Pad66)*%
X55372000Y-73660000D03*
%TO.P,U1,67,PB1*%
%TO.N,unconnected-(U1-PB1-Pad67)*%
X57912000Y-71120000D03*
%TO.P,U1,68,PB0*%
%TO.N,unconnected-(U1-PB0-Pad68)*%
X55372000Y-71120000D03*
%TO.P,U1,69,PC5*%
%TO.N,unconnected-(U1-PC5-Pad69)*%
X57912000Y-68580000D03*
%TO.P,U1,70,PC4*%
%TO.N,unconnected-(U1-PC4-Pad70)*%
X55372000Y-68580000D03*
%TO.P,U1,71,PA7*%
%TO.N,unconnected-(U1-PA7-Pad71)*%
X57912000Y-66040000D03*
%TO.P,U1,72,PA6*%
%TO.N,unconnected-(U1-PA6-Pad72)*%
X55372000Y-66040000D03*
%TO.P,U1,73,PA5*%
%TO.N,SCK*%
X57912000Y-63500000D03*
%TO.P,U1,74,PA4*%
%TO.N,SS*%
X55372000Y-63500000D03*
%TO.P,U1,75,PA3*%
%TO.N,unconnected-(U1-PA3-Pad75)*%
X57912000Y-60960000D03*
%TO.P,U1,76,PA2*%
%TO.N,unconnected-(U1-PA2-Pad76)*%
X55372000Y-60960000D03*
%TO.P,U1,77,PA1*%
%TO.N,STM_RX*%
X57912000Y-58420000D03*
%TO.P,U1,78,PA0*%
%TO.N,STM_TX*%
X55372000Y-58420000D03*
%TO.P,U1,79,PC3*%
%TO.N,unconnected-(U1-PC3-Pad79)*%
X57912000Y-55880000D03*
%TO.P,U1,80,PC2*%
%TO.N,unconnected-(U1-PC2-Pad80)*%
X55372000Y-55880000D03*
%TO.P,U1,81,PC1*%
%TO.N,unconnected-(U1-PC1-Pad81)*%
X57912000Y-53340000D03*
%TO.P,U1,82,PC0*%
%TO.N,unconnected-(U1-PC0-Pad82)*%
X55372000Y-53340000D03*
%TO.P,U1,83,PC13*%
%TO.N,unconnected-(U1-PC13-Pad83)*%
X57912000Y-50800000D03*
%TO.P,U1,84,PE6*%
%TO.N,unconnected-(U1-PE6-Pad84)*%
X55372000Y-50800000D03*
%TO.P,U1,85,PE5*%
%TO.N,unconnected-(U1-PE5-Pad85)*%
X57912000Y-48260000D03*
%TO.P,U1,86,PE4*%
%TO.N,unconnected-(U1-PE4-Pad86)*%
X55372000Y-48260000D03*
%TO.P,U1,87,PE3*%
%TO.N,unconnected-(U1-PE3-Pad87)*%
X57912000Y-45720000D03*
%TO.P,U1,88,PE2*%
%TO.N,unconnected-(U1-PE2-Pad88)*%
X55372000Y-45720000D03*
%TD*%
D20*
%TO.N,GND*%
X56000000Y-113000000D03*
X115500000Y-82500000D03*
X75500000Y-45500000D03*
X120500000Y-79500000D03*
X120500000Y-73500000D03*
X115000000Y-96500000D03*
X125000000Y-72000000D03*
X120500000Y-49000000D03*
X114500000Y-93000000D03*
X115500000Y-66000000D03*
X97028000Y-122428000D03*
X76500000Y-45500000D03*
X121500000Y-85500000D03*
X120500000Y-61500000D03*
X79947640Y-139149423D03*
X94000000Y-120500000D03*
X125500000Y-84000000D03*
X120500000Y-58500000D03*
X62500000Y-131000000D03*
X74000000Y-55500000D03*
X120500000Y-81000000D03*
X92511631Y-120500178D03*
X125000000Y-63000000D03*
X55000000Y-122000000D03*
X98500000Y-109000000D03*
X101750000Y-61000000D03*
X84000000Y-124000000D03*
X125000000Y-61500000D03*
X118000000Y-88000000D03*
X125000000Y-76500000D03*
X56000000Y-111500000D03*
X94000000Y-121500000D03*
X115500000Y-84000000D03*
X73500000Y-125500000D03*
X54500000Y-113000000D03*
X124500000Y-88500000D03*
X72000000Y-125500000D03*
X125000000Y-81000000D03*
X120500000Y-57000000D03*
X60500000Y-140000000D03*
X88870036Y-125696598D03*
X115500000Y-75000000D03*
X120500000Y-70500000D03*
X120500000Y-82500000D03*
X102362000Y-127508000D03*
X79947640Y-140149423D03*
X115500000Y-47500000D03*
X125000000Y-69000000D03*
X115500000Y-81000000D03*
X115500000Y-70500000D03*
X120500000Y-69000000D03*
X116000000Y-98000000D03*
X75000000Y-55500000D03*
X100500000Y-110500000D03*
X115500000Y-69000000D03*
X71866000Y-117872000D03*
X65500000Y-123500000D03*
X120500000Y-53500000D03*
X116000000Y-101000000D03*
X117000000Y-87000000D03*
X116000000Y-86000000D03*
X115500000Y-73500000D03*
X102500000Y-42000000D03*
X92511631Y-121500178D03*
X115500000Y-78000000D03*
X61500000Y-92000000D03*
X115500000Y-94000000D03*
X120500000Y-72000000D03*
X65500000Y-125000000D03*
X78947640Y-140149423D03*
X57500000Y-126500000D03*
X121000000Y-91000000D03*
X125000000Y-57000000D03*
X120500000Y-50500000D03*
X125000000Y-66000000D03*
X120500000Y-84000000D03*
X120500000Y-76500000D03*
X115500000Y-63000000D03*
X97000000Y-41500000D03*
X61000000Y-131000000D03*
X125000000Y-73500000D03*
X125000000Y-78000000D03*
X73136000Y-117872000D03*
X57000000Y-125000000D03*
X61500000Y-140000000D03*
X120500000Y-75000000D03*
X125000000Y-67500000D03*
X120500000Y-60000000D03*
X125500000Y-89500000D03*
X84000000Y-125000000D03*
X125000000Y-79500000D03*
X115500000Y-72000000D03*
X56500000Y-120500000D03*
X101500000Y-40000000D03*
X115500000Y-61500000D03*
X120500000Y-67500000D03*
X98000000Y-42500000D03*
X125000000Y-75000000D03*
X98000000Y-61000000D03*
X75500000Y-46500000D03*
X115500000Y-76500000D03*
X98000000Y-59000000D03*
X116000000Y-99500000D03*
X125000000Y-60000000D03*
X54500000Y-111500000D03*
X97167948Y-126404073D03*
X115500000Y-60000000D03*
X123500000Y-87500000D03*
X115500000Y-58500000D03*
X120500000Y-52000000D03*
X115500000Y-49000000D03*
X122500000Y-86500000D03*
X125000000Y-82500000D03*
X125000000Y-64500000D03*
X56500000Y-122000000D03*
X56500000Y-123500000D03*
X56000000Y-126500000D03*
X122000000Y-92000000D03*
X67000000Y-125000000D03*
X70596000Y-117872000D03*
X98516369Y-122427822D03*
X61000000Y-130000000D03*
X120500000Y-64500000D03*
X69326000Y-117872000D03*
X115500000Y-53500000D03*
X67000000Y-123500000D03*
X60500000Y-139000000D03*
X55000000Y-120500000D03*
X61500000Y-90500000D03*
X120500000Y-66000000D03*
X114500000Y-95000000D03*
X75000000Y-54500000D03*
X120500000Y-47500000D03*
X62500000Y-130000000D03*
X115500000Y-50500000D03*
X101750000Y-59000000D03*
X72000000Y-124000000D03*
X55000000Y-123500000D03*
X119000000Y-89000000D03*
X88900000Y-124460000D03*
X74152000Y-117872000D03*
X115500000Y-79500000D03*
X115500000Y-64500000D03*
X125000000Y-58500000D03*
X60000000Y-90500000D03*
X73500000Y-124000000D03*
X60000000Y-92000000D03*
X120500000Y-46000000D03*
X97012000Y-125492000D03*
X125000000Y-70500000D03*
X115500000Y-57000000D03*
X55500000Y-125000000D03*
X115500000Y-52000000D03*
X120500000Y-63000000D03*
X120500000Y-78000000D03*
X120000000Y-90000000D03*
X97846809Y-125828517D03*
X101000000Y-109500000D03*
X115500000Y-67500000D03*
%TO.N,STM_RX*%
X99060000Y-41910000D03*
X99060000Y-60750000D03*
%TO.N,5V*%
X86868000Y-99060000D03*
%TO.N,STM_TX*%
X100584000Y-60750000D03*
X100584000Y-41910000D03*
%TO.N,Net-(U3-Rs)*%
X57896000Y-118888000D03*
X56880000Y-117364000D03*
%TO.N,3V3*%
X106500000Y-108000000D03*
X93202000Y-117872000D03*
%TO.N,STM_RX_2*%
X99568000Y-109728000D03*
%TO.N,CAN1_TX*%
X91186000Y-113284000D03*
%TO.N,SCL*%
X109204000Y-119142000D03*
%TO.N,ESC2_HI*%
X101076000Y-121174000D03*
%TO.N,ESC2_LO*%
X99806000Y-121428000D03*
%TO.N,WS_RR*%
X114500000Y-94000000D03*
%TD*%
D21*
%TO.N,WS_FL*%
X102194914Y-101694914D02*
X104551250Y-101694914D01*
X101750000Y-98500000D02*
X101750000Y-101250000D01*
X102357662Y-97892338D02*
X101750000Y-98500000D01*
X108814338Y-97892338D02*
X102357662Y-97892338D01*
X114500000Y-136500000D02*
X117856000Y-133144000D01*
X117856000Y-109356000D02*
X114300000Y-105800000D01*
X101750000Y-101250000D02*
X102194914Y-101694914D01*
X100500000Y-136500000D02*
X114500000Y-136500000D01*
X117856000Y-133144000D02*
X117856000Y-109356000D01*
X99832000Y-135832000D02*
X100500000Y-136500000D01*
X114300000Y-103378000D02*
X108814338Y-97892338D01*
X99832000Y-133048000D02*
X99832000Y-135832000D01*
X114300000Y-105800000D02*
X114300000Y-103378000D01*
D22*
%TO.N,WS_FR*%
X107154914Y-99154914D02*
X104551250Y-99154914D01*
X111506000Y-103506000D02*
X107154914Y-99154914D01*
X113268000Y-133732000D02*
X113268000Y-115078000D01*
X104284000Y-135000000D02*
X112000000Y-135000000D01*
X112000000Y-135000000D02*
X113268000Y-133732000D01*
X111506000Y-113316000D02*
X111506000Y-103506000D01*
X102332000Y-133048000D02*
X104284000Y-135000000D01*
X113268000Y-115078000D02*
X111506000Y-113316000D01*
%TO.N,GND*%
X130556000Y-99060000D02*
X130556000Y-96520000D01*
X130556000Y-68580000D02*
X130556000Y-83820000D01*
X104551250Y-91534914D02*
X104551250Y-86454914D01*
%TO.N,12V*%
X76500000Y-47960000D02*
X80599005Y-43860995D01*
X130750000Y-39500000D02*
X136398000Y-45148000D01*
X107149990Y-39500000D02*
X130750000Y-39500000D01*
X136398000Y-45148000D02*
X136398000Y-99060000D01*
X102788995Y-43860995D02*
X107149990Y-39500000D01*
X67691000Y-126380079D02*
X65332000Y-128739079D01*
X65332000Y-128739079D02*
X65332000Y-133048000D01*
X67564000Y-126492000D02*
X67691000Y-126365000D01*
X133858000Y-101600000D02*
X130556000Y-101600000D01*
X80599005Y-43860995D02*
X102788995Y-43860995D01*
X136398000Y-99060000D02*
X133858000Y-101600000D01*
X76500000Y-117556000D02*
X76500000Y-47960000D01*
X67691000Y-126365000D02*
X76500000Y-117556000D01*
X67691000Y-126365000D02*
X67691000Y-126380079D01*
D21*
%TO.N,STM_RX*%
X99060000Y-60750000D02*
X99060000Y-78423664D01*
X73914000Y-53848000D02*
X73914000Y-41402000D01*
X73914000Y-41402000D02*
X76708000Y-38608000D01*
X76708000Y-38608000D02*
X95758000Y-38608000D01*
X59690000Y-56642000D02*
X71120000Y-56642000D01*
X99060000Y-78423664D02*
X104551250Y-83914914D01*
X95758000Y-38608000D02*
X99060000Y-41910000D01*
X71120000Y-56642000D02*
X73914000Y-53848000D01*
X57912000Y-58420000D02*
X59690000Y-56642000D01*
D23*
%TO.N,5V*%
X126746000Y-111760000D02*
X134854000Y-119868000D01*
X86868000Y-99060000D02*
X90932000Y-99060000D01*
X126746000Y-69850000D02*
X126746000Y-111760000D01*
X130556000Y-66040000D02*
X126746000Y-69850000D01*
X134854000Y-119868000D02*
X138275000Y-119868000D01*
D22*
X90932000Y-99060000D02*
X93472000Y-99060000D01*
D21*
%TO.N,STM_TX*%
X53340000Y-40132000D02*
X55880000Y-37592000D01*
X100584000Y-40906466D02*
X100584000Y-41910000D01*
X55372000Y-58420000D02*
X53340000Y-56388000D01*
X97269534Y-37592000D02*
X100584000Y-40906466D01*
X100584000Y-60750000D02*
X100584000Y-77407664D01*
X53340000Y-44450000D02*
X53340000Y-40132000D01*
X55880000Y-37592000D02*
X97269534Y-37592000D01*
X53340000Y-56388000D02*
X53340000Y-44450000D01*
X100584000Y-77407664D02*
X104551250Y-81374914D01*
%TO.N,Net-(U3-Rs)*%
X57896000Y-118380000D02*
X56880000Y-117364000D01*
X57896000Y-118888000D02*
X57896000Y-118380000D01*
D22*
%TO.N,3V3*%
X109103000Y-128185000D02*
X111450000Y-128185000D01*
X92694000Y-109490000D02*
X94472000Y-107712000D01*
X92694000Y-111014000D02*
X92694000Y-109490000D01*
X107172000Y-107712000D02*
X108188000Y-108728000D01*
X108188000Y-108728000D02*
X108188000Y-127270000D01*
X94472000Y-107712000D02*
X107172000Y-107712000D01*
X108188000Y-127270000D02*
X109103000Y-128185000D01*
D21*
X93710000Y-117364000D02*
X93710000Y-112030000D01*
X93202000Y-117872000D02*
X93710000Y-117364000D01*
X93710000Y-112030000D02*
X92694000Y-111014000D01*
%TO.N,STM_RX_2*%
X96091441Y-127841441D02*
X96091441Y-115141441D01*
X95916883Y-128016000D02*
X96091441Y-127841441D01*
X90864000Y-128016000D02*
X95916883Y-128016000D01*
X99568000Y-109728000D02*
X100076000Y-109220000D01*
X96091441Y-115141441D02*
X98202882Y-113030000D01*
X98202882Y-113030000D02*
X99568000Y-113030000D01*
X85832000Y-133048000D02*
X90864000Y-128016000D01*
X99568000Y-113030000D02*
X99568000Y-109728000D01*
D22*
%TO.N,CAN1_TX*%
X88880000Y-71120000D02*
X90932000Y-71120000D01*
X91186000Y-113284000D02*
X85600000Y-107698000D01*
X85600000Y-107698000D02*
X85600000Y-74400000D01*
X85600000Y-74400000D02*
X88880000Y-71120000D01*
D21*
%TO.N,STM_TX_2*%
X87460000Y-66040000D02*
X90932000Y-66040000D01*
X82173715Y-128326285D02*
X82969787Y-127530213D01*
X82969787Y-70530213D02*
X87460000Y-66040000D01*
X83332000Y-133048000D02*
X82173715Y-131889715D01*
X82173715Y-131889715D02*
X82173715Y-128326285D01*
X82969787Y-127530213D02*
X82969787Y-70530213D01*
%TO.N,MISO*%
X88138000Y-53340000D02*
X90932000Y-53340000D01*
X74706000Y-123468000D02*
X78000000Y-120174000D01*
X78000000Y-63478000D02*
X88138000Y-53340000D01*
X75832000Y-133048000D02*
X74706000Y-131922000D01*
X78000000Y-120174000D02*
X78000000Y-63478000D01*
X74706000Y-131922000D02*
X74706000Y-123468000D01*
%TO.N,MOSI*%
X80744276Y-65755724D02*
X90620000Y-55880000D01*
X77206000Y-126294000D02*
X80744276Y-122755724D01*
X78332000Y-133048000D02*
X77206000Y-131922000D01*
X90620000Y-55880000D02*
X90932000Y-55880000D01*
X80744276Y-122755724D02*
X80744276Y-65755724D01*
X77206000Y-131922000D02*
X77206000Y-126294000D01*
%TO.N,SCL*%
X109204000Y-119142000D02*
X109204000Y-122444000D01*
X109204000Y-122444000D02*
X109865000Y-123105000D01*
X109865000Y-123105000D02*
X111450000Y-123105000D01*
D22*
%TO.N,ESC2_HI*%
X101076000Y-129292000D02*
X102332000Y-130548000D01*
X101076000Y-121174000D02*
X101076000Y-129292000D01*
%TO.N,ESC2_LO*%
X99832000Y-121454000D02*
X99806000Y-121428000D01*
X99832000Y-130548000D02*
X99832000Y-121454000D01*
D21*
%TO.N,WS_RR*%
X114425086Y-94074914D02*
X104551250Y-94074914D01*
X114500000Y-94000000D02*
X114425086Y-94074914D01*
%TO.N,WS_RL*%
X97554493Y-137940493D02*
X94832000Y-135218000D01*
X119888000Y-106172000D02*
X119888000Y-136824000D01*
X104551250Y-96614914D02*
X110330914Y-96614914D01*
X119888000Y-136824000D02*
X118771507Y-137940493D01*
X118771507Y-137940493D02*
X97554493Y-137940493D01*
X110330914Y-96614914D02*
X119888000Y-106172000D01*
X94832000Y-135218000D02*
X94832000Y-133048000D01*
D22*
%TO.N,WS_FRo*%
X110280000Y-45720000D02*
X93472000Y-45720000D01*
X113000000Y-43000000D02*
X110280000Y-45720000D01*
%TO.N,WS_FLo*%
X93472000Y-48260000D02*
X112313690Y-48260000D01*
X112313690Y-48260000D02*
X115500000Y-45073690D01*
X115500000Y-45073690D02*
X115500000Y-43000000D01*
%TO.N,WS_RLo*%
X125500000Y-43000000D02*
X125500000Y-53630000D01*
X125500000Y-53630000D02*
X123250000Y-55880000D01*
X123250000Y-55880000D02*
X93472000Y-55880000D01*
%TO.N,WS_RRo*%
X120750000Y-54500000D02*
X123000000Y-52250000D01*
X93472000Y-53340000D02*
X94632000Y-54500000D01*
X94632000Y-54500000D02*
X120750000Y-54500000D01*
X123000000Y-52250000D02*
X123000000Y-43000000D01*
%TD*%
%TA.AperFunction,Conductor*%
%TO.N,GND*%
G36*
X89757327Y-66735185D02*
G01*
X89790606Y-66766615D01*
X89901890Y-66919785D01*
X89901894Y-66919790D01*
X90052213Y-67070109D01*
X90224182Y-67195050D01*
X90232946Y-67199516D01*
X90283742Y-67247491D01*
X90300536Y-67315312D01*
X90277998Y-67381447D01*
X90232946Y-67420484D01*
X90224182Y-67424949D01*
X90052213Y-67549890D01*
X89901890Y-67700213D01*
X89776951Y-67872179D01*
X89680444Y-68061585D01*
X89614753Y-68263760D01*
X89581500Y-68473713D01*
X89581500Y-68686287D01*
X89614754Y-68896243D01*
X89645592Y-68991153D01*
X89680444Y-69098414D01*
X89776951Y-69287820D01*
X89901890Y-69459786D01*
X90052213Y-69610109D01*
X90224182Y-69735050D01*
X90232946Y-69739516D01*
X90283742Y-69787491D01*
X90300536Y-69855312D01*
X90277998Y-69921447D01*
X90232946Y-69960484D01*
X90224182Y-69964949D01*
X90052213Y-70089890D01*
X89901896Y-70240207D01*
X89848004Y-70314385D01*
X89792674Y-70357051D01*
X89747685Y-70365500D01*
X88805683Y-70365500D01*
X88659927Y-70394493D01*
X88659919Y-70394495D01*
X88522608Y-70451371D01*
X88399035Y-70533939D01*
X88399034Y-70533940D01*
X88346488Y-70586487D01*
X88293941Y-70639034D01*
X88293939Y-70639036D01*
X85013943Y-73919030D01*
X85013942Y-73919031D01*
X84931369Y-74042612D01*
X84898054Y-74123040D01*
X84898055Y-74123041D01*
X84893556Y-74133905D01*
X84893552Y-74133914D01*
X84874494Y-74179922D01*
X84874493Y-74179926D01*
X84845499Y-74325685D01*
X84845499Y-74480425D01*
X84845500Y-74480446D01*
X84845500Y-107618552D01*
X84845499Y-107618578D01*
X84845499Y-107623688D01*
X84845499Y-107772312D01*
X84845499Y-107772314D01*
X84845498Y-107772314D01*
X84874493Y-107918073D01*
X84874496Y-107918083D01*
X84931366Y-108055381D01*
X84931372Y-108055392D01*
X85013942Y-108178968D01*
X85013943Y-108178969D01*
X90443927Y-113608952D01*
X90470806Y-113649178D01*
X90476603Y-113663172D01*
X90476606Y-113663178D01*
X90476609Y-113663185D01*
X90564210Y-113794288D01*
X90564213Y-113794292D01*
X90675707Y-113905786D01*
X90675711Y-113905789D01*
X90806814Y-113993390D01*
X90806827Y-113993397D01*
X90952498Y-114053735D01*
X90952503Y-114053737D01*
X91107153Y-114084499D01*
X91107156Y-114084500D01*
X91107158Y-114084500D01*
X91264844Y-114084500D01*
X91264845Y-114084499D01*
X91419497Y-114053737D01*
X91565179Y-113993394D01*
X91696289Y-113905789D01*
X91807789Y-113794289D01*
X91895394Y-113663179D01*
X91955737Y-113517497D01*
X91986500Y-113362842D01*
X91986500Y-113205158D01*
X91986500Y-113205155D01*
X91986499Y-113205153D01*
X91964893Y-113096533D01*
X91955737Y-113050503D01*
X91914983Y-112952113D01*
X91895397Y-112904827D01*
X91895390Y-112904814D01*
X91807789Y-112773711D01*
X91807786Y-112773707D01*
X91696292Y-112662213D01*
X91696288Y-112662210D01*
X91565185Y-112574609D01*
X91565180Y-112574607D01*
X91565179Y-112574606D01*
X91551178Y-112568806D01*
X91544246Y-112564174D01*
X91539206Y-112563078D01*
X91510952Y-112541927D01*
X91486650Y-112517625D01*
X91453165Y-112456302D01*
X91458149Y-112386610D01*
X91500021Y-112330677D01*
X91565485Y-112306260D01*
X91617664Y-112313762D01*
X91736517Y-112358091D01*
X91736516Y-112358091D01*
X91743444Y-112358835D01*
X91796127Y-112364500D01*
X92910500Y-112364499D01*
X92977539Y-112384184D01*
X93023294Y-112436987D01*
X93034500Y-112488499D01*
X93034500Y-116992072D01*
X93014815Y-117059111D01*
X92962011Y-117104866D01*
X92957952Y-117106633D01*
X92822827Y-117162602D01*
X92822814Y-117162609D01*
X92691711Y-117250210D01*
X92691707Y-117250213D01*
X92580213Y-117361707D01*
X92580210Y-117361711D01*
X92492609Y-117492814D01*
X92492602Y-117492827D01*
X92432264Y-117638498D01*
X92432261Y-117638510D01*
X92401500Y-117793153D01*
X92401500Y-117950846D01*
X92432261Y-118105489D01*
X92432264Y-118105501D01*
X92492602Y-118251172D01*
X92492609Y-118251185D01*
X92580210Y-118382288D01*
X92580213Y-118382292D01*
X92691707Y-118493786D01*
X92691711Y-118493789D01*
X92822814Y-118581390D01*
X92822827Y-118581397D01*
X92896964Y-118612105D01*
X92968503Y-118641737D01*
X93123153Y-118672499D01*
X93123156Y-118672500D01*
X93123158Y-118672500D01*
X93280844Y-118672500D01*
X93280845Y-118672499D01*
X93435497Y-118641737D01*
X93581179Y-118581394D01*
X93712289Y-118493789D01*
X93823789Y-118382289D01*
X93911394Y-118251179D01*
X93971737Y-118105497D01*
X93976300Y-118082552D01*
X94008685Y-118020643D01*
X94010237Y-118019063D01*
X94103661Y-117925639D01*
X94234695Y-117794606D01*
X94245344Y-117778669D01*
X94308620Y-117683969D01*
X94359540Y-117561036D01*
X94373111Y-117492814D01*
X94385500Y-117430533D01*
X94385500Y-112299718D01*
X94405185Y-112232679D01*
X94457989Y-112186924D01*
X94527147Y-112176980D01*
X94565790Y-112189231D01*
X94715588Y-112265557D01*
X94917757Y-112331246D01*
X95127713Y-112364500D01*
X95127714Y-112364500D01*
X95340286Y-112364500D01*
X95340287Y-112364500D01*
X95550243Y-112331246D01*
X95752412Y-112265557D01*
X95941816Y-112169051D01*
X95963789Y-112153086D01*
X96113786Y-112044109D01*
X96113792Y-112044104D01*
X96186413Y-111971483D01*
X96264104Y-111893792D01*
X96264106Y-111893788D01*
X96264109Y-111893786D01*
X96389048Y-111721820D01*
X96389047Y-111721820D01*
X96389051Y-111721816D01*
X96485557Y-111532412D01*
X96551246Y-111330243D01*
X96584500Y-111120287D01*
X96584500Y-110907713D01*
X96551246Y-110697757D01*
X96485557Y-110495588D01*
X96389051Y-110306184D01*
X96389049Y-110306181D01*
X96389048Y-110306179D01*
X96264109Y-110134213D01*
X96113786Y-109983890D01*
X95941820Y-109858951D01*
X95752414Y-109762444D01*
X95752413Y-109762443D01*
X95752412Y-109762443D01*
X95550243Y-109696754D01*
X95550241Y-109696753D01*
X95550240Y-109696753D01*
X95388957Y-109671208D01*
X95340287Y-109663500D01*
X95127713Y-109663500D01*
X95079042Y-109671208D01*
X94917760Y-109696753D01*
X94715585Y-109762444D01*
X94526179Y-109858951D01*
X94354215Y-109983889D01*
X94240673Y-110097431D01*
X94179350Y-110130915D01*
X94109658Y-110125931D01*
X94053725Y-110084059D01*
X94036810Y-110053082D01*
X93987797Y-109921671D01*
X93987793Y-109921664D01*
X93901547Y-109806455D01*
X93901544Y-109806452D01*
X93786335Y-109720206D01*
X93786327Y-109720202D01*
X93781011Y-109718219D01*
X93725078Y-109676346D01*
X93700663Y-109610881D01*
X93715516Y-109542608D01*
X93736663Y-109514360D01*
X94748205Y-108502819D01*
X94809528Y-108469334D01*
X94835886Y-108466500D01*
X99579052Y-108466500D01*
X99646091Y-108486185D01*
X99691846Y-108538989D01*
X99701790Y-108608147D01*
X99672765Y-108671703D01*
X99647944Y-108693601D01*
X99645397Y-108695302D01*
X99645396Y-108695303D01*
X99420935Y-108919763D01*
X99359612Y-108953247D01*
X99357449Y-108953698D01*
X99334503Y-108958262D01*
X99334500Y-108958263D01*
X99188827Y-109018602D01*
X99188814Y-109018609D01*
X99057711Y-109106210D01*
X99057707Y-109106213D01*
X98946213Y-109217707D01*
X98946210Y-109217711D01*
X98858609Y-109348814D01*
X98858602Y-109348827D01*
X98798264Y-109494498D01*
X98798261Y-109494510D01*
X98767500Y-109649153D01*
X98767500Y-109806846D01*
X98798261Y-109961489D01*
X98798264Y-109961501D01*
X98858603Y-110107174D01*
X98858604Y-110107175D01*
X98858606Y-110107179D01*
X98871136Y-110125931D01*
X98871602Y-110126628D01*
X98892480Y-110193305D01*
X98892500Y-110195519D01*
X98892500Y-112230500D01*
X98872815Y-112297539D01*
X98820011Y-112343294D01*
X98768500Y-112354500D01*
X98136349Y-112354500D01*
X98005851Y-112380458D01*
X98005841Y-112380461D01*
X97882912Y-112431380D01*
X97882909Y-112431381D01*
X97804911Y-112483499D01*
X97772273Y-112505306D01*
X95566748Y-114710831D01*
X95566745Y-114710835D01*
X95492824Y-114821465D01*
X95492819Y-114821475D01*
X95441900Y-114944404D01*
X95441900Y-114944405D01*
X95430108Y-115003688D01*
X95430108Y-115003689D01*
X95415941Y-115074907D01*
X95415941Y-127216500D01*
X95396256Y-127283539D01*
X95343452Y-127329294D01*
X95291941Y-127340500D01*
X90797464Y-127340500D01*
X90666971Y-127366456D01*
X90666967Y-127366458D01*
X90666965Y-127366458D01*
X90666964Y-127366459D01*
X90635753Y-127379387D01*
X90580034Y-127402466D01*
X90580033Y-127402465D01*
X90544034Y-127417378D01*
X90544031Y-127417379D01*
X90544031Y-127417380D01*
X90524396Y-127430500D01*
X90474734Y-127463683D01*
X90433391Y-127491306D01*
X90433390Y-127491307D01*
X87394181Y-130530517D01*
X87332858Y-130564002D01*
X87263166Y-130559018D01*
X87207233Y-130517146D01*
X87182816Y-130451682D01*
X87182500Y-130442836D01*
X87182500Y-130441713D01*
X87149246Y-130231760D01*
X87149246Y-130231757D01*
X87083557Y-130029588D01*
X86987051Y-129840184D01*
X86987049Y-129840181D01*
X86987048Y-129840179D01*
X86862109Y-129668213D01*
X86711786Y-129517890D01*
X86539820Y-129392951D01*
X86350414Y-129296444D01*
X86350413Y-129296443D01*
X86350412Y-129296443D01*
X86148243Y-129230754D01*
X86148241Y-129230753D01*
X86148240Y-129230753D01*
X85972299Y-129202887D01*
X85938287Y-129197500D01*
X85725713Y-129197500D01*
X85691701Y-129202887D01*
X85515760Y-129230753D01*
X85313585Y-129296444D01*
X85124179Y-129392951D01*
X84952213Y-129517890D01*
X84801894Y-129668209D01*
X84801890Y-129668214D01*
X84682318Y-129832793D01*
X84626989Y-129875459D01*
X84557375Y-129881438D01*
X84495580Y-129848833D01*
X84481682Y-129832793D01*
X84362109Y-129668214D01*
X84362105Y-129668209D01*
X84211786Y-129517890D01*
X84039820Y-129392951D01*
X83850414Y-129296444D01*
X83850413Y-129296443D01*
X83850412Y-129296443D01*
X83648243Y-129230754D01*
X83648241Y-129230753D01*
X83648240Y-129230753D01*
X83472299Y-129202887D01*
X83438287Y-129197500D01*
X83225713Y-129197500D01*
X83191701Y-129202887D01*
X83015759Y-129230753D01*
X83015752Y-129230755D01*
X83011523Y-129232129D01*
X82941682Y-129234119D01*
X82881852Y-129198033D01*
X82851029Y-129135330D01*
X82849215Y-129114195D01*
X82849215Y-128657448D01*
X82868900Y-128590409D01*
X82885534Y-128569767D01*
X83494479Y-127960822D01*
X83494482Y-127960819D01*
X83568407Y-127850182D01*
X83619328Y-127727249D01*
X83645287Y-127596744D01*
X83645287Y-127463682D01*
X83645287Y-70861376D01*
X83664972Y-70794337D01*
X83681606Y-70773695D01*
X87703482Y-66751819D01*
X87764805Y-66718334D01*
X87791163Y-66715500D01*
X89690288Y-66715500D01*
X89757327Y-66735185D01*
G37*
%TD.AperFunction*%
%TA.AperFunction,Conductor*%
G36*
X109147703Y-123343450D02*
G01*
X109154181Y-123349482D01*
X109340305Y-123535606D01*
X109434394Y-123629695D01*
X109434397Y-123629697D01*
X109434398Y-123629698D01*
X109545020Y-123703613D01*
X109545023Y-123703614D01*
X109545031Y-123703620D01*
X109667964Y-123754540D01*
X109667968Y-123754540D01*
X109667969Y-123754541D01*
X109798466Y-123780500D01*
X109798469Y-123780500D01*
X110317063Y-123780500D01*
X110384102Y-123800185D01*
X110417382Y-123831616D01*
X110487015Y-123927460D01*
X110487019Y-123927464D01*
X110627536Y-124067981D01*
X110788306Y-124184787D01*
X110875149Y-124229035D01*
X110965367Y-124275005D01*
X110965370Y-124275006D01*
X111059866Y-124305709D01*
X111154364Y-124336413D01*
X111350639Y-124367500D01*
X111350640Y-124367500D01*
X111549360Y-124367500D01*
X111549361Y-124367500D01*
X111745636Y-124336413D01*
X111934632Y-124275005D01*
X112111694Y-124184787D01*
X112272464Y-124067981D01*
X112301819Y-124038626D01*
X112363142Y-124005141D01*
X112432834Y-124010125D01*
X112488767Y-124051997D01*
X112513184Y-124117461D01*
X112513500Y-124126307D01*
X112513500Y-127163693D01*
X112493815Y-127230732D01*
X112441011Y-127276487D01*
X112371853Y-127286431D01*
X112308297Y-127257406D01*
X112301819Y-127251374D01*
X112272466Y-127222021D01*
X112272464Y-127222019D01*
X112111694Y-127105213D01*
X111934632Y-127014994D01*
X111934629Y-127014993D01*
X111745637Y-126953587D01*
X111612315Y-126932471D01*
X111549361Y-126922500D01*
X111350639Y-126922500D01*
X111287685Y-126932471D01*
X111154362Y-126953587D01*
X110965370Y-127014993D01*
X110965367Y-127014994D01*
X110788305Y-127105213D01*
X110627533Y-127222021D01*
X110487025Y-127362530D01*
X110487018Y-127362536D01*
X110474776Y-127379387D01*
X110419446Y-127422052D01*
X110374459Y-127430500D01*
X109466886Y-127430500D01*
X109399847Y-127410815D01*
X109379205Y-127394181D01*
X108978819Y-126993794D01*
X108945334Y-126932471D01*
X108942500Y-126906113D01*
X108942500Y-123437163D01*
X108962185Y-123370124D01*
X109014989Y-123324369D01*
X109084147Y-123314425D01*
X109147703Y-123343450D01*
G37*
%TD.AperFunction*%
%TA.AperFunction,Conductor*%
G36*
X138002702Y-33500617D02*
G01*
X138386771Y-33517386D01*
X138397506Y-33518326D01*
X138775971Y-33568152D01*
X138786597Y-33570025D01*
X139159284Y-33652648D01*
X139169710Y-33655442D01*
X139533765Y-33770227D01*
X139543911Y-33773920D01*
X139896578Y-33920000D01*
X139906369Y-33924566D01*
X140244942Y-34100816D01*
X140254310Y-34106224D01*
X140576244Y-34311318D01*
X140585105Y-34317523D01*
X140887930Y-34549889D01*
X140896217Y-34556843D01*
X141177635Y-34814715D01*
X141185284Y-34822364D01*
X141443156Y-35103782D01*
X141450110Y-35112069D01*
X141682476Y-35414894D01*
X141688681Y-35423755D01*
X141893775Y-35745689D01*
X141899183Y-35755057D01*
X142075430Y-36093623D01*
X142080002Y-36103427D01*
X142226075Y-36456078D01*
X142229775Y-36466244D01*
X142344554Y-36830278D01*
X142347354Y-36840727D01*
X142429971Y-37213389D01*
X142431849Y-37224042D01*
X142481671Y-37602473D01*
X142482614Y-37613249D01*
X142499382Y-37997297D01*
X142499500Y-38002706D01*
X142499500Y-135951508D01*
X142499499Y-135951512D01*
X142499499Y-135976801D01*
X142499499Y-135997293D01*
X142499499Y-136014699D01*
X142499381Y-136020107D01*
X142482616Y-136404157D01*
X142481673Y-136414933D01*
X142431855Y-136793364D01*
X142429977Y-136804018D01*
X142347362Y-137176684D01*
X142344562Y-137187133D01*
X142229783Y-137551172D01*
X142226083Y-137561337D01*
X142080017Y-137913979D01*
X142075446Y-137923783D01*
X141899193Y-138262365D01*
X141893784Y-138271733D01*
X141688693Y-138593666D01*
X141682488Y-138602528D01*
X141450128Y-138905349D01*
X141443175Y-138913636D01*
X141185297Y-139195062D01*
X141177648Y-139202711D01*
X140896222Y-139460593D01*
X140887941Y-139467541D01*
X140585120Y-139699907D01*
X140576258Y-139706112D01*
X140254320Y-139911209D01*
X140244952Y-139916617D01*
X139906384Y-140092866D01*
X139896580Y-140097438D01*
X139543930Y-140243511D01*
X139533765Y-140247211D01*
X139169727Y-140361993D01*
X139159278Y-140364793D01*
X138786613Y-140447411D01*
X138775959Y-140449289D01*
X138397528Y-140499111D01*
X138386752Y-140500054D01*
X138002726Y-140516821D01*
X137997317Y-140516939D01*
X137994546Y-140516939D01*
X49073734Y-140499513D01*
X49073520Y-140499500D01*
X49065892Y-140499500D01*
X49002726Y-140499500D01*
X48997317Y-140499382D01*
X48991110Y-140499111D01*
X48613247Y-140482613D01*
X48602474Y-140481671D01*
X48483647Y-140466027D01*
X48224042Y-140431849D01*
X48213389Y-140429971D01*
X47840727Y-140347354D01*
X47830278Y-140344554D01*
X47466244Y-140229775D01*
X47456078Y-140226075D01*
X47103427Y-140080002D01*
X47093623Y-140075430D01*
X46755057Y-139899183D01*
X46745689Y-139893775D01*
X46423755Y-139688681D01*
X46414894Y-139682476D01*
X46112069Y-139450110D01*
X46103782Y-139443156D01*
X45822364Y-139185284D01*
X45814715Y-139177635D01*
X45556843Y-138896217D01*
X45549889Y-138887930D01*
X45317523Y-138585105D01*
X45311318Y-138576244D01*
X45287660Y-138539109D01*
X45106223Y-138254309D01*
X45100816Y-138244942D01*
X44924569Y-137906376D01*
X44919997Y-137896572D01*
X44773920Y-137543911D01*
X44770224Y-137533755D01*
X44655442Y-137169710D01*
X44652648Y-137159284D01*
X44570025Y-136786597D01*
X44568152Y-136775971D01*
X44518326Y-136397506D01*
X44517386Y-136386771D01*
X44500618Y-136002702D01*
X44500500Y-135997293D01*
X44500500Y-132198000D01*
X63971500Y-132198000D01*
X63971500Y-133898000D01*
X63974434Y-133927786D01*
X63981212Y-133996616D01*
X64000624Y-134094206D01*
X64000629Y-134094228D01*
X64009861Y-134130395D01*
X64014006Y-134146634D01*
X64076103Y-134276424D01*
X64076104Y-134276426D01*
X64076105Y-134276427D01*
X64113781Y-134332814D01*
X64131380Y-134359152D01*
X64163809Y-134402473D01*
X64270848Y-134498620D01*
X64353576Y-134553897D01*
X64400112Y-134581508D01*
X64400113Y-134581509D01*
X64535789Y-134629374D01*
X64535791Y-134629374D01*
X64535796Y-134629376D01*
X64633380Y-134648787D01*
X64732000Y-134658500D01*
X64732002Y-134658500D01*
X65678442Y-134658500D01*
X65678447Y-134658500D01*
X65730223Y-134653400D01*
X65798867Y-134666419D01*
X65849578Y-134714483D01*
X65856933Y-134729341D01*
X65872603Y-134767172D01*
X65872607Y-134767181D01*
X65872609Y-134767185D01*
X65960210Y-134898288D01*
X65960213Y-134898292D01*
X66071707Y-135009786D01*
X66071711Y-135009789D01*
X66202814Y-135097390D01*
X66202827Y-135097397D01*
X66348498Y-135157735D01*
X66348503Y-135157737D01*
X66503153Y-135188499D01*
X66503156Y-135188500D01*
X66503158Y-135188500D01*
X66660844Y-135188500D01*
X66660845Y-135188499D01*
X66815497Y-135157737D01*
X66961179Y-135097394D01*
X67092289Y-135009789D01*
X67203789Y-134898289D01*
X67291394Y-134767179D01*
X67351737Y-134621497D01*
X67382500Y-134466842D01*
X67382500Y-134309158D01*
X67382500Y-134309155D01*
X67382499Y-134309153D01*
X67380590Y-134299555D01*
X67351737Y-134154503D01*
X67336061Y-134116657D01*
X67291397Y-134008827D01*
X67291390Y-134008814D01*
X67203789Y-133877711D01*
X67203786Y-133877707D01*
X67092292Y-133766213D01*
X67092288Y-133766210D01*
X66961185Y-133678609D01*
X66961172Y-133678602D01*
X66815501Y-133618264D01*
X66815491Y-133618261D01*
X66792308Y-133613650D01*
X66730397Y-133581265D01*
X66695823Y-133520549D01*
X66692500Y-133492033D01*
X66692500Y-132198002D01*
X66689566Y-132168208D01*
X66682787Y-132099380D01*
X66663376Y-132001796D01*
X66657645Y-131979344D01*
X66649995Y-131949371D01*
X66649994Y-131949367D01*
X66649994Y-131949366D01*
X66587897Y-131819576D01*
X66532620Y-131736848D01*
X66500191Y-131693527D01*
X66393152Y-131597380D01*
X66310424Y-131542103D01*
X66310423Y-131542102D01*
X66263888Y-131514491D01*
X66169245Y-131481102D01*
X66112574Y-131440235D01*
X66086993Y-131375216D01*
X66086500Y-131364166D01*
X66086500Y-129102964D01*
X66106185Y-129035925D01*
X66122814Y-129015288D01*
X68171963Y-126966139D01*
X68171966Y-126966138D01*
X68277059Y-126861045D01*
X68305808Y-126818016D01*
X68312074Y-126811139D01*
X68313189Y-126810460D01*
X68316054Y-126806969D01*
X76980963Y-118142060D01*
X76980966Y-118142059D01*
X77086059Y-118036966D01*
X77097398Y-118019994D01*
X77151009Y-117975191D01*
X77220334Y-117966482D01*
X77283362Y-117996637D01*
X77320081Y-118056079D01*
X77324500Y-118088886D01*
X77324500Y-119842836D01*
X77304815Y-119909875D01*
X77288181Y-119930517D01*
X74181307Y-123037390D01*
X74181304Y-123037394D01*
X74107383Y-123148024D01*
X74107378Y-123148034D01*
X74084047Y-123204361D01*
X74056459Y-123270964D01*
X74039874Y-123354344D01*
X74039874Y-123354345D01*
X74030500Y-123401467D01*
X74030500Y-131573500D01*
X74010815Y-131640539D01*
X73958011Y-131686294D01*
X73906500Y-131697500D01*
X72681998Y-131697500D01*
X72681981Y-131697501D01*
X72579203Y-131708000D01*
X72579200Y-131708001D01*
X72412668Y-131763185D01*
X72412663Y-131763187D01*
X72263342Y-131855289D01*
X72139289Y-131979342D01*
X72047187Y-132128663D01*
X72047186Y-132128666D01*
X71992001Y-132295203D01*
X71992001Y-132295204D01*
X71992000Y-132295204D01*
X71981500Y-132397983D01*
X71981500Y-133698001D01*
X71981501Y-133698018D01*
X71992000Y-133800796D01*
X71992001Y-133800799D01*
X72037894Y-133939294D01*
X72047186Y-133967334D01*
X72139288Y-134116656D01*
X72263344Y-134240712D01*
X72412666Y-134332814D01*
X72579203Y-134387999D01*
X72681991Y-134398500D01*
X73982008Y-134398499D01*
X74084797Y-134387999D01*
X74251334Y-134332814D01*
X74400656Y-134240712D01*
X74524712Y-134116656D01*
X74616814Y-133967334D01*
X74616814Y-133967331D01*
X74620178Y-133961879D01*
X74672126Y-133915154D01*
X74741088Y-133903931D01*
X74805170Y-133931774D01*
X74813398Y-133939294D01*
X74952213Y-134078109D01*
X75124179Y-134203048D01*
X75124181Y-134203049D01*
X75124184Y-134203051D01*
X75313588Y-134299557D01*
X75515757Y-134365246D01*
X75725713Y-134398500D01*
X75725714Y-134398500D01*
X75938286Y-134398500D01*
X75938287Y-134398500D01*
X76148243Y-134365246D01*
X76350412Y-134299557D01*
X76539816Y-134203051D01*
X76561789Y-134187086D01*
X76711786Y-134078109D01*
X76711788Y-134078106D01*
X76711792Y-134078104D01*
X76862104Y-133927792D01*
X76981683Y-133763204D01*
X77037011Y-133720540D01*
X77106624Y-133714561D01*
X77168420Y-133747166D01*
X77182313Y-133763199D01*
X77280249Y-133897997D01*
X77301896Y-133927792D01*
X77452213Y-134078109D01*
X77624179Y-134203048D01*
X77624181Y-134203049D01*
X77624184Y-134203051D01*
X77813588Y-134299557D01*
X78015757Y-134365246D01*
X78225713Y-134398500D01*
X78225714Y-134398500D01*
X78438286Y-134398500D01*
X78438287Y-134398500D01*
X78640084Y-134366538D01*
X78709375Y-134375492D01*
X78762827Y-134420488D01*
X78781097Y-134464819D01*
X78812261Y-134621491D01*
X78812264Y-134621501D01*
X78872602Y-134767172D01*
X78872609Y-134767185D01*
X78960210Y-134898288D01*
X78960213Y-134898292D01*
X79071707Y-135009786D01*
X79071711Y-135009789D01*
X79202814Y-135097390D01*
X79202827Y-135097397D01*
X79348498Y-135157735D01*
X79348503Y-135157737D01*
X79503153Y-135188499D01*
X79503156Y-135188500D01*
X79503158Y-135188500D01*
X79660844Y-135188500D01*
X79660845Y-135188499D01*
X79815497Y-135157737D01*
X79961179Y-135097394D01*
X80092289Y-135009789D01*
X80203789Y-134898289D01*
X80291394Y-134767179D01*
X80351737Y-134621497D01*
X80382500Y-134466842D01*
X80382500Y-134466840D01*
X80382902Y-134464820D01*
X80415286Y-134402909D01*
X80476002Y-134368335D01*
X80523914Y-134366538D01*
X80725713Y-134398500D01*
X80725714Y-134398500D01*
X80938286Y-134398500D01*
X80938287Y-134398500D01*
X81148243Y-134365246D01*
X81350412Y-134299557D01*
X81539816Y-134203051D01*
X81561789Y-134187086D01*
X81711786Y-134078109D01*
X81711788Y-134078106D01*
X81711792Y-134078104D01*
X81862104Y-133927792D01*
X81981683Y-133763204D01*
X82037011Y-133720540D01*
X82106624Y-133714561D01*
X82168420Y-133747166D01*
X82182313Y-133763199D01*
X82280249Y-133897997D01*
X82301896Y-133927792D01*
X82452213Y-134078109D01*
X82624179Y-134203048D01*
X82624181Y-134203049D01*
X82624184Y-134203051D01*
X82813588Y-134299557D01*
X83015757Y-134365246D01*
X83225713Y-134398500D01*
X83225714Y-134398500D01*
X83438286Y-134398500D01*
X83438287Y-134398500D01*
X83648243Y-134365246D01*
X83850412Y-134299557D01*
X84039816Y-134203051D01*
X84061789Y-134187086D01*
X84211786Y-134078109D01*
X84211788Y-134078106D01*
X84211792Y-134078104D01*
X84362104Y-133927792D01*
X84481683Y-133763204D01*
X84537011Y-133720540D01*
X84606624Y-133714561D01*
X84668420Y-133747166D01*
X84682313Y-133763199D01*
X84780249Y-133897997D01*
X84801896Y-133927792D01*
X84952213Y-134078109D01*
X85124179Y-134203048D01*
X85124181Y-134203049D01*
X85124184Y-134203051D01*
X85313588Y-134299557D01*
X85515757Y-134365246D01*
X85725713Y-134398500D01*
X85725714Y-134398500D01*
X85938286Y-134398500D01*
X85938287Y-134398500D01*
X86148243Y-134365246D01*
X86350412Y-134299557D01*
X86539816Y-134203051D01*
X86561789Y-134187086D01*
X86711786Y-134078109D01*
X86711788Y-134078106D01*
X86711792Y-134078104D01*
X86862104Y-133927792D01*
X86862106Y-133927788D01*
X86862109Y-133927786D01*
X86987048Y-133755820D01*
X86987047Y-133755820D01*
X86987051Y-133755816D01*
X87083557Y-133566412D01*
X87149246Y-133364243D01*
X87182500Y-133154287D01*
X87182500Y-132941713D01*
X87152880Y-132754703D01*
X87161834Y-132685413D01*
X87187669Y-132647630D01*
X91107482Y-128727819D01*
X91168805Y-128694334D01*
X91195163Y-128691500D01*
X95983418Y-128691500D01*
X96071210Y-128674035D01*
X96113921Y-128665540D01*
X96215727Y-128623370D01*
X96215729Y-128623369D01*
X96215730Y-128623369D01*
X96220215Y-128621510D01*
X96236852Y-128614620D01*
X96291797Y-128577907D01*
X96347491Y-128540694D01*
X96616137Y-128272046D01*
X96660459Y-128205713D01*
X96690061Y-128161410D01*
X96703383Y-128129249D01*
X96740982Y-128038475D01*
X96747379Y-128006319D01*
X96760843Y-127938629D01*
X96760843Y-127938627D01*
X96766941Y-127907972D01*
X96766941Y-115472604D01*
X96786626Y-115405565D01*
X96803260Y-115384923D01*
X98446364Y-113741819D01*
X98507687Y-113708334D01*
X98534045Y-113705500D01*
X99634533Y-113705500D01*
X99722325Y-113688035D01*
X99765036Y-113679540D01*
X99887969Y-113628620D01*
X99998606Y-113554695D01*
X100092695Y-113460606D01*
X100166620Y-113349969D01*
X100217540Y-113227036D01*
X100243500Y-113096531D01*
X100243500Y-110195519D01*
X100263185Y-110128480D01*
X100264398Y-110126628D01*
X100264864Y-110125931D01*
X100277394Y-110107179D01*
X100337737Y-109961497D01*
X100342300Y-109938552D01*
X100374685Y-109876643D01*
X100376177Y-109875122D01*
X100600695Y-109650606D01*
X100674619Y-109539969D01*
X100725540Y-109417036D01*
X100751499Y-109286531D01*
X100751499Y-109153469D01*
X100725540Y-109022964D01*
X100674619Y-108900032D01*
X100628699Y-108831306D01*
X100600699Y-108789399D01*
X100600695Y-108789394D01*
X100506605Y-108695304D01*
X100506600Y-108695300D01*
X100504060Y-108693603D01*
X100503028Y-108692368D01*
X100501891Y-108691435D01*
X100502067Y-108691219D01*
X100459254Y-108639992D01*
X100450545Y-108570667D01*
X100480699Y-108507639D01*
X100540141Y-108470919D01*
X100572949Y-108466500D01*
X105783626Y-108466500D01*
X105850665Y-108486185D01*
X105873432Y-108506452D01*
X105873903Y-108505982D01*
X105989707Y-108621786D01*
X105989711Y-108621789D01*
X106120814Y-108709390D01*
X106120827Y-108709397D01*
X106266498Y-108769735D01*
X106266503Y-108769737D01*
X106421153Y-108800499D01*
X106421156Y-108800500D01*
X106421158Y-108800500D01*
X106578844Y-108800500D01*
X106578845Y-108800499D01*
X106733497Y-108769737D01*
X106879179Y-108709394D01*
X106904660Y-108692368D01*
X106928358Y-108676534D01*
X106995035Y-108655656D01*
X107062415Y-108674140D01*
X107084930Y-108691955D01*
X107397181Y-109004206D01*
X107430666Y-109065529D01*
X107433500Y-109091887D01*
X107433500Y-127190552D01*
X107433499Y-127190578D01*
X107433499Y-127344313D01*
X107447531Y-127414854D01*
X107447533Y-127414865D01*
X107448034Y-127417380D01*
X107462495Y-127490080D01*
X107466726Y-127500294D01*
X107470406Y-127509180D01*
X107470407Y-127509181D01*
X107519366Y-127627381D01*
X107519372Y-127627392D01*
X107601942Y-127750968D01*
X107601943Y-127750969D01*
X108512600Y-128661624D01*
X108512621Y-128661647D01*
X108622028Y-128771054D01*
X108622035Y-128771060D01*
X108745608Y-128853628D01*
X108745609Y-128853628D01*
X108745610Y-128853629D01*
X108882920Y-128910505D01*
X108971442Y-128928113D01*
X109028683Y-128939499D01*
X109028687Y-128939500D01*
X109028688Y-128939500D01*
X109177312Y-128939500D01*
X110374459Y-128939500D01*
X110441498Y-128959185D01*
X110474775Y-128990612D01*
X110487019Y-129007464D01*
X110627536Y-129147981D01*
X110788306Y-129264787D01*
X110854758Y-129298646D01*
X110965367Y-129355005D01*
X110965370Y-129355006D01*
X111016910Y-129371752D01*
X111154364Y-129416413D01*
X111350639Y-129447500D01*
X111350640Y-129447500D01*
X111549360Y-129447500D01*
X111549361Y-129447500D01*
X111745636Y-129416413D01*
X111934632Y-129355005D01*
X112111694Y-129264787D01*
X112272464Y-129147981D01*
X112301819Y-129118626D01*
X112363142Y-129085141D01*
X112432834Y-129090125D01*
X112488767Y-129131997D01*
X112513184Y-129197461D01*
X112513500Y-129206307D01*
X112513500Y-133368113D01*
X112493815Y-133435152D01*
X112477181Y-133455794D01*
X111723794Y-134209181D01*
X111662471Y-134242666D01*
X111636113Y-134245500D01*
X104647886Y-134245500D01*
X104580847Y-134225815D01*
X104560205Y-134209181D01*
X103702948Y-133351923D01*
X103669463Y-133290600D01*
X103668156Y-133244849D01*
X103682500Y-133154287D01*
X103682500Y-132941713D01*
X103649246Y-132731757D01*
X103583557Y-132529588D01*
X103487051Y-132340184D01*
X103487049Y-132340181D01*
X103487048Y-132340179D01*
X103362109Y-132168213D01*
X103211792Y-132017896D01*
X103158729Y-131979344D01*
X103047204Y-131898316D01*
X103004540Y-131842989D01*
X102998561Y-131773376D01*
X103031166Y-131711580D01*
X103047199Y-131697686D01*
X103211792Y-131578104D01*
X103362104Y-131427792D01*
X103362106Y-131427788D01*
X103362109Y-131427786D01*
X103487048Y-131255820D01*
X103487047Y-131255820D01*
X103487051Y-131255816D01*
X103583557Y-131066412D01*
X103649246Y-130864243D01*
X103682500Y-130654287D01*
X103682500Y-130441713D01*
X103649246Y-130231757D01*
X103583557Y-130029588D01*
X103487051Y-129840184D01*
X103487049Y-129840181D01*
X103487048Y-129840179D01*
X103362109Y-129668213D01*
X103211786Y-129517890D01*
X103039820Y-129392951D01*
X102850414Y-129296444D01*
X102850413Y-129296443D01*
X102850412Y-129296443D01*
X102648243Y-129230754D01*
X102648241Y-129230753D01*
X102648240Y-129230753D01*
X102472299Y-129202887D01*
X102438287Y-129197500D01*
X102225713Y-129197500D01*
X102225707Y-129197500D01*
X102135153Y-129211842D01*
X102129728Y-129211140D01*
X102124602Y-129213053D01*
X102095446Y-129206710D01*
X102065860Y-129202887D01*
X102060256Y-129199055D01*
X102056329Y-129198201D01*
X102028075Y-129177050D01*
X101866819Y-129015794D01*
X101833334Y-128954471D01*
X101830500Y-128928113D01*
X101830500Y-121468947D01*
X101839939Y-121421494D01*
X101845737Y-121407497D01*
X101876500Y-121252842D01*
X101876500Y-121095158D01*
X101876500Y-121095155D01*
X101876499Y-121095153D01*
X101867283Y-121048821D01*
X101845737Y-120940503D01*
X101841033Y-120929147D01*
X101785397Y-120794827D01*
X101785390Y-120794814D01*
X101697789Y-120663711D01*
X101697786Y-120663707D01*
X101586292Y-120552213D01*
X101586288Y-120552210D01*
X101455185Y-120464609D01*
X101455172Y-120464602D01*
X101309501Y-120404264D01*
X101309489Y-120404261D01*
X101154845Y-120373500D01*
X101154842Y-120373500D01*
X100997158Y-120373500D01*
X100997155Y-120373500D01*
X100842510Y-120404261D01*
X100842498Y-120404264D01*
X100696827Y-120464602D01*
X100696814Y-120464609D01*
X100565711Y-120552210D01*
X100565707Y-120552213D01*
X100454213Y-120663707D01*
X100454210Y-120663711D01*
X100414704Y-120722836D01*
X100361091Y-120767641D01*
X100291766Y-120776348D01*
X100242711Y-120757047D01*
X100185185Y-120718609D01*
X100185172Y-120718602D01*
X100039501Y-120658264D01*
X100039489Y-120658261D01*
X99884845Y-120627500D01*
X99884842Y-120627500D01*
X99727158Y-120627500D01*
X99727155Y-120627500D01*
X99572510Y-120658261D01*
X99572498Y-120658264D01*
X99426827Y-120718602D01*
X99426814Y-120718609D01*
X99295711Y-120806210D01*
X99295707Y-120806213D01*
X99184213Y-120917707D01*
X99184210Y-120917711D01*
X99096609Y-121048814D01*
X99096602Y-121048827D01*
X99036264Y-121194498D01*
X99036261Y-121194510D01*
X99005500Y-121349153D01*
X99005500Y-121506846D01*
X99036261Y-121661489D01*
X99036263Y-121661497D01*
X99068061Y-121738264D01*
X99077500Y-121785717D01*
X99077500Y-129363685D01*
X99057815Y-129430724D01*
X99026387Y-129464001D01*
X98972058Y-129503473D01*
X98952205Y-129517898D01*
X98801890Y-129668213D01*
X98676951Y-129840179D01*
X98580444Y-130029585D01*
X98514753Y-130231760D01*
X98481500Y-130441713D01*
X98481500Y-130654286D01*
X98514753Y-130864239D01*
X98580444Y-131066414D01*
X98676951Y-131255820D01*
X98801890Y-131427786D01*
X98952209Y-131578105D01*
X98952214Y-131578109D01*
X99116793Y-131697682D01*
X99159459Y-131753011D01*
X99165438Y-131822625D01*
X99132833Y-131884420D01*
X99116793Y-131898318D01*
X98952214Y-132017890D01*
X98952209Y-132017894D01*
X98801894Y-132168209D01*
X98801890Y-132168214D01*
X98682318Y-132332793D01*
X98626989Y-132375459D01*
X98557375Y-132381438D01*
X98495580Y-132348833D01*
X98481682Y-132332793D01*
X98362109Y-132168214D01*
X98362105Y-132168209D01*
X98211786Y-132017890D01*
X98039820Y-131892951D01*
X97850414Y-131796444D01*
X97850413Y-131796443D01*
X97850412Y-131796443D01*
X97648243Y-131730754D01*
X97648241Y-131730753D01*
X97648240Y-131730753D01*
X97473334Y-131703051D01*
X97438287Y-131697500D01*
X97225713Y-131697500D01*
X97190666Y-131703051D01*
X97015760Y-131730753D01*
X96813585Y-131796444D01*
X96624179Y-131892951D01*
X96452213Y-132017890D01*
X96301894Y-132168209D01*
X96301890Y-132168214D01*
X96182318Y-132332793D01*
X96126989Y-132375459D01*
X96057375Y-132381438D01*
X95995580Y-132348833D01*
X95981682Y-132332793D01*
X95862109Y-132168214D01*
X95862105Y-132168209D01*
X95711786Y-132017890D01*
X95539820Y-131892951D01*
X95350414Y-131796444D01*
X95350413Y-131796443D01*
X95350412Y-131796443D01*
X95148243Y-131730754D01*
X95148241Y-131730753D01*
X95148240Y-131730753D01*
X94973334Y-131703051D01*
X94938287Y-131697500D01*
X94725713Y-131697500D01*
X94690666Y-131703051D01*
X94515760Y-131730753D01*
X94313585Y-131796444D01*
X94124179Y-131892951D01*
X93952213Y-132017890D01*
X93801890Y-132168213D01*
X93676951Y-132340179D01*
X93580444Y-132529585D01*
X93514753Y-132731760D01*
X93481500Y-132941713D01*
X93481500Y-133154286D01*
X93512802Y-133351923D01*
X93514754Y-133364243D01*
X93516011Y-133368113D01*
X93580444Y-133566414D01*
X93676951Y-133755820D01*
X93801890Y-133927786D01*
X93952211Y-134078107D01*
X94005272Y-134116657D01*
X94105385Y-134189393D01*
X94148051Y-134244721D01*
X94156500Y-134289710D01*
X94156500Y-135284535D01*
X94182457Y-135415028D01*
X94182459Y-135415036D01*
X94233378Y-135537965D01*
X94233383Y-135537975D01*
X94307304Y-135648605D01*
X94307307Y-135648609D01*
X97029798Y-138371099D01*
X97123887Y-138465188D01*
X97123890Y-138465190D01*
X97123891Y-138465191D01*
X97234513Y-138539106D01*
X97234517Y-138539108D01*
X97234524Y-138539113D01*
X97270530Y-138554027D01*
X97357457Y-138590034D01*
X97487957Y-138615992D01*
X97487961Y-138615993D01*
X97487962Y-138615993D01*
X118838039Y-138615993D01*
X118838040Y-138615992D01*
X118968543Y-138590034D01*
X119091476Y-138539113D01*
X119202113Y-138465188D01*
X120412695Y-137254606D01*
X120486620Y-137143969D01*
X120505404Y-137098620D01*
X120537541Y-137021036D01*
X120563500Y-136890531D01*
X120563500Y-136757469D01*
X120563500Y-117925639D01*
X127967500Y-117925639D01*
X127967500Y-118124360D01*
X127998587Y-118320637D01*
X128059993Y-118509629D01*
X128059994Y-118509632D01*
X128142980Y-118672499D01*
X128150213Y-118686694D01*
X128267019Y-118847464D01*
X128407536Y-118987981D01*
X128568306Y-119104787D01*
X128686832Y-119165179D01*
X128724780Y-119184515D01*
X128775576Y-119232490D01*
X128792371Y-119300311D01*
X128769833Y-119366446D01*
X128724780Y-119405485D01*
X128568305Y-119485213D01*
X128407533Y-119602021D01*
X128267021Y-119742533D01*
X128150213Y-119903305D01*
X128059994Y-120080367D01*
X128059993Y-120080370D01*
X127998587Y-120269362D01*
X127967500Y-120465639D01*
X127967500Y-120664360D01*
X127998587Y-120860637D01*
X128059993Y-121049629D01*
X128059994Y-121049632D01*
X128111904Y-121151509D01*
X128150213Y-121226694D01*
X128267019Y-121387464D01*
X128407536Y-121527981D01*
X128568306Y-121644787D01*
X128686832Y-121705179D01*
X128724780Y-121724515D01*
X128775576Y-121772490D01*
X128792371Y-121840311D01*
X128769833Y-121906446D01*
X128724780Y-121945485D01*
X128568305Y-122025213D01*
X128407533Y-122142021D01*
X128267021Y-122282533D01*
X128150213Y-122443305D01*
X128059994Y-122620367D01*
X128059993Y-122620370D01*
X127998587Y-122809362D01*
X127967500Y-123005639D01*
X127967500Y-123204360D01*
X127998587Y-123400637D01*
X128059993Y-123589629D01*
X128059994Y-123589632D01*
X128140586Y-123747801D01*
X128150213Y-123766694D01*
X128267019Y-123927464D01*
X128407536Y-124067981D01*
X128568306Y-124184787D01*
X128686832Y-124245179D01*
X128724780Y-124264515D01*
X128775576Y-124312490D01*
X128792371Y-124380311D01*
X128769833Y-124446446D01*
X128724780Y-124485485D01*
X128568305Y-124565213D01*
X128407533Y-124682021D01*
X128267021Y-124822533D01*
X128150213Y-124983305D01*
X128059994Y-125160367D01*
X128059993Y-125160370D01*
X127998587Y-125349362D01*
X127967500Y-125545639D01*
X127967500Y-125744360D01*
X127998587Y-125940637D01*
X128059993Y-126129629D01*
X128059994Y-126129632D01*
X128150213Y-126306694D01*
X128267019Y-126467464D01*
X128407536Y-126607981D01*
X128568306Y-126724787D01*
X128686832Y-126785179D01*
X128724780Y-126804515D01*
X128775576Y-126852490D01*
X128792371Y-126920311D01*
X128769833Y-126986446D01*
X128724780Y-127025485D01*
X128568305Y-127105213D01*
X128407533Y-127222021D01*
X128267025Y-127362530D01*
X128267021Y-127362533D01*
X128150213Y-127523305D01*
X128059994Y-127700367D01*
X128059993Y-127700370D01*
X127998587Y-127889362D01*
X127967500Y-128085639D01*
X127967500Y-128284360D01*
X127998587Y-128480637D01*
X128059993Y-128669629D01*
X128059994Y-128669632D01*
X128150213Y-128846694D01*
X128267019Y-129007464D01*
X128407536Y-129147981D01*
X128568306Y-129264787D01*
X128634758Y-129298646D01*
X128745367Y-129355005D01*
X128745370Y-129355006D01*
X128796910Y-129371752D01*
X128934364Y-129416413D01*
X129130639Y-129447500D01*
X129130640Y-129447500D01*
X129329360Y-129447500D01*
X129329361Y-129447500D01*
X129525636Y-129416413D01*
X129714632Y-129355005D01*
X129891694Y-129264787D01*
X130052464Y-129147981D01*
X130192981Y-129007464D01*
X130309787Y-128846694D01*
X130400005Y-128669632D01*
X130461413Y-128480636D01*
X130492500Y-128284361D01*
X130492500Y-128085639D01*
X130461413Y-127889364D01*
X130408739Y-127727249D01*
X130400006Y-127700370D01*
X130400005Y-127700367D01*
X130309786Y-127523305D01*
X130192981Y-127362536D01*
X130052464Y-127222019D01*
X129891694Y-127105213D01*
X129735218Y-127025484D01*
X129684423Y-126977510D01*
X129667628Y-126909689D01*
X129690165Y-126843554D01*
X129735218Y-126804515D01*
X129891694Y-126724787D01*
X130052464Y-126607981D01*
X130192981Y-126467464D01*
X130309787Y-126306694D01*
X130400005Y-126129632D01*
X130461413Y-125940636D01*
X130492500Y-125744361D01*
X130492500Y-125545639D01*
X130461413Y-125349364D01*
X130400005Y-125160368D01*
X130400005Y-125160367D01*
X130309786Y-124983305D01*
X130192981Y-124822536D01*
X130052464Y-124682019D01*
X129891694Y-124565213D01*
X129735218Y-124485484D01*
X129684423Y-124437510D01*
X129667628Y-124369689D01*
X129690165Y-124303554D01*
X129735218Y-124264515D01*
X129891694Y-124184787D01*
X130052464Y-124067981D01*
X130192981Y-123927464D01*
X130309787Y-123766694D01*
X130400005Y-123589632D01*
X130461413Y-123400636D01*
X130492500Y-123204361D01*
X130492500Y-123005639D01*
X130461413Y-122809364D01*
X130430709Y-122714866D01*
X130400006Y-122620370D01*
X130400005Y-122620367D01*
X130344911Y-122512241D01*
X130309787Y-122443306D01*
X130192981Y-122282536D01*
X130052464Y-122142019D01*
X129891694Y-122025213D01*
X129735218Y-121945484D01*
X129684423Y-121897510D01*
X129667628Y-121829689D01*
X129690165Y-121763554D01*
X129735218Y-121724515D01*
X129891694Y-121644787D01*
X130052464Y-121527981D01*
X130192981Y-121387464D01*
X130309787Y-121226694D01*
X130400005Y-121049632D01*
X130461413Y-120860636D01*
X130492500Y-120664361D01*
X130492500Y-120465639D01*
X130461413Y-120269364D01*
X130400005Y-120080368D01*
X130400005Y-120080367D01*
X130354035Y-119990149D01*
X130309787Y-119903306D01*
X130192981Y-119742536D01*
X130052464Y-119602019D01*
X129891694Y-119485213D01*
X129735218Y-119405484D01*
X129684423Y-119357510D01*
X129667628Y-119289689D01*
X129690165Y-119223554D01*
X129735218Y-119184515D01*
X129891694Y-119104787D01*
X130052464Y-118987981D01*
X130192981Y-118847464D01*
X130309787Y-118686694D01*
X130400005Y-118509632D01*
X130461413Y-118320636D01*
X130492500Y-118124361D01*
X130492500Y-117925639D01*
X130461413Y-117729364D01*
X130429229Y-117630312D01*
X130400006Y-117540370D01*
X130400005Y-117540367D01*
X130309786Y-117363305D01*
X130253009Y-117285158D01*
X130192981Y-117202536D01*
X130052464Y-117062019D01*
X129891694Y-116945213D01*
X129714632Y-116854994D01*
X129714629Y-116854993D01*
X129525637Y-116793587D01*
X129427498Y-116778043D01*
X129329361Y-116762500D01*
X129130639Y-116762500D01*
X129065214Y-116772862D01*
X128934362Y-116793587D01*
X128745370Y-116854993D01*
X128745367Y-116854994D01*
X128568305Y-116945213D01*
X128407533Y-117062021D01*
X128267021Y-117202533D01*
X128150213Y-117363305D01*
X128059994Y-117540367D01*
X128059993Y-117540370D01*
X127998587Y-117729362D01*
X127967500Y-117925639D01*
X120563500Y-117925639D01*
X120563500Y-106105469D01*
X120537541Y-105974964D01*
X120488944Y-105857643D01*
X120487300Y-105853048D01*
X120412698Y-105741398D01*
X120412697Y-105741397D01*
X120412695Y-105741394D01*
X120318606Y-105647305D01*
X115563480Y-100892179D01*
X110761523Y-96090221D01*
X110761519Y-96090218D01*
X110650889Y-96016297D01*
X110650879Y-96016292D01*
X110527950Y-95965373D01*
X110527942Y-95965371D01*
X110397449Y-95939414D01*
X110397445Y-95939414D01*
X105792962Y-95939414D01*
X105725923Y-95919729D01*
X105692644Y-95888299D01*
X105581359Y-95735128D01*
X105581355Y-95735123D01*
X105431036Y-95584804D01*
X105259070Y-95459865D01*
X105258365Y-95459505D01*
X105250304Y-95455399D01*
X105199509Y-95407426D01*
X105182713Y-95339606D01*
X105205249Y-95273470D01*
X105250304Y-95234429D01*
X105259066Y-95229965D01*
X105342290Y-95169500D01*
X105431036Y-95105023D01*
X105431038Y-95105020D01*
X105431042Y-95105018D01*
X105581354Y-94954706D01*
X105650313Y-94859792D01*
X105692644Y-94801529D01*
X105747974Y-94758863D01*
X105792962Y-94750414D01*
X114195188Y-94750414D01*
X114242640Y-94759853D01*
X114266498Y-94769735D01*
X114266503Y-94769737D01*
X114421153Y-94800499D01*
X114421156Y-94800500D01*
X114421158Y-94800500D01*
X114578844Y-94800500D01*
X114578845Y-94800499D01*
X114733497Y-94769737D01*
X114879179Y-94709394D01*
X115010289Y-94621789D01*
X115121789Y-94510289D01*
X115209394Y-94379179D01*
X115269737Y-94233497D01*
X115300500Y-94078842D01*
X115300500Y-93921158D01*
X115300500Y-93921155D01*
X115300499Y-93921153D01*
X115269737Y-93766503D01*
X115227179Y-93663757D01*
X115209397Y-93620827D01*
X115209390Y-93620814D01*
X115121789Y-93489711D01*
X115121786Y-93489707D01*
X115010292Y-93378213D01*
X115010288Y-93378210D01*
X114879185Y-93290609D01*
X114879172Y-93290602D01*
X114733501Y-93230264D01*
X114733489Y-93230261D01*
X114578845Y-93199500D01*
X114578842Y-93199500D01*
X114421158Y-93199500D01*
X114421155Y-93199500D01*
X114266510Y-93230261D01*
X114266498Y-93230264D01*
X114120827Y-93290602D01*
X114120814Y-93290609D01*
X113989254Y-93378516D01*
X113922577Y-93399394D01*
X113920363Y-93399414D01*
X105792962Y-93399414D01*
X105725923Y-93379729D01*
X105692644Y-93348299D01*
X105581359Y-93195128D01*
X105581355Y-93195123D01*
X105431036Y-93044804D01*
X105259070Y-92919865D01*
X105069664Y-92823358D01*
X105069663Y-92823357D01*
X105069662Y-92823357D01*
X104867493Y-92757668D01*
X104867491Y-92757667D01*
X104867490Y-92757667D01*
X104706207Y-92732122D01*
X104657537Y-92724414D01*
X104444963Y-92724414D01*
X104396292Y-92732122D01*
X104235010Y-92757667D01*
X104032835Y-92823358D01*
X103843429Y-92919865D01*
X103671463Y-93044804D01*
X103521140Y-93195127D01*
X103396201Y-93367093D01*
X103299694Y-93556499D01*
X103234003Y-93758674D01*
X103200750Y-93968627D01*
X103200750Y-94181200D01*
X103232107Y-94379185D01*
X103234004Y-94391157D01*
X103272713Y-94510292D01*
X103299694Y-94593328D01*
X103396201Y-94782734D01*
X103521140Y-94954700D01*
X103671463Y-95105023D01*
X103843432Y-95229964D01*
X103852196Y-95234430D01*
X103902992Y-95282405D01*
X103919786Y-95350226D01*
X103897248Y-95416361D01*
X103852196Y-95455398D01*
X103843432Y-95459863D01*
X103671463Y-95584804D01*
X103521140Y-95735127D01*
X103396201Y-95907093D01*
X103299694Y-96096499D01*
X103234003Y-96298674D01*
X103215783Y-96413713D01*
X103200750Y-96508627D01*
X103200750Y-96721201D01*
X103234004Y-96931157D01*
X103274088Y-97054522D01*
X103276083Y-97124361D01*
X103240003Y-97184194D01*
X103177302Y-97215022D01*
X103156157Y-97216838D01*
X102291126Y-97216838D01*
X102160633Y-97242795D01*
X102160625Y-97242797D01*
X102037696Y-97293716D01*
X102037686Y-97293721D01*
X101927056Y-97367642D01*
X101927052Y-97367645D01*
X101225307Y-98069390D01*
X101225304Y-98069394D01*
X101151383Y-98180024D01*
X101151378Y-98180034D01*
X101100459Y-98302962D01*
X101099796Y-98306297D01*
X101082874Y-98391371D01*
X101082874Y-98391372D01*
X101074500Y-98433467D01*
X101074500Y-101316535D01*
X101100457Y-101447028D01*
X101100459Y-101447036D01*
X101151378Y-101569965D01*
X101151383Y-101569975D01*
X101225304Y-101680605D01*
X101225307Y-101680609D01*
X101670219Y-102125520D01*
X101764308Y-102219609D01*
X101764311Y-102219611D01*
X101764312Y-102219612D01*
X101874934Y-102293527D01*
X101874937Y-102293528D01*
X101874945Y-102293534D01*
X101874951Y-102293536D01*
X101874952Y-102293537D01*
X101963743Y-102330315D01*
X101997878Y-102344454D01*
X101997882Y-102344454D01*
X101997883Y-102344455D01*
X102128380Y-102370414D01*
X102128383Y-102370414D01*
X102261445Y-102370414D01*
X103309538Y-102370414D01*
X103376577Y-102390099D01*
X103409856Y-102421529D01*
X103521140Y-102574699D01*
X103521144Y-102574704D01*
X103671463Y-102725023D01*
X103843429Y-102849962D01*
X103843431Y-102849963D01*
X103843434Y-102849965D01*
X104032838Y-102946471D01*
X104235007Y-103012160D01*
X104444963Y-103045414D01*
X104444964Y-103045414D01*
X104657536Y-103045414D01*
X104657537Y-103045414D01*
X104867493Y-103012160D01*
X105069662Y-102946471D01*
X105259066Y-102849965D01*
X105389705Y-102755051D01*
X105431036Y-102725023D01*
X105431038Y-102725020D01*
X105431042Y-102725018D01*
X105581354Y-102574706D01*
X105581356Y-102574702D01*
X105581359Y-102574700D01*
X105706298Y-102402734D01*
X105706297Y-102402734D01*
X105706301Y-102402730D01*
X105802807Y-102213326D01*
X105868496Y-102011157D01*
X105901750Y-101801201D01*
X105901750Y-101588627D01*
X105868496Y-101378671D01*
X105802807Y-101176502D01*
X105706301Y-100987098D01*
X105706299Y-100987095D01*
X105706298Y-100987093D01*
X105581359Y-100815127D01*
X105431036Y-100664804D01*
X105259070Y-100539865D01*
X105258365Y-100539505D01*
X105250304Y-100535399D01*
X105199509Y-100487426D01*
X105182713Y-100419606D01*
X105205249Y-100353470D01*
X105250304Y-100314429D01*
X105259066Y-100309965D01*
X105389705Y-100215051D01*
X105431036Y-100185023D01*
X105431038Y-100185020D01*
X105431042Y-100185018D01*
X105581354Y-100034706D01*
X105635246Y-99960528D01*
X105690576Y-99917863D01*
X105735565Y-99909414D01*
X106791027Y-99909414D01*
X106858066Y-99929099D01*
X106878708Y-99945733D01*
X110715181Y-103782205D01*
X110748666Y-103843528D01*
X110751500Y-103869886D01*
X110751500Y-113236552D01*
X110751499Y-113236578D01*
X110751499Y-113241688D01*
X110751499Y-113390312D01*
X110751499Y-113390314D01*
X110751498Y-113390314D01*
X110780493Y-113536073D01*
X110780496Y-113536083D01*
X110837366Y-113673381D01*
X110837372Y-113673392D01*
X110919942Y-113796968D01*
X110919943Y-113796969D01*
X112477181Y-115354205D01*
X112510666Y-115415528D01*
X112513500Y-115441886D01*
X112513500Y-117003693D01*
X112493815Y-117070732D01*
X112441011Y-117116487D01*
X112371853Y-117126431D01*
X112308297Y-117097406D01*
X112301819Y-117091374D01*
X112272466Y-117062021D01*
X112272464Y-117062019D01*
X112111694Y-116945213D01*
X111934632Y-116854994D01*
X111934629Y-116854993D01*
X111745637Y-116793587D01*
X111647498Y-116778043D01*
X111549361Y-116762500D01*
X111350639Y-116762500D01*
X111285214Y-116772862D01*
X111154362Y-116793587D01*
X110965370Y-116854993D01*
X110965367Y-116854994D01*
X110788305Y-116945213D01*
X110627533Y-117062021D01*
X110487021Y-117202533D01*
X110370213Y-117363305D01*
X110279994Y-117540367D01*
X110279993Y-117540370D01*
X110218587Y-117729362D01*
X110187500Y-117925639D01*
X110187500Y-118124360D01*
X110218587Y-118320637D01*
X110279993Y-118509629D01*
X110279994Y-118509632D01*
X110362980Y-118672499D01*
X110370213Y-118686694D01*
X110487019Y-118847464D01*
X110627536Y-118987981D01*
X110788306Y-119104787D01*
X110906832Y-119165179D01*
X110944780Y-119184515D01*
X110995576Y-119232490D01*
X111012371Y-119300311D01*
X110989833Y-119366446D01*
X110944780Y-119405485D01*
X110788305Y-119485213D01*
X110627533Y-119602021D01*
X110487021Y-119742533D01*
X110370213Y-119903305D01*
X110279994Y-120080367D01*
X110279993Y-120080370D01*
X110218587Y-120269362D01*
X110187500Y-120465639D01*
X110187500Y-120664360D01*
X110218587Y-120860637D01*
X110279993Y-121049629D01*
X110279994Y-121049632D01*
X110331904Y-121151509D01*
X110370213Y-121226694D01*
X110487019Y-121387464D01*
X110627536Y-121527981D01*
X110788306Y-121644787D01*
X110906832Y-121705179D01*
X110944780Y-121724515D01*
X110995576Y-121772490D01*
X111012371Y-121840311D01*
X110989833Y-121906446D01*
X110944780Y-121945485D01*
X110788305Y-122025213D01*
X110627533Y-122142021D01*
X110487015Y-122282539D01*
X110417382Y-122378384D01*
X110413049Y-122381725D01*
X110410776Y-122386703D01*
X110385676Y-122402833D01*
X110362052Y-122421051D01*
X110355378Y-122422304D01*
X110351998Y-122424477D01*
X110317063Y-122429500D01*
X110196163Y-122429500D01*
X110129124Y-122409815D01*
X110108482Y-122393181D01*
X109915819Y-122200518D01*
X109882334Y-122139195D01*
X109879500Y-122112837D01*
X109879500Y-119609519D01*
X109899185Y-119542480D01*
X109900398Y-119540628D01*
X109913394Y-119521179D01*
X109973737Y-119375497D01*
X110004500Y-119220842D01*
X110004500Y-119063158D01*
X110004500Y-119063155D01*
X110004499Y-119063153D01*
X110001148Y-119046307D01*
X109973737Y-118908503D01*
X109948454Y-118847464D01*
X109913397Y-118762827D01*
X109913390Y-118762814D01*
X109825789Y-118631711D01*
X109825786Y-118631707D01*
X109714292Y-118520213D01*
X109714288Y-118520210D01*
X109583185Y-118432609D01*
X109583172Y-118432602D01*
X109437501Y-118372264D01*
X109437489Y-118372261D01*
X109282845Y-118341500D01*
X109282842Y-118341500D01*
X109125158Y-118341500D01*
X109125153Y-118341500D01*
X109090691Y-118348355D01*
X109021099Y-118342128D01*
X108965922Y-118299264D01*
X108942678Y-118233374D01*
X108942500Y-118226738D01*
X108942500Y-108808446D01*
X108942501Y-108808425D01*
X108942501Y-108653685D01*
X108913505Y-108507921D01*
X108913504Y-108507919D01*
X108912443Y-108505358D01*
X108912442Y-108505356D01*
X108912409Y-108505276D01*
X108874879Y-108414669D01*
X108856630Y-108370611D01*
X108774059Y-108247034D01*
X108774057Y-108247031D01*
X107652968Y-107125942D01*
X107611773Y-107098417D01*
X107529389Y-107043370D01*
X107529386Y-107043368D01*
X107529385Y-107043368D01*
X107448955Y-107010053D01*
X107392080Y-106986495D01*
X107367894Y-106981684D01*
X107246314Y-106957499D01*
X107246312Y-106957499D01*
X107097688Y-106957499D01*
X107091574Y-106957499D01*
X107091554Y-106957500D01*
X94552446Y-106957500D01*
X94552426Y-106957499D01*
X94546312Y-106957499D01*
X94397688Y-106957499D01*
X94397686Y-106957499D01*
X94276105Y-106981684D01*
X94261540Y-106984581D01*
X94251918Y-106986495D01*
X94251917Y-106986495D01*
X94195045Y-107010052D01*
X94195045Y-107010053D01*
X94114616Y-107043368D01*
X94114609Y-107043371D01*
X93991033Y-107125941D01*
X93938487Y-107178487D01*
X93885941Y-107231034D01*
X93885939Y-107231036D01*
X92107943Y-109009030D01*
X92107942Y-109009031D01*
X92025372Y-109132607D01*
X92025366Y-109132618D01*
X91997502Y-109199888D01*
X91997495Y-109199907D01*
X91996088Y-109203305D01*
X91968495Y-109269920D01*
X91963684Y-109294105D01*
X91962028Y-109302427D01*
X91962028Y-109302429D01*
X91939499Y-109415685D01*
X91939499Y-109539500D01*
X91919814Y-109606539D01*
X91867010Y-109652294D01*
X91815504Y-109663500D01*
X91796132Y-109663500D01*
X91796123Y-109663501D01*
X91736516Y-109669908D01*
X91601671Y-109720202D01*
X91601664Y-109720206D01*
X91486455Y-109806452D01*
X91486452Y-109806455D01*
X91400206Y-109921664D01*
X91400202Y-109921671D01*
X91349908Y-110056517D01*
X91343501Y-110116116D01*
X91343500Y-110116135D01*
X91343500Y-111911870D01*
X91343501Y-111911876D01*
X91349909Y-111971484D01*
X91394237Y-112090336D01*
X91399221Y-112160027D01*
X91365735Y-112221350D01*
X91304412Y-112254834D01*
X91234720Y-112249849D01*
X91190374Y-112221349D01*
X86390819Y-107421794D01*
X86357334Y-107360471D01*
X86354500Y-107334113D01*
X86354500Y-104056872D01*
X89995500Y-104056872D01*
X89995500Y-104319127D01*
X90016436Y-104478140D01*
X90029730Y-104579116D01*
X90051178Y-104659161D01*
X90097602Y-104832418D01*
X90097605Y-104832428D01*
X90197953Y-105074690D01*
X90197958Y-105074700D01*
X90329075Y-105301803D01*
X90488718Y-105509851D01*
X90488726Y-105509860D01*
X90674140Y-105695274D01*
X90674148Y-105695281D01*
X90882196Y-105854924D01*
X91109299Y-105986041D01*
X91109309Y-105986046D01*
X91351571Y-106086394D01*
X91351581Y-106086398D01*
X91604884Y-106154270D01*
X91864880Y-106188500D01*
X91864887Y-106188500D01*
X92127113Y-106188500D01*
X92127120Y-106188500D01*
X92387116Y-106154270D01*
X92640419Y-106086398D01*
X92882697Y-105986043D01*
X93109803Y-105854924D01*
X93317851Y-105695282D01*
X93317855Y-105695277D01*
X93317860Y-105695274D01*
X93503274Y-105509860D01*
X93503277Y-105509855D01*
X93503282Y-105509851D01*
X93662924Y-105301803D01*
X93794043Y-105074697D01*
X93894398Y-104832419D01*
X93962270Y-104579116D01*
X93996500Y-104319120D01*
X93996500Y-104056880D01*
X93962270Y-103796884D01*
X93894398Y-103543581D01*
X93894394Y-103543571D01*
X93794046Y-103301309D01*
X93794041Y-103301299D01*
X93662924Y-103074196D01*
X93503281Y-102866148D01*
X93503274Y-102866140D01*
X93317860Y-102680726D01*
X93317851Y-102680718D01*
X93109803Y-102521075D01*
X92882700Y-102389958D01*
X92882690Y-102389953D01*
X92640428Y-102289605D01*
X92640421Y-102289603D01*
X92640419Y-102289602D01*
X92387116Y-102221730D01*
X92323283Y-102213326D01*
X92127127Y-102187500D01*
X92127120Y-102187500D01*
X91864880Y-102187500D01*
X91864872Y-102187500D01*
X91633772Y-102217926D01*
X91604884Y-102221730D01*
X91429861Y-102268627D01*
X91351581Y-102289602D01*
X91351571Y-102289605D01*
X91109309Y-102389953D01*
X91109299Y-102389958D01*
X90882196Y-102521075D01*
X90674148Y-102680718D01*
X90488718Y-102866148D01*
X90329075Y-103074196D01*
X90197958Y-103301299D01*
X90197953Y-103301309D01*
X90097605Y-103543571D01*
X90097602Y-103543581D01*
X90029730Y-103796885D01*
X89995500Y-104056872D01*
X86354500Y-104056872D01*
X86354500Y-99953455D01*
X86374185Y-99886416D01*
X86426989Y-99840661D01*
X86496147Y-99830717D01*
X86525952Y-99838893D01*
X86619918Y-99877816D01*
X86778773Y-99909414D01*
X86784228Y-99910499D01*
X86784232Y-99910500D01*
X86784233Y-99910500D01*
X89821242Y-99910500D01*
X89888281Y-99930185D01*
X89908923Y-99946819D01*
X90052213Y-100090109D01*
X90224179Y-100215048D01*
X90224181Y-100215049D01*
X90224184Y-100215051D01*
X90413588Y-100311557D01*
X90615757Y-100377246D01*
X90825713Y-100410500D01*
X90825714Y-100410500D01*
X91038286Y-100410500D01*
X91038287Y-100410500D01*
X91248243Y-100377246D01*
X91450412Y-100311557D01*
X91639816Y-100215051D01*
X91811792Y-100090104D01*
X91925329Y-99976566D01*
X91986648Y-99943084D01*
X92056340Y-99948068D01*
X92112274Y-99989939D01*
X92129189Y-100020917D01*
X92178202Y-100152328D01*
X92178206Y-100152335D01*
X92264452Y-100267544D01*
X92264455Y-100267547D01*
X92379664Y-100353793D01*
X92379671Y-100353797D01*
X92514517Y-100404091D01*
X92514516Y-100404091D01*
X92521444Y-100404835D01*
X92574127Y-100410500D01*
X94369872Y-100410499D01*
X94429483Y-100404091D01*
X94564331Y-100353796D01*
X94679546Y-100267546D01*
X94765796Y-100152331D01*
X94816091Y-100017483D01*
X94822500Y-99957873D01*
X94822499Y-98162128D01*
X94816091Y-98102517D01*
X94814810Y-98099083D01*
X94765797Y-97967671D01*
X94765793Y-97967664D01*
X94679547Y-97852455D01*
X94679544Y-97852452D01*
X94564335Y-97766206D01*
X94564328Y-97766202D01*
X94432917Y-97717189D01*
X94376983Y-97675318D01*
X94352566Y-97609853D01*
X94367418Y-97541580D01*
X94388563Y-97513332D01*
X94502104Y-97399792D01*
X94525462Y-97367643D01*
X94627048Y-97227820D01*
X94627047Y-97227820D01*
X94627051Y-97227816D01*
X94723557Y-97038412D01*
X94789246Y-96836243D01*
X94822500Y-96626287D01*
X94822500Y-96413713D01*
X94789246Y-96203757D01*
X94723557Y-96001588D01*
X94627051Y-95812184D01*
X94627049Y-95812181D01*
X94627048Y-95812179D01*
X94502109Y-95640213D01*
X94351786Y-95489890D01*
X94179820Y-95364951D01*
X93990414Y-95268444D01*
X93990413Y-95268443D01*
X93990412Y-95268443D01*
X93788243Y-95202754D01*
X93788241Y-95202753D01*
X93788240Y-95202753D01*
X93626957Y-95177208D01*
X93578287Y-95169500D01*
X93365713Y-95169500D01*
X93317042Y-95177208D01*
X93155760Y-95202753D01*
X92953585Y-95268444D01*
X92764179Y-95364951D01*
X92592213Y-95489890D01*
X92441890Y-95640213D01*
X92316949Y-95812182D01*
X92312484Y-95820946D01*
X92264509Y-95871742D01*
X92196688Y-95888536D01*
X92130553Y-95865998D01*
X92091516Y-95820946D01*
X92087050Y-95812182D01*
X91962109Y-95640213D01*
X91811786Y-95489890D01*
X91639820Y-95364951D01*
X91450414Y-95268444D01*
X91450413Y-95268443D01*
X91450412Y-95268443D01*
X91248243Y-95202754D01*
X91248241Y-95202753D01*
X91248240Y-95202753D01*
X91086957Y-95177208D01*
X91038287Y-95169500D01*
X90825713Y-95169500D01*
X90777042Y-95177208D01*
X90615760Y-95202753D01*
X90413585Y-95268444D01*
X90224179Y-95364951D01*
X90052213Y-95489890D01*
X89901890Y-95640213D01*
X89776951Y-95812179D01*
X89680444Y-96001585D01*
X89614753Y-96203760D01*
X89581500Y-96413713D01*
X89581500Y-96626286D01*
X89614753Y-96836239D01*
X89680444Y-97038414D01*
X89776951Y-97227820D01*
X89901890Y-97399786D01*
X90052213Y-97550109D01*
X90224182Y-97675050D01*
X90232946Y-97679516D01*
X90283742Y-97727491D01*
X90300536Y-97795312D01*
X90277998Y-97861447D01*
X90232946Y-97900484D01*
X90224182Y-97904949D01*
X90052213Y-98029890D01*
X90052209Y-98029894D01*
X89908923Y-98173181D01*
X89847600Y-98206666D01*
X89821242Y-98209500D01*
X86784228Y-98209500D01*
X86619925Y-98242182D01*
X86619913Y-98242185D01*
X86525952Y-98281105D01*
X86456483Y-98288574D01*
X86394004Y-98257298D01*
X86358352Y-98197209D01*
X86354500Y-98166544D01*
X86354500Y-74763886D01*
X86374185Y-74696847D01*
X86390819Y-74676205D01*
X89156205Y-71910819D01*
X89217528Y-71877334D01*
X89243886Y-71874500D01*
X89747685Y-71874500D01*
X89814724Y-71894185D01*
X89848004Y-71925615D01*
X89901896Y-71999792D01*
X90052213Y-72150109D01*
X90224182Y-72275050D01*
X90232946Y-72279516D01*
X90283742Y-72327491D01*
X90300536Y-72395312D01*
X90277998Y-72461447D01*
X90232946Y-72500484D01*
X90224182Y-72504949D01*
X90052213Y-72629890D01*
X89901890Y-72780213D01*
X89776951Y-72952179D01*
X89680444Y-73141585D01*
X89614753Y-73343760D01*
X89581500Y-73553713D01*
X89581500Y-73766287D01*
X89614754Y-73976243D01*
X89662451Y-74123040D01*
X89680444Y-74178414D01*
X89776951Y-74367820D01*
X89901890Y-74539786D01*
X90052213Y-74690109D01*
X90224182Y-74815050D01*
X90232946Y-74819516D01*
X90283742Y-74867491D01*
X90300536Y-74935312D01*
X90277998Y-75001447D01*
X90232946Y-75040484D01*
X90224182Y-75044949D01*
X90052213Y-75169890D01*
X89901890Y-75320213D01*
X89776951Y-75492179D01*
X89680444Y-75681585D01*
X89614753Y-75883760D01*
X89581500Y-76093713D01*
X89581500Y-76306286D01*
X89614753Y-76516239D01*
X89680444Y-76718414D01*
X89776951Y-76907820D01*
X89901890Y-77079786D01*
X90052213Y-77230109D01*
X90224182Y-77355050D01*
X90232946Y-77359516D01*
X90283742Y-77407491D01*
X90300536Y-77475312D01*
X90277998Y-77541447D01*
X90232946Y-77580484D01*
X90224182Y-77584949D01*
X90052213Y-77709890D01*
X89901890Y-77860213D01*
X89776951Y-78032179D01*
X89680444Y-78221585D01*
X89614753Y-78423760D01*
X89583562Y-78620692D01*
X89581500Y-78633713D01*
X89581500Y-78846287D01*
X89582765Y-78854273D01*
X89614753Y-79056239D01*
X89680444Y-79258414D01*
X89776951Y-79447820D01*
X89901890Y-79619786D01*
X90052213Y-79770109D01*
X90224182Y-79895050D01*
X90232946Y-79899516D01*
X90283742Y-79947491D01*
X90300536Y-80015312D01*
X90277998Y-80081447D01*
X90232946Y-80120484D01*
X90224182Y-80124949D01*
X90052213Y-80249890D01*
X89901890Y-80400213D01*
X89776951Y-80572179D01*
X89680444Y-80761585D01*
X89614753Y-80963760D01*
X89598787Y-81064567D01*
X89581500Y-81173713D01*
X89581500Y-81386287D01*
X89614754Y-81596243D01*
X89645592Y-81691153D01*
X89680444Y-81798414D01*
X89776951Y-81987820D01*
X89901890Y-82159786D01*
X90052213Y-82310109D01*
X90224182Y-82435050D01*
X90232946Y-82439516D01*
X90283742Y-82487491D01*
X90300536Y-82555312D01*
X90277998Y-82621447D01*
X90232946Y-82660484D01*
X90224182Y-82664949D01*
X90052213Y-82789890D01*
X89901890Y-82940213D01*
X89776951Y-83112179D01*
X89680444Y-83301585D01*
X89614753Y-83503760D01*
X89596086Y-83621621D01*
X89581500Y-83713713D01*
X89581500Y-83926287D01*
X89614754Y-84136243D01*
X89645592Y-84231153D01*
X89680444Y-84338414D01*
X89776951Y-84527820D01*
X89901890Y-84699786D01*
X90052213Y-84850109D01*
X90224182Y-84975050D01*
X90232946Y-84979516D01*
X90283742Y-85027491D01*
X90300536Y-85095312D01*
X90277998Y-85161447D01*
X90232946Y-85200484D01*
X90224182Y-85204949D01*
X90052213Y-85329890D01*
X89901890Y-85480213D01*
X89776951Y-85652179D01*
X89680444Y-85841585D01*
X89614753Y-86043760D01*
X89581500Y-86253713D01*
X89581500Y-86466286D01*
X89614753Y-86676239D01*
X89680444Y-86878414D01*
X89776951Y-87067820D01*
X89901890Y-87239786D01*
X90052213Y-87390109D01*
X90224182Y-87515050D01*
X90232946Y-87519516D01*
X90283742Y-87567491D01*
X90300536Y-87635312D01*
X90277998Y-87701447D01*
X90232946Y-87740484D01*
X90224182Y-87744949D01*
X90052213Y-87869890D01*
X89901890Y-88020213D01*
X89776951Y-88192179D01*
X89680444Y-88381585D01*
X89614753Y-88583760D01*
X89581500Y-88793713D01*
X89581500Y-89006286D01*
X89614753Y-89216239D01*
X89680444Y-89418414D01*
X89776951Y-89607820D01*
X89901890Y-89779786D01*
X90052213Y-89930109D01*
X90224182Y-90055050D01*
X90232946Y-90059516D01*
X90283742Y-90107491D01*
X90300536Y-90175312D01*
X90277998Y-90241447D01*
X90232946Y-90280484D01*
X90224182Y-90284949D01*
X90052213Y-90409890D01*
X89901890Y-90560213D01*
X89776951Y-90732179D01*
X89680444Y-90921585D01*
X89614753Y-91123760D01*
X89581500Y-91333713D01*
X89581500Y-91546286D01*
X89614753Y-91756239D01*
X89680444Y-91958414D01*
X89776951Y-92147820D01*
X89901890Y-92319786D01*
X90052213Y-92470109D01*
X90224179Y-92595048D01*
X90224181Y-92595049D01*
X90224184Y-92595051D01*
X90413588Y-92691557D01*
X90615757Y-92757246D01*
X90825713Y-92790500D01*
X90825714Y-92790500D01*
X91038286Y-92790500D01*
X91038287Y-92790500D01*
X91248243Y-92757246D01*
X91450412Y-92691557D01*
X91639816Y-92595051D01*
X91661789Y-92579086D01*
X91811786Y-92470109D01*
X91811788Y-92470106D01*
X91811792Y-92470104D01*
X91962104Y-92319792D01*
X91962106Y-92319788D01*
X91962109Y-92319786D01*
X92087048Y-92147820D01*
X92087047Y-92147820D01*
X92087051Y-92147816D01*
X92091514Y-92139054D01*
X92139488Y-92088259D01*
X92207308Y-92071463D01*
X92273444Y-92093999D01*
X92312486Y-92139056D01*
X92316951Y-92147820D01*
X92441890Y-92319786D01*
X92592213Y-92470109D01*
X92764179Y-92595048D01*
X92764181Y-92595049D01*
X92764184Y-92595051D01*
X92953588Y-92691557D01*
X93155757Y-92757246D01*
X93365713Y-92790500D01*
X93365714Y-92790500D01*
X93578286Y-92790500D01*
X93578287Y-92790500D01*
X93788243Y-92757246D01*
X93990412Y-92691557D01*
X94179816Y-92595051D01*
X94201789Y-92579086D01*
X94351786Y-92470109D01*
X94351788Y-92470106D01*
X94351792Y-92470104D01*
X94502104Y-92319792D01*
X94502106Y-92319788D01*
X94502109Y-92319786D01*
X94627048Y-92147820D01*
X94627047Y-92147820D01*
X94627051Y-92147816D01*
X94723557Y-91958412D01*
X94789246Y-91756243D01*
X94822500Y-91546287D01*
X94822500Y-91333713D01*
X94789246Y-91123757D01*
X94723557Y-90921588D01*
X94627051Y-90732184D01*
X94627049Y-90732181D01*
X94627048Y-90732179D01*
X94502109Y-90560213D01*
X94351786Y-90409890D01*
X94179820Y-90284951D01*
X94179115Y-90284591D01*
X94171054Y-90280485D01*
X94120259Y-90232512D01*
X94103463Y-90164692D01*
X94125999Y-90098556D01*
X94171054Y-90059515D01*
X94179816Y-90055051D01*
X94201789Y-90039086D01*
X94351786Y-89930109D01*
X94351788Y-89930106D01*
X94351792Y-89930104D01*
X94502104Y-89779792D01*
X94502106Y-89779788D01*
X94502109Y-89779786D01*
X94627048Y-89607820D01*
X94627047Y-89607820D01*
X94627051Y-89607816D01*
X94723557Y-89418412D01*
X94789246Y-89216243D01*
X94822500Y-89006287D01*
X94822500Y-88793713D01*
X94789246Y-88583757D01*
X94723557Y-88381588D01*
X94627051Y-88192184D01*
X94627049Y-88192181D01*
X94627048Y-88192179D01*
X94502109Y-88020213D01*
X94351786Y-87869890D01*
X94179820Y-87744951D01*
X94179115Y-87744591D01*
X94171054Y-87740485D01*
X94120259Y-87692512D01*
X94103463Y-87624692D01*
X94125999Y-87558556D01*
X94171054Y-87519515D01*
X94179816Y-87515051D01*
X94201789Y-87499086D01*
X94351786Y-87390109D01*
X94351788Y-87390106D01*
X94351792Y-87390104D01*
X94502104Y-87239792D01*
X94502106Y-87239788D01*
X94502109Y-87239786D01*
X94627048Y-87067820D01*
X94627047Y-87067820D01*
X94627051Y-87067816D01*
X94723557Y-86878412D01*
X94789246Y-86676243D01*
X94822500Y-86466287D01*
X94822500Y-86253713D01*
X94789246Y-86043757D01*
X94723557Y-85841588D01*
X94627051Y-85652184D01*
X94627049Y-85652181D01*
X94627048Y-85652179D01*
X94502109Y-85480213D01*
X94351786Y-85329890D01*
X94179820Y-85204951D01*
X94179115Y-85204591D01*
X94171054Y-85200485D01*
X94120259Y-85152512D01*
X94103463Y-85084692D01*
X94125999Y-85018556D01*
X94171054Y-84979515D01*
X94179816Y-84975051D01*
X94221153Y-84945018D01*
X94351786Y-84850109D01*
X94351788Y-84850106D01*
X94351792Y-84850104D01*
X94502104Y-84699792D01*
X94502106Y-84699788D01*
X94502109Y-84699786D01*
X94627048Y-84527820D01*
X94627047Y-84527820D01*
X94627051Y-84527816D01*
X94723557Y-84338412D01*
X94789246Y-84136243D01*
X94822500Y-83926287D01*
X94822500Y-83713713D01*
X94789246Y-83503757D01*
X94723557Y-83301588D01*
X94627051Y-83112184D01*
X94627049Y-83112181D01*
X94627048Y-83112179D01*
X94502109Y-82940213D01*
X94351786Y-82789890D01*
X94179820Y-82664951D01*
X94179115Y-82664591D01*
X94171054Y-82660485D01*
X94120259Y-82612512D01*
X94103463Y-82544692D01*
X94125999Y-82478556D01*
X94171054Y-82439515D01*
X94179816Y-82435051D01*
X94221153Y-82405018D01*
X94351786Y-82310109D01*
X94351788Y-82310106D01*
X94351792Y-82310104D01*
X94502104Y-82159792D01*
X94502106Y-82159788D01*
X94502109Y-82159786D01*
X94627048Y-81987820D01*
X94627047Y-81987820D01*
X94627051Y-81987816D01*
X94723557Y-81798412D01*
X94789246Y-81596243D01*
X94822500Y-81386287D01*
X94822500Y-81173713D01*
X94789246Y-80963757D01*
X94723557Y-80761588D01*
X94627051Y-80572184D01*
X94627049Y-80572181D01*
X94627048Y-80572179D01*
X94502109Y-80400213D01*
X94351786Y-80249890D01*
X94179820Y-80124951D01*
X94176693Y-80123358D01*
X94171054Y-80120485D01*
X94120259Y-80072512D01*
X94103463Y-80004692D01*
X94125999Y-79938556D01*
X94171054Y-79899515D01*
X94179816Y-79895051D01*
X94201789Y-79879086D01*
X94351786Y-79770109D01*
X94351788Y-79770106D01*
X94351792Y-79770104D01*
X94502104Y-79619792D01*
X94502106Y-79619788D01*
X94502109Y-79619786D01*
X94627048Y-79447820D01*
X94627047Y-79447820D01*
X94627051Y-79447816D01*
X94723557Y-79258412D01*
X94789246Y-79056243D01*
X94822500Y-78846287D01*
X94822500Y-78633713D01*
X94789246Y-78423757D01*
X94723557Y-78221588D01*
X94627051Y-78032184D01*
X94627049Y-78032181D01*
X94627048Y-78032179D01*
X94502109Y-77860213D01*
X94351786Y-77709890D01*
X94179820Y-77584951D01*
X94179115Y-77584591D01*
X94171054Y-77580485D01*
X94120259Y-77532512D01*
X94103463Y-77464692D01*
X94125999Y-77398556D01*
X94171054Y-77359515D01*
X94179816Y-77355051D01*
X94201789Y-77339086D01*
X94351786Y-77230109D01*
X94351788Y-77230106D01*
X94351792Y-77230104D01*
X94502104Y-77079792D01*
X94502106Y-77079788D01*
X94502109Y-77079786D01*
X94627048Y-76907820D01*
X94627047Y-76907820D01*
X94627051Y-76907816D01*
X94723557Y-76718412D01*
X94789246Y-76516243D01*
X94822500Y-76306287D01*
X94822500Y-76093713D01*
X94789246Y-75883757D01*
X94723557Y-75681588D01*
X94627051Y-75492184D01*
X94627049Y-75492181D01*
X94627048Y-75492179D01*
X94502109Y-75320213D01*
X94351786Y-75169890D01*
X94179820Y-75044951D01*
X94179115Y-75044591D01*
X94171054Y-75040485D01*
X94120259Y-74992512D01*
X94103463Y-74924692D01*
X94125999Y-74858556D01*
X94171054Y-74819515D01*
X94179816Y-74815051D01*
X94250239Y-74763886D01*
X94351786Y-74690109D01*
X94351788Y-74690106D01*
X94351792Y-74690104D01*
X94502104Y-74539792D01*
X94502106Y-74539788D01*
X94502109Y-74539786D01*
X94627048Y-74367820D01*
X94627047Y-74367820D01*
X94627051Y-74367816D01*
X94723557Y-74178412D01*
X94789246Y-73976243D01*
X94822500Y-73766287D01*
X94822500Y-73553713D01*
X94789246Y-73343757D01*
X94723557Y-73141588D01*
X94627051Y-72952184D01*
X94627049Y-72952181D01*
X94627048Y-72952179D01*
X94502109Y-72780213D01*
X94351786Y-72629890D01*
X94179820Y-72504951D01*
X94179115Y-72504591D01*
X94171054Y-72500485D01*
X94120259Y-72452512D01*
X94103463Y-72384692D01*
X94125999Y-72318556D01*
X94171054Y-72279515D01*
X94179816Y-72275051D01*
X94201789Y-72259086D01*
X94351786Y-72150109D01*
X94351788Y-72150106D01*
X94351792Y-72150104D01*
X94502104Y-71999792D01*
X94502106Y-71999788D01*
X94502109Y-71999786D01*
X94627048Y-71827820D01*
X94627047Y-71827820D01*
X94627051Y-71827816D01*
X94723557Y-71638412D01*
X94789246Y-71436243D01*
X94822500Y-71226287D01*
X94822500Y-71013713D01*
X94789246Y-70803757D01*
X94723557Y-70601588D01*
X94627051Y-70412184D01*
X94627049Y-70412181D01*
X94627048Y-70412179D01*
X94502109Y-70240213D01*
X94351786Y-70089890D01*
X94179820Y-69964951D01*
X94179115Y-69964591D01*
X94171054Y-69960485D01*
X94120259Y-69912512D01*
X94103463Y-69844692D01*
X94125999Y-69778556D01*
X94171054Y-69739515D01*
X94179816Y-69735051D01*
X94265966Y-69672460D01*
X94351786Y-69610109D01*
X94351788Y-69610106D01*
X94351792Y-69610104D01*
X94502104Y-69459792D01*
X94502106Y-69459788D01*
X94502109Y-69459786D01*
X94627048Y-69287820D01*
X94627047Y-69287820D01*
X94627051Y-69287816D01*
X94723557Y-69098412D01*
X94789246Y-68896243D01*
X94822500Y-68686287D01*
X94822500Y-68473713D01*
X94789246Y-68263757D01*
X94723557Y-68061588D01*
X94627051Y-67872184D01*
X94627049Y-67872181D01*
X94627048Y-67872179D01*
X94502109Y-67700213D01*
X94351786Y-67549890D01*
X94179820Y-67424951D01*
X94179115Y-67424591D01*
X94171054Y-67420485D01*
X94120259Y-67372512D01*
X94103463Y-67304692D01*
X94125999Y-67238556D01*
X94171054Y-67199515D01*
X94179816Y-67195051D01*
X94266138Y-67132335D01*
X94351786Y-67070109D01*
X94351788Y-67070106D01*
X94351792Y-67070104D01*
X94502104Y-66919792D01*
X94502106Y-66919788D01*
X94502109Y-66919786D01*
X94627048Y-66747820D01*
X94627047Y-66747820D01*
X94627051Y-66747816D01*
X94723557Y-66558412D01*
X94789246Y-66356243D01*
X94822500Y-66146287D01*
X94822500Y-65933713D01*
X94789246Y-65723757D01*
X94723557Y-65521588D01*
X94627051Y-65332184D01*
X94627049Y-65332181D01*
X94627048Y-65332179D01*
X94502109Y-65160213D01*
X94351786Y-65009890D01*
X94179820Y-64884951D01*
X94179115Y-64884591D01*
X94171054Y-64880485D01*
X94120259Y-64832512D01*
X94103463Y-64764692D01*
X94125999Y-64698556D01*
X94171054Y-64659515D01*
X94179816Y-64655051D01*
X94201789Y-64639086D01*
X94351786Y-64530109D01*
X94351788Y-64530106D01*
X94351792Y-64530104D01*
X94502104Y-64379792D01*
X94502106Y-64379788D01*
X94502109Y-64379786D01*
X94627048Y-64207820D01*
X94627047Y-64207820D01*
X94627051Y-64207816D01*
X94723557Y-64018412D01*
X94789246Y-63816243D01*
X94822500Y-63606287D01*
X94822500Y-63393713D01*
X94789246Y-63183757D01*
X94723557Y-62981588D01*
X94627051Y-62792184D01*
X94627049Y-62792181D01*
X94627048Y-62792179D01*
X94502109Y-62620213D01*
X94351786Y-62469890D01*
X94179820Y-62344951D01*
X94179115Y-62344591D01*
X94171054Y-62340485D01*
X94120259Y-62292512D01*
X94103463Y-62224692D01*
X94125999Y-62158556D01*
X94171054Y-62119515D01*
X94179816Y-62115051D01*
X94201789Y-62099086D01*
X94351786Y-61990109D01*
X94351788Y-61990106D01*
X94351792Y-61990104D01*
X94502104Y-61839792D01*
X94502106Y-61839788D01*
X94502109Y-61839786D01*
X94627048Y-61667820D01*
X94627047Y-61667820D01*
X94627051Y-61667816D01*
X94723557Y-61478412D01*
X94789246Y-61276243D01*
X94822500Y-61066287D01*
X94822500Y-60853713D01*
X94793585Y-60671153D01*
X98259500Y-60671153D01*
X98259500Y-60828846D01*
X98290261Y-60983489D01*
X98290264Y-60983501D01*
X98350603Y-61129174D01*
X98350604Y-61129175D01*
X98350606Y-61129179D01*
X98363602Y-61148628D01*
X98384480Y-61215305D01*
X98384500Y-61217519D01*
X98384500Y-78490199D01*
X98410457Y-78620692D01*
X98410459Y-78620700D01*
X98461378Y-78743629D01*
X98461383Y-78743639D01*
X98535304Y-78854269D01*
X98535307Y-78854273D01*
X103195577Y-83514542D01*
X103229062Y-83575865D01*
X103230369Y-83621621D01*
X103200750Y-83808627D01*
X103200750Y-84021201D01*
X103234004Y-84231157D01*
X103268853Y-84338412D01*
X103299694Y-84433328D01*
X103396201Y-84622734D01*
X103521140Y-84794700D01*
X103671463Y-84945023D01*
X103843429Y-85069962D01*
X103843431Y-85069963D01*
X103843434Y-85069965D01*
X104032838Y-85166471D01*
X104235007Y-85232160D01*
X104444963Y-85265414D01*
X104444964Y-85265414D01*
X104657536Y-85265414D01*
X104657537Y-85265414D01*
X104867493Y-85232160D01*
X105069662Y-85166471D01*
X105259066Y-85069965D01*
X105342290Y-85009500D01*
X105431036Y-84945023D01*
X105431038Y-84945020D01*
X105431042Y-84945018D01*
X105581354Y-84794706D01*
X105581356Y-84794702D01*
X105581359Y-84794700D01*
X105706298Y-84622734D01*
X105706297Y-84622734D01*
X105706301Y-84622730D01*
X105802807Y-84433326D01*
X105868496Y-84231157D01*
X105901750Y-84021201D01*
X105901750Y-83808627D01*
X105868496Y-83598671D01*
X105802807Y-83396502D01*
X105706301Y-83207098D01*
X105706299Y-83207095D01*
X105706298Y-83207093D01*
X105581359Y-83035127D01*
X105431036Y-82884804D01*
X105259070Y-82759865D01*
X105258365Y-82759505D01*
X105250304Y-82755399D01*
X105199509Y-82707426D01*
X105182713Y-82639606D01*
X105205249Y-82573470D01*
X105250304Y-82534429D01*
X105259066Y-82529965D01*
X105329825Y-82478556D01*
X105431036Y-82405023D01*
X105431038Y-82405020D01*
X105431042Y-82405018D01*
X105581354Y-82254706D01*
X105581356Y-82254702D01*
X105581359Y-82254700D01*
X105706298Y-82082734D01*
X105706297Y-82082734D01*
X105706301Y-82082730D01*
X105802807Y-81893326D01*
X105868496Y-81691157D01*
X105901750Y-81481201D01*
X105901750Y-81268627D01*
X105868496Y-81058671D01*
X105802807Y-80856502D01*
X105706301Y-80667098D01*
X105706299Y-80667095D01*
X105706298Y-80667093D01*
X105581359Y-80495127D01*
X105431036Y-80344804D01*
X105259070Y-80219865D01*
X105069664Y-80123358D01*
X105069663Y-80123357D01*
X105069662Y-80123357D01*
X104867493Y-80057668D01*
X104867491Y-80057667D01*
X104867490Y-80057667D01*
X104706207Y-80032122D01*
X104657537Y-80024414D01*
X104444963Y-80024414D01*
X104257957Y-80054033D01*
X104188663Y-80045078D01*
X104150878Y-80019241D01*
X101295819Y-77164182D01*
X101262334Y-77102859D01*
X101259500Y-77076501D01*
X101259500Y-65237049D01*
X103200750Y-65237049D01*
X103200750Y-67032784D01*
X103200751Y-67032790D01*
X103207158Y-67092397D01*
X103257452Y-67227242D01*
X103257456Y-67227249D01*
X103343702Y-67342458D01*
X103343705Y-67342461D01*
X103458914Y-67428707D01*
X103458921Y-67428711D01*
X103590332Y-67477724D01*
X103646266Y-67519595D01*
X103670683Y-67585059D01*
X103655832Y-67653332D01*
X103634681Y-67681587D01*
X103521139Y-67795129D01*
X103396201Y-67967093D01*
X103299694Y-68156499D01*
X103234003Y-68358674D01*
X103215783Y-68473713D01*
X103200750Y-68568627D01*
X103200750Y-68781201D01*
X103234004Y-68991157D01*
X103268853Y-69098412D01*
X103299694Y-69193328D01*
X103396201Y-69382734D01*
X103521140Y-69554700D01*
X103671463Y-69705023D01*
X103843429Y-69829962D01*
X103843431Y-69829963D01*
X103843434Y-69829965D01*
X104032838Y-69926471D01*
X104235007Y-69992160D01*
X104444963Y-70025414D01*
X104444964Y-70025414D01*
X104657536Y-70025414D01*
X104657537Y-70025414D01*
X104867493Y-69992160D01*
X105069662Y-69926471D01*
X105259066Y-69829965D01*
X105329825Y-69778556D01*
X105346793Y-69766228D01*
X125895500Y-69766228D01*
X125895500Y-111843771D01*
X125928182Y-112008074D01*
X125928184Y-112008082D01*
X125943105Y-112044104D01*
X125943105Y-112044105D01*
X125992296Y-112162863D01*
X125992297Y-112162866D01*
X126085372Y-112302161D01*
X126085375Y-112302165D01*
X134311833Y-120528623D01*
X134311842Y-120528630D01*
X134451134Y-120621702D01*
X134451136Y-120621703D01*
X134451138Y-120621704D01*
X134523845Y-120651820D01*
X134605918Y-120685816D01*
X134770228Y-120718499D01*
X134770232Y-120718500D01*
X134770233Y-120718500D01*
X134770234Y-120718500D01*
X134937767Y-120718500D01*
X136629764Y-120718500D01*
X136696803Y-120738185D01*
X136741621Y-120788984D01*
X136769098Y-120846415D01*
X136769103Y-120846424D01*
X136824375Y-120929145D01*
X136824377Y-120929148D01*
X136824380Y-120929152D01*
X136856809Y-120972473D01*
X136963848Y-121068620D01*
X137046572Y-121123894D01*
X137046576Y-121123897D01*
X137093112Y-121151508D01*
X137093113Y-121151509D01*
X137228789Y-121199374D01*
X137228791Y-121199374D01*
X137228796Y-121199376D01*
X137326380Y-121218787D01*
X137425000Y-121228500D01*
X137425002Y-121228500D01*
X139124998Y-121228500D01*
X139125000Y-121228500D01*
X139223620Y-121218787D01*
X139321204Y-121199376D01*
X139373634Y-121185994D01*
X139503424Y-121123897D01*
X139586152Y-121068620D01*
X139629473Y-121036191D01*
X139725620Y-120929152D01*
X139780897Y-120846424D01*
X139808508Y-120799888D01*
X139810294Y-120794827D01*
X139856374Y-120664210D01*
X139856374Y-120664209D01*
X139856376Y-120664204D01*
X139875787Y-120566620D01*
X139885500Y-120468000D01*
X139885500Y-119521553D01*
X139880400Y-119469775D01*
X139893419Y-119401131D01*
X139941483Y-119350421D01*
X139956345Y-119343064D01*
X139994179Y-119327394D01*
X140125289Y-119239789D01*
X140236789Y-119128289D01*
X140324394Y-118997179D01*
X140384737Y-118851497D01*
X140415500Y-118696842D01*
X140415500Y-118539158D01*
X140415500Y-118539155D01*
X140415499Y-118539153D01*
X140409467Y-118508827D01*
X140384737Y-118384503D01*
X140384735Y-118384498D01*
X140324397Y-118238827D01*
X140324390Y-118238814D01*
X140236789Y-118107711D01*
X140236786Y-118107707D01*
X140125292Y-117996213D01*
X140125288Y-117996210D01*
X139994185Y-117908609D01*
X139994172Y-117908602D01*
X139848501Y-117848264D01*
X139848489Y-117848261D01*
X139693845Y-117817500D01*
X139693842Y-117817500D01*
X139536158Y-117817500D01*
X139536155Y-117817500D01*
X139381510Y-117848261D01*
X139381498Y-117848264D01*
X139235827Y-117908602D01*
X139235814Y-117908609D01*
X139104711Y-117996210D01*
X139104707Y-117996213D01*
X138993213Y-118107707D01*
X138993210Y-118107711D01*
X138905609Y-118238814D01*
X138905602Y-118238827D01*
X138845264Y-118384498D01*
X138845261Y-118384508D01*
X138840650Y-118407692D01*
X138808265Y-118469603D01*
X138747549Y-118504177D01*
X138719033Y-118507500D01*
X137425000Y-118507500D01*
X137403453Y-118509622D01*
X137326383Y-118517212D01*
X137228793Y-118536624D01*
X137228771Y-118536629D01*
X137176371Y-118550004D01*
X137176367Y-118550005D01*
X137046572Y-118612105D01*
X136963854Y-118667375D01*
X136963840Y-118667385D01*
X136920527Y-118699809D01*
X136824377Y-118806851D01*
X136824377Y-118806852D01*
X136769102Y-118889576D01*
X136741489Y-118936115D01*
X136738910Y-118941633D01*
X136737490Y-118940969D01*
X136701097Y-118991430D01*
X136636077Y-119017007D01*
X136625034Y-119017500D01*
X135257651Y-119017500D01*
X135190612Y-118997815D01*
X135169970Y-118981181D01*
X127632819Y-111444030D01*
X127599334Y-111382707D01*
X127596500Y-111356349D01*
X127596500Y-86253713D01*
X129205500Y-86253713D01*
X129205500Y-86466286D01*
X129238753Y-86676239D01*
X129304444Y-86878414D01*
X129400951Y-87067820D01*
X129525890Y-87239786D01*
X129676213Y-87390109D01*
X129848182Y-87515050D01*
X129856946Y-87519516D01*
X129907742Y-87567491D01*
X129924536Y-87635312D01*
X129901998Y-87701447D01*
X129856946Y-87740484D01*
X129848182Y-87744949D01*
X129676213Y-87869890D01*
X129525890Y-88020213D01*
X129400951Y-88192179D01*
X129304444Y-88381585D01*
X129238753Y-88583760D01*
X129205500Y-88793713D01*
X129205500Y-89006286D01*
X129238753Y-89216239D01*
X129304444Y-89418414D01*
X129400951Y-89607820D01*
X129525890Y-89779786D01*
X129676213Y-89930109D01*
X129848182Y-90055050D01*
X129856946Y-90059516D01*
X129907742Y-90107491D01*
X129924536Y-90175312D01*
X129901998Y-90241447D01*
X129856946Y-90280484D01*
X129848182Y-90284949D01*
X129676213Y-90409890D01*
X129525890Y-90560213D01*
X129400951Y-90732179D01*
X129304444Y-90921585D01*
X129238753Y-91123760D01*
X129205500Y-91333713D01*
X129205500Y-91546286D01*
X129238753Y-91756239D01*
X129304444Y-91958414D01*
X129400951Y-92147820D01*
X129525890Y-92319786D01*
X129676213Y-92470109D01*
X129848182Y-92595050D01*
X129856946Y-92599516D01*
X129907742Y-92647491D01*
X129924536Y-92715312D01*
X129901998Y-92781447D01*
X129856946Y-92820484D01*
X129848182Y-92824949D01*
X129676213Y-92949890D01*
X129525890Y-93100213D01*
X129400951Y-93272179D01*
X129304444Y-93461585D01*
X129238753Y-93663760D01*
X129205500Y-93873713D01*
X129205500Y-94086286D01*
X129228816Y-94233501D01*
X129238754Y-94296243D01*
X129269592Y-94391153D01*
X129304444Y-94498414D01*
X129400951Y-94687820D01*
X129525890Y-94859786D01*
X129676213Y-95010109D01*
X129848179Y-95135048D01*
X129848181Y-95135049D01*
X129848184Y-95135051D01*
X130037588Y-95231557D01*
X130239757Y-95297246D01*
X130449713Y-95330500D01*
X130449714Y-95330500D01*
X130662286Y-95330500D01*
X130662287Y-95330500D01*
X130872243Y-95297246D01*
X131074412Y-95231557D01*
X131263816Y-95135051D01*
X131305153Y-95105018D01*
X131435786Y-95010109D01*
X131435788Y-95010106D01*
X131435792Y-95010104D01*
X131586104Y-94859792D01*
X131586106Y-94859788D01*
X131586109Y-94859786D01*
X131711048Y-94687820D01*
X131711047Y-94687820D01*
X131711051Y-94687816D01*
X131807557Y-94498412D01*
X131873246Y-94296243D01*
X131906500Y-94086287D01*
X131906500Y-93873713D01*
X131873246Y-93663757D01*
X131807557Y-93461588D01*
X131711051Y-93272184D01*
X131711049Y-93272181D01*
X131711048Y-93272179D01*
X131586109Y-93100213D01*
X131435786Y-92949890D01*
X131263820Y-92824951D01*
X131260693Y-92823358D01*
X131255054Y-92820485D01*
X131204259Y-92772512D01*
X131187463Y-92704692D01*
X131209999Y-92638556D01*
X131255054Y-92599515D01*
X131263816Y-92595051D01*
X131285789Y-92579086D01*
X131435786Y-92470109D01*
X131435788Y-92470106D01*
X131435792Y-92470104D01*
X131586104Y-92319792D01*
X131586106Y-92319788D01*
X131586109Y-92319786D01*
X131711048Y-92147820D01*
X131711047Y-92147820D01*
X131711051Y-92147816D01*
X131807557Y-91958412D01*
X131873246Y-91756243D01*
X131906500Y-91546287D01*
X131906500Y-91333713D01*
X131873246Y-91123757D01*
X131807557Y-90921588D01*
X131711051Y-90732184D01*
X131711049Y-90732181D01*
X131711048Y-90732179D01*
X131586109Y-90560213D01*
X131435786Y-90409890D01*
X131263820Y-90284951D01*
X131263115Y-90284591D01*
X131255054Y-90280485D01*
X131204259Y-90232512D01*
X131187463Y-90164692D01*
X131209999Y-90098556D01*
X131255054Y-90059515D01*
X131263816Y-90055051D01*
X131285789Y-90039086D01*
X131435786Y-89930109D01*
X131435788Y-89930106D01*
X131435792Y-89930104D01*
X131586104Y-89779792D01*
X131586106Y-89779788D01*
X131586109Y-89779786D01*
X131711048Y-89607820D01*
X131711047Y-89607820D01*
X131711051Y-89607816D01*
X131807557Y-89418412D01*
X131873246Y-89216243D01*
X131906500Y-89006287D01*
X131906500Y-88793713D01*
X131873246Y-88583757D01*
X131807557Y-88381588D01*
X131711051Y-88192184D01*
X131711049Y-88192181D01*
X131711048Y-88192179D01*
X131586109Y-88020213D01*
X131435786Y-87869890D01*
X131263820Y-87744951D01*
X131263115Y-87744591D01*
X131255054Y-87740485D01*
X131204259Y-87692512D01*
X131187463Y-87624692D01*
X131209999Y-87558556D01*
X131255054Y-87519515D01*
X131263816Y-87515051D01*
X131285789Y-87499086D01*
X131435786Y-87390109D01*
X131435788Y-87390106D01*
X131435792Y-87390104D01*
X131586104Y-87239792D01*
X131586106Y-87239788D01*
X131586109Y-87239786D01*
X131711048Y-87067820D01*
X131711047Y-87067820D01*
X131711051Y-87067816D01*
X131807557Y-86878412D01*
X131873246Y-86676243D01*
X131906500Y-86466287D01*
X131906500Y-86253713D01*
X131873246Y-86043757D01*
X131807557Y-85841588D01*
X131711051Y-85652184D01*
X131711049Y-85652181D01*
X131711048Y-85652179D01*
X131586109Y-85480213D01*
X131435786Y-85329890D01*
X131263820Y-85204951D01*
X131074414Y-85108444D01*
X131074413Y-85108443D01*
X131074412Y-85108443D01*
X130872243Y-85042754D01*
X130872241Y-85042753D01*
X130872240Y-85042753D01*
X130710957Y-85017208D01*
X130662287Y-85009500D01*
X130449713Y-85009500D01*
X130401042Y-85017208D01*
X130239760Y-85042753D01*
X130037585Y-85108444D01*
X129848179Y-85204951D01*
X129676213Y-85329890D01*
X129525890Y-85480213D01*
X129400951Y-85652179D01*
X129304444Y-85841585D01*
X129238753Y-86043760D01*
X129205500Y-86253713D01*
X127596500Y-86253713D01*
X127596500Y-70253650D01*
X127616185Y-70186611D01*
X127632814Y-70165974D01*
X130371970Y-67426817D01*
X130433293Y-67393333D01*
X130459651Y-67390499D01*
X131453871Y-67390499D01*
X131453872Y-67390499D01*
X131513483Y-67384091D01*
X131648331Y-67333796D01*
X131763546Y-67247546D01*
X131849796Y-67132331D01*
X131900091Y-66997483D01*
X131906500Y-66937873D01*
X131906499Y-65142128D01*
X131900091Y-65082517D01*
X131885197Y-65042585D01*
X131849797Y-64947671D01*
X131849793Y-64947664D01*
X131763547Y-64832455D01*
X131763544Y-64832452D01*
X131648335Y-64746206D01*
X131648328Y-64746202D01*
X131513482Y-64695908D01*
X131513483Y-64695908D01*
X131453883Y-64689501D01*
X131453881Y-64689500D01*
X131453873Y-64689500D01*
X131453864Y-64689500D01*
X129658129Y-64689500D01*
X129658123Y-64689501D01*
X129598516Y-64695908D01*
X129463671Y-64746202D01*
X129463664Y-64746206D01*
X129348455Y-64832452D01*
X129348452Y-64832455D01*
X129262206Y-64947664D01*
X129262202Y-64947671D01*
X129211908Y-65082517D01*
X129205501Y-65142116D01*
X129205501Y-65142123D01*
X129205500Y-65142135D01*
X129205500Y-66136348D01*
X129185815Y-66203387D01*
X129169181Y-66224029D01*
X126085375Y-69307834D01*
X126085372Y-69307838D01*
X125992297Y-69447133D01*
X125992296Y-69447136D01*
X125952982Y-69542050D01*
X125952982Y-69542051D01*
X125928184Y-69601917D01*
X125928182Y-69601925D01*
X125895500Y-69766228D01*
X105346793Y-69766228D01*
X105431036Y-69705023D01*
X105431038Y-69705020D01*
X105431042Y-69705018D01*
X105581354Y-69554706D01*
X105581356Y-69554702D01*
X105581359Y-69554700D01*
X105706298Y-69382734D01*
X105706297Y-69382734D01*
X105706301Y-69382730D01*
X105802807Y-69193326D01*
X105868496Y-68991157D01*
X105901750Y-68781201D01*
X105901750Y-68568627D01*
X105868496Y-68358671D01*
X105802807Y-68156502D01*
X105706301Y-67967098D01*
X105706299Y-67967095D01*
X105706298Y-67967093D01*
X105581359Y-67795127D01*
X105467819Y-67681587D01*
X105434334Y-67620264D01*
X105439318Y-67550572D01*
X105481190Y-67494639D01*
X105512165Y-67477724D01*
X105643581Y-67428710D01*
X105758796Y-67342460D01*
X105845046Y-67227245D01*
X105895341Y-67092397D01*
X105901750Y-67032787D01*
X105901749Y-65237042D01*
X105895341Y-65177431D01*
X105888919Y-65160214D01*
X105845047Y-65042585D01*
X105845043Y-65042578D01*
X105758797Y-64927369D01*
X105758794Y-64927366D01*
X105643585Y-64841120D01*
X105643578Y-64841116D01*
X105508732Y-64790822D01*
X105508733Y-64790822D01*
X105449133Y-64784415D01*
X105449131Y-64784414D01*
X105449123Y-64784414D01*
X105449114Y-64784414D01*
X103653379Y-64784414D01*
X103653373Y-64784415D01*
X103593766Y-64790822D01*
X103458921Y-64841116D01*
X103458914Y-64841120D01*
X103343705Y-64927366D01*
X103343702Y-64927369D01*
X103257456Y-65042578D01*
X103257452Y-65042585D01*
X103207158Y-65177431D01*
X103200751Y-65237030D01*
X103200751Y-65237037D01*
X103200750Y-65237049D01*
X101259500Y-65237049D01*
X101259500Y-61217519D01*
X101279185Y-61150480D01*
X101280398Y-61148628D01*
X101293394Y-61129179D01*
X101353737Y-60983497D01*
X101384500Y-60828842D01*
X101384500Y-60671158D01*
X101384500Y-60671155D01*
X101384499Y-60671153D01*
X101379050Y-60643760D01*
X101353737Y-60516503D01*
X101353735Y-60516498D01*
X101293397Y-60370827D01*
X101293390Y-60370814D01*
X101205789Y-60239711D01*
X101205786Y-60239707D01*
X101094292Y-60128213D01*
X101094288Y-60128210D01*
X100963185Y-60040609D01*
X100963172Y-60040602D01*
X100817501Y-59980264D01*
X100817489Y-59980261D01*
X100662845Y-59949500D01*
X100662842Y-59949500D01*
X100505158Y-59949500D01*
X100505155Y-59949500D01*
X100350510Y-59980261D01*
X100350498Y-59980264D01*
X100204827Y-60040602D01*
X100204814Y-60040609D01*
X100073711Y-60128210D01*
X100073707Y-60128213D01*
X99962213Y-60239707D01*
X99925102Y-60295248D01*
X99871489Y-60340052D01*
X99802164Y-60348759D01*
X99739137Y-60318604D01*
X99718898Y-60295248D01*
X99681786Y-60239707D01*
X99570292Y-60128213D01*
X99570288Y-60128210D01*
X99439185Y-60040609D01*
X99439172Y-60040602D01*
X99293501Y-59980264D01*
X99293489Y-59980261D01*
X99138845Y-59949500D01*
X99138842Y-59949500D01*
X98981158Y-59949500D01*
X98981155Y-59949500D01*
X98826510Y-59980261D01*
X98826498Y-59980264D01*
X98680827Y-60040602D01*
X98680814Y-60040609D01*
X98549711Y-60128210D01*
X98549707Y-60128213D01*
X98438213Y-60239707D01*
X98438210Y-60239711D01*
X98350609Y-60370814D01*
X98350602Y-60370827D01*
X98290264Y-60516498D01*
X98290261Y-60516510D01*
X98259500Y-60671153D01*
X94793585Y-60671153D01*
X94789246Y-60643757D01*
X94723557Y-60441588D01*
X94627051Y-60252184D01*
X94627049Y-60252181D01*
X94627048Y-60252179D01*
X94502109Y-60080213D01*
X94351786Y-59929890D01*
X94179820Y-59804951D01*
X94179115Y-59804591D01*
X94171054Y-59800485D01*
X94120259Y-59752512D01*
X94103463Y-59684692D01*
X94125999Y-59618556D01*
X94171054Y-59579515D01*
X94179816Y-59575051D01*
X94201789Y-59559086D01*
X94351786Y-59450109D01*
X94351788Y-59450106D01*
X94351792Y-59450104D01*
X94502104Y-59299792D01*
X94502106Y-59299788D01*
X94502109Y-59299786D01*
X94627048Y-59127820D01*
X94627047Y-59127820D01*
X94627051Y-59127816D01*
X94723557Y-58938412D01*
X94789246Y-58736243D01*
X94822500Y-58526287D01*
X94822500Y-58313713D01*
X94789246Y-58103757D01*
X94723557Y-57901588D01*
X94627051Y-57712184D01*
X94627049Y-57712181D01*
X94627048Y-57712179D01*
X94502109Y-57540213D01*
X94351786Y-57389890D01*
X94179820Y-57264951D01*
X94179115Y-57264591D01*
X94171054Y-57260485D01*
X94120259Y-57212512D01*
X94103463Y-57144692D01*
X94125999Y-57078556D01*
X94171054Y-57039515D01*
X94179816Y-57035051D01*
X94201789Y-57019086D01*
X94351786Y-56910109D01*
X94351788Y-56910106D01*
X94351792Y-56910104D01*
X94502104Y-56759792D01*
X94555996Y-56685614D01*
X94611326Y-56642949D01*
X94656315Y-56634500D01*
X123169554Y-56634500D01*
X123169574Y-56634501D01*
X123175688Y-56634501D01*
X123324314Y-56634501D01*
X123366709Y-56626066D01*
X123445894Y-56610315D01*
X123470080Y-56605505D01*
X123542593Y-56575469D01*
X123607389Y-56548630D01*
X123730966Y-56466059D01*
X125980963Y-54216060D01*
X125980966Y-54216059D01*
X126086059Y-54110966D01*
X126149847Y-54015500D01*
X126168630Y-53987389D01*
X126219451Y-53864695D01*
X126225505Y-53850080D01*
X126240540Y-53774495D01*
X126250224Y-53725815D01*
X126254501Y-53704313D01*
X126254501Y-53550578D01*
X126254500Y-53550552D01*
X126254500Y-44434314D01*
X126274185Y-44367275D01*
X126305614Y-44333996D01*
X126379792Y-44280104D01*
X126530104Y-44129792D01*
X126530106Y-44129788D01*
X126530109Y-44129786D01*
X126655048Y-43957820D01*
X126655047Y-43957820D01*
X126655051Y-43957816D01*
X126751557Y-43768412D01*
X126817246Y-43566243D01*
X126850500Y-43356287D01*
X126850500Y-42643713D01*
X126817246Y-42433757D01*
X126751557Y-42231588D01*
X126655051Y-42042184D01*
X126655049Y-42042181D01*
X126655048Y-42042179D01*
X126530109Y-41870213D01*
X126379786Y-41719890D01*
X126207820Y-41594951D01*
X126018414Y-41498444D01*
X126018413Y-41498443D01*
X126018412Y-41498443D01*
X125816243Y-41432754D01*
X125816241Y-41432753D01*
X125816240Y-41432753D01*
X125636094Y-41404221D01*
X125606287Y-41399500D01*
X125393713Y-41399500D01*
X125363906Y-41404221D01*
X125183760Y-41432753D01*
X124981585Y-41498444D01*
X124792179Y-41594951D01*
X124620215Y-41719889D01*
X124480977Y-41859127D01*
X124419654Y-41892611D01*
X124349962Y-41887627D01*
X124294029Y-41845755D01*
X124281440Y-41824963D01*
X124255897Y-41771576D01*
X124255895Y-41771573D01*
X124200624Y-41688854D01*
X124200614Y-41688840D01*
X124177396Y-41657824D01*
X124168191Y-41645527D01*
X124061152Y-41549380D01*
X124004266Y-41511370D01*
X123978423Y-41494102D01*
X123931887Y-41466491D01*
X123931886Y-41466490D01*
X123796210Y-41418625D01*
X123796204Y-41418624D01*
X123724792Y-41404419D01*
X123698616Y-41399212D01*
X123624188Y-41391882D01*
X123600000Y-41389500D01*
X122400000Y-41389500D01*
X122378453Y-41391622D01*
X122301383Y-41399212D01*
X122203793Y-41418624D01*
X122203771Y-41418629D01*
X122151371Y-41432004D01*
X122151367Y-41432005D01*
X122021572Y-41494105D01*
X121938854Y-41549375D01*
X121938840Y-41549385D01*
X121895527Y-41581809D01*
X121799377Y-41688851D01*
X121799377Y-41688852D01*
X121744102Y-41771576D01*
X121716491Y-41818112D01*
X121716490Y-41818113D01*
X121668625Y-41953789D01*
X121668624Y-41953796D01*
X121649212Y-42051383D01*
X121642614Y-42118386D01*
X121640141Y-42143497D01*
X121639500Y-42150002D01*
X121639500Y-43849997D01*
X121649212Y-43948616D01*
X121668624Y-44046206D01*
X121668629Y-44046228D01*
X121682004Y-44098628D01*
X121682006Y-44098634D01*
X121744103Y-44228424D01*
X121799380Y-44311152D01*
X121831809Y-44354473D01*
X121938848Y-44450620D01*
X122021576Y-44505897D01*
X122068112Y-44533508D01*
X122126426Y-44554080D01*
X122162754Y-44566897D01*
X122219425Y-44607763D01*
X122245007Y-44672782D01*
X122245500Y-44683833D01*
X122245500Y-51886113D01*
X122225815Y-51953152D01*
X122209181Y-51973794D01*
X120473794Y-53709181D01*
X120412471Y-53742666D01*
X120386113Y-53745500D01*
X94995887Y-53745500D01*
X94966446Y-53736855D01*
X94936460Y-53730332D01*
X94931444Y-53726577D01*
X94928848Y-53725815D01*
X94908206Y-53709181D01*
X94842948Y-53643923D01*
X94809463Y-53582600D01*
X94808156Y-53536849D01*
X94822500Y-53446287D01*
X94822500Y-53233713D01*
X94789246Y-53023757D01*
X94723557Y-52821588D01*
X94627051Y-52632184D01*
X94627049Y-52632181D01*
X94627048Y-52632179D01*
X94502109Y-52460213D01*
X94351786Y-52309890D01*
X94179820Y-52184951D01*
X94179115Y-52184591D01*
X94171054Y-52180485D01*
X94120259Y-52132512D01*
X94103463Y-52064692D01*
X94125999Y-51998556D01*
X94171054Y-51959515D01*
X94179816Y-51955051D01*
X94274702Y-51886113D01*
X94351786Y-51830109D01*
X94351788Y-51830106D01*
X94351792Y-51830104D01*
X94502104Y-51679792D01*
X94502106Y-51679788D01*
X94502109Y-51679786D01*
X94627048Y-51507820D01*
X94627047Y-51507820D01*
X94627051Y-51507816D01*
X94723557Y-51318412D01*
X94789246Y-51116243D01*
X94822500Y-50906287D01*
X94822500Y-50693713D01*
X94789246Y-50483757D01*
X94723557Y-50281588D01*
X94627051Y-50092184D01*
X94627049Y-50092181D01*
X94627048Y-50092179D01*
X94502109Y-49920213D01*
X94351786Y-49769890D01*
X94179820Y-49644951D01*
X94179115Y-49644591D01*
X94171054Y-49640485D01*
X94120259Y-49592512D01*
X94103463Y-49524692D01*
X94125999Y-49458556D01*
X94171054Y-49419515D01*
X94179816Y-49415051D01*
X94201789Y-49399086D01*
X94351786Y-49290109D01*
X94351788Y-49290106D01*
X94351792Y-49290104D01*
X94502104Y-49139792D01*
X94555996Y-49065614D01*
X94611326Y-49022949D01*
X94656315Y-49014500D01*
X112233244Y-49014500D01*
X112233264Y-49014501D01*
X112239378Y-49014501D01*
X112388004Y-49014501D01*
X112435064Y-49005139D01*
X112509584Y-48990315D01*
X112533770Y-48985505D01*
X112590645Y-48961946D01*
X112671079Y-48928630D01*
X112794656Y-48846059D01*
X115980963Y-45659750D01*
X115980966Y-45659749D01*
X116086059Y-45554656D01*
X116168629Y-45431080D01*
X116168630Y-45431079D01*
X116168633Y-45431075D01*
X116225503Y-45293773D01*
X116225505Y-45293769D01*
X116252119Y-45159979D01*
X116254501Y-45148004D01*
X116254501Y-44994268D01*
X116254500Y-44994242D01*
X116254500Y-44434314D01*
X116274185Y-44367275D01*
X116305614Y-44333996D01*
X116379792Y-44280104D01*
X116530104Y-44129792D01*
X116530106Y-44129788D01*
X116530109Y-44129786D01*
X116655048Y-43957820D01*
X116655047Y-43957820D01*
X116655051Y-43957816D01*
X116751557Y-43768412D01*
X116817246Y-43566243D01*
X116850500Y-43356287D01*
X116850500Y-42643713D01*
X116817246Y-42433757D01*
X116751557Y-42231588D01*
X116655051Y-42042184D01*
X116655049Y-42042181D01*
X116655048Y-42042179D01*
X116530109Y-41870213D01*
X116379786Y-41719890D01*
X116207820Y-41594951D01*
X116018414Y-41498444D01*
X116018413Y-41498443D01*
X116018412Y-41498443D01*
X115816243Y-41432754D01*
X115816241Y-41432753D01*
X115816240Y-41432753D01*
X115636094Y-41404221D01*
X115606287Y-41399500D01*
X115393713Y-41399500D01*
X115363906Y-41404221D01*
X115183760Y-41432753D01*
X114981585Y-41498444D01*
X114792179Y-41594951D01*
X114620215Y-41719889D01*
X114480977Y-41859127D01*
X114419654Y-41892611D01*
X114349962Y-41887627D01*
X114294029Y-41845755D01*
X114281440Y-41824963D01*
X114255897Y-41771576D01*
X114255895Y-41771573D01*
X114200624Y-41688854D01*
X114200614Y-41688840D01*
X114177396Y-41657824D01*
X114168191Y-41645527D01*
X114061152Y-41549380D01*
X114004266Y-41511370D01*
X113978423Y-41494102D01*
X113931887Y-41466491D01*
X113931886Y-41466490D01*
X113796210Y-41418625D01*
X113796204Y-41418624D01*
X113724792Y-41404419D01*
X113698616Y-41399212D01*
X113624188Y-41391882D01*
X113600000Y-41389500D01*
X112400000Y-41389500D01*
X112378453Y-41391622D01*
X112301383Y-41399212D01*
X112203793Y-41418624D01*
X112203771Y-41418629D01*
X112151371Y-41432004D01*
X112151367Y-41432005D01*
X112021572Y-41494105D01*
X111938854Y-41549375D01*
X111938840Y-41549385D01*
X111895527Y-41581809D01*
X111799377Y-41688851D01*
X111799377Y-41688852D01*
X111744102Y-41771576D01*
X111716491Y-41818112D01*
X111716490Y-41818113D01*
X111668625Y-41953789D01*
X111668624Y-41953796D01*
X111649212Y-42051383D01*
X111642614Y-42118386D01*
X111640141Y-42143497D01*
X111639500Y-42150002D01*
X111639500Y-43242113D01*
X111619815Y-43309152D01*
X111603181Y-43329794D01*
X110003794Y-44929181D01*
X109942471Y-44962666D01*
X109916113Y-44965500D01*
X94656315Y-44965500D01*
X94653139Y-44964567D01*
X94649921Y-44965335D01*
X94619844Y-44954790D01*
X94589276Y-44945815D01*
X94586179Y-44942989D01*
X94583986Y-44942220D01*
X94568909Y-44927227D01*
X94558540Y-44917763D01*
X94557232Y-44916086D01*
X94502104Y-44840208D01*
X94483671Y-44821775D01*
X94478978Y-44815758D01*
X94468818Y-44790085D01*
X94455587Y-44765853D01*
X94456144Y-44758056D01*
X94453269Y-44750790D01*
X94458601Y-44723704D01*
X94460571Y-44696161D01*
X94465255Y-44689903D01*
X94466765Y-44682236D01*
X94485897Y-44662330D01*
X94502443Y-44640228D01*
X94509765Y-44637497D01*
X94515181Y-44631862D01*
X94542037Y-44625459D01*
X94567907Y-44615811D01*
X94576753Y-44615495D01*
X102708549Y-44615495D01*
X102708569Y-44615496D01*
X102714683Y-44615496D01*
X102863309Y-44615496D01*
X102902180Y-44607763D01*
X102984889Y-44591310D01*
X103009075Y-44586500D01*
X103068365Y-44561941D01*
X103146384Y-44529625D01*
X103269961Y-44447054D01*
X107426195Y-40290818D01*
X107487518Y-40257334D01*
X107513876Y-40254500D01*
X130386113Y-40254500D01*
X130453152Y-40274185D01*
X130473794Y-40290819D01*
X135607181Y-45424205D01*
X135640666Y-45485528D01*
X135643500Y-45511886D01*
X135643500Y-98696113D01*
X135623815Y-98763152D01*
X135607181Y-98783794D01*
X133581794Y-100809181D01*
X133520471Y-100842666D01*
X133494113Y-100845500D01*
X131740315Y-100845500D01*
X131673276Y-100825815D01*
X131639996Y-100794385D01*
X131586104Y-100720208D01*
X131435792Y-100569896D01*
X131435786Y-100569890D01*
X131263820Y-100444951D01*
X131074414Y-100348444D01*
X131074413Y-100348443D01*
X131074412Y-100348443D01*
X130872243Y-100282754D01*
X130872241Y-100282753D01*
X130872240Y-100282753D01*
X130710957Y-100257208D01*
X130662287Y-100249500D01*
X130449713Y-100249500D01*
X130401042Y-100257208D01*
X130239760Y-100282753D01*
X130037585Y-100348444D01*
X129848179Y-100444951D01*
X129676213Y-100569890D01*
X129525890Y-100720213D01*
X129400951Y-100892179D01*
X129304444Y-101081585D01*
X129238753Y-101283760D01*
X129212894Y-101447028D01*
X129205500Y-101493713D01*
X129205500Y-101706287D01*
X129238754Y-101916243D01*
X129269592Y-102011153D01*
X129304444Y-102118414D01*
X129400951Y-102307820D01*
X129525890Y-102479786D01*
X129676213Y-102630109D01*
X129848179Y-102755048D01*
X129848181Y-102755049D01*
X129848184Y-102755051D01*
X130037588Y-102851557D01*
X130239757Y-102917246D01*
X130449713Y-102950500D01*
X130449714Y-102950500D01*
X130662286Y-102950500D01*
X130662287Y-102950500D01*
X130872243Y-102917246D01*
X131074412Y-102851557D01*
X131263816Y-102755051D01*
X131305153Y-102725018D01*
X131435786Y-102630109D01*
X131435788Y-102630106D01*
X131435792Y-102630104D01*
X131586104Y-102479792D01*
X131639996Y-102405614D01*
X131695326Y-102362949D01*
X131740315Y-102354500D01*
X133777554Y-102354500D01*
X133777574Y-102354501D01*
X133783688Y-102354501D01*
X133932314Y-102354501D01*
X133969009Y-102347200D01*
X134053894Y-102330315D01*
X134078080Y-102325505D01*
X134134955Y-102301946D01*
X134215389Y-102268630D01*
X134338966Y-102186059D01*
X136878963Y-99646060D01*
X136878966Y-99646059D01*
X136984059Y-99540966D01*
X137066629Y-99417390D01*
X137123505Y-99280080D01*
X137152500Y-99134312D01*
X137152500Y-45073688D01*
X137123505Y-44927920D01*
X137066629Y-44790610D01*
X137066278Y-44790085D01*
X136984060Y-44667035D01*
X136984054Y-44667028D01*
X136874647Y-44557621D01*
X136874624Y-44557600D01*
X131230969Y-38913943D01*
X131230968Y-38913942D01*
X131189773Y-38886417D01*
X131107389Y-38831370D01*
X131107386Y-38831368D01*
X131107385Y-38831368D01*
X131026955Y-38798053D01*
X130970080Y-38774495D01*
X130970070Y-38774493D01*
X130945894Y-38769684D01*
X130824314Y-38745499D01*
X130824312Y-38745499D01*
X130675688Y-38745499D01*
X130669574Y-38745499D01*
X130669554Y-38745500D01*
X107075673Y-38745500D01*
X106929917Y-38774493D01*
X106929909Y-38774495D01*
X106792598Y-38831371D01*
X106669025Y-38913939D01*
X106669024Y-38913940D01*
X106616478Y-38966487D01*
X106563931Y-39019034D01*
X102512789Y-43070176D01*
X102451466Y-43103661D01*
X102425108Y-43106495D01*
X93611512Y-43106495D01*
X93544473Y-43086810D01*
X93498718Y-43034006D01*
X93488774Y-42964848D01*
X93513137Y-42907008D01*
X93662924Y-42711803D01*
X93681438Y-42679735D01*
X93794043Y-42484697D01*
X93894398Y-42242419D01*
X93962270Y-41989116D01*
X93996500Y-41729120D01*
X93996500Y-41466880D01*
X93962270Y-41206884D01*
X93894398Y-40953581D01*
X93894394Y-40953571D01*
X93794046Y-40711309D01*
X93794041Y-40711299D01*
X93662924Y-40484196D01*
X93503281Y-40276148D01*
X93503274Y-40276140D01*
X93317860Y-40090726D01*
X93317851Y-40090718D01*
X93109803Y-39931075D01*
X92882700Y-39799958D01*
X92882690Y-39799953D01*
X92640428Y-39699605D01*
X92640421Y-39699603D01*
X92640419Y-39699602D01*
X92387116Y-39631730D01*
X92329339Y-39624123D01*
X92127127Y-39597500D01*
X92127120Y-39597500D01*
X91864880Y-39597500D01*
X91864872Y-39597500D01*
X91633772Y-39627926D01*
X91604884Y-39631730D01*
X91351581Y-39699602D01*
X91351571Y-39699605D01*
X91109309Y-39799953D01*
X91109299Y-39799958D01*
X90882196Y-39931075D01*
X90674148Y-40090718D01*
X90488718Y-40276148D01*
X90329075Y-40484196D01*
X90197958Y-40711299D01*
X90197953Y-40711309D01*
X90097605Y-40953571D01*
X90097602Y-40953581D01*
X90029730Y-41206884D01*
X90025926Y-41235772D01*
X89995500Y-41466872D01*
X89995500Y-41729127D01*
X90018177Y-41901366D01*
X90029730Y-41989116D01*
X90072839Y-42150000D01*
X90097602Y-42242418D01*
X90097605Y-42242428D01*
X90197953Y-42484690D01*
X90197958Y-42484700D01*
X90329075Y-42711803D01*
X90478863Y-42907008D01*
X90504058Y-42972177D01*
X90490020Y-43040622D01*
X90441206Y-43090612D01*
X90380488Y-43106495D01*
X80524688Y-43106495D01*
X80378932Y-43135488D01*
X80378924Y-43135490D01*
X80241613Y-43192366D01*
X80118040Y-43274934D01*
X80118039Y-43274935D01*
X80083823Y-43309152D01*
X80012946Y-43380029D01*
X80012944Y-43380031D01*
X75913943Y-47479030D01*
X75913942Y-47479031D01*
X75831372Y-47602607D01*
X75831366Y-47602618D01*
X75774496Y-47739916D01*
X75774493Y-47739926D01*
X75745499Y-47885685D01*
X75745499Y-48040425D01*
X75745500Y-48040446D01*
X75745500Y-117192113D01*
X75725815Y-117259152D01*
X75709181Y-117279794D01*
X67112010Y-125876964D01*
X66977947Y-126011027D01*
X66977945Y-126011028D01*
X66954356Y-126046330D01*
X66938937Y-126065116D01*
X64745943Y-128258109D01*
X64745942Y-128258110D01*
X64663368Y-128381693D01*
X64630053Y-128462124D01*
X64607347Y-128516942D01*
X64607343Y-128516953D01*
X64606495Y-128518997D01*
X64577499Y-128664765D01*
X64577499Y-128819504D01*
X64577500Y-128819525D01*
X64577500Y-131359653D01*
X64557815Y-131426692D01*
X64505011Y-131472447D01*
X64484169Y-131479801D01*
X64483366Y-131480005D01*
X64353572Y-131542105D01*
X64270854Y-131597375D01*
X64270840Y-131597385D01*
X64227527Y-131629809D01*
X64131377Y-131736851D01*
X64131377Y-131736852D01*
X64076102Y-131819576D01*
X64048491Y-131866112D01*
X64048490Y-131866113D01*
X64000625Y-132001789D01*
X64000624Y-132001796D01*
X63981212Y-132099383D01*
X63978328Y-132128668D01*
X63971500Y-132198000D01*
X44500500Y-132198000D01*
X44500500Y-117285153D01*
X56079500Y-117285153D01*
X56079500Y-117442846D01*
X56110261Y-117597489D01*
X56110264Y-117597501D01*
X56170602Y-117743172D01*
X56170609Y-117743185D01*
X56258210Y-117874288D01*
X56258213Y-117874292D01*
X56369707Y-117985786D01*
X56369711Y-117985789D01*
X56500814Y-118073390D01*
X56500827Y-118073397D01*
X56623867Y-118124361D01*
X56646503Y-118133737D01*
X56669443Y-118138300D01*
X56731353Y-118170682D01*
X56732935Y-118172236D01*
X57094408Y-118533709D01*
X57127893Y-118595032D01*
X57125764Y-118648192D01*
X57127451Y-118648528D01*
X57095500Y-118809153D01*
X57095500Y-118966846D01*
X57126261Y-119121489D01*
X57126264Y-119121501D01*
X57186602Y-119267172D01*
X57186609Y-119267185D01*
X57274210Y-119398288D01*
X57274213Y-119398292D01*
X57385707Y-119509786D01*
X57385711Y-119509789D01*
X57516814Y-119597390D01*
X57516827Y-119597397D01*
X57613419Y-119637406D01*
X57662503Y-119657737D01*
X57817153Y-119688499D01*
X57817156Y-119688500D01*
X57817158Y-119688500D01*
X57974844Y-119688500D01*
X57974845Y-119688499D01*
X58129497Y-119657737D01*
X58245906Y-119609519D01*
X58275172Y-119597397D01*
X58275172Y-119597396D01*
X58275179Y-119597394D01*
X58406289Y-119509789D01*
X58517789Y-119398289D01*
X58605394Y-119267179D01*
X58665737Y-119121497D01*
X58696500Y-118966842D01*
X58696500Y-118809158D01*
X58696500Y-118809155D01*
X58696499Y-118809153D01*
X58696041Y-118806851D01*
X58665737Y-118654503D01*
X58656295Y-118631707D01*
X58605397Y-118508827D01*
X58605390Y-118508814D01*
X58592398Y-118489370D01*
X58587172Y-118473670D01*
X58578562Y-118461728D01*
X58573650Y-118433037D01*
X58571678Y-118427112D01*
X58571500Y-118423789D01*
X58571500Y-118313469D01*
X58565142Y-118281505D01*
X58545541Y-118182964D01*
X58494620Y-118060031D01*
X58494618Y-118060028D01*
X58494616Y-118060024D01*
X58420695Y-117949394D01*
X58420692Y-117949390D01*
X57688236Y-117216935D01*
X57654751Y-117155612D01*
X57654314Y-117153514D01*
X57649737Y-117130503D01*
X57648050Y-117126431D01*
X57589397Y-116984827D01*
X57589390Y-116984814D01*
X57501789Y-116853711D01*
X57501786Y-116853707D01*
X57390292Y-116742213D01*
X57390288Y-116742210D01*
X57259185Y-116654609D01*
X57259172Y-116654602D01*
X57113501Y-116594264D01*
X57113489Y-116594261D01*
X56958845Y-116563500D01*
X56958842Y-116563500D01*
X56801158Y-116563500D01*
X56801155Y-116563500D01*
X56646510Y-116594261D01*
X56646498Y-116594264D01*
X56500827Y-116654602D01*
X56500814Y-116654609D01*
X56369711Y-116742210D01*
X56369707Y-116742213D01*
X56258213Y-116853707D01*
X56258210Y-116853711D01*
X56170609Y-116984814D01*
X56170602Y-116984827D01*
X56110264Y-117130498D01*
X56110261Y-117130510D01*
X56079500Y-117285153D01*
X44500500Y-117285153D01*
X44500500Y-104056872D01*
X55105500Y-104056872D01*
X55105500Y-104319127D01*
X55126436Y-104478140D01*
X55139730Y-104579116D01*
X55161178Y-104659161D01*
X55207602Y-104832418D01*
X55207605Y-104832428D01*
X55307953Y-105074690D01*
X55307958Y-105074700D01*
X55439075Y-105301803D01*
X55598718Y-105509851D01*
X55598726Y-105509860D01*
X55784140Y-105695274D01*
X55784148Y-105695281D01*
X55992196Y-105854924D01*
X56219299Y-105986041D01*
X56219309Y-105986046D01*
X56461571Y-106086394D01*
X56461581Y-106086398D01*
X56714884Y-106154270D01*
X56974880Y-106188500D01*
X56974887Y-106188500D01*
X57237113Y-106188500D01*
X57237120Y-106188500D01*
X57497116Y-106154270D01*
X57750419Y-106086398D01*
X57992697Y-105986043D01*
X58219803Y-105854924D01*
X58427851Y-105695282D01*
X58427855Y-105695277D01*
X58427860Y-105695274D01*
X58613274Y-105509860D01*
X58613277Y-105509855D01*
X58613282Y-105509851D01*
X58772924Y-105301803D01*
X58904043Y-105074697D01*
X59004398Y-104832419D01*
X59072270Y-104579116D01*
X59106500Y-104319120D01*
X59106500Y-104056880D01*
X59072270Y-103796884D01*
X59004398Y-103543581D01*
X59004394Y-103543571D01*
X58904046Y-103301309D01*
X58904041Y-103301299D01*
X58772924Y-103074196D01*
X58613281Y-102866148D01*
X58613274Y-102866140D01*
X58427860Y-102680726D01*
X58427851Y-102680718D01*
X58219803Y-102521075D01*
X57992700Y-102389958D01*
X57992690Y-102389953D01*
X57750428Y-102289605D01*
X57750421Y-102289603D01*
X57750419Y-102289602D01*
X57497116Y-102221730D01*
X57433283Y-102213326D01*
X57237127Y-102187500D01*
X57237120Y-102187500D01*
X56974880Y-102187500D01*
X56974872Y-102187500D01*
X56743772Y-102217926D01*
X56714884Y-102221730D01*
X56539861Y-102268627D01*
X56461581Y-102289602D01*
X56461571Y-102289605D01*
X56219309Y-102389953D01*
X56219299Y-102389958D01*
X55992196Y-102521075D01*
X55784148Y-102680718D01*
X55598718Y-102866148D01*
X55439075Y-103074196D01*
X55307958Y-103301299D01*
X55307953Y-103301309D01*
X55207605Y-103543571D01*
X55207602Y-103543581D01*
X55139730Y-103796885D01*
X55105500Y-104056872D01*
X44500500Y-104056872D01*
X44500500Y-40065464D01*
X52664500Y-40065464D01*
X52664500Y-56454535D01*
X52690457Y-56585028D01*
X52690459Y-56585036D01*
X52741378Y-56707965D01*
X52741383Y-56707975D01*
X52815304Y-56818605D01*
X52815307Y-56818609D01*
X54016327Y-58019628D01*
X54049812Y-58080951D01*
X54051119Y-58126707D01*
X54021500Y-58313713D01*
X54021500Y-58526286D01*
X54054753Y-58736239D01*
X54120444Y-58938414D01*
X54216951Y-59127820D01*
X54341890Y-59299786D01*
X54492213Y-59450109D01*
X54664182Y-59575050D01*
X54672946Y-59579516D01*
X54723742Y-59627491D01*
X54740536Y-59695312D01*
X54717998Y-59761447D01*
X54672946Y-59800484D01*
X54664182Y-59804949D01*
X54492213Y-59929890D01*
X54341890Y-60080213D01*
X54216951Y-60252179D01*
X54120444Y-60441585D01*
X54054753Y-60643760D01*
X54021500Y-60853713D01*
X54021500Y-61066286D01*
X54054753Y-61276239D01*
X54120444Y-61478414D01*
X54216951Y-61667820D01*
X54341890Y-61839786D01*
X54492213Y-61990109D01*
X54664182Y-62115050D01*
X54672946Y-62119516D01*
X54723742Y-62167491D01*
X54740536Y-62235312D01*
X54717998Y-62301447D01*
X54672946Y-62340484D01*
X54664182Y-62344949D01*
X54492213Y-62469890D01*
X54341890Y-62620213D01*
X54216951Y-62792179D01*
X54120444Y-62981585D01*
X54054753Y-63183760D01*
X54021500Y-63393713D01*
X54021500Y-63606286D01*
X54054753Y-63816239D01*
X54120444Y-64018414D01*
X54216951Y-64207820D01*
X54341890Y-64379786D01*
X54492213Y-64530109D01*
X54664182Y-64655050D01*
X54672946Y-64659516D01*
X54723742Y-64707491D01*
X54740536Y-64775312D01*
X54717998Y-64841447D01*
X54672946Y-64880484D01*
X54664182Y-64884949D01*
X54492213Y-65009890D01*
X54341890Y-65160213D01*
X54216951Y-65332179D01*
X54120444Y-65521585D01*
X54054753Y-65723760D01*
X54021500Y-65933713D01*
X54021500Y-66146286D01*
X54054753Y-66356239D01*
X54120444Y-66558414D01*
X54216951Y-66747820D01*
X54341890Y-66919786D01*
X54492213Y-67070109D01*
X54664182Y-67195050D01*
X54672946Y-67199516D01*
X54723742Y-67247491D01*
X54740536Y-67315312D01*
X54717998Y-67381447D01*
X54672946Y-67420484D01*
X54664182Y-67424949D01*
X54492213Y-67549890D01*
X54341890Y-67700213D01*
X54216951Y-67872179D01*
X54120444Y-68061585D01*
X54054753Y-68263760D01*
X54021500Y-68473713D01*
X54021500Y-68686287D01*
X54054754Y-68896243D01*
X54085592Y-68991153D01*
X54120444Y-69098414D01*
X54216951Y-69287820D01*
X54341890Y-69459786D01*
X54492213Y-69610109D01*
X54664182Y-69735050D01*
X54672946Y-69739516D01*
X54723742Y-69787491D01*
X54740536Y-69855312D01*
X54717998Y-69921447D01*
X54672946Y-69960484D01*
X54664182Y-69964949D01*
X54492213Y-70089890D01*
X54341890Y-70240213D01*
X54216951Y-70412179D01*
X54120444Y-70601585D01*
X54054753Y-70803760D01*
X54021500Y-71013713D01*
X54021500Y-71226286D01*
X54054753Y-71436239D01*
X54120444Y-71638414D01*
X54216951Y-71827820D01*
X54341890Y-71999786D01*
X54492213Y-72150109D01*
X54664182Y-72275050D01*
X54672946Y-72279516D01*
X54723742Y-72327491D01*
X54740536Y-72395312D01*
X54717998Y-72461447D01*
X54672946Y-72500484D01*
X54664182Y-72504949D01*
X54492213Y-72629890D01*
X54341890Y-72780213D01*
X54216951Y-72952179D01*
X54120444Y-73141585D01*
X54054753Y-73343760D01*
X54021500Y-73553713D01*
X54021500Y-73766287D01*
X54054754Y-73976243D01*
X54102451Y-74123040D01*
X54120444Y-74178414D01*
X54216951Y-74367820D01*
X54341890Y-74539786D01*
X54492213Y-74690109D01*
X54664182Y-74815050D01*
X54672946Y-74819516D01*
X54723742Y-74867491D01*
X54740536Y-74935312D01*
X54717998Y-75001447D01*
X54672946Y-75040484D01*
X54664182Y-75044949D01*
X54492213Y-75169890D01*
X54341890Y-75320213D01*
X54216951Y-75492179D01*
X54120444Y-75681585D01*
X54054753Y-75883760D01*
X54021500Y-76093713D01*
X54021500Y-76306286D01*
X54054753Y-76516239D01*
X54120444Y-76718414D01*
X54216951Y-76907820D01*
X54341890Y-77079786D01*
X54492213Y-77230109D01*
X54664182Y-77355050D01*
X54672946Y-77359516D01*
X54723742Y-77407491D01*
X54740536Y-77475312D01*
X54717998Y-77541447D01*
X54672946Y-77580484D01*
X54664182Y-77584949D01*
X54492213Y-77709890D01*
X54341890Y-77860213D01*
X54216951Y-78032179D01*
X54120444Y-78221585D01*
X54054753Y-78423760D01*
X54023562Y-78620692D01*
X54021500Y-78633713D01*
X54021500Y-78846287D01*
X54022765Y-78854273D01*
X54054753Y-79056239D01*
X54120444Y-79258414D01*
X54216951Y-79447820D01*
X54341890Y-79619786D01*
X54492213Y-79770109D01*
X54664182Y-79895050D01*
X54672946Y-79899516D01*
X54723742Y-79947491D01*
X54740536Y-80015312D01*
X54717998Y-80081447D01*
X54672946Y-80120484D01*
X54664182Y-80124949D01*
X54492213Y-80249890D01*
X54341890Y-80400213D01*
X54216951Y-80572179D01*
X54120444Y-80761585D01*
X54054753Y-80963760D01*
X54038787Y-81064567D01*
X54021500Y-81173713D01*
X54021500Y-81386287D01*
X54054754Y-81596243D01*
X54085592Y-81691153D01*
X54120444Y-81798414D01*
X54216951Y-81987820D01*
X54341890Y-82159786D01*
X54492213Y-82310109D01*
X54664182Y-82435050D01*
X54672946Y-82439516D01*
X54723742Y-82487491D01*
X54740536Y-82555312D01*
X54717998Y-82621447D01*
X54672946Y-82660484D01*
X54664182Y-82664949D01*
X54492213Y-82789890D01*
X54341890Y-82940213D01*
X54216951Y-83112179D01*
X54120444Y-83301585D01*
X54054753Y-83503760D01*
X54036086Y-83621621D01*
X54021500Y-83713713D01*
X54021500Y-83926287D01*
X54054754Y-84136243D01*
X54085592Y-84231153D01*
X54120444Y-84338414D01*
X54216951Y-84527820D01*
X54341890Y-84699786D01*
X54492213Y-84850109D01*
X54664182Y-84975050D01*
X54672946Y-84979516D01*
X54723742Y-85027491D01*
X54740536Y-85095312D01*
X54717998Y-85161447D01*
X54672946Y-85200484D01*
X54664182Y-85204949D01*
X54492213Y-85329890D01*
X54341890Y-85480213D01*
X54216951Y-85652179D01*
X54120444Y-85841585D01*
X54054753Y-86043760D01*
X54021500Y-86253713D01*
X54021500Y-86466286D01*
X54054753Y-86676239D01*
X54120444Y-86878414D01*
X54216951Y-87067820D01*
X54341890Y-87239786D01*
X54492213Y-87390109D01*
X54664182Y-87515050D01*
X54672946Y-87519516D01*
X54723742Y-87567491D01*
X54740536Y-87635312D01*
X54717998Y-87701447D01*
X54672946Y-87740484D01*
X54664182Y-87744949D01*
X54492213Y-87869890D01*
X54341890Y-88020213D01*
X54216951Y-88192179D01*
X54120444Y-88381585D01*
X54054753Y-88583760D01*
X54021500Y-88793713D01*
X54021500Y-89006286D01*
X54054753Y-89216239D01*
X54120444Y-89418414D01*
X54216951Y-89607820D01*
X54341890Y-89779786D01*
X54492213Y-89930109D01*
X54664182Y-90055050D01*
X54672946Y-90059516D01*
X54723742Y-90107491D01*
X54740536Y-90175312D01*
X54717998Y-90241447D01*
X54672946Y-90280484D01*
X54664182Y-90284949D01*
X54492213Y-90409890D01*
X54341890Y-90560213D01*
X54216951Y-90732179D01*
X54120444Y-90921585D01*
X54054753Y-91123760D01*
X54021500Y-91333713D01*
X54021500Y-91546286D01*
X54054753Y-91756239D01*
X54120444Y-91958414D01*
X54216951Y-92147820D01*
X54341890Y-92319786D01*
X54492213Y-92470109D01*
X54664182Y-92595050D01*
X54672946Y-92599516D01*
X54723742Y-92647491D01*
X54740536Y-92715312D01*
X54717998Y-92781447D01*
X54672946Y-92820484D01*
X54664182Y-92824949D01*
X54492213Y-92949890D01*
X54341890Y-93100213D01*
X54216951Y-93272179D01*
X54120444Y-93461585D01*
X54054753Y-93663760D01*
X54021500Y-93873713D01*
X54021500Y-94086286D01*
X54044816Y-94233501D01*
X54054754Y-94296243D01*
X54085592Y-94391153D01*
X54120444Y-94498414D01*
X54216951Y-94687820D01*
X54341890Y-94859786D01*
X54492213Y-95010109D01*
X54664182Y-95135050D01*
X54672946Y-95139516D01*
X54723742Y-95187491D01*
X54740536Y-95255312D01*
X54717998Y-95321447D01*
X54672946Y-95360484D01*
X54664182Y-95364949D01*
X54492213Y-95489890D01*
X54341890Y-95640213D01*
X54216951Y-95812179D01*
X54120444Y-96001585D01*
X54054753Y-96203760D01*
X54021500Y-96413713D01*
X54021500Y-96626286D01*
X54054753Y-96836239D01*
X54120444Y-97038414D01*
X54216951Y-97227820D01*
X54341890Y-97399786D01*
X54492213Y-97550109D01*
X54664182Y-97675050D01*
X54672946Y-97679516D01*
X54723742Y-97727491D01*
X54740536Y-97795312D01*
X54717998Y-97861447D01*
X54672946Y-97900484D01*
X54664182Y-97904949D01*
X54492213Y-98029890D01*
X54341890Y-98180213D01*
X54216951Y-98352179D01*
X54120444Y-98541585D01*
X54054753Y-98743760D01*
X54021500Y-98953713D01*
X54021500Y-99166287D01*
X54054754Y-99376243D01*
X54108275Y-99540964D01*
X54120444Y-99578414D01*
X54216951Y-99767820D01*
X54341890Y-99939786D01*
X54492213Y-100090109D01*
X54664179Y-100215048D01*
X54664181Y-100215049D01*
X54664184Y-100215051D01*
X54853588Y-100311557D01*
X55055757Y-100377246D01*
X55265713Y-100410500D01*
X55265714Y-100410500D01*
X55478286Y-100410500D01*
X55478287Y-100410500D01*
X55688243Y-100377246D01*
X55890412Y-100311557D01*
X56079816Y-100215051D01*
X56251792Y-100090104D01*
X56365329Y-99976566D01*
X56426648Y-99943084D01*
X56496340Y-99948068D01*
X56552274Y-99989939D01*
X56569189Y-100020917D01*
X56618202Y-100152328D01*
X56618206Y-100152335D01*
X56704452Y-100267544D01*
X56704455Y-100267547D01*
X56819664Y-100353793D01*
X56819671Y-100353797D01*
X56954517Y-100404091D01*
X56954516Y-100404091D01*
X56961444Y-100404835D01*
X57014127Y-100410500D01*
X58809872Y-100410499D01*
X58869483Y-100404091D01*
X59004331Y-100353796D01*
X59119546Y-100267546D01*
X59205796Y-100152331D01*
X59256091Y-100017483D01*
X59262500Y-99957873D01*
X59262499Y-98162128D01*
X59256091Y-98102517D01*
X59254810Y-98099083D01*
X59205797Y-97967671D01*
X59205793Y-97967664D01*
X59119547Y-97852455D01*
X59119544Y-97852452D01*
X59004335Y-97766206D01*
X59004328Y-97766202D01*
X58872917Y-97717189D01*
X58816983Y-97675318D01*
X58792566Y-97609853D01*
X58807418Y-97541580D01*
X58828563Y-97513332D01*
X58942104Y-97399792D01*
X58965462Y-97367643D01*
X59067048Y-97227820D01*
X59067047Y-97227820D01*
X59067051Y-97227816D01*
X59163557Y-97038412D01*
X59229246Y-96836243D01*
X59262500Y-96626287D01*
X59262500Y-96413713D01*
X59229246Y-96203757D01*
X59163557Y-96001588D01*
X59067051Y-95812184D01*
X59067049Y-95812181D01*
X59067048Y-95812179D01*
X58942109Y-95640213D01*
X58791786Y-95489890D01*
X58619820Y-95364951D01*
X58619115Y-95364591D01*
X58611054Y-95360485D01*
X58560259Y-95312512D01*
X58543463Y-95244692D01*
X58565999Y-95178556D01*
X58611054Y-95139515D01*
X58619816Y-95135051D01*
X58661153Y-95105018D01*
X58791786Y-95010109D01*
X58791788Y-95010106D01*
X58791792Y-95010104D01*
X58942104Y-94859792D01*
X58942106Y-94859788D01*
X58942109Y-94859786D01*
X59067048Y-94687820D01*
X59067047Y-94687820D01*
X59067051Y-94687816D01*
X59163557Y-94498412D01*
X59229246Y-94296243D01*
X59262500Y-94086287D01*
X59262500Y-93873713D01*
X59229246Y-93663757D01*
X59163557Y-93461588D01*
X59067051Y-93272184D01*
X59067049Y-93272181D01*
X59067048Y-93272179D01*
X58942109Y-93100213D01*
X58791786Y-92949890D01*
X58619820Y-92824951D01*
X58616693Y-92823358D01*
X58611054Y-92820485D01*
X58560259Y-92772512D01*
X58543463Y-92704692D01*
X58565999Y-92638556D01*
X58611054Y-92599515D01*
X58619816Y-92595051D01*
X58641789Y-92579086D01*
X58791786Y-92470109D01*
X58791788Y-92470106D01*
X58791792Y-92470104D01*
X58942104Y-92319792D01*
X58942106Y-92319788D01*
X58942109Y-92319786D01*
X59067048Y-92147820D01*
X59067047Y-92147820D01*
X59067051Y-92147816D01*
X59163557Y-91958412D01*
X59229246Y-91756243D01*
X59262500Y-91546287D01*
X59262500Y-91333713D01*
X59229246Y-91123757D01*
X59163557Y-90921588D01*
X59067051Y-90732184D01*
X59067049Y-90732181D01*
X59067048Y-90732179D01*
X58942109Y-90560213D01*
X58791786Y-90409890D01*
X58619820Y-90284951D01*
X58619115Y-90284591D01*
X58611054Y-90280485D01*
X58560259Y-90232512D01*
X58543463Y-90164692D01*
X58565999Y-90098556D01*
X58611054Y-90059515D01*
X58619816Y-90055051D01*
X58641789Y-90039086D01*
X58791786Y-89930109D01*
X58791788Y-89930106D01*
X58791792Y-89930104D01*
X58942104Y-89779792D01*
X58942106Y-89779788D01*
X58942109Y-89779786D01*
X59067048Y-89607820D01*
X59067047Y-89607820D01*
X59067051Y-89607816D01*
X59163557Y-89418412D01*
X59229246Y-89216243D01*
X59262500Y-89006287D01*
X59262500Y-88793713D01*
X59229246Y-88583757D01*
X59163557Y-88381588D01*
X59067051Y-88192184D01*
X59067049Y-88192181D01*
X59067048Y-88192179D01*
X58942109Y-88020213D01*
X58791786Y-87869890D01*
X58619820Y-87744951D01*
X58619115Y-87744591D01*
X58611054Y-87740485D01*
X58560259Y-87692512D01*
X58543463Y-87624692D01*
X58565999Y-87558556D01*
X58611054Y-87519515D01*
X58619816Y-87515051D01*
X58641789Y-87499086D01*
X58791786Y-87390109D01*
X58791788Y-87390106D01*
X58791792Y-87390104D01*
X58942104Y-87239792D01*
X58942106Y-87239788D01*
X58942109Y-87239786D01*
X59067048Y-87067820D01*
X59067047Y-87067820D01*
X59067051Y-87067816D01*
X59163557Y-86878412D01*
X59229246Y-86676243D01*
X59262500Y-86466287D01*
X59262500Y-86253713D01*
X59229246Y-86043757D01*
X59163557Y-85841588D01*
X59067051Y-85652184D01*
X59067049Y-85652181D01*
X59067048Y-85652179D01*
X58942109Y-85480213D01*
X58791786Y-85329890D01*
X58619820Y-85204951D01*
X58619115Y-85204591D01*
X58611054Y-85200485D01*
X58560259Y-85152512D01*
X58543463Y-85084692D01*
X58565999Y-85018556D01*
X58611054Y-84979515D01*
X58619816Y-84975051D01*
X58661153Y-84945018D01*
X58791786Y-84850109D01*
X58791788Y-84850106D01*
X58791792Y-84850104D01*
X58942104Y-84699792D01*
X58942106Y-84699788D01*
X58942109Y-84699786D01*
X59067048Y-84527820D01*
X59067047Y-84527820D01*
X59067051Y-84527816D01*
X59163557Y-84338412D01*
X59229246Y-84136243D01*
X59262500Y-83926287D01*
X59262500Y-83713713D01*
X59229246Y-83503757D01*
X59163557Y-83301588D01*
X59067051Y-83112184D01*
X59067049Y-83112181D01*
X59067048Y-83112179D01*
X58942109Y-82940213D01*
X58791786Y-82789890D01*
X58619820Y-82664951D01*
X58619115Y-82664591D01*
X58611054Y-82660485D01*
X58560259Y-82612512D01*
X58543463Y-82544692D01*
X58565999Y-82478556D01*
X58611054Y-82439515D01*
X58619816Y-82435051D01*
X58661153Y-82405018D01*
X58791786Y-82310109D01*
X58791788Y-82310106D01*
X58791792Y-82310104D01*
X58942104Y-82159792D01*
X58942106Y-82159788D01*
X58942109Y-82159786D01*
X59067048Y-81987820D01*
X59067047Y-81987820D01*
X59067051Y-81987816D01*
X59163557Y-81798412D01*
X59229246Y-81596243D01*
X59262500Y-81386287D01*
X59262500Y-81173713D01*
X59229246Y-80963757D01*
X59163557Y-80761588D01*
X59067051Y-80572184D01*
X59067049Y-80572181D01*
X59067048Y-80572179D01*
X58942109Y-80400213D01*
X58791786Y-80249890D01*
X58619820Y-80124951D01*
X58616693Y-80123358D01*
X58611054Y-80120485D01*
X58560259Y-80072512D01*
X58543463Y-80004692D01*
X58565999Y-79938556D01*
X58611054Y-79899515D01*
X58619816Y-79895051D01*
X58641789Y-79879086D01*
X58791786Y-79770109D01*
X58791788Y-79770106D01*
X58791792Y-79770104D01*
X58942104Y-79619792D01*
X58942106Y-79619788D01*
X58942109Y-79619786D01*
X59067048Y-79447820D01*
X59067047Y-79447820D01*
X59067051Y-79447816D01*
X59163557Y-79258412D01*
X59229246Y-79056243D01*
X59262500Y-78846287D01*
X59262500Y-78633713D01*
X59229246Y-78423757D01*
X59163557Y-78221588D01*
X59067051Y-78032184D01*
X59067049Y-78032181D01*
X59067048Y-78032179D01*
X58942109Y-77860213D01*
X58791786Y-77709890D01*
X58619820Y-77584951D01*
X58619115Y-77584591D01*
X58611054Y-77580485D01*
X58560259Y-77532512D01*
X58543463Y-77464692D01*
X58565999Y-77398556D01*
X58611054Y-77359515D01*
X58619816Y-77355051D01*
X58641789Y-77339086D01*
X58791786Y-77230109D01*
X58791788Y-77230106D01*
X58791792Y-77230104D01*
X58942104Y-77079792D01*
X58942106Y-77079788D01*
X58942109Y-77079786D01*
X59067048Y-76907820D01*
X59067047Y-76907820D01*
X59067051Y-76907816D01*
X59163557Y-76718412D01*
X59229246Y-76516243D01*
X59262500Y-76306287D01*
X59262500Y-76093713D01*
X59229246Y-75883757D01*
X59163557Y-75681588D01*
X59067051Y-75492184D01*
X59067049Y-75492181D01*
X59067048Y-75492179D01*
X58942109Y-75320213D01*
X58791786Y-75169890D01*
X58619820Y-75044951D01*
X58619115Y-75044591D01*
X58611054Y-75040485D01*
X58560259Y-74992512D01*
X58543463Y-74924692D01*
X58565999Y-74858556D01*
X58611054Y-74819515D01*
X58619816Y-74815051D01*
X58690239Y-74763886D01*
X58791786Y-74690109D01*
X58791788Y-74690106D01*
X58791792Y-74690104D01*
X58942104Y-74539792D01*
X58942106Y-74539788D01*
X58942109Y-74539786D01*
X59067048Y-74367820D01*
X59067047Y-74367820D01*
X59067051Y-74367816D01*
X59163557Y-74178412D01*
X59229246Y-73976243D01*
X59262500Y-73766287D01*
X59262500Y-73553713D01*
X59229246Y-73343757D01*
X59163557Y-73141588D01*
X59067051Y-72952184D01*
X59067049Y-72952181D01*
X59067048Y-72952179D01*
X58942109Y-72780213D01*
X58791786Y-72629890D01*
X58619820Y-72504951D01*
X58619115Y-72504591D01*
X58611054Y-72500485D01*
X58560259Y-72452512D01*
X58543463Y-72384692D01*
X58565999Y-72318556D01*
X58611054Y-72279515D01*
X58619816Y-72275051D01*
X58641789Y-72259086D01*
X58791786Y-72150109D01*
X58791788Y-72150106D01*
X58791792Y-72150104D01*
X58942104Y-71999792D01*
X58942106Y-71999788D01*
X58942109Y-71999786D01*
X59067048Y-71827820D01*
X59067047Y-71827820D01*
X59067051Y-71827816D01*
X59163557Y-71638412D01*
X59229246Y-71436243D01*
X59262500Y-71226287D01*
X59262500Y-71013713D01*
X59229246Y-70803757D01*
X59163557Y-70601588D01*
X59067051Y-70412184D01*
X59067049Y-70412181D01*
X59067048Y-70412179D01*
X58942109Y-70240213D01*
X58791786Y-70089890D01*
X58619820Y-69964951D01*
X58619115Y-69964591D01*
X58611054Y-69960485D01*
X58560259Y-69912512D01*
X58543463Y-69844692D01*
X58565999Y-69778556D01*
X58611054Y-69739515D01*
X58619816Y-69735051D01*
X58705966Y-69672460D01*
X58791786Y-69610109D01*
X58791788Y-69610106D01*
X58791792Y-69610104D01*
X58942104Y-69459792D01*
X58942106Y-69459788D01*
X58942109Y-69459786D01*
X59067048Y-69287820D01*
X59067047Y-69287820D01*
X59067051Y-69287816D01*
X59163557Y-69098412D01*
X59229246Y-68896243D01*
X59262500Y-68686287D01*
X59262500Y-68473713D01*
X59229246Y-68263757D01*
X59163557Y-68061588D01*
X59067051Y-67872184D01*
X59067049Y-67872181D01*
X59067048Y-67872179D01*
X58942109Y-67700213D01*
X58791786Y-67549890D01*
X58619820Y-67424951D01*
X58619115Y-67424591D01*
X58611054Y-67420485D01*
X58560259Y-67372512D01*
X58543463Y-67304692D01*
X58565999Y-67238556D01*
X58611054Y-67199515D01*
X58619816Y-67195051D01*
X58706138Y-67132335D01*
X58791786Y-67070109D01*
X58791788Y-67070106D01*
X58791792Y-67070104D01*
X58942104Y-66919792D01*
X58942106Y-66919788D01*
X58942109Y-66919786D01*
X59067048Y-66747820D01*
X59067047Y-66747820D01*
X59067051Y-66747816D01*
X59163557Y-66558412D01*
X59229246Y-66356243D01*
X59262500Y-66146287D01*
X59262500Y-65933713D01*
X59229246Y-65723757D01*
X59163557Y-65521588D01*
X59067051Y-65332184D01*
X59067049Y-65332181D01*
X59067048Y-65332179D01*
X58942109Y-65160213D01*
X58791786Y-65009890D01*
X58619820Y-64884951D01*
X58619115Y-64884591D01*
X58611054Y-64880485D01*
X58560259Y-64832512D01*
X58543463Y-64764692D01*
X58565999Y-64698556D01*
X58611054Y-64659515D01*
X58619816Y-64655051D01*
X58641789Y-64639086D01*
X58791786Y-64530109D01*
X58791788Y-64530106D01*
X58791792Y-64530104D01*
X58942104Y-64379792D01*
X58942106Y-64379788D01*
X58942109Y-64379786D01*
X59067048Y-64207820D01*
X59067047Y-64207820D01*
X59067051Y-64207816D01*
X59163557Y-64018412D01*
X59229246Y-63816243D01*
X59262500Y-63606287D01*
X59262500Y-63393713D01*
X59229246Y-63183757D01*
X59163557Y-62981588D01*
X59067051Y-62792184D01*
X59067049Y-62792181D01*
X59067048Y-62792179D01*
X58942109Y-62620213D01*
X58791786Y-62469890D01*
X58619820Y-62344951D01*
X58619115Y-62344591D01*
X58611054Y-62340485D01*
X58560259Y-62292512D01*
X58543463Y-62224692D01*
X58565999Y-62158556D01*
X58611054Y-62119515D01*
X58619816Y-62115051D01*
X58641789Y-62099086D01*
X58791786Y-61990109D01*
X58791788Y-61990106D01*
X58791792Y-61990104D01*
X58942104Y-61839792D01*
X58942106Y-61839788D01*
X58942109Y-61839786D01*
X59067048Y-61667820D01*
X59067047Y-61667820D01*
X59067051Y-61667816D01*
X59163557Y-61478412D01*
X59229246Y-61276243D01*
X59262500Y-61066287D01*
X59262500Y-60853713D01*
X59229246Y-60643757D01*
X59163557Y-60441588D01*
X59067051Y-60252184D01*
X59067049Y-60252181D01*
X59067048Y-60252179D01*
X58942109Y-60080213D01*
X58791786Y-59929890D01*
X58619820Y-59804951D01*
X58619115Y-59804591D01*
X58611054Y-59800485D01*
X58560259Y-59752512D01*
X58543463Y-59684692D01*
X58565999Y-59618556D01*
X58611054Y-59579515D01*
X58619816Y-59575051D01*
X58641789Y-59559086D01*
X58791786Y-59450109D01*
X58791788Y-59450106D01*
X58791792Y-59450104D01*
X58942104Y-59299792D01*
X58942106Y-59299788D01*
X58942109Y-59299786D01*
X59067048Y-59127820D01*
X59067047Y-59127820D01*
X59067051Y-59127816D01*
X59163557Y-58938412D01*
X59229246Y-58736243D01*
X59262500Y-58526287D01*
X59262500Y-58313713D01*
X59232880Y-58126703D01*
X59241834Y-58057413D01*
X59267669Y-58019630D01*
X59933482Y-57353819D01*
X59994805Y-57320334D01*
X60021163Y-57317500D01*
X71186532Y-57317500D01*
X71186533Y-57317499D01*
X71317036Y-57291541D01*
X71439969Y-57240620D01*
X71550606Y-57166695D01*
X74438695Y-54278606D01*
X74512620Y-54167969D01*
X74536232Y-54110965D01*
X74563541Y-54045036D01*
X74589500Y-53914531D01*
X74589500Y-53781469D01*
X74589500Y-41733163D01*
X74609185Y-41666124D01*
X74625819Y-41645482D01*
X76951482Y-39319819D01*
X77012805Y-39286334D01*
X77039163Y-39283500D01*
X95426837Y-39283500D01*
X95493876Y-39303185D01*
X95514518Y-39319819D01*
X98251762Y-42057063D01*
X98285247Y-42118386D01*
X98285698Y-42120551D01*
X98290261Y-42143493D01*
X98290263Y-42143499D01*
X98350602Y-42289172D01*
X98350609Y-42289185D01*
X98438210Y-42420288D01*
X98438213Y-42420292D01*
X98549707Y-42531786D01*
X98549711Y-42531789D01*
X98680814Y-42619390D01*
X98680827Y-42619397D01*
X98826498Y-42679735D01*
X98826503Y-42679737D01*
X98981153Y-42710499D01*
X98981156Y-42710500D01*
X98981158Y-42710500D01*
X99138844Y-42710500D01*
X99138845Y-42710499D01*
X99293497Y-42679737D01*
X99439179Y-42619394D01*
X99570289Y-42531789D01*
X99681789Y-42420289D01*
X99718898Y-42364752D01*
X99772510Y-42319947D01*
X99841835Y-42311240D01*
X99904863Y-42341394D01*
X99925102Y-42364752D01*
X99962210Y-42420288D01*
X99962213Y-42420292D01*
X100073707Y-42531786D01*
X100073711Y-42531789D01*
X100204814Y-42619390D01*
X100204827Y-42619397D01*
X100350498Y-42679735D01*
X100350503Y-42679737D01*
X100505153Y-42710499D01*
X100505156Y-42710500D01*
X100505158Y-42710500D01*
X100662844Y-42710500D01*
X100662845Y-42710499D01*
X100817497Y-42679737D01*
X100963179Y-42619394D01*
X101094289Y-42531789D01*
X101205789Y-42420289D01*
X101293394Y-42289179D01*
X101353737Y-42143497D01*
X101384500Y-41988842D01*
X101384500Y-41831158D01*
X101384500Y-41831155D01*
X101384499Y-41831153D01*
X101365007Y-41733163D01*
X101353737Y-41676503D01*
X101346000Y-41657824D01*
X101293397Y-41530827D01*
X101293390Y-41530814D01*
X101280398Y-41511370D01*
X101259520Y-41444692D01*
X101259500Y-41442479D01*
X101259500Y-40839935D01*
X101253048Y-40807502D01*
X101253048Y-40807500D01*
X101233541Y-40709430D01*
X101184944Y-40592109D01*
X101183300Y-40587514D01*
X101108698Y-40475864D01*
X101108697Y-40475863D01*
X101108695Y-40475860D01*
X101014606Y-40381771D01*
X99378334Y-38745499D01*
X97700143Y-37067307D01*
X97700139Y-37067304D01*
X97589509Y-36993383D01*
X97589499Y-36993378D01*
X97466570Y-36942459D01*
X97466562Y-36942457D01*
X97336069Y-36916500D01*
X97336065Y-36916500D01*
X55813469Y-36916500D01*
X55813467Y-36916500D01*
X55682969Y-36942458D01*
X55682959Y-36942461D01*
X55560038Y-36993376D01*
X55560020Y-36993386D01*
X55449398Y-37067301D01*
X55449390Y-37067307D01*
X52815307Y-39701390D01*
X52815304Y-39701394D01*
X52741383Y-39812024D01*
X52741378Y-39812034D01*
X52690460Y-39934961D01*
X52690457Y-39934971D01*
X52681308Y-39980967D01*
X52664500Y-40065464D01*
X44500500Y-40065464D01*
X44500500Y-38002706D01*
X44500618Y-37997297D01*
X44503377Y-37934108D01*
X44517386Y-37613226D01*
X44518326Y-37602495D01*
X44568152Y-37224025D01*
X44570025Y-37213405D01*
X44652649Y-36840709D01*
X44655440Y-36830295D01*
X44770230Y-36466227D01*
X44773917Y-36456095D01*
X44920003Y-36103412D01*
X44924561Y-36093638D01*
X45100822Y-35755045D01*
X45106217Y-35745700D01*
X45311325Y-35423744D01*
X45317515Y-35414905D01*
X45549896Y-35112060D01*
X45556834Y-35103791D01*
X45814726Y-34822352D01*
X45822352Y-34814726D01*
X46103791Y-34556834D01*
X46112060Y-34549896D01*
X46414905Y-34317515D01*
X46423744Y-34311325D01*
X46745700Y-34106217D01*
X46755045Y-34100822D01*
X47093638Y-33924561D01*
X47103412Y-33920003D01*
X47456095Y-33773917D01*
X47466227Y-33770230D01*
X47830295Y-33655440D01*
X47840709Y-33652649D01*
X48213405Y-33570025D01*
X48224025Y-33568152D01*
X48602495Y-33518326D01*
X48613226Y-33517386D01*
X48997297Y-33500617D01*
X49002706Y-33500500D01*
X49065892Y-33500500D01*
X137934108Y-33500500D01*
X137997294Y-33500500D01*
X138002702Y-33500617D01*
G37*
%TD.AperFunction*%
%TD*%
M02*
