%TF.GenerationSoftware,KiCad,Pcbnew,9.0.2*%
%TF.CreationDate,2025-06-04T00:41:33+07:00*%
%TF.ProjectId,Torque Vectoring Board,546f7271-7565-4205-9665-63746f72696e,rev?*%
%TF.SameCoordinates,Original*%
%TF.FileFunction,Soldermask,Top*%
%TF.FilePolarity,Negative*%
%FSLAX46Y46*%
G04 Gerber Fmt 4.6, Leading zero omitted, Abs format (unit mm)*
G04 Created by KiCad (PCBNEW 9.0.2) date 2025-06-04 00:41:33*
%MOMM*%
%LPD*%
G01*
G04 APERTURE LIST*
G04 Aperture macros list*
%AMRoundRect*
0 Rectangle with rounded corners*
0 $1 Rounding radius*
0 $2 $3 $4 $5 $6 $7 $8 $9 X,Y pos of 4 corners*
0 Add a 4 corners polygon primitive as box body*
4,1,4,$2,$3,$4,$5,$6,$7,$8,$9,$2,$3,0*
0 Add four circle primitives for the rounded corners*
1,1,$1+$1,$2,$3*
1,1,$1+$1,$4,$5*
1,1,$1+$1,$6,$7*
1,1,$1+$1,$8,$9*
0 Add four rect primitives between the rounded corners*
20,1,$1+$1,$2,$3,$4,$5,0*
20,1,$1+$1,$4,$5,$6,$7,0*
20,1,$1+$1,$6,$7,$8,$9,0*
20,1,$1+$1,$8,$9,$2,$3,0*%
%AMFreePoly0*
4,1,22,0.945671,0.830970,1.026777,0.776777,1.080970,0.695671,1.100000,0.600000,1.100000,-0.600000,1.080970,-0.695671,1.026777,-0.776777,0.945671,-0.830970,0.850000,-0.850000,-0.596447,-0.850000,-0.692118,-0.830970,-0.773224,-0.776777,-1.026777,-0.523224,-1.080970,-0.442118,-1.100000,-0.346447,-1.100000,0.600000,-1.080970,0.695671,-1.026777,0.776777,-0.945671,0.830970,-0.850000,0.850000,
0.850000,0.850000,0.945671,0.830970,0.945671,0.830970,$1*%
G04 Aperture macros list end*
%ADD10RoundRect,0.200000X0.275000X-0.200000X0.275000X0.200000X-0.275000X0.200000X-0.275000X-0.200000X0*%
%ADD11C,1.300000*%
%ADD12FreePoly0,90.000000*%
%ADD13O,1.700000X2.200000*%
%ADD14C,3.600000*%
%ADD15C,5.700000*%
%ADD16RoundRect,0.150000X-0.825000X-0.150000X0.825000X-0.150000X0.825000X0.150000X-0.825000X0.150000X0*%
%ADD17C,1.524000*%
%ADD18R,1.100000X0.250000*%
%ADD19RoundRect,0.200000X0.200000X0.275000X-0.200000X0.275000X-0.200000X-0.275000X0.200000X-0.275000X0*%
%ADD20FreePoly0,180.000000*%
%ADD21O,2.200000X1.700000*%
%ADD22RoundRect,0.200000X-0.200000X-0.275000X0.200000X-0.275000X0.200000X0.275000X-0.200000X0.275000X0*%
%ADD23RoundRect,0.225000X-0.250000X0.225000X-0.250000X-0.225000X0.250000X-0.225000X0.250000X0.225000X0*%
%ADD24RoundRect,0.200000X-0.275000X0.200000X-0.275000X-0.200000X0.275000X-0.200000X0.275000X0.200000X0*%
%ADD25RoundRect,0.250000X0.600000X-0.600000X0.600000X0.600000X-0.600000X0.600000X-0.600000X-0.600000X0*%
%ADD26C,1.700000*%
%ADD27R,1.700000X1.700000*%
%ADD28RoundRect,0.225000X0.250000X-0.225000X0.250000X0.225000X-0.250000X0.225000X-0.250000X-0.225000X0*%
%ADD29RoundRect,0.150000X0.825000X0.150000X-0.825000X0.150000X-0.825000X-0.150000X0.825000X-0.150000X0*%
G04 APERTURE END LIST*
D10*
%TO.C,R11*%
X105902000Y-126420500D03*
X105902000Y-124770500D03*
%TD*%
D11*
%TO.C,J3*%
X114250000Y-44340000D03*
D12*
X113000000Y-43000000D03*
D13*
X115500000Y-43000000D03*
%TD*%
D10*
%TO.C,R10*%
X103843166Y-126420500D03*
X103843166Y-124770500D03*
%TD*%
D14*
%TO.C,H3*%
X49000000Y-136000000D03*
D15*
X49000000Y-136000000D03*
%TD*%
D16*
%TO.C,U4*%
X91704500Y-115482500D03*
X91704500Y-116752500D03*
X91704500Y-118022500D03*
X91704500Y-119292500D03*
X96654500Y-119292500D03*
X96654500Y-118022500D03*
X96654500Y-116752500D03*
X96654500Y-115482500D03*
%TD*%
D17*
%TO.C,U2*%
X111450000Y-128185000D03*
X111450000Y-125645000D03*
X111450000Y-123105000D03*
X111450000Y-120565000D03*
X111450000Y-118025000D03*
X129230000Y-128185000D03*
X129230000Y-125645000D03*
X129230000Y-123105000D03*
X129230000Y-120565000D03*
X129230000Y-118025000D03*
%TD*%
D18*
%TO.C,U5*%
X95760000Y-124476000D03*
X95760000Y-124976000D03*
X95760000Y-125476000D03*
X95760000Y-125976000D03*
X95760000Y-126476000D03*
X100060000Y-126476000D03*
X100060000Y-125976000D03*
X100060000Y-125476000D03*
X100060000Y-124976000D03*
X100060000Y-124476000D03*
%TD*%
D19*
%TO.C,R5*%
X100631000Y-115482500D03*
X98981000Y-115482500D03*
%TD*%
D11*
%TO.C,12Vin1*%
X66582000Y-134388000D03*
D12*
X65332000Y-133048000D03*
D13*
X67832000Y-133048000D03*
%TD*%
D11*
%TO.C,5Vin1*%
X139615000Y-118618000D03*
D20*
X138275000Y-119868000D03*
D21*
X138275000Y-117368000D03*
%TD*%
D22*
%TO.C,R14*%
X90107000Y-126762000D03*
X91757000Y-126762000D03*
%TD*%
D23*
%TO.C,C2*%
X67132389Y-116579299D03*
X67132389Y-118129299D03*
%TD*%
D22*
%TO.C,R9*%
X80034500Y-124698000D03*
X81684500Y-124698000D03*
%TD*%
D19*
%TO.C,R12*%
X116228500Y-122952000D03*
X114578500Y-122952000D03*
%TD*%
D22*
%TO.C,R15*%
X90107000Y-124562000D03*
X91757000Y-124562000D03*
%TD*%
D24*
%TO.C,R3*%
X99298000Y-117705500D03*
X99298000Y-119355500D03*
%TD*%
D11*
%TO.C,J2*%
X98582000Y-134388000D03*
D25*
X92332000Y-133048000D03*
D26*
X94832000Y-133048000D03*
X97332000Y-133048000D03*
X99832000Y-133048000D03*
X102332000Y-133048000D03*
X104832000Y-133048000D03*
X92332000Y-130548000D03*
X94832000Y-130548000D03*
X97332000Y-130548000D03*
X99832000Y-130548000D03*
X102332000Y-130548000D03*
X104832000Y-130548000D03*
%TD*%
D19*
%TO.C,R2*%
X60487889Y-123691299D03*
X58837889Y-123691299D03*
%TD*%
D11*
%TO.C,J4*%
X124250000Y-44340000D03*
D12*
X123000000Y-43000000D03*
D13*
X125500000Y-43000000D03*
%TD*%
D27*
%TO.C,U6*%
X130556000Y-66040000D03*
D26*
X130556000Y-101600000D03*
X104551250Y-81374914D03*
X104551250Y-83914914D03*
X104551250Y-94074914D03*
X104551250Y-96614914D03*
X104551250Y-99154914D03*
X104551250Y-101694914D03*
X130556000Y-86360000D03*
X130556000Y-88900000D03*
X130556000Y-91440000D03*
X130556000Y-93980000D03*
D27*
X104551250Y-66134914D03*
D26*
X104551250Y-68674914D03*
X104551250Y-71214914D03*
X104551250Y-73754914D03*
X104551250Y-76294914D03*
X104551250Y-78834914D03*
X104551250Y-86454914D03*
X104551250Y-88994914D03*
X104551250Y-91534914D03*
X130556000Y-68580000D03*
X130556000Y-71120000D03*
X130556000Y-73660000D03*
X130556000Y-76200000D03*
X130556000Y-78740000D03*
X130556000Y-81280000D03*
X130556000Y-83820000D03*
X130556000Y-96520000D03*
X130556000Y-99060000D03*
%TD*%
D27*
%TO.C,ADDR_SELECT1*%
X92694000Y-111014000D03*
D26*
X95234000Y-111014000D03*
X97774000Y-111014000D03*
%TD*%
D28*
%TO.C,C1*%
X102092000Y-126534000D03*
X102092000Y-124984000D03*
%TD*%
D14*
%TO.C,H2*%
X138000000Y-38000000D03*
D15*
X138000000Y-38000000D03*
%TD*%
D29*
%TO.C,U3*%
X64500000Y-119142000D03*
X64500000Y-117872000D03*
X64500000Y-116602000D03*
X64500000Y-115332000D03*
X59550000Y-115332000D03*
X59550000Y-116602000D03*
X59550000Y-117872000D03*
X59550000Y-119142000D03*
%TD*%
D22*
%TO.C,R8*%
X80034500Y-126898000D03*
X81684500Y-126898000D03*
%TD*%
%TO.C,R7*%
X84860500Y-124698000D03*
X86510500Y-124698000D03*
%TD*%
%TO.C,R6*%
X84860500Y-126898000D03*
X86510500Y-126898000D03*
%TD*%
D11*
%TO.C,J1*%
X79582000Y-134388000D03*
D25*
X73332000Y-133048000D03*
D26*
X75832000Y-133048000D03*
X78332000Y-133048000D03*
X80832000Y-133048000D03*
X83332000Y-133048000D03*
X85832000Y-133048000D03*
X73332000Y-130548000D03*
X75832000Y-130548000D03*
X78332000Y-130548000D03*
X80832000Y-130548000D03*
X83332000Y-130548000D03*
X85832000Y-130548000D03*
%TD*%
D14*
%TO.C,H1*%
X49000000Y-38000000D03*
D15*
X49000000Y-38000000D03*
%TD*%
D24*
%TO.C,R4*%
X57226389Y-114634799D03*
X57226389Y-116284799D03*
%TD*%
D28*
%TO.C,C3*%
X89646000Y-117872000D03*
X89646000Y-116322000D03*
%TD*%
D14*
%TO.C,H4*%
X138000000Y-136000000D03*
D15*
X138000000Y-136000000D03*
%TD*%
D19*
%TO.C,R13*%
X116228500Y-120666000D03*
X114578500Y-120666000D03*
%TD*%
D27*
%TO.C,U1*%
X93472000Y-99060000D03*
D26*
X90932000Y-99060000D03*
X93472000Y-96520000D03*
X90932000Y-96520000D03*
X93472000Y-93980000D03*
X90932000Y-93980000D03*
X93472000Y-91440000D03*
X90932000Y-91440000D03*
X93472000Y-88900000D03*
X90932000Y-88900000D03*
X93472000Y-86360000D03*
X90932000Y-86360000D03*
X93472000Y-83820000D03*
X90932000Y-83820000D03*
X93472000Y-81280000D03*
X90932000Y-81280000D03*
X93472000Y-78740000D03*
X90932000Y-78740000D03*
X93472000Y-76200000D03*
X90932000Y-76200000D03*
X93472000Y-73660000D03*
X90932000Y-73660000D03*
X93472000Y-71120000D03*
X90932000Y-71120000D03*
X93472000Y-68580000D03*
X90932000Y-68580000D03*
X93472000Y-66040000D03*
X90932000Y-66040000D03*
X93472000Y-63500000D03*
X90932000Y-63500000D03*
X93472000Y-60960000D03*
X90932000Y-60960000D03*
X93472000Y-58420000D03*
X90932000Y-58420000D03*
X93472000Y-55880000D03*
X90932000Y-55880000D03*
X93472000Y-53340000D03*
X90932000Y-53340000D03*
X93472000Y-50800000D03*
X90932000Y-50800000D03*
X93472000Y-48260000D03*
X90932000Y-48260000D03*
X93472000Y-45720000D03*
X90932000Y-45720000D03*
D27*
X57912000Y-99060000D03*
D26*
X55372000Y-99060000D03*
X57912000Y-96520000D03*
X55372000Y-96520000D03*
X57912000Y-93980000D03*
X55372000Y-93980000D03*
X57912000Y-91440000D03*
X55372000Y-91440000D03*
X57912000Y-88900000D03*
X55372000Y-88900000D03*
X57912000Y-86360000D03*
X55372000Y-86360000D03*
X57912000Y-83820000D03*
X55372000Y-83820000D03*
X57912000Y-81280000D03*
X55372000Y-81280000D03*
X57912000Y-78740000D03*
X55372000Y-78740000D03*
X57912000Y-76200000D03*
X55372000Y-76200000D03*
X57912000Y-73660000D03*
X55372000Y-73660000D03*
X57912000Y-71120000D03*
X55372000Y-71120000D03*
X57912000Y-68580000D03*
X55372000Y-68580000D03*
X57912000Y-66040000D03*
X55372000Y-66040000D03*
X57912000Y-63500000D03*
X55372000Y-63500000D03*
X57912000Y-60960000D03*
X55372000Y-60960000D03*
X57912000Y-58420000D03*
X55372000Y-58420000D03*
X57912000Y-55880000D03*
X55372000Y-55880000D03*
X57912000Y-53340000D03*
X55372000Y-53340000D03*
X57912000Y-50800000D03*
X55372000Y-50800000D03*
X57912000Y-48260000D03*
X55372000Y-48260000D03*
X57912000Y-45720000D03*
X55372000Y-45720000D03*
%TD*%
M02*
