%TF.GenerationSoftware,KiCad,Pcbnew,9.0.2*%
%TF.CreationDate,2025-06-04T00:09:22+07:00*%
%TF.ProjectId,BSPD jadi 1,42535044-206a-4616-9469-20312e6b6963,rev?*%
%TF.SameCoordinates,Original*%
%TF.FileFunction,Copper,L2,Bot*%
%TF.FilePolarity,Positive*%
%FSLAX46Y46*%
G04 Gerber Fmt 4.6, Leading zero omitted, Abs format (unit mm)*
G04 Created by KiCad (PCBNEW 9.0.2) date 2025-06-04 00:09:22*
%MOMM*%
%LPD*%
G01*
G04 APERTURE LIST*
%TA.AperFunction,ComponentPad*%
%ADD10C,1.440000*%
%TD*%
%TA.AperFunction,ComponentPad*%
%ADD11C,3.600000*%
%TD*%
%TA.AperFunction,ConnectorPad*%
%ADD12C,6.400000*%
%TD*%
%TA.AperFunction,ComponentPad*%
%ADD13R,1.508000X1.508000*%
%TD*%
%TA.AperFunction,ComponentPad*%
%ADD14C,1.508000*%
%TD*%
%TA.AperFunction,ComponentPad*%
%ADD15R,1.700000X1.700000*%
%TD*%
%TA.AperFunction,ComponentPad*%
%ADD16O,1.700000X1.700000*%
%TD*%
%TA.AperFunction,ViaPad*%
%ADD17C,0.600000*%
%TD*%
%TA.AperFunction,ViaPad*%
%ADD18C,1.000000*%
%TD*%
%TA.AperFunction,Conductor*%
%ADD19C,1.000000*%
%TD*%
%TA.AperFunction,Conductor*%
%ADD20C,0.500000*%
%TD*%
%TA.AperFunction,Conductor*%
%ADD21C,0.300000*%
%TD*%
G04 APERTURE END LIST*
D10*
%TO.P,BPS,1,1*%
%TO.N,+5V*%
X61050000Y-88950000D03*
%TO.P,BPS,2,2*%
%TO.N,Net-(U6D-+)*%
X58510000Y-88950000D03*
%TO.P,BPS,3,3*%
%TO.N,GND*%
X55970000Y-88950000D03*
%TD*%
D11*
%TO.P,H4,1,1*%
%TO.N,GND*%
X56500000Y-141000000D03*
D12*
X56500000Y-141000000D03*
%TD*%
D13*
%TO.P,K2,1*%
%TO.N,NC*%
X61145000Y-129715000D03*
D14*
%TO.P,K2,2*%
%TO.N,Net-(D2-K)*%
X63685000Y-129715000D03*
%TO.P,K2,5*%
%TO.N,COM*%
X71305000Y-129715000D03*
%TO.P,K2,6*%
X71305000Y-124635000D03*
%TO.P,K2,9*%
%TO.N,GND*%
X63685000Y-124635000D03*
%TO.P,K2,10*%
%TO.N,unconnected-(K2-Pad10)*%
X61145000Y-124635000D03*
%TD*%
D11*
%TO.P,H1,1,1*%
%TO.N,GND*%
X56500000Y-81000000D03*
D12*
X56500000Y-81000000D03*
%TD*%
D11*
%TO.P,H2,1,1*%
%TO.N,GND*%
X96500000Y-81000000D03*
D12*
X96500000Y-81000000D03*
%TD*%
D11*
%TO.P,H3,1,1*%
%TO.N,GND*%
X96500000Y-141000000D03*
D12*
X96500000Y-141000000D03*
%TD*%
D10*
%TO.P,TPSTH,1,1*%
%TO.N,+5V*%
X90710000Y-94500000D03*
%TO.P,TPSTH,2,2*%
%TO.N,ThrottlePos*%
X93250000Y-94500000D03*
%TO.P,TPSTH,3,3*%
%TO.N,GND*%
X95790000Y-94500000D03*
%TD*%
%TO.P,TPS,1,1*%
%TO.N,+5V*%
X61050000Y-95350000D03*
%TO.P,TPS,2,2*%
%TO.N,Net-(U6C-+)*%
X58510000Y-95350000D03*
%TO.P,TPS,3,3*%
%TO.N,GND*%
X55970000Y-95350000D03*
%TD*%
%TO.P,BPSTH,1,1*%
%TO.N,+5V*%
X90670000Y-88500000D03*
%TO.P,BPSTH,2,2*%
%TO.N,Net-(U6A--)*%
X93210000Y-88500000D03*
%TO.P,BPSTH,3,3*%
%TO.N,GND*%
X95750000Y-88500000D03*
%TD*%
D15*
%TO.P,J1,1,Pin_1*%
%TO.N,unconnected-(J1-Pin_1-Pad1)*%
X56490000Y-129000000D03*
D16*
%TO.P,J1,2,Pin_2*%
%TO.N,unconnected-(J1-Pin_2-Pad2)*%
X56490000Y-126460000D03*
%TO.P,J1,3,Pin_3*%
%TO.N,NC*%
X56490000Y-123920000D03*
%TO.P,J1,4,Pin_4*%
%TO.N,COM*%
X56490000Y-121380000D03*
%TO.P,J1,5,Pin_5*%
%TO.N,ThrottlePos*%
X56490000Y-118840000D03*
%TO.P,J1,6,Pin_6*%
%TO.N,BrakePress*%
X56490000Y-116300000D03*
%TO.P,J1,7,Pin_7*%
%TO.N,+5V*%
X56490000Y-113760000D03*
%TO.P,J1,8,Pin_8*%
%TO.N,unconnected-(J1-Pin_8-Pad8)*%
X56490000Y-111220000D03*
%TO.P,J1,9,Pin_9*%
%TO.N,unconnected-(J1-Pin_9-Pad9)*%
X56490000Y-108680000D03*
%TO.P,J1,10,Pin_10*%
%TO.N,GND*%
X56490000Y-106140000D03*
%TD*%
D10*
%TO.P,BPS1,1,1*%
%TO.N,+5V*%
X112300000Y-88950000D03*
%TO.P,BPS1,2,2*%
%TO.N,Net-(U6D--)*%
X109760000Y-88950000D03*
%TO.P,BPS1,3,3*%
%TO.N,GND*%
X107220000Y-88950000D03*
%TD*%
D11*
%TO.P,H4,1,1*%
%TO.N,GND*%
X107750000Y-141000000D03*
D12*
X107750000Y-141000000D03*
%TD*%
D13*
%TO.P,K2,1*%
%TO.N,NC*%
X112395000Y-129715000D03*
D14*
%TO.P,K2,2*%
%TO.N,Net-(D2-K)*%
X114935000Y-129715000D03*
%TO.P,K2,5*%
%TO.N,COM*%
X122555000Y-129715000D03*
%TO.P,K2,6*%
X122555000Y-124635000D03*
%TO.P,K2,9*%
%TO.N,GND*%
X114935000Y-124635000D03*
%TO.P,K2,10*%
%TO.N,unconnected-(K2-Pad10)*%
X112395000Y-124635000D03*
%TD*%
D11*
%TO.P,H1,1,1*%
%TO.N,GND*%
X107750000Y-81000000D03*
D12*
X107750000Y-81000000D03*
%TD*%
D11*
%TO.P,H2,1,1*%
%TO.N,GND*%
X147750000Y-81000000D03*
D12*
X147750000Y-81000000D03*
%TD*%
D11*
%TO.P,H3,1,1*%
%TO.N,GND*%
X147750000Y-141000000D03*
D12*
X147750000Y-141000000D03*
%TD*%
D10*
%TO.P,TPSTH1,1,1*%
%TO.N,+5V*%
X141960000Y-94500000D03*
%TO.P,TPSTH1,2,2*%
%TO.N,ThrottlePos*%
X144500000Y-94500000D03*
%TO.P,TPSTH1,3,3*%
%TO.N,GND*%
X147040000Y-94500000D03*
%TD*%
%TO.P,TPS1,1,1*%
%TO.N,+5V*%
X112300000Y-95350000D03*
%TO.P,TPS1,2,2*%
%TO.N,Net-(U6C--)*%
X109760000Y-95350000D03*
%TO.P,TPS1,3,3*%
%TO.N,GND*%
X107220000Y-95350000D03*
%TD*%
%TO.P,BPSTH1,1,1*%
%TO.N,+5V*%
X141920000Y-88500000D03*
%TO.P,BPSTH1,2,2*%
%TO.N,Net-(U6A--)*%
X144460000Y-88500000D03*
%TO.P,BPSTH1,3,3*%
%TO.N,GND*%
X147000000Y-88500000D03*
%TD*%
D15*
%TO.P,J1,1,Pin_1*%
%TO.N,unconnected-(J1-Pin_1-Pad1)*%
X107740000Y-129000000D03*
D16*
%TO.P,J1,2,Pin_2*%
%TO.N,unconnected-(J1-Pin_2-Pad2)*%
X107740000Y-126460000D03*
%TO.P,J1,3,Pin_3*%
%TO.N,NC*%
X107740000Y-123920000D03*
%TO.P,J1,4,Pin_4*%
%TO.N,COM*%
X107740000Y-121380000D03*
%TO.P,J1,5,Pin_5*%
%TO.N,ThrottlePos*%
X107740000Y-118840000D03*
%TO.P,J1,6,Pin_6*%
%TO.N,BrakePress*%
X107740000Y-116300000D03*
%TO.P,J1,7,Pin_7*%
%TO.N,+5V*%
X107740000Y-113760000D03*
%TO.P,J1,8,Pin_8*%
%TO.N,unconnected-(J1-Pin_8-Pad8)*%
X107740000Y-111220000D03*
%TO.P,J1,9,Pin_9*%
%TO.N,unconnected-(J1-Pin_9-Pad9)*%
X107740000Y-108680000D03*
%TO.P,J1,10,Pin_10*%
%TO.N,GND*%
X107740000Y-106140000D03*
%TD*%
D17*
%TO.N,GND*%
X68000000Y-138750000D03*
X70250000Y-139500000D03*
X85750000Y-78500000D03*
X89500000Y-79250000D03*
X88750000Y-78500000D03*
X74750000Y-106250000D03*
X67250000Y-141000000D03*
X76250000Y-105500000D03*
X65000000Y-139500000D03*
X81250000Y-78500000D03*
X87250000Y-78500000D03*
X74750000Y-105500000D03*
X86500000Y-80000000D03*
X65750000Y-138750000D03*
X71000000Y-141000000D03*
X70250000Y-138750000D03*
X76250000Y-112750000D03*
X68000000Y-141000000D03*
X89500000Y-77750000D03*
X76250000Y-112000000D03*
X85750000Y-80000000D03*
X63500000Y-138750000D03*
X87250000Y-79250000D03*
X75500000Y-112750000D03*
X82000000Y-77750000D03*
X88750000Y-80000000D03*
X65750000Y-140250000D03*
X75500000Y-111250000D03*
X75500000Y-112000000D03*
X84250000Y-77750000D03*
X71750000Y-140250000D03*
X66500000Y-138750000D03*
X87250000Y-77750000D03*
X66500000Y-140250000D03*
X69500000Y-138750000D03*
X71750000Y-141000000D03*
X76250000Y-111250000D03*
X86500000Y-79250000D03*
X84250000Y-79250000D03*
X75500000Y-105500000D03*
X64250000Y-140250000D03*
X84250000Y-80000000D03*
X82750000Y-80000000D03*
X81250000Y-77750000D03*
X71750000Y-138750000D03*
X84250000Y-78500000D03*
X71000000Y-139500000D03*
X65750000Y-141000000D03*
X88000000Y-79250000D03*
X82000000Y-78500000D03*
X63500000Y-141000000D03*
X63500000Y-139500000D03*
X67250000Y-138750000D03*
X71750000Y-139500000D03*
X89500000Y-80000000D03*
X85000000Y-78500000D03*
X77000000Y-105500000D03*
X77000000Y-106250000D03*
X83500000Y-77750000D03*
X65000000Y-141000000D03*
X68750000Y-140250000D03*
X65000000Y-138750000D03*
X88750000Y-79250000D03*
X75500000Y-113500000D03*
X68000000Y-140250000D03*
X82750000Y-77750000D03*
X67250000Y-139500000D03*
X81250000Y-80000000D03*
X70250000Y-141000000D03*
X86500000Y-78500000D03*
X88000000Y-78500000D03*
X75500000Y-106250000D03*
X88000000Y-77750000D03*
X69500000Y-141000000D03*
X71000000Y-140250000D03*
X82000000Y-80000000D03*
X71000000Y-138750000D03*
X67250000Y-140250000D03*
X83500000Y-78500000D03*
X85000000Y-79250000D03*
X66500000Y-141000000D03*
X69500000Y-139500000D03*
X76250000Y-106250000D03*
X76250000Y-113500000D03*
X68000000Y-139500000D03*
X64250000Y-139500000D03*
X82750000Y-79250000D03*
X88000000Y-80000000D03*
X86500000Y-77750000D03*
X83500000Y-80000000D03*
X64250000Y-138750000D03*
X70250000Y-140250000D03*
X85000000Y-77750000D03*
X68750000Y-139500000D03*
X68750000Y-141000000D03*
X82000000Y-79250000D03*
X85000000Y-80000000D03*
X63500000Y-140250000D03*
X85750000Y-77750000D03*
X69500000Y-140250000D03*
X83500000Y-79250000D03*
X87250000Y-80000000D03*
X64250000Y-141000000D03*
X81250000Y-79250000D03*
X89500000Y-78500000D03*
X88750000Y-77750000D03*
X66500000Y-139500000D03*
X68750000Y-138750000D03*
X65000000Y-140250000D03*
X85750000Y-79250000D03*
X82750000Y-78500000D03*
X65750000Y-139500000D03*
D18*
%TO.N,+5V*%
X60000000Y-104450000D03*
D17*
X64000000Y-82000000D03*
X89500000Y-99000000D03*
D18*
X90750000Y-85000000D03*
X64250000Y-104500000D03*
%TO.N,Net-(Q4-D)*%
X80450000Y-133550000D03*
D17*
X73500000Y-121790000D03*
D18*
%TO.N,Net-(D2-K)*%
X66750000Y-132000000D03*
D17*
%TO.N,Net-(U6C-+)*%
X58987500Y-100212500D03*
%TO.N,Net-(U6D-+)*%
X59675000Y-85300000D03*
%TO.N,Net-(U3-1B)*%
X78500000Y-106000000D03*
X79000000Y-97250000D03*
%TO.N,Net-(U6A--)*%
X64250000Y-107640000D03*
%TO.N,BrakePress*%
X63250000Y-106050000D03*
%TO.N,ThrottlePos*%
X64250000Y-110180000D03*
X73250000Y-108910000D03*
X62750000Y-108950000D03*
%TO.N,GND*%
X123500000Y-138750000D03*
X125750000Y-139500000D03*
X141250000Y-78500000D03*
X145000000Y-79250000D03*
X144250000Y-78500000D03*
X130250000Y-106250000D03*
X122750000Y-141000000D03*
X131750000Y-105500000D03*
X120500000Y-139500000D03*
X136750000Y-78500000D03*
X142750000Y-78500000D03*
X130250000Y-105500000D03*
X142000000Y-80000000D03*
X121250000Y-138750000D03*
X126500000Y-141000000D03*
X125750000Y-138750000D03*
X131750000Y-112750000D03*
X123500000Y-141000000D03*
X145000000Y-77750000D03*
X131750000Y-112000000D03*
X141250000Y-80000000D03*
X119000000Y-138750000D03*
X142750000Y-79250000D03*
X131000000Y-112750000D03*
X137500000Y-77750000D03*
X144250000Y-80000000D03*
X121250000Y-140250000D03*
X131000000Y-111250000D03*
X131000000Y-112000000D03*
X139750000Y-77750000D03*
X127250000Y-140250000D03*
X122000000Y-138750000D03*
X142750000Y-77750000D03*
X122000000Y-140250000D03*
X125000000Y-138750000D03*
X127250000Y-141000000D03*
X131750000Y-111250000D03*
X142000000Y-79250000D03*
X139750000Y-79250000D03*
X131000000Y-105500000D03*
X119750000Y-140250000D03*
X139750000Y-80000000D03*
X138250000Y-80000000D03*
X136750000Y-77750000D03*
X127250000Y-138750000D03*
X139750000Y-78500000D03*
X126500000Y-139500000D03*
X121250000Y-141000000D03*
X143500000Y-79250000D03*
X137500000Y-78500000D03*
X119000000Y-141000000D03*
X119000000Y-139500000D03*
X122750000Y-138750000D03*
X127250000Y-139500000D03*
X145000000Y-80000000D03*
X140500000Y-78500000D03*
X132500000Y-105500000D03*
X132500000Y-106250000D03*
X139000000Y-77750000D03*
X120500000Y-141000000D03*
X124250000Y-140250000D03*
X120500000Y-138750000D03*
X144250000Y-79250000D03*
X131000000Y-113500000D03*
X123500000Y-140250000D03*
X138250000Y-77750000D03*
X122750000Y-139500000D03*
X136750000Y-80000000D03*
X125750000Y-141000000D03*
X142000000Y-78500000D03*
X143500000Y-78500000D03*
X131000000Y-106250000D03*
X143500000Y-77750000D03*
X125000000Y-141000000D03*
X126500000Y-140250000D03*
X137500000Y-80000000D03*
X126500000Y-138750000D03*
X122750000Y-140250000D03*
X139000000Y-78500000D03*
X140500000Y-79250000D03*
X122000000Y-141000000D03*
X125000000Y-139500000D03*
X131750000Y-106250000D03*
X131750000Y-113500000D03*
X123500000Y-139500000D03*
X119750000Y-139500000D03*
X138250000Y-79250000D03*
X143500000Y-80000000D03*
X142000000Y-77750000D03*
X139000000Y-80000000D03*
X119750000Y-138750000D03*
X125750000Y-140250000D03*
X140500000Y-77750000D03*
X124250000Y-139500000D03*
X124250000Y-141000000D03*
X137500000Y-79250000D03*
X140500000Y-80000000D03*
X119000000Y-140250000D03*
X141250000Y-77750000D03*
X125000000Y-140250000D03*
X139000000Y-79250000D03*
X142750000Y-80000000D03*
X119750000Y-141000000D03*
X136750000Y-79250000D03*
X145000000Y-78500000D03*
X144250000Y-77750000D03*
X122000000Y-139500000D03*
X124250000Y-138750000D03*
X120500000Y-140250000D03*
X141250000Y-79250000D03*
X138250000Y-78500000D03*
X121250000Y-139500000D03*
D18*
%TO.N,+5V*%
X115500000Y-104450000D03*
D17*
X119500000Y-82000000D03*
X145000000Y-99000000D03*
D18*
X146250000Y-85000000D03*
X119750000Y-104500000D03*
%TO.N,Net-(Q4-D)*%
X135950000Y-133550000D03*
D17*
X129000000Y-121790000D03*
D18*
%TO.N,Net-(D2-K)*%
X122250000Y-132000000D03*
D17*
%TO.N,Net-(U6C--)*%
X114487500Y-100212500D03*
%TO.N,Net-(U6D--)*%
X115175000Y-85300000D03*
%TO.N,Net-(U3-1B)*%
X134000000Y-106000000D03*
X134500000Y-97250000D03*
%TO.N,Net-(U6A--)*%
X119750000Y-107640000D03*
%TO.N,BrakePress*%
X118750000Y-106050000D03*
%TO.N,ThrottlePos*%
X119750000Y-110180000D03*
X129850000Y-108300000D03*
X118250000Y-108950000D03*
%TD*%
D19*
%TO.N,+5V*%
X61050000Y-84950000D02*
X61050000Y-100150000D01*
X90710000Y-97790000D02*
X90710000Y-95750000D01*
X58550000Y-112960000D02*
X57750000Y-113760000D01*
X64000000Y-82000000D02*
X61050000Y-84950000D01*
X90750000Y-92450000D02*
X90710000Y-92490000D01*
X90750000Y-85000000D02*
X90750000Y-92450000D01*
X90710000Y-92490000D02*
X90710000Y-95750000D01*
X57750000Y-113760000D02*
X56490000Y-113760000D01*
X58550000Y-102650000D02*
X58550000Y-112960000D01*
D20*
X60000000Y-104450000D02*
X58550000Y-104450000D01*
D19*
X61050000Y-100150000D02*
X58550000Y-102650000D01*
X89500000Y-99000000D02*
X90710000Y-97790000D01*
D20*
X60000000Y-104450000D02*
X64200000Y-104450000D01*
X64200000Y-104450000D02*
X64250000Y-104500000D01*
D21*
%TO.N,Net-(Q4-D)*%
X73500000Y-121790000D02*
X73500000Y-126250000D01*
X73500000Y-126250000D02*
X75500000Y-128250000D01*
X77500000Y-128250000D02*
X80400000Y-131150000D01*
X80400000Y-133500000D02*
X80450000Y-133550000D01*
X75500000Y-128250000D02*
X77500000Y-128250000D01*
X80400000Y-131150000D02*
X80400000Y-133500000D01*
D20*
%TO.N,Net-(D2-K)*%
X63685000Y-130860000D02*
X63685000Y-129715000D01*
X64825000Y-132000000D02*
X63685000Y-130860000D01*
X66750000Y-132000000D02*
X64825000Y-132000000D01*
%TO.N,Net-(U6C-+)*%
X58500000Y-99725000D02*
X58500000Y-95360000D01*
X58987500Y-100212500D02*
X58500000Y-99725000D01*
X58500000Y-95360000D02*
X58510000Y-95350000D01*
%TO.N,Net-(U6D-+)*%
X59675000Y-85300000D02*
X58510000Y-86465000D01*
X58510000Y-86465000D02*
X58510000Y-88950000D01*
D21*
%TO.N,Net-(U3-1B)*%
X79000000Y-97250000D02*
X78500000Y-97750000D01*
X78500000Y-97750000D02*
X78500000Y-106000000D01*
%TO.N,Net-(U6A--)*%
X83500000Y-104650000D02*
X83500000Y-93500000D01*
X88500000Y-83750000D02*
X91750000Y-83750000D01*
X83500000Y-93500000D02*
X87000000Y-90000000D01*
X87000000Y-90000000D02*
X87000000Y-85250000D01*
X91750000Y-83750000D02*
X93210000Y-85210000D01*
X64260000Y-107650000D02*
X80500000Y-107650000D01*
X93210000Y-85210000D02*
X93210000Y-88500000D01*
X64250000Y-107640000D02*
X64260000Y-107650000D01*
X87000000Y-85250000D02*
X88500000Y-83750000D01*
X80500000Y-107650000D02*
X83500000Y-104650000D01*
%TO.N,BrakePress*%
X59460000Y-106890000D02*
X59460000Y-115140000D01*
X58300000Y-116300000D02*
X56490000Y-116300000D01*
X60300000Y-106050000D02*
X59460000Y-106890000D01*
X59460000Y-115140000D02*
X58300000Y-116300000D01*
X63250000Y-106050000D02*
X60300000Y-106050000D01*
%TO.N,ThrottlePos*%
X93240000Y-103930000D02*
X93240000Y-100250000D01*
X73210000Y-108950000D02*
X73250000Y-108910000D01*
X59100000Y-118840000D02*
X56490000Y-118840000D01*
X93250000Y-100240000D02*
X93250000Y-94500000D01*
X62750000Y-108950000D02*
X73210000Y-108950000D01*
X60275000Y-117665000D02*
X59100000Y-118840000D01*
X64250000Y-110180000D02*
X64280000Y-110150000D01*
X93260000Y-103950000D02*
X93240000Y-103930000D01*
X62750000Y-108950000D02*
X60275000Y-111425000D01*
X64280000Y-110150000D02*
X91250000Y-110150000D01*
X60275000Y-111425000D02*
X60275000Y-117665000D01*
X93240000Y-100250000D02*
X93250000Y-100240000D01*
X91250000Y-110150000D02*
X93260000Y-108140000D01*
X93260000Y-108140000D02*
X93260000Y-103950000D01*
D20*
%TO.N,NC*%
X58020000Y-123920000D02*
X56490000Y-123920000D01*
X59865000Y-129715000D02*
X58950000Y-128800000D01*
X61145000Y-129715000D02*
X59865000Y-129715000D01*
X58950000Y-124850000D02*
X58020000Y-123920000D01*
X58950000Y-128800000D02*
X58950000Y-124850000D01*
%TO.N,COM*%
X71305000Y-122855000D02*
X70525000Y-122075000D01*
X71305000Y-124635000D02*
X71305000Y-129715000D01*
X70525000Y-122075000D02*
X60235000Y-122075000D01*
X59540000Y-121380000D02*
X56490000Y-121380000D01*
X71305000Y-124635000D02*
X71305000Y-122855000D01*
X60235000Y-122075000D02*
X59540000Y-121380000D01*
D19*
%TO.N,+5V*%
X116550000Y-84950000D02*
X116550000Y-100150000D01*
X146210000Y-97790000D02*
X146210000Y-95750000D01*
X114050000Y-112960000D02*
X113250000Y-113760000D01*
X119500000Y-82000000D02*
X116550000Y-84950000D01*
X146250000Y-92450000D02*
X146210000Y-92490000D01*
X146250000Y-85000000D02*
X146250000Y-92450000D01*
X146210000Y-92490000D02*
X146210000Y-95750000D01*
X113250000Y-113760000D02*
X111990000Y-113760000D01*
X114050000Y-102650000D02*
X114050000Y-112960000D01*
D20*
X115500000Y-104450000D02*
X114050000Y-104450000D01*
D19*
X116550000Y-100150000D02*
X114050000Y-102650000D01*
X145000000Y-99000000D02*
X146210000Y-97790000D01*
D20*
X115500000Y-104450000D02*
X119700000Y-104450000D01*
X119700000Y-104450000D02*
X119750000Y-104500000D01*
D21*
%TO.N,Net-(Q4-D)*%
X129000000Y-121790000D02*
X129000000Y-126250000D01*
X129000000Y-126250000D02*
X131000000Y-128250000D01*
X133000000Y-128250000D02*
X135900000Y-131150000D01*
X135900000Y-133500000D02*
X135950000Y-133550000D01*
X131000000Y-128250000D02*
X133000000Y-128250000D01*
X135900000Y-131150000D02*
X135900000Y-133500000D01*
D20*
%TO.N,Net-(D2-K)*%
X119185000Y-130860000D02*
X119185000Y-129715000D01*
X120325000Y-132000000D02*
X119185000Y-130860000D01*
X122250000Y-132000000D02*
X120325000Y-132000000D01*
%TO.N,Net-(U6C--)*%
X114000000Y-99725000D02*
X114000000Y-95360000D01*
X114487500Y-100212500D02*
X114000000Y-99725000D01*
X114000000Y-95360000D02*
X114010000Y-95350000D01*
%TO.N,Net-(U6D--)*%
X115175000Y-85300000D02*
X114010000Y-86465000D01*
X114010000Y-86465000D02*
X114010000Y-88950000D01*
D21*
%TO.N,Net-(U3-1B)*%
X134500000Y-97250000D02*
X134000000Y-97750000D01*
X134000000Y-97750000D02*
X134000000Y-106000000D01*
%TO.N,Net-(U6A--)*%
X139000000Y-104650000D02*
X139000000Y-93500000D01*
X144000000Y-83750000D02*
X147250000Y-83750000D01*
X139000000Y-93500000D02*
X142500000Y-90000000D01*
X142500000Y-90000000D02*
X142500000Y-85250000D01*
X147250000Y-83750000D02*
X148710000Y-85210000D01*
X119760000Y-107650000D02*
X136000000Y-107650000D01*
X148710000Y-85210000D02*
X148710000Y-88500000D01*
X119750000Y-107640000D02*
X119760000Y-107650000D01*
X142500000Y-85250000D02*
X144000000Y-83750000D01*
X136000000Y-107650000D02*
X139000000Y-104650000D01*
%TO.N,BrakePress*%
X114960000Y-106890000D02*
X114960000Y-115140000D01*
X113800000Y-116300000D02*
X111990000Y-116300000D01*
X115800000Y-106050000D02*
X114960000Y-106890000D01*
X114960000Y-115140000D02*
X113800000Y-116300000D01*
X118750000Y-106050000D02*
X115800000Y-106050000D01*
%TO.N,ThrottlePos*%
X129850000Y-108300000D02*
X129200000Y-108950000D01*
X148740000Y-103930000D02*
X148740000Y-100250000D01*
X114600000Y-118840000D02*
X111990000Y-118840000D01*
X148750000Y-100240000D02*
X148750000Y-94500000D01*
X115775000Y-117665000D02*
X114600000Y-118840000D01*
X119750000Y-110180000D02*
X119780000Y-110150000D01*
X129200000Y-108950000D02*
X118250000Y-108950000D01*
X148760000Y-103950000D02*
X148740000Y-103930000D01*
X118250000Y-108950000D02*
X115775000Y-111425000D01*
X119780000Y-110150000D02*
X146750000Y-110150000D01*
X115775000Y-111425000D02*
X115775000Y-117665000D01*
X148740000Y-100250000D02*
X148750000Y-100240000D01*
X146750000Y-110150000D02*
X148760000Y-108140000D01*
X148760000Y-108140000D02*
X148760000Y-103950000D01*
D20*
%TO.N,NC*%
X113520000Y-123920000D02*
X111990000Y-123920000D01*
X115365000Y-129715000D02*
X114450000Y-128800000D01*
X116645000Y-129715000D02*
X115365000Y-129715000D01*
X114450000Y-124850000D02*
X113520000Y-123920000D01*
X114450000Y-128800000D02*
X114450000Y-124850000D01*
%TO.N,COM*%
X126805000Y-122855000D02*
X126025000Y-122075000D01*
X126805000Y-124635000D02*
X126805000Y-129715000D01*
X126025000Y-122075000D02*
X115735000Y-122075000D01*
X115040000Y-121380000D02*
X111990000Y-121380000D01*
X126805000Y-124635000D02*
X126805000Y-122855000D01*
X115735000Y-122075000D02*
X115040000Y-121380000D01*
%TD*%
%TA.AperFunction,Conductor*%
%TO.N,GND*%
G36*
X96502702Y-76500617D02*
G01*
X96886771Y-76517386D01*
X96897506Y-76518326D01*
X97275971Y-76568152D01*
X97286597Y-76570025D01*
X97659284Y-76652648D01*
X97669710Y-76655442D01*
X98033765Y-76770227D01*
X98043911Y-76773920D01*
X98396578Y-76920000D01*
X98406369Y-76924566D01*
X98744942Y-77100816D01*
X98754310Y-77106224D01*
X99076244Y-77311318D01*
X99085105Y-77317523D01*
X99387930Y-77549889D01*
X99396217Y-77556843D01*
X99677635Y-77814715D01*
X99685284Y-77822364D01*
X99943156Y-78103782D01*
X99950110Y-78112069D01*
X100182476Y-78414894D01*
X100188681Y-78423755D01*
X100393775Y-78745689D01*
X100399183Y-78755057D01*
X100575430Y-79093623D01*
X100580002Y-79103427D01*
X100726075Y-79456078D01*
X100729775Y-79466244D01*
X100844554Y-79830278D01*
X100847354Y-79840727D01*
X100929971Y-80213389D01*
X100931849Y-80224042D01*
X100981671Y-80602473D01*
X100982614Y-80613249D01*
X100999382Y-80997297D01*
X100999500Y-81002590D01*
X100999500Y-81065892D01*
X100999559Y-81066114D01*
X100999567Y-81074381D01*
X100999567Y-81074384D01*
X101006527Y-88678397D01*
X101005659Y-88693154D01*
X101002281Y-88721551D01*
X101003750Y-88731720D01*
X101006594Y-88751414D01*
X101006622Y-88781581D01*
X101015968Y-88816338D01*
X101017026Y-88823660D01*
X101017027Y-88823666D01*
X101021117Y-88851983D01*
X101033011Y-88879711D01*
X101040846Y-88908844D01*
X101058877Y-88940009D01*
X101061798Y-88946818D01*
X101061798Y-88946821D01*
X101061804Y-88946833D01*
X101063105Y-88949867D01*
X101071434Y-89019239D01*
X101056503Y-89060779D01*
X101042067Y-89085758D01*
X101042067Y-89085759D01*
X101037315Y-89103462D01*
X101031068Y-89121219D01*
X101023685Y-89138009D01*
X101023684Y-89138013D01*
X101018887Y-89169232D01*
X101017851Y-89175968D01*
X101007901Y-89213039D01*
X101007888Y-89240803D01*
X101006454Y-89250135D01*
X101006454Y-89250137D01*
X101003668Y-89268265D01*
X101003668Y-89268268D01*
X101007114Y-89299669D01*
X101007854Y-89313249D01*
X100999472Y-107809040D01*
X100999473Y-107809044D01*
X101013948Y-107863169D01*
X101016389Y-107872297D01*
X101019350Y-107899266D01*
X101032946Y-107934204D01*
X101033521Y-107936352D01*
X101036626Y-107943855D01*
X101036486Y-107943912D01*
X101037746Y-107946537D01*
X101067145Y-108022082D01*
X101145092Y-108128332D01*
X101145096Y-108128337D01*
X101171282Y-108149343D01*
X101180308Y-108162282D01*
X101192944Y-108171737D01*
X101199890Y-108190352D01*
X101211258Y-108206646D01*
X101211856Y-108222414D01*
X101217373Y-108237197D01*
X101213153Y-108256611D01*
X101213907Y-108276466D01*
X101205696Y-108290924D01*
X101202535Y-108305473D01*
X101181389Y-108333731D01*
X101163265Y-108351862D01*
X101152296Y-108361608D01*
X101150818Y-108362771D01*
X101149767Y-108363849D01*
X101139946Y-108375193D01*
X101107150Y-108408004D01*
X101107148Y-108408007D01*
X101077475Y-108459425D01*
X101073798Y-108465795D01*
X101071906Y-108468328D01*
X101070932Y-108470762D01*
X101066494Y-108478453D01*
X101041284Y-108522142D01*
X101041283Y-108522144D01*
X101041283Y-108522145D01*
X101028250Y-108570827D01*
X101007201Y-108649450D01*
X101012256Y-132474766D01*
X101012257Y-132484251D01*
X101008132Y-132511121D01*
X101012271Y-132548818D01*
X101012273Y-132555600D01*
X101012274Y-132555601D01*
X101012281Y-132587974D01*
X101012282Y-132587978D01*
X101019549Y-132615076D01*
X101022519Y-132642117D01*
X101036282Y-132677476D01*
X101038038Y-132684025D01*
X101046415Y-132715261D01*
X101055694Y-132731326D01*
X101060438Y-132739539D01*
X101070320Y-132764926D01*
X101092807Y-132795575D01*
X101112333Y-132829378D01*
X101132120Y-132849157D01*
X101148278Y-132871179D01*
X101178005Y-132895022D01*
X101205539Y-132922545D01*
X101205540Y-132922545D01*
X101208901Y-132925905D01*
X101242399Y-132987221D01*
X101237429Y-133056914D01*
X101208717Y-133101488D01*
X101190245Y-133119875D01*
X101179478Y-133129415D01*
X101163615Y-133141904D01*
X101163614Y-133141906D01*
X101155934Y-133152177D01*
X101144111Y-133165796D01*
X101117512Y-133192273D01*
X101091833Y-133236514D01*
X101091832Y-133236513D01*
X101088212Y-133242750D01*
X101084699Y-133247449D01*
X101082958Y-133251802D01*
X101078419Y-133259624D01*
X101078418Y-133259626D01*
X101051354Y-133306253D01*
X101051354Y-133306254D01*
X101016953Y-133433466D01*
X100999670Y-140924997D01*
X100999670Y-140925001D01*
X100999649Y-140933545D01*
X100999500Y-140934108D01*
X100999500Y-140997577D01*
X100999493Y-140997600D01*
X100999382Y-141002696D01*
X100982614Y-141386750D01*
X100981671Y-141397526D01*
X100931849Y-141775957D01*
X100929971Y-141786610D01*
X100847354Y-142159272D01*
X100844554Y-142169721D01*
X100729775Y-142533755D01*
X100726075Y-142543921D01*
X100580002Y-142896572D01*
X100575430Y-142906376D01*
X100399183Y-143244942D01*
X100393775Y-143254310D01*
X100188681Y-143576244D01*
X100182476Y-143585105D01*
X99950110Y-143887930D01*
X99943156Y-143896217D01*
X99685284Y-144177635D01*
X99677635Y-144185284D01*
X99396217Y-144443156D01*
X99387930Y-144450110D01*
X99085105Y-144682476D01*
X99076244Y-144688681D01*
X98754310Y-144893775D01*
X98744942Y-144899183D01*
X98406376Y-145075430D01*
X98396572Y-145080002D01*
X98043921Y-145226075D01*
X98033755Y-145229775D01*
X97669721Y-145344554D01*
X97659272Y-145347354D01*
X97286610Y-145429971D01*
X97275957Y-145431849D01*
X96897526Y-145481671D01*
X96886750Y-145482614D01*
X96502703Y-145499382D01*
X96497294Y-145499500D01*
X56502706Y-145499500D01*
X56497297Y-145499382D01*
X56113249Y-145482614D01*
X56102473Y-145481671D01*
X55724042Y-145431849D01*
X55713389Y-145429971D01*
X55340727Y-145347354D01*
X55330278Y-145344554D01*
X54966244Y-145229775D01*
X54956078Y-145226075D01*
X54603427Y-145080002D01*
X54593623Y-145075430D01*
X54255057Y-144899183D01*
X54245689Y-144893775D01*
X53923755Y-144688681D01*
X53914894Y-144682476D01*
X53612069Y-144450110D01*
X53603782Y-144443156D01*
X53322364Y-144185284D01*
X53314715Y-144177635D01*
X53136038Y-143982643D01*
X53056843Y-143896217D01*
X53049889Y-143887930D01*
X52817523Y-143585105D01*
X52811318Y-143576244D01*
X52606224Y-143254310D01*
X52600816Y-143244942D01*
X52598544Y-143240578D01*
X52424566Y-142906369D01*
X52419997Y-142896572D01*
X52273924Y-142543921D01*
X52270224Y-142533755D01*
X52155442Y-142169710D01*
X52152648Y-142159284D01*
X52070025Y-141786597D01*
X52068152Y-141775971D01*
X52018326Y-141397506D01*
X52017386Y-141386771D01*
X52000618Y-141002696D01*
X52000500Y-140997293D01*
X52000500Y-140818234D01*
X52800000Y-140818234D01*
X52800000Y-141181765D01*
X52835632Y-141543556D01*
X52906550Y-141900090D01*
X52906553Y-141900101D01*
X53012086Y-142247997D01*
X53151207Y-142583864D01*
X53151209Y-142583869D01*
X53322570Y-142904462D01*
X53322581Y-142904480D01*
X53524550Y-143206748D01*
X53552314Y-143240578D01*
X55071728Y-141721164D01*
X55131557Y-141838583D01*
X55279588Y-142042330D01*
X55457670Y-142220412D01*
X55661417Y-142368443D01*
X55778834Y-142428270D01*
X54259420Y-143947683D01*
X54259420Y-143947685D01*
X54293251Y-143975449D01*
X54595519Y-144177418D01*
X54595537Y-144177429D01*
X54916130Y-144348790D01*
X54916135Y-144348792D01*
X55252002Y-144487913D01*
X55599898Y-144593446D01*
X55599909Y-144593449D01*
X55956443Y-144664367D01*
X56318234Y-144700000D01*
X56681766Y-144700000D01*
X57043556Y-144664367D01*
X57400090Y-144593449D01*
X57400101Y-144593446D01*
X57747997Y-144487913D01*
X58083864Y-144348792D01*
X58083869Y-144348790D01*
X58404462Y-144177429D01*
X58404480Y-144177418D01*
X58706736Y-143975457D01*
X58706750Y-143975447D01*
X58740579Y-143947684D01*
X57221165Y-142428270D01*
X57338583Y-142368443D01*
X57542330Y-142220412D01*
X57720412Y-142042330D01*
X57868443Y-141838583D01*
X57928270Y-141721165D01*
X59447684Y-143240579D01*
X59475447Y-143206750D01*
X59475457Y-143206736D01*
X59677418Y-142904480D01*
X59677429Y-142904462D01*
X59848790Y-142583869D01*
X59848792Y-142583864D01*
X59987913Y-142247997D01*
X60093446Y-141900101D01*
X60093449Y-141900090D01*
X60164367Y-141543556D01*
X60200000Y-141181765D01*
X60200000Y-140818234D01*
X92800000Y-140818234D01*
X92800000Y-141181765D01*
X92835632Y-141543556D01*
X92906550Y-141900090D01*
X92906553Y-141900101D01*
X93012086Y-142247997D01*
X93151207Y-142583864D01*
X93151209Y-142583869D01*
X93322570Y-142904462D01*
X93322581Y-142904480D01*
X93524550Y-143206748D01*
X93552314Y-143240578D01*
X95071728Y-141721164D01*
X95131557Y-141838583D01*
X95279588Y-142042330D01*
X95457670Y-142220412D01*
X95661417Y-142368443D01*
X95778834Y-142428270D01*
X94259420Y-143947683D01*
X94259420Y-143947685D01*
X94293251Y-143975449D01*
X94595519Y-144177418D01*
X94595537Y-144177429D01*
X94916130Y-144348790D01*
X94916135Y-144348792D01*
X95252002Y-144487913D01*
X95599898Y-144593446D01*
X95599909Y-144593449D01*
X95956443Y-144664367D01*
X96318234Y-144700000D01*
X96681766Y-144700000D01*
X97043556Y-144664367D01*
X97400090Y-144593449D01*
X97400101Y-144593446D01*
X97747997Y-144487913D01*
X98083864Y-144348792D01*
X98083869Y-144348790D01*
X98404462Y-144177429D01*
X98404480Y-144177418D01*
X98706736Y-143975457D01*
X98706750Y-143975447D01*
X98740579Y-143947684D01*
X97221165Y-142428270D01*
X97338583Y-142368443D01*
X97542330Y-142220412D01*
X97720412Y-142042330D01*
X97868443Y-141838583D01*
X97928270Y-141721165D01*
X99447684Y-143240579D01*
X99475447Y-143206750D01*
X99475457Y-143206736D01*
X99677418Y-142904480D01*
X99677429Y-142904462D01*
X99848790Y-142583869D01*
X99848792Y-142583864D01*
X99987913Y-142247997D01*
X100093446Y-141900101D01*
X100093449Y-141900090D01*
X100164367Y-141543556D01*
X100200000Y-141181765D01*
X100200000Y-140818234D01*
X100164367Y-140456443D01*
X100093449Y-140099909D01*
X100093446Y-140099898D01*
X99987913Y-139752002D01*
X99848792Y-139416135D01*
X99848790Y-139416130D01*
X99677429Y-139095537D01*
X99677418Y-139095519D01*
X99475449Y-138793251D01*
X99447685Y-138759420D01*
X99447683Y-138759420D01*
X97928270Y-140278834D01*
X97868443Y-140161417D01*
X97720412Y-139957670D01*
X97542330Y-139779588D01*
X97338583Y-139631557D01*
X97221164Y-139571729D01*
X98740578Y-138052314D01*
X98740578Y-138052313D01*
X98706748Y-138024550D01*
X98404480Y-137822581D01*
X98404462Y-137822570D01*
X98083869Y-137651209D01*
X98083864Y-137651207D01*
X97747997Y-137512086D01*
X97400101Y-137406553D01*
X97400090Y-137406550D01*
X97043556Y-137335632D01*
X96681766Y-137300000D01*
X96318234Y-137300000D01*
X95956443Y-137335632D01*
X95599909Y-137406550D01*
X95599898Y-137406553D01*
X95252002Y-137512086D01*
X94916135Y-137651207D01*
X94916130Y-137651209D01*
X94595537Y-137822570D01*
X94595519Y-137822581D01*
X94293259Y-138024544D01*
X94293245Y-138024554D01*
X94259420Y-138052312D01*
X94259420Y-138052314D01*
X95778835Y-139571729D01*
X95661417Y-139631557D01*
X95457670Y-139779588D01*
X95279588Y-139957670D01*
X95131557Y-140161417D01*
X95071729Y-140278834D01*
X93552314Y-138759420D01*
X93552312Y-138759420D01*
X93524554Y-138793245D01*
X93524544Y-138793259D01*
X93322581Y-139095519D01*
X93322570Y-139095537D01*
X93151209Y-139416130D01*
X93151207Y-139416135D01*
X93012086Y-139752002D01*
X92906553Y-140099898D01*
X92906550Y-140099909D01*
X92835632Y-140456443D01*
X92800000Y-140818234D01*
X60200000Y-140818234D01*
X60164367Y-140456443D01*
X60093449Y-140099909D01*
X60093446Y-140099898D01*
X59987913Y-139752002D01*
X59848792Y-139416135D01*
X59848790Y-139416130D01*
X59677429Y-139095537D01*
X59677418Y-139095519D01*
X59475449Y-138793251D01*
X59447685Y-138759420D01*
X59447683Y-138759420D01*
X57928270Y-140278834D01*
X57868443Y-140161417D01*
X57720412Y-139957670D01*
X57542330Y-139779588D01*
X57338583Y-139631557D01*
X57221164Y-139571729D01*
X58740578Y-138052314D01*
X58740578Y-138052313D01*
X58706748Y-138024550D01*
X58404480Y-137822581D01*
X58404462Y-137822570D01*
X58083869Y-137651209D01*
X58083864Y-137651207D01*
X57747997Y-137512086D01*
X57400101Y-137406553D01*
X57400090Y-137406550D01*
X57043556Y-137335632D01*
X56681766Y-137300000D01*
X56318234Y-137300000D01*
X55956443Y-137335632D01*
X55599909Y-137406550D01*
X55599898Y-137406553D01*
X55252002Y-137512086D01*
X54916135Y-137651207D01*
X54916130Y-137651209D01*
X54595537Y-137822570D01*
X54595519Y-137822581D01*
X54293259Y-138024544D01*
X54293245Y-138024554D01*
X54259420Y-138052312D01*
X54259420Y-138052314D01*
X55778835Y-139571729D01*
X55661417Y-139631557D01*
X55457670Y-139779588D01*
X55279588Y-139957670D01*
X55131557Y-140161417D01*
X55071729Y-140278834D01*
X53552314Y-138759420D01*
X53552312Y-138759420D01*
X53524554Y-138793245D01*
X53524544Y-138793259D01*
X53322581Y-139095519D01*
X53322570Y-139095537D01*
X53151209Y-139416130D01*
X53151207Y-139416135D01*
X53012086Y-139752002D01*
X52906553Y-140099898D01*
X52906550Y-140099909D01*
X52835632Y-140456443D01*
X52800000Y-140818234D01*
X52000500Y-140818234D01*
X52000500Y-108573713D01*
X55139500Y-108573713D01*
X55139500Y-108786286D01*
X55171581Y-108988842D01*
X55172754Y-108996243D01*
X55220601Y-109143501D01*
X55238444Y-109198414D01*
X55334951Y-109387820D01*
X55459890Y-109559786D01*
X55610213Y-109710109D01*
X55782182Y-109835050D01*
X55790946Y-109839516D01*
X55841742Y-109887491D01*
X55858536Y-109955312D01*
X55835998Y-110021447D01*
X55790946Y-110060484D01*
X55782182Y-110064949D01*
X55610213Y-110189890D01*
X55459890Y-110340213D01*
X55334951Y-110512179D01*
X55238444Y-110701585D01*
X55172753Y-110903760D01*
X55165471Y-110949737D01*
X55139500Y-111113713D01*
X55139500Y-111326287D01*
X55172754Y-111536243D01*
X55219063Y-111678768D01*
X55238444Y-111738414D01*
X55334951Y-111927820D01*
X55459890Y-112099786D01*
X55610213Y-112250109D01*
X55782182Y-112375050D01*
X55790946Y-112379516D01*
X55841742Y-112427491D01*
X55858536Y-112495312D01*
X55835998Y-112561447D01*
X55790946Y-112600484D01*
X55782182Y-112604949D01*
X55610213Y-112729890D01*
X55459890Y-112880213D01*
X55334951Y-113052179D01*
X55238444Y-113241585D01*
X55172753Y-113443760D01*
X55139500Y-113653713D01*
X55139500Y-113866287D01*
X55172754Y-114076243D01*
X55185483Y-114115420D01*
X55238444Y-114278414D01*
X55334951Y-114467820D01*
X55459890Y-114639786D01*
X55610213Y-114790109D01*
X55782182Y-114915050D01*
X55790946Y-114919516D01*
X55841742Y-114967491D01*
X55858536Y-115035312D01*
X55835998Y-115101447D01*
X55790946Y-115140484D01*
X55782182Y-115144949D01*
X55610213Y-115269890D01*
X55459890Y-115420213D01*
X55334951Y-115592179D01*
X55238444Y-115781585D01*
X55172753Y-115983760D01*
X55157728Y-116078626D01*
X55139500Y-116193713D01*
X55139500Y-116406287D01*
X55172754Y-116616243D01*
X55234175Y-116805277D01*
X55238444Y-116818414D01*
X55334951Y-117007820D01*
X55459890Y-117179786D01*
X55610213Y-117330109D01*
X55782182Y-117455050D01*
X55790946Y-117459516D01*
X55841742Y-117507491D01*
X55858536Y-117575312D01*
X55835998Y-117641447D01*
X55790946Y-117680484D01*
X55782182Y-117684949D01*
X55610213Y-117809890D01*
X55459890Y-117960213D01*
X55334951Y-118132179D01*
X55238444Y-118321585D01*
X55172753Y-118523760D01*
X55139500Y-118733713D01*
X55139500Y-118946287D01*
X55172754Y-119156243D01*
X55234175Y-119345277D01*
X55238444Y-119358414D01*
X55334951Y-119547820D01*
X55459890Y-119719786D01*
X55610213Y-119870109D01*
X55782182Y-119995050D01*
X55790946Y-119999516D01*
X55841742Y-120047491D01*
X55858536Y-120115312D01*
X55835998Y-120181447D01*
X55790946Y-120220484D01*
X55782182Y-120224949D01*
X55610213Y-120349890D01*
X55459890Y-120500213D01*
X55334951Y-120672179D01*
X55238444Y-120861585D01*
X55172753Y-121063760D01*
X55139500Y-121273713D01*
X55139500Y-121486287D01*
X55172754Y-121696243D01*
X55228836Y-121868846D01*
X55238444Y-121898414D01*
X55334951Y-122087820D01*
X55459890Y-122259786D01*
X55610213Y-122410109D01*
X55782182Y-122535050D01*
X55790946Y-122539516D01*
X55841742Y-122587491D01*
X55858536Y-122655312D01*
X55835998Y-122721447D01*
X55790946Y-122760484D01*
X55782182Y-122764949D01*
X55610213Y-122889890D01*
X55459890Y-123040213D01*
X55334951Y-123212179D01*
X55238444Y-123401585D01*
X55172753Y-123603760D01*
X55139500Y-123813713D01*
X55139500Y-124026286D01*
X55166974Y-124199754D01*
X55172754Y-124236243D01*
X55225447Y-124398416D01*
X55238444Y-124438414D01*
X55334951Y-124627820D01*
X55459890Y-124799786D01*
X55610213Y-124950109D01*
X55782182Y-125075050D01*
X55790946Y-125079516D01*
X55841742Y-125127491D01*
X55858536Y-125195312D01*
X55835998Y-125261447D01*
X55790946Y-125300484D01*
X55782182Y-125304949D01*
X55610213Y-125429890D01*
X55459890Y-125580213D01*
X55334951Y-125752179D01*
X55238444Y-125941585D01*
X55172753Y-126143760D01*
X55139500Y-126353713D01*
X55139500Y-126566286D01*
X55172753Y-126776239D01*
X55238444Y-126978414D01*
X55334951Y-127167820D01*
X55459890Y-127339786D01*
X55573430Y-127453326D01*
X55606915Y-127514649D01*
X55601931Y-127584341D01*
X55560059Y-127640274D01*
X55529083Y-127657189D01*
X55397669Y-127706203D01*
X55397664Y-127706206D01*
X55282455Y-127792452D01*
X55282452Y-127792455D01*
X55196206Y-127907664D01*
X55196202Y-127907671D01*
X55145908Y-128042517D01*
X55139501Y-128102116D01*
X55139501Y-128102123D01*
X55139500Y-128102135D01*
X55139500Y-129897870D01*
X55139501Y-129897876D01*
X55145908Y-129957483D01*
X55196202Y-130092328D01*
X55196206Y-130092335D01*
X55282452Y-130207544D01*
X55282455Y-130207547D01*
X55397664Y-130293793D01*
X55397671Y-130293797D01*
X55532517Y-130344091D01*
X55532516Y-130344091D01*
X55539444Y-130344835D01*
X55592127Y-130350500D01*
X57387872Y-130350499D01*
X57447483Y-130344091D01*
X57582331Y-130293796D01*
X57697546Y-130207546D01*
X57783796Y-130092331D01*
X57834091Y-129957483D01*
X57840500Y-129897873D01*
X57840499Y-128102128D01*
X57834091Y-128042517D01*
X57783796Y-127907669D01*
X57783795Y-127907668D01*
X57783793Y-127907664D01*
X57697547Y-127792455D01*
X57697544Y-127792452D01*
X57582335Y-127706206D01*
X57582328Y-127706202D01*
X57450917Y-127657189D01*
X57394983Y-127615318D01*
X57370566Y-127549853D01*
X57385418Y-127481580D01*
X57406563Y-127453332D01*
X57520104Y-127339792D01*
X57645051Y-127167816D01*
X57741557Y-126978412D01*
X57807246Y-126776243D01*
X57840500Y-126566287D01*
X57840500Y-126353713D01*
X57807246Y-126143757D01*
X57741557Y-125941588D01*
X57645051Y-125752184D01*
X57645049Y-125752181D01*
X57645048Y-125752179D01*
X57520109Y-125580213D01*
X57369786Y-125429890D01*
X57197820Y-125304951D01*
X57197115Y-125304591D01*
X57189054Y-125300485D01*
X57138259Y-125252512D01*
X57121463Y-125184692D01*
X57143999Y-125118556D01*
X57189054Y-125079515D01*
X57197816Y-125075051D01*
X57257293Y-125031839D01*
X57369786Y-124950109D01*
X57369788Y-124950106D01*
X57369792Y-124950104D01*
X57520104Y-124799792D01*
X57568718Y-124732879D01*
X57624045Y-124690215D01*
X57693658Y-124684234D01*
X57755454Y-124716839D01*
X57756716Y-124718084D01*
X58163181Y-125124548D01*
X58196666Y-125185871D01*
X58199500Y-125212229D01*
X58199500Y-128873918D01*
X58199500Y-128873920D01*
X58199499Y-128873920D01*
X58228340Y-129018907D01*
X58228343Y-129018917D01*
X58284914Y-129155492D01*
X58317812Y-129204727D01*
X58317813Y-129204730D01*
X58367046Y-129278414D01*
X58367052Y-129278421D01*
X59097396Y-130008763D01*
X59282048Y-130193415D01*
X59282049Y-130193416D01*
X59382426Y-130293793D01*
X59386585Y-130297952D01*
X59509498Y-130380080D01*
X59509511Y-130380087D01*
X59646082Y-130436656D01*
X59646087Y-130436658D01*
X59646091Y-130436658D01*
X59646092Y-130436659D01*
X59797057Y-130466689D01*
X59796519Y-130469389D01*
X59850303Y-130491037D01*
X59890726Y-130548026D01*
X59896760Y-130575105D01*
X59896907Y-130576480D01*
X59947202Y-130711328D01*
X59947206Y-130711335D01*
X60033452Y-130826544D01*
X60033455Y-130826547D01*
X60148664Y-130912793D01*
X60148671Y-130912797D01*
X60283517Y-130963091D01*
X60283516Y-130963091D01*
X60290444Y-130963835D01*
X60343127Y-130969500D01*
X61946872Y-130969499D01*
X62006483Y-130963091D01*
X62141331Y-130912796D01*
X62256546Y-130826546D01*
X62342796Y-130711331D01*
X62393091Y-130576483D01*
X62399500Y-130516873D01*
X62399499Y-130461574D01*
X62419182Y-130394538D01*
X62471986Y-130348783D01*
X62541144Y-130338838D01*
X62604700Y-130367862D01*
X62623817Y-130388691D01*
X62728115Y-130532245D01*
X62728119Y-130532250D01*
X62728121Y-130532252D01*
X62867748Y-130671879D01*
X62883382Y-130683237D01*
X62926049Y-130738564D01*
X62934500Y-130783557D01*
X62934500Y-130933918D01*
X62934500Y-130933920D01*
X62934499Y-130933920D01*
X62963340Y-131078907D01*
X62963343Y-131078917D01*
X63019914Y-131215492D01*
X63019915Y-131215494D01*
X63019916Y-131215495D01*
X63042637Y-131249500D01*
X63052812Y-131264727D01*
X63052813Y-131264730D01*
X63102046Y-131338414D01*
X63102052Y-131338421D01*
X63987718Y-132224085D01*
X64242048Y-132478415D01*
X64242049Y-132478416D01*
X64312464Y-132548831D01*
X64346585Y-132582952D01*
X64469498Y-132665080D01*
X64469511Y-132665087D01*
X64590643Y-132715261D01*
X64606087Y-132721658D01*
X64606091Y-132721658D01*
X64606092Y-132721659D01*
X64751079Y-132750500D01*
X64751082Y-132750500D01*
X66035390Y-132750500D01*
X66102429Y-132770185D01*
X66109358Y-132775228D01*
X66276079Y-132886628D01*
X66276092Y-132886635D01*
X66458160Y-132962049D01*
X66458165Y-132962051D01*
X66458169Y-132962051D01*
X66458170Y-132962052D01*
X66651456Y-133000500D01*
X66651459Y-133000500D01*
X66848543Y-133000500D01*
X66978582Y-132974632D01*
X67041835Y-132962051D01*
X67223914Y-132886632D01*
X67387782Y-132777139D01*
X67527139Y-132637782D01*
X67636632Y-132473914D01*
X67712051Y-132291835D01*
X67750500Y-132098541D01*
X67750500Y-131901459D01*
X67750500Y-131901456D01*
X67712052Y-131708170D01*
X67712051Y-131708169D01*
X67712051Y-131708165D01*
X67712049Y-131708160D01*
X67636635Y-131526092D01*
X67636628Y-131526079D01*
X67527139Y-131362218D01*
X67527136Y-131362214D01*
X67387785Y-131222863D01*
X67387781Y-131222860D01*
X67223920Y-131113371D01*
X67223907Y-131113364D01*
X67041839Y-131037950D01*
X67041829Y-131037947D01*
X66848543Y-130999500D01*
X66848541Y-130999500D01*
X66651459Y-130999500D01*
X66651457Y-130999500D01*
X66458170Y-131037947D01*
X66458160Y-131037950D01*
X66276092Y-131113364D01*
X66276079Y-131113371D01*
X66107153Y-131226245D01*
X66106132Y-131224717D01*
X66049745Y-131248666D01*
X66035390Y-131249500D01*
X65187229Y-131249500D01*
X65120190Y-131229815D01*
X65099548Y-131213181D01*
X64617930Y-130731562D01*
X64584445Y-130670239D01*
X64589429Y-130600547D01*
X64617927Y-130556202D01*
X64641879Y-130532252D01*
X64653053Y-130516873D01*
X64693226Y-130461578D01*
X64757944Y-130372501D01*
X64847591Y-130196561D01*
X64908610Y-130008763D01*
X64926173Y-129897876D01*
X64939500Y-129813736D01*
X64939500Y-129616263D01*
X64908610Y-129421236D01*
X64862206Y-129278421D01*
X64847591Y-129233439D01*
X64757944Y-129057499D01*
X64729910Y-129018913D01*
X64641884Y-128897753D01*
X64502246Y-128758115D01*
X64342504Y-128642058D01*
X64342503Y-128642057D01*
X64342501Y-128642056D01*
X64166561Y-128552409D01*
X64166558Y-128552408D01*
X63978763Y-128491389D01*
X63783736Y-128460500D01*
X63783731Y-128460500D01*
X63586269Y-128460500D01*
X63586264Y-128460500D01*
X63391236Y-128491389D01*
X63203441Y-128552408D01*
X63027495Y-128642058D01*
X62867753Y-128758115D01*
X62728119Y-128897749D01*
X62728115Y-128897754D01*
X62623817Y-129041310D01*
X62568488Y-129083976D01*
X62498874Y-129089955D01*
X62437079Y-129057350D01*
X62402722Y-128996511D01*
X62399499Y-128968425D01*
X62399499Y-128913129D01*
X62399498Y-128913123D01*
X62398141Y-128900500D01*
X62393091Y-128853517D01*
X62383001Y-128826465D01*
X62342797Y-128718671D01*
X62342793Y-128718664D01*
X62256547Y-128603455D01*
X62256544Y-128603452D01*
X62141335Y-128517206D01*
X62141328Y-128517202D01*
X62006482Y-128466908D01*
X62006483Y-128466908D01*
X61946883Y-128460501D01*
X61946881Y-128460500D01*
X61946873Y-128460500D01*
X61946864Y-128460500D01*
X60343129Y-128460500D01*
X60343123Y-128460501D01*
X60283516Y-128466908D01*
X60148671Y-128517202D01*
X60148664Y-128517206D01*
X60033455Y-128603452D01*
X60033452Y-128603455D01*
X60025608Y-128613933D01*
X60011337Y-128624614D01*
X60000656Y-128638883D01*
X59983949Y-128645114D01*
X59969672Y-128655801D01*
X59951890Y-128657071D01*
X59935192Y-128663300D01*
X59917769Y-128659509D01*
X59899980Y-128660781D01*
X59884333Y-128652236D01*
X59866919Y-128648448D01*
X59838665Y-128627297D01*
X59736819Y-128525451D01*
X59703334Y-128464128D01*
X59700500Y-128437770D01*
X59700500Y-125031839D01*
X59720185Y-124964800D01*
X59772989Y-124919045D01*
X59842147Y-124909101D01*
X59905703Y-124938126D01*
X59942431Y-124993521D01*
X59963263Y-125057635D01*
X59982409Y-125116561D01*
X60056233Y-125261447D01*
X60072058Y-125292504D01*
X60188115Y-125452246D01*
X60327753Y-125591884D01*
X60477234Y-125700486D01*
X60487499Y-125707944D01*
X60663439Y-125797591D01*
X60788637Y-125838270D01*
X60851236Y-125858610D01*
X61046264Y-125889500D01*
X61046269Y-125889500D01*
X61243736Y-125889500D01*
X61438763Y-125858610D01*
X61440265Y-125858122D01*
X61608101Y-125803589D01*
X63223516Y-125803589D01*
X63391351Y-125858122D01*
X63586303Y-125889000D01*
X63783697Y-125889000D01*
X63978640Y-125858123D01*
X64146482Y-125803588D01*
X63685001Y-125342106D01*
X63685000Y-125342106D01*
X63223516Y-125803589D01*
X61608101Y-125803589D01*
X61626561Y-125797591D01*
X61802501Y-125707944D01*
X61833740Y-125685247D01*
X61862031Y-125664694D01*
X61962246Y-125591884D01*
X61962248Y-125591881D01*
X61962252Y-125591879D01*
X62101879Y-125452252D01*
X62101881Y-125452248D01*
X62101884Y-125452246D01*
X62183228Y-125340283D01*
X62217944Y-125292501D01*
X62303177Y-125125223D01*
X62351148Y-125074430D01*
X62418969Y-125057635D01*
X62485104Y-125080172D01*
X62493733Y-125091037D01*
X62516410Y-125096482D01*
X62977893Y-124635000D01*
X62912067Y-124569174D01*
X63185000Y-124569174D01*
X63185000Y-124700826D01*
X63219075Y-124827993D01*
X63284901Y-124942007D01*
X63377993Y-125035099D01*
X63492007Y-125100925D01*
X63619174Y-125135000D01*
X63750826Y-125135000D01*
X63877993Y-125100925D01*
X63992007Y-125035099D01*
X64085099Y-124942007D01*
X64150925Y-124827993D01*
X64185000Y-124700826D01*
X64185000Y-124635000D01*
X64392106Y-124635000D01*
X64853588Y-125096481D01*
X64908123Y-124928640D01*
X64939000Y-124733697D01*
X64939000Y-124536302D01*
X64908122Y-124341352D01*
X64908122Y-124341349D01*
X64853589Y-124173517D01*
X64853589Y-124173516D01*
X64392106Y-124635000D01*
X64185000Y-124635000D01*
X64185000Y-124569174D01*
X64150925Y-124442007D01*
X64085099Y-124327993D01*
X63992007Y-124234901D01*
X63877993Y-124169075D01*
X63750826Y-124135000D01*
X63619174Y-124135000D01*
X63492007Y-124169075D01*
X63377993Y-124234901D01*
X63284901Y-124327993D01*
X63219075Y-124442007D01*
X63185000Y-124569174D01*
X62912067Y-124569174D01*
X62516410Y-124173517D01*
X62496348Y-124178334D01*
X62492150Y-124184474D01*
X62427791Y-124211670D01*
X62358945Y-124199754D01*
X62307470Y-124152508D01*
X62303190Y-124144803D01*
X62217944Y-123977499D01*
X62217942Y-123977496D01*
X62217941Y-123977494D01*
X62101884Y-123817753D01*
X61962250Y-123678119D01*
X61962245Y-123678115D01*
X61862053Y-123605321D01*
X61862030Y-123605306D01*
X61802500Y-123562055D01*
X61717820Y-123518908D01*
X61626561Y-123472409D01*
X61608095Y-123466409D01*
X63223517Y-123466409D01*
X63223517Y-123466410D01*
X63685000Y-123927893D01*
X63685001Y-123927893D01*
X64146482Y-123466410D01*
X64146482Y-123466409D01*
X63978647Y-123411877D01*
X63783697Y-123381000D01*
X63586303Y-123381000D01*
X63391353Y-123411877D01*
X63391350Y-123411877D01*
X63223517Y-123466409D01*
X61608095Y-123466409D01*
X61438763Y-123411389D01*
X61243736Y-123380500D01*
X61243731Y-123380500D01*
X61046269Y-123380500D01*
X61046264Y-123380500D01*
X60851236Y-123411389D01*
X60663441Y-123472408D01*
X60487495Y-123562058D01*
X60327753Y-123678115D01*
X60188115Y-123817753D01*
X60072058Y-123977495D01*
X59982408Y-124153441D01*
X59921389Y-124341236D01*
X59890499Y-124536265D01*
X59890118Y-124541119D01*
X59889029Y-124541033D01*
X59887325Y-124546837D01*
X59888530Y-124558040D01*
X59877658Y-124579760D01*
X59870815Y-124603065D01*
X59862299Y-124610443D01*
X59857256Y-124620520D01*
X59836365Y-124632915D01*
X59818011Y-124648820D01*
X59806859Y-124650423D01*
X59797168Y-124656174D01*
X59772893Y-124655307D01*
X59748853Y-124658764D01*
X59738603Y-124654083D01*
X59727343Y-124653681D01*
X59707392Y-124639829D01*
X59685297Y-124629739D01*
X59677715Y-124619225D01*
X59669950Y-124613834D01*
X59651940Y-124583481D01*
X59617416Y-124500137D01*
X59615766Y-124495527D01*
X59615084Y-124494506D01*
X59615084Y-124494505D01*
X59550880Y-124398416D01*
X59532952Y-124371585D01*
X59532950Y-124371582D01*
X59532949Y-124371581D01*
X58498418Y-123337049D01*
X58498416Y-123337047D01*
X58449092Y-123304091D01*
X58416355Y-123282218D01*
X58375495Y-123254916D01*
X58375494Y-123254915D01*
X58375492Y-123254914D01*
X58375490Y-123254913D01*
X58238917Y-123198343D01*
X58238907Y-123198340D01*
X58093920Y-123169500D01*
X58093918Y-123169500D01*
X57677221Y-123169500D01*
X57610182Y-123149815D01*
X57576903Y-123118385D01*
X57520107Y-123040211D01*
X57369786Y-122889890D01*
X57197820Y-122764951D01*
X57197115Y-122764591D01*
X57189054Y-122760485D01*
X57138259Y-122712512D01*
X57121463Y-122644692D01*
X57143999Y-122578556D01*
X57189054Y-122539515D01*
X57197816Y-122535051D01*
X57246741Y-122499505D01*
X57369786Y-122410109D01*
X57369788Y-122410106D01*
X57369792Y-122410104D01*
X57520104Y-122259792D01*
X57544624Y-122226043D01*
X57576903Y-122181615D01*
X57632233Y-122138949D01*
X57677221Y-122130500D01*
X59177770Y-122130500D01*
X59244809Y-122150185D01*
X59265451Y-122166819D01*
X59756580Y-122657948D01*
X59756584Y-122657951D01*
X59879498Y-122740080D01*
X59879511Y-122740087D01*
X59939539Y-122764951D01*
X60016087Y-122796658D01*
X60016091Y-122796658D01*
X60016092Y-122796659D01*
X60161079Y-122825500D01*
X60161082Y-122825500D01*
X60308917Y-122825500D01*
X70162770Y-122825500D01*
X70229809Y-122845185D01*
X70250451Y-122861819D01*
X70518181Y-123129548D01*
X70551666Y-123190871D01*
X70554500Y-123217229D01*
X70554500Y-123566441D01*
X70534815Y-123633480D01*
X70503385Y-123666759D01*
X70487754Y-123678115D01*
X70487749Y-123678119D01*
X70348115Y-123817753D01*
X70232058Y-123977495D01*
X70142408Y-124153441D01*
X70081389Y-124341236D01*
X70050500Y-124536263D01*
X70050500Y-124733736D01*
X70081389Y-124928763D01*
X70142408Y-125116558D01*
X70142409Y-125116561D01*
X70216233Y-125261447D01*
X70232058Y-125292504D01*
X70348115Y-125452246D01*
X70348121Y-125452252D01*
X70487748Y-125591879D01*
X70503382Y-125603237D01*
X70546049Y-125658564D01*
X70554500Y-125703557D01*
X70554500Y-128646441D01*
X70534815Y-128713480D01*
X70503385Y-128746759D01*
X70487754Y-128758115D01*
X70487749Y-128758119D01*
X70348115Y-128897753D01*
X70232058Y-129057495D01*
X70142408Y-129233441D01*
X70081389Y-129421236D01*
X70050500Y-129616263D01*
X70050500Y-129813736D01*
X70081389Y-130008763D01*
X70108544Y-130092335D01*
X70142409Y-130196561D01*
X70232056Y-130372501D01*
X70232058Y-130372504D01*
X70348115Y-130532246D01*
X70487753Y-130671884D01*
X70637234Y-130780486D01*
X70647499Y-130787944D01*
X70823439Y-130877591D01*
X70948637Y-130918270D01*
X71011236Y-130938610D01*
X71206264Y-130969500D01*
X71206269Y-130969500D01*
X71403736Y-130969500D01*
X71598763Y-130938610D01*
X71613197Y-130933920D01*
X71786561Y-130877591D01*
X71962501Y-130787944D01*
X72067955Y-130711328D01*
X72122246Y-130671884D01*
X72122248Y-130671881D01*
X72122252Y-130671879D01*
X72261879Y-130532252D01*
X72261881Y-130532248D01*
X72261884Y-130532246D01*
X72331331Y-130436659D01*
X72377944Y-130372501D01*
X72467591Y-130196561D01*
X72528610Y-130008763D01*
X72546173Y-129897876D01*
X72559500Y-129813736D01*
X72559500Y-129616263D01*
X72528610Y-129421236D01*
X72482206Y-129278421D01*
X72467591Y-129233439D01*
X72377944Y-129057499D01*
X72349910Y-129018913D01*
X72261884Y-128897753D01*
X72122250Y-128758119D01*
X72122245Y-128758115D01*
X72106615Y-128746759D01*
X72063949Y-128691429D01*
X72055500Y-128646441D01*
X72055500Y-125703557D01*
X72075185Y-125636518D01*
X72106616Y-125603238D01*
X72122252Y-125591879D01*
X72261879Y-125452252D01*
X72261881Y-125452248D01*
X72261884Y-125452246D01*
X72341904Y-125342106D01*
X72377944Y-125292501D01*
X72467591Y-125116561D01*
X72528610Y-124928763D01*
X72531724Y-124909101D01*
X72559500Y-124733736D01*
X72559500Y-124536263D01*
X72528610Y-124341236D01*
X72508270Y-124278637D01*
X72467591Y-124153439D01*
X72377944Y-123977499D01*
X72370486Y-123967234D01*
X72261884Y-123817753D01*
X72122250Y-123678119D01*
X72122245Y-123678115D01*
X72106615Y-123666759D01*
X72063949Y-123611429D01*
X72055500Y-123566441D01*
X72055500Y-122781080D01*
X72051403Y-122760484D01*
X72047345Y-122740084D01*
X72026659Y-122636088D01*
X71992414Y-122553415D01*
X71978330Y-122519413D01*
X71970087Y-122499511D01*
X71970085Y-122499508D01*
X71970084Y-122499505D01*
X71910348Y-122410104D01*
X71887954Y-122376588D01*
X71887953Y-122376587D01*
X71887951Y-122376584D01*
X71783416Y-122272049D01*
X71599183Y-122087816D01*
X71304115Y-121792747D01*
X71222521Y-121711153D01*
X72699500Y-121711153D01*
X72699500Y-121868846D01*
X72730261Y-122023489D01*
X72730264Y-122023501D01*
X72790602Y-122169172D01*
X72790606Y-122169179D01*
X72828602Y-122226044D01*
X72849480Y-122292721D01*
X72849500Y-122294935D01*
X72849500Y-126314069D01*
X72858927Y-126361459D01*
X72874499Y-126439744D01*
X72923535Y-126558127D01*
X72994723Y-126664669D01*
X72994726Y-126664673D01*
X72994727Y-126664674D01*
X74994724Y-128664669D01*
X75043535Y-128713480D01*
X75085332Y-128755277D01*
X75191866Y-128826461D01*
X75191872Y-128826464D01*
X75191873Y-128826465D01*
X75310256Y-128875501D01*
X75310260Y-128875501D01*
X75310261Y-128875502D01*
X75435928Y-128900500D01*
X75435931Y-128900500D01*
X77179192Y-128900500D01*
X77246231Y-128920185D01*
X77266873Y-128936819D01*
X79713181Y-131383127D01*
X79746666Y-131444450D01*
X79749500Y-131470808D01*
X79749500Y-132784216D01*
X79729815Y-132851255D01*
X79713181Y-132871897D01*
X79672863Y-132912214D01*
X79672860Y-132912218D01*
X79563371Y-133076079D01*
X79563364Y-133076092D01*
X79487950Y-133258160D01*
X79487947Y-133258170D01*
X79449500Y-133451456D01*
X79449500Y-133451459D01*
X79449500Y-133648541D01*
X79449500Y-133648543D01*
X79449499Y-133648543D01*
X79487947Y-133841829D01*
X79487950Y-133841839D01*
X79563364Y-134023907D01*
X79563371Y-134023920D01*
X79672860Y-134187781D01*
X79672863Y-134187785D01*
X79812214Y-134327136D01*
X79812218Y-134327139D01*
X79976079Y-134436628D01*
X79976092Y-134436635D01*
X80158160Y-134512049D01*
X80158165Y-134512051D01*
X80158169Y-134512051D01*
X80158170Y-134512052D01*
X80351456Y-134550500D01*
X80351459Y-134550500D01*
X80548543Y-134550500D01*
X80678582Y-134524632D01*
X80741835Y-134512051D01*
X80923914Y-134436632D01*
X81087782Y-134327139D01*
X81227139Y-134187782D01*
X81336632Y-134023914D01*
X81412051Y-133841835D01*
X81450500Y-133648541D01*
X81450500Y-133451459D01*
X81450500Y-133451456D01*
X81412052Y-133258170D01*
X81412051Y-133258169D01*
X81412051Y-133258165D01*
X81367586Y-133150815D01*
X81336635Y-133076092D01*
X81336628Y-133076079D01*
X81227139Y-132912218D01*
X81227136Y-132912214D01*
X81086819Y-132771897D01*
X81053334Y-132710574D01*
X81050500Y-132684216D01*
X81050500Y-131085928D01*
X81025502Y-130960261D01*
X81025501Y-130960260D01*
X81025501Y-130960256D01*
X80976465Y-130841873D01*
X80940431Y-130787944D01*
X80905276Y-130735330D01*
X80905274Y-130735327D01*
X77914673Y-127744726D01*
X77857020Y-127706204D01*
X77808127Y-127673535D01*
X77768664Y-127657189D01*
X77689744Y-127624499D01*
X77689738Y-127624497D01*
X77564071Y-127599500D01*
X77564069Y-127599500D01*
X75820807Y-127599500D01*
X75753768Y-127579815D01*
X75733126Y-127563181D01*
X74186819Y-126016873D01*
X74153334Y-125955550D01*
X74150500Y-125929192D01*
X74150500Y-122294935D01*
X74170185Y-122227896D01*
X74171366Y-122226090D01*
X74209394Y-122169179D01*
X74269737Y-122023497D01*
X74300500Y-121868842D01*
X74300500Y-121711158D01*
X74300500Y-121711155D01*
X74300499Y-121711153D01*
X74269738Y-121556510D01*
X74269737Y-121556503D01*
X74243039Y-121492048D01*
X74209397Y-121410827D01*
X74209390Y-121410814D01*
X74121789Y-121279711D01*
X74121786Y-121279707D01*
X74010292Y-121168213D01*
X74010288Y-121168210D01*
X73879185Y-121080609D01*
X73879172Y-121080602D01*
X73733501Y-121020264D01*
X73733489Y-121020261D01*
X73578845Y-120989500D01*
X73578842Y-120989500D01*
X73421158Y-120989500D01*
X73421155Y-120989500D01*
X73266510Y-121020261D01*
X73266498Y-121020264D01*
X73120827Y-121080602D01*
X73120814Y-121080609D01*
X72989711Y-121168210D01*
X72989707Y-121168213D01*
X72878213Y-121279707D01*
X72878210Y-121279711D01*
X72790609Y-121410814D01*
X72790602Y-121410827D01*
X72730264Y-121556498D01*
X72730261Y-121556510D01*
X72699500Y-121711153D01*
X71222521Y-121711153D01*
X71003421Y-121492052D01*
X71003414Y-121492046D01*
X70929729Y-121442812D01*
X70929729Y-121442813D01*
X70880491Y-121409913D01*
X70743917Y-121353343D01*
X70743907Y-121353340D01*
X70598920Y-121324500D01*
X70598918Y-121324500D01*
X60597229Y-121324500D01*
X60530190Y-121304815D01*
X60509548Y-121288181D01*
X60018418Y-120797049D01*
X60018416Y-120797047D01*
X59969092Y-120764091D01*
X59936355Y-120742218D01*
X59895495Y-120714916D01*
X59895494Y-120714915D01*
X59895492Y-120714914D01*
X59895490Y-120714913D01*
X59758917Y-120658343D01*
X59758907Y-120658340D01*
X59613920Y-120629500D01*
X59613918Y-120629500D01*
X57677221Y-120629500D01*
X57610182Y-120609815D01*
X57576903Y-120578385D01*
X57520107Y-120500211D01*
X57369786Y-120349890D01*
X57197820Y-120224951D01*
X57197115Y-120224591D01*
X57189054Y-120220485D01*
X57138259Y-120172512D01*
X57121463Y-120104692D01*
X57143999Y-120038556D01*
X57189054Y-119999515D01*
X57197816Y-119995051D01*
X57219789Y-119979086D01*
X57369786Y-119870109D01*
X57369788Y-119870106D01*
X57369792Y-119870104D01*
X57520104Y-119719792D01*
X57520106Y-119719788D01*
X57520109Y-119719786D01*
X57647915Y-119543875D01*
X57649259Y-119544851D01*
X57695705Y-119502834D01*
X57749618Y-119490500D01*
X59164071Y-119490500D01*
X59248615Y-119473682D01*
X59289744Y-119465501D01*
X59408127Y-119416465D01*
X59514669Y-119345277D01*
X60780277Y-118079669D01*
X60851465Y-117973127D01*
X60900501Y-117854744D01*
X60909422Y-117809896D01*
X60925500Y-117729069D01*
X60925500Y-111745807D01*
X60945185Y-111678768D01*
X60961814Y-111658131D01*
X62852931Y-109767013D01*
X62914252Y-109733530D01*
X62916317Y-109733099D01*
X62983497Y-109719737D01*
X63129179Y-109659394D01*
X63186044Y-109621397D01*
X63204091Y-109615746D01*
X63220000Y-109605523D01*
X63250959Y-109601071D01*
X63252721Y-109600520D01*
X63254935Y-109600500D01*
X63442468Y-109600500D01*
X63509507Y-109620185D01*
X63555262Y-109672989D01*
X63565206Y-109742147D01*
X63545570Y-109793391D01*
X63540609Y-109800815D01*
X63540602Y-109800827D01*
X63480264Y-109946498D01*
X63480261Y-109946510D01*
X63449500Y-110101153D01*
X63449500Y-110258846D01*
X63480261Y-110413489D01*
X63480264Y-110413501D01*
X63540602Y-110559172D01*
X63540609Y-110559185D01*
X63628210Y-110690288D01*
X63628213Y-110690292D01*
X63739707Y-110801786D01*
X63739711Y-110801789D01*
X63870814Y-110889390D01*
X63870827Y-110889397D01*
X64016498Y-110949735D01*
X64016503Y-110949737D01*
X64171153Y-110980499D01*
X64171156Y-110980500D01*
X64171158Y-110980500D01*
X64328844Y-110980500D01*
X64328845Y-110980499D01*
X64483497Y-110949737D01*
X64629179Y-110889394D01*
X64629185Y-110889390D01*
X64730943Y-110821398D01*
X64797621Y-110800520D01*
X64799834Y-110800500D01*
X91314071Y-110800500D01*
X91398615Y-110783682D01*
X91439744Y-110775501D01*
X91558127Y-110726465D01*
X91664669Y-110655277D01*
X93765276Y-108554670D01*
X93836465Y-108448127D01*
X93885501Y-108329744D01*
X93893307Y-108290500D01*
X93908084Y-108216215D01*
X93910500Y-108204070D01*
X93910500Y-103885928D01*
X93892883Y-103797365D01*
X93890500Y-103773173D01*
X93890500Y-100366553D01*
X93892883Y-100342360D01*
X93900500Y-100304070D01*
X93900500Y-95641606D01*
X95355499Y-95641606D01*
X95504313Y-95689958D01*
X95693985Y-95720000D01*
X95886015Y-95720000D01*
X96075680Y-95689959D01*
X96075681Y-95689959D01*
X96224499Y-95641606D01*
X96224499Y-95641605D01*
X95790001Y-95207106D01*
X95790000Y-95207106D01*
X95355499Y-95641606D01*
X93900500Y-95641606D01*
X93900500Y-95599185D01*
X93920185Y-95532146D01*
X93951616Y-95498866D01*
X94045098Y-95430948D01*
X94045098Y-95430947D01*
X94045102Y-95430945D01*
X94180945Y-95295102D01*
X94293865Y-95139681D01*
X94381082Y-94968509D01*
X94387096Y-94950000D01*
X94402332Y-94903110D01*
X94441769Y-94845434D01*
X94506127Y-94818235D01*
X94574974Y-94830149D01*
X94626450Y-94877393D01*
X94638194Y-94903109D01*
X94648392Y-94934498D01*
X94648393Y-94934498D01*
X95082893Y-94500000D01*
X95030232Y-94447339D01*
X95390000Y-94447339D01*
X95390000Y-94552661D01*
X95417259Y-94654394D01*
X95469920Y-94745606D01*
X95544394Y-94820080D01*
X95635606Y-94872741D01*
X95737339Y-94900000D01*
X95842661Y-94900000D01*
X95944394Y-94872741D01*
X96035606Y-94820080D01*
X96110080Y-94745606D01*
X96162741Y-94654394D01*
X96190000Y-94552661D01*
X96190000Y-94500000D01*
X96497106Y-94500000D01*
X96931605Y-94934499D01*
X96931606Y-94934499D01*
X96979959Y-94785681D01*
X96979959Y-94785680D01*
X97010000Y-94596015D01*
X97010000Y-94403984D01*
X96979958Y-94214314D01*
X96979958Y-94214311D01*
X96931606Y-94065499D01*
X96497106Y-94500000D01*
X96190000Y-94500000D01*
X96190000Y-94447339D01*
X96162741Y-94345606D01*
X96110080Y-94254394D01*
X96035606Y-94179920D01*
X95944394Y-94127259D01*
X95842661Y-94100000D01*
X95737339Y-94100000D01*
X95635606Y-94127259D01*
X95544394Y-94179920D01*
X95469920Y-94254394D01*
X95417259Y-94345606D01*
X95390000Y-94447339D01*
X95030232Y-94447339D01*
X94648393Y-94065500D01*
X94648391Y-94065500D01*
X94638193Y-94096889D01*
X94598755Y-94154565D01*
X94534397Y-94181763D01*
X94465550Y-94169848D01*
X94414075Y-94122604D01*
X94402331Y-94096888D01*
X94381084Y-94031495D01*
X94293864Y-93860318D01*
X94269934Y-93827381D01*
X94180945Y-93704898D01*
X94045102Y-93569055D01*
X93889681Y-93456135D01*
X93850023Y-93435928D01*
X93718506Y-93368916D01*
X93686116Y-93358392D01*
X95355500Y-93358392D01*
X95355500Y-93358393D01*
X95790000Y-93792893D01*
X95790001Y-93792893D01*
X96224498Y-93358393D01*
X96224498Y-93358392D01*
X96075685Y-93310041D01*
X95886015Y-93280000D01*
X95693985Y-93280000D01*
X95504312Y-93310041D01*
X95355500Y-93358392D01*
X93686116Y-93358392D01*
X93535802Y-93309553D01*
X93440928Y-93294526D01*
X93346055Y-93279500D01*
X93153945Y-93279500D01*
X93090696Y-93289517D01*
X92964197Y-93309553D01*
X92781493Y-93368916D01*
X92610318Y-93456135D01*
X92521645Y-93520560D01*
X92454898Y-93569055D01*
X92454896Y-93569057D01*
X92454895Y-93569057D01*
X92319057Y-93704895D01*
X92319057Y-93704896D01*
X92319055Y-93704898D01*
X92283548Y-93753769D01*
X92206135Y-93860318D01*
X92118916Y-94031493D01*
X92097931Y-94096081D01*
X92058494Y-94153756D01*
X91994135Y-94180955D01*
X91925289Y-94169041D01*
X91873813Y-94121797D01*
X91862069Y-94096081D01*
X91841083Y-94031493D01*
X91753864Y-93860318D01*
X91734182Y-93833228D01*
X91710702Y-93767422D01*
X91710500Y-93760342D01*
X91710500Y-92761848D01*
X91712883Y-92737656D01*
X91750501Y-92548542D01*
X91750501Y-92346349D01*
X91750500Y-92346323D01*
X91750500Y-89097551D01*
X91752241Y-89088938D01*
X91751298Y-89083508D01*
X91757522Y-89062828D01*
X91760245Y-89049367D01*
X91761986Y-89045238D01*
X91801082Y-88968509D01*
X91823694Y-88898913D01*
X91825745Y-88894052D01*
X91844640Y-88870908D01*
X91861506Y-88846243D01*
X91866502Y-88844131D01*
X91869933Y-88839930D01*
X91898339Y-88830676D01*
X91925864Y-88819044D01*
X91931208Y-88819968D01*
X91936366Y-88818289D01*
X91965266Y-88825862D01*
X91994711Y-88830958D01*
X91998707Y-88834626D01*
X92003954Y-88836001D01*
X92024174Y-88857999D01*
X92046187Y-88878202D01*
X92049585Y-88885644D01*
X92051237Y-88887441D01*
X92051747Y-88890378D01*
X92057931Y-88903919D01*
X92078915Y-88968504D01*
X92147680Y-89103462D01*
X92166135Y-89139681D01*
X92279055Y-89295102D01*
X92414898Y-89430945D01*
X92570319Y-89543865D01*
X92713406Y-89616772D01*
X92741493Y-89631083D01*
X92821585Y-89657106D01*
X92924199Y-89690447D01*
X93113945Y-89720500D01*
X93113946Y-89720500D01*
X93306054Y-89720500D01*
X93306055Y-89720500D01*
X93495801Y-89690447D01*
X93646119Y-89641606D01*
X95315499Y-89641606D01*
X95464313Y-89689958D01*
X95653985Y-89720000D01*
X95846015Y-89720000D01*
X96035680Y-89689959D01*
X96035681Y-89689959D01*
X96184499Y-89641606D01*
X96184499Y-89641605D01*
X95750001Y-89207106D01*
X95750000Y-89207106D01*
X95315499Y-89641606D01*
X93646119Y-89641606D01*
X93678509Y-89631082D01*
X93849681Y-89543865D01*
X94005102Y-89430945D01*
X94140945Y-89295102D01*
X94253865Y-89139681D01*
X94341082Y-88968509D01*
X94347096Y-88950000D01*
X94362332Y-88903110D01*
X94401769Y-88845434D01*
X94466127Y-88818235D01*
X94534974Y-88830149D01*
X94586450Y-88877393D01*
X94598194Y-88903109D01*
X94608392Y-88934498D01*
X94608393Y-88934498D01*
X95042893Y-88500000D01*
X94990232Y-88447339D01*
X95350000Y-88447339D01*
X95350000Y-88552661D01*
X95377259Y-88654394D01*
X95429920Y-88745606D01*
X95504394Y-88820080D01*
X95595606Y-88872741D01*
X95697339Y-88900000D01*
X95802661Y-88900000D01*
X95904394Y-88872741D01*
X95995606Y-88820080D01*
X96070080Y-88745606D01*
X96122741Y-88654394D01*
X96150000Y-88552661D01*
X96150000Y-88500000D01*
X96457106Y-88500000D01*
X96891605Y-88934499D01*
X96891606Y-88934499D01*
X96939959Y-88785681D01*
X96939959Y-88785680D01*
X96970000Y-88596015D01*
X96970000Y-88403984D01*
X96939958Y-88214314D01*
X96939958Y-88214311D01*
X96891606Y-88065499D01*
X96457106Y-88500000D01*
X96150000Y-88500000D01*
X96150000Y-88447339D01*
X96122741Y-88345606D01*
X96070080Y-88254394D01*
X95995606Y-88179920D01*
X95904394Y-88127259D01*
X95802661Y-88100000D01*
X95697339Y-88100000D01*
X95595606Y-88127259D01*
X95504394Y-88179920D01*
X95429920Y-88254394D01*
X95377259Y-88345606D01*
X95350000Y-88447339D01*
X94990232Y-88447339D01*
X94608393Y-88065500D01*
X94608391Y-88065500D01*
X94598193Y-88096889D01*
X94558755Y-88154565D01*
X94494397Y-88181763D01*
X94425550Y-88169848D01*
X94374075Y-88122604D01*
X94362331Y-88096888D01*
X94341084Y-88031495D01*
X94341082Y-88031491D01*
X94253865Y-87860319D01*
X94140945Y-87704898D01*
X94005102Y-87569055D01*
X94005101Y-87569054D01*
X93911613Y-87501130D01*
X93908272Y-87496798D01*
X93903297Y-87494526D01*
X93887167Y-87469428D01*
X93868948Y-87445800D01*
X93867695Y-87439127D01*
X93865523Y-87435748D01*
X93860500Y-87400813D01*
X93860500Y-87358392D01*
X95315500Y-87358392D01*
X95315500Y-87358393D01*
X95750000Y-87792893D01*
X95750001Y-87792893D01*
X96184498Y-87358393D01*
X96184498Y-87358392D01*
X96035685Y-87310041D01*
X95846015Y-87280000D01*
X95653985Y-87280000D01*
X95464312Y-87310041D01*
X95315500Y-87358392D01*
X93860500Y-87358392D01*
X93860500Y-85145928D01*
X93835502Y-85020261D01*
X93835501Y-85020260D01*
X93835501Y-85020256D01*
X93786465Y-84901873D01*
X93775412Y-84885331D01*
X93715277Y-84795331D01*
X93715275Y-84795329D01*
X93715273Y-84795326D01*
X92164673Y-83244726D01*
X92164669Y-83244723D01*
X92058127Y-83173535D01*
X91939744Y-83124499D01*
X91939738Y-83124497D01*
X91814071Y-83099500D01*
X91814069Y-83099500D01*
X88435931Y-83099500D01*
X88435929Y-83099500D01*
X88310261Y-83124497D01*
X88310255Y-83124499D01*
X88191870Y-83173535D01*
X88085331Y-83244722D01*
X88085324Y-83244728D01*
X86494727Y-84835325D01*
X86494721Y-84835332D01*
X86450261Y-84901872D01*
X86450262Y-84901873D01*
X86423534Y-84941874D01*
X86374499Y-85060255D01*
X86374497Y-85060261D01*
X86349500Y-85185928D01*
X86349500Y-89679191D01*
X86329815Y-89746230D01*
X86313181Y-89766872D01*
X82994727Y-93085325D01*
X82994726Y-93085326D01*
X82923534Y-93191874D01*
X82874499Y-93310255D01*
X82874497Y-93310261D01*
X82849500Y-93435928D01*
X82849500Y-104329192D01*
X82829815Y-104396231D01*
X82813181Y-104416873D01*
X80266873Y-106963181D01*
X80205550Y-106996666D01*
X80179192Y-106999500D01*
X78802190Y-106999500D01*
X78735151Y-106979815D01*
X78689396Y-106927011D01*
X78679452Y-106857853D01*
X78708477Y-106794297D01*
X78754738Y-106760939D01*
X78879172Y-106709397D01*
X78879172Y-106709396D01*
X78879179Y-106709394D01*
X79010289Y-106621789D01*
X79121789Y-106510289D01*
X79209394Y-106379179D01*
X79269737Y-106233497D01*
X79300500Y-106078842D01*
X79300500Y-105921158D01*
X79300500Y-105921155D01*
X79300499Y-105921153D01*
X79279684Y-105816510D01*
X79269737Y-105766503D01*
X79209394Y-105620821D01*
X79171396Y-105563953D01*
X79150520Y-105497276D01*
X79150500Y-105495064D01*
X79150500Y-98136878D01*
X79170185Y-98069839D01*
X79222989Y-98024084D01*
X79227930Y-98022215D01*
X79227869Y-98022068D01*
X79379172Y-97959397D01*
X79379172Y-97959396D01*
X79379179Y-97959394D01*
X79510289Y-97871789D01*
X79621789Y-97760289D01*
X79709394Y-97629179D01*
X79769737Y-97483497D01*
X79800500Y-97328842D01*
X79800500Y-97171158D01*
X79800500Y-97171155D01*
X79800499Y-97171153D01*
X79769738Y-97016510D01*
X79769738Y-97016508D01*
X79769737Y-97016503D01*
X79769735Y-97016498D01*
X79709397Y-96870827D01*
X79709390Y-96870814D01*
X79621789Y-96739711D01*
X79621786Y-96739707D01*
X79510292Y-96628213D01*
X79510288Y-96628210D01*
X79379185Y-96540609D01*
X79379172Y-96540602D01*
X79233501Y-96480264D01*
X79233489Y-96480261D01*
X79078845Y-96449500D01*
X79078842Y-96449500D01*
X78921158Y-96449500D01*
X78921155Y-96449500D01*
X78766510Y-96480261D01*
X78766498Y-96480264D01*
X78620827Y-96540602D01*
X78620814Y-96540609D01*
X78489711Y-96628210D01*
X78489707Y-96628213D01*
X78378213Y-96739707D01*
X78378210Y-96739711D01*
X78290609Y-96870814D01*
X78290602Y-96870827D01*
X78230264Y-97016498D01*
X78230261Y-97016508D01*
X78216920Y-97083579D01*
X78184535Y-97145490D01*
X78182985Y-97147068D01*
X77994722Y-97335332D01*
X77924955Y-97439747D01*
X77923535Y-97441871D01*
X77923532Y-97441877D01*
X77874500Y-97560251D01*
X77874497Y-97560261D01*
X77849500Y-97685928D01*
X77849500Y-105495064D01*
X77829815Y-105562103D01*
X77828603Y-105563954D01*
X77790608Y-105620817D01*
X77790602Y-105620828D01*
X77730264Y-105766498D01*
X77730261Y-105766510D01*
X77699500Y-105921153D01*
X77699500Y-106078846D01*
X77730261Y-106233489D01*
X77730264Y-106233501D01*
X77790602Y-106379172D01*
X77790609Y-106379185D01*
X77878210Y-106510288D01*
X77878213Y-106510292D01*
X77989707Y-106621786D01*
X77989711Y-106621789D01*
X78120814Y-106709390D01*
X78120827Y-106709397D01*
X78245262Y-106760939D01*
X78299666Y-106804779D01*
X78321731Y-106871074D01*
X78304452Y-106938773D01*
X78253315Y-106986384D01*
X78197810Y-106999500D01*
X64769901Y-106999500D01*
X64702862Y-106979815D01*
X64701010Y-106978602D01*
X64629184Y-106930609D01*
X64629172Y-106930602D01*
X64483501Y-106870264D01*
X64483489Y-106870261D01*
X64328845Y-106839500D01*
X64328842Y-106839500D01*
X64171158Y-106839500D01*
X64171155Y-106839500D01*
X64016510Y-106870261D01*
X64016498Y-106870264D01*
X63870827Y-106930602D01*
X63870814Y-106930609D01*
X63739711Y-107018210D01*
X63739707Y-107018213D01*
X63628213Y-107129707D01*
X63628210Y-107129711D01*
X63540609Y-107260814D01*
X63540602Y-107260827D01*
X63480264Y-107406498D01*
X63480261Y-107406510D01*
X63449500Y-107561153D01*
X63449500Y-107718846D01*
X63480261Y-107873489D01*
X63480264Y-107873501D01*
X63540602Y-108019172D01*
X63540609Y-108019185D01*
X63599024Y-108106609D01*
X63602061Y-108116309D01*
X63608716Y-108123989D01*
X63612324Y-108149088D01*
X63619902Y-108173287D01*
X63617213Y-108183086D01*
X63618660Y-108193147D01*
X63608125Y-108216215D01*
X63601417Y-108240667D01*
X63593857Y-108247457D01*
X63589635Y-108256703D01*
X63568300Y-108270413D01*
X63549438Y-108287357D01*
X63537841Y-108289988D01*
X63530857Y-108294477D01*
X63495922Y-108299500D01*
X63254935Y-108299500D01*
X63187896Y-108279815D01*
X63186090Y-108278633D01*
X63129179Y-108240606D01*
X63129172Y-108240602D01*
X62983501Y-108180264D01*
X62983489Y-108180261D01*
X62828845Y-108149500D01*
X62828842Y-108149500D01*
X62671158Y-108149500D01*
X62671155Y-108149500D01*
X62516510Y-108180261D01*
X62516498Y-108180264D01*
X62370827Y-108240602D01*
X62370814Y-108240609D01*
X62239711Y-108328210D01*
X62239707Y-108328213D01*
X62128213Y-108439707D01*
X62128210Y-108439711D01*
X62040609Y-108570814D01*
X62040602Y-108570827D01*
X61980264Y-108716498D01*
X61980261Y-108716508D01*
X61966920Y-108783579D01*
X61934535Y-108845490D01*
X61932984Y-108847068D01*
X60322181Y-110457872D01*
X60260858Y-110491357D01*
X60191166Y-110486373D01*
X60135233Y-110444501D01*
X60110816Y-110379037D01*
X60110500Y-110370191D01*
X60110500Y-107210808D01*
X60130185Y-107143769D01*
X60146819Y-107123127D01*
X60533127Y-106736819D01*
X60594450Y-106703334D01*
X60620808Y-106700500D01*
X62745065Y-106700500D01*
X62812104Y-106720185D01*
X62813909Y-106721366D01*
X62870821Y-106759394D01*
X62870823Y-106759395D01*
X62870827Y-106759397D01*
X63016498Y-106819735D01*
X63016503Y-106819737D01*
X63115858Y-106839500D01*
X63171153Y-106850499D01*
X63171156Y-106850500D01*
X63171158Y-106850500D01*
X63328844Y-106850500D01*
X63328845Y-106850499D01*
X63483497Y-106819737D01*
X63629179Y-106759394D01*
X63760289Y-106671789D01*
X63871789Y-106560289D01*
X63959394Y-106429179D01*
X64019737Y-106283497D01*
X64050500Y-106128842D01*
X64050500Y-105971158D01*
X64050500Y-105971155D01*
X64050499Y-105971153D01*
X64040553Y-105921153D01*
X64019737Y-105816503D01*
X64019735Y-105816498D01*
X63959398Y-105670830D01*
X63959396Y-105670827D01*
X63959394Y-105670821D01*
X63959389Y-105670814D01*
X63958264Y-105668708D01*
X63958005Y-105667468D01*
X63957063Y-105665192D01*
X63957494Y-105665013D01*
X63944022Y-105600305D01*
X63969021Y-105535061D01*
X64025326Y-105493690D01*
X64091814Y-105488636D01*
X64151456Y-105500500D01*
X64151459Y-105500500D01*
X64348543Y-105500500D01*
X64484102Y-105473535D01*
X64541835Y-105462051D01*
X64723914Y-105386632D01*
X64887782Y-105277139D01*
X65027139Y-105137782D01*
X65136632Y-104973914D01*
X65212051Y-104791835D01*
X65250500Y-104598541D01*
X65250500Y-104401459D01*
X65250500Y-104401456D01*
X65212052Y-104208170D01*
X65212051Y-104208169D01*
X65212051Y-104208165D01*
X65170074Y-104106823D01*
X65136635Y-104026092D01*
X65136628Y-104026079D01*
X65027139Y-103862218D01*
X65027136Y-103862214D01*
X64887785Y-103722863D01*
X64887781Y-103722860D01*
X64723920Y-103613371D01*
X64723907Y-103613364D01*
X64541839Y-103537950D01*
X64541829Y-103537947D01*
X64348543Y-103499500D01*
X64348541Y-103499500D01*
X64151459Y-103499500D01*
X64151457Y-103499500D01*
X63958170Y-103537947D01*
X63958160Y-103537950D01*
X63776088Y-103613366D01*
X63678456Y-103678602D01*
X63611778Y-103699480D01*
X63609565Y-103699500D01*
X60714610Y-103699500D01*
X60647571Y-103679815D01*
X60640641Y-103674771D01*
X60473920Y-103563371D01*
X60473907Y-103563364D01*
X60291839Y-103487950D01*
X60291829Y-103487947D01*
X60098543Y-103449500D01*
X60098541Y-103449500D01*
X59901459Y-103449500D01*
X59901457Y-103449500D01*
X59702191Y-103489137D01*
X59701829Y-103487321D01*
X59640616Y-103487862D01*
X59581507Y-103450607D01*
X59551923Y-103387310D01*
X59550500Y-103368581D01*
X59550500Y-103115781D01*
X59570185Y-103048742D01*
X59586814Y-103028105D01*
X61687778Y-100927141D01*
X61687782Y-100927139D01*
X61827139Y-100787782D01*
X61936632Y-100623914D01*
X61998107Y-100475500D01*
X62012051Y-100441836D01*
X62031275Y-100345188D01*
X62050500Y-100248541D01*
X62050500Y-96089657D01*
X62070185Y-96022618D01*
X62074182Y-96016772D01*
X62074578Y-96016226D01*
X62093865Y-95989681D01*
X62181082Y-95818509D01*
X62240447Y-95635801D01*
X62270500Y-95446055D01*
X62270500Y-95253945D01*
X62240447Y-95064199D01*
X62202331Y-94946890D01*
X62181083Y-94881493D01*
X62148851Y-94818235D01*
X62093865Y-94710319D01*
X62074181Y-94683227D01*
X62050702Y-94617422D01*
X62050500Y-94610342D01*
X62050500Y-89689657D01*
X62070185Y-89622618D01*
X62074182Y-89616772D01*
X62074578Y-89616226D01*
X62093865Y-89589681D01*
X62181082Y-89418509D01*
X62240447Y-89235801D01*
X62270500Y-89046055D01*
X62270500Y-88853945D01*
X62240447Y-88664199D01*
X62202331Y-88546890D01*
X62181083Y-88481493D01*
X62179258Y-88477912D01*
X62093865Y-88310319D01*
X62074181Y-88283227D01*
X62050702Y-88217422D01*
X62050500Y-88210342D01*
X62050500Y-85415782D01*
X62070185Y-85348743D01*
X62086819Y-85328101D01*
X64777136Y-82637784D01*
X64777139Y-82637781D01*
X64886631Y-82473914D01*
X64962051Y-82291836D01*
X65000500Y-82098540D01*
X65000500Y-81901460D01*
X65000500Y-81901457D01*
X65000499Y-81901455D01*
X64962052Y-81708171D01*
X64962051Y-81708164D01*
X64886631Y-81526086D01*
X64886629Y-81526083D01*
X64886627Y-81526079D01*
X64777139Y-81362219D01*
X64777136Y-81362215D01*
X64637784Y-81222863D01*
X64637780Y-81222860D01*
X64473920Y-81113372D01*
X64473910Y-81113367D01*
X64291836Y-81037949D01*
X64291828Y-81037947D01*
X64098543Y-80999500D01*
X64098540Y-80999500D01*
X63901460Y-80999500D01*
X63901457Y-80999500D01*
X63708171Y-81037947D01*
X63708163Y-81037949D01*
X63526089Y-81113367D01*
X63526079Y-81113372D01*
X63362219Y-81222860D01*
X63362215Y-81222863D01*
X61680617Y-82904462D01*
X60412221Y-84172858D01*
X60412218Y-84172861D01*
X60342538Y-84242540D01*
X60272859Y-84312219D01*
X60163371Y-84476079D01*
X60163368Y-84476085D01*
X60154341Y-84497879D01*
X60110499Y-84552282D01*
X60044205Y-84574346D01*
X59992328Y-84564986D01*
X59908501Y-84530264D01*
X59908489Y-84530261D01*
X59753845Y-84499500D01*
X59753842Y-84499500D01*
X59596158Y-84499500D01*
X59596155Y-84499500D01*
X59441510Y-84530261D01*
X59441498Y-84530264D01*
X59295827Y-84590602D01*
X59295814Y-84590609D01*
X59164711Y-84678210D01*
X59164707Y-84678213D01*
X59053213Y-84789707D01*
X59053207Y-84789715D01*
X58965607Y-84920818D01*
X58965606Y-84920819D01*
X58955805Y-84944480D01*
X58928927Y-84984703D01*
X57927049Y-85986581D01*
X57877812Y-86060271D01*
X57844921Y-86109496D01*
X57844914Y-86109508D01*
X57788342Y-86246086D01*
X57788340Y-86246092D01*
X57759500Y-86391079D01*
X57759500Y-87923796D01*
X57739815Y-87990835D01*
X57718263Y-88015530D01*
X57718343Y-88015610D01*
X57717179Y-88016773D01*
X57716042Y-88018077D01*
X57714902Y-88019050D01*
X57579057Y-88154895D01*
X57579057Y-88154896D01*
X57579055Y-88154898D01*
X57538773Y-88210342D01*
X57466135Y-88310318D01*
X57378917Y-88481492D01*
X57357667Y-88546891D01*
X57318228Y-88604566D01*
X57253870Y-88631764D01*
X57185023Y-88619849D01*
X57133548Y-88572604D01*
X57121805Y-88546890D01*
X57111605Y-88515500D01*
X56677106Y-88950000D01*
X57111605Y-89384499D01*
X57111606Y-89384499D01*
X57121805Y-89353109D01*
X57161242Y-89295433D01*
X57225600Y-89268234D01*
X57294447Y-89280148D01*
X57345923Y-89327392D01*
X57357667Y-89353108D01*
X57378916Y-89418505D01*
X57378917Y-89418506D01*
X57378918Y-89418509D01*
X57466135Y-89589681D01*
X57579055Y-89745102D01*
X57714898Y-89880945D01*
X57870319Y-89993865D01*
X58008103Y-90064070D01*
X58041493Y-90081083D01*
X58132845Y-90110764D01*
X58224199Y-90140447D01*
X58413945Y-90170500D01*
X58413946Y-90170500D01*
X58606054Y-90170500D01*
X58606055Y-90170500D01*
X58795801Y-90140447D01*
X58978509Y-90081082D01*
X59149681Y-89993865D01*
X59305102Y-89880945D01*
X59440945Y-89745102D01*
X59553865Y-89589681D01*
X59641082Y-89418509D01*
X59641084Y-89418504D01*
X59662069Y-89353919D01*
X59701506Y-89296243D01*
X59765864Y-89269044D01*
X59834711Y-89280958D01*
X59886187Y-89328202D01*
X59897931Y-89353919D01*
X59918915Y-89418504D01*
X59918918Y-89418509D01*
X60006135Y-89589681D01*
X60006139Y-89589686D01*
X60025818Y-89616772D01*
X60049298Y-89682578D01*
X60049500Y-89689657D01*
X60049500Y-94610342D01*
X60029815Y-94677381D01*
X60025818Y-94683228D01*
X60006135Y-94710318D01*
X59918916Y-94881493D01*
X59897931Y-94946081D01*
X59858494Y-95003756D01*
X59794135Y-95030955D01*
X59725289Y-95019041D01*
X59673813Y-94971797D01*
X59662069Y-94946081D01*
X59641083Y-94881493D01*
X59608851Y-94818235D01*
X59553865Y-94710319D01*
X59440945Y-94554898D01*
X59305102Y-94419055D01*
X59149681Y-94306135D01*
X58978506Y-94218916D01*
X58795802Y-94159553D01*
X58700928Y-94144526D01*
X58606055Y-94129500D01*
X58413945Y-94129500D01*
X58350696Y-94139517D01*
X58224197Y-94159553D01*
X58041493Y-94218916D01*
X57870318Y-94306135D01*
X57781645Y-94370560D01*
X57714898Y-94419055D01*
X57714896Y-94419057D01*
X57714895Y-94419057D01*
X57579057Y-94554895D01*
X57579057Y-94554896D01*
X57579055Y-94554898D01*
X57549153Y-94596055D01*
X57466135Y-94710318D01*
X57378917Y-94881492D01*
X57357667Y-94946891D01*
X57318228Y-95004566D01*
X57253870Y-95031764D01*
X57185023Y-95019849D01*
X57133548Y-94972604D01*
X57121805Y-94946890D01*
X57111605Y-94915500D01*
X56677106Y-95350000D01*
X57111605Y-95784499D01*
X57111606Y-95784499D01*
X57121805Y-95753109D01*
X57161242Y-95695433D01*
X57225600Y-95668234D01*
X57294447Y-95680148D01*
X57345923Y-95727392D01*
X57357667Y-95753108D01*
X57378916Y-95818505D01*
X57378917Y-95818506D01*
X57378918Y-95818509D01*
X57466135Y-95989681D01*
X57579055Y-96145102D01*
X57579057Y-96145104D01*
X57713181Y-96279228D01*
X57746666Y-96340551D01*
X57749500Y-96366909D01*
X57749500Y-99798918D01*
X57749500Y-99798920D01*
X57749499Y-99798920D01*
X57778340Y-99943907D01*
X57778343Y-99943917D01*
X57834914Y-100080492D01*
X57867812Y-100129727D01*
X57867813Y-100129730D01*
X57917046Y-100203414D01*
X57917047Y-100203415D01*
X57917048Y-100203416D01*
X58241429Y-100527796D01*
X58268307Y-100568022D01*
X58278107Y-100591682D01*
X58365710Y-100722788D01*
X58365713Y-100722792D01*
X58477207Y-100834286D01*
X58477211Y-100834289D01*
X58608314Y-100921890D01*
X58608318Y-100921892D01*
X58608321Y-100921894D01*
X58612436Y-100923598D01*
X58617084Y-100925524D01*
X58671487Y-100969365D01*
X58693552Y-101035660D01*
X58676273Y-101103359D01*
X58657312Y-101127766D01*
X57912221Y-101872858D01*
X57912218Y-101872861D01*
X57842538Y-101942540D01*
X57772859Y-102012219D01*
X57663371Y-102176079D01*
X57663364Y-102176092D01*
X57587950Y-102358160D01*
X57587947Y-102358170D01*
X57549500Y-102551456D01*
X57549500Y-104997716D01*
X57529815Y-105064755D01*
X57477011Y-105110510D01*
X57407853Y-105120454D01*
X57352615Y-105098034D01*
X57197557Y-104985379D01*
X57008216Y-104888904D01*
X56990000Y-104882984D01*
X56990000Y-106016000D01*
X56981849Y-106043756D01*
X56955925Y-105947007D01*
X56890099Y-105832993D01*
X56797007Y-105739901D01*
X56682993Y-105674075D01*
X56555826Y-105640000D01*
X56424174Y-105640000D01*
X56297007Y-105674075D01*
X56182993Y-105739901D01*
X56089901Y-105832993D01*
X56024075Y-105947007D01*
X55990000Y-106074174D01*
X55990000Y-106205826D01*
X56024075Y-106332993D01*
X56089901Y-106447007D01*
X56182993Y-106540099D01*
X56297007Y-106605925D01*
X56398107Y-106633015D01*
X56366000Y-106640000D01*
X55232986Y-106640000D01*
X55232985Y-106640001D01*
X55238903Y-106658215D01*
X55335379Y-106847557D01*
X55460272Y-107019459D01*
X55460276Y-107019464D01*
X55610535Y-107169723D01*
X55610540Y-107169727D01*
X55782444Y-107294622D01*
X55791495Y-107299234D01*
X55842292Y-107347208D01*
X55859087Y-107415029D01*
X55836550Y-107481164D01*
X55791499Y-107520202D01*
X55782182Y-107524949D01*
X55610213Y-107649890D01*
X55459890Y-107800213D01*
X55334951Y-107972179D01*
X55238444Y-108161585D01*
X55172753Y-108363760D01*
X55139500Y-108573713D01*
X52000500Y-108573713D01*
X52000500Y-105639998D01*
X55232985Y-105639998D01*
X55232986Y-105640000D01*
X55990000Y-105640000D01*
X55990000Y-104882985D01*
X55989999Y-104882984D01*
X55971783Y-104888904D01*
X55782442Y-104985379D01*
X55610540Y-105110272D01*
X55610535Y-105110276D01*
X55460276Y-105260535D01*
X55460272Y-105260540D01*
X55335379Y-105432442D01*
X55238903Y-105621784D01*
X55232985Y-105639998D01*
X52000500Y-105639998D01*
X52000500Y-96491606D01*
X55535499Y-96491606D01*
X55684313Y-96539958D01*
X55873985Y-96570000D01*
X56066015Y-96570000D01*
X56255680Y-96539959D01*
X56255681Y-96539959D01*
X56404499Y-96491606D01*
X56404499Y-96491605D01*
X55970001Y-96057106D01*
X55970000Y-96057106D01*
X55535499Y-96491606D01*
X52000500Y-96491606D01*
X52000500Y-95253984D01*
X54750000Y-95253984D01*
X54750000Y-95446015D01*
X54780041Y-95635685D01*
X54828392Y-95784498D01*
X54828393Y-95784498D01*
X55262893Y-95350000D01*
X55210232Y-95297339D01*
X55570000Y-95297339D01*
X55570000Y-95402661D01*
X55597259Y-95504394D01*
X55649920Y-95595606D01*
X55724394Y-95670080D01*
X55815606Y-95722741D01*
X55917339Y-95750000D01*
X56022661Y-95750000D01*
X56124394Y-95722741D01*
X56215606Y-95670080D01*
X56290080Y-95595606D01*
X56342741Y-95504394D01*
X56370000Y-95402661D01*
X56370000Y-95297339D01*
X56342741Y-95195606D01*
X56290080Y-95104394D01*
X56215606Y-95029920D01*
X56124394Y-94977259D01*
X56022661Y-94950000D01*
X55917339Y-94950000D01*
X55815606Y-94977259D01*
X55724394Y-95029920D01*
X55649920Y-95104394D01*
X55597259Y-95195606D01*
X55570000Y-95297339D01*
X55210232Y-95297339D01*
X54828393Y-94915500D01*
X54828392Y-94915500D01*
X54780041Y-95064312D01*
X54750000Y-95253984D01*
X52000500Y-95253984D01*
X52000500Y-94208392D01*
X55535500Y-94208392D01*
X55535500Y-94208393D01*
X55970000Y-94642893D01*
X55970001Y-94642893D01*
X56404498Y-94208393D01*
X56404498Y-94208392D01*
X56255685Y-94160041D01*
X56066015Y-94130000D01*
X55873985Y-94130000D01*
X55684312Y-94160041D01*
X55535500Y-94208392D01*
X52000500Y-94208392D01*
X52000500Y-90091606D01*
X55535499Y-90091606D01*
X55684313Y-90139958D01*
X55873985Y-90170000D01*
X56066015Y-90170000D01*
X56255680Y-90139959D01*
X56255681Y-90139959D01*
X56404499Y-90091606D01*
X56404499Y-90091605D01*
X55970001Y-89657106D01*
X55970000Y-89657106D01*
X55535499Y-90091606D01*
X52000500Y-90091606D01*
X52000500Y-88853984D01*
X54750000Y-88853984D01*
X54750000Y-89046015D01*
X54780041Y-89235685D01*
X54828392Y-89384498D01*
X54828393Y-89384498D01*
X55262893Y-88950000D01*
X55210232Y-88897339D01*
X55570000Y-88897339D01*
X55570000Y-89002661D01*
X55597259Y-89104394D01*
X55649920Y-89195606D01*
X55724394Y-89270080D01*
X55815606Y-89322741D01*
X55917339Y-89350000D01*
X56022661Y-89350000D01*
X56124394Y-89322741D01*
X56215606Y-89270080D01*
X56290080Y-89195606D01*
X56342741Y-89104394D01*
X56370000Y-89002661D01*
X56370000Y-88897339D01*
X56342741Y-88795606D01*
X56290080Y-88704394D01*
X56215606Y-88629920D01*
X56124394Y-88577259D01*
X56022661Y-88550000D01*
X55917339Y-88550000D01*
X55815606Y-88577259D01*
X55724394Y-88629920D01*
X55649920Y-88704394D01*
X55597259Y-88795606D01*
X55570000Y-88897339D01*
X55210232Y-88897339D01*
X54828393Y-88515500D01*
X54828392Y-88515500D01*
X54780041Y-88664312D01*
X54750000Y-88853984D01*
X52000500Y-88853984D01*
X52000500Y-87808392D01*
X55535500Y-87808392D01*
X55535500Y-87808393D01*
X55970000Y-88242893D01*
X55970001Y-88242893D01*
X56404498Y-87808393D01*
X56404498Y-87808392D01*
X56255685Y-87760041D01*
X56066015Y-87730000D01*
X55873985Y-87730000D01*
X55684312Y-87760041D01*
X55535500Y-87808392D01*
X52000500Y-87808392D01*
X52000500Y-81002706D01*
X52000618Y-80997297D01*
X52008436Y-80818234D01*
X52800000Y-80818234D01*
X52800000Y-81181765D01*
X52835632Y-81543556D01*
X52906550Y-81900090D01*
X52906553Y-81900101D01*
X53012086Y-82247997D01*
X53151207Y-82583864D01*
X53151209Y-82583869D01*
X53322570Y-82904462D01*
X53322581Y-82904480D01*
X53524550Y-83206748D01*
X53552314Y-83240578D01*
X55071728Y-81721164D01*
X55131557Y-81838583D01*
X55279588Y-82042330D01*
X55457670Y-82220412D01*
X55661417Y-82368443D01*
X55778834Y-82428270D01*
X54259420Y-83947683D01*
X54259420Y-83947685D01*
X54293251Y-83975449D01*
X54595519Y-84177418D01*
X54595537Y-84177429D01*
X54916130Y-84348790D01*
X54916135Y-84348792D01*
X55252002Y-84487913D01*
X55599898Y-84593446D01*
X55599909Y-84593449D01*
X55956443Y-84664367D01*
X56318234Y-84700000D01*
X56681766Y-84700000D01*
X57043556Y-84664367D01*
X57400090Y-84593449D01*
X57400101Y-84593446D01*
X57747997Y-84487913D01*
X58083864Y-84348792D01*
X58083869Y-84348790D01*
X58404462Y-84177429D01*
X58404480Y-84177418D01*
X58706736Y-83975457D01*
X58706750Y-83975447D01*
X58740579Y-83947684D01*
X57221165Y-82428270D01*
X57338583Y-82368443D01*
X57542330Y-82220412D01*
X57720412Y-82042330D01*
X57868443Y-81838583D01*
X57928270Y-81721165D01*
X59447684Y-83240579D01*
X59475447Y-83206750D01*
X59475457Y-83206736D01*
X59677418Y-82904480D01*
X59677429Y-82904462D01*
X59848790Y-82583869D01*
X59848792Y-82583864D01*
X59987913Y-82247997D01*
X60093446Y-81900101D01*
X60093449Y-81900090D01*
X60164367Y-81543556D01*
X60200000Y-81181765D01*
X60200000Y-80818234D01*
X92800000Y-80818234D01*
X92800000Y-81181765D01*
X92835632Y-81543556D01*
X92906550Y-81900090D01*
X92906553Y-81900101D01*
X93012086Y-82247997D01*
X93151207Y-82583864D01*
X93151209Y-82583869D01*
X93322570Y-82904462D01*
X93322581Y-82904480D01*
X93524550Y-83206748D01*
X93552314Y-83240578D01*
X95071728Y-81721164D01*
X95131557Y-81838583D01*
X95279588Y-82042330D01*
X95457670Y-82220412D01*
X95661417Y-82368443D01*
X95778834Y-82428270D01*
X94259420Y-83947683D01*
X94259420Y-83947685D01*
X94293251Y-83975449D01*
X94595519Y-84177418D01*
X94595537Y-84177429D01*
X94916130Y-84348790D01*
X94916135Y-84348792D01*
X95252002Y-84487913D01*
X95599898Y-84593446D01*
X95599909Y-84593449D01*
X95956443Y-84664367D01*
X96318234Y-84700000D01*
X96681766Y-84700000D01*
X97043556Y-84664367D01*
X97400090Y-84593449D01*
X97400101Y-84593446D01*
X97747997Y-84487913D01*
X98083864Y-84348792D01*
X98083869Y-84348790D01*
X98404462Y-84177429D01*
X98404480Y-84177418D01*
X98706736Y-83975457D01*
X98706750Y-83975447D01*
X98740579Y-83947684D01*
X97221165Y-82428270D01*
X97338583Y-82368443D01*
X97542330Y-82220412D01*
X97720412Y-82042330D01*
X97868443Y-81838583D01*
X97928270Y-81721165D01*
X99447684Y-83240579D01*
X99475447Y-83206750D01*
X99475457Y-83206736D01*
X99677418Y-82904480D01*
X99677429Y-82904462D01*
X99848790Y-82583869D01*
X99848792Y-82583864D01*
X99987913Y-82247997D01*
X100093446Y-81900101D01*
X100093449Y-81900090D01*
X100164367Y-81543556D01*
X100200000Y-81181765D01*
X100200000Y-80818234D01*
X100164367Y-80456443D01*
X100093449Y-80099909D01*
X100093446Y-80099898D01*
X99987913Y-79752002D01*
X99848792Y-79416135D01*
X99848790Y-79416130D01*
X99677429Y-79095537D01*
X99677418Y-79095519D01*
X99475449Y-78793251D01*
X99447685Y-78759420D01*
X99447683Y-78759420D01*
X97928270Y-80278834D01*
X97868443Y-80161417D01*
X97720412Y-79957670D01*
X97542330Y-79779588D01*
X97338583Y-79631557D01*
X97221164Y-79571729D01*
X98740578Y-78052314D01*
X98740578Y-78052313D01*
X98706748Y-78024550D01*
X98404480Y-77822581D01*
X98404462Y-77822570D01*
X98083869Y-77651209D01*
X98083864Y-77651207D01*
X97747997Y-77512086D01*
X97400101Y-77406553D01*
X97400090Y-77406550D01*
X97043556Y-77335632D01*
X96681766Y-77300000D01*
X96318234Y-77300000D01*
X95956443Y-77335632D01*
X95599909Y-77406550D01*
X95599898Y-77406553D01*
X95252002Y-77512086D01*
X94916135Y-77651207D01*
X94916130Y-77651209D01*
X94595537Y-77822570D01*
X94595519Y-77822581D01*
X94293259Y-78024544D01*
X94293245Y-78024554D01*
X94259420Y-78052312D01*
X94259420Y-78052314D01*
X95778835Y-79571729D01*
X95661417Y-79631557D01*
X95457670Y-79779588D01*
X95279588Y-79957670D01*
X95131557Y-80161417D01*
X95071729Y-80278834D01*
X93552314Y-78759420D01*
X93552312Y-78759420D01*
X93524554Y-78793245D01*
X93524544Y-78793259D01*
X93322581Y-79095519D01*
X93322570Y-79095537D01*
X93151209Y-79416130D01*
X93151207Y-79416135D01*
X93012086Y-79752002D01*
X92906553Y-80099898D01*
X92906550Y-80099909D01*
X92835632Y-80456443D01*
X92800000Y-80818234D01*
X60200000Y-80818234D01*
X60164367Y-80456443D01*
X60093449Y-80099909D01*
X60093446Y-80099898D01*
X59987913Y-79752002D01*
X59848792Y-79416135D01*
X59848790Y-79416130D01*
X59677429Y-79095537D01*
X59677418Y-79095519D01*
X59475449Y-78793251D01*
X59447685Y-78759420D01*
X59447683Y-78759420D01*
X57928270Y-80278834D01*
X57868443Y-80161417D01*
X57720412Y-79957670D01*
X57542330Y-79779588D01*
X57338583Y-79631557D01*
X57221164Y-79571729D01*
X58740578Y-78052314D01*
X58740578Y-78052313D01*
X58706748Y-78024550D01*
X58404480Y-77822581D01*
X58404462Y-77822570D01*
X58083869Y-77651209D01*
X58083864Y-77651207D01*
X57747997Y-77512086D01*
X57400101Y-77406553D01*
X57400090Y-77406550D01*
X57043556Y-77335632D01*
X56681766Y-77300000D01*
X56318234Y-77300000D01*
X55956443Y-77335632D01*
X55599909Y-77406550D01*
X55599898Y-77406553D01*
X55252002Y-77512086D01*
X54916135Y-77651207D01*
X54916130Y-77651209D01*
X54595537Y-77822570D01*
X54595519Y-77822581D01*
X54293259Y-78024544D01*
X54293245Y-78024554D01*
X54259420Y-78052312D01*
X54259420Y-78052314D01*
X55778835Y-79571729D01*
X55661417Y-79631557D01*
X55457670Y-79779588D01*
X55279588Y-79957670D01*
X55131557Y-80161417D01*
X55071729Y-80278834D01*
X53552314Y-78759420D01*
X53552312Y-78759420D01*
X53524554Y-78793245D01*
X53524544Y-78793259D01*
X53322581Y-79095519D01*
X53322570Y-79095537D01*
X53151209Y-79416130D01*
X53151207Y-79416135D01*
X53012086Y-79752002D01*
X52906553Y-80099898D01*
X52906550Y-80099909D01*
X52835632Y-80456443D01*
X52800000Y-80818234D01*
X52008436Y-80818234D01*
X52008805Y-80809778D01*
X52008805Y-80809777D01*
X52016858Y-80625332D01*
X52017386Y-80613228D01*
X52018326Y-80602495D01*
X52068152Y-80224025D01*
X52070025Y-80213405D01*
X52152649Y-79840709D01*
X52155440Y-79830295D01*
X52270230Y-79466227D01*
X52273917Y-79456095D01*
X52420003Y-79103412D01*
X52424561Y-79093638D01*
X52600822Y-78755045D01*
X52606217Y-78745700D01*
X52811325Y-78423744D01*
X52817515Y-78414905D01*
X53049896Y-78112060D01*
X53056834Y-78103791D01*
X53314726Y-77822352D01*
X53322352Y-77814726D01*
X53603791Y-77556834D01*
X53612060Y-77549896D01*
X53914905Y-77317515D01*
X53923744Y-77311325D01*
X54245700Y-77106217D01*
X54255045Y-77100822D01*
X54593638Y-76924561D01*
X54603412Y-76920003D01*
X54956095Y-76773917D01*
X54966227Y-76770230D01*
X55330295Y-76655440D01*
X55340709Y-76652649D01*
X55713405Y-76570025D01*
X55724025Y-76568152D01*
X56102495Y-76518326D01*
X56113226Y-76517386D01*
X56497297Y-76500617D01*
X56502706Y-76500500D01*
X56565892Y-76500500D01*
X96434108Y-76500500D01*
X96497294Y-76500500D01*
X96502702Y-76500617D01*
G37*
%TD.AperFunction*%
%TD*%
%TA.AperFunction,Conductor*%
%TO.N,GND*%
G36*
X147752702Y-76500617D02*
G01*
X148136771Y-76517386D01*
X148147506Y-76518326D01*
X148525971Y-76568152D01*
X148536597Y-76570025D01*
X148909284Y-76652648D01*
X148919710Y-76655442D01*
X149283765Y-76770227D01*
X149293911Y-76773920D01*
X149646578Y-76920000D01*
X149656369Y-76924566D01*
X149994942Y-77100816D01*
X150004310Y-77106224D01*
X150326244Y-77311318D01*
X150335105Y-77317523D01*
X150637930Y-77549889D01*
X150646217Y-77556843D01*
X150927635Y-77814715D01*
X150935284Y-77822364D01*
X151193156Y-78103782D01*
X151200110Y-78112069D01*
X151432476Y-78414894D01*
X151438681Y-78423755D01*
X151643775Y-78745689D01*
X151649183Y-78755057D01*
X151825430Y-79093623D01*
X151830002Y-79103427D01*
X151976075Y-79456078D01*
X151979775Y-79466244D01*
X152094554Y-79830278D01*
X152097354Y-79840727D01*
X152179971Y-80213389D01*
X152181849Y-80224042D01*
X152231671Y-80602473D01*
X152232614Y-80613249D01*
X152249382Y-80997297D01*
X152249500Y-81002706D01*
X152249500Y-140997293D01*
X152249382Y-141002702D01*
X152232614Y-141386750D01*
X152231671Y-141397526D01*
X152181849Y-141775957D01*
X152179971Y-141786610D01*
X152097354Y-142159272D01*
X152094554Y-142169721D01*
X151979775Y-142533755D01*
X151976075Y-142543921D01*
X151830002Y-142896572D01*
X151825430Y-142906376D01*
X151649183Y-143244942D01*
X151643775Y-143254310D01*
X151438681Y-143576244D01*
X151432476Y-143585105D01*
X151200110Y-143887930D01*
X151193156Y-143896217D01*
X150935284Y-144177635D01*
X150927635Y-144185284D01*
X150646217Y-144443156D01*
X150637930Y-144450110D01*
X150335105Y-144682476D01*
X150326244Y-144688681D01*
X150004310Y-144893775D01*
X149994942Y-144899183D01*
X149656376Y-145075430D01*
X149646572Y-145080002D01*
X149293921Y-145226075D01*
X149283755Y-145229775D01*
X148919721Y-145344554D01*
X148909272Y-145347354D01*
X148536610Y-145429971D01*
X148525957Y-145431849D01*
X148147526Y-145481671D01*
X148136750Y-145482614D01*
X147752703Y-145499382D01*
X147747294Y-145499500D01*
X107752706Y-145499500D01*
X107747297Y-145499382D01*
X107363249Y-145482614D01*
X107352473Y-145481671D01*
X106974042Y-145431849D01*
X106963389Y-145429971D01*
X106590727Y-145347354D01*
X106580278Y-145344554D01*
X106216244Y-145229775D01*
X106206078Y-145226075D01*
X105853427Y-145080002D01*
X105843623Y-145075430D01*
X105505057Y-144899183D01*
X105495689Y-144893775D01*
X105173755Y-144688681D01*
X105164894Y-144682476D01*
X104862069Y-144450110D01*
X104853782Y-144443156D01*
X104572364Y-144185284D01*
X104564715Y-144177635D01*
X104386038Y-143982643D01*
X104306843Y-143896217D01*
X104299889Y-143887930D01*
X104067523Y-143585105D01*
X104061318Y-143576244D01*
X103856224Y-143254310D01*
X103850816Y-143244942D01*
X103848544Y-143240578D01*
X103674566Y-142906369D01*
X103669997Y-142896572D01*
X103523924Y-142543921D01*
X103520224Y-142533755D01*
X103405442Y-142169710D01*
X103402648Y-142159284D01*
X103320025Y-141786597D01*
X103318152Y-141775971D01*
X103268326Y-141397506D01*
X103267386Y-141386770D01*
X103250624Y-141002854D01*
X103250507Y-140997218D01*
X103250935Y-140818234D01*
X104050000Y-140818234D01*
X104050000Y-141181765D01*
X104085632Y-141543556D01*
X104156550Y-141900090D01*
X104156553Y-141900101D01*
X104262086Y-142247997D01*
X104401207Y-142583864D01*
X104401209Y-142583869D01*
X104572570Y-142904462D01*
X104572581Y-142904480D01*
X104774550Y-143206748D01*
X104802314Y-143240578D01*
X106321728Y-141721164D01*
X106381557Y-141838583D01*
X106529588Y-142042330D01*
X106707670Y-142220412D01*
X106911417Y-142368443D01*
X107028834Y-142428270D01*
X105509420Y-143947683D01*
X105509420Y-143947685D01*
X105543251Y-143975449D01*
X105845519Y-144177418D01*
X105845537Y-144177429D01*
X106166130Y-144348790D01*
X106166135Y-144348792D01*
X106502002Y-144487913D01*
X106849898Y-144593446D01*
X106849909Y-144593449D01*
X107206443Y-144664367D01*
X107568234Y-144700000D01*
X107931766Y-144700000D01*
X108293556Y-144664367D01*
X108650090Y-144593449D01*
X108650101Y-144593446D01*
X108997997Y-144487913D01*
X109333864Y-144348792D01*
X109333869Y-144348790D01*
X109654462Y-144177429D01*
X109654480Y-144177418D01*
X109956736Y-143975457D01*
X109956750Y-143975447D01*
X109990579Y-143947684D01*
X108471165Y-142428270D01*
X108588583Y-142368443D01*
X108792330Y-142220412D01*
X108970412Y-142042330D01*
X109118443Y-141838583D01*
X109178270Y-141721165D01*
X110697684Y-143240579D01*
X110725447Y-143206750D01*
X110725457Y-143206736D01*
X110927418Y-142904480D01*
X110927429Y-142904462D01*
X111098790Y-142583869D01*
X111098792Y-142583864D01*
X111237913Y-142247997D01*
X111343446Y-141900101D01*
X111343449Y-141900090D01*
X111414367Y-141543556D01*
X111450000Y-141181765D01*
X111450000Y-140818234D01*
X144050000Y-140818234D01*
X144050000Y-141181765D01*
X144085632Y-141543556D01*
X144156550Y-141900090D01*
X144156553Y-141900101D01*
X144262086Y-142247997D01*
X144401207Y-142583864D01*
X144401209Y-142583869D01*
X144572570Y-142904462D01*
X144572581Y-142904480D01*
X144774550Y-143206748D01*
X144802314Y-143240578D01*
X146321728Y-141721164D01*
X146381557Y-141838583D01*
X146529588Y-142042330D01*
X146707670Y-142220412D01*
X146911417Y-142368443D01*
X147028834Y-142428270D01*
X145509420Y-143947683D01*
X145509420Y-143947685D01*
X145543251Y-143975449D01*
X145845519Y-144177418D01*
X145845537Y-144177429D01*
X146166130Y-144348790D01*
X146166135Y-144348792D01*
X146502002Y-144487913D01*
X146849898Y-144593446D01*
X146849909Y-144593449D01*
X147206443Y-144664367D01*
X147568234Y-144700000D01*
X147931766Y-144700000D01*
X148293556Y-144664367D01*
X148650090Y-144593449D01*
X148650101Y-144593446D01*
X148997997Y-144487913D01*
X149333864Y-144348792D01*
X149333869Y-144348790D01*
X149654462Y-144177429D01*
X149654480Y-144177418D01*
X149956736Y-143975457D01*
X149956750Y-143975447D01*
X149990579Y-143947684D01*
X148471165Y-142428270D01*
X148588583Y-142368443D01*
X148792330Y-142220412D01*
X148970412Y-142042330D01*
X149118443Y-141838583D01*
X149178270Y-141721165D01*
X150697684Y-143240579D01*
X150725447Y-143206750D01*
X150725457Y-143206736D01*
X150927418Y-142904480D01*
X150927429Y-142904462D01*
X151098790Y-142583869D01*
X151098792Y-142583864D01*
X151237913Y-142247997D01*
X151343446Y-141900101D01*
X151343449Y-141900090D01*
X151414367Y-141543556D01*
X151450000Y-141181765D01*
X151450000Y-140818234D01*
X151414367Y-140456443D01*
X151343449Y-140099909D01*
X151343446Y-140099898D01*
X151237913Y-139752002D01*
X151098792Y-139416135D01*
X151098790Y-139416130D01*
X150927429Y-139095537D01*
X150927418Y-139095519D01*
X150725449Y-138793251D01*
X150697685Y-138759420D01*
X150697683Y-138759420D01*
X149178270Y-140278834D01*
X149118443Y-140161417D01*
X148970412Y-139957670D01*
X148792330Y-139779588D01*
X148588583Y-139631557D01*
X148471164Y-139571729D01*
X149990578Y-138052314D01*
X149990578Y-138052313D01*
X149956748Y-138024550D01*
X149654480Y-137822581D01*
X149654462Y-137822570D01*
X149333869Y-137651209D01*
X149333864Y-137651207D01*
X148997997Y-137512086D01*
X148650101Y-137406553D01*
X148650090Y-137406550D01*
X148293556Y-137335632D01*
X147931766Y-137300000D01*
X147568234Y-137300000D01*
X147206443Y-137335632D01*
X146849909Y-137406550D01*
X146849898Y-137406553D01*
X146502002Y-137512086D01*
X146166135Y-137651207D01*
X146166130Y-137651209D01*
X145845537Y-137822570D01*
X145845519Y-137822581D01*
X145543259Y-138024544D01*
X145543245Y-138024554D01*
X145509420Y-138052312D01*
X145509420Y-138052314D01*
X147028835Y-139571729D01*
X146911417Y-139631557D01*
X146707670Y-139779588D01*
X146529588Y-139957670D01*
X146381557Y-140161417D01*
X146321729Y-140278835D01*
X144802314Y-138759420D01*
X144802312Y-138759420D01*
X144774554Y-138793245D01*
X144774544Y-138793259D01*
X144572581Y-139095519D01*
X144572570Y-139095537D01*
X144401209Y-139416130D01*
X144401207Y-139416135D01*
X144262086Y-139752002D01*
X144156553Y-140099898D01*
X144156550Y-140099909D01*
X144085632Y-140456443D01*
X144050000Y-140818234D01*
X111450000Y-140818234D01*
X111414367Y-140456443D01*
X111343449Y-140099909D01*
X111343446Y-140099898D01*
X111237913Y-139752002D01*
X111098792Y-139416135D01*
X111098790Y-139416130D01*
X110927429Y-139095537D01*
X110927418Y-139095519D01*
X110725449Y-138793251D01*
X110697685Y-138759420D01*
X110697683Y-138759420D01*
X109178270Y-140278833D01*
X109118443Y-140161417D01*
X108970412Y-139957670D01*
X108792330Y-139779588D01*
X108588583Y-139631557D01*
X108471164Y-139571729D01*
X109990578Y-138052314D01*
X109990578Y-138052313D01*
X109956748Y-138024550D01*
X109654480Y-137822581D01*
X109654462Y-137822570D01*
X109333869Y-137651209D01*
X109333864Y-137651207D01*
X108997997Y-137512086D01*
X108650101Y-137406553D01*
X108650090Y-137406550D01*
X108293556Y-137335632D01*
X107931766Y-137300000D01*
X107568234Y-137300000D01*
X107206443Y-137335632D01*
X106849909Y-137406550D01*
X106849898Y-137406553D01*
X106502002Y-137512086D01*
X106166135Y-137651207D01*
X106166130Y-137651209D01*
X105845537Y-137822570D01*
X105845519Y-137822581D01*
X105543259Y-138024544D01*
X105543245Y-138024554D01*
X105509420Y-138052312D01*
X105509420Y-138052314D01*
X107028835Y-139571729D01*
X106911417Y-139631557D01*
X106707670Y-139779588D01*
X106529588Y-139957670D01*
X106381557Y-140161417D01*
X106321729Y-140278834D01*
X104802314Y-138759420D01*
X104802312Y-138759420D01*
X104774554Y-138793245D01*
X104774544Y-138793259D01*
X104572581Y-139095519D01*
X104572570Y-139095537D01*
X104401209Y-139416130D01*
X104401207Y-139416135D01*
X104262086Y-139752002D01*
X104156553Y-140099898D01*
X104156550Y-140099909D01*
X104085632Y-140456443D01*
X104050000Y-140818234D01*
X103250935Y-140818234D01*
X103268345Y-133538824D01*
X103272639Y-133510880D01*
X103268502Y-133473201D01*
X103268593Y-133435306D01*
X103261342Y-133407983D01*
X103258257Y-133379883D01*
X103244512Y-133344567D01*
X103234790Y-133307930D01*
X103220712Y-133283411D01*
X103210461Y-133257071D01*
X103188043Y-133226514D01*
X103174325Y-133202622D01*
X103169171Y-133193644D01*
X103155804Y-133180214D01*
X103155802Y-133180212D01*
X103149230Y-133173608D01*
X103132508Y-133150815D01*
X103102941Y-133127098D01*
X103098047Y-133122180D01*
X103098046Y-133122179D01*
X103071054Y-133095058D01*
X103037715Y-133033655D01*
X103042866Y-132963976D01*
X103071267Y-132919901D01*
X103083508Y-132907662D01*
X103094444Y-132897950D01*
X103117180Y-132880048D01*
X103135094Y-132856086D01*
X103156248Y-132834936D01*
X103174376Y-132803543D01*
X103196089Y-132774500D01*
X103207191Y-132746714D01*
X103222149Y-132720813D01*
X103231535Y-132685794D01*
X103244990Y-132652124D01*
X103247470Y-132631263D01*
X103250829Y-132613810D01*
X103256268Y-132593522D01*
X103256270Y-132557261D01*
X103260552Y-132521262D01*
X103256276Y-132491656D01*
X103258209Y-108751947D01*
X103259649Y-108733120D01*
X103259865Y-108731710D01*
X103259866Y-108731706D01*
X103258953Y-108723392D01*
X103258213Y-108709871D01*
X103258221Y-108619005D01*
X103246089Y-108573713D01*
X106389500Y-108573713D01*
X106389500Y-108786287D01*
X106393302Y-108810289D01*
X106419089Y-108973107D01*
X106422754Y-108996243D01*
X106474516Y-109155550D01*
X106488444Y-109198414D01*
X106584951Y-109387820D01*
X106709890Y-109559786D01*
X106860213Y-109710109D01*
X107032182Y-109835050D01*
X107040946Y-109839516D01*
X107091742Y-109887491D01*
X107108536Y-109955312D01*
X107085998Y-110021447D01*
X107040946Y-110060484D01*
X107032182Y-110064949D01*
X106860213Y-110189890D01*
X106709890Y-110340213D01*
X106584951Y-110512179D01*
X106488444Y-110701585D01*
X106422753Y-110903760D01*
X106415471Y-110949737D01*
X106389500Y-111113713D01*
X106389500Y-111326287D01*
X106422754Y-111536243D01*
X106469063Y-111678768D01*
X106488444Y-111738414D01*
X106584951Y-111927820D01*
X106709890Y-112099786D01*
X106860213Y-112250109D01*
X107032182Y-112375050D01*
X107040946Y-112379516D01*
X107091742Y-112427491D01*
X107108536Y-112495312D01*
X107085998Y-112561447D01*
X107040946Y-112600484D01*
X107032182Y-112604949D01*
X106860213Y-112729890D01*
X106709890Y-112880213D01*
X106584951Y-113052179D01*
X106488444Y-113241585D01*
X106422753Y-113443760D01*
X106389500Y-113653713D01*
X106389500Y-113866286D01*
X106418888Y-114051839D01*
X106422754Y-114076243D01*
X106473982Y-114233907D01*
X106488444Y-114278414D01*
X106584951Y-114467820D01*
X106709890Y-114639786D01*
X106860213Y-114790109D01*
X107032182Y-114915050D01*
X107040946Y-114919516D01*
X107091742Y-114967491D01*
X107108536Y-115035312D01*
X107085998Y-115101447D01*
X107040946Y-115140484D01*
X107032182Y-115144949D01*
X106860213Y-115269890D01*
X106709890Y-115420213D01*
X106584951Y-115592179D01*
X106488444Y-115781585D01*
X106422753Y-115983760D01*
X106389500Y-116193713D01*
X106389500Y-116406286D01*
X106421468Y-116608127D01*
X106422754Y-116616243D01*
X106484175Y-116805277D01*
X106488444Y-116818414D01*
X106584951Y-117007820D01*
X106709890Y-117179786D01*
X106860213Y-117330109D01*
X107032182Y-117455050D01*
X107040946Y-117459516D01*
X107091742Y-117507491D01*
X107108536Y-117575312D01*
X107085998Y-117641447D01*
X107040946Y-117680484D01*
X107032182Y-117684949D01*
X106860213Y-117809890D01*
X106709890Y-117960213D01*
X106584951Y-118132179D01*
X106488444Y-118321585D01*
X106422753Y-118523760D01*
X106389500Y-118733713D01*
X106389500Y-118946286D01*
X106421468Y-119148127D01*
X106422754Y-119156243D01*
X106484175Y-119345277D01*
X106488444Y-119358414D01*
X106584951Y-119547820D01*
X106709890Y-119719786D01*
X106860213Y-119870109D01*
X107032182Y-119995050D01*
X107040946Y-119999516D01*
X107091742Y-120047491D01*
X107108536Y-120115312D01*
X107085998Y-120181447D01*
X107040946Y-120220484D01*
X107032182Y-120224949D01*
X106860213Y-120349890D01*
X106709890Y-120500213D01*
X106584951Y-120672179D01*
X106488444Y-120861585D01*
X106422753Y-121063760D01*
X106389500Y-121273713D01*
X106389500Y-121486287D01*
X106422754Y-121696243D01*
X106478836Y-121868846D01*
X106488444Y-121898414D01*
X106584951Y-122087820D01*
X106709890Y-122259786D01*
X106860213Y-122410109D01*
X107032182Y-122535050D01*
X107040946Y-122539516D01*
X107091742Y-122587491D01*
X107108536Y-122655312D01*
X107085998Y-122721447D01*
X107040946Y-122760484D01*
X107032182Y-122764949D01*
X106860213Y-122889890D01*
X106709890Y-123040213D01*
X106584951Y-123212179D01*
X106488444Y-123401585D01*
X106422753Y-123603760D01*
X106389500Y-123813713D01*
X106389500Y-124026286D01*
X106412115Y-124169075D01*
X106422754Y-124236243D01*
X106475447Y-124398416D01*
X106488444Y-124438414D01*
X106584951Y-124627820D01*
X106709890Y-124799786D01*
X106860213Y-124950109D01*
X107032182Y-125075050D01*
X107040946Y-125079516D01*
X107091742Y-125127491D01*
X107108536Y-125195312D01*
X107085998Y-125261447D01*
X107040946Y-125300484D01*
X107032182Y-125304949D01*
X106860213Y-125429890D01*
X106709890Y-125580213D01*
X106584951Y-125752179D01*
X106488444Y-125941585D01*
X106422753Y-126143760D01*
X106389500Y-126353713D01*
X106389500Y-126566286D01*
X106422753Y-126776239D01*
X106488444Y-126978414D01*
X106584951Y-127167820D01*
X106709890Y-127339786D01*
X106823430Y-127453326D01*
X106856915Y-127514649D01*
X106851931Y-127584341D01*
X106810059Y-127640274D01*
X106779083Y-127657189D01*
X106647669Y-127706203D01*
X106647664Y-127706206D01*
X106532455Y-127792452D01*
X106532452Y-127792455D01*
X106446206Y-127907664D01*
X106446202Y-127907671D01*
X106395908Y-128042517D01*
X106389501Y-128102116D01*
X106389501Y-128102123D01*
X106389500Y-128102135D01*
X106389500Y-129897870D01*
X106389501Y-129897876D01*
X106395908Y-129957483D01*
X106446202Y-130092328D01*
X106446206Y-130092335D01*
X106532452Y-130207544D01*
X106532455Y-130207547D01*
X106647664Y-130293793D01*
X106647671Y-130293797D01*
X106782517Y-130344091D01*
X106782516Y-130344091D01*
X106789444Y-130344835D01*
X106842127Y-130350500D01*
X108637872Y-130350499D01*
X108697483Y-130344091D01*
X108832331Y-130293796D01*
X108947546Y-130207546D01*
X109033796Y-130092331D01*
X109084091Y-129957483D01*
X109090500Y-129897873D01*
X109090499Y-128102128D01*
X109084091Y-128042517D01*
X109033796Y-127907669D01*
X109033795Y-127907668D01*
X109033793Y-127907664D01*
X108947547Y-127792455D01*
X108947544Y-127792452D01*
X108832335Y-127706206D01*
X108832328Y-127706202D01*
X108700917Y-127657189D01*
X108644983Y-127615318D01*
X108620566Y-127549853D01*
X108635418Y-127481580D01*
X108656563Y-127453332D01*
X108770104Y-127339792D01*
X108895051Y-127167816D01*
X108991557Y-126978412D01*
X109057246Y-126776243D01*
X109090500Y-126566287D01*
X109090500Y-126353713D01*
X109057246Y-126143757D01*
X108991557Y-125941588D01*
X108895051Y-125752184D01*
X108895049Y-125752181D01*
X108895048Y-125752179D01*
X108770109Y-125580213D01*
X108619786Y-125429890D01*
X108447820Y-125304951D01*
X108447115Y-125304591D01*
X108439054Y-125300485D01*
X108388259Y-125252512D01*
X108371463Y-125184692D01*
X108393999Y-125118556D01*
X108439054Y-125079515D01*
X108447816Y-125075051D01*
X108502806Y-125035099D01*
X108619786Y-124950109D01*
X108619788Y-124950106D01*
X108619792Y-124950104D01*
X108770104Y-124799792D01*
X108770106Y-124799788D01*
X108770109Y-124799786D01*
X108824899Y-124724371D01*
X108895051Y-124627816D01*
X108941700Y-124536263D01*
X111140500Y-124536263D01*
X111140500Y-124733736D01*
X111171389Y-124928763D01*
X111232408Y-125116558D01*
X111232409Y-125116561D01*
X111306233Y-125261447D01*
X111322058Y-125292504D01*
X111438115Y-125452246D01*
X111577753Y-125591884D01*
X111727234Y-125700486D01*
X111737499Y-125707944D01*
X111913439Y-125797591D01*
X112038637Y-125838270D01*
X112101236Y-125858610D01*
X112296264Y-125889500D01*
X112296269Y-125889500D01*
X112493736Y-125889500D01*
X112688763Y-125858610D01*
X112731989Y-125844565D01*
X112876561Y-125797591D01*
X113052501Y-125707944D01*
X113142192Y-125642779D01*
X113212246Y-125591884D01*
X113212248Y-125591881D01*
X113212252Y-125591879D01*
X113351879Y-125452252D01*
X113351881Y-125452248D01*
X113351884Y-125452246D01*
X113467938Y-125292510D01*
X113469771Y-125289519D01*
X113470763Y-125288620D01*
X113470808Y-125288560D01*
X113470820Y-125288569D01*
X113521583Y-125242643D01*
X113590512Y-125231219D01*
X113654675Y-125258875D01*
X113693701Y-125316830D01*
X113699500Y-125354307D01*
X113699500Y-128500177D01*
X113679815Y-128567216D01*
X113627011Y-128612971D01*
X113557853Y-128622915D01*
X113501189Y-128599444D01*
X113391330Y-128517203D01*
X113391328Y-128517202D01*
X113256482Y-128466908D01*
X113256483Y-128466908D01*
X113196883Y-128460501D01*
X113196881Y-128460500D01*
X113196873Y-128460500D01*
X113196864Y-128460500D01*
X111593129Y-128460500D01*
X111593123Y-128460501D01*
X111533516Y-128466908D01*
X111398671Y-128517202D01*
X111398664Y-128517206D01*
X111283455Y-128603452D01*
X111283452Y-128603455D01*
X111197206Y-128718664D01*
X111197202Y-128718671D01*
X111146908Y-128853517D01*
X111140501Y-128913116D01*
X111140500Y-128913135D01*
X111140500Y-130516870D01*
X111140501Y-130516876D01*
X111146908Y-130576483D01*
X111197202Y-130711328D01*
X111197206Y-130711335D01*
X111283452Y-130826544D01*
X111283455Y-130826547D01*
X111398664Y-130912793D01*
X111398671Y-130912797D01*
X111533517Y-130963091D01*
X111533516Y-130963091D01*
X111540444Y-130963835D01*
X111593127Y-130969500D01*
X113196872Y-130969499D01*
X113256483Y-130963091D01*
X113391331Y-130912796D01*
X113506546Y-130826546D01*
X113592796Y-130711331D01*
X113643091Y-130576483D01*
X113649500Y-130516873D01*
X113649499Y-130461574D01*
X113669182Y-130394538D01*
X113721986Y-130348783D01*
X113791144Y-130338838D01*
X113854700Y-130367862D01*
X113873817Y-130388691D01*
X113978115Y-130532245D01*
X113978119Y-130532250D01*
X114117753Y-130671884D01*
X114205077Y-130735327D01*
X114277499Y-130787944D01*
X114453439Y-130877591D01*
X114578637Y-130918270D01*
X114641236Y-130938610D01*
X114836264Y-130969500D01*
X114836269Y-130969500D01*
X115033736Y-130969500D01*
X115228763Y-130938610D01*
X115243197Y-130933920D01*
X118434499Y-130933920D01*
X118463340Y-131078907D01*
X118463343Y-131078917D01*
X118519914Y-131215492D01*
X118519915Y-131215494D01*
X118519916Y-131215495D01*
X118542637Y-131249500D01*
X118552812Y-131264727D01*
X118552813Y-131264730D01*
X118602046Y-131338414D01*
X118602052Y-131338421D01*
X119489770Y-132226137D01*
X119742048Y-132478415D01*
X119742049Y-132478416D01*
X119820894Y-132557261D01*
X119846585Y-132582952D01*
X119969498Y-132665080D01*
X119969511Y-132665087D01*
X120104047Y-132720813D01*
X120106087Y-132721658D01*
X120106091Y-132721658D01*
X120106092Y-132721659D01*
X120251079Y-132750500D01*
X120251082Y-132750500D01*
X121535390Y-132750500D01*
X121602429Y-132770185D01*
X121609358Y-132775228D01*
X121776079Y-132886628D01*
X121776092Y-132886635D01*
X121958160Y-132962049D01*
X121958165Y-132962051D01*
X121958169Y-132962051D01*
X121958170Y-132962052D01*
X122151456Y-133000500D01*
X122151459Y-133000500D01*
X122348543Y-133000500D01*
X122532157Y-132963976D01*
X122541835Y-132962051D01*
X122723914Y-132886632D01*
X122887782Y-132777139D01*
X123027139Y-132637782D01*
X123136632Y-132473914D01*
X123212051Y-132291835D01*
X123238788Y-132157423D01*
X123250500Y-132098543D01*
X123250500Y-131901456D01*
X123212052Y-131708170D01*
X123212051Y-131708169D01*
X123212051Y-131708165D01*
X123212049Y-131708160D01*
X123136635Y-131526092D01*
X123136628Y-131526079D01*
X123027139Y-131362218D01*
X123027136Y-131362214D01*
X122887785Y-131222863D01*
X122887781Y-131222860D01*
X122799834Y-131164095D01*
X122755029Y-131110482D01*
X122746322Y-131041157D01*
X122776477Y-130978130D01*
X122835920Y-130941411D01*
X122847451Y-130938925D01*
X122848757Y-130938610D01*
X122848763Y-130938610D01*
X123036561Y-130877591D01*
X123212501Y-130787944D01*
X123317955Y-130711328D01*
X123372246Y-130671884D01*
X123372248Y-130671881D01*
X123372252Y-130671879D01*
X123511879Y-130532252D01*
X123511881Y-130532248D01*
X123511884Y-130532246D01*
X123581331Y-130436659D01*
X123627944Y-130372501D01*
X123717591Y-130196561D01*
X123778610Y-130008763D01*
X123786732Y-129957482D01*
X123809500Y-129813736D01*
X123809500Y-129616263D01*
X123778610Y-129421236D01*
X123758270Y-129358637D01*
X123717591Y-129233439D01*
X123627944Y-129057499D01*
X123599910Y-129018913D01*
X123511884Y-128897753D01*
X123372246Y-128758115D01*
X123212504Y-128642058D01*
X123212503Y-128642057D01*
X123212501Y-128642056D01*
X123036561Y-128552409D01*
X123036558Y-128552408D01*
X122848763Y-128491389D01*
X122653736Y-128460500D01*
X122653731Y-128460500D01*
X122456269Y-128460500D01*
X122456264Y-128460500D01*
X122261236Y-128491389D01*
X122073441Y-128552408D01*
X121897495Y-128642058D01*
X121737753Y-128758115D01*
X121598115Y-128897753D01*
X121482058Y-129057495D01*
X121392408Y-129233441D01*
X121331389Y-129421236D01*
X121300500Y-129616263D01*
X121300500Y-129813736D01*
X121331389Y-130008763D01*
X121358544Y-130092335D01*
X121392409Y-130196561D01*
X121482056Y-130372501D01*
X121482058Y-130372504D01*
X121598115Y-130532246D01*
X121737753Y-130671884D01*
X121825077Y-130735327D01*
X121897499Y-130787944D01*
X121955686Y-130817592D01*
X122006482Y-130865567D01*
X122023277Y-130933388D01*
X122000739Y-130999523D01*
X121946843Y-131042638D01*
X121776092Y-131113364D01*
X121776079Y-131113371D01*
X121607153Y-131226245D01*
X121606132Y-131224717D01*
X121549745Y-131248666D01*
X121535390Y-131249500D01*
X120687229Y-131249500D01*
X120620190Y-131229815D01*
X120599548Y-131213181D01*
X119971819Y-130585451D01*
X119938334Y-130524128D01*
X119935500Y-130497770D01*
X119935500Y-129641079D01*
X119906659Y-129496092D01*
X119906658Y-129496091D01*
X119906658Y-129496087D01*
X119875654Y-129421236D01*
X119850087Y-129359511D01*
X119850080Y-129359498D01*
X119767951Y-129236584D01*
X119767948Y-129236580D01*
X119663419Y-129132051D01*
X119663415Y-129132048D01*
X119540501Y-129049919D01*
X119540488Y-129049912D01*
X119403917Y-128993343D01*
X119403907Y-128993340D01*
X119258920Y-128964500D01*
X119258918Y-128964500D01*
X119111082Y-128964500D01*
X119111080Y-128964500D01*
X118966092Y-128993340D01*
X118966082Y-128993343D01*
X118829511Y-129049912D01*
X118829498Y-129049919D01*
X118706584Y-129132048D01*
X118706580Y-129132051D01*
X118602051Y-129236580D01*
X118602048Y-129236584D01*
X118519919Y-129359498D01*
X118519912Y-129359511D01*
X118463343Y-129496082D01*
X118463340Y-129496092D01*
X118434500Y-129641079D01*
X118434500Y-129641082D01*
X118434500Y-130933918D01*
X118434500Y-130933920D01*
X118434499Y-130933920D01*
X115243197Y-130933920D01*
X115416561Y-130877591D01*
X115592501Y-130787944D01*
X115697955Y-130711328D01*
X115752246Y-130671884D01*
X115752248Y-130671881D01*
X115752252Y-130671879D01*
X115891879Y-130532252D01*
X115892710Y-130531108D01*
X115903241Y-130516615D01*
X115958571Y-130473949D01*
X116003559Y-130465500D01*
X116718920Y-130465500D01*
X116816462Y-130446096D01*
X116863913Y-130436658D01*
X117000495Y-130380084D01*
X117123416Y-130297951D01*
X117227951Y-130193416D01*
X117310084Y-130070495D01*
X117366658Y-129933913D01*
X117376096Y-129886462D01*
X117395500Y-129788920D01*
X117395500Y-129641079D01*
X117366659Y-129496092D01*
X117366658Y-129496091D01*
X117366658Y-129496087D01*
X117335654Y-129421236D01*
X117310087Y-129359511D01*
X117310080Y-129359498D01*
X117227951Y-129236584D01*
X117227948Y-129236580D01*
X117123419Y-129132051D01*
X117123415Y-129132048D01*
X117000501Y-129049919D01*
X117000488Y-129049912D01*
X116863917Y-128993343D01*
X116863907Y-128993340D01*
X116718920Y-128964500D01*
X116718918Y-128964500D01*
X116003559Y-128964500D01*
X115936520Y-128944815D01*
X115903241Y-128913385D01*
X115891884Y-128897754D01*
X115891880Y-128897749D01*
X115752246Y-128758115D01*
X115592504Y-128642058D01*
X115592503Y-128642057D01*
X115592501Y-128642056D01*
X115416561Y-128552409D01*
X115286181Y-128510046D01*
X115228506Y-128470608D01*
X115201308Y-128406249D01*
X115200500Y-128392115D01*
X115200500Y-125957359D01*
X115220185Y-125890320D01*
X115272989Y-125844565D01*
X115286181Y-125839428D01*
X115396482Y-125803588D01*
X115236819Y-125643925D01*
X115203334Y-125582602D01*
X115200500Y-125556244D01*
X115200500Y-125059063D01*
X115242007Y-125035099D01*
X115335099Y-124942007D01*
X115400925Y-124827993D01*
X115435000Y-124700826D01*
X115435000Y-124635000D01*
X115642106Y-124635000D01*
X116103588Y-125096481D01*
X116158123Y-124928640D01*
X116189000Y-124733697D01*
X116189000Y-124536302D01*
X116188994Y-124536263D01*
X121300500Y-124536263D01*
X121300500Y-124733736D01*
X121331389Y-124928763D01*
X121392408Y-125116558D01*
X121392409Y-125116561D01*
X121466233Y-125261447D01*
X121482058Y-125292504D01*
X121598115Y-125452246D01*
X121737753Y-125591884D01*
X121887234Y-125700486D01*
X121897499Y-125707944D01*
X122073439Y-125797591D01*
X122198637Y-125838270D01*
X122261236Y-125858610D01*
X122456264Y-125889500D01*
X122456269Y-125889500D01*
X122653736Y-125889500D01*
X122848763Y-125858610D01*
X122891989Y-125844565D01*
X123036561Y-125797591D01*
X123212501Y-125707944D01*
X123302192Y-125642779D01*
X123372246Y-125591884D01*
X123372248Y-125591881D01*
X123372252Y-125591879D01*
X123511879Y-125452252D01*
X123511881Y-125452248D01*
X123511884Y-125452246D01*
X123562779Y-125382192D01*
X123627944Y-125292501D01*
X123717591Y-125116561D01*
X123778610Y-124928763D01*
X123778629Y-124928640D01*
X123809500Y-124733736D01*
X123809500Y-124536263D01*
X123778610Y-124341236D01*
X123758270Y-124278637D01*
X123717591Y-124153439D01*
X123627944Y-123977499D01*
X123620486Y-123967234D01*
X123511884Y-123817753D01*
X123372246Y-123678115D01*
X123212504Y-123562058D01*
X123212503Y-123562057D01*
X123212501Y-123562056D01*
X123036561Y-123472409D01*
X123018095Y-123466409D01*
X122848763Y-123411389D01*
X122653736Y-123380500D01*
X122653731Y-123380500D01*
X122456269Y-123380500D01*
X122456264Y-123380500D01*
X122261236Y-123411389D01*
X122073441Y-123472408D01*
X121897495Y-123562058D01*
X121737753Y-123678115D01*
X121598115Y-123817753D01*
X121482058Y-123977495D01*
X121392408Y-124153441D01*
X121331389Y-124341236D01*
X121300500Y-124536263D01*
X116188994Y-124536263D01*
X116158122Y-124341352D01*
X116158122Y-124341349D01*
X116103589Y-124173517D01*
X116103589Y-124173516D01*
X115642106Y-124635000D01*
X115435000Y-124635000D01*
X115435000Y-124569174D01*
X115400925Y-124442007D01*
X115335099Y-124327993D01*
X115242007Y-124234901D01*
X115127993Y-124169075D01*
X115000826Y-124135000D01*
X114869174Y-124135000D01*
X114826825Y-124146347D01*
X114816326Y-124127120D01*
X114821310Y-124057428D01*
X114849811Y-124013081D01*
X115396482Y-123466409D01*
X115228647Y-123411877D01*
X115033697Y-123381000D01*
X114836303Y-123381000D01*
X114641353Y-123411876D01*
X114453626Y-123472873D01*
X114322319Y-123539779D01*
X114253650Y-123552675D01*
X114188909Y-123526399D01*
X114178343Y-123516975D01*
X113998413Y-123337045D01*
X113949179Y-123304150D01*
X113916355Y-123282218D01*
X113875495Y-123254916D01*
X113875494Y-123254915D01*
X113875492Y-123254914D01*
X113875490Y-123254913D01*
X113738917Y-123198343D01*
X113738907Y-123198340D01*
X113593920Y-123169500D01*
X113593918Y-123169500D01*
X111916082Y-123169500D01*
X111916080Y-123169500D01*
X111771092Y-123198340D01*
X111771082Y-123198343D01*
X111634511Y-123254912D01*
X111634498Y-123254919D01*
X111511584Y-123337048D01*
X111511580Y-123337051D01*
X111407051Y-123441580D01*
X111407048Y-123441584D01*
X111324919Y-123564498D01*
X111324912Y-123564511D01*
X111268343Y-123701082D01*
X111268340Y-123701092D01*
X111239500Y-123846079D01*
X111239500Y-123993922D01*
X111251941Y-124056466D01*
X111245714Y-124126058D01*
X111240811Y-124136948D01*
X111232407Y-124153441D01*
X111171389Y-124341235D01*
X111140500Y-124536263D01*
X108941700Y-124536263D01*
X108991557Y-124438412D01*
X109057246Y-124236243D01*
X109090500Y-124026287D01*
X109090500Y-123813713D01*
X109057246Y-123603757D01*
X108991557Y-123401588D01*
X108895051Y-123212184D01*
X108895049Y-123212181D01*
X108895048Y-123212179D01*
X108770109Y-123040213D01*
X108619786Y-122889890D01*
X108447820Y-122764951D01*
X108447115Y-122764591D01*
X108439054Y-122760485D01*
X108388259Y-122712512D01*
X108371463Y-122644692D01*
X108393999Y-122578556D01*
X108439054Y-122539515D01*
X108447816Y-122535051D01*
X108496741Y-122499505D01*
X108619786Y-122410109D01*
X108619788Y-122410106D01*
X108619792Y-122410104D01*
X108770104Y-122259792D01*
X108770106Y-122259788D01*
X108770109Y-122259786D01*
X108895048Y-122087820D01*
X108895047Y-122087820D01*
X108895051Y-122087816D01*
X108991557Y-121898412D01*
X109057246Y-121696243D01*
X109090500Y-121486287D01*
X109090500Y-121453920D01*
X111239499Y-121453920D01*
X111268340Y-121598907D01*
X111268343Y-121598917D01*
X111324912Y-121735488D01*
X111324919Y-121735501D01*
X111407048Y-121858415D01*
X111407051Y-121858419D01*
X111511580Y-121962948D01*
X111511584Y-121962951D01*
X111634498Y-122045080D01*
X111634511Y-122045087D01*
X111737669Y-122087816D01*
X111771087Y-122101658D01*
X111771091Y-122101658D01*
X111771092Y-122101659D01*
X111916079Y-122130500D01*
X111916082Y-122130500D01*
X114677770Y-122130500D01*
X114744809Y-122150185D01*
X114765451Y-122166819D01*
X115256580Y-122657948D01*
X115256584Y-122657951D01*
X115379498Y-122740080D01*
X115379511Y-122740087D01*
X115439539Y-122764951D01*
X115516087Y-122796658D01*
X115516091Y-122796658D01*
X115516092Y-122796659D01*
X115661079Y-122825500D01*
X115661082Y-122825500D01*
X115808917Y-122825500D01*
X125662770Y-122825500D01*
X125729809Y-122845185D01*
X125750451Y-122861819D01*
X126018181Y-123129548D01*
X126051666Y-123190871D01*
X126054500Y-123217229D01*
X126054500Y-124561082D01*
X126054500Y-129788918D01*
X126054500Y-129788920D01*
X126054499Y-129788920D01*
X126083340Y-129933907D01*
X126083343Y-129933917D01*
X126139912Y-130070488D01*
X126139919Y-130070501D01*
X126222048Y-130193415D01*
X126222051Y-130193419D01*
X126326580Y-130297948D01*
X126326584Y-130297951D01*
X126449498Y-130380080D01*
X126449511Y-130380087D01*
X126586082Y-130436656D01*
X126586087Y-130436658D01*
X126586091Y-130436658D01*
X126586092Y-130436659D01*
X126731079Y-130465500D01*
X126731082Y-130465500D01*
X126878920Y-130465500D01*
X126976462Y-130446096D01*
X127023913Y-130436658D01*
X127160495Y-130380084D01*
X127283416Y-130297951D01*
X127387951Y-130193416D01*
X127470084Y-130070495D01*
X127526658Y-129933913D01*
X127536096Y-129886462D01*
X127555500Y-129788920D01*
X127555500Y-122781080D01*
X127551403Y-122760484D01*
X127547345Y-122740084D01*
X127526659Y-122636088D01*
X127492414Y-122553415D01*
X127478330Y-122519413D01*
X127470087Y-122499511D01*
X127470085Y-122499508D01*
X127470084Y-122499505D01*
X127410348Y-122410104D01*
X127387954Y-122376588D01*
X127387953Y-122376587D01*
X127387951Y-122376584D01*
X127283416Y-122272049D01*
X127056447Y-122045080D01*
X126804115Y-121792747D01*
X126722521Y-121711153D01*
X128199500Y-121711153D01*
X128199500Y-121868846D01*
X128230261Y-122023489D01*
X128230264Y-122023501D01*
X128290602Y-122169172D01*
X128290606Y-122169179D01*
X128328602Y-122226044D01*
X128349480Y-122292721D01*
X128349500Y-122294935D01*
X128349500Y-126314069D01*
X128358927Y-126361459D01*
X128374499Y-126439744D01*
X128423535Y-126558127D01*
X128494723Y-126664669D01*
X128494726Y-126664673D01*
X128494727Y-126664674D01*
X130494724Y-128664669D01*
X130548719Y-128718664D01*
X130585332Y-128755277D01*
X130691866Y-128826461D01*
X130691872Y-128826464D01*
X130691873Y-128826465D01*
X130810256Y-128875501D01*
X130810260Y-128875501D01*
X130810261Y-128875502D01*
X130935928Y-128900500D01*
X130935931Y-128900500D01*
X132679192Y-128900500D01*
X132746231Y-128920185D01*
X132766873Y-128936819D01*
X135213181Y-131383127D01*
X135246666Y-131444450D01*
X135249500Y-131470808D01*
X135249500Y-132784216D01*
X135229815Y-132851255D01*
X135213181Y-132871897D01*
X135172863Y-132912214D01*
X135172860Y-132912218D01*
X135063371Y-133076079D01*
X135063364Y-133076092D01*
X134987950Y-133258160D01*
X134987947Y-133258170D01*
X134949500Y-133451456D01*
X134949500Y-133451459D01*
X134949500Y-133648541D01*
X134949500Y-133648543D01*
X134949499Y-133648543D01*
X134987947Y-133841829D01*
X134987950Y-133841839D01*
X135063364Y-134023907D01*
X135063371Y-134023920D01*
X135172860Y-134187781D01*
X135172863Y-134187785D01*
X135312214Y-134327136D01*
X135312218Y-134327139D01*
X135476079Y-134436628D01*
X135476092Y-134436635D01*
X135658160Y-134512049D01*
X135658165Y-134512051D01*
X135658169Y-134512051D01*
X135658170Y-134512052D01*
X135851456Y-134550500D01*
X135851459Y-134550500D01*
X136048543Y-134550500D01*
X136178582Y-134524632D01*
X136241835Y-134512051D01*
X136423914Y-134436632D01*
X136587782Y-134327139D01*
X136727139Y-134187782D01*
X136836632Y-134023914D01*
X136912051Y-133841835D01*
X136950500Y-133648541D01*
X136950500Y-133451459D01*
X136950500Y-133451456D01*
X136912052Y-133258170D01*
X136912051Y-133258169D01*
X136912051Y-133258165D01*
X136867586Y-133150815D01*
X136836635Y-133076092D01*
X136836628Y-133076079D01*
X136727139Y-132912218D01*
X136727136Y-132912214D01*
X136586819Y-132771897D01*
X136553334Y-132710574D01*
X136550500Y-132684216D01*
X136550500Y-131085928D01*
X136525502Y-130960261D01*
X136525501Y-130960260D01*
X136525501Y-130960256D01*
X136476465Y-130841873D01*
X136440431Y-130787944D01*
X136405276Y-130735330D01*
X136405274Y-130735327D01*
X133414673Y-127744726D01*
X133357020Y-127706204D01*
X133308127Y-127673535D01*
X133268664Y-127657189D01*
X133189744Y-127624499D01*
X133189738Y-127624497D01*
X133064071Y-127599500D01*
X133064069Y-127599500D01*
X131320807Y-127599500D01*
X131253768Y-127579815D01*
X131233126Y-127563181D01*
X129686819Y-126016873D01*
X129653334Y-125955550D01*
X129650500Y-125929192D01*
X129650500Y-122294935D01*
X129670185Y-122227896D01*
X129671366Y-122226090D01*
X129709394Y-122169179D01*
X129769737Y-122023497D01*
X129800500Y-121868842D01*
X129800500Y-121711158D01*
X129800500Y-121711155D01*
X129800499Y-121711153D01*
X129797532Y-121696239D01*
X129769737Y-121556503D01*
X129743039Y-121492048D01*
X129709397Y-121410827D01*
X129709390Y-121410814D01*
X129621789Y-121279711D01*
X129621786Y-121279707D01*
X129510292Y-121168213D01*
X129510288Y-121168210D01*
X129379185Y-121080609D01*
X129379172Y-121080602D01*
X129233501Y-121020264D01*
X129233489Y-121020261D01*
X129078845Y-120989500D01*
X129078842Y-120989500D01*
X128921158Y-120989500D01*
X128921155Y-120989500D01*
X128766510Y-121020261D01*
X128766498Y-121020264D01*
X128620827Y-121080602D01*
X128620814Y-121080609D01*
X128489711Y-121168210D01*
X128489707Y-121168213D01*
X128378213Y-121279707D01*
X128378210Y-121279711D01*
X128290609Y-121410814D01*
X128290602Y-121410827D01*
X128230264Y-121556498D01*
X128230261Y-121556510D01*
X128199500Y-121711153D01*
X126722521Y-121711153D01*
X126503421Y-121492052D01*
X126503414Y-121492046D01*
X126429729Y-121442812D01*
X126429729Y-121442813D01*
X126380491Y-121409913D01*
X126243917Y-121353343D01*
X126243907Y-121353340D01*
X126098920Y-121324500D01*
X126098918Y-121324500D01*
X116097229Y-121324500D01*
X116030190Y-121304815D01*
X116009548Y-121288181D01*
X115518418Y-120797049D01*
X115518416Y-120797047D01*
X115469092Y-120764091D01*
X115436355Y-120742218D01*
X115395495Y-120714916D01*
X115395494Y-120714915D01*
X115395492Y-120714914D01*
X115395490Y-120714913D01*
X115258917Y-120658343D01*
X115258907Y-120658340D01*
X115113920Y-120629500D01*
X115113918Y-120629500D01*
X111916082Y-120629500D01*
X111916080Y-120629500D01*
X111771092Y-120658340D01*
X111771082Y-120658343D01*
X111634511Y-120714912D01*
X111634498Y-120714919D01*
X111511584Y-120797048D01*
X111511580Y-120797051D01*
X111407051Y-120901580D01*
X111407048Y-120901584D01*
X111324919Y-121024498D01*
X111324912Y-121024511D01*
X111268343Y-121161082D01*
X111268340Y-121161092D01*
X111239500Y-121306079D01*
X111239500Y-121306082D01*
X111239500Y-121453918D01*
X111239500Y-121453920D01*
X111239499Y-121453920D01*
X109090500Y-121453920D01*
X109090500Y-121273713D01*
X109057246Y-121063757D01*
X108991557Y-120861588D01*
X108895051Y-120672184D01*
X108895049Y-120672181D01*
X108895048Y-120672179D01*
X108770109Y-120500213D01*
X108619786Y-120349890D01*
X108447820Y-120224951D01*
X108447115Y-120224591D01*
X108439054Y-120220485D01*
X108388259Y-120172512D01*
X108371463Y-120104692D01*
X108393999Y-120038556D01*
X108439054Y-119999515D01*
X108447816Y-119995051D01*
X108469789Y-119979086D01*
X108619786Y-119870109D01*
X108619788Y-119870106D01*
X108619792Y-119870104D01*
X108770104Y-119719792D01*
X108770106Y-119719788D01*
X108770109Y-119719786D01*
X108895048Y-119547820D01*
X108895047Y-119547820D01*
X108895051Y-119547816D01*
X108991557Y-119358412D01*
X109057246Y-119156243D01*
X109090500Y-118946287D01*
X109090500Y-118733713D01*
X109057246Y-118523757D01*
X108991557Y-118321588D01*
X108895051Y-118132184D01*
X108895049Y-118132181D01*
X108895048Y-118132179D01*
X108770109Y-117960213D01*
X108619786Y-117809890D01*
X108447820Y-117684951D01*
X108447115Y-117684591D01*
X108439054Y-117680485D01*
X108388259Y-117632512D01*
X108371463Y-117564692D01*
X108393999Y-117498556D01*
X108439054Y-117459515D01*
X108447816Y-117455051D01*
X108479718Y-117431873D01*
X108619786Y-117330109D01*
X108619788Y-117330106D01*
X108619792Y-117330104D01*
X108770104Y-117179792D01*
X108770106Y-117179788D01*
X108770109Y-117179786D01*
X108895048Y-117007820D01*
X108895047Y-117007820D01*
X108895051Y-117007816D01*
X108991557Y-116818412D01*
X109057246Y-116616243D01*
X109090500Y-116406287D01*
X109090500Y-116193713D01*
X109057246Y-115983757D01*
X108991557Y-115781588D01*
X108895051Y-115592184D01*
X108895049Y-115592181D01*
X108895048Y-115592179D01*
X108770109Y-115420213D01*
X108619786Y-115269890D01*
X108447820Y-115144951D01*
X108447115Y-115144591D01*
X108439054Y-115140485D01*
X108388259Y-115092512D01*
X108371463Y-115024692D01*
X108393999Y-114958556D01*
X108439054Y-114919515D01*
X108447816Y-114915051D01*
X108487484Y-114886231D01*
X108619786Y-114790109D01*
X108619788Y-114790106D01*
X108619792Y-114790104D01*
X108770104Y-114639792D01*
X108770106Y-114639788D01*
X108770109Y-114639786D01*
X108895048Y-114467820D01*
X108895047Y-114467820D01*
X108895051Y-114467816D01*
X108991557Y-114278412D01*
X109057246Y-114076243D01*
X109090500Y-113866287D01*
X109090500Y-113653713D01*
X109057246Y-113443757D01*
X108991557Y-113241588D01*
X108895051Y-113052184D01*
X108895049Y-113052181D01*
X108895048Y-113052179D01*
X108770109Y-112880213D01*
X108619786Y-112729890D01*
X108447820Y-112604951D01*
X108447115Y-112604591D01*
X108439054Y-112600485D01*
X108388259Y-112552512D01*
X108371463Y-112484692D01*
X108393999Y-112418556D01*
X108439054Y-112379515D01*
X108447816Y-112375051D01*
X108469789Y-112359086D01*
X108619786Y-112250109D01*
X108619788Y-112250106D01*
X108619792Y-112250104D01*
X108770104Y-112099792D01*
X108770106Y-112099788D01*
X108770109Y-112099786D01*
X108895048Y-111927820D01*
X108895047Y-111927820D01*
X108895051Y-111927816D01*
X108991557Y-111738412D01*
X109057246Y-111536243D01*
X109090500Y-111326287D01*
X109090500Y-111113713D01*
X109057246Y-110903757D01*
X108991557Y-110701588D01*
X108895051Y-110512184D01*
X108895049Y-110512181D01*
X108895048Y-110512179D01*
X108770109Y-110340213D01*
X108619786Y-110189890D01*
X108447820Y-110064951D01*
X108447115Y-110064591D01*
X108439054Y-110060485D01*
X108388259Y-110012512D01*
X108371463Y-109944692D01*
X108393999Y-109878556D01*
X108439054Y-109839515D01*
X108447816Y-109835051D01*
X108494938Y-109800815D01*
X108619786Y-109710109D01*
X108619788Y-109710106D01*
X108619792Y-109710104D01*
X108770104Y-109559792D01*
X108770106Y-109559788D01*
X108770109Y-109559786D01*
X108895048Y-109387820D01*
X108895047Y-109387820D01*
X108895051Y-109387816D01*
X108991557Y-109198412D01*
X109057246Y-108996243D01*
X109090500Y-108786287D01*
X109090500Y-108573713D01*
X109057246Y-108363757D01*
X108991557Y-108161588D01*
X108895051Y-107972184D01*
X108895049Y-107972181D01*
X108895048Y-107972179D01*
X108770109Y-107800213D01*
X108619786Y-107649890D01*
X108447817Y-107524949D01*
X108438504Y-107520204D01*
X108387707Y-107472230D01*
X108370912Y-107404409D01*
X108393449Y-107338274D01*
X108438507Y-107299232D01*
X108447558Y-107294620D01*
X108619459Y-107169727D01*
X108619464Y-107169723D01*
X108769723Y-107019464D01*
X108769727Y-107019459D01*
X108894620Y-106847557D01*
X108991096Y-106658215D01*
X108997014Y-106640001D01*
X108997014Y-106640000D01*
X107805826Y-106640000D01*
X107932993Y-106605925D01*
X108047007Y-106540099D01*
X108140099Y-106447007D01*
X108205925Y-106332993D01*
X108240000Y-106205826D01*
X108240000Y-106074174D01*
X108205925Y-105947007D01*
X108140099Y-105832993D01*
X108047007Y-105739901D01*
X107932993Y-105674075D01*
X107805826Y-105640000D01*
X108240000Y-105640000D01*
X108997014Y-105640000D01*
X108997014Y-105639998D01*
X108991096Y-105621784D01*
X108894620Y-105432442D01*
X108769727Y-105260540D01*
X108769723Y-105260535D01*
X108619464Y-105110276D01*
X108619459Y-105110272D01*
X108447557Y-104985379D01*
X108258216Y-104888904D01*
X108240000Y-104882984D01*
X108240000Y-105640000D01*
X107805826Y-105640000D01*
X107674174Y-105640000D01*
X107547007Y-105674075D01*
X107432993Y-105739901D01*
X107339901Y-105832993D01*
X107274075Y-105947007D01*
X107240000Y-106074174D01*
X107240000Y-106205826D01*
X107274075Y-106332993D01*
X107339901Y-106447007D01*
X107432993Y-106540099D01*
X107547007Y-106605925D01*
X107674174Y-106640000D01*
X106482986Y-106640000D01*
X106482985Y-106640001D01*
X106488903Y-106658215D01*
X106585379Y-106847557D01*
X106710272Y-107019459D01*
X106710276Y-107019464D01*
X106860535Y-107169723D01*
X106860540Y-107169727D01*
X107032444Y-107294622D01*
X107041495Y-107299234D01*
X107092292Y-107347208D01*
X107109087Y-107415029D01*
X107086550Y-107481164D01*
X107041499Y-107520202D01*
X107032182Y-107524949D01*
X106860213Y-107649890D01*
X106709890Y-107800213D01*
X106584951Y-107972179D01*
X106488444Y-108161585D01*
X106422753Y-108363760D01*
X106395870Y-108533497D01*
X106389500Y-108573713D01*
X103246089Y-108573713D01*
X103224124Y-108491708D01*
X103158241Y-108377575D01*
X103103019Y-108322343D01*
X103069540Y-108261019D01*
X103074530Y-108191328D01*
X103109166Y-108143868D01*
X103108334Y-108143056D01*
X103113996Y-108137250D01*
X103113999Y-108137246D01*
X103114007Y-108137240D01*
X103192919Y-108031694D01*
X103241825Y-107909320D01*
X103257392Y-107778459D01*
X103251773Y-107739546D01*
X103250501Y-107721833D01*
X103250649Y-105639998D01*
X106482985Y-105639998D01*
X106482986Y-105640000D01*
X107240000Y-105640000D01*
X107240000Y-104882985D01*
X107239999Y-104882984D01*
X107221783Y-104888904D01*
X107032442Y-104985379D01*
X106860540Y-105110272D01*
X106860535Y-105110276D01*
X106710276Y-105260535D01*
X106710272Y-105260540D01*
X106585379Y-105432442D01*
X106488903Y-105621784D01*
X106482985Y-105639998D01*
X103250649Y-105639998D01*
X103251298Y-96491606D01*
X106785499Y-96491606D01*
X106934313Y-96539958D01*
X107123985Y-96570000D01*
X107316015Y-96570000D01*
X107505680Y-96539959D01*
X107505681Y-96539959D01*
X107654499Y-96491606D01*
X107654499Y-96491605D01*
X107220001Y-96057106D01*
X107220000Y-96057106D01*
X106785499Y-96491606D01*
X103251298Y-96491606D01*
X103251386Y-95253984D01*
X106000000Y-95253984D01*
X106000000Y-95446015D01*
X106030041Y-95635685D01*
X106078392Y-95784498D01*
X106078393Y-95784498D01*
X106512893Y-95350000D01*
X106460232Y-95297339D01*
X106820000Y-95297339D01*
X106820000Y-95402661D01*
X106847259Y-95504394D01*
X106899920Y-95595606D01*
X106974394Y-95670080D01*
X107065606Y-95722741D01*
X107167339Y-95750000D01*
X107272661Y-95750000D01*
X107374394Y-95722741D01*
X107465606Y-95670080D01*
X107540080Y-95595606D01*
X107592741Y-95504394D01*
X107620000Y-95402661D01*
X107620000Y-95297339D01*
X107592741Y-95195606D01*
X107540080Y-95104394D01*
X107465606Y-95029920D01*
X107374394Y-94977259D01*
X107272661Y-94950000D01*
X107167339Y-94950000D01*
X107065606Y-94977259D01*
X106974394Y-95029920D01*
X106899920Y-95104394D01*
X106847259Y-95195606D01*
X106820000Y-95297339D01*
X106460232Y-95297339D01*
X106078393Y-94915500D01*
X106078392Y-94915500D01*
X106030041Y-95064312D01*
X106000000Y-95253984D01*
X103251386Y-95253984D01*
X103251460Y-94208392D01*
X106785500Y-94208392D01*
X106785500Y-94208393D01*
X107220000Y-94642893D01*
X107220001Y-94642893D01*
X107654498Y-94208393D01*
X107654498Y-94208392D01*
X107505685Y-94160041D01*
X107316015Y-94130000D01*
X107123985Y-94130000D01*
X106934312Y-94160041D01*
X106785500Y-94208392D01*
X103251460Y-94208392D01*
X103251753Y-90091606D01*
X106785499Y-90091606D01*
X106934313Y-90139958D01*
X107123985Y-90170000D01*
X107316015Y-90170000D01*
X107505680Y-90139959D01*
X107505681Y-90139959D01*
X107654499Y-90091606D01*
X107654499Y-90091605D01*
X107220001Y-89657106D01*
X107220000Y-89657106D01*
X106785499Y-90091606D01*
X103251753Y-90091606D01*
X103251808Y-89314453D01*
X103256090Y-89278460D01*
X103251812Y-89248837D01*
X103251815Y-89218913D01*
X103244331Y-89190976D01*
X103241389Y-89176650D01*
X103237257Y-89148028D01*
X103228971Y-89128711D01*
X103223153Y-89111914D01*
X103217717Y-89091619D01*
X103217716Y-89091618D01*
X103217716Y-89091616D01*
X103203264Y-89066582D01*
X103196699Y-89053476D01*
X103195259Y-89050119D01*
X103186925Y-88980750D01*
X103201833Y-88939242D01*
X103216392Y-88914028D01*
X103221102Y-88896445D01*
X103227367Y-88878626D01*
X103229955Y-88872741D01*
X103234689Y-88861976D01*
X103235917Y-88853984D01*
X106000000Y-88853984D01*
X106000000Y-89046015D01*
X106030041Y-89235685D01*
X106078392Y-89384498D01*
X106078393Y-89384498D01*
X106512893Y-88950000D01*
X106460232Y-88897339D01*
X106820000Y-88897339D01*
X106820000Y-89002661D01*
X106847259Y-89104394D01*
X106899920Y-89195606D01*
X106974394Y-89270080D01*
X107065606Y-89322741D01*
X107167339Y-89350000D01*
X107272661Y-89350000D01*
X107374394Y-89322741D01*
X107465606Y-89270080D01*
X107540080Y-89195606D01*
X107592741Y-89104394D01*
X107620000Y-89002661D01*
X107620000Y-88950000D01*
X107927106Y-88950000D01*
X108361605Y-89384499D01*
X108361606Y-89384499D01*
X108371805Y-89353109D01*
X108411242Y-89295433D01*
X108475600Y-89268234D01*
X108544447Y-89280148D01*
X108595923Y-89327392D01*
X108607667Y-89353108D01*
X108628916Y-89418505D01*
X108628917Y-89418508D01*
X108628918Y-89418509D01*
X108716135Y-89589681D01*
X108829055Y-89745102D01*
X108964898Y-89880945D01*
X109120319Y-89993865D01*
X109258103Y-90064070D01*
X109291493Y-90081083D01*
X109382845Y-90110764D01*
X109474199Y-90140447D01*
X109663945Y-90170500D01*
X109663946Y-90170500D01*
X109856054Y-90170500D01*
X109856055Y-90170500D01*
X110045801Y-90140447D01*
X110228509Y-90081082D01*
X110399681Y-89993865D01*
X110555102Y-89880945D01*
X110690945Y-89745102D01*
X110803865Y-89589681D01*
X110891082Y-89418509D01*
X110891084Y-89418504D01*
X110912069Y-89353919D01*
X110951506Y-89296243D01*
X111015864Y-89269044D01*
X111084711Y-89280958D01*
X111136187Y-89328202D01*
X111147931Y-89353919D01*
X111168915Y-89418504D01*
X111240702Y-89559393D01*
X111256135Y-89589681D01*
X111369055Y-89745102D01*
X111504898Y-89880945D01*
X111660319Y-89993865D01*
X111798103Y-90064070D01*
X111831493Y-90081083D01*
X111922845Y-90110764D01*
X112014199Y-90140447D01*
X112203945Y-90170500D01*
X112203946Y-90170500D01*
X112396054Y-90170500D01*
X112396055Y-90170500D01*
X112585801Y-90140447D01*
X112768509Y-90081082D01*
X112939681Y-89993865D01*
X113095102Y-89880945D01*
X113230945Y-89745102D01*
X113343865Y-89589681D01*
X113349754Y-89578122D01*
X113397724Y-89527326D01*
X113465544Y-89510528D01*
X113529131Y-89531312D01*
X113654498Y-89615080D01*
X113654511Y-89615087D01*
X113791082Y-89671656D01*
X113791087Y-89671658D01*
X113791091Y-89671658D01*
X113791092Y-89671659D01*
X113936079Y-89700500D01*
X113936082Y-89700500D01*
X114083920Y-89700500D01*
X114181462Y-89681096D01*
X114228913Y-89671658D01*
X114365495Y-89615084D01*
X114488416Y-89532951D01*
X114592951Y-89428416D01*
X114675084Y-89305495D01*
X114679389Y-89295103D01*
X114698552Y-89248837D01*
X114731658Y-89168913D01*
X114750047Y-89076466D01*
X114760500Y-89023920D01*
X114760500Y-86827229D01*
X114780185Y-86760190D01*
X114796815Y-86739552D01*
X115337819Y-86198547D01*
X115399142Y-86165063D01*
X115468834Y-86170047D01*
X115524767Y-86211919D01*
X115549184Y-86277383D01*
X115549500Y-86286229D01*
X115549500Y-99684217D01*
X115540855Y-99713657D01*
X115534332Y-99743644D01*
X115530577Y-99748659D01*
X115529815Y-99751256D01*
X115513181Y-99771898D01*
X115402766Y-99882313D01*
X115341443Y-99915798D01*
X115271751Y-99910814D01*
X115215818Y-99868942D01*
X115200523Y-99842082D01*
X115196895Y-99833324D01*
X115196894Y-99833321D01*
X115196892Y-99833318D01*
X115196890Y-99833314D01*
X115109289Y-99702211D01*
X115109286Y-99702207D01*
X114997792Y-99590713D01*
X114997788Y-99590710D01*
X114866682Y-99503107D01*
X114843024Y-99493308D01*
X114836089Y-99488674D01*
X114831047Y-99487577D01*
X114802793Y-99466425D01*
X114786816Y-99450447D01*
X114753333Y-99389123D01*
X114750500Y-99362769D01*
X114750500Y-95486402D01*
X114752883Y-95462209D01*
X114756105Y-95446015D01*
X114760500Y-95423918D01*
X114760500Y-95276083D01*
X114760500Y-95276080D01*
X114731659Y-95131093D01*
X114731658Y-95131092D01*
X114731658Y-95131088D01*
X114689753Y-95029920D01*
X114675085Y-94994507D01*
X114675083Y-94994504D01*
X114592952Y-94871585D01*
X114592946Y-94871578D01*
X114488421Y-94767053D01*
X114488414Y-94767047D01*
X114365495Y-94684916D01*
X114365492Y-94684914D01*
X114228916Y-94628343D01*
X114228906Y-94628340D01*
X114083919Y-94599500D01*
X114083917Y-94599500D01*
X113936082Y-94599500D01*
X113936080Y-94599500D01*
X113791092Y-94628340D01*
X113791086Y-94628342D01*
X113654507Y-94684915D01*
X113529130Y-94768688D01*
X113462452Y-94789565D01*
X113395072Y-94771080D01*
X113349754Y-94721877D01*
X113343865Y-94710319D01*
X113230945Y-94554898D01*
X113095102Y-94419055D01*
X112939681Y-94306135D01*
X112768506Y-94218916D01*
X112585802Y-94159553D01*
X112490928Y-94144526D01*
X112396055Y-94129500D01*
X112203945Y-94129500D01*
X112140696Y-94139517D01*
X112014197Y-94159553D01*
X111831493Y-94218916D01*
X111660318Y-94306135D01*
X111571645Y-94370560D01*
X111504898Y-94419055D01*
X111504896Y-94419057D01*
X111504895Y-94419057D01*
X111369057Y-94554895D01*
X111369057Y-94554896D01*
X111369055Y-94554898D01*
X111339153Y-94596055D01*
X111256135Y-94710318D01*
X111168916Y-94881493D01*
X111147931Y-94946081D01*
X111108494Y-95003756D01*
X111044135Y-95030955D01*
X110975289Y-95019041D01*
X110923813Y-94971797D01*
X110912069Y-94946081D01*
X110891083Y-94881493D01*
X110844243Y-94789565D01*
X110803865Y-94710319D01*
X110690945Y-94554898D01*
X110555102Y-94419055D01*
X110399681Y-94306135D01*
X110228506Y-94218916D01*
X110045802Y-94159553D01*
X109950928Y-94144526D01*
X109856055Y-94129500D01*
X109663945Y-94129500D01*
X109600696Y-94139517D01*
X109474197Y-94159553D01*
X109291493Y-94218916D01*
X109120318Y-94306135D01*
X109031645Y-94370560D01*
X108964898Y-94419055D01*
X108964896Y-94419057D01*
X108964895Y-94419057D01*
X108829057Y-94554895D01*
X108829057Y-94554896D01*
X108829055Y-94554898D01*
X108799153Y-94596055D01*
X108716135Y-94710318D01*
X108628917Y-94881492D01*
X108607667Y-94946891D01*
X108568228Y-95004566D01*
X108503870Y-95031764D01*
X108435023Y-95019849D01*
X108383548Y-94972604D01*
X108371805Y-94946890D01*
X108361605Y-94915500D01*
X107927106Y-95350000D01*
X108361605Y-95784499D01*
X108361606Y-95784499D01*
X108371805Y-95753109D01*
X108411242Y-95695433D01*
X108475600Y-95668234D01*
X108544447Y-95680148D01*
X108595923Y-95727392D01*
X108607667Y-95753108D01*
X108628916Y-95818505D01*
X108628917Y-95818508D01*
X108628918Y-95818509D01*
X108716135Y-95989681D01*
X108829055Y-96145102D01*
X108964898Y-96280945D01*
X109120319Y-96393865D01*
X109236417Y-96453020D01*
X109291493Y-96481083D01*
X109382845Y-96510764D01*
X109474199Y-96540447D01*
X109663945Y-96570500D01*
X109663946Y-96570500D01*
X109856054Y-96570500D01*
X109856055Y-96570500D01*
X110045801Y-96540447D01*
X110228509Y-96481082D01*
X110399681Y-96393865D01*
X110555102Y-96280945D01*
X110690945Y-96145102D01*
X110803865Y-95989681D01*
X110891082Y-95818509D01*
X110892512Y-95814108D01*
X110912069Y-95753919D01*
X110951506Y-95696243D01*
X111015864Y-95669044D01*
X111084711Y-95680958D01*
X111136187Y-95728202D01*
X111147931Y-95753919D01*
X111168915Y-95818504D01*
X111168918Y-95818509D01*
X111256135Y-95989681D01*
X111369055Y-96145102D01*
X111504898Y-96280945D01*
X111660319Y-96393865D01*
X111776417Y-96453020D01*
X111831493Y-96481083D01*
X111922845Y-96510764D01*
X112014199Y-96540447D01*
X112203945Y-96570500D01*
X112203946Y-96570500D01*
X112396054Y-96570500D01*
X112396055Y-96570500D01*
X112585801Y-96540447D01*
X112768509Y-96481082D01*
X112939681Y-96393865D01*
X113052617Y-96311811D01*
X113118420Y-96288333D01*
X113186474Y-96304158D01*
X113235169Y-96354263D01*
X113249500Y-96412131D01*
X113249500Y-99798918D01*
X113249500Y-99798920D01*
X113249499Y-99798920D01*
X113278340Y-99943907D01*
X113278343Y-99943917D01*
X113334914Y-100080492D01*
X113367812Y-100129727D01*
X113367813Y-100129730D01*
X113417046Y-100203414D01*
X113417047Y-100203415D01*
X113417048Y-100203416D01*
X113741429Y-100527796D01*
X113768307Y-100568022D01*
X113778107Y-100591682D01*
X113865710Y-100722788D01*
X113865713Y-100722792D01*
X113977207Y-100834286D01*
X113977211Y-100834289D01*
X114108314Y-100921890D01*
X114108318Y-100921892D01*
X114108321Y-100921894D01*
X114112436Y-100923598D01*
X114117084Y-100925524D01*
X114171487Y-100969365D01*
X114193552Y-101035660D01*
X114176273Y-101103359D01*
X114157312Y-101127766D01*
X113412221Y-101872858D01*
X113412218Y-101872861D01*
X113342538Y-101942540D01*
X113272859Y-102012219D01*
X113163371Y-102176079D01*
X113163364Y-102176092D01*
X113087950Y-102358160D01*
X113087947Y-102358170D01*
X113049500Y-102551456D01*
X113049500Y-112494218D01*
X113040855Y-112523658D01*
X113034332Y-112553645D01*
X113030577Y-112558660D01*
X113029815Y-112561257D01*
X113013181Y-112581899D01*
X112871899Y-112723181D01*
X112810576Y-112756666D01*
X112784218Y-112759500D01*
X111891457Y-112759500D01*
X111698170Y-112797947D01*
X111698160Y-112797950D01*
X111516092Y-112873364D01*
X111516079Y-112873371D01*
X111352218Y-112982860D01*
X111352214Y-112982863D01*
X111212863Y-113122214D01*
X111212860Y-113122218D01*
X111103371Y-113286079D01*
X111103364Y-113286092D01*
X111027950Y-113468160D01*
X111027947Y-113468170D01*
X110989500Y-113661456D01*
X110989500Y-113661459D01*
X110989500Y-113858541D01*
X110989500Y-113858543D01*
X110989499Y-113858543D01*
X111027947Y-114051829D01*
X111027950Y-114051839D01*
X111103364Y-114233907D01*
X111103371Y-114233920D01*
X111212860Y-114397781D01*
X111212863Y-114397785D01*
X111352214Y-114537136D01*
X111352218Y-114537139D01*
X111516079Y-114646628D01*
X111516092Y-114646635D01*
X111698160Y-114722049D01*
X111698165Y-114722051D01*
X111698169Y-114722051D01*
X111698170Y-114722052D01*
X111891456Y-114760500D01*
X111891459Y-114760500D01*
X113348543Y-114760500D01*
X113403846Y-114749498D01*
X113525351Y-114725330D01*
X113541836Y-114722051D01*
X113595165Y-114699961D01*
X113723914Y-114646632D01*
X113887782Y-114537139D01*
X114027139Y-114397782D01*
X114027141Y-114397778D01*
X114097821Y-114327097D01*
X114159143Y-114293615D01*
X114228834Y-114298600D01*
X114284768Y-114340471D01*
X114309184Y-114405936D01*
X114309500Y-114414781D01*
X114309500Y-114819192D01*
X114289815Y-114886231D01*
X114273181Y-114906873D01*
X113566873Y-115613181D01*
X113505550Y-115646666D01*
X113479192Y-115649500D01*
X111925929Y-115649500D01*
X111800261Y-115674497D01*
X111800255Y-115674499D01*
X111681875Y-115723533D01*
X111681866Y-115723538D01*
X111575331Y-115794723D01*
X111575327Y-115794726D01*
X111484726Y-115885327D01*
X111484723Y-115885331D01*
X111413538Y-115991866D01*
X111413533Y-115991875D01*
X111364499Y-116110255D01*
X111364497Y-116110261D01*
X111339500Y-116235928D01*
X111339500Y-116235931D01*
X111339500Y-116364069D01*
X111339500Y-116364071D01*
X111339499Y-116364071D01*
X111364497Y-116489738D01*
X111364499Y-116489744D01*
X111413533Y-116608124D01*
X111413538Y-116608133D01*
X111484723Y-116714668D01*
X111484726Y-116714672D01*
X111575327Y-116805273D01*
X111575331Y-116805276D01*
X111681866Y-116876461D01*
X111681872Y-116876464D01*
X111681873Y-116876465D01*
X111800256Y-116925501D01*
X111800260Y-116925501D01*
X111800261Y-116925502D01*
X111925928Y-116950500D01*
X111925931Y-116950500D01*
X113864071Y-116950500D01*
X113948615Y-116933682D01*
X113989744Y-116925501D01*
X114108127Y-116876465D01*
X114214669Y-116805277D01*
X114912819Y-116107127D01*
X114974142Y-116073642D01*
X115043833Y-116078626D01*
X115099767Y-116120497D01*
X115124184Y-116185962D01*
X115124500Y-116194808D01*
X115124500Y-117344192D01*
X115104815Y-117411231D01*
X115088181Y-117431873D01*
X114366873Y-118153181D01*
X114305550Y-118186666D01*
X114279192Y-118189500D01*
X111925929Y-118189500D01*
X111800261Y-118214497D01*
X111800255Y-118214499D01*
X111681875Y-118263533D01*
X111681866Y-118263538D01*
X111575331Y-118334723D01*
X111575327Y-118334726D01*
X111484726Y-118425327D01*
X111484723Y-118425331D01*
X111413538Y-118531866D01*
X111413533Y-118531875D01*
X111364499Y-118650255D01*
X111364497Y-118650261D01*
X111339500Y-118775928D01*
X111339500Y-118775931D01*
X111339500Y-118904069D01*
X111339500Y-118904071D01*
X111339499Y-118904071D01*
X111364497Y-119029738D01*
X111364499Y-119029744D01*
X111413533Y-119148124D01*
X111413538Y-119148133D01*
X111484723Y-119254668D01*
X111484726Y-119254672D01*
X111575327Y-119345273D01*
X111575331Y-119345276D01*
X111681866Y-119416461D01*
X111681872Y-119416464D01*
X111681873Y-119416465D01*
X111800256Y-119465501D01*
X111800260Y-119465501D01*
X111800261Y-119465502D01*
X111925928Y-119490500D01*
X111925931Y-119490500D01*
X114664071Y-119490500D01*
X114748615Y-119473682D01*
X114789744Y-119465501D01*
X114908127Y-119416465D01*
X115014669Y-119345277D01*
X116280277Y-118079669D01*
X116351465Y-117973127D01*
X116400501Y-117854744D01*
X116409422Y-117809896D01*
X116425500Y-117729069D01*
X116425500Y-111745807D01*
X116445185Y-111678768D01*
X116461814Y-111658131D01*
X118352931Y-109767013D01*
X118414252Y-109733530D01*
X118416317Y-109733099D01*
X118483497Y-109719737D01*
X118629179Y-109659394D01*
X118686044Y-109621397D01*
X118704091Y-109615746D01*
X118720000Y-109605523D01*
X118750959Y-109601071D01*
X118752721Y-109600520D01*
X118754935Y-109600500D01*
X118942468Y-109600500D01*
X119009507Y-109620185D01*
X119055262Y-109672989D01*
X119065206Y-109742147D01*
X119045570Y-109793391D01*
X119040609Y-109800815D01*
X119040602Y-109800827D01*
X118980264Y-109946498D01*
X118980261Y-109946510D01*
X118949500Y-110101153D01*
X118949500Y-110258846D01*
X118980261Y-110413489D01*
X118980264Y-110413501D01*
X119040602Y-110559172D01*
X119040609Y-110559185D01*
X119128210Y-110690288D01*
X119128213Y-110690292D01*
X119239707Y-110801786D01*
X119239711Y-110801789D01*
X119370814Y-110889390D01*
X119370827Y-110889397D01*
X119516498Y-110949735D01*
X119516503Y-110949737D01*
X119671153Y-110980499D01*
X119671156Y-110980500D01*
X119671158Y-110980500D01*
X119828844Y-110980500D01*
X119828845Y-110980499D01*
X119983497Y-110949737D01*
X120129179Y-110889394D01*
X120129185Y-110889390D01*
X120230943Y-110821398D01*
X120297621Y-110800520D01*
X120299834Y-110800500D01*
X146814071Y-110800500D01*
X146898615Y-110783682D01*
X146939744Y-110775501D01*
X147058127Y-110726465D01*
X147164669Y-110655277D01*
X149265276Y-108554670D01*
X149336465Y-108448127D01*
X149385501Y-108329744D01*
X149393307Y-108290500D01*
X149410500Y-108204069D01*
X149410500Y-103885931D01*
X149410500Y-103885928D01*
X149392883Y-103797365D01*
X149390500Y-103773173D01*
X149390500Y-100366553D01*
X149392883Y-100342360D01*
X149400500Y-100304070D01*
X149400500Y-94435928D01*
X149375502Y-94310261D01*
X149375501Y-94310260D01*
X149375501Y-94310256D01*
X149326465Y-94191873D01*
X149326464Y-94191872D01*
X149326461Y-94191866D01*
X149255276Y-94085331D01*
X149255273Y-94085327D01*
X149164672Y-93994726D01*
X149164668Y-93994723D01*
X149058133Y-93923538D01*
X149058124Y-93923533D01*
X148939744Y-93874499D01*
X148939738Y-93874497D01*
X148814071Y-93849500D01*
X148814069Y-93849500D01*
X148685931Y-93849500D01*
X148685929Y-93849500D01*
X148560261Y-93874497D01*
X148560255Y-93874499D01*
X148441875Y-93923533D01*
X148441866Y-93923538D01*
X148335331Y-93994723D01*
X148335326Y-93994727D01*
X148297598Y-94032455D01*
X148236275Y-94065940D01*
X148181750Y-94065355D01*
X147747106Y-94500000D01*
X148063181Y-94816074D01*
X148096666Y-94877397D01*
X148099500Y-94903755D01*
X148099500Y-100123446D01*
X148097117Y-100147639D01*
X148089500Y-100185929D01*
X148089500Y-103994070D01*
X148107117Y-104082630D01*
X148109500Y-104106823D01*
X148109500Y-107819192D01*
X148089815Y-107886231D01*
X148073181Y-107906873D01*
X146516873Y-109463181D01*
X146455550Y-109496666D01*
X146429192Y-109499500D01*
X129869808Y-109499500D01*
X129848562Y-109493261D01*
X129826475Y-109491682D01*
X129815691Y-109483609D01*
X129802769Y-109479815D01*
X129788270Y-109463083D01*
X129770541Y-109449811D01*
X129765833Y-109437188D01*
X129757014Y-109427011D01*
X129753862Y-109405095D01*
X129746124Y-109384347D01*
X129748986Y-109371185D01*
X129747070Y-109357853D01*
X129756268Y-109337711D01*
X129760975Y-109316074D01*
X129774246Y-109298345D01*
X129776095Y-109294297D01*
X129782118Y-109287826D01*
X129952932Y-109117012D01*
X130014251Y-109083530D01*
X130016316Y-109083099D01*
X130083497Y-109069737D01*
X130229179Y-109009394D01*
X130360289Y-108921789D01*
X130471789Y-108810289D01*
X130559394Y-108679179D01*
X130619737Y-108533497D01*
X130628049Y-108491709D01*
X130646231Y-108400308D01*
X130678616Y-108338397D01*
X130739332Y-108303823D01*
X130767848Y-108300500D01*
X136064071Y-108300500D01*
X136148615Y-108283682D01*
X136189744Y-108275501D01*
X136308127Y-108226465D01*
X136414669Y-108155277D01*
X139505277Y-105064669D01*
X139576465Y-104958127D01*
X139588772Y-104928416D01*
X139625501Y-104839744D01*
X139650500Y-104714069D01*
X139650500Y-93820808D01*
X139670185Y-93753769D01*
X139686819Y-93733127D01*
X143005271Y-90414675D01*
X143005276Y-90414670D01*
X143076465Y-90308127D01*
X143125501Y-90189744D01*
X143135307Y-90140447D01*
X143150500Y-90064069D01*
X143150500Y-89134840D01*
X143170185Y-89067801D01*
X143222989Y-89022046D01*
X143292147Y-89012102D01*
X143355703Y-89041127D01*
X143384983Y-89078543D01*
X143416135Y-89139681D01*
X143529055Y-89295102D01*
X143664898Y-89430945D01*
X143820319Y-89543865D01*
X143960099Y-89615087D01*
X143991493Y-89631083D01*
X144071585Y-89657106D01*
X144174199Y-89690447D01*
X144363945Y-89720500D01*
X144363946Y-89720500D01*
X144556054Y-89720500D01*
X144556055Y-89720500D01*
X144745801Y-89690447D01*
X144928509Y-89631082D01*
X145069206Y-89559392D01*
X145137874Y-89546497D01*
X145202614Y-89572773D01*
X145242872Y-89629879D01*
X145249500Y-89669878D01*
X145249500Y-92178155D01*
X145247117Y-92202347D01*
X145209500Y-92391456D01*
X145209500Y-93289359D01*
X145189815Y-93356398D01*
X145137011Y-93402153D01*
X145067853Y-93412097D01*
X145029205Y-93399844D01*
X144968506Y-93368916D01*
X144785802Y-93309553D01*
X144658302Y-93289359D01*
X144596055Y-93279500D01*
X144403945Y-93279500D01*
X144341698Y-93289359D01*
X144214197Y-93309553D01*
X144031493Y-93368916D01*
X143860318Y-93456135D01*
X143771645Y-93520560D01*
X143704898Y-93569055D01*
X143704896Y-93569057D01*
X143704895Y-93569057D01*
X143569057Y-93704895D01*
X143569057Y-93704896D01*
X143569055Y-93704898D01*
X143533548Y-93753769D01*
X143456135Y-93860318D01*
X143368916Y-94031493D01*
X143347931Y-94096081D01*
X143308494Y-94153756D01*
X143244135Y-94180955D01*
X143175289Y-94169041D01*
X143123813Y-94121797D01*
X143112069Y-94096081D01*
X143091083Y-94031493D01*
X143003864Y-93860318D01*
X142890945Y-93704898D01*
X142755102Y-93569055D01*
X142599681Y-93456135D01*
X142560023Y-93435928D01*
X142428506Y-93368916D01*
X142245802Y-93309553D01*
X142118302Y-93289359D01*
X142056055Y-93279500D01*
X141863945Y-93279500D01*
X141801698Y-93289359D01*
X141674197Y-93309553D01*
X141491493Y-93368916D01*
X141320318Y-93456135D01*
X141231645Y-93520560D01*
X141164898Y-93569055D01*
X141164896Y-93569057D01*
X141164895Y-93569057D01*
X141029057Y-93704895D01*
X141029057Y-93704896D01*
X141029055Y-93704898D01*
X140993548Y-93753769D01*
X140916135Y-93860318D01*
X140828916Y-94031493D01*
X140769553Y-94214197D01*
X140754992Y-94306135D01*
X140739500Y-94403945D01*
X140739500Y-94596055D01*
X140748740Y-94654394D01*
X140769553Y-94785802D01*
X140828916Y-94968506D01*
X140860736Y-95030955D01*
X140916135Y-95139681D01*
X141029055Y-95295102D01*
X141164898Y-95430945D01*
X141320319Y-95543865D01*
X141491491Y-95631082D01*
X141491493Y-95631083D01*
X141554205Y-95651459D01*
X141674199Y-95690447D01*
X141863945Y-95720500D01*
X141863946Y-95720500D01*
X142056054Y-95720500D01*
X142056055Y-95720500D01*
X142245801Y-95690447D01*
X142428509Y-95631082D01*
X142599681Y-95543865D01*
X142755102Y-95430945D01*
X142890945Y-95295102D01*
X143003865Y-95139681D01*
X143091082Y-94968509D01*
X143097096Y-94950000D01*
X143112069Y-94903919D01*
X143151506Y-94846243D01*
X143215864Y-94819044D01*
X143284711Y-94830958D01*
X143336187Y-94878202D01*
X143347931Y-94903919D01*
X143368915Y-94968504D01*
X143400736Y-95030955D01*
X143456135Y-95139681D01*
X143569055Y-95295102D01*
X143704898Y-95430945D01*
X143860319Y-95543865D01*
X144031491Y-95631082D01*
X144031493Y-95631083D01*
X144094205Y-95651459D01*
X144214199Y-95690447D01*
X144403945Y-95720500D01*
X144403946Y-95720500D01*
X144596054Y-95720500D01*
X144596055Y-95720500D01*
X144785801Y-95690447D01*
X144968509Y-95631082D01*
X145029204Y-95600155D01*
X145097873Y-95587259D01*
X145162614Y-95613534D01*
X145202871Y-95670640D01*
X145209500Y-95710640D01*
X145209500Y-97324217D01*
X145189815Y-97391256D01*
X145173181Y-97411898D01*
X144222863Y-98362215D01*
X144222860Y-98362219D01*
X144113372Y-98526079D01*
X144113367Y-98526089D01*
X144037949Y-98708163D01*
X144037947Y-98708171D01*
X143999500Y-98901455D01*
X143999500Y-99098544D01*
X144037947Y-99291828D01*
X144037949Y-99291836D01*
X144113367Y-99473910D01*
X144113372Y-99473920D01*
X144222860Y-99637780D01*
X144222863Y-99637784D01*
X144362215Y-99777136D01*
X144362219Y-99777139D01*
X144526079Y-99886627D01*
X144526083Y-99886629D01*
X144526086Y-99886631D01*
X144708164Y-99962051D01*
X144901455Y-100000499D01*
X144901458Y-100000500D01*
X144901460Y-100000500D01*
X145098542Y-100000500D01*
X145098543Y-100000499D01*
X145291836Y-99962051D01*
X145473914Y-99886631D01*
X145637781Y-99777139D01*
X146987139Y-98427782D01*
X147022072Y-98375501D01*
X147096632Y-98263914D01*
X147172051Y-98081835D01*
X147210500Y-97888541D01*
X147210500Y-95814108D01*
X147230185Y-95747069D01*
X147282989Y-95701314D01*
X147315103Y-95691634D01*
X147325692Y-95689956D01*
X147474499Y-95641606D01*
X147474499Y-95641605D01*
X147246819Y-95413925D01*
X147213334Y-95352602D01*
X147210500Y-95326244D01*
X147210500Y-94863442D01*
X147285606Y-94820080D01*
X147360080Y-94745606D01*
X147412741Y-94654394D01*
X147440000Y-94552661D01*
X147440000Y-94447339D01*
X147412741Y-94345606D01*
X147360080Y-94254394D01*
X147285606Y-94179920D01*
X147210500Y-94136557D01*
X147210500Y-93673754D01*
X147230185Y-93606715D01*
X147246819Y-93586073D01*
X147474498Y-93358393D01*
X147474498Y-93358392D01*
X147325682Y-93310040D01*
X147325683Y-93310040D01*
X147315096Y-93308363D01*
X147251963Y-93278431D01*
X147215034Y-93219117D01*
X147210500Y-93185891D01*
X147210500Y-92761848D01*
X147212883Y-92737656D01*
X147250501Y-92548542D01*
X147250501Y-92346349D01*
X147250500Y-92346323D01*
X147250500Y-89791482D01*
X147270185Y-89724443D01*
X147322989Y-89678688D01*
X147336182Y-89673551D01*
X147434499Y-89641606D01*
X147434499Y-89641605D01*
X147286819Y-89493925D01*
X147253334Y-89432602D01*
X147250500Y-89406244D01*
X147250500Y-88815186D01*
X147320080Y-88745606D01*
X147372741Y-88654394D01*
X147400000Y-88552661D01*
X147400000Y-88447339D01*
X147372741Y-88345606D01*
X147320080Y-88254394D01*
X147250500Y-88184814D01*
X147250500Y-87593754D01*
X147270185Y-87526715D01*
X147286819Y-87506073D01*
X147434498Y-87358393D01*
X147434498Y-87358392D01*
X147336182Y-87326448D01*
X147278506Y-87287011D01*
X147251308Y-87222652D01*
X147250500Y-87208517D01*
X147250500Y-84969808D01*
X147270185Y-84902769D01*
X147322989Y-84857014D01*
X147392147Y-84847070D01*
X147455703Y-84876095D01*
X147462181Y-84882127D01*
X148023181Y-85443127D01*
X148056666Y-85504450D01*
X148059500Y-85530808D01*
X148059500Y-88096244D01*
X148039815Y-88163283D01*
X148023181Y-88183925D01*
X147707106Y-88500000D01*
X148141799Y-88934692D01*
X148210751Y-88938141D01*
X148257598Y-88967544D01*
X148295327Y-89005273D01*
X148295331Y-89005276D01*
X148401866Y-89076461D01*
X148401875Y-89076466D01*
X148428692Y-89087574D01*
X148520256Y-89125501D01*
X148520260Y-89125501D01*
X148520261Y-89125502D01*
X148645928Y-89150500D01*
X148645931Y-89150500D01*
X148774071Y-89150500D01*
X148858615Y-89133682D01*
X148899744Y-89125501D01*
X149018127Y-89076465D01*
X149124669Y-89005276D01*
X149215276Y-88914669D01*
X149286465Y-88808127D01*
X149335501Y-88689744D01*
X149349565Y-88619041D01*
X149360500Y-88564071D01*
X149360500Y-85145928D01*
X149335502Y-85020261D01*
X149335501Y-85020260D01*
X149335501Y-85020256D01*
X149286465Y-84901873D01*
X149275412Y-84885331D01*
X149215277Y-84795331D01*
X149065482Y-84645536D01*
X149031999Y-84584215D01*
X149036983Y-84514524D01*
X149078854Y-84458590D01*
X149105713Y-84443296D01*
X149333857Y-84348795D01*
X149333869Y-84348790D01*
X149654462Y-84177429D01*
X149654480Y-84177418D01*
X149956736Y-83975457D01*
X149956750Y-83975447D01*
X149990579Y-83947684D01*
X148471165Y-82428270D01*
X148588583Y-82368443D01*
X148792330Y-82220412D01*
X148970412Y-82042330D01*
X149118443Y-81838583D01*
X149178270Y-81721165D01*
X150697684Y-83240579D01*
X150725447Y-83206750D01*
X150725457Y-83206736D01*
X150927418Y-82904480D01*
X150927429Y-82904462D01*
X151098790Y-82583869D01*
X151098792Y-82583864D01*
X151237913Y-82247997D01*
X151343446Y-81900101D01*
X151343449Y-81900090D01*
X151414367Y-81543556D01*
X151450000Y-81181765D01*
X151450000Y-80818234D01*
X151414367Y-80456443D01*
X151343449Y-80099909D01*
X151343446Y-80099898D01*
X151237913Y-79752002D01*
X151098792Y-79416135D01*
X151098790Y-79416130D01*
X150927429Y-79095537D01*
X150927418Y-79095519D01*
X150725449Y-78793251D01*
X150697685Y-78759420D01*
X150697683Y-78759420D01*
X149178270Y-80278834D01*
X149118443Y-80161417D01*
X148970412Y-79957670D01*
X148792330Y-79779588D01*
X148588583Y-79631557D01*
X148471164Y-79571729D01*
X149990578Y-78052314D01*
X149990578Y-78052313D01*
X149956748Y-78024550D01*
X149654480Y-77822581D01*
X149654462Y-77822570D01*
X149333869Y-77651209D01*
X149333864Y-77651207D01*
X148997997Y-77512086D01*
X148650101Y-77406553D01*
X148650090Y-77406550D01*
X148293556Y-77335632D01*
X147931766Y-77300000D01*
X147568234Y-77300000D01*
X147206443Y-77335632D01*
X146849909Y-77406550D01*
X146849898Y-77406553D01*
X146502002Y-77512086D01*
X146166135Y-77651207D01*
X146166130Y-77651209D01*
X145845537Y-77822570D01*
X145845519Y-77822581D01*
X145543259Y-78024544D01*
X145543245Y-78024554D01*
X145509420Y-78052312D01*
X145509420Y-78052314D01*
X147028835Y-79571729D01*
X146911417Y-79631557D01*
X146707670Y-79779588D01*
X146529588Y-79957670D01*
X146381557Y-80161417D01*
X146321729Y-80278835D01*
X144802314Y-78759420D01*
X144802312Y-78759420D01*
X144774554Y-78793245D01*
X144774544Y-78793259D01*
X144572581Y-79095519D01*
X144572570Y-79095537D01*
X144401209Y-79416130D01*
X144401207Y-79416135D01*
X144262086Y-79752002D01*
X144156553Y-80099898D01*
X144156550Y-80099909D01*
X144085632Y-80456443D01*
X144050000Y-80818234D01*
X144050000Y-81181765D01*
X144085632Y-81543556D01*
X144156550Y-81900090D01*
X144156553Y-81900101D01*
X144262086Y-82247997D01*
X144401207Y-82583864D01*
X144401209Y-82583869D01*
X144572570Y-82904462D01*
X144572582Y-82904482D01*
X144574001Y-82906605D01*
X144594882Y-82973282D01*
X144576400Y-83040663D01*
X144524423Y-83087355D01*
X144470902Y-83099500D01*
X143935929Y-83099500D01*
X143810261Y-83124497D01*
X143810255Y-83124499D01*
X143691870Y-83173535D01*
X143585331Y-83244722D01*
X143585324Y-83244728D01*
X141994727Y-84835325D01*
X141994721Y-84835332D01*
X141950261Y-84901872D01*
X141950262Y-84901873D01*
X141923534Y-84941874D01*
X141874499Y-85060255D01*
X141874497Y-85060261D01*
X141849500Y-85185928D01*
X141849500Y-87169546D01*
X141829815Y-87236585D01*
X141777011Y-87282340D01*
X141744899Y-87292019D01*
X141634197Y-87309553D01*
X141451493Y-87368916D01*
X141280318Y-87456135D01*
X141211585Y-87506073D01*
X141124898Y-87569055D01*
X141124896Y-87569057D01*
X141124895Y-87569057D01*
X140989057Y-87704895D01*
X140989057Y-87704896D01*
X140989055Y-87704898D01*
X140949346Y-87759553D01*
X140876135Y-87860318D01*
X140788916Y-88031493D01*
X140729553Y-88214197D01*
X140699500Y-88403945D01*
X140699500Y-88596054D01*
X140729553Y-88785802D01*
X140788916Y-88968506D01*
X140851646Y-89091619D01*
X140876135Y-89139681D01*
X140989055Y-89295102D01*
X141124898Y-89430945D01*
X141280319Y-89543865D01*
X141420099Y-89615087D01*
X141451493Y-89631083D01*
X141634525Y-89690553D01*
X141692200Y-89729990D01*
X141719399Y-89794348D01*
X141707485Y-89863195D01*
X141683888Y-89896165D01*
X138494727Y-93085325D01*
X138494726Y-93085326D01*
X138423534Y-93191874D01*
X138374499Y-93310255D01*
X138374497Y-93310261D01*
X138349500Y-93435928D01*
X138349500Y-104329192D01*
X138329815Y-104396231D01*
X138313181Y-104416873D01*
X135766873Y-106963181D01*
X135705550Y-106996666D01*
X135679192Y-106999500D01*
X134302190Y-106999500D01*
X134235151Y-106979815D01*
X134189396Y-106927011D01*
X134179452Y-106857853D01*
X134208477Y-106794297D01*
X134254738Y-106760939D01*
X134379172Y-106709397D01*
X134379172Y-106709396D01*
X134379179Y-106709394D01*
X134510289Y-106621789D01*
X134621789Y-106510289D01*
X134709394Y-106379179D01*
X134769737Y-106233497D01*
X134800500Y-106078842D01*
X134800500Y-105921158D01*
X134800500Y-105921155D01*
X134800499Y-105921153D01*
X134779684Y-105816510D01*
X134769737Y-105766503D01*
X134709394Y-105620821D01*
X134671396Y-105563953D01*
X134650520Y-105497276D01*
X134650500Y-105495064D01*
X134650500Y-98136878D01*
X134670185Y-98069839D01*
X134722989Y-98024084D01*
X134727930Y-98022215D01*
X134727869Y-98022068D01*
X134879172Y-97959397D01*
X134879172Y-97959396D01*
X134879179Y-97959394D01*
X135010289Y-97871789D01*
X135121789Y-97760289D01*
X135209394Y-97629179D01*
X135269737Y-97483497D01*
X135300500Y-97328842D01*
X135300500Y-97171158D01*
X135300500Y-97171155D01*
X135300499Y-97171153D01*
X135269738Y-97016510D01*
X135269738Y-97016508D01*
X135269737Y-97016503D01*
X135269735Y-97016498D01*
X135209397Y-96870827D01*
X135209390Y-96870814D01*
X135121789Y-96739711D01*
X135121786Y-96739707D01*
X135010292Y-96628213D01*
X135010288Y-96628210D01*
X134879185Y-96540609D01*
X134879172Y-96540602D01*
X134733501Y-96480264D01*
X134733489Y-96480261D01*
X134578845Y-96449500D01*
X134578842Y-96449500D01*
X134421158Y-96449500D01*
X134421155Y-96449500D01*
X134266510Y-96480261D01*
X134266498Y-96480264D01*
X134120827Y-96540602D01*
X134120814Y-96540609D01*
X133989711Y-96628210D01*
X133989707Y-96628213D01*
X133878213Y-96739707D01*
X133878210Y-96739711D01*
X133790609Y-96870814D01*
X133790602Y-96870827D01*
X133730264Y-97016498D01*
X133730261Y-97016508D01*
X133716920Y-97083579D01*
X133684535Y-97145490D01*
X133682985Y-97147068D01*
X133494722Y-97335332D01*
X133424955Y-97439747D01*
X133423535Y-97441871D01*
X133423532Y-97441877D01*
X133374500Y-97560251D01*
X133374497Y-97560261D01*
X133349500Y-97685928D01*
X133349500Y-105495064D01*
X133329815Y-105562103D01*
X133328603Y-105563954D01*
X133290608Y-105620817D01*
X133290602Y-105620828D01*
X133230264Y-105766498D01*
X133230261Y-105766510D01*
X133199500Y-105921153D01*
X133199500Y-106078846D01*
X133230261Y-106233489D01*
X133230264Y-106233501D01*
X133290602Y-106379172D01*
X133290609Y-106379185D01*
X133378210Y-106510288D01*
X133378213Y-106510292D01*
X133489707Y-106621786D01*
X133489711Y-106621789D01*
X133620814Y-106709390D01*
X133620827Y-106709397D01*
X133745262Y-106760939D01*
X133799666Y-106804779D01*
X133821731Y-106871074D01*
X133804452Y-106938773D01*
X133753315Y-106986384D01*
X133697810Y-106999500D01*
X120269901Y-106999500D01*
X120202862Y-106979815D01*
X120201010Y-106978602D01*
X120129184Y-106930609D01*
X120129172Y-106930602D01*
X119983501Y-106870264D01*
X119983489Y-106870261D01*
X119828845Y-106839500D01*
X119828842Y-106839500D01*
X119671158Y-106839500D01*
X119671155Y-106839500D01*
X119516510Y-106870261D01*
X119516498Y-106870264D01*
X119370827Y-106930602D01*
X119370814Y-106930609D01*
X119239711Y-107018210D01*
X119239707Y-107018213D01*
X119128213Y-107129707D01*
X119128210Y-107129711D01*
X119040609Y-107260814D01*
X119040602Y-107260827D01*
X118980264Y-107406498D01*
X118980261Y-107406510D01*
X118949500Y-107561153D01*
X118949500Y-107718846D01*
X118980261Y-107873489D01*
X118980264Y-107873501D01*
X119040602Y-108019172D01*
X119040609Y-108019185D01*
X119099024Y-108106609D01*
X119102061Y-108116309D01*
X119108716Y-108123989D01*
X119112324Y-108149088D01*
X119119902Y-108173287D01*
X119117213Y-108183086D01*
X119118660Y-108193147D01*
X119108125Y-108216215D01*
X119101417Y-108240667D01*
X119093857Y-108247457D01*
X119089635Y-108256703D01*
X119068300Y-108270413D01*
X119049438Y-108287357D01*
X119037841Y-108289988D01*
X119030857Y-108294477D01*
X118995922Y-108299500D01*
X118754935Y-108299500D01*
X118687896Y-108279815D01*
X118686090Y-108278633D01*
X118629179Y-108240606D01*
X118629172Y-108240602D01*
X118483501Y-108180264D01*
X118483489Y-108180261D01*
X118328845Y-108149500D01*
X118328842Y-108149500D01*
X118171158Y-108149500D01*
X118171155Y-108149500D01*
X118016510Y-108180261D01*
X118016498Y-108180264D01*
X117870827Y-108240602D01*
X117870814Y-108240609D01*
X117739711Y-108328210D01*
X117739707Y-108328213D01*
X117628213Y-108439707D01*
X117628210Y-108439711D01*
X117540609Y-108570814D01*
X117540602Y-108570827D01*
X117480264Y-108716498D01*
X117480261Y-108716508D01*
X117466920Y-108783579D01*
X117434535Y-108845490D01*
X117432984Y-108847068D01*
X115822181Y-110457872D01*
X115760858Y-110491357D01*
X115691166Y-110486373D01*
X115635233Y-110444501D01*
X115610816Y-110379037D01*
X115610500Y-110370191D01*
X115610500Y-107210808D01*
X115630185Y-107143769D01*
X115646819Y-107123127D01*
X116033127Y-106736819D01*
X116094450Y-106703334D01*
X116120808Y-106700500D01*
X118245065Y-106700500D01*
X118312104Y-106720185D01*
X118313909Y-106721366D01*
X118370821Y-106759394D01*
X118370823Y-106759395D01*
X118370827Y-106759397D01*
X118516498Y-106819735D01*
X118516503Y-106819737D01*
X118615858Y-106839500D01*
X118671153Y-106850499D01*
X118671156Y-106850500D01*
X118671158Y-106850500D01*
X118828844Y-106850500D01*
X118828845Y-106850499D01*
X118983497Y-106819737D01*
X119129179Y-106759394D01*
X119260289Y-106671789D01*
X119371789Y-106560289D01*
X119459394Y-106429179D01*
X119519737Y-106283497D01*
X119550500Y-106128842D01*
X119550500Y-105971158D01*
X119550500Y-105971155D01*
X119550499Y-105971153D01*
X119540553Y-105921153D01*
X119519737Y-105816503D01*
X119519735Y-105816498D01*
X119459398Y-105670830D01*
X119459396Y-105670827D01*
X119459394Y-105670821D01*
X119459389Y-105670814D01*
X119458264Y-105668708D01*
X119458005Y-105667468D01*
X119457063Y-105665192D01*
X119457494Y-105665013D01*
X119444022Y-105600305D01*
X119469021Y-105535061D01*
X119525326Y-105493690D01*
X119591814Y-105488636D01*
X119651456Y-105500500D01*
X119651459Y-105500500D01*
X119848543Y-105500500D01*
X119984102Y-105473535D01*
X120041835Y-105462051D01*
X120223914Y-105386632D01*
X120387782Y-105277139D01*
X120527139Y-105137782D01*
X120636632Y-104973914D01*
X120712051Y-104791835D01*
X120750500Y-104598541D01*
X120750500Y-104401459D01*
X120750500Y-104401456D01*
X120712052Y-104208170D01*
X120712051Y-104208169D01*
X120712051Y-104208165D01*
X120670074Y-104106823D01*
X120636635Y-104026092D01*
X120636628Y-104026079D01*
X120527139Y-103862218D01*
X120527136Y-103862214D01*
X120387785Y-103722863D01*
X120387781Y-103722860D01*
X120223920Y-103613371D01*
X120223907Y-103613364D01*
X120041839Y-103537950D01*
X120041829Y-103537947D01*
X119848543Y-103499500D01*
X119848541Y-103499500D01*
X119651459Y-103499500D01*
X119651457Y-103499500D01*
X119458170Y-103537947D01*
X119458160Y-103537950D01*
X119276088Y-103613366D01*
X119178456Y-103678602D01*
X119111778Y-103699480D01*
X119109565Y-103699500D01*
X116214610Y-103699500D01*
X116147571Y-103679815D01*
X116140641Y-103674771D01*
X115973920Y-103563371D01*
X115973907Y-103563364D01*
X115791839Y-103487950D01*
X115791829Y-103487947D01*
X115598543Y-103449500D01*
X115598541Y-103449500D01*
X115401459Y-103449500D01*
X115401457Y-103449500D01*
X115202191Y-103489137D01*
X115201829Y-103487321D01*
X115140616Y-103487862D01*
X115081507Y-103450607D01*
X115051923Y-103387310D01*
X115050500Y-103368581D01*
X115050500Y-103115781D01*
X115070185Y-103048742D01*
X115086814Y-103028105D01*
X117187778Y-100927141D01*
X117187782Y-100927139D01*
X117327139Y-100787782D01*
X117436632Y-100623914D01*
X117498107Y-100475500D01*
X117512051Y-100441836D01*
X117531275Y-100345188D01*
X117550500Y-100248541D01*
X117550500Y-85415782D01*
X117570185Y-85348743D01*
X117586819Y-85328101D01*
X120277136Y-82637784D01*
X120277139Y-82637781D01*
X120386631Y-82473914D01*
X120462051Y-82291836D01*
X120500500Y-82098540D01*
X120500500Y-81901460D01*
X120500500Y-81901457D01*
X120500499Y-81901455D01*
X120462052Y-81708171D01*
X120462051Y-81708164D01*
X120386631Y-81526086D01*
X120386629Y-81526083D01*
X120386627Y-81526079D01*
X120277139Y-81362219D01*
X120277136Y-81362215D01*
X120137784Y-81222863D01*
X120137780Y-81222860D01*
X119973920Y-81113372D01*
X119973910Y-81113367D01*
X119791836Y-81037949D01*
X119791828Y-81037947D01*
X119598543Y-80999500D01*
X119598540Y-80999500D01*
X119401460Y-80999500D01*
X119401457Y-80999500D01*
X119208171Y-81037947D01*
X119208163Y-81037949D01*
X119026089Y-81113367D01*
X119026079Y-81113372D01*
X118862219Y-81222860D01*
X118862215Y-81222863D01*
X117180617Y-82904462D01*
X115912221Y-84172858D01*
X115912218Y-84172861D01*
X115842538Y-84242540D01*
X115772859Y-84312219D01*
X115663371Y-84476079D01*
X115663368Y-84476085D01*
X115654341Y-84497879D01*
X115610499Y-84552282D01*
X115544205Y-84574346D01*
X115492328Y-84564986D01*
X115408501Y-84530264D01*
X115408489Y-84530261D01*
X115253845Y-84499500D01*
X115253842Y-84499500D01*
X115096158Y-84499500D01*
X115096155Y-84499500D01*
X114941510Y-84530261D01*
X114941498Y-84530264D01*
X114795827Y-84590602D01*
X114795814Y-84590609D01*
X114664711Y-84678210D01*
X114664707Y-84678213D01*
X114553213Y-84789707D01*
X114553207Y-84789715D01*
X114465607Y-84920818D01*
X114465606Y-84920819D01*
X114455805Y-84944480D01*
X114428927Y-84984703D01*
X113427049Y-85986581D01*
X113377812Y-86060271D01*
X113344921Y-86109496D01*
X113344914Y-86109508D01*
X113288342Y-86246086D01*
X113288340Y-86246092D01*
X113259500Y-86391079D01*
X113259500Y-87895133D01*
X113239815Y-87962172D01*
X113187011Y-88007927D01*
X113117853Y-88017871D01*
X113062615Y-87995451D01*
X112939684Y-87906137D01*
X112939683Y-87906136D01*
X112939681Y-87906135D01*
X112849761Y-87860318D01*
X112768506Y-87818916D01*
X112585802Y-87759553D01*
X112490928Y-87744526D01*
X112396055Y-87729500D01*
X112203945Y-87729500D01*
X112140696Y-87739517D01*
X112014197Y-87759553D01*
X111831493Y-87818916D01*
X111660318Y-87906135D01*
X111583191Y-87962172D01*
X111504898Y-88019055D01*
X111504896Y-88019057D01*
X111504895Y-88019057D01*
X111369057Y-88154895D01*
X111369057Y-88154896D01*
X111369055Y-88154898D01*
X111325972Y-88214197D01*
X111256135Y-88310318D01*
X111168916Y-88481493D01*
X111147931Y-88546081D01*
X111108494Y-88603756D01*
X111044135Y-88630955D01*
X110975289Y-88619041D01*
X110923813Y-88571797D01*
X110912069Y-88546081D01*
X110891083Y-88481493D01*
X110884368Y-88468315D01*
X110803865Y-88310319D01*
X110690945Y-88154898D01*
X110555102Y-88019055D01*
X110399681Y-87906135D01*
X110228506Y-87818916D01*
X110045802Y-87759553D01*
X109950928Y-87744526D01*
X109856055Y-87729500D01*
X109663945Y-87729500D01*
X109600696Y-87739517D01*
X109474197Y-87759553D01*
X109291493Y-87818916D01*
X109120318Y-87906135D01*
X109043191Y-87962172D01*
X108964898Y-88019055D01*
X108964896Y-88019057D01*
X108964895Y-88019057D01*
X108829057Y-88154895D01*
X108829057Y-88154896D01*
X108829055Y-88154898D01*
X108785972Y-88214197D01*
X108716135Y-88310318D01*
X108628917Y-88481492D01*
X108607667Y-88546891D01*
X108568228Y-88604566D01*
X108503870Y-88631764D01*
X108435023Y-88619849D01*
X108383548Y-88572604D01*
X108371805Y-88546890D01*
X108361605Y-88515500D01*
X107927106Y-88950000D01*
X107620000Y-88950000D01*
X107620000Y-88897339D01*
X107592741Y-88795606D01*
X107540080Y-88704394D01*
X107465606Y-88629920D01*
X107374394Y-88577259D01*
X107272661Y-88550000D01*
X107167339Y-88550000D01*
X107065606Y-88577259D01*
X106974394Y-88629920D01*
X106899920Y-88704394D01*
X106847259Y-88795606D01*
X106820000Y-88897339D01*
X106460232Y-88897339D01*
X106078393Y-88515500D01*
X106078392Y-88515500D01*
X106030041Y-88664312D01*
X106000000Y-88853984D01*
X103235917Y-88853984D01*
X103239506Y-88830616D01*
X103242329Y-88817222D01*
X103250500Y-88786734D01*
X103250500Y-88768540D01*
X103251938Y-88749710D01*
X103254702Y-88731719D01*
X103251241Y-88700195D01*
X103250500Y-88686663D01*
X103250500Y-87808392D01*
X106785500Y-87808392D01*
X106785500Y-87808393D01*
X107220000Y-88242893D01*
X107220001Y-88242893D01*
X107654498Y-87808393D01*
X107654498Y-87808392D01*
X107505685Y-87760041D01*
X107316015Y-87730000D01*
X107123985Y-87730000D01*
X106934312Y-87760041D01*
X106785500Y-87808392D01*
X103250500Y-87808392D01*
X103250500Y-81002706D01*
X103250618Y-80997297D01*
X103258436Y-80818234D01*
X104050000Y-80818234D01*
X104050000Y-81181765D01*
X104085632Y-81543556D01*
X104156550Y-81900090D01*
X104156553Y-81900101D01*
X104262086Y-82247997D01*
X104401207Y-82583864D01*
X104401209Y-82583869D01*
X104572570Y-82904462D01*
X104572581Y-82904480D01*
X104774550Y-83206748D01*
X104802314Y-83240578D01*
X106321728Y-81721164D01*
X106381557Y-81838583D01*
X106529588Y-82042330D01*
X106707670Y-82220412D01*
X106911417Y-82368443D01*
X107028834Y-82428270D01*
X105509420Y-83947683D01*
X105509420Y-83947685D01*
X105543251Y-83975449D01*
X105845519Y-84177418D01*
X105845537Y-84177429D01*
X106166130Y-84348790D01*
X106166135Y-84348792D01*
X106502002Y-84487913D01*
X106849898Y-84593446D01*
X106849909Y-84593449D01*
X107206443Y-84664367D01*
X107568234Y-84700000D01*
X107931766Y-84700000D01*
X108293556Y-84664367D01*
X108650090Y-84593449D01*
X108650101Y-84593446D01*
X108997997Y-84487913D01*
X109333864Y-84348792D01*
X109333869Y-84348790D01*
X109654462Y-84177429D01*
X109654480Y-84177418D01*
X109956736Y-83975457D01*
X109956750Y-83975447D01*
X109990579Y-83947684D01*
X108471165Y-82428270D01*
X108588583Y-82368443D01*
X108792330Y-82220412D01*
X108970412Y-82042330D01*
X109118443Y-81838583D01*
X109178270Y-81721165D01*
X110697684Y-83240579D01*
X110725447Y-83206750D01*
X110725457Y-83206736D01*
X110927418Y-82904480D01*
X110927429Y-82904462D01*
X111098790Y-82583869D01*
X111098792Y-82583864D01*
X111237913Y-82247997D01*
X111343446Y-81900101D01*
X111343449Y-81900090D01*
X111414367Y-81543556D01*
X111450000Y-81181765D01*
X111450000Y-80818234D01*
X111414367Y-80456443D01*
X111343449Y-80099909D01*
X111343446Y-80099898D01*
X111237913Y-79752002D01*
X111098792Y-79416135D01*
X111098790Y-79416130D01*
X110927429Y-79095537D01*
X110927418Y-79095519D01*
X110725449Y-78793251D01*
X110697685Y-78759420D01*
X110697683Y-78759420D01*
X109178270Y-80278833D01*
X109118443Y-80161417D01*
X108970412Y-79957670D01*
X108792330Y-79779588D01*
X108588583Y-79631557D01*
X108471164Y-79571729D01*
X109990578Y-78052314D01*
X109990578Y-78052313D01*
X109956748Y-78024550D01*
X109654480Y-77822581D01*
X109654462Y-77822570D01*
X109333869Y-77651209D01*
X109333864Y-77651207D01*
X108997997Y-77512086D01*
X108650101Y-77406553D01*
X108650090Y-77406550D01*
X108293556Y-77335632D01*
X107931766Y-77300000D01*
X107568234Y-77300000D01*
X107206443Y-77335632D01*
X106849909Y-77406550D01*
X106849898Y-77406553D01*
X106502002Y-77512086D01*
X106166135Y-77651207D01*
X106166130Y-77651209D01*
X105845537Y-77822570D01*
X105845519Y-77822581D01*
X105543259Y-78024544D01*
X105543245Y-78024554D01*
X105509420Y-78052312D01*
X105509420Y-78052314D01*
X107028835Y-79571729D01*
X106911417Y-79631557D01*
X106707670Y-79779588D01*
X106529588Y-79957670D01*
X106381557Y-80161417D01*
X106321729Y-80278834D01*
X104802314Y-78759420D01*
X104802312Y-78759420D01*
X104774554Y-78793245D01*
X104774544Y-78793259D01*
X104572581Y-79095519D01*
X104572570Y-79095537D01*
X104401209Y-79416130D01*
X104401207Y-79416135D01*
X104262086Y-79752002D01*
X104156553Y-80099898D01*
X104156550Y-80099909D01*
X104085632Y-80456443D01*
X104050000Y-80818234D01*
X103258436Y-80818234D01*
X103258805Y-80809778D01*
X103258805Y-80809777D01*
X103266858Y-80625332D01*
X103267386Y-80613228D01*
X103268326Y-80602495D01*
X103318152Y-80224025D01*
X103320025Y-80213405D01*
X103402649Y-79840709D01*
X103405440Y-79830295D01*
X103520230Y-79466227D01*
X103523917Y-79456095D01*
X103670003Y-79103412D01*
X103674561Y-79093638D01*
X103850822Y-78755045D01*
X103856217Y-78745700D01*
X104061325Y-78423744D01*
X104067515Y-78414905D01*
X104299896Y-78112060D01*
X104306834Y-78103791D01*
X104564726Y-77822352D01*
X104572352Y-77814726D01*
X104853791Y-77556834D01*
X104862060Y-77549896D01*
X105164905Y-77317515D01*
X105173744Y-77311325D01*
X105495700Y-77106217D01*
X105505045Y-77100822D01*
X105843638Y-76924561D01*
X105853412Y-76920003D01*
X106206095Y-76773917D01*
X106216227Y-76770230D01*
X106580295Y-76655440D01*
X106590709Y-76652649D01*
X106963405Y-76570025D01*
X106974025Y-76568152D01*
X107352495Y-76518326D01*
X107363226Y-76517386D01*
X107747297Y-76500617D01*
X107752706Y-76500500D01*
X107815892Y-76500500D01*
X147684108Y-76500500D01*
X147747294Y-76500500D01*
X147752702Y-76500617D01*
G37*
%TD.AperFunction*%
%TD*%
M02*
