%TF.GenerationSoftware,KiCad,Pcbnew,9.0.2*%
%TF.CreationDate,2025-06-04T20:05:58+07:00*%
%TF.ProjectId,Torque Vectoring Board,546f7271-7565-4205-9665-63746f72696e,rev?*%
%TF.SameCoordinates,Original*%
%TF.FileFunction,Plated,1,2,PTH,Drill*%
%TF.FilePolarity,Positive*%
%FSLAX46Y46*%
G04 Gerber Fmt 4.6, Leading zero omitted, Abs format (unit mm)*
G04 Created by KiCad (PCBNEW 9.0.2) date 2025-06-04 20:05:58*
%MOMM*%
%LPD*%
G01*
G04 APERTURE LIST*
%TA.AperFunction,ViaDrill*%
%ADD10C,0.300000*%
%TD*%
%TA.AperFunction,ComponentDrill*%
%ADD11C,0.762000*%
%TD*%
%TA.AperFunction,ComponentDrill*%
%ADD12C,1.000000*%
%TD*%
%TA.AperFunction,ComponentDrill*%
%ADD13C,1.200000*%
%TD*%
%TA.AperFunction,ComponentDrill*%
%ADD14C,3.200000*%
%TD*%
G04 APERTURE END LIST*
D10*
X54500000Y-111500000D03*
X54500000Y-113000000D03*
X55000000Y-120500000D03*
X55000000Y-122000000D03*
X55000000Y-123500000D03*
X55500000Y-125000000D03*
X56000000Y-111500000D03*
X56000000Y-113000000D03*
X56000000Y-126500000D03*
X56500000Y-120500000D03*
X56500000Y-122000000D03*
X56500000Y-123500000D03*
X56880000Y-117364000D03*
X57000000Y-125000000D03*
X57500000Y-126500000D03*
X57896000Y-118888000D03*
X60000000Y-90500000D03*
X60000000Y-92000000D03*
X60500000Y-139000000D03*
X60500000Y-140000000D03*
X61000000Y-130000000D03*
X61000000Y-131000000D03*
X61500000Y-90500000D03*
X61500000Y-92000000D03*
X61500000Y-140000000D03*
X62500000Y-130000000D03*
X62500000Y-131000000D03*
X65500000Y-123500000D03*
X65500000Y-125000000D03*
X67000000Y-123500000D03*
X67000000Y-125000000D03*
X69326000Y-117872000D03*
X70596000Y-117872000D03*
X71866000Y-117872000D03*
X72000000Y-124000000D03*
X72000000Y-125500000D03*
X73136000Y-117872000D03*
X73500000Y-124000000D03*
X73500000Y-125500000D03*
X74000000Y-55500000D03*
X74152000Y-117872000D03*
X75000000Y-54500000D03*
X75000000Y-55500000D03*
X75500000Y-45500000D03*
X75500000Y-46500000D03*
X76500000Y-45500000D03*
X78947640Y-140149423D03*
X79947640Y-139149423D03*
X79947640Y-140149423D03*
X84000000Y-124000000D03*
X84000000Y-125000000D03*
X86868000Y-99060000D03*
X88870036Y-125696598D03*
X88900000Y-124460000D03*
X91186000Y-113284000D03*
X92511631Y-120500178D03*
X92511631Y-121500178D03*
X93202000Y-117872000D03*
X94000000Y-120500000D03*
X94000000Y-121500000D03*
X97000000Y-41500000D03*
X97012000Y-125492000D03*
X97028000Y-122428000D03*
X97167948Y-126404073D03*
X97846809Y-125828517D03*
X98000000Y-42500000D03*
X98000000Y-59000000D03*
X98000000Y-61000000D03*
X98500000Y-109000000D03*
X98516369Y-122427822D03*
X99060000Y-41910000D03*
X99060000Y-60750000D03*
X99568000Y-109728000D03*
X99806000Y-121428000D03*
X100500000Y-110500000D03*
X100584000Y-41910000D03*
X100584000Y-60750000D03*
X101000000Y-109500000D03*
X101076000Y-121174000D03*
X101500000Y-40000000D03*
X101750000Y-59000000D03*
X101750000Y-61000000D03*
X102362000Y-127508000D03*
X102500000Y-42000000D03*
X106500000Y-108000000D03*
X109204000Y-119142000D03*
X114500000Y-93000000D03*
X114500000Y-94000000D03*
X114500000Y-95000000D03*
X115000000Y-96500000D03*
X115500000Y-47500000D03*
X115500000Y-49000000D03*
X115500000Y-50500000D03*
X115500000Y-52000000D03*
X115500000Y-53500000D03*
X115500000Y-57000000D03*
X115500000Y-58500000D03*
X115500000Y-60000000D03*
X115500000Y-61500000D03*
X115500000Y-63000000D03*
X115500000Y-64500000D03*
X115500000Y-66000000D03*
X115500000Y-67500000D03*
X115500000Y-69000000D03*
X115500000Y-70500000D03*
X115500000Y-72000000D03*
X115500000Y-73500000D03*
X115500000Y-75000000D03*
X115500000Y-76500000D03*
X115500000Y-78000000D03*
X115500000Y-79500000D03*
X115500000Y-81000000D03*
X115500000Y-82500000D03*
X115500000Y-84000000D03*
X115500000Y-94000000D03*
X116000000Y-86000000D03*
X116000000Y-98000000D03*
X116000000Y-99500000D03*
X116000000Y-101000000D03*
X117000000Y-87000000D03*
X118000000Y-88000000D03*
X119000000Y-89000000D03*
X120000000Y-90000000D03*
X120500000Y-46000000D03*
X120500000Y-47500000D03*
X120500000Y-49000000D03*
X120500000Y-50500000D03*
X120500000Y-52000000D03*
X120500000Y-53500000D03*
X120500000Y-57000000D03*
X120500000Y-58500000D03*
X120500000Y-60000000D03*
X120500000Y-61500000D03*
X120500000Y-63000000D03*
X120500000Y-64500000D03*
X120500000Y-66000000D03*
X120500000Y-67500000D03*
X120500000Y-69000000D03*
X120500000Y-70500000D03*
X120500000Y-72000000D03*
X120500000Y-73500000D03*
X120500000Y-75000000D03*
X120500000Y-76500000D03*
X120500000Y-78000000D03*
X120500000Y-79500000D03*
X120500000Y-81000000D03*
X120500000Y-82500000D03*
X120500000Y-84000000D03*
X121000000Y-91000000D03*
X121500000Y-85500000D03*
X122000000Y-92000000D03*
X122500000Y-86500000D03*
X123500000Y-87500000D03*
X124500000Y-88500000D03*
X125000000Y-57000000D03*
X125000000Y-58500000D03*
X125000000Y-60000000D03*
X125000000Y-61500000D03*
X125000000Y-63000000D03*
X125000000Y-64500000D03*
X125000000Y-66000000D03*
X125000000Y-67500000D03*
X125000000Y-69000000D03*
X125000000Y-70500000D03*
X125000000Y-72000000D03*
X125000000Y-73500000D03*
X125000000Y-75000000D03*
X125000000Y-76500000D03*
X125000000Y-78000000D03*
X125000000Y-79500000D03*
X125000000Y-81000000D03*
X125000000Y-82500000D03*
X125500000Y-84000000D03*
X125500000Y-89500000D03*
D11*
%TO.C,U2*%
X111450000Y-118025000D03*
X111450000Y-120565000D03*
X111450000Y-123105000D03*
X111450000Y-125645000D03*
X111450000Y-128185000D03*
X129230000Y-118025000D03*
X129230000Y-120565000D03*
X129230000Y-123105000D03*
X129230000Y-125645000D03*
X129230000Y-128185000D03*
D12*
%TO.C,U1*%
X55372000Y-45720000D03*
X55372000Y-48260000D03*
X55372000Y-50800000D03*
X55372000Y-53340000D03*
X55372000Y-55880000D03*
X55372000Y-58420000D03*
X55372000Y-60960000D03*
X55372000Y-63500000D03*
X55372000Y-66040000D03*
X55372000Y-68580000D03*
X55372000Y-71120000D03*
X55372000Y-73660000D03*
X55372000Y-76200000D03*
X55372000Y-78740000D03*
X55372000Y-81280000D03*
X55372000Y-83820000D03*
X55372000Y-86360000D03*
X55372000Y-88900000D03*
X55372000Y-91440000D03*
X55372000Y-93980000D03*
X55372000Y-96520000D03*
X55372000Y-99060000D03*
X57912000Y-45720000D03*
X57912000Y-48260000D03*
X57912000Y-50800000D03*
X57912000Y-53340000D03*
X57912000Y-55880000D03*
X57912000Y-58420000D03*
X57912000Y-60960000D03*
X57912000Y-63500000D03*
X57912000Y-66040000D03*
X57912000Y-68580000D03*
X57912000Y-71120000D03*
X57912000Y-73660000D03*
X57912000Y-76200000D03*
X57912000Y-78740000D03*
X57912000Y-81280000D03*
X57912000Y-83820000D03*
X57912000Y-86360000D03*
X57912000Y-88900000D03*
X57912000Y-91440000D03*
X57912000Y-93980000D03*
X57912000Y-96520000D03*
X57912000Y-99060000D03*
X90932000Y-45720000D03*
X90932000Y-48260000D03*
X90932000Y-50800000D03*
X90932000Y-53340000D03*
X90932000Y-55880000D03*
X90932000Y-58420000D03*
X90932000Y-60960000D03*
X90932000Y-63500000D03*
X90932000Y-66040000D03*
X90932000Y-68580000D03*
X90932000Y-71120000D03*
X90932000Y-73660000D03*
X90932000Y-76200000D03*
X90932000Y-78740000D03*
X90932000Y-81280000D03*
X90932000Y-83820000D03*
X90932000Y-86360000D03*
X90932000Y-88900000D03*
X90932000Y-91440000D03*
X90932000Y-93980000D03*
X90932000Y-96520000D03*
X90932000Y-99060000D03*
%TO.C,ADDR_SELECT1*%
X92694000Y-111014000D03*
%TO.C,U1*%
X93472000Y-45720000D03*
X93472000Y-48260000D03*
X93472000Y-50800000D03*
X93472000Y-53340000D03*
X93472000Y-55880000D03*
X93472000Y-58420000D03*
X93472000Y-60960000D03*
X93472000Y-63500000D03*
X93472000Y-66040000D03*
X93472000Y-68580000D03*
X93472000Y-71120000D03*
X93472000Y-73660000D03*
X93472000Y-76200000D03*
X93472000Y-78740000D03*
X93472000Y-81280000D03*
X93472000Y-83820000D03*
X93472000Y-86360000D03*
X93472000Y-88900000D03*
X93472000Y-91440000D03*
X93472000Y-93980000D03*
X93472000Y-96520000D03*
X93472000Y-99060000D03*
%TO.C,ADDR_SELECT1*%
X95234000Y-111014000D03*
X97774000Y-111014000D03*
%TO.C,U6*%
X104551250Y-66134914D03*
X104551250Y-68674914D03*
X104551250Y-71214914D03*
X104551250Y-73754914D03*
X104551250Y-76294914D03*
X104551250Y-78834914D03*
X104551250Y-81374914D03*
X104551250Y-83914914D03*
X104551250Y-86454914D03*
X104551250Y-88994914D03*
X104551250Y-91534914D03*
X104551250Y-94074914D03*
X104551250Y-96614914D03*
X104551250Y-99154914D03*
X104551250Y-101694914D03*
X130556000Y-66040000D03*
X130556000Y-68580000D03*
X130556000Y-71120000D03*
X130556000Y-73660000D03*
X130556000Y-76200000D03*
X130556000Y-78740000D03*
X130556000Y-81280000D03*
X130556000Y-83820000D03*
X130556000Y-86360000D03*
X130556000Y-88900000D03*
X130556000Y-91440000D03*
X130556000Y-93980000D03*
X130556000Y-96520000D03*
X130556000Y-99060000D03*
X130556000Y-101600000D03*
D13*
%TO.C,12Vin1*%
X65332000Y-133048000D03*
X67832000Y-133048000D03*
%TO.C,J1*%
X73332000Y-130548000D03*
X73332000Y-133048000D03*
X75832000Y-130548000D03*
X75832000Y-133048000D03*
X78332000Y-130548000D03*
X78332000Y-133048000D03*
X80832000Y-130548000D03*
X80832000Y-133048000D03*
X83332000Y-130548000D03*
X83332000Y-133048000D03*
X85832000Y-130548000D03*
X85832000Y-133048000D03*
%TO.C,J2*%
X92332000Y-130548000D03*
X92332000Y-133048000D03*
X94832000Y-130548000D03*
X94832000Y-133048000D03*
X97332000Y-130548000D03*
X97332000Y-133048000D03*
X99832000Y-130548000D03*
X99832000Y-133048000D03*
X102332000Y-130548000D03*
X102332000Y-133048000D03*
X104832000Y-130548000D03*
X104832000Y-133048000D03*
%TO.C,J3*%
X113000000Y-43000000D03*
X115500000Y-43000000D03*
%TO.C,J4*%
X123000000Y-43000000D03*
X125500000Y-43000000D03*
%TO.C,5Vin1*%
X138275000Y-117368000D03*
X138275000Y-119868000D03*
D14*
%TO.C,H1*%
X49000000Y-38000000D03*
%TO.C,H3*%
X49000000Y-136000000D03*
%TO.C,H2*%
X138000000Y-38000000D03*
%TO.C,H4*%
X138000000Y-136000000D03*
M02*
