%TF.GenerationSoftware,KiCad,Pcbnew,9.0.2*%
%TF.CreationDate,2025-06-04T20:05:53+07:00*%
%TF.ProjectId,Torque Vectoring Board,546f7271-7565-4205-9665-63746f72696e,rev?*%
%TF.SameCoordinates,Original*%
%TF.FileFunction,Paste,Top*%
%TF.FilePolarity,Positive*%
%FSLAX46Y46*%
G04 Gerber Fmt 4.6, Leading zero omitted, Abs format (unit mm)*
G04 Created by KiCad (PCBNEW 9.0.2) date 2025-06-04 20:05:53*
%MOMM*%
%LPD*%
G01*
G04 APERTURE LIST*
G04 Aperture macros list*
%AMRoundRect*
0 Rectangle with rounded corners*
0 $1 Rounding radius*
0 $2 $3 $4 $5 $6 $7 $8 $9 X,Y pos of 4 corners*
0 Add a 4 corners polygon primitive as box body*
4,1,4,$2,$3,$4,$5,$6,$7,$8,$9,$2,$3,0*
0 Add four circle primitives for the rounded corners*
1,1,$1+$1,$2,$3*
1,1,$1+$1,$4,$5*
1,1,$1+$1,$6,$7*
1,1,$1+$1,$8,$9*
0 Add four rect primitives between the rounded corners*
20,1,$1+$1,$2,$3,$4,$5,0*
20,1,$1+$1,$4,$5,$6,$7,0*
20,1,$1+$1,$6,$7,$8,$9,0*
20,1,$1+$1,$8,$9,$2,$3,0*%
G04 Aperture macros list end*
%ADD10RoundRect,0.200000X0.275000X-0.200000X0.275000X0.200000X-0.275000X0.200000X-0.275000X-0.200000X0*%
%ADD11RoundRect,0.150000X-0.825000X-0.150000X0.825000X-0.150000X0.825000X0.150000X-0.825000X0.150000X0*%
%ADD12R,1.100000X0.250000*%
%ADD13RoundRect,0.200000X0.200000X0.275000X-0.200000X0.275000X-0.200000X-0.275000X0.200000X-0.275000X0*%
%ADD14RoundRect,0.200000X-0.200000X-0.275000X0.200000X-0.275000X0.200000X0.275000X-0.200000X0.275000X0*%
%ADD15RoundRect,0.225000X-0.250000X0.225000X-0.250000X-0.225000X0.250000X-0.225000X0.250000X0.225000X0*%
%ADD16RoundRect,0.200000X-0.275000X0.200000X-0.275000X-0.200000X0.275000X-0.200000X0.275000X0.200000X0*%
%ADD17RoundRect,0.225000X0.250000X-0.225000X0.250000X0.225000X-0.250000X0.225000X-0.250000X-0.225000X0*%
%ADD18RoundRect,0.150000X0.825000X0.150000X-0.825000X0.150000X-0.825000X-0.150000X0.825000X-0.150000X0*%
G04 APERTURE END LIST*
D10*
%TO.C,R11*%
X105902000Y-126420500D03*
X105902000Y-124770500D03*
%TD*%
%TO.C,R10*%
X103843166Y-126420500D03*
X103843166Y-124770500D03*
%TD*%
D11*
%TO.C,U4*%
X91704500Y-115482500D03*
X91704500Y-116752500D03*
X91704500Y-118022500D03*
X91704500Y-119292500D03*
X96654500Y-119292500D03*
X96654500Y-118022500D03*
X96654500Y-116752500D03*
X96654500Y-115482500D03*
%TD*%
D12*
%TO.C,U5*%
X95760000Y-124476000D03*
X95760000Y-124976000D03*
X95760000Y-125476000D03*
X95760000Y-125976000D03*
X95760000Y-126476000D03*
X100060000Y-126476000D03*
X100060000Y-125976000D03*
X100060000Y-125476000D03*
X100060000Y-124976000D03*
X100060000Y-124476000D03*
%TD*%
D13*
%TO.C,R5*%
X100631000Y-115482500D03*
X98981000Y-115482500D03*
%TD*%
D14*
%TO.C,R14*%
X90107000Y-126762000D03*
X91757000Y-126762000D03*
%TD*%
D15*
%TO.C,C2*%
X67132389Y-116579299D03*
X67132389Y-118129299D03*
%TD*%
D14*
%TO.C,R9*%
X80034500Y-124698000D03*
X81684500Y-124698000D03*
%TD*%
D13*
%TO.C,R12*%
X116228500Y-122952000D03*
X114578500Y-122952000D03*
%TD*%
D14*
%TO.C,R15*%
X90107000Y-124562000D03*
X91757000Y-124562000D03*
%TD*%
D16*
%TO.C,R3*%
X99298000Y-117705500D03*
X99298000Y-119355500D03*
%TD*%
D13*
%TO.C,R2*%
X60487889Y-123691299D03*
X58837889Y-123691299D03*
%TD*%
D17*
%TO.C,C1*%
X102092000Y-126534000D03*
X102092000Y-124984000D03*
%TD*%
D18*
%TO.C,U3*%
X64500000Y-119142000D03*
X64500000Y-117872000D03*
X64500000Y-116602000D03*
X64500000Y-115332000D03*
X59550000Y-115332000D03*
X59550000Y-116602000D03*
X59550000Y-117872000D03*
X59550000Y-119142000D03*
%TD*%
D14*
%TO.C,R8*%
X80034500Y-126898000D03*
X81684500Y-126898000D03*
%TD*%
%TO.C,R7*%
X84860500Y-124698000D03*
X86510500Y-124698000D03*
%TD*%
%TO.C,R6*%
X84860500Y-126898000D03*
X86510500Y-126898000D03*
%TD*%
D16*
%TO.C,R4*%
X57226389Y-114634799D03*
X57226389Y-116284799D03*
%TD*%
D17*
%TO.C,C3*%
X89646000Y-117872000D03*
X89646000Y-116322000D03*
%TD*%
D13*
%TO.C,R13*%
X116228500Y-120666000D03*
X114578500Y-120666000D03*
%TD*%
M02*
