%TF.GenerationSoftware,KiCad,Pcbnew,9.0.2*%
%TF.CreationDate,2025-06-04T00:32:51+07:00*%
%TF.ProjectId,Telemetry V.3 BM13 EVO Hy,54656c65-6d65-4747-9279-20562e332042,rev?*%
%TF.SameCoordinates,Original*%
%TF.FileFunction,Copper,L1,Top*%
%TF.FilePolarity,Positive*%
%FSLAX46Y46*%
G04 Gerber Fmt 4.6, Leading zero omitted, Abs format (unit mm)*
G04 Created by KiCad (PCBNEW 9.0.2) date 2025-06-04 00:32:51*
%MOMM*%
%LPD*%
G01*
G04 APERTURE LIST*
G04 Aperture macros list*
%AMRoundRect*
0 Rectangle with rounded corners*
0 $1 Rounding radius*
0 $2 $3 $4 $5 $6 $7 $8 $9 X,Y pos of 4 corners*
0 Add a 4 corners polygon primitive as box body*
4,1,4,$2,$3,$4,$5,$6,$7,$8,$9,$2,$3,0*
0 Add four circle primitives for the rounded corners*
1,1,$1+$1,$2,$3*
1,1,$1+$1,$4,$5*
1,1,$1+$1,$6,$7*
1,1,$1+$1,$8,$9*
0 Add four rect primitives between the rounded corners*
20,1,$1+$1,$2,$3,$4,$5,0*
20,1,$1+$1,$4,$5,$6,$7,0*
20,1,$1+$1,$6,$7,$8,$9,0*
20,1,$1+$1,$8,$9,$2,$3,0*%
G04 Aperture macros list end*
%TA.AperFunction,ComponentPad*%
%ADD10C,0.800000*%
%TD*%
%TA.AperFunction,ComponentPad*%
%ADD11C,6.400000*%
%TD*%
%TA.AperFunction,SMDPad,CuDef*%
%ADD12R,0.800000X0.500000*%
%TD*%
%TA.AperFunction,SMDPad,CuDef*%
%ADD13R,0.800000X0.400000*%
%TD*%
%TA.AperFunction,SMDPad,CuDef*%
%ADD14RoundRect,0.237500X0.300000X0.237500X-0.300000X0.237500X-0.300000X-0.237500X0.300000X-0.237500X0*%
%TD*%
%TA.AperFunction,SMDPad,CuDef*%
%ADD15RoundRect,0.237500X-0.237500X0.250000X-0.237500X-0.250000X0.237500X-0.250000X0.237500X0.250000X0*%
%TD*%
%TA.AperFunction,SMDPad,CuDef*%
%ADD16R,1.404099X0.354800*%
%TD*%
%TA.AperFunction,SMDPad,CuDef*%
%ADD17R,1.600000X0.700000*%
%TD*%
%TA.AperFunction,SMDPad,CuDef*%
%ADD18R,1.800000X1.200000*%
%TD*%
%TA.AperFunction,SMDPad,CuDef*%
%ADD19R,1.500000X1.600000*%
%TD*%
%TA.AperFunction,SMDPad,CuDef*%
%ADD20R,2.200000X1.200000*%
%TD*%
%TA.AperFunction,SMDPad,CuDef*%
%ADD21RoundRect,0.237500X0.237500X-0.287500X0.237500X0.287500X-0.237500X0.287500X-0.237500X-0.287500X0*%
%TD*%
%TA.AperFunction,SMDPad,CuDef*%
%ADD22RoundRect,0.237500X0.250000X0.237500X-0.250000X0.237500X-0.250000X-0.237500X0.250000X-0.237500X0*%
%TD*%
%TA.AperFunction,SMDPad,CuDef*%
%ADD23RoundRect,0.073750X0.951250X0.221250X-0.951250X0.221250X-0.951250X-0.221250X0.951250X-0.221250X0*%
%TD*%
%TA.AperFunction,SMDPad,CuDef*%
%ADD24RoundRect,0.237500X-0.250000X-0.237500X0.250000X-0.237500X0.250000X0.237500X-0.250000X0.237500X0*%
%TD*%
%TA.AperFunction,SMDPad,CuDef*%
%ADD25RoundRect,0.237500X0.237500X-0.250000X0.237500X0.250000X-0.237500X0.250000X-0.237500X-0.250000X0*%
%TD*%
%TA.AperFunction,ComponentPad*%
%ADD26R,2.000000X2.000000*%
%TD*%
%TA.AperFunction,ComponentPad*%
%ADD27C,2.000000*%
%TD*%
%TA.AperFunction,SMDPad,CuDef*%
%ADD28RoundRect,0.237500X-0.300000X-0.237500X0.300000X-0.237500X0.300000X0.237500X-0.300000X0.237500X0*%
%TD*%
%TA.AperFunction,ComponentPad*%
%ADD29O,2.000000X1.500000*%
%TD*%
%TA.AperFunction,ComponentPad*%
%ADD30R,2.000000X1.500000*%
%TD*%
%TA.AperFunction,ComponentPad*%
%ADD31R,1.700000X1.700000*%
%TD*%
%TA.AperFunction,ComponentPad*%
%ADD32O,1.700000X1.700000*%
%TD*%
%TA.AperFunction,ComponentPad*%
%ADD33C,1.700000*%
%TD*%
%TA.AperFunction,ViaPad*%
%ADD34C,0.600000*%
%TD*%
%TA.AperFunction,ViaPad*%
%ADD35C,0.500000*%
%TD*%
%TA.AperFunction,Conductor*%
%ADD36C,0.400000*%
%TD*%
%TA.AperFunction,Conductor*%
%ADD37C,0.500000*%
%TD*%
G04 APERTURE END LIST*
D10*
%TO.P,REF\u002A\u002A,1*%
%TO.N,N/C*%
X54600000Y-52000000D03*
X55302944Y-50302944D03*
X55302944Y-53697056D03*
X57000000Y-49600000D03*
D11*
X57000000Y-52000000D03*
D10*
X57000000Y-54400000D03*
X58697056Y-50302944D03*
X58697056Y-53697056D03*
X59400000Y-52000000D03*
%TD*%
D12*
%TO.P,RN1,1,R1.1*%
%TO.N,+3.3V*%
X97850000Y-73800000D03*
D13*
%TO.P,RN1,2,R1.2*%
X97850000Y-74600000D03*
%TO.P,RN1,3,R2.1*%
X97850000Y-75400000D03*
D12*
%TO.P,RN1,4,R2.2*%
X97850000Y-76200000D03*
%TO.P,RN1,5,R3.1*%
%TO.N,/32KHz*%
X99650000Y-76200000D03*
D13*
%TO.P,RN1,6,R3.2*%
%TO.N,/SQW*%
X99650000Y-75400000D03*
%TO.P,RN1,7,R4.1*%
%TO.N,/SCL*%
X99650000Y-74600000D03*
D12*
%TO.P,RN1,8,R4.2*%
%TO.N,/SDA*%
X99650000Y-73800000D03*
%TD*%
D14*
%TO.P,C1,1*%
%TO.N,GND*%
X111612500Y-80500000D03*
%TO.P,C1,2*%
%TO.N,+3.3V*%
X109887500Y-80500000D03*
%TD*%
D15*
%TO.P,R6,1*%
%TO.N,/LED1*%
X101000000Y-54875000D03*
%TO.P,R6,2*%
%TO.N,Net-(D2-A)*%
X101000000Y-56700000D03*
%TD*%
D10*
%TO.P,REF\u002A\u002A,1*%
%TO.N,N/C*%
X124100000Y-108000000D03*
X124802944Y-106302944D03*
X124802944Y-109697056D03*
X126500000Y-105600000D03*
D11*
X126500000Y-108000000D03*
D10*
X126500000Y-110400000D03*
X128197056Y-106302944D03*
X128197056Y-109697056D03*
X128900000Y-108000000D03*
%TD*%
D16*
%TO.P,U2,1,\u002A1OE*%
%TO.N,GND*%
X100850104Y-80299999D03*
%TO.P,U2,2,1A*%
%TO.N,Net-(U2-1A)*%
X100850104Y-80950000D03*
%TO.P,U2,3,1Y*%
%TO.N,/DI_LLS*%
X100850104Y-81600001D03*
%TO.P,U2,4,\u002A2OE*%
%TO.N,GND*%
X100850104Y-82250000D03*
%TO.P,U2,5,2A*%
%TO.N,Net-(U2-2A)*%
X100850104Y-82899999D03*
%TO.P,U2,6,2Y*%
%TO.N,/SCK_LLS*%
X100850104Y-83550000D03*
%TO.P,U2,7,GND*%
%TO.N,GND*%
X100850104Y-84199999D03*
%TO.P,U2,8,3Y*%
%TO.N,/CS_LLS*%
X106750000Y-84200001D03*
%TO.P,U2,9,3A*%
%TO.N,Net-(U2-3A)*%
X106750000Y-83550000D03*
%TO.P,U2,10,\u002A3OE*%
%TO.N,GND*%
X106750000Y-82900001D03*
%TO.P,U2,11,4Y*%
%TO.N,/MISO*%
X106750000Y-82250000D03*
%TO.P,U2,12,4A*%
%TO.N,Net-(U2-4A)*%
X106750000Y-81600001D03*
%TO.P,U2,13,\u002A4OE*%
%TO.N,GND*%
X106750000Y-80950000D03*
%TO.P,U2,14,VCC*%
%TO.N,+3.3V*%
X106750000Y-80300001D03*
%TD*%
D17*
%TO.P,J1,1,DAT2*%
%TO.N,unconnected-(J1-DAT2-Pad1)*%
X118000000Y-75750000D03*
%TO.P,J1,2,CD/DAT3*%
%TO.N,/CS_LLS*%
X118000000Y-76850000D03*
%TO.P,J1,3,CMD*%
%TO.N,/DI_LLS*%
X118000000Y-77950000D03*
%TO.P,J1,4,VDD*%
%TO.N,+3.3V*%
X118000000Y-79050000D03*
%TO.P,J1,5,CLK*%
%TO.N,/SCK_LLS*%
X118000000Y-80150000D03*
%TO.P,J1,6,VSS*%
%TO.N,GND*%
X118000000Y-81250000D03*
%TO.P,J1,7,DAT0*%
%TO.N,/DO_LLS*%
X118000000Y-82350000D03*
%TO.P,J1,8,DAT1*%
%TO.N,unconnected-(J1-DAT1-Pad8)*%
X118000000Y-83450000D03*
%TO.P,J1,CD,CD*%
%TO.N,unconnected-(J1-PadCD)*%
X118000000Y-84550000D03*
D18*
%TO.P,J1,G1,COVER_GND*%
%TO.N,GND*%
X119300000Y-85750000D03*
D19*
%TO.P,J1,G2,COVER_GND*%
X119050000Y-71150000D03*
D20*
%TO.P,J1,G3,COVER_GND*%
X128600000Y-85750000D03*
%TO.P,J1,G4,COVER_GND*%
X128600000Y-70250000D03*
%TD*%
D10*
%TO.P,REF\u002A\u002A,1*%
%TO.N,N/C*%
X124100000Y-52000000D03*
X124802944Y-50302944D03*
X124802944Y-53697056D03*
X126500000Y-49600000D03*
D11*
X126500000Y-52000000D03*
D10*
X126500000Y-54400000D03*
X128197056Y-50302944D03*
X128197056Y-53697056D03*
X128900000Y-52000000D03*
%TD*%
D21*
%TO.P,D3,1,K*%
%TO.N,GND*%
X104000000Y-60200000D03*
%TO.P,D3,2,A*%
%TO.N,Net-(D3-A)*%
X104000000Y-58450000D03*
%TD*%
D22*
%TO.P,R4,1*%
%TO.N,Net-(U2-3A)*%
X97912500Y-84000000D03*
%TO.P,R4,2*%
%TO.N,/CS*%
X96087500Y-84000000D03*
%TD*%
D23*
%TO.P,U3,1,32KHZ*%
%TO.N,/32KHz*%
X111655000Y-73445000D03*
%TO.P,U3,2,VCC*%
%TO.N,+3.3V*%
X111655000Y-72175000D03*
%TO.P,U3,3,~{INT}/SQW*%
%TO.N,/SQW*%
X111655000Y-70905000D03*
%TO.P,U3,4,~{RST}*%
%TO.N,unconnected-(U3-~{RST}-Pad4)*%
X111655000Y-69635000D03*
%TO.P,U3,5,NC*%
%TO.N,GND*%
X111655000Y-68365000D03*
%TO.P,U3,6,NC*%
X111655000Y-67095000D03*
%TO.P,U3,7,NC*%
X111655000Y-65825000D03*
%TO.P,U3,8,NC*%
X111655000Y-64555000D03*
%TO.P,U3,9,NC*%
X102345000Y-64555000D03*
%TO.P,U3,10,NC*%
X102345000Y-65825000D03*
%TO.P,U3,11,NC*%
X102345000Y-67095000D03*
%TO.P,U3,12,NC*%
X102345000Y-68365000D03*
%TO.P,U3,13,GND*%
X102345000Y-69635000D03*
%TO.P,U3,14,VBAT*%
%TO.N,Net-(BT1-+)*%
X102345000Y-70905000D03*
%TO.P,U3,15,SDA*%
%TO.N,/SDA*%
X102345000Y-72175000D03*
%TO.P,U3,16,SCL*%
%TO.N,/SCL*%
X102345000Y-73445000D03*
%TD*%
D14*
%TO.P,C3,1*%
%TO.N,GND*%
X115862500Y-72250000D03*
%TO.P,C3,2*%
%TO.N,+3.3V*%
X114137500Y-72250000D03*
%TD*%
D24*
%TO.P,R1,1*%
%TO.N,/SCK*%
X96087500Y-82500000D03*
%TO.P,R1,2*%
%TO.N,Net-(U2-2A)*%
X97912500Y-82500000D03*
%TD*%
%TO.P,R2,1*%
%TO.N,/MOSI*%
X96087500Y-81000000D03*
%TO.P,R2,2*%
%TO.N,Net-(U2-1A)*%
X97912500Y-81000000D03*
%TD*%
%TO.P,R3,1*%
%TO.N,Net-(U2-4A)*%
X109837500Y-82000000D03*
%TO.P,R3,2*%
%TO.N,/DO_LLS*%
X111662500Y-82000000D03*
%TD*%
D25*
%TO.P,R7,1*%
%TO.N,Net-(D3-A)*%
X104000000Y-56775000D03*
%TO.P,R7,2*%
%TO.N,+5V*%
X104000000Y-54950000D03*
%TD*%
D26*
%TO.P,U1,1,3V3*%
%TO.N,+3.3V*%
X88200000Y-95265000D03*
D27*
%TO.P,U1,2,GND*%
%TO.N,GND*%
X88200000Y-92725000D03*
%TO.P,U1,3,D15*%
%TO.N,/CS2*%
X88200000Y-90185000D03*
%TO.P,U1,4,D2*%
%TO.N,/LED1*%
X88200000Y-87645000D03*
%TO.P,U1,5,D4*%
%TO.N,/LED2*%
X88200000Y-85105000D03*
%TO.P,U1,6,RX2*%
%TO.N,/TX*%
X88200000Y-82565000D03*
%TO.P,U1,7,TX2*%
%TO.N,/RX*%
X88200000Y-80025000D03*
%TO.P,U1,8,D5*%
%TO.N,/CS*%
X88200000Y-77485000D03*
%TO.P,U1,9,D18*%
%TO.N,/SCK*%
X88200000Y-74945000D03*
%TO.P,U1,10,D19*%
%TO.N,/MISO*%
X88200000Y-72405000D03*
%TO.P,U1,11,D21*%
%TO.N,/SDA*%
X88200000Y-69865000D03*
%TO.P,U1,12,RX0*%
%TO.N,unconnected-(U1-RX0-Pad12)*%
X88200000Y-67325000D03*
%TO.P,U1,13,TX0*%
%TO.N,unconnected-(U1-TX0-Pad13)*%
X88200000Y-64785000D03*
%TO.P,U1,14,D22*%
%TO.N,/SCL*%
X88200000Y-62245000D03*
%TO.P,U1,15,D23*%
%TO.N,/MOSI*%
X88200000Y-59705000D03*
%TO.P,U1,16,EN*%
%TO.N,unconnected-(U1-EN-Pad16)*%
X62800000Y-59705000D03*
%TO.P,U1,17,VP*%
%TO.N,unconnected-(U1-VP-Pad17)*%
X62800000Y-62245000D03*
%TO.P,U1,18,VN*%
%TO.N,unconnected-(U1-VN-Pad18)*%
X62800000Y-64785000D03*
%TO.P,U1,19,D34*%
%TO.N,unconnected-(U1-D34-Pad19)*%
X62800000Y-67325000D03*
%TO.P,U1,20,D35*%
%TO.N,unconnected-(U1-D35-Pad20)*%
X62800000Y-69865000D03*
%TO.P,U1,21,D32*%
%TO.N,unconnected-(U1-D32-Pad21)*%
X62800000Y-72405000D03*
%TO.P,U1,22,D33*%
%TO.N,unconnected-(U1-D33-Pad22)*%
X62800000Y-74945000D03*
%TO.P,U1,23,D25*%
%TO.N,unconnected-(U1-D25-Pad23)*%
X62800000Y-77485000D03*
%TO.P,U1,24,D26*%
%TO.N,unconnected-(U1-D26-Pad24)*%
X62800000Y-80025000D03*
%TO.P,U1,25,D27*%
%TO.N,unconnected-(U1-D27-Pad25)*%
X62800000Y-82565000D03*
%TO.P,U1,26,D14*%
%TO.N,/SCK2*%
X62800000Y-85105000D03*
%TO.P,U1,27,D12*%
%TO.N,/MISO2*%
X62800000Y-87645000D03*
%TO.P,U1,28,D13*%
%TO.N,/MOSI2*%
X62800000Y-90185000D03*
%TO.P,U1,29,GND*%
%TO.N,GND*%
X62800000Y-92725000D03*
%TO.P,U1,30,VIN*%
%TO.N,+5V*%
X62800000Y-95265000D03*
%TD*%
D15*
%TO.P,R5,1*%
%TO.N,/LED2*%
X98000000Y-54875000D03*
%TO.P,R5,2*%
%TO.N,Net-(D1-A)*%
X98000000Y-56700000D03*
%TD*%
D28*
%TO.P,C2,1*%
%TO.N,GND*%
X113637500Y-75500000D03*
%TO.P,C2,2*%
%TO.N,+3.3V*%
X115362500Y-75500000D03*
%TD*%
D10*
%TO.P,REF\u002A\u002A,1*%
%TO.N,N/C*%
X54600000Y-108000000D03*
X55302944Y-106302944D03*
X55302944Y-109697056D03*
X57000000Y-105600000D03*
D11*
X57000000Y-108000000D03*
D10*
X57000000Y-110400000D03*
X58697056Y-106302944D03*
X58697056Y-109697056D03*
X59400000Y-108000000D03*
%TD*%
D29*
%TO.P,LoraE220-900T22D1,1,M0*%
%TO.N,GND*%
X100000000Y-90750000D03*
%TO.P,LoraE220-900T22D1,2,M1*%
X100000000Y-93290000D03*
%TO.P,LoraE220-900T22D1,3,RX*%
%TO.N,/RX*%
X100000000Y-95830000D03*
%TO.P,LoraE220-900T22D1,4,TX*%
%TO.N,/TX*%
X100000000Y-98370000D03*
%TO.P,LoraE220-900T22D1,5,AUX*%
%TO.N,unconnected-(LoraE220-900T22D1-AUX-Pad5)*%
X100000000Y-100910000D03*
%TO.P,LoraE220-900T22D1,6,VCC*%
%TO.N,+5V*%
X100000000Y-103450000D03*
%TO.P,LoraE220-900T22D1,7,GND*%
%TO.N,GND*%
X100000000Y-105990000D03*
%TO.P,LoraE220-900T22D1,8*%
%TO.N,N/C*%
X131500000Y-96750000D03*
%TO.P,LoraE220-900T22D1,9*%
X131500000Y-94210000D03*
D30*
%TO.P,LoraE220-900T22D1,10*%
X131500000Y-91670000D03*
%TD*%
D21*
%TO.P,D2,1,K*%
%TO.N,GND*%
X101000000Y-60200000D03*
%TO.P,D2,2,A*%
%TO.N,Net-(D2-A)*%
X101000000Y-58450000D03*
%TD*%
D31*
%TO.P,J2,1,Pin_1*%
%TO.N,/32KHz*%
X129750000Y-66775000D03*
D32*
%TO.P,J2,2,Pin_2*%
%TO.N,/SQW*%
X129750000Y-64235000D03*
%TD*%
D14*
%TO.P,C4,1*%
%TO.N,Net-(BT1-+)*%
X99612500Y-71000000D03*
%TO.P,C4,2*%
%TO.N,GND*%
X97887500Y-71000000D03*
%TD*%
D21*
%TO.P,D1,1,K*%
%TO.N,GND*%
X98000000Y-60200000D03*
%TO.P,D1,2,A*%
%TO.N,Net-(D1-A)*%
X98000000Y-58450000D03*
%TD*%
D31*
%TO.P,J4,1,Pin_1*%
%TO.N,+5V*%
X57000000Y-100000000D03*
D33*
%TO.P,J4,2,Pin_2*%
%TO.N,GND*%
X57000000Y-97460000D03*
%TO.P,J4,3,Pin_3*%
X57000000Y-94920000D03*
%TO.P,J4,4,Pin_4*%
X57000000Y-92380000D03*
%TO.P,J4,5,Pin_5*%
%TO.N,/CS2*%
X57000000Y-89840000D03*
%TO.P,J4,6,Pin_6*%
%TO.N,/MOSI2*%
X57000000Y-87300000D03*
%TO.P,J4,7,Pin_7*%
%TO.N,/MISO2*%
X57000000Y-84760000D03*
%TO.P,J4,8,Pin_8*%
%TO.N,/SCK2*%
X57000000Y-82220000D03*
%TO.P,J4,9,Pin_9*%
%TO.N,GND*%
X57000000Y-79680000D03*
%TO.P,J4,10,Pin_10*%
X57000000Y-77140000D03*
%TO.P,J4,11,Pin_11*%
X57000000Y-74600000D03*
%TO.P,J4,12,Pin_12*%
X57000000Y-72060000D03*
%TO.P,J4,13,Pin_13*%
X57000000Y-69520000D03*
%TO.P,J4,14,Pin_14*%
X57000000Y-66980000D03*
%TO.P,J4,15,Pin_15*%
%TO.N,/SDA*%
X57000000Y-64440000D03*
%TO.P,J4,16,Pin_16*%
%TO.N,/SCL*%
X57000000Y-61900000D03*
%TD*%
D26*
%TO.P,BT1,1,+*%
%TO.N,Net-(BT1-+)*%
X99210914Y-68000000D03*
D27*
%TO.P,BT1,2,-*%
%TO.N,GND*%
X120010914Y-68000000D03*
%TD*%
D34*
%TO.N,GND*%
X115800000Y-53000000D03*
X113400000Y-55400000D03*
X116600000Y-55400000D03*
D35*
X115250000Y-81250000D03*
X113750000Y-81250000D03*
X105500000Y-81750000D03*
X114500000Y-80500000D03*
D34*
X113400000Y-54600000D03*
D35*
X105500000Y-82500000D03*
D34*
X118200000Y-54600000D03*
D35*
X113000000Y-81250000D03*
D34*
X112600000Y-55400000D03*
X101000000Y-61545000D03*
X112600000Y-53800000D03*
D35*
X116000000Y-81250000D03*
X113750000Y-80500000D03*
D34*
X112500000Y-76000000D03*
D35*
X115250000Y-80500000D03*
X105500000Y-81000000D03*
D34*
X114200000Y-53000000D03*
X118200000Y-53000000D03*
D35*
X96000000Y-74000000D03*
X92750000Y-74750000D03*
D34*
X99000000Y-82000000D03*
X116600000Y-53800000D03*
D35*
X96000000Y-73250000D03*
D34*
X117400000Y-55400000D03*
D35*
X92000000Y-74000000D03*
D34*
X114200000Y-54600000D03*
X112600000Y-53000000D03*
X112600000Y-54600000D03*
X117400000Y-54600000D03*
X114200000Y-53800000D03*
X114200000Y-55400000D03*
D35*
X91250000Y-73250000D03*
X95250000Y-74750000D03*
D34*
X115000000Y-53000000D03*
D35*
X92750000Y-73250000D03*
D34*
X117400000Y-53800000D03*
X104000000Y-61500000D03*
X113400000Y-53000000D03*
X98000000Y-61500000D03*
X115000000Y-54600000D03*
D35*
X95250000Y-73250000D03*
D34*
X117400000Y-53000000D03*
X115800000Y-53800000D03*
D35*
X92000000Y-73250000D03*
D34*
X113400000Y-53800000D03*
X118200000Y-53800000D03*
X116600000Y-54600000D03*
D35*
X119250000Y-79750000D03*
D34*
X115800000Y-54600000D03*
D35*
X92750000Y-74000000D03*
D34*
X115800000Y-55400000D03*
X116600000Y-53000000D03*
D35*
X113000000Y-80500000D03*
D34*
X115000000Y-55400000D03*
X99000000Y-80000000D03*
D35*
X114500000Y-81250000D03*
D34*
X118200000Y-55400000D03*
D35*
X95250000Y-74000000D03*
D34*
X115000000Y-53800000D03*
%TO.N,+3.3V*%
X97000000Y-75000000D03*
X114000000Y-71000000D03*
X113500000Y-79500000D03*
X110500000Y-75500000D03*
%TO.N,/CS_LLS*%
X104000000Y-78250000D03*
X108500000Y-84500000D03*
%TO.N,+5V*%
X104000000Y-53000000D03*
%TO.N,/MOSI*%
X94000000Y-79000000D03*
%TO.N,/MISO*%
X109000000Y-83000000D03*
X98000000Y-79000000D03*
%TD*%
D36*
%TO.N,GND*%
X113000000Y-75500000D02*
X112500000Y-76000000D01*
X103050001Y-84199999D02*
X104349999Y-82900001D01*
D37*
X111612500Y-80500000D02*
X112150000Y-80500000D01*
D36*
X105500000Y-81097951D02*
X105500000Y-81750000D01*
X106750000Y-80950000D02*
X105647951Y-80950000D01*
X105647951Y-80950000D02*
X105500000Y-81097951D01*
X100850104Y-84199999D02*
X103050001Y-84199999D01*
X57375000Y-79680000D02*
X57000000Y-79680000D01*
X113637500Y-75500000D02*
X113000000Y-75500000D01*
X99299999Y-80299999D02*
X99000000Y-80000000D01*
X100850104Y-80299999D02*
X99299999Y-80299999D01*
X104349999Y-82900001D02*
X106750000Y-82900001D01*
D37*
X98000000Y-60200000D02*
X101000000Y-60200000D01*
D36*
X104349999Y-82900001D02*
X105500000Y-81750000D01*
D37*
X98000000Y-60200000D02*
X98000000Y-61500000D01*
D36*
X100850104Y-82250000D02*
X99250000Y-82250000D01*
X99250000Y-82250000D02*
X99000000Y-82000000D01*
D37*
X101000000Y-60200000D02*
X104000000Y-60200000D01*
X101000000Y-60200000D02*
X101000000Y-61545000D01*
X104000000Y-60200000D02*
X104000000Y-61500000D01*
%TO.N,Net-(BT1-+)*%
X99862500Y-68651586D02*
X99210914Y-68000000D01*
X102345000Y-70905000D02*
X99707500Y-70905000D01*
X99612500Y-71000000D02*
X99612500Y-68401586D01*
X99707500Y-70905000D02*
X99612500Y-71000000D01*
X99612500Y-68401586D02*
X99210914Y-68000000D01*
%TO.N,+3.3V*%
X97850000Y-75000000D02*
X97850000Y-75400000D01*
X112426000Y-74574000D02*
X112000000Y-75000000D01*
D36*
X114137500Y-72250000D02*
X114137500Y-71137500D01*
D37*
X97850000Y-74600000D02*
X97850000Y-75000000D01*
D36*
X110887500Y-79500000D02*
X113500000Y-79500000D01*
D37*
X120000000Y-75500000D02*
X119250000Y-74750000D01*
X119300000Y-79050000D02*
X120000000Y-78350000D01*
X112000000Y-75000000D02*
X111500000Y-75500000D01*
X119250000Y-74750000D02*
X116112500Y-74750000D01*
D36*
X114062500Y-72175000D02*
X114137500Y-72250000D01*
D37*
X120000000Y-78350000D02*
X120000000Y-75500000D01*
D36*
X111655000Y-72175000D02*
X114062500Y-72175000D01*
X114137500Y-71137500D02*
X114000000Y-71000000D01*
D37*
X97850000Y-75000000D02*
X97000000Y-75000000D01*
X116112500Y-74750000D02*
X115362500Y-75500000D01*
X118000000Y-79050000D02*
X119300000Y-79050000D01*
X115362500Y-75500000D02*
X114436500Y-74574000D01*
X114436500Y-74574000D02*
X112426000Y-74574000D01*
X97850000Y-75400000D02*
X97850000Y-76200000D01*
D36*
X109687501Y-80300001D02*
X109887500Y-80500000D01*
D37*
X111500000Y-75500000D02*
X110500000Y-75500000D01*
D36*
X109887500Y-80500000D02*
X110887500Y-79500000D01*
D37*
X97850000Y-73800000D02*
X97850000Y-74600000D01*
D36*
X106750000Y-80300001D02*
X109687501Y-80300001D01*
D37*
%TO.N,Net-(D1-A)*%
X98000000Y-58450000D02*
X98000000Y-56700000D01*
%TO.N,Net-(D2-A)*%
X101000000Y-58450000D02*
X101000000Y-56700000D01*
%TO.N,Net-(D3-A)*%
X104000000Y-58450000D02*
X104000000Y-56775000D01*
D36*
%TO.N,/SCK_LLS*%
X100850104Y-83550000D02*
X101700000Y-83550000D01*
X101700000Y-83550000D02*
X106500000Y-78750000D01*
X115250000Y-78750000D02*
X116650000Y-80150000D01*
X116650000Y-80150000D02*
X118000000Y-80150000D01*
X106500000Y-78750000D02*
X115250000Y-78750000D01*
D37*
%TO.N,/DO_LLS*%
X112012500Y-82350000D02*
X118000000Y-82350000D01*
X111662500Y-82000000D02*
X112012500Y-82350000D01*
%TO.N,/CS_LLS*%
X118000000Y-76850000D02*
X105400000Y-76850000D01*
X106750000Y-84200001D02*
X108200001Y-84200001D01*
X105400000Y-76850000D02*
X104000000Y-78250000D01*
X108200001Y-84200001D02*
X108500000Y-84500000D01*
D36*
%TO.N,/DI_LLS*%
X105000000Y-78552154D02*
X105000000Y-78500000D01*
X105000000Y-78500000D02*
X105550000Y-77950000D01*
X105550000Y-77950000D02*
X118000000Y-77950000D01*
X100850104Y-81600001D02*
X101952153Y-81600001D01*
X101952153Y-81600001D02*
X105000000Y-78552154D01*
D37*
%TO.N,/32KHz*%
X112437500Y-73425000D02*
X112500000Y-73362500D01*
D36*
X129750000Y-66775000D02*
X125975000Y-66775000D01*
X99650000Y-76200000D02*
X104300000Y-76200000D01*
X125975000Y-66775000D02*
X119305000Y-73445000D01*
X107055000Y-73445000D02*
X111655000Y-73445000D01*
X104300000Y-76200000D02*
X107055000Y-73445000D01*
X119305000Y-73445000D02*
X111655000Y-73445000D01*
%TO.N,/SQW*%
X119265000Y-64235000D02*
X112595000Y-70905000D01*
X112595000Y-70905000D02*
X111655000Y-70905000D01*
X103600000Y-75400000D02*
X108095000Y-70905000D01*
X129750000Y-64235000D02*
X119265000Y-64235000D01*
X108095000Y-70905000D02*
X111655000Y-70905000D01*
X99650000Y-75400000D02*
X103600000Y-75400000D01*
D37*
%TO.N,/TX*%
X94870000Y-98370000D02*
X100000000Y-98370000D01*
X90565000Y-82565000D02*
X92500000Y-84500000D01*
X92500000Y-84500000D02*
X92500000Y-96000000D01*
X88200000Y-82565000D02*
X90565000Y-82565000D01*
X92500000Y-96000000D02*
X94870000Y-98370000D01*
D36*
%TO.N,+5V*%
X104000000Y-54950000D02*
X104000000Y-53000000D01*
%TO.N,Net-(U2-2A)*%
X100850104Y-82899999D02*
X98312499Y-82899999D01*
X98312499Y-82899999D02*
X97912500Y-82500000D01*
D37*
%TO.N,/SCK*%
X92750000Y-80125000D02*
X92750000Y-77750000D01*
X96087500Y-82500000D02*
X95125000Y-82500000D01*
X92750000Y-77750000D02*
X89750000Y-74750000D01*
X88395000Y-74750000D02*
X88200000Y-74945000D01*
X89750000Y-74750000D02*
X88395000Y-74750000D01*
X95125000Y-82500000D02*
X92750000Y-80125000D01*
%TO.N,/MOSI*%
X95000000Y-81000000D02*
X94000000Y-80000000D01*
X96087500Y-81000000D02*
X95000000Y-81000000D01*
X94000000Y-80000000D02*
X94000000Y-79000000D01*
D36*
%TO.N,Net-(U2-1A)*%
X100850104Y-80950000D02*
X97962500Y-80950000D01*
X97962500Y-80950000D02*
X97912500Y-81000000D01*
%TO.N,Net-(U2-4A)*%
X106750000Y-81600001D02*
X108850001Y-81600001D01*
X109250000Y-82000000D02*
X109837500Y-82000000D01*
X108850001Y-81600001D02*
X109250000Y-82000000D01*
D37*
%TO.N,/CS*%
X96087500Y-84000000D02*
X95250000Y-84000000D01*
X88435000Y-77250000D02*
X88200000Y-77485000D01*
X90750000Y-77250000D02*
X88435000Y-77250000D01*
X95250000Y-84000000D02*
X91750000Y-80500000D01*
X91750000Y-80500000D02*
X91750000Y-78250000D01*
X91750000Y-78250000D02*
X90750000Y-77250000D01*
D36*
%TO.N,Net-(U2-3A)*%
X99500000Y-85000000D02*
X104250000Y-85000000D01*
X104250000Y-85000000D02*
X105700000Y-83550000D01*
X105700000Y-83550000D02*
X106750000Y-83550000D01*
X97912500Y-84000000D02*
X98500000Y-84000000D01*
X98500000Y-84000000D02*
X99500000Y-85000000D01*
D37*
%TO.N,/SDA*%
X99000000Y-72175000D02*
X99500000Y-72175000D01*
X90510000Y-72175000D02*
X99000000Y-72175000D01*
X99975000Y-72175000D02*
X99650000Y-72500000D01*
X99650000Y-73800000D02*
X99650000Y-72500000D01*
X100000000Y-72175000D02*
X102345000Y-72175000D01*
X99000000Y-72175000D02*
X99325000Y-72175000D01*
X99650000Y-72325000D02*
X99500000Y-72175000D01*
D36*
X101575000Y-72175000D02*
X102345000Y-72175000D01*
D37*
X99500000Y-72175000D02*
X100000000Y-72175000D01*
X99650000Y-72500000D02*
X99650000Y-72325000D01*
X99325000Y-72175000D02*
X99650000Y-72500000D01*
D36*
X102345000Y-72175000D02*
X103370000Y-72175000D01*
D37*
X88200000Y-69865000D02*
X90510000Y-72175000D01*
X100000000Y-72175000D02*
X99975000Y-72175000D01*
D36*
%TO.N,/SCL*%
X106000000Y-64600000D02*
X104200000Y-62800000D01*
X106000000Y-71500000D02*
X106000000Y-64600000D01*
X88755000Y-62800000D02*
X88200000Y-62245000D01*
X102345000Y-73445000D02*
X104055000Y-73445000D01*
X99650000Y-74600000D02*
X100150000Y-74600000D01*
X104055000Y-73445000D02*
X106000000Y-71500000D01*
X101305000Y-73445000D02*
X102345000Y-73445000D01*
X104200000Y-62800000D02*
X88755000Y-62800000D01*
D37*
X103370000Y-73445000D02*
X102345000Y-73445000D01*
D36*
X100150000Y-74600000D02*
X101305000Y-73445000D01*
D37*
%TO.N,/MISO*%
X92500000Y-76000000D02*
X94000000Y-77500000D01*
X108250000Y-82250000D02*
X109000000Y-83000000D01*
X88200000Y-72405000D02*
X88905000Y-72405000D01*
X94000000Y-77500000D02*
X95500000Y-79000000D01*
X95500000Y-79000000D02*
X98000000Y-79000000D01*
X106750000Y-82250000D02*
X108250000Y-82250000D01*
X88905000Y-72405000D02*
X92500000Y-76000000D01*
%TO.N,/MOSI2*%
X62800000Y-90185000D02*
X59915000Y-87300000D01*
X59915000Y-87300000D02*
X57000000Y-87300000D01*
%TO.N,/CS2*%
X60000000Y-96400000D02*
X61400000Y-97800000D01*
X66200000Y-95800000D02*
X66200000Y-92200000D01*
X57000000Y-89840000D02*
X58640000Y-89840000D01*
X66200000Y-92200000D02*
X67900000Y-90500000D01*
X60000000Y-91200000D02*
X60000000Y-96400000D01*
X64200000Y-97800000D02*
X66200000Y-95800000D01*
X58640000Y-89840000D02*
X60000000Y-91200000D01*
X67900000Y-90500000D02*
X87885000Y-90500000D01*
X61400000Y-97800000D02*
X64200000Y-97800000D01*
X87885000Y-90500000D02*
X88200000Y-90185000D01*
D36*
%TO.N,/LED2*%
X85829000Y-55171000D02*
X87500000Y-53500000D01*
X88200000Y-85105000D02*
X85829000Y-82734000D01*
X97387500Y-53500000D02*
X98000000Y-54112500D01*
X87500000Y-53500000D02*
X97387500Y-53500000D01*
X98000000Y-54112500D02*
X98000000Y-54875000D01*
X85829000Y-82734000D02*
X85829000Y-55171000D01*
%TO.N,/LED1*%
X101000000Y-53500000D02*
X101000000Y-54875000D01*
X88200000Y-87645000D02*
X85000000Y-84445000D01*
X87101000Y-52399000D02*
X99899000Y-52399000D01*
X85000000Y-84445000D02*
X85000000Y-54500000D01*
X85000000Y-54500000D02*
X87101000Y-52399000D01*
X99899000Y-52399000D02*
X101000000Y-53500000D01*
D37*
%TO.N,/RX*%
X97550000Y-95850000D02*
X97570000Y-95830000D01*
X93500000Y-83625000D02*
X93500000Y-94000000D01*
X90125000Y-80250000D02*
X93500000Y-83625000D01*
X95350000Y-95850000D02*
X97550000Y-95850000D01*
X97570000Y-95830000D02*
X100000000Y-95830000D01*
X93500000Y-94000000D02*
X95350000Y-95850000D01*
X88200000Y-80025000D02*
X88425000Y-80250000D01*
X88425000Y-80250000D02*
X90125000Y-80250000D01*
%TO.N,/SCK2*%
X62800000Y-85105000D02*
X59915000Y-82220000D01*
D36*
X57375000Y-82220000D02*
X57000000Y-82220000D01*
D37*
X59915000Y-82220000D02*
X57000000Y-82220000D01*
D36*
%TO.N,/MISO2*%
X57375000Y-84760000D02*
X57000000Y-84760000D01*
D37*
X62800000Y-87645000D02*
X59915000Y-84760000D01*
X59915000Y-84760000D02*
X57000000Y-84760000D01*
%TO.N,unconnected-(U1-D35-Pad20)*%
X62435000Y-69500000D02*
X62800000Y-69865000D01*
%TD*%
%TA.AperFunction,Conductor*%
%TO.N,GND*%
G36*
X100250000Y-92914722D02*
G01*
X100173694Y-92870667D01*
X100059244Y-92840000D01*
X99940756Y-92840000D01*
X99826306Y-92870667D01*
X99750000Y-92914722D01*
X99750000Y-91125277D01*
X99826306Y-91169333D01*
X99940756Y-91200000D01*
X100059244Y-91200000D01*
X100173694Y-91169333D01*
X100250000Y-91125277D01*
X100250000Y-92914722D01*
G37*
%TD.AperFunction*%
%TA.AperFunction,Conductor*%
G36*
X105586044Y-80773886D02*
G01*
X105590508Y-80772916D01*
X105619260Y-80783640D01*
X105648701Y-80792285D01*
X105652887Y-80796182D01*
X105655972Y-80797333D01*
X105680925Y-80822285D01*
X105690404Y-80834947D01*
X105711494Y-80850735D01*
X105753363Y-80906666D01*
X105758348Y-80976357D01*
X105724864Y-81037681D01*
X105711495Y-81049265D01*
X105690408Y-81065050D01*
X105690403Y-81065055D01*
X105680929Y-81077712D01*
X105624994Y-81119583D01*
X105581663Y-81127400D01*
X105547950Y-81127400D01*
X105547950Y-81175244D01*
X105554351Y-81234772D01*
X105556137Y-81242330D01*
X105553779Y-81242887D01*
X105557911Y-81300642D01*
X105554674Y-81311667D01*
X105553858Y-81315118D01*
X105547451Y-81374718D01*
X105547450Y-81374737D01*
X105547450Y-81825271D01*
X105547451Y-81825277D01*
X105553859Y-81884885D01*
X105555642Y-81892430D01*
X105553467Y-81892943D01*
X105557641Y-81951366D01*
X105554909Y-81960670D01*
X105553858Y-81965117D01*
X105547451Y-82024717D01*
X105547450Y-82024736D01*
X105547450Y-82475270D01*
X105547451Y-82475276D01*
X105553859Y-82534884D01*
X105555642Y-82542429D01*
X105554444Y-82542711D01*
X105560481Y-82583783D01*
X105547687Y-82779980D01*
X105537014Y-82809151D01*
X105528265Y-82838950D01*
X105525114Y-82841679D01*
X105523682Y-82845596D01*
X105498928Y-82864369D01*
X105475461Y-82884705D01*
X105471403Y-82886472D01*
X105368190Y-82929223D01*
X105253454Y-83005887D01*
X105253453Y-83005888D01*
X103996162Y-84263181D01*
X103934839Y-84296666D01*
X103908481Y-84299500D01*
X102240520Y-84299500D01*
X102173481Y-84279815D01*
X102127726Y-84227011D01*
X102117782Y-84157853D01*
X102146807Y-84094297D01*
X102152839Y-84087819D01*
X103769077Y-82471580D01*
X105431738Y-80808917D01*
X105493059Y-80775434D01*
X105519417Y-80772600D01*
X105581662Y-80772600D01*
X105586044Y-80773886D01*
G37*
%TD.AperFunction*%
%TA.AperFunction,Conductor*%
G36*
X99590594Y-81670185D02*
G01*
X99636349Y-81722989D01*
X99647555Y-81774500D01*
X99647555Y-81825275D01*
X99653963Y-81884885D01*
X99655746Y-81892429D01*
X99654446Y-81892736D01*
X99660398Y-81936267D01*
X99647604Y-82086052D01*
X99636781Y-82113889D01*
X99628369Y-82142538D01*
X99624258Y-82146099D01*
X99622286Y-82151173D01*
X99598127Y-82168742D01*
X99575565Y-82188293D01*
X99569400Y-82189633D01*
X99565779Y-82192268D01*
X99554232Y-82192933D01*
X99524054Y-82199499D01*
X99008628Y-82199499D01*
X98941589Y-82179814D01*
X98895834Y-82127010D01*
X98890922Y-82114504D01*
X98875394Y-82067644D01*
X98835908Y-81948484D01*
X98835904Y-81948478D01*
X98835903Y-81948475D01*
X98768746Y-81839597D01*
X98750305Y-81772205D01*
X98771227Y-81705541D01*
X98824869Y-81660771D01*
X98874284Y-81650500D01*
X99523555Y-81650500D01*
X99590594Y-81670185D01*
G37*
%TD.AperFunction*%
%TA.AperFunction,Conductor*%
G36*
X97143541Y-72945185D02*
G01*
X97189296Y-72997989D01*
X97199240Y-73067147D01*
X97170215Y-73130703D01*
X97150816Y-73148764D01*
X97092454Y-73192454D01*
X97092453Y-73192455D01*
X97092452Y-73192456D01*
X97006206Y-73307664D01*
X97006202Y-73307671D01*
X96955910Y-73442513D01*
X96955909Y-73442517D01*
X96949500Y-73502127D01*
X96949500Y-73502134D01*
X96949500Y-73502135D01*
X96949500Y-74092097D01*
X96929815Y-74159136D01*
X96877011Y-74204891D01*
X96849693Y-74213714D01*
X96766507Y-74230261D01*
X96766498Y-74230264D01*
X96620827Y-74290602D01*
X96620814Y-74290609D01*
X96489711Y-74378210D01*
X96489707Y-74378213D01*
X96378213Y-74489707D01*
X96378210Y-74489711D01*
X96290609Y-74620814D01*
X96290602Y-74620827D01*
X96230264Y-74766498D01*
X96230261Y-74766510D01*
X96199500Y-74921153D01*
X96199500Y-75078846D01*
X96230261Y-75233489D01*
X96230264Y-75233501D01*
X96290602Y-75379172D01*
X96290609Y-75379185D01*
X96378210Y-75510288D01*
X96378213Y-75510292D01*
X96489707Y-75621786D01*
X96489711Y-75621789D01*
X96620814Y-75709390D01*
X96620827Y-75709397D01*
X96741822Y-75759514D01*
X96766503Y-75769737D01*
X96849693Y-75786284D01*
X96911602Y-75818668D01*
X96946176Y-75879384D01*
X96949500Y-75907901D01*
X96949500Y-76497870D01*
X96949501Y-76497876D01*
X96955908Y-76557483D01*
X97006202Y-76692328D01*
X97006206Y-76692335D01*
X97092452Y-76807544D01*
X97092455Y-76807547D01*
X97207664Y-76893793D01*
X97207671Y-76893797D01*
X97252618Y-76910561D01*
X97342517Y-76944091D01*
X97402127Y-76950500D01*
X97776079Y-76950499D01*
X97776082Y-76950500D01*
X97923918Y-76950500D01*
X97923920Y-76950499D01*
X98297872Y-76950499D01*
X98357483Y-76944091D01*
X98492331Y-76893796D01*
X98607546Y-76807546D01*
X98650734Y-76749854D01*
X98706667Y-76707984D01*
X98776359Y-76703000D01*
X98837682Y-76736485D01*
X98849263Y-76749850D01*
X98892454Y-76807546D01*
X98914259Y-76823869D01*
X99007664Y-76893793D01*
X99007671Y-76893797D01*
X99142517Y-76944091D01*
X99142516Y-76944091D01*
X99149444Y-76944835D01*
X99202127Y-76950500D01*
X100097872Y-76950499D01*
X100157483Y-76944091D01*
X100221579Y-76920185D01*
X100253396Y-76908318D01*
X100296729Y-76900500D01*
X103988770Y-76900500D01*
X104055809Y-76920185D01*
X104101564Y-76972989D01*
X104111508Y-77042147D01*
X104082483Y-77105703D01*
X104076451Y-77112181D01*
X103684703Y-77503927D01*
X103644480Y-77530805D01*
X103620819Y-77540606D01*
X103620818Y-77540607D01*
X103489715Y-77628207D01*
X103489707Y-77628213D01*
X103378213Y-77739707D01*
X103378210Y-77739711D01*
X103290609Y-77870814D01*
X103290602Y-77870827D01*
X103230264Y-78016498D01*
X103230261Y-78016510D01*
X103199500Y-78171153D01*
X103199500Y-78328846D01*
X103230261Y-78483489D01*
X103230264Y-78483501D01*
X103290602Y-78629172D01*
X103290609Y-78629185D01*
X103378210Y-78760288D01*
X103378213Y-78760292D01*
X103489705Y-78871784D01*
X103493798Y-78875143D01*
X103533133Y-78932888D01*
X103535005Y-79002732D01*
X103502816Y-79058679D01*
X102120416Y-80441080D01*
X102093488Y-80455783D01*
X102067670Y-80472376D01*
X102061469Y-80473267D01*
X102059093Y-80474565D01*
X102032735Y-80477399D01*
X102018441Y-80477399D01*
X101951402Y-80457714D01*
X101919175Y-80427711D01*
X101909700Y-80415054D01*
X101909697Y-80415052D01*
X101817277Y-80345866D01*
X101775406Y-80289932D01*
X101770422Y-80220240D01*
X101803907Y-80158917D01*
X101865231Y-80125433D01*
X101891588Y-80122599D01*
X102052154Y-80122599D01*
X102052154Y-80074771D01*
X102052153Y-80074754D01*
X102045752Y-80015226D01*
X102045750Y-80015219D01*
X101995508Y-79880512D01*
X101995504Y-79880505D01*
X101909344Y-79765411D01*
X101909341Y-79765408D01*
X101794247Y-79679248D01*
X101794240Y-79679244D01*
X101659533Y-79629002D01*
X101659526Y-79629000D01*
X101599998Y-79622599D01*
X101027504Y-79622599D01*
X101027504Y-80125500D01*
X101024953Y-80134185D01*
X101026242Y-80143147D01*
X101015263Y-80167187D01*
X101007819Y-80192539D01*
X101000978Y-80198466D01*
X100997217Y-80206703D01*
X100974982Y-80220992D01*
X100955015Y-80238294D01*
X100944500Y-80240581D01*
X100938439Y-80244477D01*
X100903504Y-80249500D01*
X100796704Y-80249500D01*
X100729665Y-80229815D01*
X100683910Y-80177011D01*
X100672704Y-80125500D01*
X100672704Y-79622599D01*
X100100209Y-79622599D01*
X100040681Y-79629000D01*
X100040674Y-79629002D01*
X99905967Y-79679244D01*
X99905960Y-79679248D01*
X99790866Y-79765408D01*
X99790863Y-79765411D01*
X99704703Y-79880505D01*
X99704699Y-79880512D01*
X99654457Y-80015219D01*
X99654455Y-80015226D01*
X99648054Y-80074754D01*
X99648054Y-80125500D01*
X99628369Y-80192539D01*
X99575565Y-80238294D01*
X99524054Y-80249500D01*
X98744552Y-80249500D01*
X98677513Y-80229815D01*
X98656871Y-80213181D01*
X98623351Y-80179661D01*
X98623350Y-80179660D01*
X98476516Y-80089092D01*
X98312753Y-80034826D01*
X98312751Y-80034825D01*
X98211684Y-80024500D01*
X98208529Y-80024340D01*
X98208537Y-80024179D01*
X98208536Y-80024179D01*
X98208538Y-80024155D01*
X98208567Y-80023577D01*
X98144672Y-80004815D01*
X98098917Y-79952011D01*
X98088973Y-79882853D01*
X98117998Y-79819297D01*
X98176776Y-79781523D01*
X98187520Y-79778883D01*
X98209553Y-79774499D01*
X98233497Y-79769737D01*
X98379179Y-79709394D01*
X98510289Y-79621789D01*
X98621789Y-79510289D01*
X98709394Y-79379179D01*
X98769737Y-79233497D01*
X98800500Y-79078842D01*
X98800500Y-78921158D01*
X98800500Y-78921155D01*
X98800499Y-78921153D01*
X98799928Y-78918282D01*
X98769737Y-78766503D01*
X98764972Y-78755000D01*
X98709397Y-78620827D01*
X98709390Y-78620814D01*
X98621789Y-78489711D01*
X98621786Y-78489707D01*
X98510292Y-78378213D01*
X98510288Y-78378210D01*
X98379185Y-78290609D01*
X98379172Y-78290602D01*
X98233501Y-78230264D01*
X98233489Y-78230261D01*
X98078845Y-78199500D01*
X98078842Y-78199500D01*
X97921158Y-78199500D01*
X97921155Y-78199500D01*
X97766511Y-78230260D01*
X97766506Y-78230262D01*
X97766504Y-78230262D01*
X97766503Y-78230263D01*
X97742844Y-78240062D01*
X97695396Y-78249500D01*
X95862229Y-78249500D01*
X95795190Y-78229815D01*
X95774548Y-78213181D01*
X94474097Y-76912728D01*
X94474074Y-76912707D01*
X92978416Y-75417048D01*
X90698549Y-73137181D01*
X90665064Y-73075858D01*
X90670048Y-73006166D01*
X90711920Y-72950233D01*
X90777384Y-72925816D01*
X90786230Y-72925500D01*
X97076502Y-72925500D01*
X97143541Y-72945185D01*
G37*
%TD.AperFunction*%
%TA.AperFunction,Conductor*%
G36*
X128593492Y-64955185D02*
G01*
X128626769Y-64986614D01*
X128661842Y-65034887D01*
X128719892Y-65114788D01*
X128833430Y-65228326D01*
X128866915Y-65289649D01*
X128861931Y-65359341D01*
X128820059Y-65415274D01*
X128789083Y-65432189D01*
X128657669Y-65481203D01*
X128657664Y-65481206D01*
X128542455Y-65567452D01*
X128542452Y-65567455D01*
X128456206Y-65682664D01*
X128456202Y-65682671D01*
X128405908Y-65817517D01*
X128400833Y-65864727D01*
X128399501Y-65877123D01*
X128399500Y-65877135D01*
X128399500Y-65950500D01*
X128379815Y-66017539D01*
X128327011Y-66063294D01*
X128275500Y-66074500D01*
X125906003Y-66074500D01*
X125797590Y-66096065D01*
X125797589Y-66096065D01*
X125784131Y-66098742D01*
X125770673Y-66101419D01*
X125770671Y-66101420D01*
X125717866Y-66123292D01*
X125717864Y-66123293D01*
X125717863Y-66123292D01*
X125643196Y-66154221D01*
X125643181Y-66154229D01*
X125603891Y-66180483D01*
X125528457Y-66230886D01*
X125528453Y-66230889D01*
X120395662Y-71363681D01*
X120334339Y-71397166D01*
X120307981Y-71400000D01*
X119300000Y-71400000D01*
X119300000Y-72407981D01*
X119280315Y-72475020D01*
X119263681Y-72495662D01*
X119051162Y-72708181D01*
X118989839Y-72741666D01*
X118963481Y-72744500D01*
X117016079Y-72744500D01*
X116949040Y-72724815D01*
X116903285Y-72672011D01*
X116892721Y-72607897D01*
X116899999Y-72536654D01*
X116900000Y-72536641D01*
X116900000Y-72500000D01*
X115986500Y-72500000D01*
X115919461Y-72480315D01*
X115873706Y-72427511D01*
X115862500Y-72376000D01*
X115862500Y-72250000D01*
X115736500Y-72250000D01*
X115669461Y-72230315D01*
X115623706Y-72177511D01*
X115612500Y-72126000D01*
X115612500Y-72000000D01*
X116112500Y-72000000D01*
X116899999Y-72000000D01*
X116899999Y-71997844D01*
X117800000Y-71997844D01*
X117806401Y-72057372D01*
X117806403Y-72057379D01*
X117856645Y-72192086D01*
X117856649Y-72192093D01*
X117942809Y-72307187D01*
X117942812Y-72307190D01*
X118057906Y-72393350D01*
X118057913Y-72393354D01*
X118192620Y-72443596D01*
X118192627Y-72443598D01*
X118252155Y-72449999D01*
X118252172Y-72450000D01*
X118800000Y-72450000D01*
X118800000Y-71400000D01*
X117800000Y-71400000D01*
X117800000Y-71997844D01*
X116899999Y-71997844D01*
X116899999Y-71963360D01*
X116899998Y-71963345D01*
X116889680Y-71862347D01*
X116835453Y-71698699D01*
X116835448Y-71698688D01*
X116744947Y-71551965D01*
X116744944Y-71551961D01*
X116623038Y-71430055D01*
X116623034Y-71430052D01*
X116476311Y-71339551D01*
X116476300Y-71339546D01*
X116312652Y-71285319D01*
X116211654Y-71275000D01*
X116112500Y-71275000D01*
X116112500Y-72000000D01*
X115612500Y-72000000D01*
X115612500Y-71274999D01*
X115513360Y-71275000D01*
X115513344Y-71275001D01*
X115412347Y-71285319D01*
X115248699Y-71339546D01*
X115248688Y-71339551D01*
X115101965Y-71430052D01*
X115101963Y-71430053D01*
X115088030Y-71443986D01*
X115084157Y-71446100D01*
X115081781Y-71449818D01*
X115053767Y-71462692D01*
X115026705Y-71477468D01*
X115022303Y-71477152D01*
X115018295Y-71478995D01*
X114987765Y-71474680D01*
X114957013Y-71472479D01*
X114952251Y-71469661D01*
X114949113Y-71469218D01*
X114935090Y-71459506D01*
X114919376Y-71450208D01*
X114915904Y-71447214D01*
X114898350Y-71429660D01*
X114888503Y-71423586D01*
X114881023Y-71417136D01*
X114867203Y-71395745D01*
X114850177Y-71376815D01*
X114847575Y-71365364D01*
X114843107Y-71358449D01*
X114843076Y-71345565D01*
X114838000Y-71323228D01*
X114838000Y-71068504D01*
X114811081Y-70933176D01*
X114811078Y-70933167D01*
X114799995Y-70906411D01*
X114792940Y-70883158D01*
X114769737Y-70766503D01*
X114719871Y-70646114D01*
X114709397Y-70620827D01*
X114709390Y-70620814D01*
X114621789Y-70489711D01*
X114621786Y-70489707D01*
X114526042Y-70393963D01*
X114526038Y-70393960D01*
X114510289Y-70378211D01*
X114396464Y-70302155D01*
X117800000Y-70302155D01*
X117800000Y-70900000D01*
X118800000Y-70900000D01*
X119300000Y-70900000D01*
X120300000Y-70900000D01*
X120300000Y-70302172D01*
X120299999Y-70302155D01*
X120293598Y-70242627D01*
X120293596Y-70242620D01*
X120243354Y-70107913D01*
X120243350Y-70107906D01*
X120157190Y-69992812D01*
X120157187Y-69992809D01*
X120042093Y-69906649D01*
X120042086Y-69906645D01*
X119907379Y-69856403D01*
X119907372Y-69856401D01*
X119847844Y-69850000D01*
X119300000Y-69850000D01*
X119300000Y-70900000D01*
X118800000Y-70900000D01*
X118800000Y-69850000D01*
X118252155Y-69850000D01*
X118192627Y-69856401D01*
X118192620Y-69856403D01*
X118057913Y-69906645D01*
X118057906Y-69906649D01*
X117942812Y-69992809D01*
X117942809Y-69992812D01*
X117856649Y-70107906D01*
X117856645Y-70107913D01*
X117806403Y-70242620D01*
X117806401Y-70242627D01*
X117800000Y-70302155D01*
X114396464Y-70302155D01*
X114396036Y-70301869D01*
X114394642Y-70300882D01*
X114373995Y-70274760D01*
X114352623Y-70249187D01*
X114352404Y-70247443D01*
X114351316Y-70246067D01*
X114348067Y-70212915D01*
X114343916Y-70179862D01*
X114344673Y-70178279D01*
X114344502Y-70176531D01*
X114359699Y-70146873D01*
X114374071Y-70116834D01*
X114376292Y-70114490D01*
X114376365Y-70114349D01*
X114376501Y-70114269D01*
X114378619Y-70112035D01*
X116608708Y-67881947D01*
X118510914Y-67881947D01*
X118510914Y-68118052D01*
X118547848Y-68351247D01*
X118620811Y-68575802D01*
X118728001Y-68786174D01*
X118788252Y-68869104D01*
X118788254Y-68869105D01*
X119333335Y-68324024D01*
X119346273Y-68355258D01*
X119428351Y-68478097D01*
X119532817Y-68582563D01*
X119655656Y-68664641D01*
X119686888Y-68677578D01*
X119141807Y-69222658D01*
X119224742Y-69282914D01*
X119435111Y-69390102D01*
X119659666Y-69463065D01*
X119659665Y-69463065D01*
X119892862Y-69500000D01*
X120128966Y-69500000D01*
X120362161Y-69463065D01*
X120586716Y-69390102D01*
X120797077Y-69282918D01*
X120797083Y-69282914D01*
X120880018Y-69222658D01*
X120880019Y-69222658D01*
X120334938Y-68677578D01*
X120366172Y-68664641D01*
X120489011Y-68582563D01*
X120593477Y-68478097D01*
X120675555Y-68355258D01*
X120688492Y-68324024D01*
X121233572Y-68869105D01*
X121233572Y-68869104D01*
X121293828Y-68786169D01*
X121293832Y-68786163D01*
X121401016Y-68575802D01*
X121473979Y-68351247D01*
X121510914Y-68118052D01*
X121510914Y-67881947D01*
X121473979Y-67648752D01*
X121401016Y-67424197D01*
X121293828Y-67213828D01*
X121233572Y-67130894D01*
X121233572Y-67130893D01*
X120688491Y-67675974D01*
X120675555Y-67644742D01*
X120593477Y-67521903D01*
X120489011Y-67417437D01*
X120366172Y-67335359D01*
X120334938Y-67322421D01*
X120880019Y-66777340D01*
X120880018Y-66777338D01*
X120797088Y-66717087D01*
X120586716Y-66609897D01*
X120362161Y-66536934D01*
X120362162Y-66536934D01*
X120128966Y-66500000D01*
X119892862Y-66500000D01*
X119659666Y-66536934D01*
X119435111Y-66609897D01*
X119224744Y-66717084D01*
X119141808Y-66777340D01*
X119686889Y-67322421D01*
X119655656Y-67335359D01*
X119532817Y-67417437D01*
X119428351Y-67521903D01*
X119346273Y-67644742D01*
X119333335Y-67675975D01*
X118788254Y-67130894D01*
X118727998Y-67213830D01*
X118620811Y-67424197D01*
X118547848Y-67648752D01*
X118510914Y-67881947D01*
X116608708Y-67881947D01*
X119518837Y-64971819D01*
X119580160Y-64938334D01*
X119606518Y-64935500D01*
X128526453Y-64935500D01*
X128593492Y-64955185D01*
G37*
%TD.AperFunction*%
%TA.AperFunction,Conductor*%
G36*
X103925520Y-63520185D02*
G01*
X103946162Y-63536819D01*
X105263181Y-64853837D01*
X105296666Y-64915160D01*
X105299500Y-64941518D01*
X105299500Y-71158480D01*
X105279815Y-71225519D01*
X105263181Y-71246161D01*
X104282181Y-72227161D01*
X104220858Y-72260646D01*
X104151166Y-72255662D01*
X104095233Y-72213790D01*
X104070816Y-72148326D01*
X104070500Y-72139480D01*
X104070500Y-72106004D01*
X104043581Y-71970677D01*
X104043580Y-71970676D01*
X104043580Y-71970672D01*
X104000641Y-71867007D01*
X103990778Y-71843195D01*
X103990771Y-71843182D01*
X103914114Y-71728458D01*
X103914111Y-71728454D01*
X103816545Y-71630888D01*
X103808010Y-71625185D01*
X103805192Y-71623302D01*
X103760389Y-71569690D01*
X103751682Y-71500365D01*
X103775708Y-71444715D01*
X103797856Y-71415853D01*
X103855719Y-71276159D01*
X103870500Y-71163887D01*
X103870499Y-70646114D01*
X103869071Y-70635270D01*
X103855720Y-70533848D01*
X103855719Y-70533847D01*
X103855719Y-70533841D01*
X103797856Y-70394147D01*
X103760202Y-70345075D01*
X103735008Y-70279906D01*
X103749046Y-70211461D01*
X103760203Y-70194101D01*
X103797421Y-70145598D01*
X103855230Y-70006032D01*
X103855231Y-70006028D01*
X103869999Y-69893863D01*
X103870000Y-69893849D01*
X103870000Y-69885000D01*
X100820000Y-69885000D01*
X100820000Y-69893863D01*
X100835829Y-70014086D01*
X100832348Y-70014544D01*
X100832134Y-70023423D01*
X100835689Y-70048147D01*
X100831304Y-70057748D01*
X100831049Y-70068301D01*
X100817040Y-70088981D01*
X100806664Y-70111703D01*
X100797783Y-70117410D01*
X100791864Y-70126149D01*
X100768898Y-70135973D01*
X100747886Y-70149477D01*
X100731988Y-70151762D01*
X100727626Y-70153629D01*
X100712951Y-70154500D01*
X100487000Y-70154500D01*
X100419961Y-70134815D01*
X100374206Y-70082011D01*
X100363000Y-70030500D01*
X100363000Y-69563550D01*
X100382685Y-69496511D01*
X100435489Y-69450756D01*
X100443650Y-69447374D01*
X100453245Y-69443796D01*
X100568460Y-69357546D01*
X100596735Y-69319775D01*
X100652667Y-69277906D01*
X100722359Y-69272922D01*
X100783682Y-69306407D01*
X100817166Y-69367730D01*
X100818905Y-69383905D01*
X100820000Y-69385000D01*
X102095000Y-69385000D01*
X102595000Y-69385000D01*
X103870000Y-69385000D01*
X103870000Y-69376150D01*
X103869999Y-69376136D01*
X103855231Y-69263971D01*
X103855230Y-69263967D01*
X103797421Y-69124400D01*
X103797419Y-69124397D01*
X103759888Y-69075488D01*
X103734692Y-69010320D01*
X103748729Y-68941875D01*
X103759888Y-68924512D01*
X103797419Y-68875602D01*
X103797421Y-68875599D01*
X103855230Y-68736032D01*
X103855231Y-68736028D01*
X103869999Y-68623863D01*
X103870000Y-68623849D01*
X103870000Y-68615000D01*
X102595000Y-68615000D01*
X102595000Y-69385000D01*
X102095000Y-69385000D01*
X102095000Y-68115000D01*
X102595000Y-68115000D01*
X103870000Y-68115000D01*
X103870000Y-68106150D01*
X103869999Y-68106136D01*
X103855231Y-67993971D01*
X103855230Y-67993967D01*
X103797421Y-67854400D01*
X103797419Y-67854397D01*
X103759888Y-67805488D01*
X103734692Y-67740320D01*
X103748729Y-67671875D01*
X103759888Y-67654512D01*
X103797419Y-67605602D01*
X103797421Y-67605599D01*
X103855230Y-67466032D01*
X103855231Y-67466028D01*
X103869999Y-67353863D01*
X103870000Y-67353849D01*
X103870000Y-67345000D01*
X102595000Y-67345000D01*
X102595000Y-68115000D01*
X102095000Y-68115000D01*
X102095000Y-66845000D01*
X102595000Y-66845000D01*
X103870000Y-66845000D01*
X103870000Y-66836150D01*
X103869999Y-66836136D01*
X103855231Y-66723971D01*
X103855230Y-66723967D01*
X103797421Y-66584400D01*
X103797419Y-66584397D01*
X103759888Y-66535488D01*
X103734692Y-66470320D01*
X103748729Y-66401875D01*
X103759888Y-66384512D01*
X103797419Y-66335602D01*
X103797421Y-66335599D01*
X103855230Y-66196032D01*
X103855231Y-66196028D01*
X103869999Y-66083863D01*
X103870000Y-66083849D01*
X103870000Y-66075000D01*
X102595000Y-66075000D01*
X102595000Y-66845000D01*
X102095000Y-66845000D01*
X102095000Y-66075000D01*
X100820000Y-66075000D01*
X100820000Y-66083863D01*
X100834768Y-66196028D01*
X100834769Y-66196032D01*
X100892578Y-66335599D01*
X100892580Y-66335601D01*
X100930112Y-66384514D01*
X100955306Y-66449683D01*
X100941387Y-66517902D01*
X100840063Y-66709782D01*
X100819573Y-66730851D01*
X100801132Y-66753736D01*
X100795494Y-66755612D01*
X100791352Y-66759872D01*
X100762726Y-66766518D01*
X100734838Y-66775801D01*
X100729079Y-66774331D01*
X100723293Y-66775675D01*
X100695616Y-66765790D01*
X100667139Y-66758522D01*
X100661775Y-66753704D01*
X100657494Y-66752175D01*
X100651695Y-66744649D01*
X100631146Y-66726192D01*
X100568460Y-66642454D01*
X100524970Y-66609897D01*
X100453249Y-66556206D01*
X100453242Y-66556202D01*
X100318396Y-66505908D01*
X100318397Y-66505908D01*
X100258797Y-66499501D01*
X100258795Y-66499500D01*
X100258787Y-66499500D01*
X100258778Y-66499500D01*
X98163043Y-66499500D01*
X98163037Y-66499501D01*
X98103430Y-66505908D01*
X97968585Y-66556202D01*
X97968578Y-66556206D01*
X97853369Y-66642452D01*
X97853366Y-66642455D01*
X97767120Y-66757664D01*
X97767116Y-66757671D01*
X97716822Y-66892517D01*
X97710415Y-66952116D01*
X97710414Y-66952135D01*
X97710414Y-69047870D01*
X97710415Y-69047876D01*
X97716822Y-69107483D01*
X97767116Y-69242328D01*
X97767120Y-69242335D01*
X97853366Y-69357544D01*
X97853369Y-69357547D01*
X97968578Y-69443793D01*
X97968585Y-69443797D01*
X97996408Y-69454174D01*
X98103431Y-69494091D01*
X98163041Y-69500500D01*
X98738000Y-69500499D01*
X98805039Y-69520183D01*
X98850794Y-69572987D01*
X98862000Y-69624499D01*
X98862000Y-70094655D01*
X98842315Y-70161694D01*
X98789511Y-70207449D01*
X98720353Y-70217393D01*
X98656797Y-70188368D01*
X98650319Y-70182336D01*
X98648038Y-70180055D01*
X98648034Y-70180052D01*
X98501311Y-70089551D01*
X98501300Y-70089546D01*
X98337652Y-70035319D01*
X98236654Y-70025000D01*
X98137500Y-70025000D01*
X98137500Y-70876000D01*
X98117815Y-70943039D01*
X98065011Y-70988794D01*
X98013500Y-71000000D01*
X97887500Y-71000000D01*
X97887500Y-71126000D01*
X97867815Y-71193039D01*
X97815011Y-71238794D01*
X97763500Y-71250000D01*
X96850001Y-71250000D01*
X96850001Y-71286659D01*
X96850128Y-71287892D01*
X96850078Y-71288159D01*
X96850162Y-71289802D01*
X96849769Y-71289821D01*
X96837362Y-71356585D01*
X96789484Y-71407472D01*
X96726771Y-71424500D01*
X90872229Y-71424500D01*
X90805190Y-71404815D01*
X90784548Y-71388181D01*
X90109712Y-70713345D01*
X96850000Y-70713345D01*
X96850000Y-70750000D01*
X97637500Y-70750000D01*
X97637500Y-70024999D01*
X97538360Y-70025000D01*
X97538344Y-70025001D01*
X97437347Y-70035319D01*
X97273699Y-70089546D01*
X97273688Y-70089551D01*
X97126965Y-70180052D01*
X97126961Y-70180055D01*
X97005055Y-70301961D01*
X97005052Y-70301965D01*
X96914551Y-70448688D01*
X96914546Y-70448699D01*
X96860319Y-70612347D01*
X96850000Y-70713345D01*
X90109712Y-70713345D01*
X89701280Y-70304913D01*
X89667795Y-70243590D01*
X89666488Y-70197834D01*
X89667080Y-70194101D01*
X89680479Y-70109500D01*
X89700500Y-69983097D01*
X89700500Y-69746902D01*
X89663553Y-69513631D01*
X89628569Y-69405963D01*
X89590568Y-69289008D01*
X89590566Y-69289005D01*
X89590566Y-69289003D01*
X89506696Y-69124400D01*
X89483343Y-69078567D01*
X89344517Y-68887490D01*
X89177510Y-68720483D01*
X89142872Y-68695317D01*
X89100207Y-68639989D01*
X89094228Y-68570375D01*
X89126833Y-68508580D01*
X89142873Y-68494682D01*
X89177510Y-68469517D01*
X89344517Y-68302510D01*
X89483343Y-68111433D01*
X89590568Y-67900992D01*
X89663553Y-67676368D01*
X89674761Y-67605602D01*
X89700500Y-67443097D01*
X89700500Y-67206902D01*
X89663553Y-66973631D01*
X89616118Y-66827644D01*
X89590568Y-66749008D01*
X89590566Y-66749005D01*
X89590566Y-66749003D01*
X89506695Y-66584398D01*
X89483343Y-66538567D01*
X89344517Y-66347490D01*
X89177510Y-66180483D01*
X89142872Y-66155317D01*
X89100207Y-66099989D01*
X89094228Y-66030375D01*
X89126833Y-65968580D01*
X89142873Y-65954682D01*
X89148629Y-65950500D01*
X89177510Y-65929517D01*
X89344517Y-65762510D01*
X89483343Y-65571433D01*
X89590568Y-65360992D01*
X89663553Y-65136368D01*
X89674761Y-65065602D01*
X89700500Y-64903097D01*
X89700500Y-64813863D01*
X100820000Y-64813863D01*
X100834768Y-64926028D01*
X100834769Y-64926032D01*
X100892578Y-65065599D01*
X100892580Y-65065601D01*
X100930112Y-65114514D01*
X100955306Y-65179683D01*
X100941268Y-65248128D01*
X100930112Y-65265486D01*
X100892580Y-65314398D01*
X100892578Y-65314400D01*
X100834769Y-65453967D01*
X100834768Y-65453971D01*
X100820000Y-65566136D01*
X100820000Y-65575000D01*
X102095000Y-65575000D01*
X102595000Y-65575000D01*
X103870000Y-65575000D01*
X103870000Y-65566150D01*
X103869999Y-65566136D01*
X103855231Y-65453971D01*
X103855230Y-65453967D01*
X103797421Y-65314400D01*
X103797419Y-65314397D01*
X103759888Y-65265488D01*
X103734692Y-65200320D01*
X103748729Y-65131875D01*
X103759888Y-65114512D01*
X103797419Y-65065602D01*
X103797421Y-65065599D01*
X103855230Y-64926032D01*
X103855231Y-64926028D01*
X103869999Y-64813863D01*
X103870000Y-64813849D01*
X103870000Y-64805000D01*
X102595000Y-64805000D01*
X102595000Y-65575000D01*
X102095000Y-65575000D01*
X102095000Y-64805000D01*
X100820000Y-64805000D01*
X100820000Y-64813863D01*
X89700500Y-64813863D01*
X89700500Y-64666902D01*
X89663553Y-64433631D01*
X89630012Y-64330404D01*
X89618878Y-64296136D01*
X100820000Y-64296136D01*
X100820000Y-64305000D01*
X102095000Y-64305000D01*
X102595000Y-64305000D01*
X103870000Y-64305000D01*
X103870000Y-64296150D01*
X103869999Y-64296136D01*
X103855231Y-64183971D01*
X103855230Y-64183967D01*
X103797421Y-64044401D01*
X103705452Y-63924547D01*
X103585598Y-63832578D01*
X103446032Y-63774769D01*
X103446028Y-63774768D01*
X103333863Y-63760000D01*
X102595000Y-63760000D01*
X102595000Y-64305000D01*
X102095000Y-64305000D01*
X102095000Y-63760000D01*
X101356136Y-63760000D01*
X101243971Y-63774768D01*
X101243967Y-63774769D01*
X101104401Y-63832578D01*
X100984547Y-63924547D01*
X100892578Y-64044401D01*
X100834769Y-64183967D01*
X100834768Y-64183971D01*
X100820000Y-64296136D01*
X89618878Y-64296136D01*
X89590566Y-64209003D01*
X89512548Y-64055886D01*
X89483343Y-63998567D01*
X89344517Y-63807490D01*
X89249208Y-63712181D01*
X89215723Y-63650858D01*
X89220707Y-63581166D01*
X89262579Y-63525233D01*
X89328043Y-63500816D01*
X89336889Y-63500500D01*
X103858481Y-63500500D01*
X103925520Y-63520185D01*
G37*
%TD.AperFunction*%
%TA.AperFunction,Conductor*%
G36*
X126502324Y-45500587D02*
G01*
X126542259Y-45502081D01*
X126981082Y-45518500D01*
X126990306Y-45519192D01*
X127464101Y-45572575D01*
X127473247Y-45573954D01*
X127835901Y-45642572D01*
X127941708Y-45662592D01*
X127950749Y-45664655D01*
X128124139Y-45711114D01*
X128411287Y-45788056D01*
X128420133Y-45790784D01*
X128870158Y-45948255D01*
X128878778Y-45951637D01*
X129122667Y-46058045D01*
X129315784Y-46142302D01*
X129324138Y-46146326D01*
X129745640Y-46369096D01*
X129753671Y-46373732D01*
X130157371Y-46627393D01*
X130165033Y-46632617D01*
X130548641Y-46915732D01*
X130555883Y-46921508D01*
X130917275Y-47232511D01*
X130924072Y-47238818D01*
X131261181Y-47575927D01*
X131267488Y-47582724D01*
X131578491Y-47944116D01*
X131584273Y-47951366D01*
X131867382Y-48334966D01*
X131872606Y-48342628D01*
X132126267Y-48746328D01*
X132130903Y-48754359D01*
X132353673Y-49175861D01*
X132357697Y-49184215D01*
X132548359Y-49621215D01*
X132551747Y-49629848D01*
X132709212Y-50079859D01*
X132711945Y-50088719D01*
X132835344Y-50549250D01*
X132837407Y-50558291D01*
X132926043Y-51026741D01*
X132927425Y-51035910D01*
X132980806Y-51509681D01*
X132981499Y-51518928D01*
X132999413Y-51997674D01*
X132999500Y-52002311D01*
X132999500Y-90420998D01*
X132979815Y-90488037D01*
X132927011Y-90533792D01*
X132857853Y-90543736D01*
X132801189Y-90520265D01*
X132742331Y-90476204D01*
X132742328Y-90476202D01*
X132607482Y-90425908D01*
X132607483Y-90425908D01*
X132547883Y-90419501D01*
X132547881Y-90419500D01*
X132547873Y-90419500D01*
X132547864Y-90419500D01*
X130452129Y-90419500D01*
X130452123Y-90419501D01*
X130392516Y-90425908D01*
X130257671Y-90476202D01*
X130257664Y-90476206D01*
X130142455Y-90562452D01*
X130142452Y-90562455D01*
X130056206Y-90677664D01*
X130056202Y-90677671D01*
X130005908Y-90812517D01*
X129999501Y-90872116D01*
X129999500Y-90872135D01*
X129999500Y-92467870D01*
X129999501Y-92467876D01*
X130005908Y-92527483D01*
X130056202Y-92662328D01*
X130056206Y-92662335D01*
X130142452Y-92777544D01*
X130142455Y-92777547D01*
X130257664Y-92863793D01*
X130257671Y-92863797D01*
X130392517Y-92914091D01*
X130392516Y-92914091D01*
X130399444Y-92914835D01*
X130452127Y-92920500D01*
X130515733Y-92920499D01*
X130582770Y-92940183D01*
X130628526Y-92992986D01*
X130638470Y-93062144D01*
X130609446Y-93125700D01*
X130588619Y-93144816D01*
X130435354Y-93256171D01*
X130296174Y-93395351D01*
X130296174Y-93395352D01*
X130296172Y-93395354D01*
X130277773Y-93420678D01*
X130180476Y-93554594D01*
X130091117Y-93729970D01*
X130030290Y-93917173D01*
X129999500Y-94111577D01*
X129999500Y-94308422D01*
X130030290Y-94502826D01*
X130091117Y-94690029D01*
X130180476Y-94865405D01*
X130296172Y-95024646D01*
X130435354Y-95163828D01*
X130594595Y-95279524D01*
X130717992Y-95342397D01*
X130771213Y-95369515D01*
X130822009Y-95417489D01*
X130838804Y-95485310D01*
X130816267Y-95551445D01*
X130771213Y-95590485D01*
X130594594Y-95680476D01*
X130503741Y-95746485D01*
X130435354Y-95796172D01*
X130435352Y-95796174D01*
X130435351Y-95796174D01*
X130296174Y-95935351D01*
X130296174Y-95935352D01*
X130296172Y-95935354D01*
X130277773Y-95960678D01*
X130180476Y-96094594D01*
X130091117Y-96269970D01*
X130030290Y-96457173D01*
X129999500Y-96651577D01*
X129999500Y-96848422D01*
X130030290Y-97042826D01*
X130091117Y-97230029D01*
X130180476Y-97405405D01*
X130296172Y-97564646D01*
X130435354Y-97703828D01*
X130594595Y-97819524D01*
X130674228Y-97860099D01*
X130769970Y-97908882D01*
X130769972Y-97908882D01*
X130769975Y-97908884D01*
X130870317Y-97941487D01*
X130957173Y-97969709D01*
X131151578Y-98000500D01*
X131151583Y-98000500D01*
X131848422Y-98000500D01*
X132042826Y-97969709D01*
X132072707Y-97960000D01*
X132230025Y-97908884D01*
X132405405Y-97819524D01*
X132564646Y-97703828D01*
X132703828Y-97564646D01*
X132775183Y-97466433D01*
X132830512Y-97423770D01*
X132900125Y-97417791D01*
X132961920Y-97450397D01*
X132996278Y-97511236D01*
X132999500Y-97539321D01*
X132999500Y-107997688D01*
X132999413Y-108002325D01*
X132981499Y-108481071D01*
X132980806Y-108490318D01*
X132927425Y-108964089D01*
X132926043Y-108973258D01*
X132837407Y-109441708D01*
X132835344Y-109450749D01*
X132711945Y-109911280D01*
X132709212Y-109920140D01*
X132551747Y-110370151D01*
X132548359Y-110378784D01*
X132357697Y-110815784D01*
X132353673Y-110824138D01*
X132130903Y-111245640D01*
X132126267Y-111253671D01*
X131872606Y-111657371D01*
X131867382Y-111665033D01*
X131584273Y-112048633D01*
X131578491Y-112055883D01*
X131267488Y-112417275D01*
X131261181Y-112424072D01*
X130924072Y-112761181D01*
X130917275Y-112767488D01*
X130555883Y-113078491D01*
X130548633Y-113084273D01*
X130165033Y-113367382D01*
X130157371Y-113372606D01*
X129753671Y-113626267D01*
X129745640Y-113630903D01*
X129324138Y-113853673D01*
X129315784Y-113857697D01*
X128878784Y-114048359D01*
X128870151Y-114051747D01*
X128420140Y-114209212D01*
X128411280Y-114211945D01*
X127950749Y-114335344D01*
X127941708Y-114337407D01*
X127473258Y-114426043D01*
X127464089Y-114427425D01*
X126990318Y-114480806D01*
X126981071Y-114481499D01*
X126502325Y-114499413D01*
X126497688Y-114499500D01*
X57002312Y-114499500D01*
X56997675Y-114499413D01*
X56518928Y-114481499D01*
X56509681Y-114480806D01*
X56035910Y-114427425D01*
X56026741Y-114426043D01*
X55558291Y-114337407D01*
X55549250Y-114335344D01*
X55088719Y-114211945D01*
X55079859Y-114209212D01*
X54629848Y-114051747D01*
X54621215Y-114048359D01*
X54184215Y-113857697D01*
X54175861Y-113853673D01*
X53754359Y-113630903D01*
X53746328Y-113626267D01*
X53342628Y-113372606D01*
X53334966Y-113367382D01*
X52951366Y-113084273D01*
X52944116Y-113078491D01*
X52582724Y-112767488D01*
X52575927Y-112761181D01*
X52238818Y-112424072D01*
X52232511Y-112417275D01*
X51921508Y-112055883D01*
X51915726Y-112048633D01*
X51632617Y-111665033D01*
X51627393Y-111657371D01*
X51373732Y-111253671D01*
X51369096Y-111245640D01*
X51146326Y-110824138D01*
X51142302Y-110815784D01*
X50951640Y-110378784D01*
X50948252Y-110370151D01*
X50891180Y-110207049D01*
X50790784Y-109920133D01*
X50788054Y-109911280D01*
X50786299Y-109904732D01*
X50664655Y-109450749D01*
X50662592Y-109441708D01*
X50642572Y-109335901D01*
X50573954Y-108973247D01*
X50572574Y-108964089D01*
X50565379Y-108900233D01*
X50519192Y-108490306D01*
X50518500Y-108481070D01*
X50500587Y-108002324D01*
X50500500Y-107997688D01*
X50500500Y-107818209D01*
X53299500Y-107818209D01*
X53299500Y-108181790D01*
X53335137Y-108543630D01*
X53406064Y-108900212D01*
X53406067Y-108900223D01*
X53511614Y-109248165D01*
X53650754Y-109584078D01*
X53650756Y-109584083D01*
X53822140Y-109904720D01*
X53822151Y-109904738D01*
X54024140Y-110207035D01*
X54024150Y-110207049D01*
X54254807Y-110488106D01*
X54511893Y-110745192D01*
X54511898Y-110745196D01*
X54511899Y-110745197D01*
X54792956Y-110975854D01*
X55095268Y-111177853D01*
X55095277Y-111177858D01*
X55095279Y-111177859D01*
X55415916Y-111349243D01*
X55415918Y-111349243D01*
X55415924Y-111349247D01*
X55751836Y-111488386D01*
X56099767Y-111593930D01*
X56099773Y-111593931D01*
X56099776Y-111593932D01*
X56099787Y-111593935D01*
X56438456Y-111661299D01*
X56456369Y-111664862D01*
X56818206Y-111700500D01*
X56818209Y-111700500D01*
X57181791Y-111700500D01*
X57181794Y-111700500D01*
X57543631Y-111664862D01*
X57613045Y-111651054D01*
X57900212Y-111593935D01*
X57900223Y-111593932D01*
X57900223Y-111593931D01*
X57900233Y-111593930D01*
X58248164Y-111488386D01*
X58584076Y-111349247D01*
X58904732Y-111177853D01*
X59207044Y-110975854D01*
X59488101Y-110745197D01*
X59745197Y-110488101D01*
X59975854Y-110207044D01*
X60177853Y-109904732D01*
X60349247Y-109584076D01*
X60488386Y-109248164D01*
X60593930Y-108900233D01*
X60593932Y-108900223D01*
X60593935Y-108900212D01*
X60664862Y-108543630D01*
X60700500Y-108181790D01*
X60700500Y-107818209D01*
X122799500Y-107818209D01*
X122799500Y-108181790D01*
X122835137Y-108543630D01*
X122906064Y-108900212D01*
X122906067Y-108900223D01*
X123011614Y-109248165D01*
X123150754Y-109584078D01*
X123150756Y-109584083D01*
X123322140Y-109904720D01*
X123322151Y-109904738D01*
X123524140Y-110207035D01*
X123524150Y-110207049D01*
X123754807Y-110488106D01*
X124011893Y-110745192D01*
X124011898Y-110745196D01*
X124011899Y-110745197D01*
X124292956Y-110975854D01*
X124595268Y-111177853D01*
X124595277Y-111177858D01*
X124595279Y-111177859D01*
X124915916Y-111349243D01*
X124915918Y-111349243D01*
X124915924Y-111349247D01*
X125251836Y-111488386D01*
X125599767Y-111593930D01*
X125599773Y-111593931D01*
X125599776Y-111593932D01*
X125599787Y-111593935D01*
X125938456Y-111661299D01*
X125956369Y-111664862D01*
X126318206Y-111700500D01*
X126318209Y-111700500D01*
X126681791Y-111700500D01*
X126681794Y-111700500D01*
X127043631Y-111664862D01*
X127113045Y-111651054D01*
X127400212Y-111593935D01*
X127400223Y-111593932D01*
X127400223Y-111593931D01*
X127400233Y-111593930D01*
X127748164Y-111488386D01*
X128084076Y-111349247D01*
X128404732Y-111177853D01*
X128707044Y-110975854D01*
X128988101Y-110745197D01*
X129245197Y-110488101D01*
X129475854Y-110207044D01*
X129677853Y-109904732D01*
X129849247Y-109584076D01*
X129988386Y-109248164D01*
X130093930Y-108900233D01*
X130093932Y-108900223D01*
X130093935Y-108900212D01*
X130164862Y-108543630D01*
X130200500Y-108181790D01*
X130200500Y-107818209D01*
X130164862Y-107456369D01*
X130093935Y-107099787D01*
X130093932Y-107099776D01*
X130093931Y-107099773D01*
X130093930Y-107099767D01*
X129988386Y-106751836D01*
X129849247Y-106415924D01*
X129766646Y-106261389D01*
X129677859Y-106095279D01*
X129677858Y-106095277D01*
X129677853Y-106095268D01*
X129475854Y-105792956D01*
X129245197Y-105511899D01*
X129245196Y-105511898D01*
X129245192Y-105511893D01*
X128988106Y-105254807D01*
X128707049Y-105024150D01*
X128707048Y-105024149D01*
X128707044Y-105024146D01*
X128404732Y-104822147D01*
X128404727Y-104822144D01*
X128404720Y-104822140D01*
X128084083Y-104650756D01*
X128084078Y-104650754D01*
X128079445Y-104648835D01*
X127982995Y-104608884D01*
X127748165Y-104511614D01*
X127400223Y-104406067D01*
X127400212Y-104406064D01*
X127043630Y-104335137D01*
X126771111Y-104308296D01*
X126681794Y-104299500D01*
X126318206Y-104299500D01*
X126235679Y-104307628D01*
X125956369Y-104335137D01*
X125599787Y-104406064D01*
X125599776Y-104406067D01*
X125251834Y-104511614D01*
X124915921Y-104650754D01*
X124915916Y-104650756D01*
X124595279Y-104822140D01*
X124595261Y-104822151D01*
X124292964Y-105024140D01*
X124292950Y-105024150D01*
X124011893Y-105254807D01*
X123754807Y-105511893D01*
X123524150Y-105792950D01*
X123524140Y-105792964D01*
X123322151Y-106095261D01*
X123322140Y-106095279D01*
X123150756Y-106415916D01*
X123150754Y-106415921D01*
X123011614Y-106751834D01*
X122906067Y-107099776D01*
X122906064Y-107099787D01*
X122835137Y-107456369D01*
X122799500Y-107818209D01*
X60700500Y-107818209D01*
X60664862Y-107456369D01*
X60593935Y-107099787D01*
X60593932Y-107099776D01*
X60593931Y-107099773D01*
X60593930Y-107099767D01*
X60488386Y-106751836D01*
X60349247Y-106415924D01*
X60269275Y-106266306D01*
X60266647Y-106261389D01*
X60177859Y-106095279D01*
X60177858Y-106095277D01*
X60177853Y-106095268D01*
X59975854Y-105792956D01*
X59745197Y-105511899D01*
X59745196Y-105511898D01*
X59745192Y-105511893D01*
X59488106Y-105254807D01*
X59207049Y-105024150D01*
X59207048Y-105024149D01*
X59207044Y-105024146D01*
X58904732Y-104822147D01*
X58904727Y-104822144D01*
X58904720Y-104822140D01*
X58584083Y-104650756D01*
X58584078Y-104650754D01*
X58579445Y-104648835D01*
X58482995Y-104608884D01*
X58248165Y-104511614D01*
X57900223Y-104406067D01*
X57900212Y-104406064D01*
X57543630Y-104335137D01*
X57271111Y-104308296D01*
X57181794Y-104299500D01*
X56818206Y-104299500D01*
X56735679Y-104307628D01*
X56456369Y-104335137D01*
X56099787Y-104406064D01*
X56099776Y-104406067D01*
X55751834Y-104511614D01*
X55415921Y-104650754D01*
X55415916Y-104650756D01*
X55095279Y-104822140D01*
X55095261Y-104822151D01*
X54792964Y-105024140D01*
X54792950Y-105024150D01*
X54511893Y-105254807D01*
X54254807Y-105511893D01*
X54024150Y-105792950D01*
X54024140Y-105792964D01*
X53822151Y-106095261D01*
X53822140Y-106095279D01*
X53650756Y-106415916D01*
X53650754Y-106415921D01*
X53511614Y-106751834D01*
X53406067Y-107099776D01*
X53406064Y-107099787D01*
X53335137Y-107456369D01*
X53299500Y-107818209D01*
X50500500Y-107818209D01*
X50500500Y-61793713D01*
X55649500Y-61793713D01*
X55649500Y-62006286D01*
X55668604Y-62126908D01*
X55682754Y-62216243D01*
X55730468Y-62363092D01*
X55748444Y-62418414D01*
X55844951Y-62607820D01*
X55969890Y-62779786D01*
X56120213Y-62930109D01*
X56292182Y-63055050D01*
X56300946Y-63059516D01*
X56351742Y-63107491D01*
X56368536Y-63175312D01*
X56345998Y-63241447D01*
X56300946Y-63280484D01*
X56292182Y-63284949D01*
X56120213Y-63409890D01*
X55969890Y-63560213D01*
X55844951Y-63732179D01*
X55748444Y-63921585D01*
X55682753Y-64123760D01*
X55649500Y-64333713D01*
X55649500Y-64546286D01*
X55682305Y-64753412D01*
X55682754Y-64756243D01*
X55747394Y-64955185D01*
X55748444Y-64958414D01*
X55844951Y-65147820D01*
X55969890Y-65319786D01*
X56120213Y-65470109D01*
X56292179Y-65595048D01*
X56292181Y-65595049D01*
X56292184Y-65595051D01*
X56301493Y-65599794D01*
X56352290Y-65647766D01*
X56369087Y-65715587D01*
X56346552Y-65781722D01*
X56301505Y-65820760D01*
X56292446Y-65825376D01*
X56292440Y-65825380D01*
X56238282Y-65864727D01*
X56238282Y-65864728D01*
X56870591Y-66497037D01*
X56807007Y-66514075D01*
X56692993Y-66579901D01*
X56599901Y-66672993D01*
X56534075Y-66787007D01*
X56517037Y-66850591D01*
X55884728Y-66218282D01*
X55884727Y-66218282D01*
X55845380Y-66272439D01*
X55748904Y-66461782D01*
X55683242Y-66663869D01*
X55683242Y-66663872D01*
X55650000Y-66873753D01*
X55650000Y-67086246D01*
X55683242Y-67296127D01*
X55683242Y-67296130D01*
X55748904Y-67498217D01*
X55845375Y-67687550D01*
X55884728Y-67741716D01*
X56517037Y-67109408D01*
X56534075Y-67172993D01*
X56599901Y-67287007D01*
X56692993Y-67380099D01*
X56807007Y-67445925D01*
X56870591Y-67462962D01*
X56269971Y-68063581D01*
X56348711Y-68180895D01*
X56349920Y-68184729D01*
X56352844Y-68187491D01*
X56360343Y-68217778D01*
X56369727Y-68247529D01*
X56368671Y-68251408D01*
X56369638Y-68255312D01*
X56359573Y-68284844D01*
X56351383Y-68314947D01*
X56348397Y-68317640D01*
X56347100Y-68321447D01*
X56302051Y-68360483D01*
X56292440Y-68365380D01*
X56238282Y-68404727D01*
X56238282Y-68404728D01*
X56870591Y-69037037D01*
X56807007Y-69054075D01*
X56692993Y-69119901D01*
X56599901Y-69212993D01*
X56534075Y-69327007D01*
X56517037Y-69390591D01*
X55884728Y-68758282D01*
X55884727Y-68758282D01*
X55845380Y-68812439D01*
X55748904Y-69001782D01*
X55683242Y-69203869D01*
X55683242Y-69203872D01*
X55650000Y-69413753D01*
X55650000Y-69626246D01*
X55683242Y-69836127D01*
X55683242Y-69836130D01*
X55748904Y-70038217D01*
X55845375Y-70227550D01*
X55884728Y-70281716D01*
X56517037Y-69649408D01*
X56534075Y-69712993D01*
X56599901Y-69827007D01*
X56692993Y-69920099D01*
X56807007Y-69985925D01*
X56870591Y-70002962D01*
X56269971Y-70603581D01*
X56348711Y-70720895D01*
X56349920Y-70724729D01*
X56352844Y-70727491D01*
X56360343Y-70757778D01*
X56369727Y-70787529D01*
X56368671Y-70791408D01*
X56369638Y-70795312D01*
X56359573Y-70824844D01*
X56351383Y-70854947D01*
X56348397Y-70857640D01*
X56347100Y-70861447D01*
X56302051Y-70900483D01*
X56292440Y-70905380D01*
X56238282Y-70944727D01*
X56238282Y-70944728D01*
X56870591Y-71577037D01*
X56807007Y-71594075D01*
X56692993Y-71659901D01*
X56599901Y-71752993D01*
X56534075Y-71867007D01*
X56517037Y-71930591D01*
X55884728Y-71298282D01*
X55884727Y-71298282D01*
X55845380Y-71352439D01*
X55748904Y-71541782D01*
X55683242Y-71743869D01*
X55683242Y-71743872D01*
X55650000Y-71953753D01*
X55650000Y-72166246D01*
X55683242Y-72376127D01*
X55683242Y-72376130D01*
X55748904Y-72578217D01*
X55845375Y-72767550D01*
X55884728Y-72821716D01*
X56517037Y-72189408D01*
X56534075Y-72252993D01*
X56599901Y-72367007D01*
X56692993Y-72460099D01*
X56807007Y-72525925D01*
X56870591Y-72542962D01*
X56269971Y-73143581D01*
X56348711Y-73260895D01*
X56349920Y-73264729D01*
X56352844Y-73267491D01*
X56360343Y-73297778D01*
X56369727Y-73327529D01*
X56368671Y-73331408D01*
X56369638Y-73335312D01*
X56359573Y-73364844D01*
X56351383Y-73394947D01*
X56348397Y-73397640D01*
X56347100Y-73401447D01*
X56302051Y-73440483D01*
X56292440Y-73445380D01*
X56238282Y-73484727D01*
X56238282Y-73484728D01*
X56870591Y-74117037D01*
X56807007Y-74134075D01*
X56692993Y-74199901D01*
X56599901Y-74292993D01*
X56534075Y-74407007D01*
X56517037Y-74470591D01*
X55884728Y-73838282D01*
X55884727Y-73838282D01*
X55845380Y-73892439D01*
X55748904Y-74081782D01*
X55683242Y-74283869D01*
X55683242Y-74283872D01*
X55650000Y-74493753D01*
X55650000Y-74706246D01*
X55683242Y-74916127D01*
X55683242Y-74916130D01*
X55748904Y-75118217D01*
X55845375Y-75307550D01*
X55884728Y-75361716D01*
X56517037Y-74729408D01*
X56534075Y-74792993D01*
X56599901Y-74907007D01*
X56692993Y-75000099D01*
X56807007Y-75065925D01*
X56870591Y-75082962D01*
X56269971Y-75683581D01*
X56348711Y-75800895D01*
X56349920Y-75804729D01*
X56352844Y-75807491D01*
X56360343Y-75837778D01*
X56369727Y-75867529D01*
X56368671Y-75871408D01*
X56369638Y-75875312D01*
X56359573Y-75904844D01*
X56351383Y-75934947D01*
X56348397Y-75937640D01*
X56347100Y-75941447D01*
X56302051Y-75980483D01*
X56292440Y-75985380D01*
X56238282Y-76024727D01*
X56238282Y-76024728D01*
X56870591Y-76657037D01*
X56807007Y-76674075D01*
X56692993Y-76739901D01*
X56599901Y-76832993D01*
X56534075Y-76947007D01*
X56517037Y-77010591D01*
X55884728Y-76378282D01*
X55884727Y-76378282D01*
X55845380Y-76432439D01*
X55748904Y-76621782D01*
X55683242Y-76823869D01*
X55683242Y-76823872D01*
X55650000Y-77033753D01*
X55650000Y-77246246D01*
X55683242Y-77456127D01*
X55683242Y-77456130D01*
X55748904Y-77658217D01*
X55845375Y-77847550D01*
X55884728Y-77901716D01*
X56517037Y-77269408D01*
X56534075Y-77332993D01*
X56599901Y-77447007D01*
X56692993Y-77540099D01*
X56807007Y-77605925D01*
X56870591Y-77622962D01*
X56269971Y-78223581D01*
X56348711Y-78340895D01*
X56349920Y-78344729D01*
X56352844Y-78347491D01*
X56360343Y-78377778D01*
X56369727Y-78407529D01*
X56368671Y-78411408D01*
X56369638Y-78415312D01*
X56359573Y-78444844D01*
X56351383Y-78474947D01*
X56348397Y-78477640D01*
X56347100Y-78481447D01*
X56302051Y-78520483D01*
X56292440Y-78525380D01*
X56238282Y-78564727D01*
X56238282Y-78564728D01*
X56870591Y-79197037D01*
X56807007Y-79214075D01*
X56692993Y-79279901D01*
X56599901Y-79372993D01*
X56534075Y-79487007D01*
X56517037Y-79550591D01*
X55884728Y-78918282D01*
X55884727Y-78918282D01*
X55845380Y-78972439D01*
X55748904Y-79161782D01*
X55683242Y-79363869D01*
X55683242Y-79363872D01*
X55650000Y-79573753D01*
X55650000Y-79786246D01*
X55683242Y-79996127D01*
X55683242Y-79996130D01*
X55748904Y-80198217D01*
X55845375Y-80387550D01*
X55884728Y-80441716D01*
X56517037Y-79809408D01*
X56534075Y-79872993D01*
X56599901Y-79987007D01*
X56692993Y-80080099D01*
X56807007Y-80145925D01*
X56870590Y-80162962D01*
X56238282Y-80795269D01*
X56238282Y-80795270D01*
X56292452Y-80834626D01*
X56292451Y-80834626D01*
X56301495Y-80839234D01*
X56352292Y-80887208D01*
X56369087Y-80955029D01*
X56346550Y-81021164D01*
X56301499Y-81060202D01*
X56292182Y-81064949D01*
X56120213Y-81189890D01*
X55969890Y-81340213D01*
X55844951Y-81512179D01*
X55748444Y-81701585D01*
X55682753Y-81903760D01*
X55649500Y-82113713D01*
X55649500Y-82326286D01*
X55682538Y-82534884D01*
X55682754Y-82536243D01*
X55746061Y-82731082D01*
X55748444Y-82738414D01*
X55844951Y-82927820D01*
X55969890Y-83099786D01*
X56120213Y-83250109D01*
X56292182Y-83375050D01*
X56300946Y-83379516D01*
X56351742Y-83427491D01*
X56368536Y-83495312D01*
X56345998Y-83561447D01*
X56300946Y-83600484D01*
X56292182Y-83604949D01*
X56120213Y-83729890D01*
X55969890Y-83880213D01*
X55844951Y-84052179D01*
X55748444Y-84241585D01*
X55748443Y-84241587D01*
X55748443Y-84241588D01*
X55730547Y-84296666D01*
X55682753Y-84443760D01*
X55656713Y-84608174D01*
X55649500Y-84653713D01*
X55649500Y-84866287D01*
X55651541Y-84879172D01*
X55677429Y-85042627D01*
X55682754Y-85076243D01*
X55745624Y-85269737D01*
X55748444Y-85278414D01*
X55844951Y-85467820D01*
X55969890Y-85639786D01*
X56120213Y-85790109D01*
X56292182Y-85915050D01*
X56300946Y-85919516D01*
X56351742Y-85967491D01*
X56368536Y-86035312D01*
X56345998Y-86101447D01*
X56300946Y-86140484D01*
X56292182Y-86144949D01*
X56120213Y-86269890D01*
X55969890Y-86420213D01*
X55844951Y-86592179D01*
X55748444Y-86781585D01*
X55682753Y-86983760D01*
X55649500Y-87193713D01*
X55649500Y-87406286D01*
X55668604Y-87526908D01*
X55682754Y-87616243D01*
X55730468Y-87763092D01*
X55748444Y-87818414D01*
X55844951Y-88007820D01*
X55969890Y-88179786D01*
X56120213Y-88330109D01*
X56292182Y-88455050D01*
X56300946Y-88459516D01*
X56351742Y-88507491D01*
X56368536Y-88575312D01*
X56345998Y-88641447D01*
X56300946Y-88680484D01*
X56292182Y-88684949D01*
X56120213Y-88809890D01*
X55969890Y-88960213D01*
X55844951Y-89132179D01*
X55748444Y-89321585D01*
X55682753Y-89523760D01*
X55649500Y-89733713D01*
X55649500Y-89946286D01*
X55668604Y-90066908D01*
X55682754Y-90156243D01*
X55730468Y-90303092D01*
X55748444Y-90358414D01*
X55844951Y-90547820D01*
X55969890Y-90719786D01*
X56120213Y-90870109D01*
X56292179Y-90995048D01*
X56292181Y-90995049D01*
X56292184Y-90995051D01*
X56301493Y-90999794D01*
X56352290Y-91047766D01*
X56369087Y-91115587D01*
X56346552Y-91181722D01*
X56301505Y-91220760D01*
X56292446Y-91225376D01*
X56292440Y-91225380D01*
X56238282Y-91264727D01*
X56238282Y-91264728D01*
X56870591Y-91897037D01*
X56807007Y-91914075D01*
X56692993Y-91979901D01*
X56599901Y-92072993D01*
X56534075Y-92187007D01*
X56517037Y-92250591D01*
X55884728Y-91618282D01*
X55884727Y-91618282D01*
X55845380Y-91672439D01*
X55748904Y-91861782D01*
X55683242Y-92063869D01*
X55683242Y-92063872D01*
X55650000Y-92273753D01*
X55650000Y-92486246D01*
X55683242Y-92696127D01*
X55683242Y-92696130D01*
X55748904Y-92898217D01*
X55845375Y-93087550D01*
X55884728Y-93141716D01*
X56517037Y-92509408D01*
X56534075Y-92572993D01*
X56599901Y-92687007D01*
X56692993Y-92780099D01*
X56807007Y-92845925D01*
X56870591Y-92862962D01*
X56269971Y-93463581D01*
X56348711Y-93580895D01*
X56349920Y-93584729D01*
X56352844Y-93587491D01*
X56360343Y-93617778D01*
X56369727Y-93647529D01*
X56368671Y-93651408D01*
X56369638Y-93655312D01*
X56359573Y-93684844D01*
X56351383Y-93714947D01*
X56348397Y-93717640D01*
X56347100Y-93721447D01*
X56302051Y-93760483D01*
X56292440Y-93765380D01*
X56238282Y-93804727D01*
X56238282Y-93804728D01*
X56870591Y-94437037D01*
X56807007Y-94454075D01*
X56692993Y-94519901D01*
X56599901Y-94612993D01*
X56534075Y-94727007D01*
X56517037Y-94790591D01*
X55884728Y-94158282D01*
X55884727Y-94158282D01*
X55845380Y-94212439D01*
X55748904Y-94401782D01*
X55683242Y-94603869D01*
X55683242Y-94603872D01*
X55650000Y-94813753D01*
X55650000Y-95026246D01*
X55683242Y-95236127D01*
X55683242Y-95236130D01*
X55748904Y-95438217D01*
X55845375Y-95627550D01*
X55884728Y-95681716D01*
X56517037Y-95049408D01*
X56534075Y-95112993D01*
X56599901Y-95227007D01*
X56692993Y-95320099D01*
X56807007Y-95385925D01*
X56870591Y-95402962D01*
X56269971Y-96003581D01*
X56348711Y-96120895D01*
X56349920Y-96124729D01*
X56352844Y-96127491D01*
X56360343Y-96157778D01*
X56369727Y-96187529D01*
X56368671Y-96191408D01*
X56369638Y-96195312D01*
X56359573Y-96224844D01*
X56351383Y-96254947D01*
X56348397Y-96257640D01*
X56347100Y-96261447D01*
X56302051Y-96300483D01*
X56292440Y-96305380D01*
X56238282Y-96344727D01*
X56238282Y-96344728D01*
X56870591Y-96977037D01*
X56807007Y-96994075D01*
X56692993Y-97059901D01*
X56599901Y-97152993D01*
X56534075Y-97267007D01*
X56517037Y-97330591D01*
X55884728Y-96698282D01*
X55884727Y-96698282D01*
X55845380Y-96752439D01*
X55748904Y-96941782D01*
X55683242Y-97143869D01*
X55683242Y-97143872D01*
X55650000Y-97353753D01*
X55650000Y-97566246D01*
X55683242Y-97776127D01*
X55683242Y-97776130D01*
X55748904Y-97978217D01*
X55845375Y-98167550D01*
X55884728Y-98221716D01*
X56517037Y-97589408D01*
X56534075Y-97652993D01*
X56599901Y-97767007D01*
X56692993Y-97860099D01*
X56807007Y-97925925D01*
X56870590Y-97942962D01*
X56200370Y-98613181D01*
X56139047Y-98646666D01*
X56112698Y-98649500D01*
X56102134Y-98649500D01*
X56102123Y-98649501D01*
X56042516Y-98655908D01*
X55907671Y-98706202D01*
X55907664Y-98706206D01*
X55792455Y-98792452D01*
X55792452Y-98792455D01*
X55706206Y-98907664D01*
X55706202Y-98907671D01*
X55655908Y-99042517D01*
X55650625Y-99091659D01*
X55649501Y-99102123D01*
X55649500Y-99102135D01*
X55649500Y-100897870D01*
X55649501Y-100897876D01*
X55655908Y-100957483D01*
X55706202Y-101092328D01*
X55706206Y-101092335D01*
X55792452Y-101207544D01*
X55792455Y-101207547D01*
X55907664Y-101293793D01*
X55907671Y-101293797D01*
X56042517Y-101344091D01*
X56042516Y-101344091D01*
X56049444Y-101344835D01*
X56102127Y-101350500D01*
X57897872Y-101350499D01*
X57957483Y-101344091D01*
X58092331Y-101293796D01*
X58207546Y-101207546D01*
X58293796Y-101092331D01*
X58344091Y-100957483D01*
X58350500Y-100897873D01*
X58350499Y-99102128D01*
X58344091Y-99042517D01*
X58341317Y-99035080D01*
X58293797Y-98907671D01*
X58293793Y-98907664D01*
X58207547Y-98792455D01*
X58207544Y-98792452D01*
X58092335Y-98706206D01*
X58092328Y-98706202D01*
X57957482Y-98655908D01*
X57957483Y-98655908D01*
X57897883Y-98649501D01*
X57897881Y-98649500D01*
X57897873Y-98649500D01*
X57897865Y-98649500D01*
X57887309Y-98649500D01*
X57820270Y-98629815D01*
X57799628Y-98613181D01*
X57129408Y-97942962D01*
X57192993Y-97925925D01*
X57307007Y-97860099D01*
X57400099Y-97767007D01*
X57465925Y-97652993D01*
X57482962Y-97589409D01*
X58115270Y-98221717D01*
X58115270Y-98221716D01*
X58154622Y-98167554D01*
X58251095Y-97978217D01*
X58316757Y-97776130D01*
X58316757Y-97776127D01*
X58350000Y-97566246D01*
X58350000Y-97353753D01*
X58316757Y-97143872D01*
X58316757Y-97143869D01*
X58251095Y-96941782D01*
X58154624Y-96752449D01*
X58115270Y-96698282D01*
X58115269Y-96698282D01*
X57482962Y-97330590D01*
X57465925Y-97267007D01*
X57400099Y-97152993D01*
X57307007Y-97059901D01*
X57192993Y-96994075D01*
X57129409Y-96977037D01*
X57761716Y-96344728D01*
X57707550Y-96305375D01*
X57697954Y-96300486D01*
X57647157Y-96252512D01*
X57630361Y-96184692D01*
X57652897Y-96118556D01*
X57697954Y-96079514D01*
X57707554Y-96074622D01*
X57761716Y-96035270D01*
X57761717Y-96035270D01*
X57129408Y-95402962D01*
X57192993Y-95385925D01*
X57307007Y-95320099D01*
X57400099Y-95227007D01*
X57465925Y-95112993D01*
X57482962Y-95049409D01*
X58115270Y-95681717D01*
X58115270Y-95681716D01*
X58154622Y-95627554D01*
X58251095Y-95438217D01*
X58316757Y-95236130D01*
X58316757Y-95236127D01*
X58350000Y-95026246D01*
X58350000Y-94813753D01*
X58316757Y-94603872D01*
X58316757Y-94603869D01*
X58251095Y-94401782D01*
X58154624Y-94212449D01*
X58115270Y-94158282D01*
X58115269Y-94158282D01*
X57482962Y-94790590D01*
X57465925Y-94727007D01*
X57400099Y-94612993D01*
X57307007Y-94519901D01*
X57192993Y-94454075D01*
X57129409Y-94437037D01*
X57761716Y-93804728D01*
X57707550Y-93765375D01*
X57697954Y-93760486D01*
X57647157Y-93712512D01*
X57630361Y-93644692D01*
X57652897Y-93578556D01*
X57697954Y-93539514D01*
X57707554Y-93534622D01*
X57761716Y-93495270D01*
X57761717Y-93495270D01*
X57129408Y-92862962D01*
X57192993Y-92845925D01*
X57307007Y-92780099D01*
X57400099Y-92687007D01*
X57465925Y-92572993D01*
X57482962Y-92509409D01*
X58115270Y-93141717D01*
X58115270Y-93141716D01*
X58154622Y-93087554D01*
X58251095Y-92898217D01*
X58316757Y-92696130D01*
X58316757Y-92696127D01*
X58350000Y-92486246D01*
X58350000Y-92273753D01*
X58316757Y-92063872D01*
X58316757Y-92063869D01*
X58251095Y-91861782D01*
X58154624Y-91672449D01*
X58115270Y-91618282D01*
X58115269Y-91618282D01*
X57482962Y-92250590D01*
X57465925Y-92187007D01*
X57400099Y-92072993D01*
X57307007Y-91979901D01*
X57192993Y-91914075D01*
X57129409Y-91897037D01*
X57761716Y-91264728D01*
X57707547Y-91225373D01*
X57707547Y-91225372D01*
X57698500Y-91220763D01*
X57647706Y-91172788D01*
X57630912Y-91104966D01*
X57653451Y-91038832D01*
X57698508Y-90999793D01*
X57707816Y-90995051D01*
X57877008Y-90872127D01*
X57879786Y-90870109D01*
X57879788Y-90870106D01*
X57879792Y-90870104D01*
X58030104Y-90719792D01*
X58051200Y-90690756D01*
X58086903Y-90641615D01*
X58091234Y-90638274D01*
X58093508Y-90633297D01*
X58118610Y-90617164D01*
X58142233Y-90598949D01*
X58148904Y-90597696D01*
X58152286Y-90595523D01*
X58187221Y-90590500D01*
X58277770Y-90590500D01*
X58344809Y-90610185D01*
X58365451Y-90626819D01*
X59213181Y-91474548D01*
X59246666Y-91535871D01*
X59249500Y-91562229D01*
X59249500Y-96473918D01*
X59249500Y-96473920D01*
X59249499Y-96473920D01*
X59278340Y-96618907D01*
X59278343Y-96618917D01*
X59334914Y-96755492D01*
X59334915Y-96755494D01*
X59334916Y-96755495D01*
X59353847Y-96783828D01*
X59367812Y-96804727D01*
X59367813Y-96804730D01*
X59417046Y-96878414D01*
X59417052Y-96878421D01*
X60921584Y-98382952D01*
X60921586Y-98382954D01*
X60951058Y-98402645D01*
X60995270Y-98432186D01*
X61044505Y-98465084D01*
X61044506Y-98465084D01*
X61044507Y-98465085D01*
X61044509Y-98465086D01*
X61181082Y-98521656D01*
X61181087Y-98521658D01*
X61181091Y-98521658D01*
X61181092Y-98521659D01*
X61326079Y-98550500D01*
X61326082Y-98550500D01*
X64273920Y-98550500D01*
X64371462Y-98531096D01*
X64418913Y-98521658D01*
X64555495Y-98465084D01*
X64604729Y-98432186D01*
X64604734Y-98432183D01*
X64629071Y-98415921D01*
X64678416Y-98382952D01*
X66782951Y-96278416D01*
X66788591Y-96269975D01*
X66865084Y-96155495D01*
X66921658Y-96018913D01*
X66950500Y-95873918D01*
X66950500Y-92562230D01*
X66970185Y-92495191D01*
X66986819Y-92474549D01*
X68174549Y-91286819D01*
X68235872Y-91253334D01*
X68262230Y-91250500D01*
X87092111Y-91250500D01*
X87116676Y-91257713D01*
X87142069Y-91261009D01*
X87152721Y-91268297D01*
X87159150Y-91270185D01*
X87172019Y-91279681D01*
X87176056Y-91283083D01*
X87222490Y-91329517D01*
X87285331Y-91375173D01*
X87288738Y-91378045D01*
X87305659Y-91403597D01*
X87324381Y-91427875D01*
X87325138Y-91433010D01*
X87327316Y-91436299D01*
X87327490Y-91448963D01*
X87332448Y-91482593D01*
X87330893Y-91502340D01*
X88062425Y-92233871D01*
X88003147Y-92249755D01*
X87886853Y-92316898D01*
X87791898Y-92411853D01*
X87724755Y-92528147D01*
X87708871Y-92587425D01*
X86977340Y-91855894D01*
X86917084Y-91938830D01*
X86809897Y-92149197D01*
X86736934Y-92373752D01*
X86700000Y-92606947D01*
X86700000Y-92843052D01*
X86736934Y-93076247D01*
X86809897Y-93300802D01*
X86917087Y-93511174D01*
X87007035Y-93634978D01*
X87030515Y-93700784D01*
X87014689Y-93768838D01*
X86965359Y-93816779D01*
X86965454Y-93816953D01*
X86964830Y-93817293D01*
X86964584Y-93817533D01*
X86963511Y-93818013D01*
X86957664Y-93821206D01*
X86842455Y-93907452D01*
X86842452Y-93907455D01*
X86756206Y-94022664D01*
X86756202Y-94022671D01*
X86705908Y-94157517D01*
X86700004Y-94212439D01*
X86699501Y-94217123D01*
X86699500Y-94217135D01*
X86699500Y-96312870D01*
X86699501Y-96312876D01*
X86705908Y-96372483D01*
X86756202Y-96507328D01*
X86756206Y-96507335D01*
X86842452Y-96622544D01*
X86842455Y-96622547D01*
X86957664Y-96708793D01*
X86957671Y-96708797D01*
X87092517Y-96759091D01*
X87092516Y-96759091D01*
X87099444Y-96759835D01*
X87152127Y-96765500D01*
X89247872Y-96765499D01*
X89307483Y-96759091D01*
X89442331Y-96708796D01*
X89557546Y-96622546D01*
X89643796Y-96507331D01*
X89694091Y-96372483D01*
X89700500Y-96312873D01*
X89700499Y-94217128D01*
X89694091Y-94157517D01*
X89680278Y-94120483D01*
X89643797Y-94022671D01*
X89643793Y-94022664D01*
X89557547Y-93907455D01*
X89557544Y-93907452D01*
X89442335Y-93821206D01*
X89434546Y-93816953D01*
X89436267Y-93813799D01*
X89394025Y-93782186D01*
X89369599Y-93716725D01*
X89384442Y-93648450D01*
X89392964Y-93634977D01*
X89482914Y-93511171D01*
X89590102Y-93300802D01*
X89663065Y-93076247D01*
X89700000Y-92843052D01*
X89700000Y-92606947D01*
X89663065Y-92373752D01*
X89590102Y-92149197D01*
X89482914Y-91938828D01*
X89422658Y-91855894D01*
X89422658Y-91855893D01*
X88691127Y-92587423D01*
X88675245Y-92528147D01*
X88608102Y-92411853D01*
X88513147Y-92316898D01*
X88396853Y-92249755D01*
X88337574Y-92233871D01*
X89069105Y-91502340D01*
X89067551Y-91482594D01*
X89081915Y-91414216D01*
X89118284Y-91372547D01*
X89177510Y-91329517D01*
X89344517Y-91162510D01*
X89483343Y-90971433D01*
X89590568Y-90760992D01*
X89663553Y-90536368D01*
X89682063Y-90419500D01*
X89700500Y-90303097D01*
X89700500Y-90066902D01*
X89663553Y-89833631D01*
X89627117Y-89721494D01*
X89590568Y-89609008D01*
X89590566Y-89609005D01*
X89590566Y-89609003D01*
X89483342Y-89398566D01*
X89427414Y-89321588D01*
X89344517Y-89207490D01*
X89177510Y-89040483D01*
X89142872Y-89015317D01*
X89100207Y-88959989D01*
X89094228Y-88890375D01*
X89126833Y-88828580D01*
X89142873Y-88814682D01*
X89177510Y-88789517D01*
X89344517Y-88622510D01*
X89483343Y-88431433D01*
X89590568Y-88220992D01*
X89663553Y-87996368D01*
X89700500Y-87763097D01*
X89700500Y-87526902D01*
X89663553Y-87293631D01*
X89590566Y-87069003D01*
X89483342Y-86858566D01*
X89344517Y-86667490D01*
X89177510Y-86500483D01*
X89142872Y-86475317D01*
X89100207Y-86419989D01*
X89094228Y-86350375D01*
X89126833Y-86288580D01*
X89142873Y-86274682D01*
X89177510Y-86249517D01*
X89344517Y-86082510D01*
X89483343Y-85891433D01*
X89590568Y-85680992D01*
X89663553Y-85456368D01*
X89673417Y-85394089D01*
X89700500Y-85223097D01*
X89700500Y-84986902D01*
X89663553Y-84753631D01*
X89616291Y-84608174D01*
X89590568Y-84529008D01*
X89590566Y-84529005D01*
X89590566Y-84529003D01*
X89534002Y-84417991D01*
X89483343Y-84318567D01*
X89344517Y-84127490D01*
X89177510Y-83960483D01*
X89142872Y-83935317D01*
X89100207Y-83879989D01*
X89094228Y-83810375D01*
X89126833Y-83748580D01*
X89142873Y-83734682D01*
X89177510Y-83709517D01*
X89344517Y-83542510D01*
X89472313Y-83366613D01*
X89527643Y-83323949D01*
X89572631Y-83315500D01*
X90202770Y-83315500D01*
X90269809Y-83335185D01*
X90290451Y-83351819D01*
X91713181Y-84774548D01*
X91746666Y-84835871D01*
X91749500Y-84862229D01*
X91749500Y-96073918D01*
X91749500Y-96073920D01*
X91749499Y-96073920D01*
X91778340Y-96218907D01*
X91778343Y-96218917D01*
X91834914Y-96355492D01*
X91867812Y-96404727D01*
X91867813Y-96404730D01*
X91917046Y-96478414D01*
X91917052Y-96478421D01*
X94287049Y-98848416D01*
X94346297Y-98907664D01*
X94391585Y-98952952D01*
X94514498Y-99035080D01*
X94514511Y-99035087D01*
X94651082Y-99091656D01*
X94651087Y-99091658D01*
X94651091Y-99091658D01*
X94651092Y-99091659D01*
X94796079Y-99120500D01*
X94796082Y-99120500D01*
X94943917Y-99120500D01*
X98686386Y-99120500D01*
X98753425Y-99140185D01*
X98786702Y-99171612D01*
X98796172Y-99184646D01*
X98935354Y-99323828D01*
X99094595Y-99439524D01*
X99217992Y-99502397D01*
X99271213Y-99529515D01*
X99322009Y-99577489D01*
X99338804Y-99645310D01*
X99316267Y-99711445D01*
X99271213Y-99750485D01*
X99094594Y-99840476D01*
X99003741Y-99906485D01*
X98935354Y-99956172D01*
X98935352Y-99956174D01*
X98935351Y-99956174D01*
X98796174Y-100095351D01*
X98796174Y-100095352D01*
X98796172Y-100095354D01*
X98746485Y-100163741D01*
X98680476Y-100254594D01*
X98591117Y-100429970D01*
X98530290Y-100617173D01*
X98499500Y-100811577D01*
X98499500Y-101008422D01*
X98530290Y-101202826D01*
X98591117Y-101390029D01*
X98680476Y-101565405D01*
X98796172Y-101724646D01*
X98935354Y-101863828D01*
X99094595Y-101979524D01*
X99217992Y-102042397D01*
X99271213Y-102069515D01*
X99322009Y-102117489D01*
X99338804Y-102185310D01*
X99316267Y-102251445D01*
X99271213Y-102290485D01*
X99094594Y-102380476D01*
X99003741Y-102446485D01*
X98935354Y-102496172D01*
X98935352Y-102496174D01*
X98935351Y-102496174D01*
X98796174Y-102635351D01*
X98796174Y-102635352D01*
X98796172Y-102635354D01*
X98746485Y-102703741D01*
X98680476Y-102794594D01*
X98591117Y-102969970D01*
X98530290Y-103157173D01*
X98499500Y-103351577D01*
X98499500Y-103548422D01*
X98530290Y-103742826D01*
X98591117Y-103930029D01*
X98680476Y-104105405D01*
X98796172Y-104264646D01*
X98935354Y-104403828D01*
X99054784Y-104490600D01*
X99094596Y-104519525D01*
X99271763Y-104609795D01*
X99322560Y-104657769D01*
X99339355Y-104725590D01*
X99316818Y-104791725D01*
X99271764Y-104830765D01*
X99094856Y-104920904D01*
X98935678Y-105036555D01*
X98796555Y-105175678D01*
X98680904Y-105334856D01*
X98591581Y-105510162D01*
X98530781Y-105697283D01*
X98524016Y-105740000D01*
X99624722Y-105740000D01*
X99580667Y-105816306D01*
X99550000Y-105930756D01*
X99550000Y-106049244D01*
X99580667Y-106163694D01*
X99624722Y-106240000D01*
X98524016Y-106240000D01*
X98530781Y-106282716D01*
X98591581Y-106469837D01*
X98680904Y-106645143D01*
X98796555Y-106804321D01*
X98935678Y-106943444D01*
X99094856Y-107059095D01*
X99270164Y-107148418D01*
X99457294Y-107209221D01*
X99651618Y-107240000D01*
X99750000Y-107240000D01*
X99750000Y-106365277D01*
X99826306Y-106409333D01*
X99940756Y-106440000D01*
X100059244Y-106440000D01*
X100173694Y-106409333D01*
X100250000Y-106365277D01*
X100250000Y-107240000D01*
X100348382Y-107240000D01*
X100542705Y-107209221D01*
X100729835Y-107148418D01*
X100905143Y-107059095D01*
X101064321Y-106943444D01*
X101203444Y-106804321D01*
X101319095Y-106645143D01*
X101408418Y-106469837D01*
X101469218Y-106282716D01*
X101475984Y-106240000D01*
X100375278Y-106240000D01*
X100419333Y-106163694D01*
X100450000Y-106049244D01*
X100450000Y-105930756D01*
X100419333Y-105816306D01*
X100375278Y-105740000D01*
X101475984Y-105740000D01*
X101469218Y-105697283D01*
X101408418Y-105510162D01*
X101319095Y-105334856D01*
X101203444Y-105175678D01*
X101064321Y-105036555D01*
X100905143Y-104920904D01*
X100728235Y-104830765D01*
X100677439Y-104782790D01*
X100660644Y-104714969D01*
X100683181Y-104648835D01*
X100728236Y-104609795D01*
X100730022Y-104608884D01*
X100730025Y-104608884D01*
X100905405Y-104519524D01*
X101064646Y-104403828D01*
X101203828Y-104264646D01*
X101319524Y-104105405D01*
X101408884Y-103930025D01*
X101469709Y-103742826D01*
X101500500Y-103548422D01*
X101500500Y-103351577D01*
X101469709Y-103157173D01*
X101408882Y-102969970D01*
X101319523Y-102794594D01*
X101203828Y-102635354D01*
X101064646Y-102496172D01*
X100985025Y-102438324D01*
X100905403Y-102380474D01*
X100728787Y-102290485D01*
X100677990Y-102242511D01*
X100661195Y-102174690D01*
X100683732Y-102108555D01*
X100728787Y-102069515D01*
X100905403Y-101979525D01*
X100905402Y-101979525D01*
X100905405Y-101979524D01*
X101064646Y-101863828D01*
X101203828Y-101724646D01*
X101319524Y-101565405D01*
X101408884Y-101390025D01*
X101469709Y-101202826D01*
X101487209Y-101092335D01*
X101500500Y-101008422D01*
X101500500Y-100811577D01*
X101469709Y-100617173D01*
X101408882Y-100429970D01*
X101319523Y-100254594D01*
X101203828Y-100095354D01*
X101064646Y-99956172D01*
X100985025Y-99898324D01*
X100905403Y-99840474D01*
X100728787Y-99750485D01*
X100677990Y-99702511D01*
X100661195Y-99634690D01*
X100683732Y-99568555D01*
X100728787Y-99529515D01*
X100905403Y-99439525D01*
X100905402Y-99439525D01*
X100905405Y-99439524D01*
X101064646Y-99323828D01*
X101203828Y-99184646D01*
X101319524Y-99025405D01*
X101408884Y-98850025D01*
X101469709Y-98662826D01*
X101470805Y-98655908D01*
X101500500Y-98468422D01*
X101500500Y-98271577D01*
X101469709Y-98077173D01*
X101408882Y-97889970D01*
X101319523Y-97714594D01*
X101274767Y-97652993D01*
X101203828Y-97555354D01*
X101064646Y-97416172D01*
X100978734Y-97353753D01*
X100905403Y-97300474D01*
X100728787Y-97210485D01*
X100677990Y-97162511D01*
X100661195Y-97094690D01*
X100683732Y-97028555D01*
X100728787Y-96989515D01*
X100905403Y-96899525D01*
X100905402Y-96899525D01*
X100905405Y-96899524D01*
X101064646Y-96783828D01*
X101203828Y-96644646D01*
X101319524Y-96485405D01*
X101408884Y-96310025D01*
X101469709Y-96122826D01*
X101474180Y-96094595D01*
X101500500Y-95928422D01*
X101500500Y-95731577D01*
X101469709Y-95537173D01*
X101408882Y-95349970D01*
X101319523Y-95174594D01*
X101299408Y-95146908D01*
X101203828Y-95015354D01*
X101064646Y-94876172D01*
X100905405Y-94760476D01*
X100730025Y-94671116D01*
X100730024Y-94671115D01*
X100728235Y-94670204D01*
X100677439Y-94622230D01*
X100660644Y-94554409D01*
X100683181Y-94488274D01*
X100728236Y-94449234D01*
X100905141Y-94359097D01*
X101064321Y-94243444D01*
X101203444Y-94104321D01*
X101319095Y-93945143D01*
X101408418Y-93769837D01*
X101469218Y-93582716D01*
X101475984Y-93540000D01*
X100375278Y-93540000D01*
X100419333Y-93463694D01*
X100450000Y-93349244D01*
X100450000Y-93230756D01*
X100419333Y-93116306D01*
X100375278Y-93040000D01*
X101475984Y-93040000D01*
X101469218Y-92997283D01*
X101408418Y-92810162D01*
X101319095Y-92634856D01*
X101203444Y-92475678D01*
X101064321Y-92336555D01*
X100905141Y-92220902D01*
X100727685Y-92130485D01*
X100676888Y-92082511D01*
X100660093Y-92014690D01*
X100682630Y-91948555D01*
X100727685Y-91909515D01*
X100905141Y-91819097D01*
X101064321Y-91703444D01*
X101203444Y-91564321D01*
X101319095Y-91405143D01*
X101408418Y-91229837D01*
X101469218Y-91042716D01*
X101475984Y-91000000D01*
X100375278Y-91000000D01*
X100419333Y-90923694D01*
X100450000Y-90809244D01*
X100450000Y-90690756D01*
X100419333Y-90576306D01*
X100375278Y-90500000D01*
X101475984Y-90500000D01*
X101469218Y-90457283D01*
X101408418Y-90270162D01*
X101319095Y-90094856D01*
X101203444Y-89935678D01*
X101064321Y-89796555D01*
X100905143Y-89680904D01*
X100729835Y-89591581D01*
X100542705Y-89530778D01*
X100348382Y-89500000D01*
X100250000Y-89500000D01*
X100250000Y-90374722D01*
X100173694Y-90330667D01*
X100059244Y-90300000D01*
X99940756Y-90300000D01*
X99826306Y-90330667D01*
X99750000Y-90374722D01*
X99750000Y-89500000D01*
X99651618Y-89500000D01*
X99457294Y-89530778D01*
X99270164Y-89591581D01*
X99094856Y-89680904D01*
X98935678Y-89796555D01*
X98796555Y-89935678D01*
X98680904Y-90094856D01*
X98591581Y-90270162D01*
X98530781Y-90457283D01*
X98524016Y-90500000D01*
X99624722Y-90500000D01*
X99580667Y-90576306D01*
X99550000Y-90690756D01*
X99550000Y-90809244D01*
X99580667Y-90923694D01*
X99624722Y-91000000D01*
X98524016Y-91000000D01*
X98530781Y-91042716D01*
X98591581Y-91229837D01*
X98680904Y-91405143D01*
X98796555Y-91564321D01*
X98935678Y-91703444D01*
X99094856Y-91819095D01*
X99272315Y-91909515D01*
X99323111Y-91957489D01*
X99339906Y-92025310D01*
X99317369Y-92091445D01*
X99272315Y-92130485D01*
X99094856Y-92220904D01*
X98935678Y-92336555D01*
X98796555Y-92475678D01*
X98680904Y-92634856D01*
X98591581Y-92810162D01*
X98530781Y-92997283D01*
X98524016Y-93040000D01*
X99624722Y-93040000D01*
X99580667Y-93116306D01*
X99550000Y-93230756D01*
X99550000Y-93349244D01*
X99580667Y-93463694D01*
X99624722Y-93540000D01*
X98524016Y-93540000D01*
X98530781Y-93582716D01*
X98591581Y-93769837D01*
X98680904Y-93945143D01*
X98796555Y-94104321D01*
X98935678Y-94243444D01*
X99094856Y-94359095D01*
X99271764Y-94449234D01*
X99322560Y-94497208D01*
X99339355Y-94565029D01*
X99316818Y-94631164D01*
X99271764Y-94670204D01*
X99094594Y-94760476D01*
X99023862Y-94811867D01*
X98935354Y-94876172D01*
X98935352Y-94876174D01*
X98935351Y-94876174D01*
X98796171Y-95015354D01*
X98786703Y-95028387D01*
X98731372Y-95071052D01*
X98686386Y-95079500D01*
X97496080Y-95079500D01*
X97407518Y-95097117D01*
X97383326Y-95099500D01*
X95712229Y-95099500D01*
X95645190Y-95079815D01*
X95624548Y-95063181D01*
X94286819Y-93725451D01*
X94253334Y-93664128D01*
X94250500Y-93637770D01*
X94250500Y-86397844D01*
X117900000Y-86397844D01*
X117906401Y-86457372D01*
X117906403Y-86457379D01*
X117956645Y-86592086D01*
X117956649Y-86592093D01*
X118042809Y-86707187D01*
X118042812Y-86707190D01*
X118157906Y-86793350D01*
X118157913Y-86793354D01*
X118292620Y-86843596D01*
X118292627Y-86843598D01*
X118352155Y-86849999D01*
X118352172Y-86850000D01*
X119050000Y-86850000D01*
X119550000Y-86850000D01*
X120247828Y-86850000D01*
X120247844Y-86849999D01*
X120307372Y-86843598D01*
X120307379Y-86843596D01*
X120442086Y-86793354D01*
X120442093Y-86793350D01*
X120557187Y-86707190D01*
X120557190Y-86707187D01*
X120643350Y-86592093D01*
X120643354Y-86592086D01*
X120693596Y-86457379D01*
X120693598Y-86457372D01*
X120699999Y-86397844D01*
X127000000Y-86397844D01*
X127006401Y-86457372D01*
X127006403Y-86457379D01*
X127056645Y-86592086D01*
X127056649Y-86592093D01*
X127142809Y-86707187D01*
X127142812Y-86707190D01*
X127257906Y-86793350D01*
X127257913Y-86793354D01*
X127392620Y-86843596D01*
X127392627Y-86843598D01*
X127452155Y-86849999D01*
X127452172Y-86850000D01*
X128350000Y-86850000D01*
X128850000Y-86850000D01*
X129747828Y-86850000D01*
X129747844Y-86849999D01*
X129807372Y-86843598D01*
X129807379Y-86843596D01*
X129942086Y-86793354D01*
X129942093Y-86793350D01*
X130057187Y-86707190D01*
X130057190Y-86707187D01*
X130143350Y-86592093D01*
X130143354Y-86592086D01*
X130193596Y-86457379D01*
X130193598Y-86457372D01*
X130199999Y-86397844D01*
X130200000Y-86397827D01*
X130200000Y-86000000D01*
X128850000Y-86000000D01*
X128850000Y-86850000D01*
X128350000Y-86850000D01*
X128350000Y-86000000D01*
X127000000Y-86000000D01*
X127000000Y-86397844D01*
X120699999Y-86397844D01*
X120700000Y-86397827D01*
X120700000Y-86000000D01*
X119550000Y-86000000D01*
X119550000Y-86850000D01*
X119050000Y-86850000D01*
X119050000Y-86000000D01*
X117900000Y-86000000D01*
X117900000Y-86397844D01*
X94250500Y-86397844D01*
X94250500Y-84361229D01*
X94270185Y-84294190D01*
X94322989Y-84248435D01*
X94392147Y-84238491D01*
X94455703Y-84267516D01*
X94462181Y-84273548D01*
X94667048Y-84478415D01*
X94667049Y-84478416D01*
X94757833Y-84569200D01*
X94771585Y-84582952D01*
X94894498Y-84665080D01*
X94894511Y-84665087D01*
X94994842Y-84706645D01*
X95031087Y-84721658D01*
X95031091Y-84721658D01*
X95031092Y-84721659D01*
X95176079Y-84750500D01*
X95176082Y-84750500D01*
X95255448Y-84750500D01*
X95322487Y-84770185D01*
X95343129Y-84786819D01*
X95376650Y-84820340D01*
X95523484Y-84910908D01*
X95687247Y-84965174D01*
X95788323Y-84975500D01*
X96386676Y-84975499D01*
X96386684Y-84975498D01*
X96386687Y-84975498D01*
X96442030Y-84969844D01*
X96487753Y-84965174D01*
X96651516Y-84910908D01*
X96798350Y-84820340D01*
X96912319Y-84706371D01*
X96973642Y-84672886D01*
X97043334Y-84677870D01*
X97087681Y-84706371D01*
X97201650Y-84820340D01*
X97348484Y-84910908D01*
X97512247Y-84965174D01*
X97613323Y-84975500D01*
X98211676Y-84975499D01*
X98211684Y-84975498D01*
X98211687Y-84975498D01*
X98235259Y-84973090D01*
X98312753Y-84965174D01*
X98361651Y-84948969D01*
X98431478Y-84946567D01*
X98488337Y-84978994D01*
X99053453Y-85544111D01*
X99053454Y-85544112D01*
X99168192Y-85620777D01*
X99295667Y-85673578D01*
X99295672Y-85673580D01*
X99295676Y-85673580D01*
X99295677Y-85673581D01*
X99431003Y-85700500D01*
X99431006Y-85700500D01*
X104318996Y-85700500D01*
X104417066Y-85680992D01*
X104454328Y-85673580D01*
X104535900Y-85639792D01*
X104581807Y-85620777D01*
X104581808Y-85620776D01*
X104581811Y-85620775D01*
X104696543Y-85544114D01*
X105510375Y-84730280D01*
X105571698Y-84696796D01*
X105641389Y-84701780D01*
X105685733Y-84730277D01*
X105690403Y-84734946D01*
X105805614Y-84821194D01*
X105805621Y-84821198D01*
X105828170Y-84829608D01*
X105940467Y-84871492D01*
X106000077Y-84877901D01*
X106400778Y-84877900D01*
X106448230Y-84887339D01*
X106531082Y-84921657D01*
X106531087Y-84921659D01*
X106531091Y-84921659D01*
X106531092Y-84921660D01*
X106676079Y-84950501D01*
X106676082Y-84950501D01*
X107771982Y-84950501D01*
X107839021Y-84970186D01*
X107875083Y-85005608D01*
X107878211Y-85010290D01*
X107989707Y-85121786D01*
X107989711Y-85121789D01*
X108120814Y-85209390D01*
X108120827Y-85209397D01*
X108266498Y-85269735D01*
X108266503Y-85269737D01*
X108421153Y-85300499D01*
X108421156Y-85300500D01*
X108421158Y-85300500D01*
X108578844Y-85300500D01*
X108578845Y-85300499D01*
X108733497Y-85269737D01*
X108879179Y-85209394D01*
X109010289Y-85121789D01*
X109121789Y-85010289D01*
X109209394Y-84879179D01*
X109269737Y-84733497D01*
X109300500Y-84578842D01*
X109300500Y-84421158D01*
X109300500Y-84421155D01*
X109300499Y-84421153D01*
X109280093Y-84318566D01*
X109269737Y-84266503D01*
X109268361Y-84263181D01*
X109209397Y-84120827D01*
X109209390Y-84120814D01*
X109121789Y-83989711D01*
X109121786Y-83989707D01*
X109120885Y-83988806D01*
X109120563Y-83988217D01*
X109117924Y-83985001D01*
X109118533Y-83984500D01*
X109087400Y-83927483D01*
X109092384Y-83857791D01*
X109134256Y-83801858D01*
X109184372Y-83779508D01*
X109233497Y-83769737D01*
X109378882Y-83709517D01*
X109379172Y-83709397D01*
X109379172Y-83709396D01*
X109379179Y-83709394D01*
X109510289Y-83621789D01*
X109621789Y-83510289D01*
X109709394Y-83379179D01*
X109769737Y-83233497D01*
X109788138Y-83140992D01*
X109801204Y-83075307D01*
X109833589Y-83013396D01*
X109894305Y-82978822D01*
X109922821Y-82975499D01*
X110136670Y-82975499D01*
X110136676Y-82975499D01*
X110237753Y-82965174D01*
X110401516Y-82910908D01*
X110548350Y-82820340D01*
X110662319Y-82706371D01*
X110723642Y-82672886D01*
X110793334Y-82677870D01*
X110837681Y-82706371D01*
X110951650Y-82820340D01*
X111098484Y-82910908D01*
X111262247Y-82965174D01*
X111363323Y-82975500D01*
X111560145Y-82975499D01*
X111574672Y-82979220D01*
X111586724Y-82978381D01*
X111609884Y-82988242D01*
X111619770Y-82990775D01*
X111624534Y-82993387D01*
X111657005Y-83015084D01*
X111679740Y-83024501D01*
X111793588Y-83071659D01*
X111909741Y-83094763D01*
X111928968Y-83098587D01*
X111938581Y-83100500D01*
X111938582Y-83100500D01*
X111938583Y-83100500D01*
X112086418Y-83100500D01*
X116575500Y-83100500D01*
X116642539Y-83120185D01*
X116688294Y-83172989D01*
X116699500Y-83224500D01*
X116699500Y-83847870D01*
X116699501Y-83847876D01*
X116705908Y-83907482D01*
X116719004Y-83942593D01*
X116724252Y-83956665D01*
X116724253Y-83956666D01*
X116729237Y-84026358D01*
X116724253Y-84043331D01*
X116705909Y-84092514D01*
X116705908Y-84092516D01*
X116701896Y-84129839D01*
X116699501Y-84152123D01*
X116699500Y-84152135D01*
X116699500Y-84947870D01*
X116699501Y-84947876D01*
X116705908Y-85007483D01*
X116756202Y-85142328D01*
X116756206Y-85142335D01*
X116842452Y-85257544D01*
X116842455Y-85257547D01*
X116957664Y-85343793D01*
X116957671Y-85343797D01*
X117002618Y-85360561D01*
X117092517Y-85394091D01*
X117152127Y-85400500D01*
X117776002Y-85400499D01*
X117843039Y-85420183D01*
X117888794Y-85472987D01*
X117893188Y-85493188D01*
X117900000Y-85500000D01*
X120700000Y-85500000D01*
X120700000Y-85102172D01*
X120699999Y-85102155D01*
X127000000Y-85102155D01*
X127000000Y-85500000D01*
X128350000Y-85500000D01*
X128850000Y-85500000D01*
X130200000Y-85500000D01*
X130200000Y-85102172D01*
X130199999Y-85102155D01*
X130193598Y-85042627D01*
X130193596Y-85042620D01*
X130143354Y-84907913D01*
X130143350Y-84907906D01*
X130057190Y-84792812D01*
X130057187Y-84792809D01*
X129942093Y-84706649D01*
X129942086Y-84706645D01*
X129807379Y-84656403D01*
X129807372Y-84656401D01*
X129747844Y-84650000D01*
X128850000Y-84650000D01*
X128850000Y-85500000D01*
X128350000Y-85500000D01*
X128350000Y-84650000D01*
X127452155Y-84650000D01*
X127392627Y-84656401D01*
X127392620Y-84656403D01*
X127257913Y-84706645D01*
X127257906Y-84706649D01*
X127142812Y-84792809D01*
X127142809Y-84792812D01*
X127056649Y-84907906D01*
X127056645Y-84907913D01*
X127006403Y-85042620D01*
X127006401Y-85042627D01*
X127000000Y-85102155D01*
X120699999Y-85102155D01*
X120693598Y-85042627D01*
X120693596Y-85042620D01*
X120643354Y-84907913D01*
X120643350Y-84907906D01*
X120557190Y-84792812D01*
X120557187Y-84792809D01*
X120442093Y-84706649D01*
X120442086Y-84706645D01*
X120307379Y-84656403D01*
X120307372Y-84656401D01*
X120247844Y-84650000D01*
X119424500Y-84650000D01*
X119357461Y-84630315D01*
X119311706Y-84577511D01*
X119300500Y-84526000D01*
X119300499Y-84152130D01*
X119300498Y-84152123D01*
X119294091Y-84092517D01*
X119275747Y-84043334D01*
X119270762Y-83973643D01*
X119275747Y-83956665D01*
X119294089Y-83907488D01*
X119294091Y-83907483D01*
X119300500Y-83847873D01*
X119300499Y-83052128D01*
X119297467Y-83023920D01*
X128249499Y-83023920D01*
X128278340Y-83168907D01*
X128278343Y-83168917D01*
X128334912Y-83305488D01*
X128334919Y-83305501D01*
X128417048Y-83428415D01*
X128417051Y-83428419D01*
X128521580Y-83532948D01*
X128521584Y-83532951D01*
X128644498Y-83615080D01*
X128644511Y-83615087D01*
X128781082Y-83671656D01*
X128781087Y-83671658D01*
X128781091Y-83671658D01*
X128781092Y-83671659D01*
X128926079Y-83700500D01*
X128926082Y-83700500D01*
X129073920Y-83700500D01*
X129171462Y-83681096D01*
X129218913Y-83671658D01*
X129355495Y-83615084D01*
X129478416Y-83532951D01*
X129582951Y-83428416D01*
X129665084Y-83305495D01*
X129721658Y-83168913D01*
X129740278Y-83075307D01*
X129750500Y-83023920D01*
X129750500Y-82876079D01*
X129721659Y-82731092D01*
X129721658Y-82731091D01*
X129721658Y-82731087D01*
X129699615Y-82677870D01*
X129665087Y-82594511D01*
X129665080Y-82594498D01*
X129582951Y-82471584D01*
X129582948Y-82471580D01*
X129478419Y-82367051D01*
X129478415Y-82367048D01*
X129355501Y-82284919D01*
X129355488Y-82284912D01*
X129218917Y-82228343D01*
X129218907Y-82228340D01*
X129073920Y-82199500D01*
X129073918Y-82199500D01*
X128926082Y-82199500D01*
X128926080Y-82199500D01*
X128781092Y-82228340D01*
X128781082Y-82228343D01*
X128644511Y-82284912D01*
X128644498Y-82284919D01*
X128521584Y-82367048D01*
X128521580Y-82367051D01*
X128417051Y-82471580D01*
X128417048Y-82471584D01*
X128334919Y-82594498D01*
X128334912Y-82594511D01*
X128278343Y-82731082D01*
X128278340Y-82731092D01*
X128249500Y-82876079D01*
X128249500Y-82876082D01*
X128249500Y-83023918D01*
X128249500Y-83023920D01*
X128249499Y-83023920D01*
X119297467Y-83023920D01*
X119294091Y-82992517D01*
X119292497Y-82988242D01*
X119275747Y-82943334D01*
X119273861Y-82916979D01*
X119268244Y-82891151D01*
X119271081Y-82878108D01*
X119270762Y-82873643D01*
X119275747Y-82856664D01*
X119279876Y-82845596D01*
X119294091Y-82807483D01*
X119300500Y-82747873D01*
X119300499Y-81952128D01*
X119294091Y-81892517D01*
X119291244Y-81884885D01*
X119275480Y-81842618D01*
X119270495Y-81772927D01*
X119275480Y-81755949D01*
X119293597Y-81707375D01*
X119293598Y-81707372D01*
X119299999Y-81647844D01*
X119300000Y-81647827D01*
X119300000Y-81500000D01*
X118859167Y-81500000D01*
X118851188Y-81499572D01*
X118851183Y-81499678D01*
X118847879Y-81499500D01*
X118847873Y-81499500D01*
X118847866Y-81499500D01*
X117152129Y-81499500D01*
X117148805Y-81499679D01*
X117148799Y-81499573D01*
X117140837Y-81500000D01*
X116700000Y-81500000D01*
X116689815Y-81510184D01*
X116680315Y-81542539D01*
X116627511Y-81588294D01*
X116576000Y-81599500D01*
X112725491Y-81599500D01*
X112658452Y-81579815D01*
X112612697Y-81527011D01*
X112607785Y-81514505D01*
X112607016Y-81512184D01*
X112585908Y-81448484D01*
X112503340Y-81314620D01*
X112484900Y-81247227D01*
X112503341Y-81184425D01*
X112585450Y-81051307D01*
X112585453Y-81051300D01*
X112639680Y-80887652D01*
X112649999Y-80786654D01*
X112650000Y-80786641D01*
X112650000Y-80750000D01*
X111736500Y-80750000D01*
X111669461Y-80730315D01*
X111623706Y-80677511D01*
X111612500Y-80626000D01*
X111612500Y-80374000D01*
X111632185Y-80306961D01*
X111684989Y-80261206D01*
X111736500Y-80250000D01*
X112649999Y-80250000D01*
X112663180Y-80236819D01*
X112724503Y-80203334D01*
X112750861Y-80200500D01*
X113074684Y-80200500D01*
X113122136Y-80209939D01*
X113217646Y-80249500D01*
X113266503Y-80269737D01*
X113421153Y-80300499D01*
X113421156Y-80300500D01*
X113421158Y-80300500D01*
X113578844Y-80300500D01*
X113578845Y-80300499D01*
X113733497Y-80269737D01*
X113879179Y-80209394D01*
X114010289Y-80121789D01*
X114121789Y-80010289D01*
X114209394Y-79879179D01*
X114269737Y-79733497D01*
X114300500Y-79578842D01*
X114300500Y-79574500D01*
X114320185Y-79507461D01*
X114372989Y-79461706D01*
X114424500Y-79450500D01*
X114908481Y-79450500D01*
X114975520Y-79470185D01*
X114996162Y-79486819D01*
X116203453Y-80694111D01*
X116203454Y-80694112D01*
X116318192Y-80770777D01*
X116416346Y-80811433D01*
X116445672Y-80823580D01*
X116445676Y-80823580D01*
X116445677Y-80823581D01*
X116581003Y-80850500D01*
X116587066Y-80851097D01*
X116586812Y-80853674D01*
X116643039Y-80870185D01*
X116688794Y-80922989D01*
X116700000Y-80974500D01*
X116700000Y-81000000D01*
X117140833Y-81000000D01*
X117148811Y-81000427D01*
X117148817Y-81000322D01*
X117152102Y-81000497D01*
X117152127Y-81000500D01*
X118847872Y-81000499D01*
X118847872Y-81000498D01*
X118851196Y-81000321D01*
X118851201Y-81000426D01*
X118859163Y-81000000D01*
X119300000Y-81000000D01*
X119300000Y-80852172D01*
X119299999Y-80852155D01*
X119293598Y-80792627D01*
X119275479Y-80744048D01*
X119270495Y-80674356D01*
X119275476Y-80657391D01*
X119294091Y-80607483D01*
X119300500Y-80547873D01*
X119300499Y-79916867D01*
X119320183Y-79849829D01*
X119372987Y-79804074D01*
X119400307Y-79795251D01*
X119464213Y-79782538D01*
X119518913Y-79771658D01*
X119655495Y-79715084D01*
X119708511Y-79679660D01*
X119708511Y-79679659D01*
X119708513Y-79679659D01*
X119751650Y-79650836D01*
X119778416Y-79632952D01*
X120582951Y-78828416D01*
X120665084Y-78705495D01*
X120721658Y-78568913D01*
X120723143Y-78561447D01*
X120750500Y-78423918D01*
X120750500Y-75426082D01*
X120750500Y-75426079D01*
X120721659Y-75281092D01*
X120721658Y-75281091D01*
X120721658Y-75281087D01*
X120701946Y-75233497D01*
X120665087Y-75144511D01*
X120665080Y-75144498D01*
X120584512Y-75023920D01*
X128249499Y-75023920D01*
X128278340Y-75168907D01*
X128278343Y-75168917D01*
X128334912Y-75305488D01*
X128334919Y-75305501D01*
X128417048Y-75428415D01*
X128417051Y-75428419D01*
X128521580Y-75532948D01*
X128521584Y-75532951D01*
X128644498Y-75615080D01*
X128644511Y-75615087D01*
X128781082Y-75671656D01*
X128781087Y-75671658D01*
X128781091Y-75671658D01*
X128781092Y-75671659D01*
X128926079Y-75700500D01*
X128926082Y-75700500D01*
X129073920Y-75700500D01*
X129171462Y-75681096D01*
X129218913Y-75671658D01*
X129355495Y-75615084D01*
X129478416Y-75532951D01*
X129582951Y-75428416D01*
X129665084Y-75305495D01*
X129721658Y-75168913D01*
X129735366Y-75100000D01*
X129750500Y-75023920D01*
X129750500Y-74876079D01*
X129721659Y-74731092D01*
X129721658Y-74731091D01*
X129721658Y-74731087D01*
X129721316Y-74730261D01*
X129665087Y-74594511D01*
X129665080Y-74594498D01*
X129582951Y-74471584D01*
X129582948Y-74471580D01*
X129478419Y-74367051D01*
X129478415Y-74367048D01*
X129355501Y-74284919D01*
X129355488Y-74284912D01*
X129218917Y-74228343D01*
X129218907Y-74228340D01*
X129073920Y-74199500D01*
X129073918Y-74199500D01*
X128926082Y-74199500D01*
X128926080Y-74199500D01*
X128781092Y-74228340D01*
X128781082Y-74228343D01*
X128644511Y-74284912D01*
X128644498Y-74284919D01*
X128521584Y-74367048D01*
X128521580Y-74367051D01*
X128417051Y-74471580D01*
X128417048Y-74471584D01*
X128334919Y-74594498D01*
X128334912Y-74594511D01*
X128278343Y-74731082D01*
X128278340Y-74731092D01*
X128249500Y-74876079D01*
X128249500Y-74876082D01*
X128249500Y-75023918D01*
X128249500Y-75023920D01*
X128249499Y-75023920D01*
X120584512Y-75023920D01*
X120582952Y-75021585D01*
X120551074Y-74989707D01*
X120478416Y-74917049D01*
X120301429Y-74740062D01*
X119737853Y-74176484D01*
X119704368Y-74115161D01*
X119709352Y-74045469D01*
X119746872Y-73992948D01*
X119751543Y-73989114D01*
X122842813Y-70897844D01*
X127000000Y-70897844D01*
X127006401Y-70957372D01*
X127006403Y-70957379D01*
X127056645Y-71092086D01*
X127056649Y-71092093D01*
X127142809Y-71207187D01*
X127142812Y-71207190D01*
X127257906Y-71293350D01*
X127257913Y-71293354D01*
X127392620Y-71343596D01*
X127392627Y-71343598D01*
X127452155Y-71349999D01*
X127452172Y-71350000D01*
X128350000Y-71350000D01*
X128850000Y-71350000D01*
X129747828Y-71350000D01*
X129747844Y-71349999D01*
X129807372Y-71343598D01*
X129807379Y-71343596D01*
X129942086Y-71293354D01*
X129942093Y-71293350D01*
X130057187Y-71207190D01*
X130057190Y-71207187D01*
X130143350Y-71092093D01*
X130143354Y-71092086D01*
X130193596Y-70957379D01*
X130193598Y-70957372D01*
X130199999Y-70897844D01*
X130200000Y-70897827D01*
X130200000Y-70500000D01*
X128850000Y-70500000D01*
X128850000Y-71350000D01*
X128350000Y-71350000D01*
X128350000Y-70500000D01*
X127000000Y-70500000D01*
X127000000Y-70897844D01*
X122842813Y-70897844D01*
X124138502Y-69602155D01*
X127000000Y-69602155D01*
X127000000Y-70000000D01*
X128350000Y-70000000D01*
X128850000Y-70000000D01*
X130200000Y-70000000D01*
X130200000Y-69602172D01*
X130199999Y-69602155D01*
X130193598Y-69542627D01*
X130193596Y-69542620D01*
X130143354Y-69407913D01*
X130143350Y-69407906D01*
X130057190Y-69292812D01*
X130057187Y-69292809D01*
X129942093Y-69206649D01*
X129942086Y-69206645D01*
X129807379Y-69156403D01*
X129807372Y-69156401D01*
X129747844Y-69150000D01*
X128850000Y-69150000D01*
X128850000Y-70000000D01*
X128350000Y-70000000D01*
X128350000Y-69150000D01*
X127452155Y-69150000D01*
X127392627Y-69156401D01*
X127392620Y-69156403D01*
X127257913Y-69206645D01*
X127257906Y-69206649D01*
X127142812Y-69292809D01*
X127142809Y-69292812D01*
X127056649Y-69407906D01*
X127056645Y-69407913D01*
X127006403Y-69542620D01*
X127006401Y-69542627D01*
X127000000Y-69602155D01*
X124138502Y-69602155D01*
X124229487Y-69511170D01*
X126228837Y-67511819D01*
X126290160Y-67478334D01*
X126316518Y-67475500D01*
X128275501Y-67475500D01*
X128342540Y-67495185D01*
X128388295Y-67547989D01*
X128399501Y-67599500D01*
X128399501Y-67672876D01*
X128405908Y-67732483D01*
X128456202Y-67867328D01*
X128456206Y-67867335D01*
X128542452Y-67982544D01*
X128542455Y-67982547D01*
X128657664Y-68068793D01*
X128657671Y-68068797D01*
X128792517Y-68119091D01*
X128792516Y-68119091D01*
X128799444Y-68119835D01*
X128852127Y-68125500D01*
X130647872Y-68125499D01*
X130707483Y-68119091D01*
X130842331Y-68068796D01*
X130957546Y-67982546D01*
X131043796Y-67867331D01*
X131094091Y-67732483D01*
X131100500Y-67672873D01*
X131100499Y-65877128D01*
X131094936Y-65825376D01*
X131094091Y-65817516D01*
X131043797Y-65682671D01*
X131043793Y-65682664D01*
X130957547Y-65567455D01*
X130957544Y-65567452D01*
X130842335Y-65481206D01*
X130842328Y-65481202D01*
X130710917Y-65432189D01*
X130654983Y-65390318D01*
X130630566Y-65324853D01*
X130645418Y-65256580D01*
X130666563Y-65228332D01*
X130780104Y-65114792D01*
X130780308Y-65114512D01*
X130905048Y-64942820D01*
X130905047Y-64942820D01*
X130905051Y-64942816D01*
X131001557Y-64753412D01*
X131067246Y-64551243D01*
X131100500Y-64341287D01*
X131100500Y-64128713D01*
X131067246Y-63918757D01*
X131001557Y-63716588D01*
X130905051Y-63527184D01*
X130905049Y-63527181D01*
X130905048Y-63527179D01*
X130780109Y-63355213D01*
X130629786Y-63204890D01*
X130457820Y-63079951D01*
X130268414Y-62983444D01*
X130268413Y-62983443D01*
X130268412Y-62983443D01*
X130066243Y-62917754D01*
X130066241Y-62917753D01*
X130066240Y-62917753D01*
X129904957Y-62892208D01*
X129856287Y-62884500D01*
X129643713Y-62884500D01*
X129595042Y-62892208D01*
X129433760Y-62917753D01*
X129231585Y-62983444D01*
X129042179Y-63079951D01*
X128870213Y-63204890D01*
X128719892Y-63355211D01*
X128666588Y-63428580D01*
X128626770Y-63483385D01*
X128571442Y-63526051D01*
X128526453Y-63534500D01*
X119196005Y-63534500D01*
X119132770Y-63547078D01*
X119101152Y-63553368D01*
X119077950Y-63557983D01*
X119060668Y-63561420D01*
X119060660Y-63561423D01*
X119007865Y-63583292D01*
X118933191Y-63614223D01*
X118860401Y-63662861D01*
X118860400Y-63662862D01*
X118818454Y-63690888D01*
X113320311Y-69189031D01*
X113258988Y-69222516D01*
X113189296Y-69217532D01*
X113133363Y-69175660D01*
X113127688Y-69167404D01*
X113122089Y-69158508D01*
X113107856Y-69124147D01*
X113066701Y-69070513D01*
X113063636Y-69065643D01*
X113055614Y-69037341D01*
X113045008Y-69009906D01*
X113046196Y-69004112D01*
X113044583Y-68998421D01*
X113053136Y-68970273D01*
X113059046Y-68941461D01*
X113064445Y-68933059D01*
X113064898Y-68931570D01*
X113066010Y-68930624D01*
X113070203Y-68924101D01*
X113107421Y-68875598D01*
X113165230Y-68736032D01*
X113165231Y-68736028D01*
X113179999Y-68623863D01*
X113180000Y-68623849D01*
X113180000Y-68615000D01*
X110130000Y-68615000D01*
X110130000Y-68623863D01*
X110144768Y-68736028D01*
X110144769Y-68736032D01*
X110202578Y-68875598D01*
X110239797Y-68924102D01*
X110264991Y-68989272D01*
X110250953Y-69057716D01*
X110239798Y-69075074D01*
X110202143Y-69124147D01*
X110144282Y-69263837D01*
X110144281Y-69263841D01*
X110129500Y-69376105D01*
X110129500Y-69893888D01*
X110144279Y-70006151D01*
X110144280Y-70006155D01*
X110144281Y-70006159D01*
X110155419Y-70033049D01*
X110162888Y-70102516D01*
X110131614Y-70164995D01*
X110071525Y-70200648D01*
X110040858Y-70204500D01*
X108026004Y-70204500D01*
X107890677Y-70231418D01*
X107890667Y-70231421D01*
X107763192Y-70284222D01*
X107648454Y-70360887D01*
X107648453Y-70360888D01*
X106912181Y-71097161D01*
X106850858Y-71130646D01*
X106781166Y-71125662D01*
X106725233Y-71083790D01*
X106700816Y-71018326D01*
X106700500Y-71009480D01*
X106700500Y-67353863D01*
X110130000Y-67353863D01*
X110144768Y-67466028D01*
X110144769Y-67466032D01*
X110202578Y-67605599D01*
X110202580Y-67605601D01*
X110240112Y-67654514D01*
X110265306Y-67719683D01*
X110251268Y-67788128D01*
X110240112Y-67805486D01*
X110202580Y-67854398D01*
X110202578Y-67854400D01*
X110144769Y-67993967D01*
X110144768Y-67993971D01*
X110130000Y-68106136D01*
X110130000Y-68115000D01*
X111405000Y-68115000D01*
X111905000Y-68115000D01*
X113180000Y-68115000D01*
X113180000Y-68106150D01*
X113179999Y-68106136D01*
X113165231Y-67993971D01*
X113165230Y-67993967D01*
X113107421Y-67854400D01*
X113107419Y-67854397D01*
X113069888Y-67805488D01*
X113044692Y-67740320D01*
X113058729Y-67671875D01*
X113069888Y-67654512D01*
X113107419Y-67605602D01*
X113107421Y-67605599D01*
X113165230Y-67466032D01*
X113165231Y-67466028D01*
X113179999Y-67353863D01*
X113180000Y-67353849D01*
X113180000Y-67345000D01*
X111905000Y-67345000D01*
X111905000Y-68115000D01*
X111405000Y-68115000D01*
X111405000Y-67345000D01*
X110130000Y-67345000D01*
X110130000Y-67353863D01*
X106700500Y-67353863D01*
X106700500Y-66083863D01*
X110130000Y-66083863D01*
X110144768Y-66196028D01*
X110144769Y-66196032D01*
X110202578Y-66335599D01*
X110202580Y-66335601D01*
X110240112Y-66384514D01*
X110265306Y-66449683D01*
X110251268Y-66518128D01*
X110240112Y-66535486D01*
X110202580Y-66584398D01*
X110202578Y-66584400D01*
X110144769Y-66723967D01*
X110144768Y-66723971D01*
X110130000Y-66836136D01*
X110130000Y-66845000D01*
X111405000Y-66845000D01*
X111905000Y-66845000D01*
X113180000Y-66845000D01*
X113180000Y-66836150D01*
X113179999Y-66836136D01*
X113165231Y-66723971D01*
X113165230Y-66723967D01*
X113107421Y-66584400D01*
X113107419Y-66584397D01*
X113069888Y-66535488D01*
X113044692Y-66470320D01*
X113058729Y-66401875D01*
X113069888Y-66384512D01*
X113107419Y-66335602D01*
X113107421Y-66335599D01*
X113165230Y-66196032D01*
X113165231Y-66196028D01*
X113179999Y-66083863D01*
X113180000Y-66083849D01*
X113180000Y-66075000D01*
X111905000Y-66075000D01*
X111905000Y-66845000D01*
X111405000Y-66845000D01*
X111405000Y-66075000D01*
X110130000Y-66075000D01*
X110130000Y-66083863D01*
X106700500Y-66083863D01*
X106700500Y-64813863D01*
X110130000Y-64813863D01*
X110144768Y-64926028D01*
X110144769Y-64926032D01*
X110202578Y-65065599D01*
X110202580Y-65065601D01*
X110240112Y-65114514D01*
X110265306Y-65179683D01*
X110251268Y-65248128D01*
X110240112Y-65265486D01*
X110202580Y-65314398D01*
X110202578Y-65314400D01*
X110144769Y-65453967D01*
X110144768Y-65453971D01*
X110130000Y-65566136D01*
X110130000Y-65575000D01*
X111405000Y-65575000D01*
X111905000Y-65575000D01*
X113180000Y-65575000D01*
X113180000Y-65566150D01*
X113179999Y-65566136D01*
X113165231Y-65453971D01*
X113165230Y-65453967D01*
X113107421Y-65314400D01*
X113107419Y-65314397D01*
X113069888Y-65265488D01*
X113044692Y-65200320D01*
X113058729Y-65131875D01*
X113069888Y-65114512D01*
X113107419Y-65065602D01*
X113107421Y-65065599D01*
X113165230Y-64926032D01*
X113165231Y-64926028D01*
X113179999Y-64813863D01*
X113180000Y-64813849D01*
X113180000Y-64805000D01*
X111905000Y-64805000D01*
X111905000Y-65575000D01*
X111405000Y-65575000D01*
X111405000Y-64805000D01*
X110130000Y-64805000D01*
X110130000Y-64813863D01*
X106700500Y-64813863D01*
X106700500Y-64531004D01*
X106673581Y-64395677D01*
X106673580Y-64395676D01*
X106673580Y-64395672D01*
X106673578Y-64395667D01*
X106650329Y-64339537D01*
X106632351Y-64296136D01*
X110130000Y-64296136D01*
X110130000Y-64305000D01*
X111405000Y-64305000D01*
X111905000Y-64305000D01*
X113180000Y-64305000D01*
X113180000Y-64296150D01*
X113179999Y-64296136D01*
X113165231Y-64183971D01*
X113165230Y-64183967D01*
X113107421Y-64044401D01*
X113015452Y-63924547D01*
X112895598Y-63832578D01*
X112756032Y-63774769D01*
X112756028Y-63774768D01*
X112643863Y-63760000D01*
X111905000Y-63760000D01*
X111905000Y-64305000D01*
X111405000Y-64305000D01*
X111405000Y-63760000D01*
X110666136Y-63760000D01*
X110553971Y-63774768D01*
X110553967Y-63774769D01*
X110414401Y-63832578D01*
X110294547Y-63924547D01*
X110202578Y-64044401D01*
X110144769Y-64183967D01*
X110144768Y-64183971D01*
X110130000Y-64296136D01*
X106632351Y-64296136D01*
X106620776Y-64268192D01*
X106620775Y-64268189D01*
X106620773Y-64268186D01*
X106620771Y-64268182D01*
X106544115Y-64153459D01*
X106514413Y-64123757D01*
X106446542Y-64055886D01*
X106004879Y-63614223D01*
X104646546Y-62255888D01*
X104646545Y-62255887D01*
X104531807Y-62179222D01*
X104404332Y-62126421D01*
X104404322Y-62126418D01*
X104268996Y-62099500D01*
X104268994Y-62099500D01*
X104268993Y-62099500D01*
X89802065Y-62099500D01*
X89735026Y-62079815D01*
X89689271Y-62027011D01*
X89679592Y-61994898D01*
X89676728Y-61976818D01*
X89663553Y-61893632D01*
X89590568Y-61669008D01*
X89590566Y-61669005D01*
X89590566Y-61669003D01*
X89483342Y-61458566D01*
X89427414Y-61381588D01*
X89344517Y-61267490D01*
X89177510Y-61100483D01*
X89142872Y-61075317D01*
X89100207Y-61019989D01*
X89094228Y-60950375D01*
X89126833Y-60888580D01*
X89142873Y-60874682D01*
X89177510Y-60849517D01*
X89344517Y-60682510D01*
X89450488Y-60536654D01*
X97025001Y-60536654D01*
X97035319Y-60637652D01*
X97089546Y-60801300D01*
X97089551Y-60801311D01*
X97180052Y-60948034D01*
X97180055Y-60948038D01*
X97301961Y-61069944D01*
X97301965Y-61069947D01*
X97448688Y-61160448D01*
X97448699Y-61160453D01*
X97612347Y-61214680D01*
X97713352Y-61224999D01*
X97750000Y-61224999D01*
X98250000Y-61224999D01*
X98286640Y-61224999D01*
X98286654Y-61224998D01*
X98387652Y-61214680D01*
X98551300Y-61160453D01*
X98551311Y-61160448D01*
X98698034Y-61069947D01*
X98698038Y-61069944D01*
X98819944Y-60948038D01*
X98819947Y-60948034D01*
X98910448Y-60801311D01*
X98910453Y-60801300D01*
X98964680Y-60637652D01*
X98974999Y-60536654D01*
X100025001Y-60536654D01*
X100035319Y-60637652D01*
X100089546Y-60801300D01*
X100089551Y-60801311D01*
X100180052Y-60948034D01*
X100180055Y-60948038D01*
X100301961Y-61069944D01*
X100301965Y-61069947D01*
X100448688Y-61160448D01*
X100448699Y-61160453D01*
X100612347Y-61214680D01*
X100713352Y-61224999D01*
X100750000Y-61224999D01*
X101250000Y-61224999D01*
X101286640Y-61224999D01*
X101286654Y-61224998D01*
X101387652Y-61214680D01*
X101551300Y-61160453D01*
X101551311Y-61160448D01*
X101698034Y-61069947D01*
X101698038Y-61069944D01*
X101819944Y-60948038D01*
X101819947Y-60948034D01*
X101910448Y-60801311D01*
X101910453Y-60801300D01*
X101964680Y-60637652D01*
X101974999Y-60536654D01*
X103025001Y-60536654D01*
X103035319Y-60637652D01*
X103089546Y-60801300D01*
X103089551Y-60801311D01*
X103180052Y-60948034D01*
X103180055Y-60948038D01*
X103301961Y-61069944D01*
X103301965Y-61069947D01*
X103448688Y-61160448D01*
X103448699Y-61160453D01*
X103612347Y-61214680D01*
X103713352Y-61224999D01*
X103750000Y-61224999D01*
X104250000Y-61224999D01*
X104286640Y-61224999D01*
X104286654Y-61224998D01*
X104387652Y-61214680D01*
X104551300Y-61160453D01*
X104551311Y-61160448D01*
X104698034Y-61069947D01*
X104698038Y-61069944D01*
X104819944Y-60948038D01*
X104819947Y-60948034D01*
X104910448Y-60801311D01*
X104910453Y-60801300D01*
X104964680Y-60637652D01*
X104974999Y-60536654D01*
X104975000Y-60536641D01*
X104975000Y-60450000D01*
X104250000Y-60450000D01*
X104250000Y-61224999D01*
X103750000Y-61224999D01*
X103750000Y-60450000D01*
X103025001Y-60450000D01*
X103025001Y-60536654D01*
X101974999Y-60536654D01*
X101975000Y-60536641D01*
X101975000Y-60450000D01*
X101250000Y-60450000D01*
X101250000Y-61224999D01*
X100750000Y-61224999D01*
X100750000Y-60450000D01*
X100025001Y-60450000D01*
X100025001Y-60536654D01*
X98974999Y-60536654D01*
X98975000Y-60536641D01*
X98975000Y-60450000D01*
X98250000Y-60450000D01*
X98250000Y-61224999D01*
X97750000Y-61224999D01*
X97750000Y-60450000D01*
X97025001Y-60450000D01*
X97025001Y-60536654D01*
X89450488Y-60536654D01*
X89483343Y-60491433D01*
X89590568Y-60280992D01*
X89663553Y-60056368D01*
X89680400Y-59950000D01*
X89700500Y-59823097D01*
X89700500Y-59586902D01*
X89663553Y-59353631D01*
X89613099Y-59198351D01*
X89590568Y-59129008D01*
X89590566Y-59129005D01*
X89590566Y-59129003D01*
X89483342Y-58918566D01*
X89460955Y-58887753D01*
X89344517Y-58727490D01*
X89177510Y-58560483D01*
X88986433Y-58421657D01*
X88775996Y-58314433D01*
X88551368Y-58241446D01*
X88318097Y-58204500D01*
X88318092Y-58204500D01*
X88081908Y-58204500D01*
X88081903Y-58204500D01*
X87848631Y-58241446D01*
X87624003Y-58314433D01*
X87413566Y-58421657D01*
X87304550Y-58500862D01*
X87222490Y-58560483D01*
X87222488Y-58560485D01*
X87222487Y-58560485D01*
X87055485Y-58727487D01*
X87055485Y-58727488D01*
X87055483Y-58727490D01*
X87012487Y-58786669D01*
X86916657Y-58918566D01*
X86809433Y-59129003D01*
X86771431Y-59245963D01*
X86731993Y-59303638D01*
X86667634Y-59330836D01*
X86598788Y-59318921D01*
X86547312Y-59271677D01*
X86529500Y-59207644D01*
X86529500Y-55512519D01*
X86549185Y-55445480D01*
X86565819Y-55424838D01*
X87753838Y-54236819D01*
X87815161Y-54203334D01*
X87841519Y-54200500D01*
X96953983Y-54200500D01*
X97021022Y-54220185D01*
X97066777Y-54272989D01*
X97076721Y-54342147D01*
X97071690Y-54363498D01*
X97034826Y-54474747D01*
X97034826Y-54474748D01*
X97034825Y-54474748D01*
X97024500Y-54575815D01*
X97024500Y-55174169D01*
X97024501Y-55174187D01*
X97034825Y-55275252D01*
X97089092Y-55439015D01*
X97089093Y-55439018D01*
X97179661Y-55585851D01*
X97293629Y-55699819D01*
X97327114Y-55761142D01*
X97322130Y-55830834D01*
X97293629Y-55875181D01*
X97179661Y-55989148D01*
X97089093Y-56135981D01*
X97089092Y-56135984D01*
X97034826Y-56299747D01*
X97034826Y-56299748D01*
X97034825Y-56299748D01*
X97024500Y-56400815D01*
X97024500Y-56999169D01*
X97024501Y-56999187D01*
X97034825Y-57100252D01*
X97089092Y-57264015D01*
X97089093Y-57264018D01*
X97179661Y-57410851D01*
X97213181Y-57444371D01*
X97227884Y-57471298D01*
X97244477Y-57497117D01*
X97245368Y-57503317D01*
X97246666Y-57505694D01*
X97249500Y-57532052D01*
X97249500Y-57580448D01*
X97229815Y-57647487D01*
X97213181Y-57668129D01*
X97179661Y-57701648D01*
X97089093Y-57848481D01*
X97089092Y-57848484D01*
X97034826Y-58012247D01*
X97034826Y-58012248D01*
X97034825Y-58012248D01*
X97024500Y-58113315D01*
X97024500Y-58786669D01*
X97024501Y-58786687D01*
X97034825Y-58887752D01*
X97071109Y-58997249D01*
X97089092Y-59051516D01*
X97136889Y-59129008D01*
X97179661Y-59198351D01*
X97218982Y-59237672D01*
X97252467Y-59298995D01*
X97247483Y-59368687D01*
X97218983Y-59413033D01*
X97180055Y-59451961D01*
X97180052Y-59451965D01*
X97089551Y-59598688D01*
X97089546Y-59598699D01*
X97035319Y-59762347D01*
X97025000Y-59863345D01*
X97025000Y-59950000D01*
X98974999Y-59950000D01*
X98974999Y-59863360D01*
X98974998Y-59863345D01*
X98964680Y-59762347D01*
X98910453Y-59598699D01*
X98910448Y-59598688D01*
X98819947Y-59451965D01*
X98819944Y-59451961D01*
X98781017Y-59413034D01*
X98747532Y-59351711D01*
X98752516Y-59282019D01*
X98781016Y-59237673D01*
X98820340Y-59198350D01*
X98910908Y-59051516D01*
X98965174Y-58887753D01*
X98975500Y-58786677D01*
X98975499Y-58113324D01*
X98965174Y-58012247D01*
X98910908Y-57848484D01*
X98820340Y-57701650D01*
X98786819Y-57668129D01*
X98772115Y-57641201D01*
X98755523Y-57615383D01*
X98754631Y-57609182D01*
X98753334Y-57606806D01*
X98750500Y-57580448D01*
X98750500Y-57532052D01*
X98770185Y-57465013D01*
X98786819Y-57444371D01*
X98820340Y-57410850D01*
X98910908Y-57264016D01*
X98965174Y-57100253D01*
X98975500Y-56999177D01*
X98975499Y-56400824D01*
X98972835Y-56374748D01*
X98965174Y-56299747D01*
X98935761Y-56210986D01*
X98910908Y-56135984D01*
X98820340Y-55989150D01*
X98706371Y-55875181D01*
X98672886Y-55813858D01*
X98677870Y-55744166D01*
X98706371Y-55699819D01*
X98745340Y-55660850D01*
X98820340Y-55585850D01*
X98910908Y-55439016D01*
X98965174Y-55275253D01*
X98975500Y-55174177D01*
X98975499Y-54575824D01*
X98972835Y-54549748D01*
X98965174Y-54474747D01*
X98935761Y-54385986D01*
X98910908Y-54310984D01*
X98820340Y-54164150D01*
X98727296Y-54071106D01*
X98693811Y-54009783D01*
X98693386Y-54007747D01*
X98673580Y-53908172D01*
X98635054Y-53815161D01*
X98620777Y-53780692D01*
X98544112Y-53665954D01*
X98544111Y-53665953D01*
X98189338Y-53311181D01*
X98155853Y-53249858D01*
X98160837Y-53180167D01*
X98202708Y-53124233D01*
X98268173Y-53099816D01*
X98277019Y-53099500D01*
X99557481Y-53099500D01*
X99624520Y-53119185D01*
X99645162Y-53135819D01*
X100263181Y-53753838D01*
X100277884Y-53780765D01*
X100294477Y-53806584D01*
X100295368Y-53812784D01*
X100296666Y-53815161D01*
X100299500Y-53841519D01*
X100299500Y-53992948D01*
X100279815Y-54059987D01*
X100263181Y-54080629D01*
X100179661Y-54164148D01*
X100089093Y-54310981D01*
X100089091Y-54310986D01*
X100072141Y-54362139D01*
X100034826Y-54474747D01*
X100034826Y-54474748D01*
X100034825Y-54474748D01*
X100024500Y-54575815D01*
X100024500Y-55174169D01*
X100024501Y-55174187D01*
X100034825Y-55275252D01*
X100089092Y-55439015D01*
X100089093Y-55439018D01*
X100179661Y-55585851D01*
X100293629Y-55699819D01*
X100327114Y-55761142D01*
X100322130Y-55830834D01*
X100293629Y-55875181D01*
X100179661Y-55989148D01*
X100089093Y-56135981D01*
X100089092Y-56135984D01*
X100034826Y-56299747D01*
X100034826Y-56299748D01*
X100034825Y-56299748D01*
X100024500Y-56400815D01*
X100024500Y-56999169D01*
X100024501Y-56999187D01*
X100034825Y-57100252D01*
X100089092Y-57264015D01*
X100089093Y-57264018D01*
X100179661Y-57410851D01*
X100213181Y-57444371D01*
X100227884Y-57471298D01*
X100244477Y-57497117D01*
X100245368Y-57503317D01*
X100246666Y-57505694D01*
X100249500Y-57532052D01*
X100249500Y-57580448D01*
X100229815Y-57647487D01*
X100213181Y-57668129D01*
X100179661Y-57701648D01*
X100089093Y-57848481D01*
X100089092Y-57848484D01*
X100034826Y-58012247D01*
X100034826Y-58012248D01*
X100034825Y-58012248D01*
X100024500Y-58113315D01*
X100024500Y-58786669D01*
X100024501Y-58786687D01*
X100034825Y-58887752D01*
X100071109Y-58997249D01*
X100089092Y-59051516D01*
X100136889Y-59129008D01*
X100179661Y-59198351D01*
X100218982Y-59237672D01*
X100252467Y-59298995D01*
X100247483Y-59368687D01*
X100218983Y-59413033D01*
X100180055Y-59451961D01*
X100180052Y-59451965D01*
X100089551Y-59598688D01*
X100089546Y-59598699D01*
X100035319Y-59762347D01*
X100025000Y-59863345D01*
X100025000Y-59950000D01*
X101974999Y-59950000D01*
X101974999Y-59863360D01*
X101974998Y-59863345D01*
X101964680Y-59762347D01*
X101910453Y-59598699D01*
X101910448Y-59598688D01*
X101819947Y-59451965D01*
X101819944Y-59451961D01*
X101781017Y-59413034D01*
X101747532Y-59351711D01*
X101752516Y-59282019D01*
X101781016Y-59237673D01*
X101820340Y-59198350D01*
X101910908Y-59051516D01*
X101965174Y-58887753D01*
X101975500Y-58786677D01*
X101975499Y-58113324D01*
X101965174Y-58012247D01*
X101910908Y-57848484D01*
X101820340Y-57701650D01*
X101786819Y-57668129D01*
X101772115Y-57641201D01*
X101755523Y-57615383D01*
X101754631Y-57609182D01*
X101753334Y-57606806D01*
X101750500Y-57580448D01*
X101750500Y-57532052D01*
X101770185Y-57465013D01*
X101786819Y-57444371D01*
X101820340Y-57410850D01*
X101910908Y-57264016D01*
X101965174Y-57100253D01*
X101975500Y-56999177D01*
X101975499Y-56400824D01*
X101972835Y-56374748D01*
X101965174Y-56299747D01*
X101935761Y-56210986D01*
X101910908Y-56135984D01*
X101820340Y-55989150D01*
X101706371Y-55875181D01*
X101672886Y-55813858D01*
X101677870Y-55744166D01*
X101706371Y-55699819D01*
X101745340Y-55660850D01*
X101820340Y-55585850D01*
X101910908Y-55439016D01*
X101965174Y-55275253D01*
X101975500Y-55174177D01*
X101975499Y-54650815D01*
X103024500Y-54650815D01*
X103024500Y-55249169D01*
X103024501Y-55249187D01*
X103034825Y-55350252D01*
X103059541Y-55424838D01*
X103089092Y-55514016D01*
X103138386Y-55593935D01*
X103179661Y-55660851D01*
X103293629Y-55774819D01*
X103327114Y-55836142D01*
X103322130Y-55905834D01*
X103293629Y-55950181D01*
X103179661Y-56064148D01*
X103089093Y-56210981D01*
X103089092Y-56210984D01*
X103034826Y-56374747D01*
X103034826Y-56374748D01*
X103034825Y-56374748D01*
X103024500Y-56475815D01*
X103024500Y-57074169D01*
X103024501Y-57074187D01*
X103034825Y-57175252D01*
X103064238Y-57264013D01*
X103089092Y-57339016D01*
X103176477Y-57480690D01*
X103179661Y-57485851D01*
X103199879Y-57506069D01*
X103233364Y-57567392D01*
X103228380Y-57637084D01*
X103199879Y-57681431D01*
X103179661Y-57701648D01*
X103089093Y-57848481D01*
X103089092Y-57848484D01*
X103034826Y-58012247D01*
X103034826Y-58012248D01*
X103034825Y-58012248D01*
X103024500Y-58113315D01*
X103024500Y-58786669D01*
X103024501Y-58786687D01*
X103034825Y-58887752D01*
X103071109Y-58997249D01*
X103089092Y-59051516D01*
X103136889Y-59129008D01*
X103179661Y-59198351D01*
X103218982Y-59237672D01*
X103252467Y-59298995D01*
X103247483Y-59368687D01*
X103218983Y-59413033D01*
X103180055Y-59451961D01*
X103180052Y-59451965D01*
X103089551Y-59598688D01*
X103089546Y-59598699D01*
X103035319Y-59762347D01*
X103025000Y-59863345D01*
X103025000Y-59950000D01*
X104974999Y-59950000D01*
X104974999Y-59863360D01*
X104974998Y-59863345D01*
X104964680Y-59762347D01*
X104910453Y-59598699D01*
X104910448Y-59598688D01*
X104819947Y-59451965D01*
X104819944Y-59451961D01*
X104781017Y-59413034D01*
X104747532Y-59351711D01*
X104752516Y-59282019D01*
X104781016Y-59237673D01*
X104820340Y-59198350D01*
X104910908Y-59051516D01*
X104965174Y-58887753D01*
X104975500Y-58786677D01*
X104975499Y-58113324D01*
X104965174Y-58012247D01*
X104910908Y-57848484D01*
X104820340Y-57701650D01*
X104800121Y-57681431D01*
X104766636Y-57620108D01*
X104771620Y-57550416D01*
X104800121Y-57506069D01*
X104809073Y-57497117D01*
X104820340Y-57485850D01*
X104910908Y-57339016D01*
X104965174Y-57175253D01*
X104975500Y-57074177D01*
X104975499Y-56475824D01*
X104965174Y-56374747D01*
X104910908Y-56210984D01*
X104820340Y-56064150D01*
X104706371Y-55950181D01*
X104672886Y-55888858D01*
X104677870Y-55819166D01*
X104706371Y-55774819D01*
X104737024Y-55744166D01*
X104820340Y-55660850D01*
X104910908Y-55514016D01*
X104965174Y-55350253D01*
X104975500Y-55249177D01*
X104975499Y-54650824D01*
X104965174Y-54549747D01*
X104910908Y-54385984D01*
X104820340Y-54239150D01*
X104736819Y-54155629D01*
X104703334Y-54094306D01*
X104700500Y-54067948D01*
X104700500Y-53425316D01*
X104709939Y-53377864D01*
X104743983Y-53295672D01*
X104769737Y-53233497D01*
X104800500Y-53078842D01*
X104800500Y-52921158D01*
X104800500Y-52921155D01*
X104800499Y-52921153D01*
X104796336Y-52900223D01*
X104769737Y-52766503D01*
X104769735Y-52766498D01*
X104709397Y-52620827D01*
X104709390Y-52620814D01*
X104621789Y-52489711D01*
X104621786Y-52489707D01*
X104510292Y-52378213D01*
X104510288Y-52378210D01*
X104379185Y-52290609D01*
X104379172Y-52290602D01*
X104233501Y-52230264D01*
X104233489Y-52230261D01*
X104078845Y-52199500D01*
X104078842Y-52199500D01*
X103921158Y-52199500D01*
X103921155Y-52199500D01*
X103766510Y-52230261D01*
X103766498Y-52230264D01*
X103620827Y-52290602D01*
X103620814Y-52290609D01*
X103489711Y-52378210D01*
X103489707Y-52378213D01*
X103378213Y-52489707D01*
X103378210Y-52489711D01*
X103290609Y-52620814D01*
X103290602Y-52620827D01*
X103230264Y-52766498D01*
X103230261Y-52766510D01*
X103199500Y-52921153D01*
X103199500Y-53078846D01*
X103230261Y-53233489D01*
X103230264Y-53233501D01*
X103290061Y-53377864D01*
X103299500Y-53425316D01*
X103299500Y-54067948D01*
X103279815Y-54134987D01*
X103263181Y-54155629D01*
X103179661Y-54239148D01*
X103089093Y-54385981D01*
X103089092Y-54385984D01*
X103034826Y-54549747D01*
X103034826Y-54549748D01*
X103034825Y-54549748D01*
X103024500Y-54650815D01*
X101975499Y-54650815D01*
X101975499Y-54575824D01*
X101972835Y-54549748D01*
X101965174Y-54474747D01*
X101935761Y-54385986D01*
X101910908Y-54310984D01*
X101820340Y-54164150D01*
X101736819Y-54080629D01*
X101703334Y-54019306D01*
X101700500Y-53992948D01*
X101700500Y-53431004D01*
X101673581Y-53295677D01*
X101673580Y-53295676D01*
X101673580Y-53295672D01*
X101673578Y-53295667D01*
X101620778Y-53168195D01*
X101620774Y-53168188D01*
X101584637Y-53114105D01*
X101584637Y-53114104D01*
X101544115Y-53053458D01*
X101544109Y-53053451D01*
X100345545Y-51854887D01*
X100290652Y-51818209D01*
X122799500Y-51818209D01*
X122799500Y-52181790D01*
X122835137Y-52543630D01*
X122906064Y-52900212D01*
X122906067Y-52900223D01*
X123011614Y-53248165D01*
X123150754Y-53584078D01*
X123150756Y-53584083D01*
X123322140Y-53904720D01*
X123322144Y-53904727D01*
X123322147Y-53904732D01*
X123489791Y-54155629D01*
X123524140Y-54207035D01*
X123524150Y-54207049D01*
X123754807Y-54488106D01*
X124011893Y-54745192D01*
X124011898Y-54745196D01*
X124011899Y-54745197D01*
X124292956Y-54975854D01*
X124595268Y-55177853D01*
X124595277Y-55177858D01*
X124595279Y-55177859D01*
X124915916Y-55349243D01*
X124915918Y-55349243D01*
X124915924Y-55349247D01*
X125251836Y-55488386D01*
X125599767Y-55593930D01*
X125599773Y-55593931D01*
X125599776Y-55593932D01*
X125599787Y-55593935D01*
X125936199Y-55660850D01*
X125956369Y-55664862D01*
X126318206Y-55700500D01*
X126318209Y-55700500D01*
X126681791Y-55700500D01*
X126681794Y-55700500D01*
X127043631Y-55664862D01*
X127113045Y-55651054D01*
X127400212Y-55593935D01*
X127400223Y-55593932D01*
X127400223Y-55593931D01*
X127400233Y-55593930D01*
X127748164Y-55488386D01*
X128084076Y-55349247D01*
X128404732Y-55177853D01*
X128707044Y-54975854D01*
X128988101Y-54745197D01*
X129245197Y-54488101D01*
X129475854Y-54207044D01*
X129677853Y-53904732D01*
X129849247Y-53584076D01*
X129988386Y-53248164D01*
X130093930Y-52900233D01*
X130093932Y-52900223D01*
X130093935Y-52900212D01*
X130164862Y-52543630D01*
X130181154Y-52378213D01*
X130200500Y-52181794D01*
X130200500Y-51818206D01*
X130164862Y-51456369D01*
X130093935Y-51099787D01*
X130093932Y-51099776D01*
X130093931Y-51099773D01*
X130093930Y-51099767D01*
X129988386Y-50751836D01*
X129849247Y-50415924D01*
X129746187Y-50223113D01*
X129677859Y-50095279D01*
X129677858Y-50095277D01*
X129677853Y-50095268D01*
X129475854Y-49792956D01*
X129245197Y-49511899D01*
X129245196Y-49511898D01*
X129245192Y-49511893D01*
X128988106Y-49254807D01*
X128707049Y-49024150D01*
X128707048Y-49024149D01*
X128707044Y-49024146D01*
X128404732Y-48822147D01*
X128404727Y-48822144D01*
X128404720Y-48822140D01*
X128084083Y-48650756D01*
X128084078Y-48650754D01*
X127748165Y-48511614D01*
X127400223Y-48406067D01*
X127400212Y-48406064D01*
X127043630Y-48335137D01*
X126771111Y-48308296D01*
X126681794Y-48299500D01*
X126318206Y-48299500D01*
X126235679Y-48307628D01*
X125956369Y-48335137D01*
X125599787Y-48406064D01*
X125599776Y-48406067D01*
X125251834Y-48511614D01*
X124915921Y-48650754D01*
X124915916Y-48650756D01*
X124595279Y-48822140D01*
X124595261Y-48822151D01*
X124292964Y-49024140D01*
X124292950Y-49024150D01*
X124011893Y-49254807D01*
X123754807Y-49511893D01*
X123524150Y-49792950D01*
X123524140Y-49792964D01*
X123322151Y-50095261D01*
X123322140Y-50095279D01*
X123150756Y-50415916D01*
X123150754Y-50415921D01*
X123011614Y-50751834D01*
X122906067Y-51099776D01*
X122906064Y-51099787D01*
X122835137Y-51456369D01*
X122828976Y-51518928D01*
X122800257Y-51810526D01*
X122799500Y-51818209D01*
X100290652Y-51818209D01*
X100230807Y-51778222D01*
X100103332Y-51725421D01*
X100103322Y-51725418D01*
X99967996Y-51698500D01*
X99967994Y-51698500D01*
X99967993Y-51698500D01*
X87169994Y-51698500D01*
X87032006Y-51698500D01*
X87032004Y-51698500D01*
X86896677Y-51725418D01*
X86896667Y-51725421D01*
X86769192Y-51778222D01*
X86654454Y-51854887D01*
X84455887Y-54053454D01*
X84379223Y-54168192D01*
X84326421Y-54295668D01*
X84326421Y-54295669D01*
X84326420Y-54295672D01*
X84313199Y-54362140D01*
X84299500Y-54431007D01*
X84299500Y-84376006D01*
X84299500Y-84513994D01*
X84299500Y-84513996D01*
X84299499Y-84513996D01*
X84326418Y-84649322D01*
X84326421Y-84649332D01*
X84379222Y-84776807D01*
X84455887Y-84891545D01*
X84455888Y-84891546D01*
X86712518Y-87148175D01*
X86746003Y-87209498D01*
X86742769Y-87274170D01*
X86736447Y-87293627D01*
X86736447Y-87293628D01*
X86699500Y-87526902D01*
X86699500Y-87763097D01*
X86736446Y-87996368D01*
X86809433Y-88220996D01*
X86916657Y-88431433D01*
X87055483Y-88622510D01*
X87222490Y-88789517D01*
X87257127Y-88814683D01*
X87299792Y-88870013D01*
X87305771Y-88939626D01*
X87273165Y-89001421D01*
X87257130Y-89015315D01*
X87239365Y-89028222D01*
X87222488Y-89040484D01*
X87055485Y-89207487D01*
X87055485Y-89207488D01*
X87055483Y-89207490D01*
X87019478Y-89257047D01*
X86916657Y-89398566D01*
X86809433Y-89609003D01*
X86791623Y-89663819D01*
X86752185Y-89721494D01*
X86687826Y-89748692D01*
X86673692Y-89749500D01*
X67826080Y-89749500D01*
X67681092Y-89778340D01*
X67681086Y-89778342D01*
X67544508Y-89834914D01*
X67544496Y-89834921D01*
X67495269Y-89867813D01*
X67421588Y-89917044D01*
X67421580Y-89917050D01*
X65617047Y-91721584D01*
X65617042Y-91721590D01*
X65588966Y-91763613D01*
X65588964Y-91763616D01*
X65561847Y-91804199D01*
X65534914Y-91844507D01*
X65478343Y-91981082D01*
X65478340Y-91981092D01*
X65449500Y-92126079D01*
X65449500Y-95437770D01*
X65429815Y-95504809D01*
X65413181Y-95525451D01*
X63925451Y-97013181D01*
X63864128Y-97046666D01*
X63837770Y-97049500D01*
X61762230Y-97049500D01*
X61695191Y-97029815D01*
X61674549Y-97013181D01*
X60786819Y-96125451D01*
X60753334Y-96064128D01*
X60750500Y-96037770D01*
X60750500Y-91126079D01*
X60721659Y-90981092D01*
X60721658Y-90981091D01*
X60721658Y-90981087D01*
X60676529Y-90872135D01*
X60665087Y-90844511D01*
X60665080Y-90844498D01*
X60582952Y-90721585D01*
X60539031Y-90677664D01*
X60478416Y-90617049D01*
X60161367Y-90300000D01*
X59118418Y-89257049D01*
X59118416Y-89257047D01*
X59044242Y-89207488D01*
X59036355Y-89202218D01*
X58995495Y-89174916D01*
X58995494Y-89174915D01*
X58995492Y-89174914D01*
X58995490Y-89174913D01*
X58858917Y-89118343D01*
X58858907Y-89118340D01*
X58713920Y-89089500D01*
X58713918Y-89089500D01*
X58187221Y-89089500D01*
X58120182Y-89069815D01*
X58086903Y-89038385D01*
X58030107Y-88960211D01*
X57879786Y-88809890D01*
X57707820Y-88684951D01*
X57707115Y-88684591D01*
X57699054Y-88680485D01*
X57648259Y-88632512D01*
X57631463Y-88564692D01*
X57653999Y-88498556D01*
X57699054Y-88459515D01*
X57707816Y-88455051D01*
X57740324Y-88431433D01*
X57879786Y-88330109D01*
X57879788Y-88330106D01*
X57879792Y-88330104D01*
X58030104Y-88179792D01*
X58030108Y-88179786D01*
X58086903Y-88101615D01*
X58142233Y-88058949D01*
X58187221Y-88050500D01*
X59552770Y-88050500D01*
X59619809Y-88070185D01*
X59640451Y-88086819D01*
X61298719Y-89745086D01*
X61332204Y-89806409D01*
X61333511Y-89852165D01*
X61299500Y-90066902D01*
X61299500Y-90303097D01*
X61336446Y-90536368D01*
X61409433Y-90760996D01*
X61466052Y-90872116D01*
X61516657Y-90971433D01*
X61655483Y-91162510D01*
X61822490Y-91329517D01*
X61881716Y-91372547D01*
X61924381Y-91427875D01*
X61932448Y-91482593D01*
X61930893Y-91502340D01*
X62662425Y-92233871D01*
X62603147Y-92249755D01*
X62486853Y-92316898D01*
X62391898Y-92411853D01*
X62324755Y-92528147D01*
X62308871Y-92587425D01*
X61577340Y-91855894D01*
X61517084Y-91938830D01*
X61409897Y-92149197D01*
X61336934Y-92373752D01*
X61300000Y-92606947D01*
X61300000Y-92843052D01*
X61336934Y-93076247D01*
X61409897Y-93300802D01*
X61517087Y-93511174D01*
X61577338Y-93594104D01*
X61577340Y-93594105D01*
X62308871Y-92862574D01*
X62324755Y-92921853D01*
X62391898Y-93038147D01*
X62486853Y-93133102D01*
X62603147Y-93200245D01*
X62662425Y-93216128D01*
X61930893Y-93947658D01*
X61932448Y-93967405D01*
X61918084Y-94035783D01*
X61881717Y-94077451D01*
X61822490Y-94120482D01*
X61655485Y-94287487D01*
X61655485Y-94287488D01*
X61655483Y-94287490D01*
X61640279Y-94308417D01*
X61516657Y-94478566D01*
X61409433Y-94689003D01*
X61336446Y-94913631D01*
X61299500Y-95146902D01*
X61299500Y-95383097D01*
X61336446Y-95616368D01*
X61409433Y-95840996D01*
X61509695Y-96037770D01*
X61516657Y-96051433D01*
X61655483Y-96242510D01*
X61822490Y-96409517D01*
X62013567Y-96548343D01*
X62076679Y-96580500D01*
X62224003Y-96655566D01*
X62224005Y-96655566D01*
X62224008Y-96655568D01*
X62344412Y-96694689D01*
X62448631Y-96728553D01*
X62681903Y-96765500D01*
X62681908Y-96765500D01*
X62918097Y-96765500D01*
X63151368Y-96728553D01*
X63375992Y-96655568D01*
X63586433Y-96548343D01*
X63777510Y-96409517D01*
X63944517Y-96242510D01*
X64083343Y-96051433D01*
X64190568Y-95840992D01*
X64263553Y-95616368D01*
X64300500Y-95383097D01*
X64300500Y-95146902D01*
X64263553Y-94913631D01*
X64213789Y-94760476D01*
X64190568Y-94689008D01*
X64190566Y-94689005D01*
X64190566Y-94689003D01*
X64121986Y-94554409D01*
X64083343Y-94478567D01*
X63944517Y-94287490D01*
X63777510Y-94120483D01*
X63718282Y-94077451D01*
X63675617Y-94022122D01*
X63667550Y-93967404D01*
X63669104Y-93947657D01*
X62937574Y-93216128D01*
X62996853Y-93200245D01*
X63113147Y-93133102D01*
X63208102Y-93038147D01*
X63275245Y-92921853D01*
X63291128Y-92862575D01*
X64022658Y-93594105D01*
X64022658Y-93594104D01*
X64082914Y-93511169D01*
X64082918Y-93511163D01*
X64190102Y-93300802D01*
X64263065Y-93076247D01*
X64300000Y-92843052D01*
X64300000Y-92606947D01*
X64263065Y-92373752D01*
X64190102Y-92149197D01*
X64082914Y-91938828D01*
X64022658Y-91855894D01*
X64022658Y-91855893D01*
X63291128Y-92587424D01*
X63275245Y-92528147D01*
X63208102Y-92411853D01*
X63113147Y-92316898D01*
X62996853Y-92249755D01*
X62937574Y-92233871D01*
X63669105Y-91502340D01*
X63667551Y-91482594D01*
X63681915Y-91414216D01*
X63718284Y-91372547D01*
X63777510Y-91329517D01*
X63944517Y-91162510D01*
X64083343Y-90971433D01*
X64190568Y-90760992D01*
X64263553Y-90536368D01*
X64282063Y-90419500D01*
X64300500Y-90303097D01*
X64300500Y-90066902D01*
X64263553Y-89833631D01*
X64227117Y-89721494D01*
X64190568Y-89609008D01*
X64190566Y-89609005D01*
X64190566Y-89609003D01*
X64083342Y-89398566D01*
X64027414Y-89321588D01*
X63944517Y-89207490D01*
X63777510Y-89040483D01*
X63742872Y-89015317D01*
X63700207Y-88959989D01*
X63694228Y-88890375D01*
X63726833Y-88828580D01*
X63742873Y-88814682D01*
X63777510Y-88789517D01*
X63944517Y-88622510D01*
X64083343Y-88431433D01*
X64190568Y-88220992D01*
X64263553Y-87996368D01*
X64300500Y-87763097D01*
X64300500Y-87526902D01*
X64263553Y-87293631D01*
X64190566Y-87069003D01*
X64083342Y-86858566D01*
X63944517Y-86667490D01*
X63777510Y-86500483D01*
X63742872Y-86475317D01*
X63700207Y-86419989D01*
X63694228Y-86350375D01*
X63726833Y-86288580D01*
X63742873Y-86274682D01*
X63777510Y-86249517D01*
X63944517Y-86082510D01*
X64083343Y-85891433D01*
X64190568Y-85680992D01*
X64263553Y-85456368D01*
X64273417Y-85394089D01*
X64300500Y-85223097D01*
X64300500Y-84986902D01*
X64263553Y-84753631D01*
X64216291Y-84608174D01*
X64190568Y-84529008D01*
X64190566Y-84529005D01*
X64190566Y-84529003D01*
X64134002Y-84417991D01*
X64083343Y-84318567D01*
X63944517Y-84127490D01*
X63777510Y-83960483D01*
X63742872Y-83935317D01*
X63700207Y-83879989D01*
X63694228Y-83810375D01*
X63726833Y-83748580D01*
X63742873Y-83734682D01*
X63777510Y-83709517D01*
X63944517Y-83542510D01*
X64083343Y-83351433D01*
X64190568Y-83140992D01*
X64263553Y-82916368D01*
X64274762Y-82845596D01*
X64300500Y-82683097D01*
X64300500Y-82446902D01*
X64263553Y-82213631D01*
X64202174Y-82024727D01*
X64190568Y-81989008D01*
X64190566Y-81989005D01*
X64190566Y-81989003D01*
X64134002Y-81877991D01*
X64083343Y-81778567D01*
X63944517Y-81587490D01*
X63777510Y-81420483D01*
X63742872Y-81395317D01*
X63700207Y-81339989D01*
X63694228Y-81270375D01*
X63726833Y-81208580D01*
X63742873Y-81194682D01*
X63777510Y-81169517D01*
X63944517Y-81002510D01*
X64083343Y-80811433D01*
X64190568Y-80600992D01*
X64263553Y-80376368D01*
X64268384Y-80345866D01*
X64300500Y-80143097D01*
X64300500Y-79906902D01*
X64263553Y-79673631D01*
X64218452Y-79534826D01*
X64190568Y-79449008D01*
X64190566Y-79449005D01*
X64190566Y-79449003D01*
X64120691Y-79311867D01*
X64083343Y-79238567D01*
X63944517Y-79047490D01*
X63777510Y-78880483D01*
X63742872Y-78855317D01*
X63700207Y-78799989D01*
X63694228Y-78730375D01*
X63726833Y-78668580D01*
X63742873Y-78654682D01*
X63748629Y-78650500D01*
X63777510Y-78629517D01*
X63944517Y-78462510D01*
X64083343Y-78271433D01*
X64190568Y-78060992D01*
X64263553Y-77836368D01*
X64278862Y-77739711D01*
X64300500Y-77603097D01*
X64300500Y-77366902D01*
X64263553Y-77133631D01*
X64211357Y-76972989D01*
X64190568Y-76909008D01*
X64190566Y-76909005D01*
X64190566Y-76909003D01*
X64128120Y-76786446D01*
X64083343Y-76698567D01*
X63944517Y-76507490D01*
X63777510Y-76340483D01*
X63742872Y-76315317D01*
X63700207Y-76259989D01*
X63694228Y-76190375D01*
X63726833Y-76128580D01*
X63742873Y-76114682D01*
X63777510Y-76089517D01*
X63944517Y-75922510D01*
X64083343Y-75731433D01*
X64190568Y-75520992D01*
X64263553Y-75296368D01*
X64300500Y-75063097D01*
X64300500Y-74826902D01*
X64263553Y-74593631D01*
X64206177Y-74417048D01*
X64190568Y-74369008D01*
X64190566Y-74369005D01*
X64190566Y-74369003D01*
X64119873Y-74230261D01*
X64083343Y-74158567D01*
X63944517Y-73967490D01*
X63777510Y-73800483D01*
X63742872Y-73775317D01*
X63700207Y-73719989D01*
X63694228Y-73650375D01*
X63726833Y-73588580D01*
X63742873Y-73574682D01*
X63777510Y-73549517D01*
X63944517Y-73382510D01*
X64083343Y-73191433D01*
X64190568Y-72980992D01*
X64263553Y-72756368D01*
X64266043Y-72740648D01*
X64300500Y-72523097D01*
X64300500Y-72286902D01*
X64263553Y-72053631D01*
X64216118Y-71907644D01*
X64190568Y-71829008D01*
X64190566Y-71829005D01*
X64190566Y-71829003D01*
X64106567Y-71664147D01*
X64083343Y-71618567D01*
X63944517Y-71427490D01*
X63777510Y-71260483D01*
X63742872Y-71235317D01*
X63700207Y-71179989D01*
X63694228Y-71110375D01*
X63726833Y-71048580D01*
X63742873Y-71034682D01*
X63765385Y-71018326D01*
X63777510Y-71009517D01*
X63944517Y-70842510D01*
X64083343Y-70651433D01*
X64190568Y-70440992D01*
X64263553Y-70216368D01*
X64266043Y-70200648D01*
X64300500Y-69983097D01*
X64300500Y-69746902D01*
X64263553Y-69513631D01*
X64228569Y-69405963D01*
X64190568Y-69289008D01*
X64190566Y-69289005D01*
X64190566Y-69289003D01*
X64106696Y-69124400D01*
X64083343Y-69078567D01*
X63944517Y-68887490D01*
X63777510Y-68720483D01*
X63742872Y-68695317D01*
X63700207Y-68639989D01*
X63694228Y-68570375D01*
X63726833Y-68508580D01*
X63742873Y-68494682D01*
X63777510Y-68469517D01*
X63944517Y-68302510D01*
X64083343Y-68111433D01*
X64190568Y-67900992D01*
X64263553Y-67676368D01*
X64274761Y-67605602D01*
X64300500Y-67443097D01*
X64300500Y-67206902D01*
X64263553Y-66973631D01*
X64216118Y-66827644D01*
X64190568Y-66749008D01*
X64190566Y-66749005D01*
X64190566Y-66749003D01*
X64106695Y-66584398D01*
X64083343Y-66538567D01*
X63944517Y-66347490D01*
X63777510Y-66180483D01*
X63742872Y-66155317D01*
X63700207Y-66099989D01*
X63694228Y-66030375D01*
X63726833Y-65968580D01*
X63742873Y-65954682D01*
X63748629Y-65950500D01*
X63777510Y-65929517D01*
X63944517Y-65762510D01*
X64083343Y-65571433D01*
X64190568Y-65360992D01*
X64263553Y-65136368D01*
X64274761Y-65065602D01*
X64300500Y-64903097D01*
X64300500Y-64666902D01*
X64263553Y-64433631D01*
X64190566Y-64209003D01*
X64112548Y-64055886D01*
X64083343Y-63998567D01*
X63944517Y-63807490D01*
X63777510Y-63640483D01*
X63742872Y-63615317D01*
X63700207Y-63559989D01*
X63694228Y-63490375D01*
X63726833Y-63428580D01*
X63742873Y-63414682D01*
X63777510Y-63389517D01*
X63944517Y-63222510D01*
X64083343Y-63031433D01*
X64190568Y-62820992D01*
X64263553Y-62596368D01*
X64300500Y-62363097D01*
X64300500Y-62126902D01*
X64263553Y-61893631D01*
X64190566Y-61669003D01*
X64083342Y-61458566D01*
X64027414Y-61381588D01*
X63944517Y-61267490D01*
X63777510Y-61100483D01*
X63742872Y-61075317D01*
X63700207Y-61019989D01*
X63694228Y-60950375D01*
X63726833Y-60888580D01*
X63742873Y-60874682D01*
X63777510Y-60849517D01*
X63944517Y-60682510D01*
X64083343Y-60491433D01*
X64190568Y-60280992D01*
X64263553Y-60056368D01*
X64280400Y-59950000D01*
X64300500Y-59823097D01*
X64300500Y-59586902D01*
X64263553Y-59353631D01*
X64213099Y-59198351D01*
X64190568Y-59129008D01*
X64190566Y-59129005D01*
X64190566Y-59129003D01*
X64083342Y-58918566D01*
X64060955Y-58887753D01*
X63944517Y-58727490D01*
X63777510Y-58560483D01*
X63586433Y-58421657D01*
X63375996Y-58314433D01*
X63151368Y-58241446D01*
X62918097Y-58204500D01*
X62918092Y-58204500D01*
X62681908Y-58204500D01*
X62681903Y-58204500D01*
X62448631Y-58241446D01*
X62224003Y-58314433D01*
X62013566Y-58421657D01*
X61904550Y-58500862D01*
X61822490Y-58560483D01*
X61822488Y-58560485D01*
X61822487Y-58560485D01*
X61655485Y-58727487D01*
X61655485Y-58727488D01*
X61655483Y-58727490D01*
X61612487Y-58786669D01*
X61516657Y-58918566D01*
X61409433Y-59129003D01*
X61336446Y-59353631D01*
X61299500Y-59586902D01*
X61299500Y-59823097D01*
X61336446Y-60056368D01*
X61409433Y-60280996D01*
X61495546Y-60450000D01*
X61516657Y-60491433D01*
X61655483Y-60682510D01*
X61822490Y-60849517D01*
X61857127Y-60874683D01*
X61899792Y-60930013D01*
X61905771Y-60999626D01*
X61873165Y-61061421D01*
X61857130Y-61075315D01*
X61839365Y-61088222D01*
X61822488Y-61100484D01*
X61655485Y-61267487D01*
X61655485Y-61267488D01*
X61655483Y-61267490D01*
X61595862Y-61349550D01*
X61516657Y-61458566D01*
X61409433Y-61669003D01*
X61336446Y-61893631D01*
X61299500Y-62126902D01*
X61299500Y-62363097D01*
X61336446Y-62596368D01*
X61409433Y-62820996D01*
X61492205Y-62983443D01*
X61516657Y-63031433D01*
X61655483Y-63222510D01*
X61822490Y-63389517D01*
X61857127Y-63414683D01*
X61899792Y-63470013D01*
X61905771Y-63539626D01*
X61873165Y-63601421D01*
X61857130Y-63615315D01*
X61839365Y-63628222D01*
X61822488Y-63640484D01*
X61655485Y-63807487D01*
X61655485Y-63807488D01*
X61655483Y-63807490D01*
X61595862Y-63889550D01*
X61516657Y-63998566D01*
X61409433Y-64209003D01*
X61336446Y-64433631D01*
X61299500Y-64666902D01*
X61299500Y-64903097D01*
X61336446Y-65136368D01*
X61409433Y-65360996D01*
X61470683Y-65481204D01*
X61516657Y-65571433D01*
X61655483Y-65762510D01*
X61822490Y-65929517D01*
X61857127Y-65954683D01*
X61899792Y-66010013D01*
X61905771Y-66079626D01*
X61873165Y-66141421D01*
X61857130Y-66155315D01*
X61831966Y-66173598D01*
X61822487Y-66180485D01*
X61655485Y-66347487D01*
X61655485Y-66347488D01*
X61655483Y-66347490D01*
X61615970Y-66401875D01*
X61516657Y-66538566D01*
X61409433Y-66749003D01*
X61336446Y-66973631D01*
X61299500Y-67206902D01*
X61299500Y-67443097D01*
X61336446Y-67676368D01*
X61409433Y-67900996D01*
X61513958Y-68106136D01*
X61516657Y-68111433D01*
X61655483Y-68302510D01*
X61822490Y-68469517D01*
X61857127Y-68494683D01*
X61899792Y-68550013D01*
X61905771Y-68619626D01*
X61873165Y-68681421D01*
X61857130Y-68695315D01*
X61839365Y-68708222D01*
X61822488Y-68720484D01*
X61655485Y-68887487D01*
X61655485Y-68887488D01*
X61655483Y-68887490D01*
X61628883Y-68924102D01*
X61516657Y-69078566D01*
X61409433Y-69289003D01*
X61336446Y-69513631D01*
X61299500Y-69746902D01*
X61299500Y-69983097D01*
X61336446Y-70216368D01*
X61409433Y-70440996D01*
X61513945Y-70646111D01*
X61516657Y-70651433D01*
X61655483Y-70842510D01*
X61822490Y-71009517D01*
X61857127Y-71034683D01*
X61899792Y-71090013D01*
X61905771Y-71159626D01*
X61873165Y-71221421D01*
X61857130Y-71235315D01*
X61842202Y-71246161D01*
X61822488Y-71260484D01*
X61655485Y-71427487D01*
X61655485Y-71427488D01*
X61655483Y-71427490D01*
X61602536Y-71500365D01*
X61516657Y-71618566D01*
X61409433Y-71829003D01*
X61336446Y-72053631D01*
X61299500Y-72286902D01*
X61299500Y-72523097D01*
X61336446Y-72756368D01*
X61409433Y-72980996D01*
X61514489Y-73187179D01*
X61516657Y-73191433D01*
X61655483Y-73382510D01*
X61822490Y-73549517D01*
X61857127Y-73574683D01*
X61899792Y-73630013D01*
X61905771Y-73699626D01*
X61873165Y-73761421D01*
X61857130Y-73775315D01*
X61839365Y-73788222D01*
X61822488Y-73800484D01*
X61655485Y-73967487D01*
X61655485Y-73967488D01*
X61655483Y-73967490D01*
X61598828Y-74045469D01*
X61516657Y-74158566D01*
X61409433Y-74369003D01*
X61336446Y-74593631D01*
X61299500Y-74826902D01*
X61299500Y-75063097D01*
X61336446Y-75296368D01*
X61409433Y-75520996D01*
X61513228Y-75724703D01*
X61516657Y-75731433D01*
X61655483Y-75922510D01*
X61822490Y-76089517D01*
X61857127Y-76114683D01*
X61899792Y-76170013D01*
X61905771Y-76239626D01*
X61873165Y-76301421D01*
X61857130Y-76315315D01*
X61839365Y-76328222D01*
X61822488Y-76340484D01*
X61655485Y-76507487D01*
X61655485Y-76507488D01*
X61655483Y-76507490D01*
X61619161Y-76557483D01*
X61516657Y-76698566D01*
X61409433Y-76909003D01*
X61336446Y-77133631D01*
X61299500Y-77366902D01*
X61299500Y-77603097D01*
X61336446Y-77836368D01*
X61409433Y-78060996D01*
X61510246Y-78258851D01*
X61516657Y-78271433D01*
X61655483Y-78462510D01*
X61822490Y-78629517D01*
X61857127Y-78654683D01*
X61899792Y-78710013D01*
X61905771Y-78779626D01*
X61873165Y-78841421D01*
X61857130Y-78855315D01*
X61839365Y-78868222D01*
X61822488Y-78880484D01*
X61655485Y-79047487D01*
X61655485Y-79047488D01*
X61655483Y-79047490D01*
X61595862Y-79129550D01*
X61516657Y-79238566D01*
X61409433Y-79449003D01*
X61336446Y-79673631D01*
X61299500Y-79906902D01*
X61299500Y-80143097D01*
X61336446Y-80376368D01*
X61409433Y-80600996D01*
X61508886Y-80796182D01*
X61516657Y-80811433D01*
X61655483Y-81002510D01*
X61822490Y-81169517D01*
X61857127Y-81194683D01*
X61899792Y-81250013D01*
X61905771Y-81319626D01*
X61873165Y-81381421D01*
X61857130Y-81395315D01*
X61839365Y-81408222D01*
X61822488Y-81420484D01*
X61655485Y-81587487D01*
X61655485Y-81587488D01*
X61655483Y-81587490D01*
X61602241Y-81660771D01*
X61516657Y-81778566D01*
X61409433Y-81989003D01*
X61336447Y-82213630D01*
X61324413Y-82289609D01*
X61294483Y-82352743D01*
X61235172Y-82389674D01*
X61165309Y-82388676D01*
X61114259Y-82357891D01*
X60393421Y-81637052D01*
X60393420Y-81637051D01*
X60342187Y-81602819D01*
X60296214Y-81572101D01*
X60296214Y-81572100D01*
X60270495Y-81554916D01*
X60270490Y-81554913D01*
X60133917Y-81498343D01*
X60133907Y-81498340D01*
X59988920Y-81469500D01*
X59988918Y-81469500D01*
X58187221Y-81469500D01*
X58120182Y-81449815D01*
X58086903Y-81418385D01*
X58030107Y-81340211D01*
X57879786Y-81189890D01*
X57707817Y-81064949D01*
X57698504Y-81060204D01*
X57647707Y-81012230D01*
X57630912Y-80944409D01*
X57653449Y-80878274D01*
X57698507Y-80839232D01*
X57707555Y-80834622D01*
X57761716Y-80795270D01*
X57761717Y-80795270D01*
X57129408Y-80162962D01*
X57192993Y-80145925D01*
X57307007Y-80080099D01*
X57400099Y-79987007D01*
X57465925Y-79872993D01*
X57482962Y-79809409D01*
X58115270Y-80441717D01*
X58115270Y-80441716D01*
X58154622Y-80387554D01*
X58251095Y-80198217D01*
X58316757Y-79996130D01*
X58316757Y-79996127D01*
X58350000Y-79786246D01*
X58350000Y-79573753D01*
X58316757Y-79363872D01*
X58316757Y-79363869D01*
X58251095Y-79161782D01*
X58154624Y-78972449D01*
X58115270Y-78918282D01*
X58115269Y-78918282D01*
X57482962Y-79550590D01*
X57465925Y-79487007D01*
X57400099Y-79372993D01*
X57307007Y-79279901D01*
X57192993Y-79214075D01*
X57129409Y-79197037D01*
X57761716Y-78564728D01*
X57707550Y-78525375D01*
X57697954Y-78520486D01*
X57647157Y-78472512D01*
X57630361Y-78404692D01*
X57652897Y-78338556D01*
X57697954Y-78299514D01*
X57707554Y-78294622D01*
X57761716Y-78255270D01*
X57761717Y-78255270D01*
X57129408Y-77622962D01*
X57192993Y-77605925D01*
X57307007Y-77540099D01*
X57400099Y-77447007D01*
X57465925Y-77332993D01*
X57482962Y-77269409D01*
X58115270Y-77901717D01*
X58115270Y-77901716D01*
X58154622Y-77847554D01*
X58251095Y-77658217D01*
X58316757Y-77456130D01*
X58316757Y-77456127D01*
X58350000Y-77246246D01*
X58350000Y-77033753D01*
X58316757Y-76823872D01*
X58316757Y-76823869D01*
X58251095Y-76621782D01*
X58154624Y-76432449D01*
X58115270Y-76378282D01*
X58115269Y-76378282D01*
X57482962Y-77010590D01*
X57465925Y-76947007D01*
X57400099Y-76832993D01*
X57307007Y-76739901D01*
X57192993Y-76674075D01*
X57129409Y-76657037D01*
X57761716Y-76024728D01*
X57707550Y-75985375D01*
X57697954Y-75980486D01*
X57647157Y-75932512D01*
X57630361Y-75864692D01*
X57652897Y-75798556D01*
X57697954Y-75759514D01*
X57707554Y-75754622D01*
X57761716Y-75715270D01*
X57761717Y-75715270D01*
X57129408Y-75082962D01*
X57192993Y-75065925D01*
X57307007Y-75000099D01*
X57400099Y-74907007D01*
X57465925Y-74792993D01*
X57482962Y-74729409D01*
X58115270Y-75361717D01*
X58115270Y-75361716D01*
X58154622Y-75307554D01*
X58251095Y-75118217D01*
X58316757Y-74916130D01*
X58316757Y-74916127D01*
X58350000Y-74706246D01*
X58350000Y-74493753D01*
X58316757Y-74283872D01*
X58316757Y-74283869D01*
X58251095Y-74081782D01*
X58154624Y-73892449D01*
X58115270Y-73838282D01*
X58115269Y-73838282D01*
X57482962Y-74470590D01*
X57465925Y-74407007D01*
X57400099Y-74292993D01*
X57307007Y-74199901D01*
X57192993Y-74134075D01*
X57129409Y-74117037D01*
X57761716Y-73484728D01*
X57707550Y-73445375D01*
X57697954Y-73440486D01*
X57647157Y-73392512D01*
X57630361Y-73324692D01*
X57652897Y-73258556D01*
X57697954Y-73219514D01*
X57707554Y-73214622D01*
X57761716Y-73175270D01*
X57761717Y-73175270D01*
X57129408Y-72542962D01*
X57192993Y-72525925D01*
X57307007Y-72460099D01*
X57400099Y-72367007D01*
X57465925Y-72252993D01*
X57482962Y-72189409D01*
X58115270Y-72821717D01*
X58115270Y-72821716D01*
X58154622Y-72767554D01*
X58251095Y-72578217D01*
X58316757Y-72376130D01*
X58316757Y-72376127D01*
X58350000Y-72166246D01*
X58350000Y-71953753D01*
X58316757Y-71743872D01*
X58316757Y-71743869D01*
X58251095Y-71541782D01*
X58154624Y-71352449D01*
X58115270Y-71298282D01*
X58115269Y-71298282D01*
X57482962Y-71930590D01*
X57465925Y-71867007D01*
X57400099Y-71752993D01*
X57307007Y-71659901D01*
X57192993Y-71594075D01*
X57129409Y-71577037D01*
X57761716Y-70944728D01*
X57707550Y-70905375D01*
X57697954Y-70900486D01*
X57647157Y-70852512D01*
X57630361Y-70784692D01*
X57652897Y-70718556D01*
X57697954Y-70679514D01*
X57707554Y-70674622D01*
X57761716Y-70635270D01*
X57761717Y-70635270D01*
X57129408Y-70002962D01*
X57192993Y-69985925D01*
X57307007Y-69920099D01*
X57400099Y-69827007D01*
X57465925Y-69712993D01*
X57482962Y-69649409D01*
X58115270Y-70281717D01*
X58115270Y-70281716D01*
X58154622Y-70227554D01*
X58251095Y-70038217D01*
X58316757Y-69836130D01*
X58316757Y-69836127D01*
X58350000Y-69626246D01*
X58350000Y-69413753D01*
X58316757Y-69203872D01*
X58316757Y-69203869D01*
X58251095Y-69001782D01*
X58154624Y-68812449D01*
X58115270Y-68758282D01*
X58115269Y-68758282D01*
X57482962Y-69390590D01*
X57465925Y-69327007D01*
X57400099Y-69212993D01*
X57307007Y-69119901D01*
X57192993Y-69054075D01*
X57129409Y-69037037D01*
X57761716Y-68404728D01*
X57707550Y-68365375D01*
X57697954Y-68360486D01*
X57647157Y-68312512D01*
X57630361Y-68244692D01*
X57652897Y-68178556D01*
X57697954Y-68139514D01*
X57707554Y-68134622D01*
X57761716Y-68095270D01*
X57761717Y-68095270D01*
X57129408Y-67462962D01*
X57192993Y-67445925D01*
X57307007Y-67380099D01*
X57400099Y-67287007D01*
X57465925Y-67172993D01*
X57482962Y-67109408D01*
X58115270Y-67741717D01*
X58115270Y-67741716D01*
X58154622Y-67687554D01*
X58251095Y-67498217D01*
X58316757Y-67296130D01*
X58316757Y-67296127D01*
X58350000Y-67086246D01*
X58350000Y-66873753D01*
X58316757Y-66663872D01*
X58316757Y-66663869D01*
X58251095Y-66461782D01*
X58154624Y-66272449D01*
X58115270Y-66218282D01*
X58115269Y-66218282D01*
X57482962Y-66850590D01*
X57465925Y-66787007D01*
X57400099Y-66672993D01*
X57307007Y-66579901D01*
X57192993Y-66514075D01*
X57129409Y-66497037D01*
X57761716Y-65864728D01*
X57707547Y-65825373D01*
X57707547Y-65825372D01*
X57698500Y-65820763D01*
X57647706Y-65772788D01*
X57630912Y-65704966D01*
X57653451Y-65638832D01*
X57698508Y-65599793D01*
X57707816Y-65595051D01*
X57787007Y-65537515D01*
X57879786Y-65470109D01*
X57879788Y-65470106D01*
X57879792Y-65470104D01*
X58030104Y-65319792D01*
X58030106Y-65319788D01*
X58030109Y-65319786D01*
X58155048Y-65147820D01*
X58155047Y-65147820D01*
X58155051Y-65147816D01*
X58251557Y-64958412D01*
X58317246Y-64756243D01*
X58350500Y-64546287D01*
X58350500Y-64333713D01*
X58317246Y-64123757D01*
X58251557Y-63921588D01*
X58155051Y-63732184D01*
X58155049Y-63732181D01*
X58155048Y-63732179D01*
X58030109Y-63560213D01*
X57879786Y-63409890D01*
X57707820Y-63284951D01*
X57707115Y-63284591D01*
X57699054Y-63280485D01*
X57648259Y-63232512D01*
X57631463Y-63164692D01*
X57653999Y-63098556D01*
X57699054Y-63059515D01*
X57707816Y-63055051D01*
X57740324Y-63031433D01*
X57879786Y-62930109D01*
X57879788Y-62930106D01*
X57879792Y-62930104D01*
X58030104Y-62779792D01*
X58030106Y-62779788D01*
X58030109Y-62779786D01*
X58155048Y-62607820D01*
X58155047Y-62607820D01*
X58155051Y-62607816D01*
X58251557Y-62418412D01*
X58317246Y-62216243D01*
X58350500Y-62006287D01*
X58350500Y-61793713D01*
X58317246Y-61583757D01*
X58251557Y-61381588D01*
X58155051Y-61192184D01*
X58155049Y-61192181D01*
X58155048Y-61192179D01*
X58030109Y-61020213D01*
X57879786Y-60869890D01*
X57707820Y-60744951D01*
X57518414Y-60648444D01*
X57518413Y-60648443D01*
X57518412Y-60648443D01*
X57316243Y-60582754D01*
X57316241Y-60582753D01*
X57316240Y-60582753D01*
X57154957Y-60557208D01*
X57106287Y-60549500D01*
X56893713Y-60549500D01*
X56845042Y-60557208D01*
X56683760Y-60582753D01*
X56481585Y-60648444D01*
X56292179Y-60744951D01*
X56120213Y-60869890D01*
X55969890Y-61020213D01*
X55844951Y-61192179D01*
X55748444Y-61381585D01*
X55682753Y-61583760D01*
X55649500Y-61793713D01*
X50500500Y-61793713D01*
X50500500Y-52002311D01*
X50500587Y-51997675D01*
X50500631Y-51996472D01*
X50507302Y-51818209D01*
X53299500Y-51818209D01*
X53299500Y-52181790D01*
X53335137Y-52543630D01*
X53406064Y-52900212D01*
X53406067Y-52900223D01*
X53511614Y-53248165D01*
X53650754Y-53584078D01*
X53650756Y-53584083D01*
X53822140Y-53904720D01*
X53822144Y-53904727D01*
X53822147Y-53904732D01*
X53989791Y-54155629D01*
X54024140Y-54207035D01*
X54024150Y-54207049D01*
X54254807Y-54488106D01*
X54511893Y-54745192D01*
X54511898Y-54745196D01*
X54511899Y-54745197D01*
X54792956Y-54975854D01*
X55095268Y-55177853D01*
X55095277Y-55177858D01*
X55095279Y-55177859D01*
X55415916Y-55349243D01*
X55415918Y-55349243D01*
X55415924Y-55349247D01*
X55751836Y-55488386D01*
X56099767Y-55593930D01*
X56099773Y-55593931D01*
X56099776Y-55593932D01*
X56099787Y-55593935D01*
X56436199Y-55660850D01*
X56456369Y-55664862D01*
X56818206Y-55700500D01*
X56818209Y-55700500D01*
X57181791Y-55700500D01*
X57181794Y-55700500D01*
X57543631Y-55664862D01*
X57613045Y-55651054D01*
X57900212Y-55593935D01*
X57900223Y-55593932D01*
X57900223Y-55593931D01*
X57900233Y-55593930D01*
X58248164Y-55488386D01*
X58584076Y-55349247D01*
X58904732Y-55177853D01*
X59207044Y-54975854D01*
X59488101Y-54745197D01*
X59745197Y-54488101D01*
X59975854Y-54207044D01*
X60177853Y-53904732D01*
X60349247Y-53584076D01*
X60488386Y-53248164D01*
X60593930Y-52900233D01*
X60593932Y-52900223D01*
X60593935Y-52900212D01*
X60664862Y-52543630D01*
X60681154Y-52378213D01*
X60700500Y-52181794D01*
X60700500Y-51818206D01*
X60664862Y-51456369D01*
X60593935Y-51099787D01*
X60593932Y-51099776D01*
X60593931Y-51099773D01*
X60593930Y-51099767D01*
X60488386Y-50751836D01*
X60349247Y-50415924D01*
X60246187Y-50223113D01*
X60177859Y-50095279D01*
X60177858Y-50095277D01*
X60177853Y-50095268D01*
X59975854Y-49792956D01*
X59745197Y-49511899D01*
X59745196Y-49511898D01*
X59745192Y-49511893D01*
X59488106Y-49254807D01*
X59207049Y-49024150D01*
X59207048Y-49024149D01*
X59207044Y-49024146D01*
X58904732Y-48822147D01*
X58904727Y-48822144D01*
X58904720Y-48822140D01*
X58584083Y-48650756D01*
X58584078Y-48650754D01*
X58248165Y-48511614D01*
X57900223Y-48406067D01*
X57900212Y-48406064D01*
X57543630Y-48335137D01*
X57271111Y-48308296D01*
X57181794Y-48299500D01*
X56818206Y-48299500D01*
X56735679Y-48307628D01*
X56456369Y-48335137D01*
X56099787Y-48406064D01*
X56099776Y-48406067D01*
X55751834Y-48511614D01*
X55415921Y-48650754D01*
X55415916Y-48650756D01*
X55095279Y-48822140D01*
X55095261Y-48822151D01*
X54792964Y-49024140D01*
X54792950Y-49024150D01*
X54511893Y-49254807D01*
X54254807Y-49511893D01*
X54024150Y-49792950D01*
X54024140Y-49792964D01*
X53822151Y-50095261D01*
X53822140Y-50095279D01*
X53650756Y-50415916D01*
X53650754Y-50415921D01*
X53511614Y-50751834D01*
X53406067Y-51099776D01*
X53406064Y-51099787D01*
X53335137Y-51456369D01*
X53328976Y-51518928D01*
X53300257Y-51810526D01*
X53299500Y-51818209D01*
X50507302Y-51818209D01*
X50518501Y-51518913D01*
X50519191Y-51509695D01*
X50572576Y-51035894D01*
X50573953Y-51026756D01*
X50662592Y-50558289D01*
X50664655Y-50549250D01*
X50700380Y-50415924D01*
X50788058Y-50088704D01*
X50790782Y-50079874D01*
X50948258Y-49629832D01*
X50951633Y-49621230D01*
X51142304Y-49184209D01*
X51146326Y-49175861D01*
X51369099Y-48754352D01*
X51373732Y-48746328D01*
X51433786Y-48650753D01*
X51627399Y-48342618D01*
X51632610Y-48334975D01*
X51915742Y-47951345D01*
X51921508Y-47944116D01*
X52232511Y-47582724D01*
X52238805Y-47575940D01*
X52575940Y-47238805D01*
X52582724Y-47232511D01*
X52944116Y-46921508D01*
X52951345Y-46915742D01*
X53334975Y-46632610D01*
X53342618Y-46627399D01*
X53746334Y-46373728D01*
X53754352Y-46369099D01*
X54175866Y-46146323D01*
X54184209Y-46142304D01*
X54621230Y-45951633D01*
X54629832Y-45948258D01*
X55079874Y-45790782D01*
X55088704Y-45788058D01*
X55549251Y-45664654D01*
X55558291Y-45662592D01*
X56026756Y-45573953D01*
X56035894Y-45572576D01*
X56509695Y-45519191D01*
X56518915Y-45518500D01*
X56960526Y-45501977D01*
X56997676Y-45500587D01*
X57002312Y-45500500D01*
X57065892Y-45500500D01*
X126434108Y-45500500D01*
X126497688Y-45500500D01*
X126502324Y-45500587D01*
G37*
%TD.AperFunction*%
%TD*%
M02*
