%TF.GenerationSoftware,KiCad,Pcbnew,9.0.2*%
%TF.CreationDate,2025-06-04T00:32:51+07:00*%
%TF.ProjectId,Telemetry V.3 BM13 EVO Hy,54656c65-6d65-4747-9279-20562e332042,rev?*%
%TF.SameCoordinates,Original*%
%TF.FileFunction,Copper,L2,Bot*%
%TF.FilePolarity,Positive*%
%FSLAX46Y46*%
G04 Gerber Fmt 4.6, Leading zero omitted, Abs format (unit mm)*
G04 Created by KiCad (PCBNEW 9.0.2) date 2025-06-04 00:32:51*
%MOMM*%
%LPD*%
G01*
G04 APERTURE LIST*
%TA.AperFunction,ComponentPad*%
%ADD10C,0.800000*%
%TD*%
%TA.AperFunction,ComponentPad*%
%ADD11C,6.400000*%
%TD*%
%TA.AperFunction,ComponentPad*%
%ADD12R,2.000000X2.000000*%
%TD*%
%TA.AperFunction,ComponentPad*%
%ADD13C,2.000000*%
%TD*%
%TA.AperFunction,ComponentPad*%
%ADD14O,2.000000X1.500000*%
%TD*%
%TA.AperFunction,ComponentPad*%
%ADD15R,2.000000X1.500000*%
%TD*%
%TA.AperFunction,ComponentPad*%
%ADD16R,1.700000X1.700000*%
%TD*%
%TA.AperFunction,ComponentPad*%
%ADD17O,1.700000X1.700000*%
%TD*%
%TA.AperFunction,ComponentPad*%
%ADD18C,1.700000*%
%TD*%
%TA.AperFunction,ViaPad*%
%ADD19C,0.600000*%
%TD*%
%TA.AperFunction,ViaPad*%
%ADD20C,0.500000*%
%TD*%
%TA.AperFunction,Conductor*%
%ADD21C,0.500000*%
%TD*%
%TA.AperFunction,Conductor*%
%ADD22C,0.400000*%
%TD*%
G04 APERTURE END LIST*
D10*
%TO.P,REF\u002A\u002A,1*%
%TO.N,N/C*%
X54600000Y-52000000D03*
X55302944Y-50302944D03*
X55302944Y-53697056D03*
X57000000Y-49600000D03*
D11*
X57000000Y-52000000D03*
D10*
X57000000Y-54400000D03*
X58697056Y-50302944D03*
X58697056Y-53697056D03*
X59400000Y-52000000D03*
%TD*%
%TO.P,REF\u002A\u002A,1*%
%TO.N,N/C*%
X124100000Y-108000000D03*
X124802944Y-106302944D03*
X124802944Y-109697056D03*
X126500000Y-105600000D03*
D11*
X126500000Y-108000000D03*
D10*
X126500000Y-110400000D03*
X128197056Y-106302944D03*
X128197056Y-109697056D03*
X128900000Y-108000000D03*
%TD*%
%TO.P,REF\u002A\u002A,1*%
%TO.N,N/C*%
X124100000Y-52000000D03*
X124802944Y-50302944D03*
X124802944Y-53697056D03*
X126500000Y-49600000D03*
D11*
X126500000Y-52000000D03*
D10*
X126500000Y-54400000D03*
X128197056Y-50302944D03*
X128197056Y-53697056D03*
X128900000Y-52000000D03*
%TD*%
D12*
%TO.P,U1,1,3V3*%
%TO.N,+3.3V*%
X88200000Y-95265000D03*
D13*
%TO.P,U1,2,GND*%
%TO.N,GND*%
X88200000Y-92725000D03*
%TO.P,U1,3,D15*%
%TO.N,/CS2*%
X88200000Y-90185000D03*
%TO.P,U1,4,D2*%
%TO.N,/LED1*%
X88200000Y-87645000D03*
%TO.P,U1,5,D4*%
%TO.N,/LED2*%
X88200000Y-85105000D03*
%TO.P,U1,6,RX2*%
%TO.N,/TX*%
X88200000Y-82565000D03*
%TO.P,U1,7,TX2*%
%TO.N,/RX*%
X88200000Y-80025000D03*
%TO.P,U1,8,D5*%
%TO.N,/CS*%
X88200000Y-77485000D03*
%TO.P,U1,9,D18*%
%TO.N,/SCK*%
X88200000Y-74945000D03*
%TO.P,U1,10,D19*%
%TO.N,/MISO*%
X88200000Y-72405000D03*
%TO.P,U1,11,D21*%
%TO.N,/SDA*%
X88200000Y-69865000D03*
%TO.P,U1,12,RX0*%
%TO.N,unconnected-(U1-RX0-Pad12)*%
X88200000Y-67325000D03*
%TO.P,U1,13,TX0*%
%TO.N,unconnected-(U1-TX0-Pad13)*%
X88200000Y-64785000D03*
%TO.P,U1,14,D22*%
%TO.N,/SCL*%
X88200000Y-62245000D03*
%TO.P,U1,15,D23*%
%TO.N,/MOSI*%
X88200000Y-59705000D03*
%TO.P,U1,16,EN*%
%TO.N,unconnected-(U1-EN-Pad16)*%
X62800000Y-59705000D03*
%TO.P,U1,17,VP*%
%TO.N,unconnected-(U1-VP-Pad17)*%
X62800000Y-62245000D03*
%TO.P,U1,18,VN*%
%TO.N,unconnected-(U1-VN-Pad18)*%
X62800000Y-64785000D03*
%TO.P,U1,19,D34*%
%TO.N,unconnected-(U1-D34-Pad19)*%
X62800000Y-67325000D03*
%TO.P,U1,20,D35*%
%TO.N,unconnected-(U1-D35-Pad20)*%
X62800000Y-69865000D03*
%TO.P,U1,21,D32*%
%TO.N,unconnected-(U1-D32-Pad21)*%
X62800000Y-72405000D03*
%TO.P,U1,22,D33*%
%TO.N,unconnected-(U1-D33-Pad22)*%
X62800000Y-74945000D03*
%TO.P,U1,23,D25*%
%TO.N,unconnected-(U1-D25-Pad23)*%
X62800000Y-77485000D03*
%TO.P,U1,24,D26*%
%TO.N,unconnected-(U1-D26-Pad24)*%
X62800000Y-80025000D03*
%TO.P,U1,25,D27*%
%TO.N,unconnected-(U1-D27-Pad25)*%
X62800000Y-82565000D03*
%TO.P,U1,26,D14*%
%TO.N,/SCK2*%
X62800000Y-85105000D03*
%TO.P,U1,27,D12*%
%TO.N,/MISO2*%
X62800000Y-87645000D03*
%TO.P,U1,28,D13*%
%TO.N,/MOSI2*%
X62800000Y-90185000D03*
%TO.P,U1,29,GND*%
%TO.N,GND*%
X62800000Y-92725000D03*
%TO.P,U1,30,VIN*%
%TO.N,+5V*%
X62800000Y-95265000D03*
%TD*%
D10*
%TO.P,REF\u002A\u002A,1*%
%TO.N,N/C*%
X54600000Y-108000000D03*
X55302944Y-106302944D03*
X55302944Y-109697056D03*
X57000000Y-105600000D03*
D11*
X57000000Y-108000000D03*
D10*
X57000000Y-110400000D03*
X58697056Y-106302944D03*
X58697056Y-109697056D03*
X59400000Y-108000000D03*
%TD*%
D14*
%TO.P,LoraE220-900T22D1,1,M0*%
%TO.N,GND*%
X100000000Y-90750000D03*
%TO.P,LoraE220-900T22D1,2,M1*%
X100000000Y-93290000D03*
%TO.P,LoraE220-900T22D1,3,RX*%
%TO.N,/RX*%
X100000000Y-95830000D03*
%TO.P,LoraE220-900T22D1,4,TX*%
%TO.N,/TX*%
X100000000Y-98370000D03*
%TO.P,LoraE220-900T22D1,5,AUX*%
%TO.N,unconnected-(LoraE220-900T22D1-AUX-Pad5)*%
X100000000Y-100910000D03*
%TO.P,LoraE220-900T22D1,6,VCC*%
%TO.N,+5V*%
X100000000Y-103450000D03*
%TO.P,LoraE220-900T22D1,7,GND*%
%TO.N,GND*%
X100000000Y-105990000D03*
%TO.P,LoraE220-900T22D1,8*%
%TO.N,N/C*%
X131500000Y-96750000D03*
%TO.P,LoraE220-900T22D1,9*%
X131500000Y-94210000D03*
D15*
%TO.P,LoraE220-900T22D1,10*%
X131500000Y-91670000D03*
%TD*%
D16*
%TO.P,J2,1,Pin_1*%
%TO.N,/32KHz*%
X129750000Y-66775000D03*
D17*
%TO.P,J2,2,Pin_2*%
%TO.N,/SQW*%
X129750000Y-64235000D03*
%TD*%
D16*
%TO.P,J4,1,Pin_1*%
%TO.N,+5V*%
X57000000Y-100000000D03*
D18*
%TO.P,J4,2,Pin_2*%
%TO.N,GND*%
X57000000Y-97460000D03*
%TO.P,J4,3,Pin_3*%
X57000000Y-94920000D03*
%TO.P,J4,4,Pin_4*%
X57000000Y-92380000D03*
%TO.P,J4,5,Pin_5*%
%TO.N,/CS2*%
X57000000Y-89840000D03*
%TO.P,J4,6,Pin_6*%
%TO.N,/MOSI2*%
X57000000Y-87300000D03*
%TO.P,J4,7,Pin_7*%
%TO.N,/MISO2*%
X57000000Y-84760000D03*
%TO.P,J4,8,Pin_8*%
%TO.N,/SCK2*%
X57000000Y-82220000D03*
%TO.P,J4,9,Pin_9*%
%TO.N,GND*%
X57000000Y-79680000D03*
%TO.P,J4,10,Pin_10*%
X57000000Y-77140000D03*
%TO.P,J4,11,Pin_11*%
X57000000Y-74600000D03*
%TO.P,J4,12,Pin_12*%
X57000000Y-72060000D03*
%TO.P,J4,13,Pin_13*%
X57000000Y-69520000D03*
%TO.P,J4,14,Pin_14*%
X57000000Y-66980000D03*
%TO.P,J4,15,Pin_15*%
%TO.N,/SDA*%
X57000000Y-64440000D03*
%TO.P,J4,16,Pin_16*%
%TO.N,/SCL*%
X57000000Y-61900000D03*
%TD*%
D12*
%TO.P,BT1,1,+*%
%TO.N,Net-(BT1-+)*%
X99210914Y-68000000D03*
D13*
%TO.P,BT1,2,-*%
%TO.N,GND*%
X120010914Y-68000000D03*
%TD*%
D19*
%TO.N,GND*%
X115800000Y-53000000D03*
X113400000Y-55400000D03*
X116600000Y-55400000D03*
D20*
X115250000Y-81250000D03*
X113750000Y-81250000D03*
X105500000Y-81750000D03*
X114500000Y-80500000D03*
D19*
X113400000Y-54600000D03*
D20*
X105500000Y-82500000D03*
D19*
X118200000Y-54600000D03*
D20*
X113000000Y-81250000D03*
D19*
X112600000Y-55400000D03*
X101000000Y-61545000D03*
X112600000Y-53800000D03*
D20*
X116000000Y-81250000D03*
X113750000Y-80500000D03*
D19*
X112500000Y-76000000D03*
D20*
X115250000Y-80500000D03*
X105500000Y-81000000D03*
D19*
X114200000Y-53000000D03*
X118200000Y-53000000D03*
D20*
X96000000Y-74000000D03*
X92750000Y-74750000D03*
D19*
X99000000Y-82000000D03*
X116600000Y-53800000D03*
D20*
X96000000Y-73250000D03*
D19*
X117400000Y-55400000D03*
D20*
X92000000Y-74000000D03*
D19*
X114200000Y-54600000D03*
X112600000Y-53000000D03*
X112600000Y-54600000D03*
X117400000Y-54600000D03*
X114200000Y-53800000D03*
X114200000Y-55400000D03*
D20*
X91250000Y-73250000D03*
X95250000Y-74750000D03*
D19*
X115000000Y-53000000D03*
D20*
X92750000Y-73250000D03*
D19*
X117400000Y-53800000D03*
X104000000Y-61500000D03*
X113400000Y-53000000D03*
X98000000Y-61500000D03*
X115000000Y-54600000D03*
D20*
X95250000Y-73250000D03*
D19*
X117400000Y-53000000D03*
X115800000Y-53800000D03*
D20*
X92000000Y-73250000D03*
D19*
X113400000Y-53800000D03*
X118200000Y-53800000D03*
X116600000Y-54600000D03*
D20*
X119250000Y-79750000D03*
D19*
X115800000Y-54600000D03*
D20*
X92750000Y-74000000D03*
D19*
X115800000Y-55400000D03*
X116600000Y-53000000D03*
D20*
X113000000Y-80500000D03*
D19*
X115000000Y-55400000D03*
X99000000Y-80000000D03*
D20*
X114500000Y-81250000D03*
D19*
X118200000Y-55400000D03*
D20*
X95250000Y-74000000D03*
D19*
X115000000Y-53800000D03*
%TO.N,+3.3V*%
X97000000Y-75000000D03*
X114000000Y-71000000D03*
X113500000Y-79500000D03*
X110500000Y-75500000D03*
%TO.N,/CS_LLS*%
X104000000Y-78250000D03*
X108500000Y-84500000D03*
%TO.N,+5V*%
X104000000Y-53000000D03*
%TO.N,/MOSI*%
X94000000Y-79000000D03*
%TO.N,/MISO*%
X109000000Y-83000000D03*
X98000000Y-79000000D03*
%TD*%
D21*
%TO.N,+3.3V*%
X96000000Y-77000000D02*
X96000000Y-76000000D01*
X96500000Y-77500000D02*
X96000000Y-77500000D01*
X113500000Y-78000000D02*
X113500000Y-79500000D01*
X96000000Y-77000000D02*
X96500000Y-77500000D01*
X110000000Y-71000000D02*
X114000000Y-71000000D01*
X107500000Y-75500000D02*
X104000000Y-75500000D01*
X108000000Y-75500000D02*
X108000000Y-76000000D01*
X108000000Y-75500000D02*
X107500000Y-75500000D01*
X113000000Y-77500000D02*
X113500000Y-78000000D01*
X108000000Y-75000000D02*
X107500000Y-75500000D01*
X104000000Y-75500000D02*
X102000000Y-77500000D01*
X108500000Y-75500000D02*
X108000000Y-76000000D01*
X108500000Y-75500000D02*
X108000000Y-75500000D01*
X109000000Y-77500000D02*
X113000000Y-77500000D01*
X108000000Y-75500000D02*
X108000000Y-75000000D01*
X107500000Y-75500000D02*
X108000000Y-76000000D01*
X102000000Y-77500000D02*
X96500000Y-77500000D01*
X108000000Y-76500000D02*
X109000000Y-77500000D01*
X96000000Y-77500000D02*
X96000000Y-77000000D01*
X108000000Y-76000000D02*
X108000000Y-76500000D01*
X96000000Y-76000000D02*
X97000000Y-75000000D01*
X108000000Y-75000000D02*
X108500000Y-75500000D01*
X96000000Y-87465000D02*
X96000000Y-78000000D01*
X108000000Y-75000000D02*
X108000000Y-73000000D01*
X108000000Y-73000000D02*
X110000000Y-71000000D01*
X96000000Y-78000000D02*
X96500000Y-77500000D01*
X96000000Y-78000000D02*
X96000000Y-77500000D01*
X110500000Y-75500000D02*
X108500000Y-75500000D01*
X88200000Y-95265000D02*
X96000000Y-87465000D01*
%TO.N,/CS_LLS*%
X107500000Y-85500000D02*
X108500000Y-84500000D01*
X104000000Y-78250000D02*
X104000000Y-84000000D01*
X105500000Y-85500000D02*
X107500000Y-85500000D01*
X104000000Y-84000000D02*
X105500000Y-85500000D01*
D22*
%TO.N,+5V*%
X53800000Y-96800000D02*
X57000000Y-100000000D01*
D21*
X93450000Y-103450000D02*
X100000000Y-103450000D01*
X62800000Y-95265000D02*
X65935000Y-98400000D01*
D22*
X53800000Y-61200000D02*
X53800000Y-96800000D01*
D21*
X62800000Y-95265000D02*
X58065000Y-100000000D01*
X58065000Y-100000000D02*
X57000000Y-100000000D01*
D22*
X63000000Y-52000000D02*
X53800000Y-61200000D01*
X104000000Y-53000000D02*
X103000000Y-52000000D01*
X103000000Y-52000000D02*
X63000000Y-52000000D01*
D21*
X88400000Y-98400000D02*
X93450000Y-103450000D01*
X65935000Y-98400000D02*
X88400000Y-98400000D01*
%TO.N,/MOSI*%
X94000000Y-79000000D02*
X94000000Y-61500000D01*
X94000000Y-61500000D02*
X92205000Y-59705000D01*
X92205000Y-59705000D02*
X88200000Y-59705000D01*
%TO.N,/SDA*%
X59250000Y-59500000D02*
X61250000Y-57500000D01*
X61250000Y-57500000D02*
X76750000Y-57500000D01*
X79500000Y-68000000D02*
X81365000Y-69865000D01*
X58310000Y-64440000D02*
X59250000Y-63500000D01*
X81365000Y-69865000D02*
X88200000Y-69865000D01*
X76750000Y-57500000D02*
X79500000Y-60250000D01*
X57000000Y-64440000D02*
X58310000Y-64440000D01*
X59250000Y-63500000D02*
X59250000Y-59500000D01*
X79500000Y-60250000D02*
X79500000Y-68000000D01*
D22*
%TO.N,/SCL*%
X57000000Y-59750000D02*
X57000000Y-61900000D01*
X60750000Y-56000000D02*
X57000000Y-59750000D01*
X84995000Y-62245000D02*
X78750000Y-56000000D01*
X78750000Y-56000000D02*
X60750000Y-56000000D01*
X88200000Y-62245000D02*
X84995000Y-62245000D01*
D21*
%TO.N,/MISO*%
X109500000Y-83500000D02*
X109000000Y-83000000D01*
X108000000Y-86500000D02*
X109500000Y-85000000D01*
X98000000Y-79000000D02*
X102000000Y-79000000D01*
X102000000Y-79000000D02*
X103000000Y-80000000D01*
X103000000Y-84500000D02*
X105000000Y-86500000D01*
X105000000Y-86500000D02*
X108000000Y-86500000D01*
X103000000Y-80000000D02*
X103000000Y-84500000D01*
X109500000Y-85000000D02*
X109500000Y-83500000D01*
%TD*%
%TA.AperFunction,Conductor*%
%TO.N,GND*%
G36*
X61934551Y-58270185D02*
G01*
X61980306Y-58322989D01*
X61990250Y-58392147D01*
X61961225Y-58455703D01*
X61940400Y-58474815D01*
X61822490Y-58560483D01*
X61822488Y-58560485D01*
X61822487Y-58560485D01*
X61655485Y-58727487D01*
X61655485Y-58727488D01*
X61655483Y-58727490D01*
X61595862Y-58809550D01*
X61516657Y-58918566D01*
X61409433Y-59129003D01*
X61336446Y-59353631D01*
X61299500Y-59586902D01*
X61299500Y-59823097D01*
X61336446Y-60056368D01*
X61409433Y-60280996D01*
X61498348Y-60455500D01*
X61516657Y-60491433D01*
X61655483Y-60682510D01*
X61822490Y-60849517D01*
X61857127Y-60874683D01*
X61899792Y-60930013D01*
X61905771Y-60999626D01*
X61873165Y-61061421D01*
X61857130Y-61075315D01*
X61831966Y-61093598D01*
X61822487Y-61100485D01*
X61655485Y-61267487D01*
X61655485Y-61267488D01*
X61655483Y-61267490D01*
X61645601Y-61281092D01*
X61516657Y-61458566D01*
X61409433Y-61669003D01*
X61336446Y-61893631D01*
X61299500Y-62126902D01*
X61299500Y-62363097D01*
X61336446Y-62596368D01*
X61409433Y-62820996D01*
X61472872Y-62945500D01*
X61516657Y-63031433D01*
X61655483Y-63222510D01*
X61822490Y-63389517D01*
X61857127Y-63414683D01*
X61899792Y-63470013D01*
X61905771Y-63539626D01*
X61873165Y-63601421D01*
X61857130Y-63615315D01*
X61839365Y-63628222D01*
X61822488Y-63640484D01*
X61655485Y-63807487D01*
X61655485Y-63807488D01*
X61655483Y-63807490D01*
X61620605Y-63855495D01*
X61516657Y-63998566D01*
X61409433Y-64209003D01*
X61336446Y-64433631D01*
X61299500Y-64666902D01*
X61299500Y-64903097D01*
X61336446Y-65136368D01*
X61409433Y-65360996D01*
X61470683Y-65481204D01*
X61516657Y-65571433D01*
X61655483Y-65762510D01*
X61822490Y-65929517D01*
X61857127Y-65954683D01*
X61899792Y-66010013D01*
X61905771Y-66079626D01*
X61873165Y-66141421D01*
X61857130Y-66155315D01*
X61839365Y-66168222D01*
X61822488Y-66180484D01*
X61655485Y-66347487D01*
X61655485Y-66347488D01*
X61655483Y-66347490D01*
X61595862Y-66429550D01*
X61516657Y-66538566D01*
X61409433Y-66749003D01*
X61336446Y-66973631D01*
X61299500Y-67206902D01*
X61299500Y-67443097D01*
X61336446Y-67676368D01*
X61409433Y-67900996D01*
X61516657Y-68111433D01*
X61655483Y-68302510D01*
X61822490Y-68469517D01*
X61857127Y-68494683D01*
X61899792Y-68550013D01*
X61905771Y-68619626D01*
X61873165Y-68681421D01*
X61857130Y-68695315D01*
X61839365Y-68708222D01*
X61822488Y-68720484D01*
X61655485Y-68887487D01*
X61655485Y-68887488D01*
X61655483Y-68887490D01*
X61595862Y-68969550D01*
X61516657Y-69078566D01*
X61409433Y-69289003D01*
X61336446Y-69513631D01*
X61299500Y-69746902D01*
X61299500Y-69983097D01*
X61336446Y-70216368D01*
X61409433Y-70440996D01*
X61516657Y-70651433D01*
X61655483Y-70842510D01*
X61822490Y-71009517D01*
X61857127Y-71034683D01*
X61899792Y-71090013D01*
X61905771Y-71159626D01*
X61873165Y-71221421D01*
X61857130Y-71235315D01*
X61839365Y-71248222D01*
X61822488Y-71260484D01*
X61655485Y-71427487D01*
X61655485Y-71427488D01*
X61655483Y-71427490D01*
X61595862Y-71509550D01*
X61516657Y-71618566D01*
X61409433Y-71829003D01*
X61336446Y-72053631D01*
X61299500Y-72286902D01*
X61299500Y-72523097D01*
X61336446Y-72756368D01*
X61409433Y-72980996D01*
X61516657Y-73191433D01*
X61655483Y-73382510D01*
X61822490Y-73549517D01*
X61857127Y-73574683D01*
X61899792Y-73630013D01*
X61905771Y-73699626D01*
X61873165Y-73761421D01*
X61857130Y-73775315D01*
X61839365Y-73788222D01*
X61822488Y-73800484D01*
X61655485Y-73967487D01*
X61655485Y-73967488D01*
X61655483Y-73967490D01*
X61595862Y-74049550D01*
X61516657Y-74158566D01*
X61409433Y-74369003D01*
X61336446Y-74593631D01*
X61299500Y-74826902D01*
X61299500Y-75063097D01*
X61336446Y-75296368D01*
X61409433Y-75520996D01*
X61510419Y-75719191D01*
X61516657Y-75731433D01*
X61655483Y-75922510D01*
X61822490Y-76089517D01*
X61857127Y-76114683D01*
X61899792Y-76170013D01*
X61905771Y-76239626D01*
X61873165Y-76301421D01*
X61857130Y-76315315D01*
X61846568Y-76322989D01*
X61822488Y-76340484D01*
X61655485Y-76507487D01*
X61655485Y-76507488D01*
X61655483Y-76507490D01*
X61607220Y-76573918D01*
X61516657Y-76698566D01*
X61409433Y-76909003D01*
X61336446Y-77133631D01*
X61299500Y-77366902D01*
X61299500Y-77603097D01*
X61336446Y-77836368D01*
X61409433Y-78060996D01*
X61511701Y-78261706D01*
X61516657Y-78271433D01*
X61655483Y-78462510D01*
X61822490Y-78629517D01*
X61857127Y-78654683D01*
X61899792Y-78710013D01*
X61905771Y-78779626D01*
X61873165Y-78841421D01*
X61857130Y-78855315D01*
X61839365Y-78868222D01*
X61822488Y-78880484D01*
X61655485Y-79047487D01*
X61655485Y-79047488D01*
X61655483Y-79047490D01*
X61595862Y-79129550D01*
X61516657Y-79238566D01*
X61409433Y-79449003D01*
X61336446Y-79673631D01*
X61299500Y-79906902D01*
X61299500Y-80143097D01*
X61336446Y-80376368D01*
X61409433Y-80600996D01*
X61516657Y-80811433D01*
X61655483Y-81002510D01*
X61822490Y-81169517D01*
X61857127Y-81194683D01*
X61899792Y-81250013D01*
X61905771Y-81319626D01*
X61873165Y-81381421D01*
X61857130Y-81395315D01*
X61839365Y-81408222D01*
X61822488Y-81420484D01*
X61655485Y-81587487D01*
X61655485Y-81587488D01*
X61655483Y-81587490D01*
X61595862Y-81669550D01*
X61516657Y-81778566D01*
X61409433Y-81989003D01*
X61336446Y-82213631D01*
X61299500Y-82446902D01*
X61299500Y-82683097D01*
X61336446Y-82916368D01*
X61409433Y-83140996D01*
X61480811Y-83281082D01*
X61516657Y-83351433D01*
X61655483Y-83542510D01*
X61822490Y-83709517D01*
X61857127Y-83734683D01*
X61899792Y-83790013D01*
X61905771Y-83859626D01*
X61873165Y-83921421D01*
X61857130Y-83935315D01*
X61839365Y-83948222D01*
X61822488Y-83960484D01*
X61655485Y-84127487D01*
X61655485Y-84127488D01*
X61655483Y-84127490D01*
X61643139Y-84144480D01*
X61516657Y-84318566D01*
X61409433Y-84529003D01*
X61336446Y-84753631D01*
X61299500Y-84986902D01*
X61299500Y-85223097D01*
X61336446Y-85456368D01*
X61409433Y-85680996D01*
X61516657Y-85891433D01*
X61655483Y-86082510D01*
X61822490Y-86249517D01*
X61857127Y-86274683D01*
X61899792Y-86330013D01*
X61905771Y-86399626D01*
X61873165Y-86461421D01*
X61857130Y-86475315D01*
X61839365Y-86488222D01*
X61822488Y-86500484D01*
X61655485Y-86667487D01*
X61655485Y-86667488D01*
X61655483Y-86667490D01*
X61595862Y-86749550D01*
X61516657Y-86858566D01*
X61409433Y-87069003D01*
X61336446Y-87293631D01*
X61299500Y-87526902D01*
X61299500Y-87763097D01*
X61336446Y-87996368D01*
X61409433Y-88220996D01*
X61516657Y-88431433D01*
X61655483Y-88622510D01*
X61822490Y-88789517D01*
X61857127Y-88814683D01*
X61899792Y-88870013D01*
X61905771Y-88939626D01*
X61873165Y-89001421D01*
X61857130Y-89015315D01*
X61839365Y-89028222D01*
X61822488Y-89040484D01*
X61655485Y-89207487D01*
X61655485Y-89207488D01*
X61655483Y-89207490D01*
X61595862Y-89289550D01*
X61516657Y-89398566D01*
X61409433Y-89609003D01*
X61336446Y-89833631D01*
X61299500Y-90066902D01*
X61299500Y-90303097D01*
X61336446Y-90536368D01*
X61409433Y-90760996D01*
X61492333Y-90923694D01*
X61516657Y-90971433D01*
X61655483Y-91162510D01*
X61822490Y-91329517D01*
X61881716Y-91372547D01*
X61924381Y-91427875D01*
X61932448Y-91482593D01*
X61930893Y-91502340D01*
X62662425Y-92233871D01*
X62603147Y-92249755D01*
X62486853Y-92316898D01*
X62391898Y-92411853D01*
X62324755Y-92528147D01*
X62308871Y-92587425D01*
X61577340Y-91855894D01*
X61517084Y-91938830D01*
X61409897Y-92149197D01*
X61336934Y-92373752D01*
X61300000Y-92606947D01*
X61300000Y-92843052D01*
X61336934Y-93076247D01*
X61409897Y-93300802D01*
X61517087Y-93511174D01*
X61577338Y-93594104D01*
X61577340Y-93594105D01*
X62308871Y-92862574D01*
X62324755Y-92921853D01*
X62391898Y-93038147D01*
X62486853Y-93133102D01*
X62603147Y-93200245D01*
X62662425Y-93216128D01*
X61930893Y-93947658D01*
X61932448Y-93967405D01*
X61918084Y-94035783D01*
X61881717Y-94077451D01*
X61822490Y-94120482D01*
X61655485Y-94287487D01*
X61655485Y-94287488D01*
X61655483Y-94287490D01*
X61640279Y-94308417D01*
X61516657Y-94478566D01*
X61409433Y-94689003D01*
X61336446Y-94913631D01*
X61299500Y-95146902D01*
X61299500Y-95383097D01*
X61333511Y-95597833D01*
X61324556Y-95667126D01*
X61298719Y-95704912D01*
X58285599Y-98718031D01*
X58224276Y-98751516D01*
X58154584Y-98746532D01*
X58123607Y-98729617D01*
X58092331Y-98706204D01*
X58092328Y-98706202D01*
X57957482Y-98655908D01*
X57957483Y-98655908D01*
X57897883Y-98649501D01*
X57897881Y-98649500D01*
X57897873Y-98649500D01*
X57897865Y-98649500D01*
X57887309Y-98649500D01*
X57820270Y-98629815D01*
X57799628Y-98613181D01*
X57129408Y-97942962D01*
X57192993Y-97925925D01*
X57307007Y-97860099D01*
X57400099Y-97767007D01*
X57465925Y-97652993D01*
X57482962Y-97589409D01*
X58115270Y-98221717D01*
X58115270Y-98221716D01*
X58154622Y-98167554D01*
X58251095Y-97978217D01*
X58316757Y-97776130D01*
X58316757Y-97776127D01*
X58350000Y-97566246D01*
X58350000Y-97353753D01*
X58316757Y-97143872D01*
X58316757Y-97143869D01*
X58251095Y-96941782D01*
X58154624Y-96752449D01*
X58115270Y-96698282D01*
X58115269Y-96698282D01*
X57482962Y-97330590D01*
X57465925Y-97267007D01*
X57400099Y-97152993D01*
X57307007Y-97059901D01*
X57192993Y-96994075D01*
X57129409Y-96977037D01*
X57761716Y-96344728D01*
X57707550Y-96305375D01*
X57697954Y-96300486D01*
X57647157Y-96252512D01*
X57630361Y-96184692D01*
X57652897Y-96118556D01*
X57697954Y-96079514D01*
X57707554Y-96074622D01*
X57761716Y-96035270D01*
X57761717Y-96035270D01*
X57129408Y-95402962D01*
X57192993Y-95385925D01*
X57307007Y-95320099D01*
X57400099Y-95227007D01*
X57465925Y-95112993D01*
X57482962Y-95049409D01*
X58115270Y-95681717D01*
X58115270Y-95681716D01*
X58154622Y-95627554D01*
X58251095Y-95438217D01*
X58316757Y-95236130D01*
X58316757Y-95236127D01*
X58350000Y-95026246D01*
X58350000Y-94813753D01*
X58316757Y-94603872D01*
X58316757Y-94603869D01*
X58251095Y-94401782D01*
X58154624Y-94212449D01*
X58115270Y-94158282D01*
X58115269Y-94158282D01*
X57482962Y-94790590D01*
X57465925Y-94727007D01*
X57400099Y-94612993D01*
X57307007Y-94519901D01*
X57192993Y-94454075D01*
X57129409Y-94437037D01*
X57761716Y-93804728D01*
X57707550Y-93765375D01*
X57697954Y-93760486D01*
X57647157Y-93712512D01*
X57630361Y-93644692D01*
X57652897Y-93578556D01*
X57697954Y-93539514D01*
X57707554Y-93534622D01*
X57761716Y-93495270D01*
X57761717Y-93495270D01*
X57129408Y-92862962D01*
X57192993Y-92845925D01*
X57307007Y-92780099D01*
X57400099Y-92687007D01*
X57465925Y-92572993D01*
X57482962Y-92509409D01*
X58115270Y-93141717D01*
X58115270Y-93141716D01*
X58154622Y-93087554D01*
X58251095Y-92898217D01*
X58316757Y-92696130D01*
X58316757Y-92696127D01*
X58334727Y-92582677D01*
X58350000Y-92486246D01*
X58350000Y-92273753D01*
X58316757Y-92063872D01*
X58316757Y-92063869D01*
X58251095Y-91861782D01*
X58154624Y-91672449D01*
X58115270Y-91618282D01*
X58115269Y-91618282D01*
X57482962Y-92250590D01*
X57465925Y-92187007D01*
X57400099Y-92072993D01*
X57307007Y-91979901D01*
X57192993Y-91914075D01*
X57129409Y-91897037D01*
X57761716Y-91264728D01*
X57707547Y-91225373D01*
X57707547Y-91225372D01*
X57698500Y-91220763D01*
X57647706Y-91172788D01*
X57630912Y-91104966D01*
X57653451Y-91038832D01*
X57698508Y-90999793D01*
X57707816Y-90995051D01*
X57806031Y-90923694D01*
X57879786Y-90870109D01*
X57879788Y-90870106D01*
X57879792Y-90870104D01*
X58030104Y-90719792D01*
X58030106Y-90719788D01*
X58030109Y-90719786D01*
X58155048Y-90547820D01*
X58155047Y-90547820D01*
X58155051Y-90547816D01*
X58251557Y-90358412D01*
X58317246Y-90156243D01*
X58350500Y-89946287D01*
X58350500Y-89733713D01*
X58317246Y-89523757D01*
X58251557Y-89321588D01*
X58155051Y-89132184D01*
X58155049Y-89132181D01*
X58155048Y-89132179D01*
X58030109Y-88960213D01*
X57879786Y-88809890D01*
X57707820Y-88684951D01*
X57707115Y-88684591D01*
X57699054Y-88680485D01*
X57648259Y-88632512D01*
X57631463Y-88564692D01*
X57653999Y-88498556D01*
X57699054Y-88459515D01*
X57707816Y-88455051D01*
X57740324Y-88431433D01*
X57879786Y-88330109D01*
X57879788Y-88330106D01*
X57879792Y-88330104D01*
X58030104Y-88179792D01*
X58030106Y-88179788D01*
X58030109Y-88179786D01*
X58155048Y-88007820D01*
X58155047Y-88007820D01*
X58155051Y-88007816D01*
X58251557Y-87818412D01*
X58317246Y-87616243D01*
X58350500Y-87406287D01*
X58350500Y-87193713D01*
X58317246Y-86983757D01*
X58251557Y-86781588D01*
X58155051Y-86592184D01*
X58155049Y-86592181D01*
X58155048Y-86592179D01*
X58030109Y-86420213D01*
X57879786Y-86269890D01*
X57707820Y-86144951D01*
X57707115Y-86144591D01*
X57699054Y-86140485D01*
X57648259Y-86092512D01*
X57631463Y-86024692D01*
X57653999Y-85958556D01*
X57699054Y-85919515D01*
X57707816Y-85915051D01*
X57740324Y-85891433D01*
X57879786Y-85790109D01*
X57879788Y-85790106D01*
X57879792Y-85790104D01*
X58030104Y-85639792D01*
X58030106Y-85639788D01*
X58030109Y-85639786D01*
X58139086Y-85489789D01*
X58155051Y-85467816D01*
X58251557Y-85278412D01*
X58317246Y-85076243D01*
X58350500Y-84866287D01*
X58350500Y-84653713D01*
X58317246Y-84443757D01*
X58251557Y-84241588D01*
X58155051Y-84052184D01*
X58155049Y-84052181D01*
X58155048Y-84052179D01*
X58030109Y-83880213D01*
X57879786Y-83729890D01*
X57707820Y-83604951D01*
X57707115Y-83604591D01*
X57699054Y-83600485D01*
X57648259Y-83552512D01*
X57631463Y-83484692D01*
X57653999Y-83418556D01*
X57699054Y-83379515D01*
X57707816Y-83375051D01*
X57803544Y-83305501D01*
X57879786Y-83250109D01*
X57879788Y-83250106D01*
X57879792Y-83250104D01*
X58030104Y-83099792D01*
X58030106Y-83099788D01*
X58030109Y-83099786D01*
X58155048Y-82927820D01*
X58155047Y-82927820D01*
X58155051Y-82927816D01*
X58251557Y-82738412D01*
X58317246Y-82536243D01*
X58350500Y-82326287D01*
X58350500Y-82113713D01*
X58317246Y-81903757D01*
X58251557Y-81701588D01*
X58155051Y-81512184D01*
X58155049Y-81512181D01*
X58155048Y-81512179D01*
X58030109Y-81340213D01*
X57879786Y-81189890D01*
X57707817Y-81064949D01*
X57698504Y-81060204D01*
X57647707Y-81012230D01*
X57630912Y-80944409D01*
X57653449Y-80878274D01*
X57698507Y-80839232D01*
X57707555Y-80834622D01*
X57761716Y-80795270D01*
X57761717Y-80795270D01*
X57129408Y-80162962D01*
X57192993Y-80145925D01*
X57307007Y-80080099D01*
X57400099Y-79987007D01*
X57465925Y-79872993D01*
X57482962Y-79809409D01*
X58115270Y-80441717D01*
X58115270Y-80441716D01*
X58154622Y-80387554D01*
X58251095Y-80198217D01*
X58316757Y-79996130D01*
X58316757Y-79996127D01*
X58350000Y-79786246D01*
X58350000Y-79573753D01*
X58316757Y-79363872D01*
X58316757Y-79363869D01*
X58251095Y-79161782D01*
X58154624Y-78972449D01*
X58115270Y-78918282D01*
X58115269Y-78918282D01*
X57482962Y-79550590D01*
X57465925Y-79487007D01*
X57400099Y-79372993D01*
X57307007Y-79279901D01*
X57192993Y-79214075D01*
X57129409Y-79197037D01*
X57761716Y-78564728D01*
X57707550Y-78525375D01*
X57697954Y-78520486D01*
X57647157Y-78472512D01*
X57630361Y-78404692D01*
X57652897Y-78338556D01*
X57697954Y-78299514D01*
X57707554Y-78294622D01*
X57761716Y-78255270D01*
X57761717Y-78255270D01*
X57129408Y-77622962D01*
X57192993Y-77605925D01*
X57307007Y-77540099D01*
X57400099Y-77447007D01*
X57465925Y-77332993D01*
X57482962Y-77269409D01*
X58115270Y-77901717D01*
X58115270Y-77901716D01*
X58154622Y-77847554D01*
X58251095Y-77658217D01*
X58316757Y-77456130D01*
X58316757Y-77456127D01*
X58350000Y-77246246D01*
X58350000Y-77033753D01*
X58316757Y-76823872D01*
X58316757Y-76823869D01*
X58251095Y-76621782D01*
X58154624Y-76432449D01*
X58115270Y-76378282D01*
X58115269Y-76378282D01*
X57482962Y-77010590D01*
X57465925Y-76947007D01*
X57400099Y-76832993D01*
X57307007Y-76739901D01*
X57192993Y-76674075D01*
X57129409Y-76657037D01*
X57761716Y-76024728D01*
X57707550Y-75985375D01*
X57697954Y-75980486D01*
X57647157Y-75932512D01*
X57630361Y-75864692D01*
X57652897Y-75798556D01*
X57697954Y-75759514D01*
X57707554Y-75754622D01*
X57761716Y-75715270D01*
X57761717Y-75715270D01*
X57129408Y-75082962D01*
X57192993Y-75065925D01*
X57307007Y-75000099D01*
X57400099Y-74907007D01*
X57465925Y-74792993D01*
X57482962Y-74729409D01*
X58115270Y-75361717D01*
X58115270Y-75361716D01*
X58154622Y-75307554D01*
X58251095Y-75118217D01*
X58316757Y-74916130D01*
X58316757Y-74916127D01*
X58350000Y-74706246D01*
X58350000Y-74493753D01*
X58316757Y-74283872D01*
X58316757Y-74283869D01*
X58251095Y-74081782D01*
X58154624Y-73892449D01*
X58115270Y-73838282D01*
X58115269Y-73838282D01*
X57482962Y-74470590D01*
X57465925Y-74407007D01*
X57400099Y-74292993D01*
X57307007Y-74199901D01*
X57192993Y-74134075D01*
X57129409Y-74117037D01*
X57761716Y-73484728D01*
X57707550Y-73445375D01*
X57697954Y-73440486D01*
X57647157Y-73392512D01*
X57630361Y-73324692D01*
X57652897Y-73258556D01*
X57697954Y-73219514D01*
X57707554Y-73214622D01*
X57761716Y-73175270D01*
X57761717Y-73175270D01*
X57129408Y-72542962D01*
X57192993Y-72525925D01*
X57307007Y-72460099D01*
X57400099Y-72367007D01*
X57465925Y-72252993D01*
X57482962Y-72189409D01*
X58115270Y-72821717D01*
X58115270Y-72821716D01*
X58154622Y-72767554D01*
X58251095Y-72578217D01*
X58316757Y-72376130D01*
X58316757Y-72376127D01*
X58350000Y-72166246D01*
X58350000Y-71953753D01*
X58316757Y-71743872D01*
X58316757Y-71743869D01*
X58251095Y-71541782D01*
X58154624Y-71352449D01*
X58115270Y-71298282D01*
X58115269Y-71298282D01*
X57482962Y-71930590D01*
X57465925Y-71867007D01*
X57400099Y-71752993D01*
X57307007Y-71659901D01*
X57192993Y-71594075D01*
X57129409Y-71577037D01*
X57761716Y-70944728D01*
X57707550Y-70905375D01*
X57697954Y-70900486D01*
X57647157Y-70852512D01*
X57630361Y-70784692D01*
X57652897Y-70718556D01*
X57697954Y-70679514D01*
X57707554Y-70674622D01*
X57761716Y-70635270D01*
X57761717Y-70635270D01*
X57129408Y-70002962D01*
X57192993Y-69985925D01*
X57307007Y-69920099D01*
X57400099Y-69827007D01*
X57465925Y-69712993D01*
X57482962Y-69649409D01*
X58115270Y-70281717D01*
X58115270Y-70281716D01*
X58154622Y-70227554D01*
X58251095Y-70038217D01*
X58316757Y-69836130D01*
X58316757Y-69836127D01*
X58350000Y-69626246D01*
X58350000Y-69413753D01*
X58316757Y-69203872D01*
X58316757Y-69203869D01*
X58251095Y-69001782D01*
X58154624Y-68812449D01*
X58115270Y-68758282D01*
X58115269Y-68758282D01*
X57482962Y-69390590D01*
X57465925Y-69327007D01*
X57400099Y-69212993D01*
X57307007Y-69119901D01*
X57192993Y-69054075D01*
X57129409Y-69037037D01*
X57761716Y-68404728D01*
X57707550Y-68365375D01*
X57697954Y-68360486D01*
X57647157Y-68312512D01*
X57630361Y-68244692D01*
X57652897Y-68178556D01*
X57697954Y-68139514D01*
X57707554Y-68134622D01*
X57761716Y-68095270D01*
X57761717Y-68095270D01*
X57129408Y-67462962D01*
X57192993Y-67445925D01*
X57307007Y-67380099D01*
X57400099Y-67287007D01*
X57465925Y-67172993D01*
X57482962Y-67109408D01*
X58115270Y-67741717D01*
X58115270Y-67741716D01*
X58154622Y-67687554D01*
X58251095Y-67498217D01*
X58316757Y-67296130D01*
X58316757Y-67296127D01*
X58350000Y-67086246D01*
X58350000Y-66873753D01*
X58316757Y-66663872D01*
X58316757Y-66663869D01*
X58251095Y-66461782D01*
X58154624Y-66272449D01*
X58115270Y-66218282D01*
X58115269Y-66218282D01*
X57482962Y-66850590D01*
X57465925Y-66787007D01*
X57400099Y-66672993D01*
X57307007Y-66579901D01*
X57192993Y-66514075D01*
X57129409Y-66497037D01*
X57761716Y-65864728D01*
X57707547Y-65825373D01*
X57707547Y-65825372D01*
X57698500Y-65820763D01*
X57647706Y-65772788D01*
X57630912Y-65704966D01*
X57653451Y-65638832D01*
X57698508Y-65599793D01*
X57707816Y-65595051D01*
X57787007Y-65537515D01*
X57879786Y-65470109D01*
X57879788Y-65470106D01*
X57879792Y-65470104D01*
X58030104Y-65319792D01*
X58076030Y-65256580D01*
X58086903Y-65241615D01*
X58142233Y-65198949D01*
X58187221Y-65190500D01*
X58383920Y-65190500D01*
X58481462Y-65171096D01*
X58528913Y-65161658D01*
X58665495Y-65105084D01*
X58714729Y-65072186D01*
X58788416Y-65022952D01*
X59832952Y-63978416D01*
X59892358Y-63889507D01*
X59915084Y-63855495D01*
X59948633Y-63774500D01*
X59971659Y-63718912D01*
X60000500Y-63573917D01*
X60000500Y-63426082D01*
X60000500Y-59862229D01*
X60020185Y-59795190D01*
X60036819Y-59774548D01*
X61524548Y-58286819D01*
X61585871Y-58253334D01*
X61612229Y-58250500D01*
X61867512Y-58250500D01*
X61934551Y-58270185D01*
G37*
%TD.AperFunction*%
%TA.AperFunction,Conductor*%
G36*
X56218834Y-59874337D02*
G01*
X56274767Y-59916209D01*
X56299184Y-59981673D01*
X56299500Y-59990519D01*
X56299500Y-60676452D01*
X56279815Y-60743491D01*
X56248385Y-60776770D01*
X56120213Y-60869890D01*
X55969890Y-61020213D01*
X55844951Y-61192179D01*
X55748444Y-61381585D01*
X55682753Y-61583760D01*
X55649500Y-61793713D01*
X55649500Y-62006286D01*
X55668604Y-62126908D01*
X55682754Y-62216243D01*
X55734075Y-62374193D01*
X55748444Y-62418414D01*
X55844951Y-62607820D01*
X55969890Y-62779786D01*
X56120213Y-62930109D01*
X56292182Y-63055050D01*
X56300946Y-63059516D01*
X56351742Y-63107491D01*
X56368536Y-63175312D01*
X56345998Y-63241447D01*
X56300946Y-63280484D01*
X56292182Y-63284949D01*
X56120213Y-63409890D01*
X55969890Y-63560213D01*
X55844951Y-63732179D01*
X55748444Y-63921585D01*
X55682753Y-64123760D01*
X55649500Y-64333713D01*
X55649500Y-64546286D01*
X55682305Y-64753412D01*
X55682754Y-64756243D01*
X55730468Y-64903092D01*
X55748444Y-64958414D01*
X55844951Y-65147820D01*
X55969890Y-65319786D01*
X56120213Y-65470109D01*
X56292179Y-65595048D01*
X56292181Y-65595049D01*
X56292184Y-65595051D01*
X56301493Y-65599794D01*
X56352290Y-65647766D01*
X56369087Y-65715587D01*
X56346552Y-65781722D01*
X56301505Y-65820760D01*
X56292446Y-65825376D01*
X56292440Y-65825380D01*
X56238282Y-65864727D01*
X56238282Y-65864728D01*
X56870591Y-66497037D01*
X56807007Y-66514075D01*
X56692993Y-66579901D01*
X56599901Y-66672993D01*
X56534075Y-66787007D01*
X56517037Y-66850591D01*
X55884728Y-66218282D01*
X55884727Y-66218282D01*
X55845380Y-66272439D01*
X55748904Y-66461782D01*
X55683242Y-66663869D01*
X55683242Y-66663872D01*
X55650000Y-66873753D01*
X55650000Y-67086246D01*
X55683242Y-67296127D01*
X55683242Y-67296130D01*
X55748904Y-67498217D01*
X55845375Y-67687550D01*
X55884728Y-67741716D01*
X56517037Y-67109408D01*
X56534075Y-67172993D01*
X56599901Y-67287007D01*
X56692993Y-67380099D01*
X56807007Y-67445925D01*
X56870591Y-67462962D01*
X56269971Y-68063581D01*
X56348711Y-68180895D01*
X56349920Y-68184729D01*
X56352844Y-68187491D01*
X56360343Y-68217778D01*
X56369727Y-68247529D01*
X56368671Y-68251408D01*
X56369638Y-68255312D01*
X56359573Y-68284844D01*
X56351383Y-68314947D01*
X56348397Y-68317640D01*
X56347100Y-68321447D01*
X56302051Y-68360483D01*
X56292440Y-68365380D01*
X56238282Y-68404727D01*
X56238282Y-68404728D01*
X56870591Y-69037037D01*
X56807007Y-69054075D01*
X56692993Y-69119901D01*
X56599901Y-69212993D01*
X56534075Y-69327007D01*
X56517037Y-69390591D01*
X55884728Y-68758282D01*
X55884727Y-68758282D01*
X55845380Y-68812439D01*
X55748904Y-69001782D01*
X55683242Y-69203869D01*
X55683242Y-69203872D01*
X55650000Y-69413753D01*
X55650000Y-69626246D01*
X55683242Y-69836127D01*
X55683242Y-69836130D01*
X55748904Y-70038217D01*
X55845375Y-70227550D01*
X55884728Y-70281716D01*
X56517037Y-69649408D01*
X56534075Y-69712993D01*
X56599901Y-69827007D01*
X56692993Y-69920099D01*
X56807007Y-69985925D01*
X56870591Y-70002962D01*
X56269971Y-70603581D01*
X56348711Y-70720895D01*
X56349920Y-70724729D01*
X56352844Y-70727491D01*
X56360343Y-70757778D01*
X56369727Y-70787529D01*
X56368671Y-70791408D01*
X56369638Y-70795312D01*
X56359573Y-70824844D01*
X56351383Y-70854947D01*
X56348397Y-70857640D01*
X56347100Y-70861447D01*
X56302051Y-70900483D01*
X56292440Y-70905380D01*
X56238282Y-70944727D01*
X56238282Y-70944728D01*
X56870591Y-71577037D01*
X56807007Y-71594075D01*
X56692993Y-71659901D01*
X56599901Y-71752993D01*
X56534075Y-71867007D01*
X56517037Y-71930591D01*
X55884728Y-71298282D01*
X55884727Y-71298282D01*
X55845380Y-71352439D01*
X55748904Y-71541782D01*
X55683242Y-71743869D01*
X55683242Y-71743872D01*
X55650000Y-71953753D01*
X55650000Y-72166246D01*
X55683242Y-72376127D01*
X55683242Y-72376130D01*
X55748904Y-72578217D01*
X55845375Y-72767550D01*
X55884728Y-72821716D01*
X56517037Y-72189408D01*
X56534075Y-72252993D01*
X56599901Y-72367007D01*
X56692993Y-72460099D01*
X56807007Y-72525925D01*
X56870591Y-72542962D01*
X56269971Y-73143581D01*
X56348711Y-73260895D01*
X56349920Y-73264729D01*
X56352844Y-73267491D01*
X56360343Y-73297778D01*
X56369727Y-73327529D01*
X56368671Y-73331408D01*
X56369638Y-73335312D01*
X56359573Y-73364844D01*
X56351383Y-73394947D01*
X56348397Y-73397640D01*
X56347100Y-73401447D01*
X56302051Y-73440483D01*
X56292440Y-73445380D01*
X56238282Y-73484727D01*
X56238282Y-73484728D01*
X56870591Y-74117037D01*
X56807007Y-74134075D01*
X56692993Y-74199901D01*
X56599901Y-74292993D01*
X56534075Y-74407007D01*
X56517037Y-74470591D01*
X55884728Y-73838282D01*
X55884727Y-73838282D01*
X55845380Y-73892439D01*
X55748904Y-74081782D01*
X55683242Y-74283869D01*
X55683242Y-74283872D01*
X55650000Y-74493753D01*
X55650000Y-74706246D01*
X55683242Y-74916127D01*
X55683242Y-74916130D01*
X55748904Y-75118217D01*
X55845375Y-75307550D01*
X55884728Y-75361716D01*
X56517037Y-74729408D01*
X56534075Y-74792993D01*
X56599901Y-74907007D01*
X56692993Y-75000099D01*
X56807007Y-75065925D01*
X56870591Y-75082962D01*
X56269971Y-75683581D01*
X56348711Y-75800895D01*
X56349920Y-75804729D01*
X56352844Y-75807491D01*
X56360343Y-75837778D01*
X56369727Y-75867529D01*
X56368671Y-75871408D01*
X56369638Y-75875312D01*
X56359573Y-75904844D01*
X56351383Y-75934947D01*
X56348397Y-75937640D01*
X56347100Y-75941447D01*
X56302051Y-75980483D01*
X56292440Y-75985380D01*
X56238282Y-76024727D01*
X56238282Y-76024728D01*
X56870591Y-76657037D01*
X56807007Y-76674075D01*
X56692993Y-76739901D01*
X56599901Y-76832993D01*
X56534075Y-76947007D01*
X56517037Y-77010591D01*
X55884728Y-76378282D01*
X55884727Y-76378282D01*
X55845380Y-76432439D01*
X55748904Y-76621782D01*
X55683242Y-76823869D01*
X55683242Y-76823872D01*
X55650000Y-77033753D01*
X55650000Y-77246246D01*
X55683242Y-77456127D01*
X55683242Y-77456130D01*
X55748904Y-77658217D01*
X55845375Y-77847550D01*
X55884728Y-77901716D01*
X56517037Y-77269408D01*
X56534075Y-77332993D01*
X56599901Y-77447007D01*
X56692993Y-77540099D01*
X56807007Y-77605925D01*
X56870591Y-77622962D01*
X56269971Y-78223581D01*
X56348711Y-78340895D01*
X56349920Y-78344729D01*
X56352844Y-78347491D01*
X56360343Y-78377778D01*
X56369727Y-78407529D01*
X56368671Y-78411408D01*
X56369638Y-78415312D01*
X56359573Y-78444844D01*
X56351383Y-78474947D01*
X56348397Y-78477640D01*
X56347100Y-78481447D01*
X56302051Y-78520483D01*
X56292440Y-78525380D01*
X56238282Y-78564727D01*
X56238282Y-78564728D01*
X56870591Y-79197037D01*
X56807007Y-79214075D01*
X56692993Y-79279901D01*
X56599901Y-79372993D01*
X56534075Y-79487007D01*
X56517037Y-79550591D01*
X55884728Y-78918282D01*
X55884727Y-78918282D01*
X55845380Y-78972439D01*
X55748904Y-79161782D01*
X55683242Y-79363869D01*
X55683242Y-79363872D01*
X55650000Y-79573753D01*
X55650000Y-79786246D01*
X55683242Y-79996127D01*
X55683242Y-79996130D01*
X55748904Y-80198217D01*
X55845375Y-80387550D01*
X55884728Y-80441716D01*
X56517037Y-79809408D01*
X56534075Y-79872993D01*
X56599901Y-79987007D01*
X56692993Y-80080099D01*
X56807007Y-80145925D01*
X56870590Y-80162962D01*
X56238282Y-80795269D01*
X56238282Y-80795270D01*
X56292452Y-80834626D01*
X56292451Y-80834626D01*
X56301495Y-80839234D01*
X56352292Y-80887208D01*
X56369087Y-80955029D01*
X56346550Y-81021164D01*
X56301499Y-81060202D01*
X56292182Y-81064949D01*
X56120213Y-81189890D01*
X55969890Y-81340213D01*
X55844951Y-81512179D01*
X55748444Y-81701585D01*
X55682753Y-81903760D01*
X55649500Y-82113713D01*
X55649500Y-82326286D01*
X55668604Y-82446908D01*
X55682754Y-82536243D01*
X55746061Y-82731082D01*
X55748444Y-82738414D01*
X55844951Y-82927820D01*
X55969890Y-83099786D01*
X56120213Y-83250109D01*
X56292182Y-83375050D01*
X56300946Y-83379516D01*
X56351742Y-83427491D01*
X56368536Y-83495312D01*
X56345998Y-83561447D01*
X56300946Y-83600484D01*
X56292182Y-83604949D01*
X56120213Y-83729890D01*
X55969890Y-83880213D01*
X55844951Y-84052179D01*
X55748444Y-84241585D01*
X55682753Y-84443760D01*
X55649500Y-84653713D01*
X55649500Y-84866281D01*
X55649499Y-84866284D01*
X55682386Y-85073920D01*
X55682754Y-85076243D01*
X55730468Y-85223092D01*
X55748444Y-85278414D01*
X55844951Y-85467820D01*
X55969890Y-85639786D01*
X56120213Y-85790109D01*
X56292182Y-85915050D01*
X56300946Y-85919516D01*
X56351742Y-85967491D01*
X56368536Y-86035312D01*
X56345998Y-86101447D01*
X56300946Y-86140484D01*
X56292182Y-86144949D01*
X56120213Y-86269890D01*
X55969890Y-86420213D01*
X55844951Y-86592179D01*
X55748444Y-86781585D01*
X55682753Y-86983760D01*
X55649500Y-87193713D01*
X55649500Y-87406286D01*
X55668604Y-87526908D01*
X55682754Y-87616243D01*
X55730468Y-87763092D01*
X55748444Y-87818414D01*
X55844951Y-88007820D01*
X55969890Y-88179786D01*
X56120213Y-88330109D01*
X56292182Y-88455050D01*
X56300946Y-88459516D01*
X56351742Y-88507491D01*
X56368536Y-88575312D01*
X56345998Y-88641447D01*
X56300946Y-88680484D01*
X56292182Y-88684949D01*
X56120213Y-88809890D01*
X55969890Y-88960213D01*
X55844951Y-89132179D01*
X55748444Y-89321585D01*
X55682753Y-89523760D01*
X55649500Y-89733713D01*
X55649500Y-89946286D01*
X55668604Y-90066908D01*
X55682754Y-90156243D01*
X55730468Y-90303092D01*
X55748444Y-90358414D01*
X55844951Y-90547820D01*
X55969890Y-90719786D01*
X56120213Y-90870109D01*
X56292179Y-90995048D01*
X56292181Y-90995049D01*
X56292184Y-90995051D01*
X56301493Y-90999794D01*
X56352290Y-91047766D01*
X56369087Y-91115587D01*
X56346552Y-91181722D01*
X56301505Y-91220760D01*
X56292446Y-91225376D01*
X56292440Y-91225380D01*
X56238282Y-91264727D01*
X56238282Y-91264728D01*
X56870591Y-91897037D01*
X56807007Y-91914075D01*
X56692993Y-91979901D01*
X56599901Y-92072993D01*
X56534075Y-92187007D01*
X56517037Y-92250591D01*
X55884728Y-91618282D01*
X55884727Y-91618282D01*
X55845380Y-91672439D01*
X55748904Y-91861782D01*
X55683242Y-92063869D01*
X55683242Y-92063872D01*
X55650000Y-92273753D01*
X55650000Y-92486246D01*
X55683242Y-92696127D01*
X55683242Y-92696130D01*
X55748904Y-92898217D01*
X55845375Y-93087550D01*
X55884728Y-93141716D01*
X56517037Y-92509408D01*
X56534075Y-92572993D01*
X56599901Y-92687007D01*
X56692993Y-92780099D01*
X56807007Y-92845925D01*
X56870591Y-92862962D01*
X56269971Y-93463581D01*
X56348711Y-93580895D01*
X56349920Y-93584729D01*
X56352844Y-93587491D01*
X56360343Y-93617778D01*
X56369727Y-93647529D01*
X56368671Y-93651408D01*
X56369638Y-93655312D01*
X56359573Y-93684844D01*
X56351383Y-93714947D01*
X56348397Y-93717640D01*
X56347100Y-93721447D01*
X56302051Y-93760483D01*
X56292440Y-93765380D01*
X56238282Y-93804727D01*
X56238282Y-93804728D01*
X56870591Y-94437037D01*
X56807007Y-94454075D01*
X56692993Y-94519901D01*
X56599901Y-94612993D01*
X56534075Y-94727007D01*
X56517037Y-94790591D01*
X55884728Y-94158282D01*
X55884727Y-94158282D01*
X55845380Y-94212439D01*
X55748904Y-94401782D01*
X55683242Y-94603869D01*
X55683242Y-94603872D01*
X55650000Y-94813753D01*
X55650000Y-95026246D01*
X55683242Y-95236127D01*
X55683242Y-95236130D01*
X55748904Y-95438217D01*
X55845375Y-95627550D01*
X55884728Y-95681716D01*
X56517037Y-95049408D01*
X56534075Y-95112993D01*
X56599901Y-95227007D01*
X56692993Y-95320099D01*
X56807007Y-95385925D01*
X56870591Y-95402962D01*
X56269971Y-96003581D01*
X56348711Y-96120895D01*
X56349920Y-96124729D01*
X56352844Y-96127491D01*
X56360343Y-96157778D01*
X56369727Y-96187529D01*
X56368671Y-96191408D01*
X56369638Y-96195312D01*
X56359573Y-96224844D01*
X56351383Y-96254947D01*
X56348397Y-96257640D01*
X56347100Y-96261447D01*
X56302051Y-96300483D01*
X56292440Y-96305380D01*
X56238282Y-96344727D01*
X56238282Y-96344728D01*
X56870591Y-96977037D01*
X56807007Y-96994075D01*
X56692993Y-97059901D01*
X56599901Y-97152993D01*
X56534075Y-97267007D01*
X56517037Y-97330591D01*
X55884728Y-96698282D01*
X55884727Y-96698282D01*
X55845380Y-96752439D01*
X55748904Y-96941782D01*
X55683242Y-97143869D01*
X55683242Y-97143872D01*
X55650000Y-97353753D01*
X55650000Y-97359981D01*
X55630315Y-97427020D01*
X55577511Y-97472775D01*
X55508353Y-97482719D01*
X55444797Y-97453694D01*
X55438319Y-97447662D01*
X54536819Y-96546162D01*
X54503334Y-96484839D01*
X54500500Y-96458481D01*
X54500500Y-61541519D01*
X54520185Y-61474480D01*
X54536819Y-61453838D01*
X56087819Y-59902838D01*
X56149142Y-59869353D01*
X56218834Y-59874337D01*
G37*
%TD.AperFunction*%
%TA.AperFunction,Conductor*%
G36*
X100250000Y-92914722D02*
G01*
X100173694Y-92870667D01*
X100059244Y-92840000D01*
X99940756Y-92840000D01*
X99826306Y-92870667D01*
X99750000Y-92914722D01*
X99750000Y-91125277D01*
X99826306Y-91169333D01*
X99940756Y-91200000D01*
X100059244Y-91200000D01*
X100173694Y-91169333D01*
X100250000Y-91125277D01*
X100250000Y-92914722D01*
G37*
%TD.AperFunction*%
%TA.AperFunction,Conductor*%
G36*
X126502324Y-45500587D02*
G01*
X126542259Y-45502081D01*
X126981082Y-45518500D01*
X126990306Y-45519192D01*
X127464101Y-45572575D01*
X127473247Y-45573954D01*
X127835901Y-45642572D01*
X127941708Y-45662592D01*
X127950749Y-45664655D01*
X128124139Y-45711114D01*
X128411287Y-45788056D01*
X128420133Y-45790784D01*
X128870158Y-45948255D01*
X128878778Y-45951637D01*
X129122667Y-46058045D01*
X129315784Y-46142302D01*
X129324138Y-46146326D01*
X129745640Y-46369096D01*
X129753671Y-46373732D01*
X130157371Y-46627393D01*
X130165033Y-46632617D01*
X130548641Y-46915732D01*
X130555883Y-46921508D01*
X130917275Y-47232511D01*
X130924072Y-47238818D01*
X131261181Y-47575927D01*
X131267488Y-47582724D01*
X131578491Y-47944116D01*
X131584273Y-47951366D01*
X131867382Y-48334966D01*
X131872606Y-48342628D01*
X132126267Y-48746328D01*
X132130903Y-48754359D01*
X132353673Y-49175861D01*
X132357697Y-49184215D01*
X132548359Y-49621215D01*
X132551747Y-49629848D01*
X132709212Y-50079859D01*
X132711945Y-50088719D01*
X132835344Y-50549250D01*
X132837407Y-50558291D01*
X132926043Y-51026741D01*
X132927425Y-51035910D01*
X132980806Y-51509681D01*
X132981499Y-51518928D01*
X132999413Y-51997674D01*
X132999500Y-52002311D01*
X132999500Y-90420998D01*
X132979815Y-90488037D01*
X132927011Y-90533792D01*
X132857853Y-90543736D01*
X132801189Y-90520265D01*
X132742331Y-90476204D01*
X132742328Y-90476202D01*
X132607482Y-90425908D01*
X132607483Y-90425908D01*
X132547883Y-90419501D01*
X132547881Y-90419500D01*
X132547873Y-90419500D01*
X132547864Y-90419500D01*
X130452129Y-90419500D01*
X130452123Y-90419501D01*
X130392516Y-90425908D01*
X130257671Y-90476202D01*
X130257664Y-90476206D01*
X130142455Y-90562452D01*
X130142452Y-90562455D01*
X130056206Y-90677664D01*
X130056202Y-90677671D01*
X130005908Y-90812517D01*
X129999501Y-90872116D01*
X129999500Y-90872135D01*
X129999500Y-92467870D01*
X129999501Y-92467876D01*
X130005908Y-92527483D01*
X130056202Y-92662328D01*
X130056206Y-92662335D01*
X130142452Y-92777544D01*
X130142455Y-92777547D01*
X130257664Y-92863793D01*
X130257671Y-92863797D01*
X130392517Y-92914091D01*
X130392516Y-92914091D01*
X130399444Y-92914835D01*
X130452127Y-92920500D01*
X130515733Y-92920499D01*
X130582770Y-92940183D01*
X130628526Y-92992986D01*
X130638470Y-93062144D01*
X130609446Y-93125700D01*
X130588619Y-93144816D01*
X130435354Y-93256171D01*
X130296174Y-93395351D01*
X130296174Y-93395352D01*
X130296172Y-93395354D01*
X130277773Y-93420678D01*
X130180476Y-93554594D01*
X130091117Y-93729970D01*
X130030290Y-93917173D01*
X129999500Y-94111577D01*
X129999500Y-94308422D01*
X130030290Y-94502826D01*
X130091117Y-94690029D01*
X130180476Y-94865405D01*
X130296172Y-95024646D01*
X130435354Y-95163828D01*
X130594595Y-95279524D01*
X130717992Y-95342397D01*
X130771213Y-95369515D01*
X130822009Y-95417489D01*
X130838804Y-95485310D01*
X130816267Y-95551445D01*
X130771213Y-95590485D01*
X130594594Y-95680476D01*
X130503741Y-95746485D01*
X130435354Y-95796172D01*
X130435352Y-95796174D01*
X130435351Y-95796174D01*
X130296174Y-95935351D01*
X130296174Y-95935352D01*
X130296172Y-95935354D01*
X130277773Y-95960678D01*
X130180476Y-96094594D01*
X130091117Y-96269970D01*
X130030290Y-96457173D01*
X129999500Y-96651577D01*
X129999500Y-96848422D01*
X130030290Y-97042826D01*
X130091117Y-97230029D01*
X130180476Y-97405405D01*
X130296172Y-97564646D01*
X130435354Y-97703828D01*
X130594595Y-97819524D01*
X130674228Y-97860099D01*
X130769970Y-97908882D01*
X130769972Y-97908882D01*
X130769975Y-97908884D01*
X130870317Y-97941487D01*
X130957173Y-97969709D01*
X131151578Y-98000500D01*
X131151583Y-98000500D01*
X131848422Y-98000500D01*
X132042826Y-97969709D01*
X132072707Y-97960000D01*
X132230025Y-97908884D01*
X132405405Y-97819524D01*
X132564646Y-97703828D01*
X132703828Y-97564646D01*
X132775183Y-97466433D01*
X132830512Y-97423770D01*
X132900125Y-97417791D01*
X132961920Y-97450397D01*
X132996278Y-97511236D01*
X132999500Y-97539321D01*
X132999500Y-107997688D01*
X132999413Y-108002325D01*
X132981499Y-108481071D01*
X132980806Y-108490318D01*
X132927425Y-108964089D01*
X132926043Y-108973258D01*
X132837407Y-109441708D01*
X132835344Y-109450749D01*
X132711945Y-109911280D01*
X132709212Y-109920140D01*
X132551747Y-110370151D01*
X132548359Y-110378784D01*
X132357697Y-110815784D01*
X132353673Y-110824138D01*
X132130903Y-111245640D01*
X132126267Y-111253671D01*
X131872606Y-111657371D01*
X131867382Y-111665033D01*
X131584273Y-112048633D01*
X131578491Y-112055883D01*
X131267488Y-112417275D01*
X131261181Y-112424072D01*
X130924072Y-112761181D01*
X130917275Y-112767488D01*
X130555883Y-113078491D01*
X130548633Y-113084273D01*
X130165033Y-113367382D01*
X130157371Y-113372606D01*
X129753671Y-113626267D01*
X129745640Y-113630903D01*
X129324138Y-113853673D01*
X129315784Y-113857697D01*
X128878784Y-114048359D01*
X128870151Y-114051747D01*
X128420140Y-114209212D01*
X128411280Y-114211945D01*
X127950749Y-114335344D01*
X127941708Y-114337407D01*
X127473258Y-114426043D01*
X127464089Y-114427425D01*
X126990318Y-114480806D01*
X126981071Y-114481499D01*
X126502325Y-114499413D01*
X126497688Y-114499500D01*
X57002312Y-114499500D01*
X56997675Y-114499413D01*
X56518928Y-114481499D01*
X56509681Y-114480806D01*
X56035910Y-114427425D01*
X56026741Y-114426043D01*
X55558291Y-114337407D01*
X55549250Y-114335344D01*
X55088719Y-114211945D01*
X55079859Y-114209212D01*
X54629848Y-114051747D01*
X54621215Y-114048359D01*
X54184215Y-113857697D01*
X54175861Y-113853673D01*
X53754359Y-113630903D01*
X53746328Y-113626267D01*
X53342628Y-113372606D01*
X53334966Y-113367382D01*
X52951366Y-113084273D01*
X52944116Y-113078491D01*
X52582724Y-112767488D01*
X52575927Y-112761181D01*
X52238818Y-112424072D01*
X52232511Y-112417275D01*
X51921508Y-112055883D01*
X51915726Y-112048633D01*
X51632617Y-111665033D01*
X51627393Y-111657371D01*
X51373732Y-111253671D01*
X51369096Y-111245640D01*
X51146326Y-110824138D01*
X51142302Y-110815784D01*
X50951640Y-110378784D01*
X50948252Y-110370151D01*
X50891180Y-110207049D01*
X50790784Y-109920133D01*
X50788054Y-109911280D01*
X50786299Y-109904732D01*
X50664655Y-109450749D01*
X50662592Y-109441708D01*
X50642572Y-109335901D01*
X50573954Y-108973247D01*
X50572574Y-108964089D01*
X50565379Y-108900233D01*
X50519192Y-108490306D01*
X50518500Y-108481070D01*
X50500587Y-108002324D01*
X50500500Y-107997688D01*
X50500500Y-107818209D01*
X53299500Y-107818209D01*
X53299500Y-108181790D01*
X53335137Y-108543630D01*
X53406064Y-108900212D01*
X53406067Y-108900223D01*
X53511614Y-109248165D01*
X53650754Y-109584078D01*
X53650756Y-109584083D01*
X53822140Y-109904720D01*
X53822151Y-109904738D01*
X54024140Y-110207035D01*
X54024150Y-110207049D01*
X54254807Y-110488106D01*
X54511893Y-110745192D01*
X54511898Y-110745196D01*
X54511899Y-110745197D01*
X54792956Y-110975854D01*
X55095268Y-111177853D01*
X55095277Y-111177858D01*
X55095279Y-111177859D01*
X55415916Y-111349243D01*
X55415918Y-111349243D01*
X55415924Y-111349247D01*
X55751836Y-111488386D01*
X56099767Y-111593930D01*
X56099773Y-111593931D01*
X56099776Y-111593932D01*
X56099787Y-111593935D01*
X56438456Y-111661299D01*
X56456369Y-111664862D01*
X56818206Y-111700500D01*
X56818209Y-111700500D01*
X57181791Y-111700500D01*
X57181794Y-111700500D01*
X57543631Y-111664862D01*
X57613045Y-111651054D01*
X57900212Y-111593935D01*
X57900223Y-111593932D01*
X57900223Y-111593931D01*
X57900233Y-111593930D01*
X58248164Y-111488386D01*
X58584076Y-111349247D01*
X58904732Y-111177853D01*
X59207044Y-110975854D01*
X59488101Y-110745197D01*
X59745197Y-110488101D01*
X59975854Y-110207044D01*
X60177853Y-109904732D01*
X60349247Y-109584076D01*
X60488386Y-109248164D01*
X60593930Y-108900233D01*
X60593932Y-108900223D01*
X60593935Y-108900212D01*
X60664862Y-108543630D01*
X60700500Y-108181790D01*
X60700500Y-107818209D01*
X122799500Y-107818209D01*
X122799500Y-108181790D01*
X122835137Y-108543630D01*
X122906064Y-108900212D01*
X122906067Y-108900223D01*
X123011614Y-109248165D01*
X123150754Y-109584078D01*
X123150756Y-109584083D01*
X123322140Y-109904720D01*
X123322151Y-109904738D01*
X123524140Y-110207035D01*
X123524150Y-110207049D01*
X123754807Y-110488106D01*
X124011893Y-110745192D01*
X124011898Y-110745196D01*
X124011899Y-110745197D01*
X124292956Y-110975854D01*
X124595268Y-111177853D01*
X124595277Y-111177858D01*
X124595279Y-111177859D01*
X124915916Y-111349243D01*
X124915918Y-111349243D01*
X124915924Y-111349247D01*
X125251836Y-111488386D01*
X125599767Y-111593930D01*
X125599773Y-111593931D01*
X125599776Y-111593932D01*
X125599787Y-111593935D01*
X125938456Y-111661299D01*
X125956369Y-111664862D01*
X126318206Y-111700500D01*
X126318209Y-111700500D01*
X126681791Y-111700500D01*
X126681794Y-111700500D01*
X127043631Y-111664862D01*
X127113045Y-111651054D01*
X127400212Y-111593935D01*
X127400223Y-111593932D01*
X127400223Y-111593931D01*
X127400233Y-111593930D01*
X127748164Y-111488386D01*
X128084076Y-111349247D01*
X128404732Y-111177853D01*
X128707044Y-110975854D01*
X128988101Y-110745197D01*
X129245197Y-110488101D01*
X129475854Y-110207044D01*
X129677853Y-109904732D01*
X129849247Y-109584076D01*
X129988386Y-109248164D01*
X130093930Y-108900233D01*
X130093932Y-108900223D01*
X130093935Y-108900212D01*
X130164862Y-108543630D01*
X130200500Y-108181790D01*
X130200500Y-107818209D01*
X130164862Y-107456369D01*
X130093935Y-107099787D01*
X130093932Y-107099776D01*
X130093931Y-107099773D01*
X130093930Y-107099767D01*
X129988386Y-106751836D01*
X129849247Y-106415924D01*
X129766646Y-106261389D01*
X129677859Y-106095279D01*
X129677858Y-106095277D01*
X129677853Y-106095268D01*
X129475854Y-105792956D01*
X129245197Y-105511899D01*
X129245196Y-105511898D01*
X129245192Y-105511893D01*
X128988106Y-105254807D01*
X128707049Y-105024150D01*
X128707048Y-105024149D01*
X128707044Y-105024146D01*
X128404732Y-104822147D01*
X128404727Y-104822144D01*
X128404720Y-104822140D01*
X128084083Y-104650756D01*
X128084078Y-104650754D01*
X128079445Y-104648835D01*
X127982995Y-104608884D01*
X127748165Y-104511614D01*
X127400223Y-104406067D01*
X127400212Y-104406064D01*
X127043630Y-104335137D01*
X126771111Y-104308296D01*
X126681794Y-104299500D01*
X126318206Y-104299500D01*
X126235679Y-104307628D01*
X125956369Y-104335137D01*
X125599787Y-104406064D01*
X125599776Y-104406067D01*
X125251834Y-104511614D01*
X124915921Y-104650754D01*
X124915916Y-104650756D01*
X124595279Y-104822140D01*
X124595261Y-104822151D01*
X124292964Y-105024140D01*
X124292950Y-105024150D01*
X124011893Y-105254807D01*
X123754807Y-105511893D01*
X123524150Y-105792950D01*
X123524140Y-105792964D01*
X123322151Y-106095261D01*
X123322140Y-106095279D01*
X123150756Y-106415916D01*
X123150754Y-106415921D01*
X123011614Y-106751834D01*
X122906067Y-107099776D01*
X122906064Y-107099787D01*
X122835137Y-107456369D01*
X122799500Y-107818209D01*
X60700500Y-107818209D01*
X60664862Y-107456369D01*
X60593935Y-107099787D01*
X60593932Y-107099776D01*
X60593931Y-107099773D01*
X60593930Y-107099767D01*
X60488386Y-106751836D01*
X60349247Y-106415924D01*
X60269275Y-106266306D01*
X60266647Y-106261389D01*
X60177859Y-106095279D01*
X60177858Y-106095277D01*
X60177853Y-106095268D01*
X59975854Y-105792956D01*
X59745197Y-105511899D01*
X59745196Y-105511898D01*
X59745192Y-105511893D01*
X59488106Y-105254807D01*
X59207049Y-105024150D01*
X59207048Y-105024149D01*
X59207044Y-105024146D01*
X58904732Y-104822147D01*
X58904727Y-104822144D01*
X58904720Y-104822140D01*
X58584083Y-104650756D01*
X58584078Y-104650754D01*
X58579445Y-104648835D01*
X58482995Y-104608884D01*
X58248165Y-104511614D01*
X57900223Y-104406067D01*
X57900212Y-104406064D01*
X57543630Y-104335137D01*
X57271111Y-104308296D01*
X57181794Y-104299500D01*
X56818206Y-104299500D01*
X56735679Y-104307628D01*
X56456369Y-104335137D01*
X56099787Y-104406064D01*
X56099776Y-104406067D01*
X55751834Y-104511614D01*
X55415921Y-104650754D01*
X55415916Y-104650756D01*
X55095279Y-104822140D01*
X55095261Y-104822151D01*
X54792964Y-105024140D01*
X54792950Y-105024150D01*
X54511893Y-105254807D01*
X54254807Y-105511893D01*
X54024150Y-105792950D01*
X54024140Y-105792964D01*
X53822151Y-106095261D01*
X53822140Y-106095279D01*
X53650756Y-106415916D01*
X53650754Y-106415921D01*
X53511614Y-106751834D01*
X53406067Y-107099776D01*
X53406064Y-107099787D01*
X53335137Y-107456369D01*
X53299500Y-107818209D01*
X50500500Y-107818209D01*
X50500500Y-96868996D01*
X53099499Y-96868996D01*
X53126418Y-97004322D01*
X53126421Y-97004332D01*
X53179222Y-97131807D01*
X53255887Y-97246545D01*
X53255888Y-97246546D01*
X55613181Y-99603837D01*
X55646666Y-99665160D01*
X55649500Y-99691518D01*
X55649500Y-100897870D01*
X55649501Y-100897876D01*
X55655908Y-100957483D01*
X55706202Y-101092328D01*
X55706206Y-101092335D01*
X55792452Y-101207544D01*
X55792455Y-101207547D01*
X55907664Y-101293793D01*
X55907671Y-101293797D01*
X56042517Y-101344091D01*
X56042516Y-101344091D01*
X56049444Y-101344835D01*
X56102127Y-101350500D01*
X57897872Y-101350499D01*
X57957483Y-101344091D01*
X58092331Y-101293796D01*
X58207546Y-101207546D01*
X58293796Y-101092331D01*
X58344091Y-100957483D01*
X58350500Y-100897873D01*
X58350499Y-100776819D01*
X58370183Y-100709781D01*
X58416050Y-100667460D01*
X58420490Y-100665086D01*
X58420489Y-100665086D01*
X58420495Y-100665084D01*
X58492198Y-100617174D01*
X58543416Y-100582952D01*
X62360087Y-96766278D01*
X62421408Y-96732795D01*
X62467163Y-96731488D01*
X62502789Y-96737130D01*
X62681903Y-96765500D01*
X62681908Y-96765500D01*
X62918096Y-96765500D01*
X63013592Y-96750374D01*
X63132834Y-96731488D01*
X63202126Y-96740442D01*
X63239912Y-96766280D01*
X64333732Y-97860099D01*
X65352049Y-98878416D01*
X65456584Y-98982951D01*
X65456587Y-98982953D01*
X65456588Y-98982954D01*
X65579503Y-99065083D01*
X65579506Y-99065085D01*
X65629665Y-99085861D01*
X65636080Y-99088518D01*
X65716088Y-99121659D01*
X65832241Y-99144763D01*
X65855380Y-99149365D01*
X65861081Y-99150500D01*
X65861082Y-99150500D01*
X65861083Y-99150500D01*
X66008918Y-99150500D01*
X88037770Y-99150500D01*
X88104809Y-99170185D01*
X88125451Y-99186819D01*
X92867048Y-103928415D01*
X92867049Y-103928416D01*
X92971584Y-104032951D01*
X92971585Y-104032952D01*
X93094498Y-104115080D01*
X93094511Y-104115087D01*
X93231082Y-104171656D01*
X93231087Y-104171658D01*
X93231091Y-104171658D01*
X93231092Y-104171659D01*
X93376079Y-104200500D01*
X93376082Y-104200500D01*
X98686386Y-104200500D01*
X98753425Y-104220185D01*
X98786702Y-104251612D01*
X98796172Y-104264646D01*
X98935354Y-104403828D01*
X99054784Y-104490600D01*
X99094596Y-104519525D01*
X99271763Y-104609795D01*
X99322560Y-104657769D01*
X99339355Y-104725590D01*
X99316818Y-104791725D01*
X99271764Y-104830765D01*
X99094856Y-104920904D01*
X98935678Y-105036555D01*
X98796555Y-105175678D01*
X98680904Y-105334856D01*
X98591581Y-105510162D01*
X98530781Y-105697283D01*
X98524016Y-105740000D01*
X99624722Y-105740000D01*
X99580667Y-105816306D01*
X99550000Y-105930756D01*
X99550000Y-106049244D01*
X99580667Y-106163694D01*
X99624722Y-106240000D01*
X98524016Y-106240000D01*
X98530781Y-106282716D01*
X98591581Y-106469837D01*
X98680904Y-106645143D01*
X98796555Y-106804321D01*
X98935678Y-106943444D01*
X99094856Y-107059095D01*
X99270164Y-107148418D01*
X99457294Y-107209221D01*
X99651618Y-107240000D01*
X99750000Y-107240000D01*
X99750000Y-106365277D01*
X99826306Y-106409333D01*
X99940756Y-106440000D01*
X100059244Y-106440000D01*
X100173694Y-106409333D01*
X100250000Y-106365277D01*
X100250000Y-107240000D01*
X100348382Y-107240000D01*
X100542705Y-107209221D01*
X100729835Y-107148418D01*
X100905143Y-107059095D01*
X101064321Y-106943444D01*
X101203444Y-106804321D01*
X101319095Y-106645143D01*
X101408418Y-106469837D01*
X101469218Y-106282716D01*
X101475984Y-106240000D01*
X100375278Y-106240000D01*
X100419333Y-106163694D01*
X100450000Y-106049244D01*
X100450000Y-105930756D01*
X100419333Y-105816306D01*
X100375278Y-105740000D01*
X101475984Y-105740000D01*
X101469218Y-105697283D01*
X101408418Y-105510162D01*
X101319095Y-105334856D01*
X101203444Y-105175678D01*
X101064321Y-105036555D01*
X100905143Y-104920904D01*
X100728235Y-104830765D01*
X100677439Y-104782790D01*
X100660644Y-104714969D01*
X100683181Y-104648835D01*
X100728236Y-104609795D01*
X100730022Y-104608884D01*
X100730025Y-104608884D01*
X100905405Y-104519524D01*
X101064646Y-104403828D01*
X101203828Y-104264646D01*
X101319524Y-104105405D01*
X101408884Y-103930025D01*
X101469709Y-103742826D01*
X101500500Y-103548422D01*
X101500500Y-103351577D01*
X101469709Y-103157173D01*
X101408882Y-102969970D01*
X101319523Y-102794594D01*
X101203828Y-102635354D01*
X101064646Y-102496172D01*
X100985025Y-102438324D01*
X100905403Y-102380474D01*
X100728787Y-102290485D01*
X100677990Y-102242511D01*
X100661195Y-102174690D01*
X100683732Y-102108555D01*
X100728787Y-102069515D01*
X100905403Y-101979525D01*
X100905402Y-101979525D01*
X100905405Y-101979524D01*
X101064646Y-101863828D01*
X101203828Y-101724646D01*
X101319524Y-101565405D01*
X101408884Y-101390025D01*
X101469709Y-101202826D01*
X101487209Y-101092335D01*
X101500500Y-101008422D01*
X101500500Y-100811577D01*
X101469709Y-100617173D01*
X101408882Y-100429970D01*
X101319523Y-100254594D01*
X101203828Y-100095354D01*
X101064646Y-99956172D01*
X100985025Y-99898324D01*
X100905403Y-99840474D01*
X100728787Y-99750485D01*
X100677990Y-99702511D01*
X100661195Y-99634690D01*
X100683732Y-99568555D01*
X100728787Y-99529515D01*
X100905403Y-99439525D01*
X100905402Y-99439525D01*
X100905405Y-99439524D01*
X101064646Y-99323828D01*
X101203828Y-99184646D01*
X101319524Y-99025405D01*
X101408884Y-98850025D01*
X101469709Y-98662826D01*
X101470805Y-98655908D01*
X101500500Y-98468422D01*
X101500500Y-98271577D01*
X101469709Y-98077173D01*
X101408882Y-97889970D01*
X101344743Y-97764091D01*
X101319524Y-97714595D01*
X101203828Y-97555354D01*
X101064646Y-97416172D01*
X100978734Y-97353753D01*
X100905403Y-97300474D01*
X100728787Y-97210485D01*
X100677990Y-97162511D01*
X100661195Y-97094690D01*
X100683732Y-97028555D01*
X100728787Y-96989515D01*
X100905403Y-96899525D01*
X100905402Y-96899525D01*
X100905405Y-96899524D01*
X101064646Y-96783828D01*
X101203828Y-96644646D01*
X101319524Y-96485405D01*
X101408884Y-96310025D01*
X101469709Y-96122826D01*
X101474180Y-96094595D01*
X101500500Y-95928422D01*
X101500500Y-95731577D01*
X101469709Y-95537173D01*
X101419646Y-95383097D01*
X101408884Y-95349975D01*
X101408882Y-95349972D01*
X101408882Y-95349970D01*
X101319523Y-95174594D01*
X101299408Y-95146908D01*
X101203828Y-95015354D01*
X101064646Y-94876172D01*
X100905405Y-94760476D01*
X100730025Y-94671116D01*
X100730024Y-94671115D01*
X100728235Y-94670204D01*
X100677439Y-94622230D01*
X100660644Y-94554409D01*
X100683181Y-94488274D01*
X100728236Y-94449234D01*
X100905141Y-94359097D01*
X101064321Y-94243444D01*
X101203444Y-94104321D01*
X101319095Y-93945143D01*
X101408418Y-93769837D01*
X101469218Y-93582716D01*
X101475984Y-93540000D01*
X100375278Y-93540000D01*
X100419333Y-93463694D01*
X100450000Y-93349244D01*
X100450000Y-93230756D01*
X100419333Y-93116306D01*
X100375278Y-93040000D01*
X101475984Y-93040000D01*
X101469218Y-92997283D01*
X101408418Y-92810162D01*
X101319095Y-92634856D01*
X101203444Y-92475678D01*
X101064321Y-92336555D01*
X100905141Y-92220902D01*
X100727685Y-92130485D01*
X100676888Y-92082511D01*
X100660093Y-92014690D01*
X100682630Y-91948555D01*
X100727685Y-91909515D01*
X100905141Y-91819097D01*
X101064321Y-91703444D01*
X101203444Y-91564321D01*
X101319095Y-91405143D01*
X101408418Y-91229837D01*
X101469218Y-91042716D01*
X101475984Y-91000000D01*
X100375278Y-91000000D01*
X100419333Y-90923694D01*
X100450000Y-90809244D01*
X100450000Y-90690756D01*
X100419333Y-90576306D01*
X100375278Y-90500000D01*
X101475984Y-90500000D01*
X101469218Y-90457283D01*
X101408418Y-90270162D01*
X101319095Y-90094856D01*
X101203444Y-89935678D01*
X101064321Y-89796555D01*
X100905143Y-89680904D01*
X100729835Y-89591581D01*
X100542705Y-89530778D01*
X100348382Y-89500000D01*
X100250000Y-89500000D01*
X100250000Y-90374722D01*
X100173694Y-90330667D01*
X100059244Y-90300000D01*
X99940756Y-90300000D01*
X99826306Y-90330667D01*
X99750000Y-90374722D01*
X99750000Y-89500000D01*
X99651618Y-89500000D01*
X99457294Y-89530778D01*
X99270164Y-89591581D01*
X99094856Y-89680904D01*
X98935678Y-89796555D01*
X98796555Y-89935678D01*
X98680904Y-90094856D01*
X98591581Y-90270162D01*
X98530781Y-90457283D01*
X98524016Y-90500000D01*
X99624722Y-90500000D01*
X99580667Y-90576306D01*
X99550000Y-90690756D01*
X99550000Y-90809244D01*
X99580667Y-90923694D01*
X99624722Y-91000000D01*
X98524016Y-91000000D01*
X98530781Y-91042716D01*
X98591581Y-91229837D01*
X98680904Y-91405143D01*
X98796555Y-91564321D01*
X98935678Y-91703444D01*
X99094856Y-91819095D01*
X99272315Y-91909515D01*
X99323111Y-91957489D01*
X99339906Y-92025310D01*
X99317369Y-92091445D01*
X99272315Y-92130485D01*
X99094856Y-92220904D01*
X98935678Y-92336555D01*
X98796555Y-92475678D01*
X98680904Y-92634856D01*
X98591581Y-92810162D01*
X98530781Y-92997283D01*
X98524016Y-93040000D01*
X99624722Y-93040000D01*
X99580667Y-93116306D01*
X99550000Y-93230756D01*
X99550000Y-93349244D01*
X99580667Y-93463694D01*
X99624722Y-93540000D01*
X98524016Y-93540000D01*
X98530781Y-93582716D01*
X98591581Y-93769837D01*
X98680904Y-93945143D01*
X98796555Y-94104321D01*
X98935678Y-94243444D01*
X99094856Y-94359095D01*
X99271764Y-94449234D01*
X99322560Y-94497208D01*
X99339355Y-94565029D01*
X99316818Y-94631164D01*
X99271764Y-94670204D01*
X99094594Y-94760476D01*
X99026170Y-94810190D01*
X98935354Y-94876172D01*
X98935352Y-94876174D01*
X98935351Y-94876174D01*
X98796174Y-95015351D01*
X98796174Y-95015352D01*
X98796172Y-95015354D01*
X98746485Y-95083741D01*
X98680476Y-95174594D01*
X98591117Y-95349970D01*
X98530290Y-95537173D01*
X98499500Y-95731577D01*
X98499500Y-95928422D01*
X98530290Y-96122826D01*
X98591117Y-96310029D01*
X98680188Y-96484839D01*
X98680476Y-96485405D01*
X98796172Y-96644646D01*
X98935354Y-96783828D01*
X99094595Y-96899524D01*
X99177532Y-96941782D01*
X99271213Y-96989515D01*
X99322009Y-97037489D01*
X99338804Y-97105310D01*
X99316267Y-97171445D01*
X99271213Y-97210485D01*
X99094594Y-97300476D01*
X99021266Y-97353753D01*
X98935354Y-97416172D01*
X98935352Y-97416174D01*
X98935351Y-97416174D01*
X98796174Y-97555351D01*
X98796174Y-97555352D01*
X98796172Y-97555354D01*
X98754158Y-97613181D01*
X98680476Y-97714594D01*
X98591117Y-97889970D01*
X98530290Y-98077173D01*
X98499500Y-98271577D01*
X98499500Y-98468422D01*
X98530290Y-98662826D01*
X98591117Y-98850029D01*
X98658846Y-98982954D01*
X98680476Y-99025405D01*
X98796172Y-99184646D01*
X98935354Y-99323828D01*
X99094595Y-99439524D01*
X99217992Y-99502397D01*
X99271213Y-99529515D01*
X99322009Y-99577489D01*
X99338804Y-99645310D01*
X99316267Y-99711445D01*
X99271213Y-99750485D01*
X99094594Y-99840476D01*
X99003741Y-99906485D01*
X98935354Y-99956172D01*
X98935352Y-99956174D01*
X98935351Y-99956174D01*
X98796174Y-100095351D01*
X98796174Y-100095352D01*
X98796172Y-100095354D01*
X98746485Y-100163741D01*
X98680476Y-100254594D01*
X98591117Y-100429970D01*
X98530290Y-100617173D01*
X98499500Y-100811577D01*
X98499500Y-101008422D01*
X98530290Y-101202826D01*
X98591117Y-101390029D01*
X98680476Y-101565405D01*
X98796172Y-101724646D01*
X98935354Y-101863828D01*
X99094595Y-101979524D01*
X99217992Y-102042397D01*
X99271213Y-102069515D01*
X99322009Y-102117489D01*
X99338804Y-102185310D01*
X99316267Y-102251445D01*
X99271213Y-102290485D01*
X99094594Y-102380476D01*
X99003741Y-102446485D01*
X98935354Y-102496172D01*
X98935352Y-102496174D01*
X98935351Y-102496174D01*
X98796171Y-102635354D01*
X98786703Y-102648387D01*
X98731372Y-102691052D01*
X98686386Y-102699500D01*
X93812229Y-102699500D01*
X93745190Y-102679815D01*
X93724548Y-102663181D01*
X88878421Y-97817052D01*
X88878420Y-97817051D01*
X88817176Y-97776130D01*
X88799160Y-97764092D01*
X88799159Y-97764091D01*
X88755501Y-97734919D01*
X88755488Y-97734912D01*
X88618917Y-97678343D01*
X88618907Y-97678340D01*
X88473920Y-97649500D01*
X88473918Y-97649500D01*
X66297229Y-97649500D01*
X66230190Y-97629815D01*
X66209548Y-97613181D01*
X64301280Y-95704912D01*
X64267795Y-95643589D01*
X64266488Y-95597836D01*
X64293117Y-95429709D01*
X64300500Y-95383096D01*
X64300500Y-95146902D01*
X64263553Y-94913631D01*
X64229689Y-94809412D01*
X64190568Y-94689008D01*
X64190566Y-94689005D01*
X64190566Y-94689003D01*
X64121986Y-94554409D01*
X64083343Y-94478567D01*
X63944517Y-94287490D01*
X63777510Y-94120483D01*
X63718282Y-94077451D01*
X63675617Y-94022122D01*
X63667550Y-93967404D01*
X63669104Y-93947657D01*
X62937574Y-93216128D01*
X62996853Y-93200245D01*
X63113147Y-93133102D01*
X63208102Y-93038147D01*
X63275245Y-92921853D01*
X63291128Y-92862575D01*
X64022658Y-93594105D01*
X64022658Y-93594104D01*
X64082914Y-93511169D01*
X64082918Y-93511163D01*
X64190102Y-93300802D01*
X64263065Y-93076247D01*
X64300000Y-92843052D01*
X64300000Y-92606947D01*
X64263065Y-92373752D01*
X64190102Y-92149197D01*
X64082914Y-91938828D01*
X64022658Y-91855894D01*
X64022658Y-91855893D01*
X63291128Y-92587424D01*
X63275245Y-92528147D01*
X63208102Y-92411853D01*
X63113147Y-92316898D01*
X62996853Y-92249755D01*
X62937574Y-92233871D01*
X63669105Y-91502340D01*
X63667551Y-91482594D01*
X63681915Y-91414216D01*
X63718284Y-91372547D01*
X63777510Y-91329517D01*
X63944517Y-91162510D01*
X64083343Y-90971433D01*
X64190568Y-90760992D01*
X64263553Y-90536368D01*
X64282063Y-90419500D01*
X64300500Y-90303097D01*
X64300500Y-90066902D01*
X64263553Y-89833631D01*
X64229689Y-89729412D01*
X64190568Y-89609008D01*
X64190566Y-89609005D01*
X64190566Y-89609003D01*
X64083342Y-89398566D01*
X64027414Y-89321588D01*
X63944517Y-89207490D01*
X63777510Y-89040483D01*
X63742872Y-89015317D01*
X63700207Y-88959989D01*
X63694228Y-88890375D01*
X63726833Y-88828580D01*
X63742873Y-88814682D01*
X63777510Y-88789517D01*
X63944517Y-88622510D01*
X64083343Y-88431433D01*
X64190568Y-88220992D01*
X64263553Y-87996368D01*
X64271940Y-87943416D01*
X64300500Y-87763097D01*
X64300500Y-87526902D01*
X64263553Y-87293631D01*
X64221784Y-87165080D01*
X64190568Y-87069008D01*
X64190566Y-87069005D01*
X64190566Y-87069003D01*
X64083342Y-86858566D01*
X64027414Y-86781588D01*
X63944517Y-86667490D01*
X63777510Y-86500483D01*
X63742872Y-86475317D01*
X63700207Y-86419989D01*
X63694228Y-86350375D01*
X63726833Y-86288580D01*
X63742873Y-86274682D01*
X63777510Y-86249517D01*
X63944517Y-86082510D01*
X64083343Y-85891433D01*
X64190568Y-85680992D01*
X64263553Y-85456368D01*
X64279531Y-85355488D01*
X64300500Y-85223097D01*
X64300500Y-84986902D01*
X64263553Y-84753631D01*
X64190566Y-84529003D01*
X64083342Y-84318566D01*
X64027414Y-84241588D01*
X63944517Y-84127490D01*
X63777510Y-83960483D01*
X63742872Y-83935317D01*
X63700207Y-83879989D01*
X63694228Y-83810375D01*
X63726833Y-83748580D01*
X63742873Y-83734682D01*
X63748954Y-83730264D01*
X63777510Y-83709517D01*
X63944517Y-83542510D01*
X64083343Y-83351433D01*
X64190568Y-83140992D01*
X64263553Y-82916368D01*
X64287288Y-82766510D01*
X64300500Y-82683097D01*
X64300500Y-82446902D01*
X64263553Y-82213631D01*
X64190566Y-81989003D01*
X64083342Y-81778566D01*
X64027414Y-81701588D01*
X63944517Y-81587490D01*
X63777510Y-81420483D01*
X63742872Y-81395317D01*
X63700207Y-81339989D01*
X63694228Y-81270375D01*
X63726833Y-81208580D01*
X63742873Y-81194682D01*
X63777510Y-81169517D01*
X63944517Y-81002510D01*
X64083343Y-80811433D01*
X64190568Y-80600992D01*
X64263553Y-80376368D01*
X64275569Y-80300500D01*
X64300500Y-80143097D01*
X64300500Y-79906902D01*
X64263553Y-79673631D01*
X64210479Y-79510288D01*
X64190568Y-79449008D01*
X64190566Y-79449005D01*
X64190566Y-79449003D01*
X64128120Y-79326446D01*
X64083343Y-79238567D01*
X63944517Y-79047490D01*
X63777510Y-78880483D01*
X63742872Y-78855317D01*
X63700207Y-78799989D01*
X63694228Y-78730375D01*
X63726833Y-78668580D01*
X63742873Y-78654682D01*
X63777510Y-78629517D01*
X63944517Y-78462510D01*
X64083343Y-78271433D01*
X64190568Y-78060992D01*
X64263553Y-77836368D01*
X64272309Y-77781087D01*
X64300500Y-77603097D01*
X64300500Y-77366902D01*
X64263553Y-77133631D01*
X64213119Y-76978414D01*
X64190568Y-76909008D01*
X64190566Y-76909005D01*
X64190566Y-76909003D01*
X64123989Y-76778340D01*
X64083343Y-76698567D01*
X63944517Y-76507490D01*
X63777510Y-76340483D01*
X63742872Y-76315317D01*
X63700207Y-76259989D01*
X63694228Y-76190375D01*
X63726833Y-76128580D01*
X63742873Y-76114682D01*
X63777510Y-76089517D01*
X63944517Y-75922510D01*
X64083343Y-75731433D01*
X64190568Y-75520992D01*
X64263553Y-75296368D01*
X64273512Y-75233489D01*
X64300500Y-75063097D01*
X64300500Y-74826902D01*
X64263553Y-74593631D01*
X64223896Y-74471580D01*
X64190568Y-74369008D01*
X64190566Y-74369005D01*
X64190566Y-74369003D01*
X64119873Y-74230261D01*
X64083343Y-74158567D01*
X63944517Y-73967490D01*
X63777510Y-73800483D01*
X63742872Y-73775317D01*
X63700207Y-73719989D01*
X63694228Y-73650375D01*
X63726833Y-73588580D01*
X63742873Y-73574682D01*
X63777510Y-73549517D01*
X63944517Y-73382510D01*
X64083343Y-73191433D01*
X64190568Y-72980992D01*
X64263553Y-72756368D01*
X64281270Y-72644508D01*
X64300500Y-72523097D01*
X64300500Y-72286902D01*
X64263553Y-72053631D01*
X64229689Y-71949412D01*
X64190568Y-71829008D01*
X64190566Y-71829005D01*
X64190566Y-71829003D01*
X64128120Y-71706446D01*
X64083343Y-71618567D01*
X63944517Y-71427490D01*
X63777510Y-71260483D01*
X63742872Y-71235317D01*
X63700207Y-71179989D01*
X63694228Y-71110375D01*
X63726833Y-71048580D01*
X63742873Y-71034682D01*
X63777510Y-71009517D01*
X63944517Y-70842510D01*
X64083343Y-70651433D01*
X64190568Y-70440992D01*
X64263553Y-70216368D01*
X64266225Y-70199500D01*
X64300500Y-69983097D01*
X64300500Y-69746902D01*
X64263553Y-69513631D01*
X64229689Y-69409412D01*
X64190568Y-69289008D01*
X64190566Y-69289005D01*
X64190566Y-69289003D01*
X64110602Y-69132066D01*
X64083343Y-69078567D01*
X63944517Y-68887490D01*
X63777510Y-68720483D01*
X63742872Y-68695317D01*
X63700207Y-68639989D01*
X63694228Y-68570375D01*
X63726833Y-68508580D01*
X63742873Y-68494682D01*
X63777510Y-68469517D01*
X63944517Y-68302510D01*
X64083343Y-68111433D01*
X64190568Y-67900992D01*
X64263553Y-67676368D01*
X64288018Y-67521903D01*
X64300500Y-67443097D01*
X64300500Y-67206902D01*
X64263553Y-66973631D01*
X64229209Y-66867931D01*
X64190568Y-66749008D01*
X64190566Y-66749005D01*
X64190566Y-66749003D01*
X64119687Y-66609897D01*
X64083343Y-66538567D01*
X63944517Y-66347490D01*
X63777510Y-66180483D01*
X63742872Y-66155317D01*
X63700207Y-66099989D01*
X63694228Y-66030375D01*
X63726833Y-65968580D01*
X63742873Y-65954682D01*
X63777510Y-65929517D01*
X63944517Y-65762510D01*
X64083343Y-65571433D01*
X64190568Y-65360992D01*
X64263553Y-65136368D01*
X64273718Y-65072187D01*
X64300500Y-64903097D01*
X64300500Y-64666902D01*
X64263553Y-64433631D01*
X64190566Y-64209003D01*
X64083342Y-63998566D01*
X64027414Y-63921588D01*
X63944517Y-63807490D01*
X63777510Y-63640483D01*
X63742872Y-63615317D01*
X63700207Y-63559989D01*
X63694228Y-63490375D01*
X63726833Y-63428580D01*
X63742873Y-63414682D01*
X63777510Y-63389517D01*
X63944517Y-63222510D01*
X64083343Y-63031433D01*
X64190568Y-62820992D01*
X64263553Y-62596368D01*
X64300500Y-62363097D01*
X64300500Y-62126902D01*
X64263553Y-61893631D01*
X64190566Y-61669003D01*
X64117098Y-61524815D01*
X64083343Y-61458567D01*
X63944517Y-61267490D01*
X63777510Y-61100483D01*
X63742872Y-61075317D01*
X63700207Y-61019989D01*
X63694228Y-60950375D01*
X63726833Y-60888580D01*
X63742873Y-60874682D01*
X63777510Y-60849517D01*
X63944517Y-60682510D01*
X64083343Y-60491433D01*
X64190568Y-60280992D01*
X64263553Y-60056368D01*
X64271873Y-60003837D01*
X64300500Y-59823097D01*
X64300500Y-59586902D01*
X64263553Y-59353631D01*
X64229689Y-59249412D01*
X64190568Y-59129008D01*
X64190566Y-59129005D01*
X64190566Y-59129003D01*
X64116346Y-58983340D01*
X64083343Y-58918567D01*
X63944517Y-58727490D01*
X63777510Y-58560483D01*
X63659601Y-58474816D01*
X63616937Y-58419488D01*
X63610958Y-58349874D01*
X63643564Y-58288079D01*
X63704403Y-58253722D01*
X63732488Y-58250500D01*
X76387770Y-58250500D01*
X76454809Y-58270185D01*
X76475451Y-58286819D01*
X78713181Y-60524548D01*
X78746666Y-60585871D01*
X78749500Y-60612229D01*
X78749500Y-68073918D01*
X78749500Y-68073920D01*
X78749499Y-68073920D01*
X78778340Y-68218907D01*
X78778343Y-68218917D01*
X78834913Y-68355490D01*
X78834914Y-68355491D01*
X78834916Y-68355495D01*
X78838249Y-68360483D01*
X78840932Y-68364498D01*
X78840933Y-68364501D01*
X78917046Y-68478414D01*
X78917052Y-68478421D01*
X80782049Y-70343416D01*
X80855681Y-70417048D01*
X80886585Y-70447952D01*
X81009498Y-70530080D01*
X81009511Y-70530087D01*
X81146082Y-70586656D01*
X81146087Y-70586658D01*
X81146091Y-70586658D01*
X81146092Y-70586659D01*
X81291079Y-70615500D01*
X81291082Y-70615500D01*
X86827369Y-70615500D01*
X86894408Y-70635185D01*
X86927685Y-70666613D01*
X87055483Y-70842510D01*
X87222490Y-71009517D01*
X87257127Y-71034683D01*
X87299792Y-71090013D01*
X87305771Y-71159626D01*
X87273165Y-71221421D01*
X87257130Y-71235315D01*
X87239365Y-71248222D01*
X87222488Y-71260484D01*
X87055485Y-71427487D01*
X87055485Y-71427488D01*
X87055483Y-71427490D01*
X86995862Y-71509550D01*
X86916657Y-71618566D01*
X86809433Y-71829003D01*
X86736446Y-72053631D01*
X86699500Y-72286902D01*
X86699500Y-72523097D01*
X86736446Y-72756368D01*
X86809433Y-72980996D01*
X86916657Y-73191433D01*
X87055483Y-73382510D01*
X87222490Y-73549517D01*
X87257127Y-73574683D01*
X87299792Y-73630013D01*
X87305771Y-73699626D01*
X87273165Y-73761421D01*
X87257130Y-73775315D01*
X87239365Y-73788222D01*
X87222488Y-73800484D01*
X87055485Y-73967487D01*
X87055485Y-73967488D01*
X87055483Y-73967490D01*
X86995862Y-74049550D01*
X86916657Y-74158566D01*
X86809433Y-74369003D01*
X86736446Y-74593631D01*
X86699500Y-74826902D01*
X86699500Y-75063097D01*
X86736446Y-75296368D01*
X86809433Y-75520996D01*
X86910419Y-75719191D01*
X86916657Y-75731433D01*
X87055483Y-75922510D01*
X87222490Y-76089517D01*
X87257127Y-76114683D01*
X87299792Y-76170013D01*
X87305771Y-76239626D01*
X87273165Y-76301421D01*
X87257130Y-76315315D01*
X87246568Y-76322989D01*
X87222488Y-76340484D01*
X87055485Y-76507487D01*
X87055485Y-76507488D01*
X87055483Y-76507490D01*
X87007220Y-76573918D01*
X86916657Y-76698566D01*
X86809433Y-76909003D01*
X86736446Y-77133631D01*
X86699500Y-77366902D01*
X86699500Y-77603097D01*
X86736446Y-77836368D01*
X86809433Y-78060996D01*
X86911701Y-78261706D01*
X86916657Y-78271433D01*
X87055483Y-78462510D01*
X87222490Y-78629517D01*
X87257127Y-78654683D01*
X87299792Y-78710013D01*
X87305771Y-78779626D01*
X87273165Y-78841421D01*
X87257130Y-78855315D01*
X87239365Y-78868222D01*
X87222488Y-78880484D01*
X87055485Y-79047487D01*
X87055485Y-79047488D01*
X87055483Y-79047490D01*
X86995862Y-79129550D01*
X86916657Y-79238566D01*
X86809433Y-79449003D01*
X86736446Y-79673631D01*
X86699500Y-79906902D01*
X86699500Y-80143097D01*
X86736446Y-80376368D01*
X86809433Y-80600996D01*
X86916657Y-80811433D01*
X87055483Y-81002510D01*
X87222490Y-81169517D01*
X87257127Y-81194683D01*
X87299792Y-81250013D01*
X87305771Y-81319626D01*
X87273165Y-81381421D01*
X87257130Y-81395315D01*
X87239365Y-81408222D01*
X87222488Y-81420484D01*
X87055485Y-81587487D01*
X87055485Y-81587488D01*
X87055483Y-81587490D01*
X86995862Y-81669550D01*
X86916657Y-81778566D01*
X86809433Y-81989003D01*
X86736446Y-82213631D01*
X86699500Y-82446902D01*
X86699500Y-82683097D01*
X86736446Y-82916368D01*
X86809433Y-83140996D01*
X86880811Y-83281082D01*
X86916657Y-83351433D01*
X87055483Y-83542510D01*
X87222490Y-83709517D01*
X87257127Y-83734683D01*
X87299792Y-83790013D01*
X87305771Y-83859626D01*
X87273165Y-83921421D01*
X87257130Y-83935315D01*
X87239365Y-83948222D01*
X87222488Y-83960484D01*
X87055485Y-84127487D01*
X87055485Y-84127488D01*
X87055483Y-84127490D01*
X87043139Y-84144480D01*
X86916657Y-84318566D01*
X86809433Y-84529003D01*
X86736446Y-84753631D01*
X86699500Y-84986902D01*
X86699500Y-85223097D01*
X86736446Y-85456368D01*
X86809433Y-85680996D01*
X86916657Y-85891433D01*
X87055483Y-86082510D01*
X87222490Y-86249517D01*
X87257127Y-86274683D01*
X87299792Y-86330013D01*
X87305771Y-86399626D01*
X87273165Y-86461421D01*
X87257130Y-86475315D01*
X87239365Y-86488222D01*
X87222488Y-86500484D01*
X87055485Y-86667487D01*
X87055485Y-86667488D01*
X87055483Y-86667490D01*
X86995862Y-86749550D01*
X86916657Y-86858566D01*
X86809433Y-87069003D01*
X86736446Y-87293631D01*
X86699500Y-87526902D01*
X86699500Y-87763097D01*
X86736446Y-87996368D01*
X86809433Y-88220996D01*
X86916657Y-88431433D01*
X87055483Y-88622510D01*
X87222490Y-88789517D01*
X87257127Y-88814683D01*
X87299792Y-88870013D01*
X87305771Y-88939626D01*
X87273165Y-89001421D01*
X87257130Y-89015315D01*
X87239365Y-89028222D01*
X87222488Y-89040484D01*
X87055485Y-89207487D01*
X87055485Y-89207488D01*
X87055483Y-89207490D01*
X86995862Y-89289550D01*
X86916657Y-89398566D01*
X86809433Y-89609003D01*
X86736446Y-89833631D01*
X86699500Y-90066902D01*
X86699500Y-90303097D01*
X86736446Y-90536368D01*
X86809433Y-90760996D01*
X86892333Y-90923694D01*
X86916657Y-90971433D01*
X87055483Y-91162510D01*
X87222490Y-91329517D01*
X87281716Y-91372547D01*
X87324381Y-91427875D01*
X87332448Y-91482593D01*
X87330893Y-91502340D01*
X88062425Y-92233871D01*
X88003147Y-92249755D01*
X87886853Y-92316898D01*
X87791898Y-92411853D01*
X87724755Y-92528147D01*
X87708871Y-92587425D01*
X86977340Y-91855894D01*
X86917084Y-91938830D01*
X86809897Y-92149197D01*
X86736934Y-92373752D01*
X86700000Y-92606947D01*
X86700000Y-92843052D01*
X86736934Y-93076247D01*
X86809897Y-93300802D01*
X86917087Y-93511174D01*
X87007035Y-93634978D01*
X87030515Y-93700784D01*
X87014689Y-93768838D01*
X86965359Y-93816779D01*
X86965454Y-93816953D01*
X86964830Y-93817293D01*
X86964584Y-93817533D01*
X86963511Y-93818013D01*
X86957664Y-93821206D01*
X86842455Y-93907452D01*
X86842452Y-93907455D01*
X86756206Y-94022664D01*
X86756202Y-94022671D01*
X86705908Y-94157517D01*
X86699501Y-94217116D01*
X86699500Y-94217135D01*
X86699500Y-96312870D01*
X86699501Y-96312876D01*
X86705908Y-96372483D01*
X86756202Y-96507328D01*
X86756206Y-96507335D01*
X86842452Y-96622544D01*
X86842455Y-96622547D01*
X86957664Y-96708793D01*
X86957671Y-96708797D01*
X87092517Y-96759091D01*
X87092516Y-96759091D01*
X87099444Y-96759835D01*
X87152127Y-96765500D01*
X89247872Y-96765499D01*
X89307483Y-96759091D01*
X89442331Y-96708796D01*
X89557546Y-96622546D01*
X89643796Y-96507331D01*
X89694091Y-96372483D01*
X89700500Y-96312873D01*
X89700499Y-94877228D01*
X89720184Y-94810190D01*
X89736813Y-94789553D01*
X96582952Y-87943416D01*
X96632186Y-87869729D01*
X96665084Y-87820495D01*
X96721658Y-87683913D01*
X96750500Y-87538918D01*
X96750500Y-78374500D01*
X96770185Y-78307461D01*
X96822989Y-78261706D01*
X96874500Y-78250500D01*
X97318059Y-78250500D01*
X97385098Y-78270185D01*
X97430853Y-78322989D01*
X97440797Y-78392147D01*
X97411772Y-78455703D01*
X97405740Y-78462181D01*
X97378213Y-78489707D01*
X97378210Y-78489711D01*
X97290609Y-78620814D01*
X97290602Y-78620827D01*
X97230264Y-78766498D01*
X97230261Y-78766510D01*
X97199500Y-78921153D01*
X97199500Y-79078846D01*
X97230261Y-79233489D01*
X97230264Y-79233501D01*
X97290602Y-79379172D01*
X97290609Y-79379185D01*
X97378210Y-79510288D01*
X97378213Y-79510292D01*
X97489707Y-79621786D01*
X97489711Y-79621789D01*
X97620814Y-79709390D01*
X97620827Y-79709397D01*
X97708776Y-79745826D01*
X97766503Y-79769737D01*
X97921153Y-79800499D01*
X97921156Y-79800500D01*
X97921158Y-79800500D01*
X98078844Y-79800500D01*
X98078845Y-79800499D01*
X98155152Y-79785320D01*
X98233488Y-79769739D01*
X98233489Y-79769738D01*
X98233497Y-79769737D01*
X98257155Y-79759937D01*
X98304604Y-79750500D01*
X101637770Y-79750500D01*
X101704809Y-79770185D01*
X101725451Y-79786819D01*
X102213181Y-80274548D01*
X102246666Y-80335871D01*
X102249500Y-80362229D01*
X102249500Y-84573918D01*
X102249500Y-84573920D01*
X102249499Y-84573920D01*
X102278340Y-84718907D01*
X102278343Y-84718917D01*
X102334912Y-84855488D01*
X102334919Y-84855501D01*
X102342123Y-84866281D01*
X102342125Y-84866287D01*
X102342126Y-84866287D01*
X102417046Y-84978414D01*
X102417052Y-84978421D01*
X104417049Y-86978416D01*
X104507636Y-87069003D01*
X104521585Y-87082952D01*
X104644498Y-87165080D01*
X104644511Y-87165087D01*
X104781082Y-87221656D01*
X104781087Y-87221658D01*
X104781091Y-87221658D01*
X104781092Y-87221659D01*
X104926079Y-87250500D01*
X104926082Y-87250500D01*
X108073920Y-87250500D01*
X108171462Y-87231096D01*
X108218913Y-87221658D01*
X108355495Y-87165084D01*
X108404729Y-87132186D01*
X108478416Y-87082952D01*
X110082951Y-85478416D01*
X110165084Y-85355495D01*
X110221658Y-85218913D01*
X110250038Y-85076243D01*
X110250500Y-85073920D01*
X110250500Y-83426079D01*
X110221659Y-83281092D01*
X110221658Y-83281091D01*
X110221658Y-83281087D01*
X110208827Y-83250109D01*
X110165086Y-83144509D01*
X110165085Y-83144507D01*
X110162736Y-83140992D01*
X110132186Y-83095270D01*
X110084513Y-83023920D01*
X128249499Y-83023920D01*
X128278340Y-83168907D01*
X128278343Y-83168917D01*
X128334912Y-83305488D01*
X128334919Y-83305501D01*
X128417048Y-83428415D01*
X128417051Y-83428419D01*
X128521580Y-83532948D01*
X128521584Y-83532951D01*
X128644498Y-83615080D01*
X128644511Y-83615087D01*
X128709988Y-83642208D01*
X128781087Y-83671658D01*
X128781091Y-83671658D01*
X128781092Y-83671659D01*
X128926079Y-83700500D01*
X128926082Y-83700500D01*
X129073920Y-83700500D01*
X129171462Y-83681096D01*
X129218913Y-83671658D01*
X129355495Y-83615084D01*
X129478416Y-83532951D01*
X129582951Y-83428416D01*
X129665084Y-83305495D01*
X129721658Y-83168913D01*
X129750500Y-83023918D01*
X129750500Y-82876082D01*
X129750500Y-82876079D01*
X129721659Y-82731092D01*
X129721658Y-82731091D01*
X129721658Y-82731087D01*
X129695221Y-82667262D01*
X129665087Y-82594511D01*
X129665080Y-82594498D01*
X129582951Y-82471584D01*
X129582948Y-82471580D01*
X129478419Y-82367051D01*
X129478415Y-82367048D01*
X129355501Y-82284919D01*
X129355488Y-82284912D01*
X129218917Y-82228343D01*
X129218907Y-82228340D01*
X129073920Y-82199500D01*
X129073918Y-82199500D01*
X128926082Y-82199500D01*
X128926080Y-82199500D01*
X128781092Y-82228340D01*
X128781082Y-82228343D01*
X128644511Y-82284912D01*
X128644498Y-82284919D01*
X128521584Y-82367048D01*
X128521580Y-82367051D01*
X128417051Y-82471580D01*
X128417048Y-82471584D01*
X128334919Y-82594498D01*
X128334912Y-82594511D01*
X128278343Y-82731082D01*
X128278340Y-82731092D01*
X128249500Y-82876079D01*
X128249500Y-82876082D01*
X128249500Y-83023918D01*
X128249500Y-83023920D01*
X128249499Y-83023920D01*
X110084513Y-83023920D01*
X110082952Y-83021584D01*
X109746071Y-82684703D01*
X109719191Y-82644475D01*
X109709394Y-82620821D01*
X109652878Y-82536239D01*
X109621789Y-82489710D01*
X109510292Y-82378213D01*
X109510288Y-82378210D01*
X109379185Y-82290609D01*
X109379172Y-82290602D01*
X109233501Y-82230264D01*
X109233489Y-82230261D01*
X109078845Y-82199500D01*
X109078842Y-82199500D01*
X108921158Y-82199500D01*
X108921155Y-82199500D01*
X108766510Y-82230261D01*
X108766498Y-82230264D01*
X108620827Y-82290602D01*
X108620814Y-82290609D01*
X108489711Y-82378210D01*
X108489707Y-82378213D01*
X108378213Y-82489707D01*
X108378210Y-82489711D01*
X108290609Y-82620814D01*
X108290602Y-82620827D01*
X108230264Y-82766498D01*
X108230261Y-82766510D01*
X108199500Y-82921153D01*
X108199500Y-83078846D01*
X108230261Y-83233489D01*
X108230264Y-83233501D01*
X108290602Y-83379172D01*
X108290609Y-83379185D01*
X108378210Y-83510288D01*
X108378213Y-83510292D01*
X108379114Y-83511193D01*
X108379435Y-83511780D01*
X108382076Y-83514999D01*
X108381465Y-83515499D01*
X108412599Y-83572516D01*
X108407615Y-83642208D01*
X108365743Y-83698141D01*
X108315626Y-83720491D01*
X108266507Y-83730261D01*
X108266498Y-83730264D01*
X108120827Y-83790602D01*
X108120814Y-83790609D01*
X107989711Y-83878210D01*
X107989707Y-83878213D01*
X107878213Y-83989707D01*
X107878207Y-83989715D01*
X107790607Y-84120818D01*
X107790606Y-84120819D01*
X107780805Y-84144480D01*
X107753927Y-84184703D01*
X107225451Y-84713181D01*
X107164128Y-84746666D01*
X107137770Y-84749500D01*
X105862229Y-84749500D01*
X105795190Y-84729815D01*
X105774548Y-84713181D01*
X104786819Y-83725451D01*
X104753334Y-83664128D01*
X104750500Y-83637770D01*
X104750500Y-78554604D01*
X104759939Y-78507151D01*
X104769737Y-78483497D01*
X104800500Y-78328842D01*
X104800500Y-78171158D01*
X104800500Y-78171155D01*
X104800499Y-78171153D01*
X104782955Y-78082954D01*
X104769737Y-78016503D01*
X104732284Y-77926082D01*
X104709397Y-77870827D01*
X104709390Y-77870814D01*
X104621789Y-77739711D01*
X104621786Y-77739707D01*
X104510292Y-77628213D01*
X104510288Y-77628210D01*
X104379185Y-77540609D01*
X104379172Y-77540602D01*
X104233501Y-77480264D01*
X104233489Y-77480261D01*
X104078845Y-77449500D01*
X104078842Y-77449500D01*
X103921158Y-77449500D01*
X103921155Y-77449500D01*
X103766510Y-77480261D01*
X103766498Y-77480264D01*
X103620827Y-77540602D01*
X103620814Y-77540609D01*
X103489711Y-77628210D01*
X103489707Y-77628213D01*
X103378213Y-77739707D01*
X103378210Y-77739711D01*
X103290609Y-77870814D01*
X103290602Y-77870827D01*
X103230264Y-78016498D01*
X103230261Y-78016510D01*
X103199500Y-78171153D01*
X103199500Y-78328846D01*
X103230261Y-78483489D01*
X103230263Y-78483497D01*
X103240061Y-78507151D01*
X103249500Y-78554604D01*
X103249500Y-78888769D01*
X103229815Y-78955808D01*
X103177011Y-79001563D01*
X103107853Y-79011507D01*
X103044297Y-78982482D01*
X103037819Y-78976450D01*
X102478421Y-78417052D01*
X102478414Y-78417046D01*
X102404730Y-78367813D01*
X102404730Y-78367814D01*
X102404729Y-78367813D01*
X102382712Y-78353101D01*
X102361672Y-78327927D01*
X102339748Y-78303521D01*
X102339380Y-78301253D01*
X102337908Y-78299492D01*
X102333818Y-78266936D01*
X102328569Y-78234551D01*
X102329485Y-78232445D01*
X102329199Y-78230167D01*
X102343357Y-78200572D01*
X102356452Y-78170487D01*
X102358730Y-78168440D01*
X102359353Y-78167139D01*
X102382703Y-78146903D01*
X102409265Y-78129156D01*
X102478416Y-78082952D01*
X104274548Y-76286818D01*
X104335871Y-76253334D01*
X104362229Y-76250500D01*
X107125500Y-76250500D01*
X107192539Y-76270185D01*
X107238294Y-76322989D01*
X107249500Y-76374500D01*
X107249500Y-76573918D01*
X107249500Y-76573920D01*
X107249499Y-76573920D01*
X107278340Y-76718907D01*
X107278343Y-76718917D01*
X107334914Y-76855492D01*
X107367812Y-76904727D01*
X107367813Y-76904730D01*
X107417046Y-76978414D01*
X107417052Y-76978421D01*
X108417049Y-77978416D01*
X108521584Y-78082951D01*
X108521587Y-78082953D01*
X108521588Y-78082954D01*
X108644494Y-78165077D01*
X108644496Y-78165078D01*
X108644505Y-78165084D01*
X108671055Y-78176081D01*
X108671056Y-78176082D01*
X108671057Y-78176082D01*
X108781088Y-78221659D01*
X108897241Y-78244763D01*
X108916468Y-78248587D01*
X108926081Y-78250500D01*
X108926082Y-78250500D01*
X108926083Y-78250500D01*
X109073918Y-78250500D01*
X112625500Y-78250500D01*
X112692539Y-78270185D01*
X112738294Y-78322989D01*
X112749500Y-78374500D01*
X112749500Y-79195396D01*
X112740062Y-79242844D01*
X112730263Y-79266503D01*
X112730262Y-79266506D01*
X112730260Y-79266511D01*
X112699500Y-79421153D01*
X112699500Y-79578846D01*
X112730261Y-79733489D01*
X112730264Y-79733501D01*
X112790602Y-79879172D01*
X112790609Y-79879185D01*
X112878210Y-80010288D01*
X112878213Y-80010292D01*
X112989707Y-80121786D01*
X112989711Y-80121789D01*
X113120814Y-80209390D01*
X113120827Y-80209397D01*
X113266498Y-80269735D01*
X113266503Y-80269737D01*
X113421153Y-80300499D01*
X113421156Y-80300500D01*
X113421158Y-80300500D01*
X113578844Y-80300500D01*
X113578845Y-80300499D01*
X113733497Y-80269737D01*
X113879179Y-80209394D01*
X114010289Y-80121789D01*
X114121789Y-80010289D01*
X114209394Y-79879179D01*
X114269737Y-79733497D01*
X114300500Y-79578842D01*
X114300500Y-79421158D01*
X114300500Y-79421155D01*
X114300499Y-79421153D01*
X114269739Y-79266511D01*
X114269738Y-79266508D01*
X114269737Y-79266503D01*
X114259937Y-79242844D01*
X114250500Y-79195396D01*
X114250500Y-77926079D01*
X114221659Y-77781092D01*
X114221658Y-77781091D01*
X114221658Y-77781087D01*
X114170764Y-77658217D01*
X114165087Y-77644511D01*
X114165085Y-77644507D01*
X114165084Y-77644505D01*
X114125268Y-77584916D01*
X114095662Y-77540606D01*
X114082956Y-77521589D01*
X114082952Y-77521584D01*
X113478421Y-76917052D01*
X113478414Y-76917046D01*
X113404729Y-76867812D01*
X113404729Y-76867813D01*
X113355491Y-76834913D01*
X113218917Y-76778343D01*
X113218907Y-76778340D01*
X113073920Y-76749500D01*
X113073918Y-76749500D01*
X109362229Y-76749500D01*
X109295190Y-76729815D01*
X109274548Y-76713181D01*
X109023549Y-76462181D01*
X108990064Y-76400858D01*
X108995048Y-76331166D01*
X109036920Y-76275233D01*
X109102384Y-76250816D01*
X109111230Y-76250500D01*
X110195396Y-76250500D01*
X110242844Y-76259937D01*
X110266503Y-76269737D01*
X110266508Y-76269738D01*
X110266511Y-76269739D01*
X110421153Y-76300499D01*
X110421156Y-76300500D01*
X110421158Y-76300500D01*
X110578844Y-76300500D01*
X110578845Y-76300499D01*
X110733497Y-76269737D01*
X110879179Y-76209394D01*
X111010289Y-76121789D01*
X111121789Y-76010289D01*
X111209394Y-75879179D01*
X111269737Y-75733497D01*
X111300500Y-75578842D01*
X111300500Y-75421158D01*
X111300500Y-75421155D01*
X111300499Y-75421153D01*
X111288676Y-75361716D01*
X111269737Y-75266503D01*
X111229316Y-75168917D01*
X111209397Y-75120827D01*
X111209390Y-75120814D01*
X111144647Y-75023920D01*
X128249499Y-75023920D01*
X128278340Y-75168907D01*
X128278343Y-75168917D01*
X128334912Y-75305488D01*
X128334919Y-75305501D01*
X128417048Y-75428415D01*
X128417051Y-75428419D01*
X128521580Y-75532948D01*
X128521584Y-75532951D01*
X128644498Y-75615080D01*
X128644511Y-75615087D01*
X128715548Y-75644511D01*
X128781087Y-75671658D01*
X128781091Y-75671658D01*
X128781092Y-75671659D01*
X128926079Y-75700500D01*
X128926082Y-75700500D01*
X129073920Y-75700500D01*
X129171462Y-75681096D01*
X129218913Y-75671658D01*
X129355495Y-75615084D01*
X129478416Y-75532951D01*
X129582951Y-75428416D01*
X129665084Y-75305495D01*
X129721658Y-75168913D01*
X129750500Y-75023918D01*
X129750500Y-74876082D01*
X129750500Y-74876079D01*
X129721659Y-74731092D01*
X129721658Y-74731091D01*
X129721658Y-74731087D01*
X129721316Y-74730261D01*
X129665087Y-74594511D01*
X129665080Y-74594498D01*
X129582951Y-74471584D01*
X129582948Y-74471580D01*
X129478419Y-74367051D01*
X129478415Y-74367048D01*
X129355501Y-74284919D01*
X129355488Y-74284912D01*
X129218917Y-74228343D01*
X129218907Y-74228340D01*
X129073920Y-74199500D01*
X129073918Y-74199500D01*
X128926082Y-74199500D01*
X128926080Y-74199500D01*
X128781092Y-74228340D01*
X128781082Y-74228343D01*
X128644511Y-74284912D01*
X128644498Y-74284919D01*
X128521584Y-74367048D01*
X128521580Y-74367051D01*
X128417051Y-74471580D01*
X128417048Y-74471584D01*
X128334919Y-74594498D01*
X128334912Y-74594511D01*
X128278343Y-74731082D01*
X128278340Y-74731092D01*
X128249500Y-74876079D01*
X128249500Y-74876082D01*
X128249500Y-75023918D01*
X128249500Y-75023920D01*
X128249499Y-75023920D01*
X111144647Y-75023920D01*
X111121789Y-74989711D01*
X111121786Y-74989707D01*
X111010292Y-74878213D01*
X111010288Y-74878210D01*
X110879185Y-74790609D01*
X110879172Y-74790602D01*
X110733501Y-74730264D01*
X110733489Y-74730261D01*
X110578845Y-74699500D01*
X110578842Y-74699500D01*
X110421158Y-74699500D01*
X110421155Y-74699500D01*
X110266511Y-74730260D01*
X110266506Y-74730262D01*
X110266504Y-74730262D01*
X110266503Y-74730263D01*
X110242844Y-74740062D01*
X110195396Y-74749500D01*
X108874500Y-74749500D01*
X108807461Y-74729815D01*
X108761706Y-74677011D01*
X108750500Y-74625500D01*
X108750500Y-73362229D01*
X108770185Y-73295190D01*
X108786819Y-73274548D01*
X110274548Y-71786819D01*
X110335871Y-71753334D01*
X110362229Y-71750500D01*
X113695396Y-71750500D01*
X113742844Y-71759937D01*
X113766503Y-71769737D01*
X113766508Y-71769738D01*
X113766511Y-71769739D01*
X113921153Y-71800499D01*
X113921156Y-71800500D01*
X113921158Y-71800500D01*
X114078844Y-71800500D01*
X114078845Y-71800499D01*
X114233497Y-71769737D01*
X114379179Y-71709394D01*
X114510289Y-71621789D01*
X114621789Y-71510289D01*
X114709394Y-71379179D01*
X114769737Y-71233497D01*
X114800500Y-71078842D01*
X114800500Y-70921158D01*
X114800500Y-70921155D01*
X114800499Y-70921153D01*
X114769737Y-70766503D01*
X114749877Y-70718556D01*
X114709397Y-70620827D01*
X114709390Y-70620814D01*
X114621789Y-70489711D01*
X114621786Y-70489707D01*
X114510292Y-70378213D01*
X114510288Y-70378210D01*
X114379185Y-70290609D01*
X114379172Y-70290602D01*
X114233501Y-70230264D01*
X114233489Y-70230261D01*
X114078845Y-70199500D01*
X114078842Y-70199500D01*
X113921158Y-70199500D01*
X113921155Y-70199500D01*
X113766511Y-70230260D01*
X113766506Y-70230262D01*
X113766504Y-70230262D01*
X113766503Y-70230263D01*
X113742844Y-70240062D01*
X113695396Y-70249500D01*
X109926080Y-70249500D01*
X109781092Y-70278340D01*
X109781082Y-70278343D01*
X109644511Y-70334912D01*
X109644498Y-70334919D01*
X109521584Y-70417048D01*
X109521580Y-70417051D01*
X107417050Y-72521580D01*
X107417044Y-72521588D01*
X107367812Y-72595268D01*
X107367813Y-72595269D01*
X107334921Y-72644496D01*
X107334914Y-72644508D01*
X107278342Y-72781086D01*
X107278340Y-72781092D01*
X107249500Y-72926079D01*
X107249500Y-74625500D01*
X107229815Y-74692539D01*
X107177011Y-74738294D01*
X107125500Y-74749500D01*
X103926080Y-74749500D01*
X103781092Y-74778340D01*
X103781082Y-74778343D01*
X103644508Y-74834913D01*
X103521584Y-74917048D01*
X103521584Y-74917049D01*
X101725451Y-76713181D01*
X101664128Y-76746666D01*
X101637770Y-76749500D01*
X96874500Y-76749500D01*
X96807461Y-76729815D01*
X96761706Y-76677011D01*
X96750500Y-76625500D01*
X96750500Y-76362229D01*
X96770185Y-76295190D01*
X96786819Y-76274548D01*
X97036640Y-76024727D01*
X97315297Y-75746069D01*
X97355522Y-75719192D01*
X97379179Y-75709394D01*
X97510289Y-75621789D01*
X97621789Y-75510289D01*
X97709394Y-75379179D01*
X97769737Y-75233497D01*
X97800500Y-75078842D01*
X97800500Y-74921158D01*
X97800500Y-74921155D01*
X97800499Y-74921153D01*
X97783345Y-74834916D01*
X97769737Y-74766503D01*
X97758053Y-74738294D01*
X97709397Y-74620827D01*
X97709390Y-74620814D01*
X97621789Y-74489711D01*
X97621786Y-74489707D01*
X97510292Y-74378213D01*
X97510288Y-74378210D01*
X97379185Y-74290609D01*
X97379172Y-74290602D01*
X97233501Y-74230264D01*
X97233489Y-74230261D01*
X97078845Y-74199500D01*
X97078842Y-74199500D01*
X96921158Y-74199500D01*
X96921155Y-74199500D01*
X96766510Y-74230261D01*
X96766498Y-74230264D01*
X96620827Y-74290602D01*
X96620814Y-74290609D01*
X96489711Y-74378210D01*
X96489707Y-74378213D01*
X96378213Y-74489707D01*
X96378207Y-74489715D01*
X96290607Y-74620818D01*
X96290606Y-74620819D01*
X96280805Y-74644480D01*
X96253927Y-74684703D01*
X95417048Y-75521583D01*
X95409455Y-75532948D01*
X95376045Y-75582951D01*
X95334919Y-75644499D01*
X95334912Y-75644511D01*
X95278343Y-75781082D01*
X95278340Y-75781092D01*
X95249500Y-75926079D01*
X95249500Y-87102769D01*
X95229815Y-87169808D01*
X95213181Y-87190450D01*
X89885303Y-92518327D01*
X89823980Y-92551812D01*
X89754288Y-92546828D01*
X89698355Y-92504956D01*
X89675149Y-92450044D01*
X89663065Y-92373752D01*
X89590102Y-92149197D01*
X89482914Y-91938828D01*
X89422658Y-91855894D01*
X89422658Y-91855893D01*
X88691127Y-92587423D01*
X88675245Y-92528147D01*
X88608102Y-92411853D01*
X88513147Y-92316898D01*
X88396853Y-92249755D01*
X88337574Y-92233871D01*
X89069105Y-91502340D01*
X89067551Y-91482594D01*
X89081915Y-91414216D01*
X89118284Y-91372547D01*
X89177510Y-91329517D01*
X89344517Y-91162510D01*
X89483343Y-90971433D01*
X89590568Y-90760992D01*
X89663553Y-90536368D01*
X89682063Y-90419500D01*
X89700500Y-90303097D01*
X89700500Y-90066902D01*
X89663553Y-89833631D01*
X89629689Y-89729412D01*
X89590568Y-89609008D01*
X89590566Y-89609005D01*
X89590566Y-89609003D01*
X89483342Y-89398566D01*
X89427414Y-89321588D01*
X89344517Y-89207490D01*
X89177510Y-89040483D01*
X89142872Y-89015317D01*
X89100207Y-88959989D01*
X89094228Y-88890375D01*
X89126833Y-88828580D01*
X89142873Y-88814682D01*
X89177510Y-88789517D01*
X89344517Y-88622510D01*
X89483343Y-88431433D01*
X89590568Y-88220992D01*
X89663553Y-87996368D01*
X89671940Y-87943416D01*
X89700500Y-87763097D01*
X89700500Y-87526902D01*
X89663553Y-87293631D01*
X89621784Y-87165080D01*
X89590568Y-87069008D01*
X89590566Y-87069005D01*
X89590566Y-87069003D01*
X89483342Y-86858566D01*
X89427414Y-86781588D01*
X89344517Y-86667490D01*
X89177510Y-86500483D01*
X89142872Y-86475317D01*
X89100207Y-86419989D01*
X89094228Y-86350375D01*
X89126833Y-86288580D01*
X89142873Y-86274682D01*
X89177510Y-86249517D01*
X89344517Y-86082510D01*
X89483343Y-85891433D01*
X89590568Y-85680992D01*
X89663553Y-85456368D01*
X89679531Y-85355488D01*
X89700500Y-85223097D01*
X89700500Y-84986902D01*
X89663553Y-84753631D01*
X89590566Y-84529003D01*
X89483342Y-84318566D01*
X89427414Y-84241588D01*
X89344517Y-84127490D01*
X89177510Y-83960483D01*
X89142872Y-83935317D01*
X89100207Y-83879989D01*
X89094228Y-83810375D01*
X89126833Y-83748580D01*
X89142873Y-83734682D01*
X89148954Y-83730264D01*
X89177510Y-83709517D01*
X89344517Y-83542510D01*
X89483343Y-83351433D01*
X89590568Y-83140992D01*
X89663553Y-82916368D01*
X89687288Y-82766510D01*
X89700500Y-82683097D01*
X89700500Y-82446902D01*
X89663553Y-82213631D01*
X89590566Y-81989003D01*
X89483342Y-81778566D01*
X89427414Y-81701588D01*
X89344517Y-81587490D01*
X89177510Y-81420483D01*
X89142872Y-81395317D01*
X89100207Y-81339989D01*
X89094228Y-81270375D01*
X89126833Y-81208580D01*
X89142873Y-81194682D01*
X89177510Y-81169517D01*
X89344517Y-81002510D01*
X89483343Y-80811433D01*
X89590568Y-80600992D01*
X89663553Y-80376368D01*
X89675569Y-80300500D01*
X89700500Y-80143097D01*
X89700500Y-79906902D01*
X89663553Y-79673631D01*
X89610479Y-79510288D01*
X89590568Y-79449008D01*
X89590566Y-79449005D01*
X89590566Y-79449003D01*
X89528120Y-79326446D01*
X89483343Y-79238567D01*
X89344517Y-79047490D01*
X89177510Y-78880483D01*
X89142872Y-78855317D01*
X89100207Y-78799989D01*
X89094228Y-78730375D01*
X89126833Y-78668580D01*
X89142873Y-78654682D01*
X89177510Y-78629517D01*
X89344517Y-78462510D01*
X89483343Y-78271433D01*
X89590568Y-78060992D01*
X89663553Y-77836368D01*
X89672309Y-77781087D01*
X89700500Y-77603097D01*
X89700500Y-77366902D01*
X89663553Y-77133631D01*
X89613119Y-76978414D01*
X89590568Y-76909008D01*
X89590566Y-76909005D01*
X89590566Y-76909003D01*
X89523989Y-76778340D01*
X89483343Y-76698567D01*
X89344517Y-76507490D01*
X89177510Y-76340483D01*
X89142872Y-76315317D01*
X89100207Y-76259989D01*
X89094228Y-76190375D01*
X89126833Y-76128580D01*
X89142873Y-76114682D01*
X89177510Y-76089517D01*
X89344517Y-75922510D01*
X89483343Y-75731433D01*
X89590568Y-75520992D01*
X89663553Y-75296368D01*
X89673512Y-75233489D01*
X89700500Y-75063097D01*
X89700500Y-74826902D01*
X89663553Y-74593631D01*
X89623896Y-74471580D01*
X89590568Y-74369008D01*
X89590566Y-74369005D01*
X89590566Y-74369003D01*
X89519873Y-74230261D01*
X89483343Y-74158567D01*
X89344517Y-73967490D01*
X89177510Y-73800483D01*
X89142872Y-73775317D01*
X89100207Y-73719989D01*
X89094228Y-73650375D01*
X89126833Y-73588580D01*
X89142873Y-73574682D01*
X89177510Y-73549517D01*
X89344517Y-73382510D01*
X89483343Y-73191433D01*
X89590568Y-72980992D01*
X89663553Y-72756368D01*
X89681270Y-72644508D01*
X89700500Y-72523097D01*
X89700500Y-72286902D01*
X89663553Y-72053631D01*
X89629689Y-71949412D01*
X89590568Y-71829008D01*
X89590566Y-71829005D01*
X89590566Y-71829003D01*
X89528120Y-71706446D01*
X89483343Y-71618567D01*
X89344517Y-71427490D01*
X89177510Y-71260483D01*
X89142872Y-71235317D01*
X89100207Y-71179989D01*
X89094228Y-71110375D01*
X89126833Y-71048580D01*
X89142873Y-71034682D01*
X89177510Y-71009517D01*
X89344517Y-70842510D01*
X89483343Y-70651433D01*
X89590568Y-70440992D01*
X89663553Y-70216368D01*
X89666225Y-70199500D01*
X89700500Y-69983097D01*
X89700500Y-69746902D01*
X89663553Y-69513631D01*
X89629689Y-69409412D01*
X89590568Y-69289008D01*
X89590566Y-69289005D01*
X89590566Y-69289003D01*
X89510602Y-69132066D01*
X89483343Y-69078567D01*
X89344517Y-68887490D01*
X89177510Y-68720483D01*
X89142872Y-68695317D01*
X89100207Y-68639989D01*
X89094228Y-68570375D01*
X89126833Y-68508580D01*
X89142873Y-68494682D01*
X89177510Y-68469517D01*
X89344517Y-68302510D01*
X89483343Y-68111433D01*
X89590568Y-67900992D01*
X89663553Y-67676368D01*
X89688018Y-67521903D01*
X89700500Y-67443097D01*
X89700500Y-67206902D01*
X89663553Y-66973631D01*
X89629209Y-66867931D01*
X89590568Y-66749008D01*
X89590566Y-66749005D01*
X89590566Y-66749003D01*
X89519687Y-66609897D01*
X89483343Y-66538567D01*
X89344517Y-66347490D01*
X89177510Y-66180483D01*
X89142872Y-66155317D01*
X89100207Y-66099989D01*
X89094228Y-66030375D01*
X89126833Y-65968580D01*
X89142873Y-65954682D01*
X89177510Y-65929517D01*
X89344517Y-65762510D01*
X89483343Y-65571433D01*
X89590568Y-65360992D01*
X89663553Y-65136368D01*
X89673718Y-65072187D01*
X89700500Y-64903097D01*
X89700500Y-64666902D01*
X89663553Y-64433631D01*
X89590566Y-64209003D01*
X89483342Y-63998566D01*
X89427414Y-63921588D01*
X89344517Y-63807490D01*
X89177510Y-63640483D01*
X89142872Y-63615317D01*
X89100207Y-63559989D01*
X89094228Y-63490375D01*
X89126833Y-63428580D01*
X89142873Y-63414682D01*
X89177510Y-63389517D01*
X89344517Y-63222510D01*
X89483343Y-63031433D01*
X89590568Y-62820992D01*
X89663553Y-62596368D01*
X89700500Y-62363097D01*
X89700500Y-62126902D01*
X89663553Y-61893631D01*
X89590566Y-61669003D01*
X89517098Y-61524815D01*
X89483343Y-61458567D01*
X89344517Y-61267490D01*
X89177510Y-61100483D01*
X89142872Y-61075317D01*
X89100207Y-61019989D01*
X89094228Y-60950375D01*
X89126833Y-60888580D01*
X89142873Y-60874682D01*
X89177510Y-60849517D01*
X89344517Y-60682510D01*
X89472313Y-60506613D01*
X89527643Y-60463949D01*
X89572631Y-60455500D01*
X91842770Y-60455500D01*
X91909809Y-60475185D01*
X91930451Y-60491819D01*
X93213181Y-61774548D01*
X93246666Y-61835871D01*
X93249500Y-61862229D01*
X93249500Y-78695396D01*
X93240062Y-78742844D01*
X93235028Y-78755000D01*
X93230262Y-78766506D01*
X93230260Y-78766511D01*
X93199500Y-78921153D01*
X93199500Y-79078846D01*
X93230261Y-79233489D01*
X93230264Y-79233501D01*
X93290602Y-79379172D01*
X93290609Y-79379185D01*
X93378210Y-79510288D01*
X93378213Y-79510292D01*
X93489707Y-79621786D01*
X93489711Y-79621789D01*
X93620814Y-79709390D01*
X93620827Y-79709397D01*
X93708776Y-79745826D01*
X93766503Y-79769737D01*
X93921153Y-79800499D01*
X93921156Y-79800500D01*
X93921158Y-79800500D01*
X94078844Y-79800500D01*
X94078845Y-79800499D01*
X94233497Y-79769737D01*
X94379179Y-79709394D01*
X94510289Y-79621789D01*
X94621789Y-79510289D01*
X94709394Y-79379179D01*
X94769737Y-79233497D01*
X94800500Y-79078842D01*
X94800500Y-78921158D01*
X94800500Y-78921155D01*
X94800499Y-78921153D01*
X94769739Y-78766511D01*
X94769738Y-78766508D01*
X94769737Y-78766503D01*
X94759937Y-78742844D01*
X94750500Y-78695396D01*
X94750500Y-66952135D01*
X97710414Y-66952135D01*
X97710414Y-69047870D01*
X97710415Y-69047876D01*
X97716822Y-69107483D01*
X97767116Y-69242328D01*
X97767120Y-69242335D01*
X97853366Y-69357544D01*
X97853369Y-69357547D01*
X97968578Y-69443793D01*
X97968585Y-69443797D01*
X98103431Y-69494091D01*
X98103430Y-69494091D01*
X98110358Y-69494835D01*
X98163041Y-69500500D01*
X100258786Y-69500499D01*
X100318397Y-69494091D01*
X100453245Y-69443796D01*
X100568460Y-69357546D01*
X100654710Y-69242331D01*
X100705005Y-69107483D01*
X100711414Y-69047873D01*
X100711413Y-67881947D01*
X118510914Y-67881947D01*
X118510914Y-68118052D01*
X118547848Y-68351247D01*
X118620811Y-68575802D01*
X118728001Y-68786174D01*
X118788252Y-68869104D01*
X118788254Y-68869105D01*
X119333335Y-68324024D01*
X119346273Y-68355258D01*
X119428351Y-68478097D01*
X119532817Y-68582563D01*
X119655656Y-68664641D01*
X119686888Y-68677578D01*
X119141807Y-69222658D01*
X119224742Y-69282914D01*
X119435111Y-69390102D01*
X119659666Y-69463065D01*
X119659665Y-69463065D01*
X119892862Y-69500000D01*
X120128966Y-69500000D01*
X120362161Y-69463065D01*
X120586716Y-69390102D01*
X120797077Y-69282918D01*
X120797083Y-69282914D01*
X120880018Y-69222658D01*
X120880019Y-69222658D01*
X120334938Y-68677578D01*
X120366172Y-68664641D01*
X120489011Y-68582563D01*
X120593477Y-68478097D01*
X120675555Y-68355258D01*
X120688492Y-68324024D01*
X121233572Y-68869105D01*
X121233572Y-68869104D01*
X121293828Y-68786169D01*
X121293832Y-68786163D01*
X121401016Y-68575802D01*
X121473979Y-68351247D01*
X121510914Y-68118052D01*
X121510914Y-67881947D01*
X121473979Y-67648752D01*
X121401016Y-67424197D01*
X121293828Y-67213828D01*
X121233572Y-67130894D01*
X121233572Y-67130893D01*
X120688491Y-67675974D01*
X120675555Y-67644742D01*
X120593477Y-67521903D01*
X120489011Y-67417437D01*
X120366172Y-67335359D01*
X120334938Y-67322421D01*
X120880019Y-66777340D01*
X120880018Y-66777338D01*
X120797088Y-66717087D01*
X120586716Y-66609897D01*
X120362161Y-66536934D01*
X120362162Y-66536934D01*
X120128966Y-66500000D01*
X119892862Y-66500000D01*
X119659666Y-66536934D01*
X119435111Y-66609897D01*
X119224744Y-66717084D01*
X119141808Y-66777340D01*
X119686889Y-67322421D01*
X119655656Y-67335359D01*
X119532817Y-67417437D01*
X119428351Y-67521903D01*
X119346273Y-67644742D01*
X119333335Y-67675975D01*
X118788254Y-67130894D01*
X118727998Y-67213830D01*
X118620811Y-67424197D01*
X118547848Y-67648752D01*
X118510914Y-67881947D01*
X100711413Y-67881947D01*
X100711413Y-66952128D01*
X100705005Y-66892517D01*
X100705004Y-66892514D01*
X100695836Y-66867931D01*
X100654711Y-66757671D01*
X100654707Y-66757664D01*
X100568461Y-66642455D01*
X100568458Y-66642452D01*
X100453249Y-66556206D01*
X100453242Y-66556202D01*
X100318396Y-66505908D01*
X100318397Y-66505908D01*
X100258797Y-66499501D01*
X100258795Y-66499500D01*
X100258787Y-66499500D01*
X100258778Y-66499500D01*
X98163043Y-66499500D01*
X98163037Y-66499501D01*
X98103430Y-66505908D01*
X97968585Y-66556202D01*
X97968578Y-66556206D01*
X97853369Y-66642452D01*
X97853366Y-66642455D01*
X97767120Y-66757664D01*
X97767116Y-66757671D01*
X97716822Y-66892517D01*
X97710415Y-66952116D01*
X97710415Y-66952123D01*
X97710414Y-66952135D01*
X94750500Y-66952135D01*
X94750500Y-64128713D01*
X128399500Y-64128713D01*
X128399500Y-64341286D01*
X128432753Y-64551239D01*
X128498444Y-64753414D01*
X128594951Y-64942820D01*
X128719890Y-65114786D01*
X128833430Y-65228326D01*
X128866915Y-65289649D01*
X128861931Y-65359341D01*
X128820059Y-65415274D01*
X128789083Y-65432189D01*
X128657669Y-65481203D01*
X128657664Y-65481206D01*
X128542455Y-65567452D01*
X128542452Y-65567455D01*
X128456206Y-65682664D01*
X128456202Y-65682671D01*
X128405908Y-65817517D01*
X128400833Y-65864727D01*
X128399501Y-65877123D01*
X128399500Y-65877135D01*
X128399500Y-67672870D01*
X128399501Y-67672876D01*
X128405908Y-67732483D01*
X128456202Y-67867328D01*
X128456206Y-67867335D01*
X128542452Y-67982544D01*
X128542455Y-67982547D01*
X128657664Y-68068793D01*
X128657671Y-68068797D01*
X128792517Y-68119091D01*
X128792516Y-68119091D01*
X128799444Y-68119835D01*
X128852127Y-68125500D01*
X130647872Y-68125499D01*
X130707483Y-68119091D01*
X130842331Y-68068796D01*
X130957546Y-67982546D01*
X131043796Y-67867331D01*
X131094091Y-67732483D01*
X131100500Y-67672873D01*
X131100499Y-65877128D01*
X131094936Y-65825376D01*
X131094091Y-65817516D01*
X131043797Y-65682671D01*
X131043793Y-65682664D01*
X130957547Y-65567455D01*
X130957544Y-65567452D01*
X130842335Y-65481206D01*
X130842328Y-65481202D01*
X130710917Y-65432189D01*
X130654983Y-65390318D01*
X130630566Y-65324853D01*
X130645418Y-65256580D01*
X130666563Y-65228332D01*
X130780104Y-65114792D01*
X130905051Y-64942816D01*
X131001557Y-64753412D01*
X131067246Y-64551243D01*
X131100500Y-64341287D01*
X131100500Y-64128713D01*
X131067246Y-63918757D01*
X131001557Y-63716588D01*
X130905051Y-63527184D01*
X130905049Y-63527181D01*
X130905048Y-63527179D01*
X130780109Y-63355213D01*
X130629786Y-63204890D01*
X130457820Y-63079951D01*
X130268414Y-62983444D01*
X130268413Y-62983443D01*
X130268412Y-62983443D01*
X130066243Y-62917754D01*
X130066241Y-62917753D01*
X130066240Y-62917753D01*
X129904957Y-62892208D01*
X129856287Y-62884500D01*
X129643713Y-62884500D01*
X129595042Y-62892208D01*
X129433760Y-62917753D01*
X129231585Y-62983444D01*
X129042179Y-63079951D01*
X128870213Y-63204890D01*
X128719890Y-63355213D01*
X128594951Y-63527179D01*
X128498444Y-63716585D01*
X128432753Y-63918760D01*
X128399500Y-64128713D01*
X94750500Y-64128713D01*
X94750500Y-61426079D01*
X94721659Y-61281092D01*
X94721658Y-61281091D01*
X94721658Y-61281087D01*
X94716025Y-61267487D01*
X94665087Y-61144511D01*
X94665080Y-61144498D01*
X94582952Y-61021585D01*
X94536367Y-60975000D01*
X94478416Y-60917049D01*
X94036552Y-60475185D01*
X92683421Y-59122052D01*
X92683414Y-59122046D01*
X92591816Y-59060843D01*
X92591815Y-59060843D01*
X92560500Y-59039919D01*
X92560488Y-59039912D01*
X92423917Y-58983343D01*
X92423907Y-58983340D01*
X92278920Y-58954500D01*
X92278918Y-58954500D01*
X89572631Y-58954500D01*
X89505592Y-58934815D01*
X89472313Y-58903386D01*
X89344517Y-58727490D01*
X89177510Y-58560483D01*
X88986433Y-58421657D01*
X88982176Y-58419488D01*
X88775996Y-58314433D01*
X88551368Y-58241446D01*
X88318097Y-58204500D01*
X88318092Y-58204500D01*
X88081908Y-58204500D01*
X88081903Y-58204500D01*
X87848631Y-58241446D01*
X87624003Y-58314433D01*
X87413566Y-58421657D01*
X87340397Y-58474818D01*
X87222490Y-58560483D01*
X87222488Y-58560485D01*
X87222487Y-58560485D01*
X87055485Y-58727487D01*
X87055485Y-58727488D01*
X87055483Y-58727490D01*
X86995862Y-58809550D01*
X86916657Y-58918566D01*
X86809433Y-59129003D01*
X86736446Y-59353631D01*
X86699500Y-59586902D01*
X86699500Y-59823097D01*
X86736446Y-60056368D01*
X86809433Y-60280996D01*
X86898348Y-60455500D01*
X86916657Y-60491433D01*
X87055483Y-60682510D01*
X87222490Y-60849517D01*
X87257127Y-60874683D01*
X87299792Y-60930013D01*
X87305771Y-60999626D01*
X87273165Y-61061421D01*
X87257130Y-61075315D01*
X87231966Y-61093598D01*
X87222487Y-61100485D01*
X87055485Y-61267487D01*
X87055485Y-61267488D01*
X87055483Y-61267490D01*
X87045601Y-61281092D01*
X86916657Y-61458566D01*
X86907368Y-61476797D01*
X86859392Y-61527592D01*
X86796884Y-61544500D01*
X85336519Y-61544500D01*
X85269480Y-61524815D01*
X85248838Y-61508181D01*
X79196546Y-55455888D01*
X79196545Y-55455887D01*
X79081807Y-55379222D01*
X78954332Y-55326421D01*
X78954322Y-55326418D01*
X78818996Y-55299500D01*
X78818994Y-55299500D01*
X78818993Y-55299500D01*
X60990519Y-55299500D01*
X60923480Y-55279815D01*
X60877725Y-55227011D01*
X60867781Y-55157853D01*
X60896806Y-55094297D01*
X60902838Y-55087819D01*
X63253838Y-52736819D01*
X63315161Y-52703334D01*
X63341519Y-52700500D01*
X102658481Y-52700500D01*
X102725520Y-52720185D01*
X102746162Y-52736819D01*
X103203928Y-53194585D01*
X103230808Y-53234814D01*
X103290602Y-53379172D01*
X103290609Y-53379185D01*
X103378210Y-53510288D01*
X103378213Y-53510292D01*
X103489707Y-53621786D01*
X103489711Y-53621789D01*
X103620814Y-53709390D01*
X103620827Y-53709397D01*
X103766498Y-53769735D01*
X103766503Y-53769737D01*
X103921153Y-53800499D01*
X103921156Y-53800500D01*
X103921158Y-53800500D01*
X104078844Y-53800500D01*
X104078845Y-53800499D01*
X104233497Y-53769737D01*
X104379179Y-53709394D01*
X104510289Y-53621789D01*
X104621789Y-53510289D01*
X104709394Y-53379179D01*
X104769737Y-53233497D01*
X104800500Y-53078842D01*
X104800500Y-52921158D01*
X104800500Y-52921155D01*
X104800499Y-52921153D01*
X104796336Y-52900223D01*
X104769737Y-52766503D01*
X104742398Y-52700500D01*
X104709397Y-52620827D01*
X104709390Y-52620814D01*
X104621789Y-52489711D01*
X104621786Y-52489707D01*
X104510292Y-52378213D01*
X104510288Y-52378210D01*
X104379185Y-52290609D01*
X104379172Y-52290602D01*
X104234814Y-52230808D01*
X104194585Y-52203928D01*
X103893500Y-51902843D01*
X103808863Y-51818206D01*
X122799500Y-51818206D01*
X122799500Y-52181794D01*
X122810217Y-52290602D01*
X122835137Y-52543630D01*
X122906064Y-52900212D01*
X122906067Y-52900223D01*
X123011614Y-53248165D01*
X123110000Y-53485690D01*
X123120189Y-53510289D01*
X123150754Y-53584078D01*
X123150756Y-53584083D01*
X123322140Y-53904720D01*
X123322151Y-53904738D01*
X123524140Y-54207035D01*
X123524150Y-54207049D01*
X123754807Y-54488106D01*
X124011893Y-54745192D01*
X124011898Y-54745196D01*
X124011899Y-54745197D01*
X124292956Y-54975854D01*
X124595268Y-55177853D01*
X124595277Y-55177858D01*
X124595279Y-55177859D01*
X124915916Y-55349243D01*
X124915918Y-55349243D01*
X124915924Y-55349247D01*
X125251836Y-55488386D01*
X125599767Y-55593930D01*
X125599773Y-55593931D01*
X125599776Y-55593932D01*
X125599787Y-55593935D01*
X125956369Y-55664862D01*
X126318206Y-55700500D01*
X126318209Y-55700500D01*
X126681791Y-55700500D01*
X126681794Y-55700500D01*
X127043631Y-55664862D01*
X127113045Y-55651054D01*
X127400212Y-55593935D01*
X127400223Y-55593932D01*
X127400223Y-55593931D01*
X127400233Y-55593930D01*
X127748164Y-55488386D01*
X128084076Y-55349247D01*
X128404732Y-55177853D01*
X128707044Y-54975854D01*
X128988101Y-54745197D01*
X129245197Y-54488101D01*
X129475854Y-54207044D01*
X129677853Y-53904732D01*
X129849247Y-53584076D01*
X129988386Y-53248164D01*
X130093930Y-52900233D01*
X130093932Y-52900223D01*
X130093935Y-52900212D01*
X130164862Y-52543630D01*
X130181154Y-52378213D01*
X130200500Y-52181794D01*
X130200500Y-51818206D01*
X130164862Y-51456369D01*
X130139014Y-51326420D01*
X130093935Y-51099787D01*
X130093932Y-51099776D01*
X130093931Y-51099773D01*
X130093930Y-51099767D01*
X129988386Y-50751836D01*
X129849247Y-50415924D01*
X129746187Y-50223113D01*
X129677859Y-50095279D01*
X129677858Y-50095277D01*
X129677853Y-50095268D01*
X129475854Y-49792956D01*
X129245197Y-49511899D01*
X129245196Y-49511898D01*
X129245192Y-49511893D01*
X128988106Y-49254807D01*
X128707049Y-49024150D01*
X128707048Y-49024149D01*
X128707044Y-49024146D01*
X128404732Y-48822147D01*
X128404727Y-48822144D01*
X128404720Y-48822140D01*
X128084083Y-48650756D01*
X128084078Y-48650754D01*
X127748165Y-48511614D01*
X127400223Y-48406067D01*
X127400212Y-48406064D01*
X127043630Y-48335137D01*
X126771111Y-48308296D01*
X126681794Y-48299500D01*
X126318206Y-48299500D01*
X126235679Y-48307628D01*
X125956369Y-48335137D01*
X125599787Y-48406064D01*
X125599776Y-48406067D01*
X125251834Y-48511614D01*
X124915921Y-48650754D01*
X124915916Y-48650756D01*
X124595279Y-48822140D01*
X124595261Y-48822151D01*
X124292964Y-49024140D01*
X124292950Y-49024150D01*
X124011893Y-49254807D01*
X123754807Y-49511893D01*
X123524150Y-49792950D01*
X123524140Y-49792964D01*
X123322151Y-50095261D01*
X123322140Y-50095279D01*
X123150756Y-50415916D01*
X123150754Y-50415921D01*
X123011614Y-50751834D01*
X122906067Y-51099776D01*
X122906064Y-51099787D01*
X122835137Y-51456369D01*
X122828976Y-51518928D01*
X122799500Y-51818206D01*
X103808863Y-51818206D01*
X103446546Y-51455888D01*
X103446545Y-51455887D01*
X103331807Y-51379222D01*
X103204332Y-51326421D01*
X103204322Y-51326418D01*
X103068996Y-51299500D01*
X103068994Y-51299500D01*
X103068993Y-51299500D01*
X63068994Y-51299500D01*
X62931006Y-51299500D01*
X62931004Y-51299500D01*
X62795677Y-51326418D01*
X62795667Y-51326421D01*
X62668192Y-51379222D01*
X62553454Y-51455887D01*
X60719645Y-53289696D01*
X60658322Y-53323181D01*
X60588630Y-53318197D01*
X60532697Y-53276325D01*
X60508280Y-53210861D01*
X60513302Y-53166026D01*
X60593930Y-52900233D01*
X60593933Y-52900216D01*
X60593935Y-52900212D01*
X60664862Y-52543630D01*
X60681154Y-52378213D01*
X60700500Y-52181794D01*
X60700500Y-51818206D01*
X60664862Y-51456369D01*
X60639014Y-51326420D01*
X60593935Y-51099787D01*
X60593932Y-51099776D01*
X60593931Y-51099773D01*
X60593930Y-51099767D01*
X60488386Y-50751836D01*
X60349247Y-50415924D01*
X60246187Y-50223113D01*
X60177859Y-50095279D01*
X60177858Y-50095277D01*
X60177853Y-50095268D01*
X59975854Y-49792956D01*
X59745197Y-49511899D01*
X59745196Y-49511898D01*
X59745192Y-49511893D01*
X59488106Y-49254807D01*
X59207049Y-49024150D01*
X59207048Y-49024149D01*
X59207044Y-49024146D01*
X58904732Y-48822147D01*
X58904727Y-48822144D01*
X58904720Y-48822140D01*
X58584083Y-48650756D01*
X58584078Y-48650754D01*
X58248165Y-48511614D01*
X57900223Y-48406067D01*
X57900212Y-48406064D01*
X57543630Y-48335137D01*
X57271111Y-48308296D01*
X57181794Y-48299500D01*
X56818206Y-48299500D01*
X56735679Y-48307628D01*
X56456369Y-48335137D01*
X56099787Y-48406064D01*
X56099776Y-48406067D01*
X55751834Y-48511614D01*
X55415921Y-48650754D01*
X55415916Y-48650756D01*
X55095279Y-48822140D01*
X55095261Y-48822151D01*
X54792964Y-49024140D01*
X54792950Y-49024150D01*
X54511893Y-49254807D01*
X54254807Y-49511893D01*
X54024150Y-49792950D01*
X54024140Y-49792964D01*
X53822151Y-50095261D01*
X53822140Y-50095279D01*
X53650756Y-50415916D01*
X53650754Y-50415921D01*
X53511614Y-50751834D01*
X53406067Y-51099776D01*
X53406064Y-51099787D01*
X53335137Y-51456369D01*
X53328976Y-51518928D01*
X53299500Y-51818206D01*
X53299500Y-52181794D01*
X53310217Y-52290602D01*
X53335137Y-52543630D01*
X53406064Y-52900212D01*
X53406067Y-52900223D01*
X53511614Y-53248165D01*
X53610000Y-53485690D01*
X53620189Y-53510289D01*
X53650754Y-53584078D01*
X53650756Y-53584083D01*
X53822140Y-53904720D01*
X53822151Y-53904738D01*
X54024140Y-54207035D01*
X54024150Y-54207049D01*
X54254807Y-54488106D01*
X54511893Y-54745192D01*
X54511898Y-54745196D01*
X54511899Y-54745197D01*
X54792956Y-54975854D01*
X55095268Y-55177853D01*
X55095277Y-55177858D01*
X55095279Y-55177859D01*
X55415916Y-55349243D01*
X55415918Y-55349243D01*
X55415924Y-55349247D01*
X55751836Y-55488386D01*
X56099767Y-55593930D01*
X56099773Y-55593931D01*
X56099776Y-55593932D01*
X56099787Y-55593935D01*
X56456369Y-55664862D01*
X56818206Y-55700500D01*
X56818209Y-55700500D01*
X57181791Y-55700500D01*
X57181794Y-55700500D01*
X57543631Y-55664862D01*
X57613045Y-55651054D01*
X57900212Y-55593935D01*
X57900216Y-55593933D01*
X57900233Y-55593930D01*
X58166024Y-55513302D01*
X58235886Y-55512680D01*
X58294999Y-55549928D01*
X58324590Y-55613222D01*
X58315265Y-55682466D01*
X58289696Y-55719645D01*
X53255887Y-60753454D01*
X53179222Y-60868192D01*
X53126421Y-60995667D01*
X53126418Y-60995679D01*
X53105572Y-61100481D01*
X53105572Y-61100483D01*
X53099500Y-61131007D01*
X53099500Y-96731006D01*
X53099500Y-96868994D01*
X53099500Y-96868996D01*
X53099499Y-96868996D01*
X50500500Y-96868996D01*
X50500500Y-52002311D01*
X50500587Y-51997675D01*
X50500738Y-51993634D01*
X50518500Y-51518915D01*
X50519191Y-51509695D01*
X50572576Y-51035894D01*
X50573953Y-51026756D01*
X50662592Y-50558289D01*
X50664655Y-50549250D01*
X50700380Y-50415924D01*
X50788058Y-50088704D01*
X50790782Y-50079874D01*
X50948258Y-49629832D01*
X50951633Y-49621230D01*
X51142304Y-49184209D01*
X51146326Y-49175861D01*
X51369099Y-48754352D01*
X51373732Y-48746328D01*
X51433786Y-48650753D01*
X51627399Y-48342618D01*
X51632610Y-48334975D01*
X51915742Y-47951345D01*
X51921508Y-47944116D01*
X52232511Y-47582724D01*
X52238805Y-47575940D01*
X52575940Y-47238805D01*
X52582724Y-47232511D01*
X52944116Y-46921508D01*
X52951345Y-46915742D01*
X53334975Y-46632610D01*
X53342618Y-46627399D01*
X53746334Y-46373728D01*
X53754352Y-46369099D01*
X54175866Y-46146323D01*
X54184209Y-46142304D01*
X54621230Y-45951633D01*
X54629832Y-45948258D01*
X55079874Y-45790782D01*
X55088704Y-45788058D01*
X55549251Y-45664654D01*
X55558291Y-45662592D01*
X56026756Y-45573953D01*
X56035894Y-45572576D01*
X56509695Y-45519191D01*
X56518915Y-45518500D01*
X56960526Y-45501977D01*
X56997676Y-45500587D01*
X57002312Y-45500500D01*
X57065892Y-45500500D01*
X126434108Y-45500500D01*
X126497688Y-45500500D01*
X126502324Y-45500587D01*
G37*
%TD.AperFunction*%
%TD*%
M02*
