%TF.GenerationSoftware,KiCad,Pcbnew,9.0.2*%
%TF.CreationDate,2025-06-04T19:47:47+07:00*%
%TF.ProjectId,VCU,5643552e-6b69-4636-9164-5f7063625858,rev?*%
%TF.SameCoordinates,Original*%
%TF.FileFunction,Plated,1,2,PTH,Drill*%
%TF.FilePolarity,Positive*%
%FSLAX46Y46*%
G04 Gerber Fmt 4.6, Leading zero omitted, Abs format (unit mm)*
G04 Created by KiCad (PCBNEW 9.0.2) date 2025-06-04 19:47:47*
%MOMM*%
%LPD*%
G01*
G04 APERTURE LIST*
%TA.AperFunction,ViaDrill*%
%ADD10C,0.300000*%
%TD*%
%TA.AperFunction,ComponentDrill*%
%ADD11C,1.000000*%
%TD*%
%TA.AperFunction,ComponentDrill*%
%ADD12C,1.200000*%
%TD*%
%TA.AperFunction,ComponentDrill*%
%ADD13C,1.300000*%
%TD*%
%TA.AperFunction,ComponentDrill*%
%ADD14C,3.200000*%
%TD*%
G04 APERTURE END LIST*
D10*
X187500000Y-260800000D03*
X217000000Y-274600000D03*
X220600000Y-274400000D03*
X224000000Y-274400000D03*
X227400000Y-274400000D03*
X228250000Y-237250000D03*
X230800000Y-274400000D03*
X269000000Y-193900000D03*
X278985225Y-146614775D03*
D11*
%TO.C,ALL1*%
X175745565Y-144376387D03*
X175745565Y-146876387D03*
%TO.C,BSPD2*%
X175745565Y-153376387D03*
X175745565Y-155876387D03*
%TO.C,VCU1*%
X175745565Y-171376387D03*
X175745565Y-173876387D03*
%TO.C,12V1*%
X175750000Y-124250000D03*
X175750000Y-126750000D03*
%TO.C,3V3*%
X175750000Y-134350000D03*
X175750000Y-136850000D03*
%TO.C,TELEMETRY1*%
X175995565Y-162376387D03*
X175995565Y-164876387D03*
%TO.C,U2*%
X201920000Y-203500000D03*
X201920000Y-267500000D03*
X204460000Y-203500000D03*
X204460000Y-267500000D03*
X207000000Y-203500000D03*
X207000000Y-267500000D03*
X209540000Y-203500000D03*
X209540000Y-267500000D03*
X212080000Y-203500000D03*
X212080000Y-267500000D03*
X214620000Y-203500000D03*
X214620000Y-267500000D03*
X217160000Y-203500000D03*
X217160000Y-267500000D03*
X219700000Y-203500000D03*
X219700000Y-267500000D03*
%TO.C,U4*%
X219800000Y-181250000D03*
%TO.C,U2*%
X222240000Y-203500000D03*
X222240000Y-267500000D03*
%TO.C,U4*%
X222340000Y-181250000D03*
%TO.C,U2*%
X224780000Y-203500000D03*
X224780000Y-267500000D03*
%TO.C,U4*%
X224880000Y-181250000D03*
%TO.C,U2*%
X227320000Y-203500000D03*
X227320000Y-267500000D03*
%TO.C,U4*%
X227420000Y-181250000D03*
%TO.C,U2*%
X229860000Y-203500000D03*
X229860000Y-267500000D03*
%TO.C,U4*%
X229960000Y-181250000D03*
%TO.C,U2*%
X232400000Y-203500000D03*
X232400000Y-267500000D03*
%TO.C,U4*%
X232500000Y-181250000D03*
%TO.C,U2*%
X234940000Y-203500000D03*
X234940000Y-267500000D03*
%TO.C,U4*%
X235040000Y-181250000D03*
%TO.C,U2*%
X237480000Y-203500000D03*
X237480000Y-267500000D03*
%TO.C,U4*%
X237580000Y-181250000D03*
%TO.C,U2*%
X240020000Y-203500000D03*
X240020000Y-267500000D03*
%TO.C,U4*%
X240120000Y-181250000D03*
%TO.C,U2*%
X242560000Y-203500000D03*
X242560000Y-267500000D03*
%TO.C,U4*%
X242660000Y-181250000D03*
%TO.C,U2*%
X245100000Y-203500000D03*
X245100000Y-267500000D03*
%TO.C,U4*%
X245200000Y-181250000D03*
%TO.C,U2*%
X247640000Y-203500000D03*
X247640000Y-267500000D03*
%TO.C,U4*%
X247740000Y-181250000D03*
%TO.C,U2*%
X250180000Y-203500000D03*
X250180000Y-267500000D03*
%TO.C,U4*%
X250280000Y-181250000D03*
%TO.C,U2*%
X252720000Y-203500000D03*
X252720000Y-267500000D03*
%TO.C,U4*%
X252820000Y-181250000D03*
%TO.C,U2*%
X255260000Y-203500000D03*
X255260000Y-267500000D03*
%TO.C,U4*%
X255360000Y-181250000D03*
%TO.C,U2*%
X257800000Y-203500000D03*
X257800000Y-267500000D03*
%TO.C,U4*%
X257900000Y-181250000D03*
%TO.C,U2*%
X260340000Y-203500000D03*
X260340000Y-267500000D03*
X262880000Y-203500000D03*
X262880000Y-267500000D03*
X265420000Y-203500000D03*
X265420000Y-267500000D03*
X267960000Y-203500000D03*
X267960000Y-267500000D03*
X270500000Y-203500000D03*
X270500000Y-267500000D03*
%TO.C,U1*%
X290523223Y-120052774D03*
X290523223Y-122592774D03*
X290523223Y-125132774D03*
X290523223Y-127672774D03*
X290523223Y-130212774D03*
X290523223Y-132752774D03*
X290523223Y-135292774D03*
X290523223Y-137832774D03*
X290523223Y-140372774D03*
X290523223Y-142912774D03*
X290523223Y-145452774D03*
X290523223Y-147992774D03*
X290523223Y-150532774D03*
X290523223Y-153072774D03*
X290523223Y-155612774D03*
X290523223Y-158152774D03*
X290523223Y-160692774D03*
X290523223Y-163232774D03*
X290523223Y-165772774D03*
X290523223Y-168312774D03*
%TO.C,BSPD1*%
X296250000Y-232140000D03*
X296250000Y-234680000D03*
X296250000Y-237220000D03*
X296250000Y-239760000D03*
X296250000Y-242300000D03*
X296250000Y-244840000D03*
X296250000Y-247380000D03*
X296250000Y-249920000D03*
X296250000Y-252460000D03*
X296250000Y-255000000D03*
%TO.C,U1*%
X332500000Y-119974884D03*
X332500000Y-122514884D03*
X332500000Y-125054884D03*
X332500000Y-127594884D03*
X332500000Y-130134884D03*
X332500000Y-132674884D03*
X332500000Y-135214884D03*
X332500000Y-137754884D03*
X332500000Y-140294884D03*
X332500000Y-142834884D03*
X332500000Y-145374884D03*
X332500000Y-147914884D03*
X332500000Y-150454884D03*
X332500000Y-152994884D03*
X332500000Y-155534884D03*
X332500000Y-158074884D03*
X332500000Y-160614884D03*
X332500000Y-163154884D03*
X332500000Y-165694884D03*
X332500000Y-168234884D03*
D12*
%TO.C,J9*%
X175250000Y-226525000D03*
X175250000Y-229025000D03*
X175250000Y-231525000D03*
X175250000Y-234025000D03*
X175250000Y-236525000D03*
X175250000Y-239025000D03*
%TO.C,J8*%
X175250000Y-246275000D03*
X175250000Y-248775000D03*
X175250000Y-251275000D03*
X175250000Y-253775000D03*
X175250000Y-256275000D03*
X175250000Y-258775000D03*
%TO.C,J10*%
X177225000Y-267825000D03*
X177225000Y-270325000D03*
%TO.C,J9*%
X177750000Y-226525000D03*
X177750000Y-229025000D03*
X177750000Y-231525000D03*
X177750000Y-234025000D03*
X177750000Y-236525000D03*
X177750000Y-239025000D03*
%TO.C,J8*%
X177750000Y-246275000D03*
X177750000Y-248775000D03*
X177750000Y-251275000D03*
X177750000Y-253775000D03*
X177750000Y-256275000D03*
X177750000Y-258775000D03*
D13*
%TO.C,J1*%
X186750000Y-290500000D03*
X186750000Y-298500000D03*
X188250000Y-293000000D03*
X188250000Y-296000000D03*
X189750000Y-290500000D03*
X189750000Y-298500000D03*
X191250000Y-293000000D03*
X191250000Y-296000000D03*
X192750000Y-290500000D03*
X192750000Y-298500000D03*
X194250000Y-293000000D03*
X194250000Y-296000000D03*
X195750000Y-290500000D03*
X195750000Y-298500000D03*
X197250000Y-293000000D03*
X197250000Y-296000000D03*
X198750000Y-290500000D03*
X198750000Y-298500000D03*
X200250000Y-293000000D03*
X200250000Y-296000000D03*
X201750000Y-290500000D03*
X201750000Y-298500000D03*
X203250000Y-293000000D03*
X203250000Y-296000000D03*
X204750000Y-290500000D03*
X204750000Y-298500000D03*
X206250000Y-293000000D03*
X206250000Y-296000000D03*
X207750000Y-290500000D03*
X207750000Y-298500000D03*
X209250000Y-293000000D03*
X209250000Y-296000000D03*
X210750000Y-290500000D03*
X210750000Y-298500000D03*
X225250000Y-290500000D03*
X225250000Y-298500000D03*
X226750000Y-293000000D03*
X226750000Y-296000000D03*
X228250000Y-290500000D03*
X228250000Y-298500000D03*
X229750000Y-293000000D03*
X229750000Y-296000000D03*
X231250000Y-290500000D03*
X231250000Y-298500000D03*
X232750000Y-293000000D03*
X232750000Y-296000000D03*
X234250000Y-290500000D03*
X234250000Y-298500000D03*
X235750000Y-293000000D03*
X235750000Y-296000000D03*
X237250000Y-290500000D03*
X237250000Y-298500000D03*
X238750000Y-293000000D03*
X238750000Y-296000000D03*
X240250000Y-290500000D03*
X240250000Y-298500000D03*
X241750000Y-293000000D03*
X241750000Y-296000000D03*
X243250000Y-290500000D03*
X243250000Y-298500000D03*
%TO.C,J11*%
X268750000Y-290500000D03*
X268750000Y-298500000D03*
X270250000Y-293000000D03*
X270250000Y-296000000D03*
X271750000Y-290500000D03*
X271750000Y-298500000D03*
X273250000Y-293000000D03*
X273250000Y-296000000D03*
X274750000Y-290500000D03*
X274750000Y-298500000D03*
X276250000Y-293000000D03*
X276250000Y-296000000D03*
X277750000Y-290500000D03*
X277750000Y-298500000D03*
X279250000Y-293000000D03*
X279250000Y-296000000D03*
X280750000Y-290500000D03*
X280750000Y-298500000D03*
X282250000Y-293000000D03*
X282250000Y-296000000D03*
X283750000Y-290500000D03*
X283750000Y-298500000D03*
X285250000Y-293000000D03*
X285250000Y-296000000D03*
X286750000Y-290500000D03*
X286750000Y-298500000D03*
X288250000Y-293000000D03*
X288250000Y-296000000D03*
X289750000Y-290500000D03*
X289750000Y-298500000D03*
X291250000Y-293000000D03*
X291250000Y-296000000D03*
X292750000Y-290500000D03*
X292750000Y-298500000D03*
X307250000Y-290500000D03*
X307250000Y-298500000D03*
X308750000Y-293000000D03*
X308750000Y-296000000D03*
X310250000Y-290500000D03*
X310250000Y-298500000D03*
X311750000Y-293000000D03*
X311750000Y-296000000D03*
X313250000Y-290500000D03*
X313250000Y-298500000D03*
X314750000Y-293000000D03*
X314750000Y-296000000D03*
X316250000Y-290500000D03*
X316250000Y-298500000D03*
X317750000Y-293000000D03*
X317750000Y-296000000D03*
X319250000Y-290500000D03*
X319250000Y-298500000D03*
X320750000Y-293000000D03*
X320750000Y-296000000D03*
X322250000Y-290500000D03*
X322250000Y-298500000D03*
X323750000Y-293000000D03*
X323750000Y-296000000D03*
X325250000Y-290500000D03*
X325250000Y-298500000D03*
D14*
%TO.C,U4*%
X209900000Y-111750000D03*
X265900000Y-111750000D03*
%TO.C,BSPD1*%
X336250000Y-207000000D03*
X336250000Y-267000000D03*
M02*
