%TF.GenerationSoftware,KiCad,Pcbnew,9.0.2*%
%TF.CreationDate,2025-06-04T20:08:15+07:00*%
%TF.ProjectId,VCU,5643552e-6b69-4636-9164-5f7063625858,rev?*%
%TF.SameCoordinates,Original*%
%TF.FileFunction,Legend,Bot*%
%TF.FilePolarity,Positive*%
%FSLAX46Y46*%
G04 Gerber Fmt 4.6, Leading zero omitted, Abs format (unit mm)*
G04 Created by KiCad (PCBNEW 9.0.2) date 2025-06-04 20:08:15*
%MOMM*%
%LPD*%
G01*
G04 APERTURE LIST*
%ADD10C,0.100000*%
%ADD11C,0.200000*%
%ADD12C,0.150000*%
%ADD13C,0.120000*%
G04 APERTURE END LIST*
D10*
X125400000Y-70300000D02*
X141600000Y-70300000D01*
X141600000Y-88700000D01*
X125400000Y-88700000D01*
X125400000Y-70300000D01*
D11*
G36*
X115700000Y-72167166D02*
G01*
X115035659Y-72305286D01*
X115035659Y-72624633D01*
X115028247Y-72768970D01*
X115007299Y-72893711D01*
X114974354Y-73001500D01*
X114899432Y-73155070D01*
X114793126Y-73304483D01*
X114695319Y-73400963D01*
X114574528Y-73483513D01*
X114441755Y-73546360D01*
X114308182Y-73585607D01*
X114190605Y-73602221D01*
X114091360Y-73601043D01*
X114007152Y-73584752D01*
X113928305Y-73552286D01*
X113860192Y-73505603D01*
X113801378Y-73443702D01*
X113744023Y-73350173D01*
X113701360Y-73234019D01*
X113677163Y-73102221D01*
X113667899Y-72920900D01*
X113667899Y-72509961D01*
X114050872Y-72509961D01*
X114050872Y-72598011D01*
X114054291Y-72800488D01*
X114064726Y-72875021D01*
X114089951Y-72949598D01*
X114122751Y-72998252D01*
X114175680Y-73037281D01*
X114240915Y-73057115D01*
X114322103Y-73052302D01*
X114404150Y-73029378D01*
X114468527Y-72999790D01*
X114524002Y-72959550D01*
X114571720Y-72906856D01*
X114611931Y-72834857D01*
X114636566Y-72751029D01*
X114648248Y-72657564D01*
X114652686Y-72531943D01*
X114652686Y-72384909D01*
X114050872Y-72509961D01*
X113667899Y-72509961D01*
X113667899Y-72076430D01*
X115700000Y-71654012D01*
X115700000Y-72167166D01*
G37*
G36*
X115739078Y-74596772D02*
G01*
X115731196Y-74449989D01*
X115708553Y-74318708D01*
X115672278Y-74200976D01*
X115619391Y-74090766D01*
X115553114Y-73997695D01*
X115473098Y-73919731D01*
X115380108Y-73857776D01*
X115271012Y-73810751D01*
X115143004Y-73779291D01*
X115011045Y-73767037D01*
X114859791Y-73773017D01*
X114686025Y-73800052D01*
X114527788Y-73841054D01*
X114382255Y-73895090D01*
X114248220Y-73961863D01*
X114122453Y-74042895D01*
X114010431Y-74134741D01*
X113911165Y-74237735D01*
X113828561Y-74347403D01*
X113759034Y-74468600D01*
X113702459Y-74602512D01*
X113661690Y-74742213D01*
X113637107Y-74886683D01*
X113628820Y-75036898D01*
X113632655Y-75159133D01*
X113643230Y-75260380D01*
X113680844Y-75438921D01*
X113739096Y-75589253D01*
X113798691Y-75704535D01*
X114293161Y-75601709D01*
X114293161Y-75542969D01*
X114214392Y-75465055D01*
X114124633Y-75354780D01*
X114084257Y-75287432D01*
X114050017Y-75211165D01*
X114027478Y-75128960D01*
X114019609Y-75034455D01*
X114028265Y-74927353D01*
X114054413Y-74821353D01*
X114099605Y-74719773D01*
X114169818Y-74617044D01*
X114257758Y-74528982D01*
X114376081Y-74446441D01*
X114513553Y-74382003D01*
X114687369Y-74332990D01*
X114815922Y-74313018D01*
X114921123Y-74309492D01*
X115006960Y-74319312D01*
X115125368Y-74356829D01*
X115208949Y-74410293D01*
X115273376Y-74483241D01*
X115316172Y-74569783D01*
X115340289Y-74664597D01*
X115348290Y-74761025D01*
X115341142Y-74854570D01*
X115319103Y-74952023D01*
X115284692Y-75047265D01*
X115239968Y-75137526D01*
X115153872Y-75277110D01*
X115074738Y-75385676D01*
X115074738Y-75439166D01*
X115563346Y-75337683D01*
X115627948Y-75181123D01*
X115680094Y-75027372D01*
X115723935Y-74835031D01*
X115734788Y-74738766D01*
X115739078Y-74596772D01*
G37*
G36*
X115700000Y-76598586D02*
G01*
X115689590Y-76806352D01*
X115661898Y-76963852D01*
X115611314Y-77108631D01*
X115533914Y-77249127D01*
X115448010Y-77357526D01*
X115342062Y-77448674D01*
X115219392Y-77517596D01*
X115079378Y-77561514D01*
X114976335Y-77574711D01*
X114889642Y-77569975D01*
X114815997Y-77549800D01*
X114752704Y-77515108D01*
X114681644Y-77447942D01*
X114627019Y-77357924D01*
X114589305Y-77239602D01*
X114578314Y-77241922D01*
X114529881Y-77339012D01*
X114471320Y-77422421D01*
X114402459Y-77493614D01*
X114323108Y-77552495D01*
X114236581Y-77595768D01*
X114141608Y-77624040D01*
X114056784Y-77635027D01*
X113981920Y-77631746D01*
X113915073Y-77615614D01*
X113854149Y-77585541D01*
X113801761Y-77540880D01*
X113756926Y-77479570D01*
X113710565Y-77378674D01*
X113684385Y-77273429D01*
X113672852Y-77148603D01*
X113667899Y-76924651D01*
X113667899Y-76586374D01*
X114035240Y-76586374D01*
X114035240Y-76634490D01*
X114037316Y-76868597D01*
X114045073Y-76947227D01*
X114061618Y-77003175D01*
X114094088Y-77050696D01*
X114138066Y-77074860D01*
X114189571Y-77082709D01*
X114240893Y-77078157D01*
X114304525Y-77059386D01*
X114358374Y-77032362D01*
X114402619Y-76991644D01*
X114440928Y-76924284D01*
X114459026Y-76865410D01*
X114468771Y-76783478D01*
X114472923Y-76575505D01*
X114472923Y-76495394D01*
X114035240Y-76586374D01*
X113667899Y-76586374D01*
X113667899Y-76422243D01*
X114824633Y-76422243D01*
X114824633Y-76534595D01*
X114825976Y-76754780D01*
X114832192Y-76853954D01*
X114845150Y-76916468D01*
X114879935Y-76987882D01*
X114923918Y-77025034D01*
X114982582Y-77039069D01*
X115073883Y-77030652D01*
X115144048Y-77008409D01*
X115204675Y-76973377D01*
X115254127Y-76922561D01*
X115295655Y-76844173D01*
X115321700Y-76756388D01*
X115331315Y-76664410D01*
X115332658Y-76353977D01*
X115332658Y-76316608D01*
X114824633Y-76422243D01*
X113667899Y-76422243D01*
X113667899Y-76152355D01*
X115700000Y-75729937D01*
X115700000Y-76598586D01*
G37*
G36*
X115700000Y-79892934D02*
G01*
X115700000Y-78727529D01*
X115332658Y-78803855D01*
X115332658Y-79129919D01*
X114035240Y-79399685D01*
X114035240Y-79073621D01*
X113667899Y-79149947D01*
X113667899Y-80315352D01*
X114035240Y-80239026D01*
X114035240Y-79912840D01*
X115332658Y-79643073D01*
X115332658Y-79969260D01*
X115700000Y-79892934D01*
G37*
G36*
X115700000Y-81825628D02*
G01*
X115700000Y-81342027D01*
X114938328Y-81500418D01*
X114752948Y-81529483D01*
X114666543Y-81533231D01*
X114616905Y-81525819D01*
X114573094Y-81501898D01*
X114543143Y-81462927D01*
X114526568Y-81410090D01*
X114519818Y-81324075D01*
X114525096Y-81258062D01*
X114541678Y-81186444D01*
X114568689Y-81113405D01*
X114611409Y-81025610D01*
X115700000Y-80799319D01*
X115700000Y-80318283D01*
X114168108Y-80636775D01*
X114168108Y-81117812D01*
X114333217Y-81083496D01*
X114239978Y-81232796D01*
X114175924Y-81362787D01*
X114134972Y-81495710D01*
X114121214Y-81636706D01*
X114131690Y-81757643D01*
X114160501Y-81853009D01*
X114205351Y-81928153D01*
X114266294Y-81986828D01*
X114339906Y-82026848D01*
X114432868Y-82050141D01*
X114550664Y-82054049D01*
X114699947Y-82033600D01*
X115700000Y-81825628D01*
G37*
G36*
X115700000Y-82792341D02*
G01*
X115700000Y-82311304D01*
X114168108Y-82629797D01*
X114168108Y-83110833D01*
X115700000Y-82792341D01*
G37*
G36*
X113949267Y-83169696D02*
G01*
X113949267Y-82661915D01*
X113574110Y-82739951D01*
X113574110Y-83247732D01*
X113949267Y-83169696D01*
G37*
G36*
X115291666Y-84246035D02*
G01*
X115421686Y-84270325D01*
X115530129Y-84315073D01*
X115608292Y-84369093D01*
X115667729Y-84433695D01*
X115710604Y-84510032D01*
X115737407Y-84600458D01*
X115746894Y-84708304D01*
X115733759Y-84845708D01*
X115695481Y-84968911D01*
X115634171Y-85088934D01*
X115540143Y-85233670D01*
X115700000Y-85200453D01*
X115700000Y-85681612D01*
X113574110Y-86123569D01*
X113574110Y-85642411D01*
X114225017Y-85507100D01*
X114150645Y-85345533D01*
X114129498Y-85258294D01*
X114128583Y-85244173D01*
X114480739Y-85244173D01*
X114490387Y-85345045D01*
X114522016Y-85445307D01*
X115279658Y-85287892D01*
X115316582Y-85220411D01*
X115346336Y-85144399D01*
X115365765Y-85066779D01*
X115371737Y-85000174D01*
X115358441Y-84893508D01*
X115323539Y-84822484D01*
X115269277Y-84776814D01*
X115198372Y-84753402D01*
X115093060Y-84748085D01*
X114940038Y-84769120D01*
X114800875Y-84809558D01*
X114689975Y-84864926D01*
X114602494Y-84934106D01*
X114535499Y-85020882D01*
X114494915Y-85122753D01*
X114480739Y-85244173D01*
X114128583Y-85244173D01*
X114121214Y-85130478D01*
X114134866Y-85000678D01*
X114178122Y-84859368D01*
X114246550Y-84725234D01*
X114337979Y-84605722D01*
X114455799Y-84495990D01*
X114597976Y-84399947D01*
X114757721Y-84325626D01*
X114945655Y-84272208D01*
X115134967Y-84245072D01*
X115291666Y-84246035D01*
G37*
G36*
X115700000Y-86661147D02*
G01*
X115700000Y-86180111D01*
X114168108Y-86498604D01*
X114168108Y-86979640D01*
X115700000Y-86661147D01*
G37*
G36*
X113949267Y-87038503D02*
G01*
X113949267Y-86530722D01*
X113574110Y-86608757D01*
X113574110Y-87116538D01*
X113949267Y-87038503D01*
G37*
G36*
X115700000Y-87596598D02*
G01*
X115623429Y-87632501D01*
X115669298Y-87710677D01*
X115703297Y-87796388D01*
X115723717Y-87890501D01*
X115731263Y-88011200D01*
X115717438Y-88152126D01*
X115676034Y-88286915D01*
X115605590Y-88417968D01*
X115502651Y-88547069D01*
X115381757Y-88656882D01*
X115244348Y-88746386D01*
X115088405Y-88816203D01*
X114911217Y-88865928D01*
X114719956Y-88894046D01*
X114563665Y-88894826D01*
X114435978Y-88873299D01*
X114331385Y-88832711D01*
X114256726Y-88782617D01*
X114199334Y-88720284D01*
X114157365Y-88644200D01*
X114130750Y-88551480D01*
X114121214Y-88438136D01*
X114135513Y-88291615D01*
X114177267Y-88159822D01*
X114184826Y-88144801D01*
X114496371Y-88144801D01*
X114504858Y-88231565D01*
X114527331Y-88293275D01*
X114561397Y-88336416D01*
X114607745Y-88364863D01*
X114683455Y-88384033D01*
X114786505Y-88386697D01*
X114925383Y-88367062D01*
X115074881Y-88324183D01*
X115187992Y-88268406D01*
X115271842Y-88201465D01*
X115334998Y-88116841D01*
X115373718Y-88015555D01*
X115387369Y-87892864D01*
X115380530Y-87781978D01*
X115354396Y-87688433D01*
X114578925Y-87849755D01*
X114543463Y-87924710D01*
X114517742Y-88000087D01*
X114501503Y-88076048D01*
X114496371Y-88144801D01*
X114184826Y-88144801D01*
X114240566Y-88034043D01*
X114323325Y-87902878D01*
X113574110Y-88058583D01*
X113574110Y-87577547D01*
X115700000Y-87135589D01*
X115700000Y-87596598D01*
G37*
G36*
X115700000Y-90588939D02*
G01*
X115700000Y-90107780D01*
X115534891Y-90142096D01*
X115629818Y-89988964D01*
X115692916Y-89864637D01*
X115732926Y-89737035D01*
X115746894Y-89588886D01*
X115736211Y-89465087D01*
X115706996Y-89368697D01*
X115661778Y-89293852D01*
X115600593Y-89236444D01*
X115526436Y-89197542D01*
X115433331Y-89175066D01*
X115316020Y-89171623D01*
X115168161Y-89191992D01*
X114168108Y-89399965D01*
X114168108Y-89883688D01*
X114929780Y-89725296D01*
X115123342Y-89692323D01*
X115197153Y-89690087D01*
X115251203Y-89699895D01*
X115295004Y-89722774D01*
X115325087Y-89761444D01*
X115341574Y-89814272D01*
X115348290Y-89900296D01*
X115342939Y-89963491D01*
X115325087Y-90041346D01*
X115296713Y-90119920D01*
X115256699Y-90199982D01*
X114168108Y-90426273D01*
X114168108Y-90907431D01*
X115700000Y-90588939D01*
G37*
G36*
X115460320Y-91061935D02*
G01*
X115539980Y-91089935D01*
X115610851Y-91137020D01*
X115669182Y-91199516D01*
X115711256Y-91273603D01*
X115737570Y-91361614D01*
X115746894Y-91466870D01*
X115742289Y-91556085D01*
X115728942Y-91637595D01*
X115707059Y-91716643D01*
X115676796Y-91795621D01*
X115609874Y-91917620D01*
X115537456Y-92028995D01*
X115700000Y-91995167D01*
X115700000Y-92472295D01*
X114655617Y-92689427D01*
X114516212Y-92704894D01*
X114406877Y-92691170D01*
X114320067Y-92653156D01*
X114250418Y-92591242D01*
X114200543Y-92512017D01*
X114159977Y-92398517D01*
X114131899Y-92240439D01*
X114121214Y-92025575D01*
X114128135Y-91852735D01*
X114149180Y-91675575D01*
X114197540Y-91417655D01*
X114566713Y-91340840D01*
X114566713Y-91384926D01*
X114500401Y-91592533D01*
X114467426Y-91734232D01*
X114457292Y-91855460D01*
X114464082Y-91988027D01*
X114481569Y-92081259D01*
X114506263Y-92144644D01*
X114546273Y-92191422D01*
X114602560Y-92213426D01*
X114683461Y-92209368D01*
X114691765Y-92207536D01*
X114696450Y-92144644D01*
X114980949Y-92144644D01*
X115301273Y-92078087D01*
X115345636Y-92008477D01*
X115380774Y-91931175D01*
X115403631Y-91851227D01*
X115410816Y-91778768D01*
X115406908Y-91694162D01*
X115397871Y-91647732D01*
X115380917Y-91611019D01*
X115357449Y-91582763D01*
X115328531Y-91562012D01*
X115299930Y-91554431D01*
X115221894Y-91562735D01*
X115155412Y-91586364D01*
X115104902Y-91625139D01*
X115066579Y-91678256D01*
X115037124Y-91749459D01*
X115003541Y-91928855D01*
X114980949Y-92144644D01*
X114696450Y-92144644D01*
X114707673Y-91994000D01*
X114730233Y-91789148D01*
X114766752Y-91594345D01*
X114818161Y-91439515D01*
X114865405Y-91345078D01*
X114921717Y-91264365D01*
X114987177Y-91195882D01*
X115063060Y-91140210D01*
X115154202Y-91096385D01*
X115263293Y-91064968D01*
X115369229Y-91052910D01*
X115460320Y-91061935D01*
G37*
G36*
X115687299Y-93918702D02*
G01*
X115719539Y-93747487D01*
X115731263Y-93532676D01*
X115722162Y-93388489D01*
X115697846Y-93279526D01*
X115661716Y-93198381D01*
X115615491Y-93139078D01*
X115555186Y-93096983D01*
X115474006Y-93071387D01*
X115364973Y-93065165D01*
X115219207Y-93084490D01*
X114504187Y-93233112D01*
X114504187Y-93035275D01*
X114168108Y-93105129D01*
X114168108Y-93302965D01*
X113730425Y-93393946D01*
X113730425Y-93874982D01*
X114168108Y-93784002D01*
X114168108Y-94234508D01*
X114504187Y-94164654D01*
X114504187Y-93714148D01*
X115044818Y-93601674D01*
X115184647Y-93573953D01*
X115242846Y-93568236D01*
X115291992Y-93573098D01*
X115334417Y-93590055D01*
X115367341Y-93623534D01*
X115387068Y-93672297D01*
X115395184Y-93756158D01*
X115378698Y-93857885D01*
X115348290Y-93948988D01*
X115348290Y-93989166D01*
X115687299Y-93918702D01*
G37*
G36*
X115291666Y-95209607D02*
G01*
X115421686Y-95233898D01*
X115530129Y-95278646D01*
X115608292Y-95332665D01*
X115667729Y-95397268D01*
X115710604Y-95473605D01*
X115737407Y-95564030D01*
X115746894Y-95671877D01*
X115733759Y-95809281D01*
X115695481Y-95932484D01*
X115634171Y-96052507D01*
X115540143Y-96197243D01*
X115700000Y-96164026D01*
X115700000Y-96645184D01*
X113574110Y-97087142D01*
X113574110Y-96605983D01*
X114225017Y-96470673D01*
X114150645Y-96309106D01*
X114129498Y-96221867D01*
X114128583Y-96207745D01*
X114480739Y-96207745D01*
X114490387Y-96308618D01*
X114522016Y-96408879D01*
X115279658Y-96251465D01*
X115316582Y-96183984D01*
X115346336Y-96107972D01*
X115365765Y-96030352D01*
X115371737Y-95963747D01*
X115358441Y-95857081D01*
X115323539Y-95786057D01*
X115269277Y-95740387D01*
X115198372Y-95716975D01*
X115093060Y-95711658D01*
X114940038Y-95732693D01*
X114800875Y-95773131D01*
X114689975Y-95828499D01*
X114602494Y-95897679D01*
X114535499Y-95984455D01*
X114494915Y-96086326D01*
X114480739Y-96207745D01*
X114128583Y-96207745D01*
X114121214Y-96094050D01*
X114134866Y-95964251D01*
X114178122Y-95822941D01*
X114246550Y-95688807D01*
X114337979Y-95569295D01*
X114455799Y-95459563D01*
X114597976Y-95363520D01*
X114757721Y-95289199D01*
X114945655Y-95235781D01*
X115134967Y-95208645D01*
X115291666Y-95209607D01*
G37*
G36*
X115239847Y-97172720D02*
G01*
X115354602Y-97197944D01*
X115453337Y-97243013D01*
X115538921Y-97308060D01*
X115608235Y-97389038D01*
X115664902Y-97490153D01*
X115708316Y-97615212D01*
X115736633Y-97769008D01*
X115746894Y-97957135D01*
X115739099Y-98128836D01*
X115716730Y-98282833D01*
X115678653Y-98435482D01*
X115619399Y-98610362D01*
X115223237Y-98692794D01*
X115223237Y-98639427D01*
X115283797Y-98534012D01*
X115345847Y-98387979D01*
X115388991Y-98232263D01*
X115403000Y-98080844D01*
X115390024Y-97922795D01*
X115356217Y-97812167D01*
X115306524Y-97736584D01*
X115255091Y-97694321D01*
X115193499Y-97667126D01*
X115119004Y-97655040D01*
X115027843Y-97660258D01*
X115027843Y-98761427D01*
X114855530Y-98797330D01*
X114673133Y-98821382D01*
X114526263Y-98814282D01*
X114407451Y-98781666D01*
X114310624Y-98726133D01*
X114246973Y-98664826D01*
X114195478Y-98586771D01*
X114156193Y-98488784D01*
X114130545Y-98366567D01*
X114121214Y-98214933D01*
X114128882Y-98112840D01*
X114426029Y-98112840D01*
X114436419Y-98209144D01*
X114463519Y-98274208D01*
X114504553Y-98316905D01*
X114559693Y-98342459D01*
X114635252Y-98352738D01*
X114738660Y-98343161D01*
X114738660Y-97719242D01*
X114634677Y-97758018D01*
X114556925Y-97808069D01*
X114500401Y-97868841D01*
X114459392Y-97941905D01*
X114434564Y-98022577D01*
X114426029Y-98112840D01*
X114128882Y-98112840D01*
X114135942Y-98018835D01*
X114178472Y-97843841D01*
X114247550Y-97686473D01*
X114343597Y-97543998D01*
X114463235Y-97420392D01*
X114601814Y-97320846D01*
X114761722Y-97244209D01*
X114946388Y-97190823D01*
X115105270Y-97169144D01*
X115239847Y-97172720D01*
G37*
G36*
X115700000Y-100509228D02*
G01*
X115700000Y-100025628D01*
X114938328Y-100184019D01*
X114752948Y-100213084D01*
X114666543Y-100216832D01*
X114616905Y-100209420D01*
X114573094Y-100185499D01*
X114543143Y-100146528D01*
X114526568Y-100093691D01*
X114519818Y-100007676D01*
X114525096Y-99941663D01*
X114541678Y-99870045D01*
X114568689Y-99797006D01*
X114611409Y-99709211D01*
X115700000Y-99482920D01*
X115700000Y-99001884D01*
X114168108Y-99320376D01*
X114168108Y-99801413D01*
X114333217Y-99767096D01*
X114239978Y-99916397D01*
X114175924Y-100046388D01*
X114134972Y-100179310D01*
X114121214Y-100320307D01*
X114131690Y-100441244D01*
X114160501Y-100536610D01*
X114205351Y-100611754D01*
X114266294Y-100670429D01*
X114339906Y-100710449D01*
X114432868Y-100733741D01*
X114550664Y-100737650D01*
X114699947Y-100717201D01*
X115700000Y-100509228D01*
G37*
G36*
X116236744Y-101052559D02*
G01*
X116259071Y-101194696D01*
X116273485Y-101343607D01*
X116278367Y-101498656D01*
X116268594Y-101686646D01*
X116240753Y-101851953D01*
X116190833Y-102005626D01*
X116118632Y-102138695D01*
X116057459Y-102216910D01*
X115981157Y-102288928D01*
X115887944Y-102354972D01*
X115786619Y-102408406D01*
X115666513Y-102453943D01*
X115524877Y-102490648D01*
X114168108Y-102772749D01*
X114168108Y-102306367D01*
X114231978Y-102275715D01*
X114186192Y-102200513D01*
X114150645Y-102111584D01*
X114129591Y-102016817D01*
X114480739Y-102016817D01*
X114490997Y-102122941D01*
X114519085Y-102218562D01*
X115216399Y-102073604D01*
X115250979Y-102006241D01*
X115278192Y-101933897D01*
X115295704Y-101859409D01*
X115301395Y-101787473D01*
X115290048Y-101685527D01*
X115259990Y-101614389D01*
X115213712Y-101565701D01*
X115151421Y-101538480D01*
X115053570Y-101529839D01*
X114904134Y-101549214D01*
X114775795Y-101587315D01*
X114673400Y-101640802D01*
X114592480Y-101708827D01*
X114531454Y-101793594D01*
X114493958Y-101894737D01*
X114480739Y-102016817D01*
X114129591Y-102016817D01*
X114128986Y-102014093D01*
X114121214Y-101896528D01*
X114134211Y-101762058D01*
X114174581Y-101621388D01*
X114238765Y-101488769D01*
X114323447Y-101373360D01*
X114434424Y-101266421D01*
X114564026Y-101176378D01*
X114711007Y-101107338D01*
X114892044Y-101055966D01*
X115098332Y-101026559D01*
X115259477Y-101028987D01*
X115384901Y-101056295D01*
X115482501Y-101104326D01*
X115549601Y-101161037D01*
X115602551Y-101231307D01*
X115642064Y-101317309D01*
X115667426Y-101422308D01*
X115676552Y-101550436D01*
X115665801Y-101677092D01*
X115634176Y-101794312D01*
X115584454Y-101905286D01*
X115519382Y-102010589D01*
X115547958Y-102004727D01*
X115638880Y-101980802D01*
X115710868Y-101952093D01*
X115773616Y-101914292D01*
X115822365Y-101868928D01*
X115862054Y-101808823D01*
X115893684Y-101726290D01*
X115911920Y-101631730D01*
X115918841Y-101503907D01*
X115911918Y-101401605D01*
X115889532Y-101282868D01*
X115857372Y-101167548D01*
X115825052Y-101081123D01*
X115825052Y-101022383D01*
X116212177Y-100941905D01*
X116236744Y-101052559D01*
G37*
G36*
X115460320Y-102928230D02*
G01*
X115539980Y-102956229D01*
X115610851Y-103003314D01*
X115669182Y-103065811D01*
X115711256Y-103139897D01*
X115737570Y-103227908D01*
X115746894Y-103333164D01*
X115742289Y-103422379D01*
X115728942Y-103503890D01*
X115707059Y-103582937D01*
X115676796Y-103661915D01*
X115609874Y-103783914D01*
X115537456Y-103895289D01*
X115700000Y-103861461D01*
X115700000Y-104338590D01*
X114655617Y-104555722D01*
X114516212Y-104571188D01*
X114406877Y-104557465D01*
X114320067Y-104519451D01*
X114250418Y-104457536D01*
X114200543Y-104378312D01*
X114159977Y-104264811D01*
X114131899Y-104106734D01*
X114121214Y-103891870D01*
X114128135Y-103719030D01*
X114149180Y-103541870D01*
X114197540Y-103283949D01*
X114566713Y-103207135D01*
X114566713Y-103251221D01*
X114500401Y-103458827D01*
X114467426Y-103600527D01*
X114457292Y-103721755D01*
X114464082Y-103854321D01*
X114481569Y-103947554D01*
X114506263Y-104010938D01*
X114546273Y-104057717D01*
X114602560Y-104079720D01*
X114683461Y-104075662D01*
X114691765Y-104073831D01*
X114696450Y-104010938D01*
X114980949Y-104010938D01*
X115301273Y-103944382D01*
X115345636Y-103874772D01*
X115380774Y-103797470D01*
X115403631Y-103717521D01*
X115410816Y-103645062D01*
X115406908Y-103560457D01*
X115397871Y-103514026D01*
X115380917Y-103477313D01*
X115357449Y-103449057D01*
X115328531Y-103428306D01*
X115299930Y-103420725D01*
X115221894Y-103429030D01*
X115155412Y-103452659D01*
X115104902Y-103491434D01*
X115066579Y-103544550D01*
X115037124Y-103615753D01*
X115003541Y-103795150D01*
X114980949Y-104010938D01*
X114696450Y-104010938D01*
X114707673Y-103860295D01*
X114730233Y-103655443D01*
X114766752Y-103460639D01*
X114818161Y-103305809D01*
X114865405Y-103211373D01*
X114921717Y-103130659D01*
X114987177Y-103062177D01*
X115063060Y-103006504D01*
X115154202Y-102962679D01*
X115263293Y-102931263D01*
X115369229Y-102919204D01*
X115460320Y-102928230D01*
G37*
G36*
X115700000Y-106330024D02*
G01*
X115700000Y-105846423D01*
X114938328Y-106004815D01*
X114752948Y-106033879D01*
X114666543Y-106037627D01*
X114616905Y-106030216D01*
X114573094Y-106006294D01*
X114543143Y-105967323D01*
X114526568Y-105914487D01*
X114519818Y-105828471D01*
X114525096Y-105762459D01*
X114541678Y-105690840D01*
X114568689Y-105617802D01*
X114611409Y-105530006D01*
X115700000Y-105303715D01*
X115700000Y-104822679D01*
X114168108Y-105141172D01*
X114168108Y-105622208D01*
X114333217Y-105587892D01*
X114239978Y-105737192D01*
X114175924Y-105867184D01*
X114134972Y-106000106D01*
X114121214Y-106141102D01*
X114131690Y-106262040D01*
X114160501Y-106357405D01*
X114205351Y-106432549D01*
X114266294Y-106491224D01*
X114339906Y-106531244D01*
X114432868Y-106554537D01*
X114550664Y-106558446D01*
X114699947Y-106537997D01*
X115700000Y-106330024D01*
G37*
G36*
X115700000Y-109655390D02*
G01*
X115700000Y-109026099D01*
X114886793Y-108600505D01*
X115034682Y-108449563D01*
X115700000Y-108311200D01*
X115700000Y-107798046D01*
X113667899Y-108220464D01*
X113667899Y-108733618D01*
X114588695Y-108542254D01*
X113667899Y-109444364D01*
X113667899Y-110039218D01*
X114608234Y-109066032D01*
X115700000Y-109655390D01*
G37*
G36*
X115225385Y-109956056D02*
G01*
X115341092Y-109976275D01*
X115441596Y-110014384D01*
X115529518Y-110069993D01*
X115603825Y-110142212D01*
X115663168Y-110231062D01*
X115707802Y-110339375D01*
X115736549Y-110471063D01*
X115746894Y-110630896D01*
X115732368Y-110824043D01*
X115690606Y-110994629D01*
X115623075Y-111146368D01*
X115529518Y-111282170D01*
X115413006Y-111399428D01*
X115276910Y-111494794D01*
X115118684Y-111569067D01*
X114934787Y-111621667D01*
X114778279Y-111644051D01*
X114643952Y-111643701D01*
X114528077Y-111623746D01*
X114427405Y-111586016D01*
X114339323Y-111530931D01*
X114264873Y-111459249D01*
X114205361Y-111370655D01*
X114160542Y-111262235D01*
X114131632Y-111129964D01*
X114121214Y-110968928D01*
X114126601Y-110897365D01*
X114465108Y-110897365D01*
X114471089Y-110964349D01*
X114488189Y-111022051D01*
X114519121Y-111071088D01*
X114566957Y-111108635D01*
X114626846Y-111132726D01*
X114712159Y-111145394D01*
X114807816Y-111142846D01*
X114937473Y-111122557D01*
X115074041Y-111087554D01*
X115164863Y-111051849D01*
X115241867Y-111006146D01*
X115305303Y-110952564D01*
X115350994Y-110896569D01*
X115380652Y-110835938D01*
X115397462Y-110771202D01*
X115403000Y-110706367D01*
X115396504Y-110633582D01*
X115378576Y-110575819D01*
X115347183Y-110527319D01*
X115301151Y-110489724D01*
X115239944Y-110465203D01*
X115153995Y-110453454D01*
X115058702Y-110456709D01*
X114937473Y-110475680D01*
X114804494Y-110510430D01*
X114705321Y-110550052D01*
X114620064Y-110599780D01*
X114560118Y-110650558D01*
X114511074Y-110713386D01*
X114484159Y-110769748D01*
X114470022Y-110829711D01*
X114465108Y-110897365D01*
X114126601Y-110897365D01*
X114135640Y-110777282D01*
X114177185Y-110607355D01*
X114244483Y-110455569D01*
X114337857Y-110319120D01*
X114454086Y-110201428D01*
X114590387Y-110105613D01*
X114749398Y-110030897D01*
X114934787Y-109977913D01*
X115091203Y-109955552D01*
X115225385Y-109956056D01*
G37*
G36*
X116262735Y-112213101D02*
G01*
X115624651Y-112345725D01*
X115670032Y-112429923D01*
X115703175Y-112512421D01*
X115723528Y-112602140D01*
X115731263Y-112724668D01*
X115717695Y-112861566D01*
X115676552Y-112996510D01*
X115609762Y-113124279D01*
X115514986Y-113247958D01*
X115402638Y-113353208D01*
X115257554Y-113450558D01*
X115094572Y-113526792D01*
X114911217Y-113579396D01*
X114720845Y-113607237D01*
X114564911Y-113607618D01*
X114437143Y-113585517D01*
X114332117Y-113544103D01*
X114256906Y-113493222D01*
X114199251Y-113430570D01*
X114157238Y-113354745D01*
X114130694Y-113263019D01*
X114121214Y-113151605D01*
X114136069Y-113005129D01*
X114179588Y-112872801D01*
X114187080Y-112858269D01*
X114496371Y-112858269D01*
X114509275Y-112960546D01*
X114543311Y-113029290D01*
X114596510Y-113074057D01*
X114665840Y-113097127D01*
X114768836Y-113102432D01*
X114918545Y-113081873D01*
X115065538Y-113039515D01*
X115176591Y-112984199D01*
X115258775Y-112917620D01*
X115320404Y-112833560D01*
X115358332Y-112732492D01*
X115371737Y-112609630D01*
X115366364Y-112502407D01*
X115357338Y-112450460D01*
X115341939Y-112404588D01*
X114577581Y-112563468D01*
X114542685Y-112638298D01*
X114517376Y-112713677D01*
X114501419Y-112789520D01*
X114496371Y-112858269D01*
X114187080Y-112858269D01*
X114244702Y-112746495D01*
X114327965Y-112615369D01*
X114168108Y-112648586D01*
X114168108Y-112167550D01*
X116262735Y-111732065D01*
X116262735Y-112213101D01*
G37*
G36*
X115700000Y-114287944D02*
G01*
X115700000Y-113806908D01*
X114168108Y-114125401D01*
X114168108Y-114606437D01*
X115700000Y-114287944D01*
G37*
G36*
X113949267Y-114665300D02*
G01*
X113949267Y-114157519D01*
X113574110Y-114235554D01*
X113574110Y-114743335D01*
X113949267Y-114665300D01*
G37*
G36*
X115291666Y-115741638D02*
G01*
X115421686Y-115765929D01*
X115530129Y-115810676D01*
X115608292Y-115864696D01*
X115667729Y-115929299D01*
X115710604Y-116005636D01*
X115737407Y-116096061D01*
X115746894Y-116203907D01*
X115733759Y-116341311D01*
X115695481Y-116464515D01*
X115634171Y-116584537D01*
X115540143Y-116729274D01*
X115700000Y-116696057D01*
X115700000Y-117177215D01*
X113574110Y-117619173D01*
X113574110Y-117138014D01*
X114225017Y-117002704D01*
X114150645Y-116841137D01*
X114129498Y-116753898D01*
X114128583Y-116739776D01*
X114480739Y-116739776D01*
X114490387Y-116840648D01*
X114522016Y-116940910D01*
X115279658Y-116783496D01*
X115316582Y-116716015D01*
X115346336Y-116640003D01*
X115365765Y-116562383D01*
X115371737Y-116495778D01*
X115358441Y-116389111D01*
X115323539Y-116318087D01*
X115269277Y-116272418D01*
X115198372Y-116249006D01*
X115093060Y-116243689D01*
X114940038Y-116264724D01*
X114800875Y-116305161D01*
X114689975Y-116360530D01*
X114602494Y-116429710D01*
X114535499Y-116516485D01*
X114494915Y-116618357D01*
X114480739Y-116739776D01*
X114128583Y-116739776D01*
X114121214Y-116626081D01*
X114134866Y-116496282D01*
X114178122Y-116354972D01*
X114246550Y-116220837D01*
X114337979Y-116101325D01*
X114455799Y-115991594D01*
X114597976Y-115895551D01*
X114757721Y-115821229D01*
X114945655Y-115767812D01*
X115134967Y-115740676D01*
X115291666Y-115741638D01*
G37*
G36*
X115460320Y-117651189D02*
G01*
X115539980Y-117679188D01*
X115610851Y-117726273D01*
X115669182Y-117788769D01*
X115711256Y-117862856D01*
X115737570Y-117950867D01*
X115746894Y-118056123D01*
X115742289Y-118145338D01*
X115728942Y-118226849D01*
X115707059Y-118305896D01*
X115676796Y-118384874D01*
X115609874Y-118506873D01*
X115537456Y-118618248D01*
X115700000Y-118584420D01*
X115700000Y-119061549D01*
X114655617Y-119278681D01*
X114516212Y-119294147D01*
X114406877Y-119280424D01*
X114320067Y-119242409D01*
X114250418Y-119180495D01*
X114200543Y-119101271D01*
X114159977Y-118987770D01*
X114131899Y-118829693D01*
X114121214Y-118614829D01*
X114128135Y-118441989D01*
X114149180Y-118264829D01*
X114197540Y-118006908D01*
X114566713Y-117930094D01*
X114566713Y-117974180D01*
X114500401Y-118181786D01*
X114467426Y-118323486D01*
X114457292Y-118444713D01*
X114464082Y-118577280D01*
X114481569Y-118670513D01*
X114506263Y-118733897D01*
X114546273Y-118780675D01*
X114602560Y-118802679D01*
X114683461Y-118798621D01*
X114691765Y-118796789D01*
X114696450Y-118733897D01*
X114980949Y-118733897D01*
X115301273Y-118667341D01*
X115345636Y-118597730D01*
X115380774Y-118520429D01*
X115403631Y-118440480D01*
X115410816Y-118368021D01*
X115406908Y-118283416D01*
X115397871Y-118236985D01*
X115380917Y-118200272D01*
X115357449Y-118172016D01*
X115328531Y-118151265D01*
X115299930Y-118143684D01*
X115221894Y-118151988D01*
X115155412Y-118175617D01*
X115104902Y-118214392D01*
X115066579Y-118267509D01*
X115037124Y-118338712D01*
X115003541Y-118518108D01*
X114980949Y-118733897D01*
X114696450Y-118733897D01*
X114707673Y-118583254D01*
X114730233Y-118378401D01*
X114766752Y-118183598D01*
X114818161Y-118028768D01*
X114865405Y-117934332D01*
X114921717Y-117853618D01*
X114987177Y-117785136D01*
X115063060Y-117729463D01*
X115154202Y-117685638D01*
X115263293Y-117654221D01*
X115369229Y-117642163D01*
X115460320Y-117651189D01*
G37*
G36*
X115700000Y-121052983D02*
G01*
X115700000Y-120569382D01*
X114938328Y-120727773D01*
X114752948Y-120756838D01*
X114666543Y-120760586D01*
X114616905Y-120753175D01*
X114573094Y-120729253D01*
X114543143Y-120690282D01*
X114526568Y-120637445D01*
X114519818Y-120551430D01*
X114525096Y-120485417D01*
X114541678Y-120413799D01*
X114568689Y-120340760D01*
X114611409Y-120252965D01*
X115700000Y-120026674D01*
X115700000Y-119545638D01*
X114168108Y-119864131D01*
X114168108Y-120345167D01*
X114333217Y-120310851D01*
X114239978Y-120460151D01*
X114175924Y-120590143D01*
X114134972Y-120723065D01*
X114121214Y-120864061D01*
X114131690Y-120984998D01*
X114160501Y-121080364D01*
X114205351Y-121155508D01*
X114266294Y-121214183D01*
X114339906Y-121254203D01*
X114432868Y-121277496D01*
X114550664Y-121281405D01*
X114699947Y-121260956D01*
X115700000Y-121052983D01*
G37*
G36*
X115700000Y-124606960D02*
G01*
X115700000Y-124096493D01*
X114339689Y-124379326D01*
X115223237Y-123826849D01*
X115223237Y-123472697D01*
X114339689Y-123287561D01*
X115700000Y-123004727D01*
X115700000Y-122521004D01*
X113667899Y-122943422D01*
X113667899Y-123539253D01*
X114687979Y-123774947D01*
X113667899Y-124433426D01*
X113667899Y-125029378D01*
X115700000Y-124606960D01*
G37*
G36*
X115460320Y-125123066D02*
G01*
X115539980Y-125151065D01*
X115610851Y-125198150D01*
X115669182Y-125260647D01*
X115711256Y-125334733D01*
X115737570Y-125422744D01*
X115746894Y-125528000D01*
X115742289Y-125617215D01*
X115728942Y-125698726D01*
X115707059Y-125777773D01*
X115676796Y-125856751D01*
X115609874Y-125978750D01*
X115537456Y-126090125D01*
X115700000Y-126056297D01*
X115700000Y-126533426D01*
X114655617Y-126750558D01*
X114516212Y-126766025D01*
X114406877Y-126752301D01*
X114320067Y-126714287D01*
X114250418Y-126652372D01*
X114200543Y-126573148D01*
X114159977Y-126459647D01*
X114131899Y-126301570D01*
X114121214Y-126086706D01*
X114128135Y-125913866D01*
X114149180Y-125736706D01*
X114197540Y-125478785D01*
X114566713Y-125401971D01*
X114566713Y-125446057D01*
X114500401Y-125653663D01*
X114467426Y-125795363D01*
X114457292Y-125916591D01*
X114464082Y-126049157D01*
X114481569Y-126142390D01*
X114506263Y-126205774D01*
X114546273Y-126252553D01*
X114602560Y-126274556D01*
X114683461Y-126270498D01*
X114691765Y-126268667D01*
X114696450Y-126205774D01*
X114980949Y-126205774D01*
X115301273Y-126139218D01*
X115345636Y-126069608D01*
X115380774Y-125992306D01*
X115403631Y-125912357D01*
X115410816Y-125839898D01*
X115406908Y-125755293D01*
X115397871Y-125708862D01*
X115380917Y-125672149D01*
X115357449Y-125643893D01*
X115328531Y-125623142D01*
X115299930Y-125615561D01*
X115221894Y-125623866D01*
X115155412Y-125647495D01*
X115104902Y-125686270D01*
X115066579Y-125739386D01*
X115037124Y-125810589D01*
X115003541Y-125989986D01*
X114980949Y-126205774D01*
X114696450Y-126205774D01*
X114707673Y-126055131D01*
X114730233Y-125850279D01*
X114766752Y-125655475D01*
X114818161Y-125500645D01*
X114865405Y-125406209D01*
X114921717Y-125325495D01*
X114987177Y-125257013D01*
X115063060Y-125201340D01*
X115154202Y-125157515D01*
X115263293Y-125126099D01*
X115369229Y-125114040D01*
X115460320Y-125123066D01*
G37*
G36*
X115700000Y-127498551D02*
G01*
X115700000Y-127017515D01*
X113574110Y-127459473D01*
X113574110Y-127940509D01*
X115700000Y-127498551D01*
G37*
G36*
X115700000Y-128434002D02*
G01*
X115623429Y-128469905D01*
X115669298Y-128548081D01*
X115703297Y-128633792D01*
X115723717Y-128727905D01*
X115731263Y-128848604D01*
X115717438Y-128989530D01*
X115676034Y-129124319D01*
X115605590Y-129255372D01*
X115502651Y-129384473D01*
X115381757Y-129494286D01*
X115244348Y-129583790D01*
X115088405Y-129653607D01*
X114911217Y-129703332D01*
X114719956Y-129731450D01*
X114563665Y-129732230D01*
X114435978Y-129710703D01*
X114331385Y-129670115D01*
X114256726Y-129620022D01*
X114199334Y-129557688D01*
X114157365Y-129481604D01*
X114130750Y-129388884D01*
X114121214Y-129275540D01*
X114135513Y-129129019D01*
X114177267Y-128997226D01*
X114184826Y-128982205D01*
X114496371Y-128982205D01*
X114504858Y-129068969D01*
X114527331Y-129130679D01*
X114561397Y-129173820D01*
X114607745Y-129202267D01*
X114683455Y-129221438D01*
X114786505Y-129224102D01*
X114925383Y-129204466D01*
X115074881Y-129161587D01*
X115187992Y-129105810D01*
X115271842Y-129038869D01*
X115334998Y-128954245D01*
X115373718Y-128852959D01*
X115387369Y-128730268D01*
X115380530Y-128619382D01*
X115354396Y-128525837D01*
X114578925Y-128687159D01*
X114543463Y-128762114D01*
X114517742Y-128837491D01*
X114501503Y-128913452D01*
X114496371Y-128982205D01*
X114184826Y-128982205D01*
X114240566Y-128871447D01*
X114323325Y-128740282D01*
X113574110Y-128895987D01*
X113574110Y-128414951D01*
X115700000Y-127972993D01*
X115700000Y-128434002D01*
G37*
G36*
X115225385Y-129958568D02*
G01*
X115341092Y-129978788D01*
X115441596Y-130016896D01*
X115529518Y-130072505D01*
X115603825Y-130144724D01*
X115663168Y-130233574D01*
X115707802Y-130341887D01*
X115736549Y-130473575D01*
X115746894Y-130633408D01*
X115732368Y-130826555D01*
X115690606Y-130997141D01*
X115623075Y-131148880D01*
X115529518Y-131284682D01*
X115413006Y-131401940D01*
X115276910Y-131497306D01*
X115118684Y-131571580D01*
X114934787Y-131624180D01*
X114778279Y-131646563D01*
X114643952Y-131646213D01*
X114528077Y-131626258D01*
X114427405Y-131588528D01*
X114339323Y-131533443D01*
X114264873Y-131461761D01*
X114205361Y-131373167D01*
X114160542Y-131264748D01*
X114131632Y-131132476D01*
X114121214Y-130971441D01*
X114126601Y-130899877D01*
X114465108Y-130899877D01*
X114471089Y-130966861D01*
X114488189Y-131024563D01*
X114519121Y-131073600D01*
X114566957Y-131111147D01*
X114626846Y-131135239D01*
X114712159Y-131147906D01*
X114807816Y-131145358D01*
X114937473Y-131125069D01*
X115074041Y-131090067D01*
X115164863Y-131054361D01*
X115241867Y-131008658D01*
X115305303Y-130955076D01*
X115350994Y-130899082D01*
X115380652Y-130838450D01*
X115397462Y-130773715D01*
X115403000Y-130708879D01*
X115396504Y-130636094D01*
X115378576Y-130578332D01*
X115347183Y-130529831D01*
X115301151Y-130492236D01*
X115239944Y-130467715D01*
X115153995Y-130455966D01*
X115058702Y-130459221D01*
X114937473Y-130478192D01*
X114804494Y-130512943D01*
X114705321Y-130552564D01*
X114620064Y-130602292D01*
X114560118Y-130653070D01*
X114511074Y-130715898D01*
X114484159Y-130772260D01*
X114470022Y-130832223D01*
X114465108Y-130899877D01*
X114126601Y-130899877D01*
X114135640Y-130779794D01*
X114177185Y-130609867D01*
X114244483Y-130458082D01*
X114337857Y-130321632D01*
X114454086Y-130203940D01*
X114590387Y-130108125D01*
X114749398Y-130033409D01*
X114934787Y-129980425D01*
X115091203Y-129958064D01*
X115225385Y-129958568D01*
G37*
G36*
X114644870Y-133158757D02*
G01*
X114644870Y-133116015D01*
X114627285Y-133020760D01*
X114621423Y-132908408D01*
X114625010Y-132808119D01*
X114634979Y-132723761D01*
X114652602Y-132640751D01*
X114681018Y-132544487D01*
X115700000Y-132332606D01*
X115700000Y-131851570D01*
X114168108Y-132170062D01*
X114168108Y-132651099D01*
X114393545Y-132604204D01*
X114271702Y-132788396D01*
X114211217Y-132918789D01*
X114178050Y-133042946D01*
X114168108Y-133144347D01*
X114169574Y-133201500D01*
X114173604Y-133256821D01*
X114644870Y-133158757D01*
G37*
G36*
X115225385Y-133270501D02*
G01*
X115341092Y-133290721D01*
X115441596Y-133328829D01*
X115529518Y-133384438D01*
X115603825Y-133456657D01*
X115663168Y-133545507D01*
X115707802Y-133653820D01*
X115736549Y-133785508D01*
X115746894Y-133945341D01*
X115732368Y-134138488D01*
X115690606Y-134309074D01*
X115623075Y-134460813D01*
X115529518Y-134596615D01*
X115413006Y-134713873D01*
X115276910Y-134809239D01*
X115118684Y-134883513D01*
X114934787Y-134936113D01*
X114778279Y-134958496D01*
X114643952Y-134958146D01*
X114528077Y-134938191D01*
X114427405Y-134900461D01*
X114339323Y-134845376D01*
X114264873Y-134773694D01*
X114205361Y-134685100D01*
X114160542Y-134576681D01*
X114131632Y-134444409D01*
X114121214Y-134283374D01*
X114126601Y-134211810D01*
X114465108Y-134211810D01*
X114471089Y-134278794D01*
X114488189Y-134336496D01*
X114519121Y-134385533D01*
X114566957Y-134423080D01*
X114626846Y-134447172D01*
X114712159Y-134459839D01*
X114807816Y-134457291D01*
X114937473Y-134437002D01*
X115074041Y-134402000D01*
X115164863Y-134366294D01*
X115241867Y-134320591D01*
X115305303Y-134267009D01*
X115350994Y-134211015D01*
X115380652Y-134150383D01*
X115397462Y-134085648D01*
X115403000Y-134020812D01*
X115396504Y-133948027D01*
X115378576Y-133890265D01*
X115347183Y-133841764D01*
X115301151Y-133804169D01*
X115239944Y-133779648D01*
X115153995Y-133767899D01*
X115058702Y-133771154D01*
X114937473Y-133790125D01*
X114804494Y-133824876D01*
X114705321Y-133864497D01*
X114620064Y-133914225D01*
X114560118Y-133965003D01*
X114511074Y-134027831D01*
X114484159Y-134084193D01*
X114470022Y-134144156D01*
X114465108Y-134211810D01*
X114126601Y-134211810D01*
X114135640Y-134091727D01*
X114177185Y-133921800D01*
X114244483Y-133770015D01*
X114337857Y-133633565D01*
X114454086Y-133515873D01*
X114590387Y-133420058D01*
X114749398Y-133345342D01*
X114934787Y-133292358D01*
X115091203Y-133269997D01*
X115225385Y-133270501D01*
G37*
G36*
X115700000Y-138003192D02*
G01*
X115700000Y-137373900D01*
X114886793Y-136948307D01*
X115034682Y-136797365D01*
X115700000Y-136659002D01*
X115700000Y-136145847D01*
X113667899Y-136568265D01*
X113667899Y-137081420D01*
X114588695Y-136890055D01*
X113667899Y-137792166D01*
X113667899Y-138387020D01*
X114608234Y-137413834D01*
X115700000Y-138003192D01*
G37*
G36*
X114644870Y-139583321D02*
G01*
X114644870Y-139540579D01*
X114627285Y-139445324D01*
X114621423Y-139332972D01*
X114625010Y-139232682D01*
X114634979Y-139148325D01*
X114652602Y-139065314D01*
X114681018Y-138969050D01*
X115700000Y-138757170D01*
X115700000Y-138276133D01*
X114168108Y-138594626D01*
X114168108Y-139075662D01*
X114393545Y-139028768D01*
X114271702Y-139212960D01*
X114211217Y-139343353D01*
X114178050Y-139467510D01*
X114168108Y-139568911D01*
X114169574Y-139626064D01*
X114173604Y-139681385D01*
X114644870Y-139583321D01*
G37*
G36*
X115239847Y-139696376D02*
G01*
X115354602Y-139721601D01*
X115453337Y-139766670D01*
X115538921Y-139831716D01*
X115608235Y-139912695D01*
X115664902Y-140013810D01*
X115708316Y-140138869D01*
X115736633Y-140292665D01*
X115746894Y-140480792D01*
X115739099Y-140652493D01*
X115716730Y-140806489D01*
X115678653Y-140959139D01*
X115619399Y-141134019D01*
X115223237Y-141216451D01*
X115223237Y-141163084D01*
X115283797Y-141057669D01*
X115345847Y-140911636D01*
X115388991Y-140755919D01*
X115403000Y-140604501D01*
X115390024Y-140446451D01*
X115356217Y-140335824D01*
X115306524Y-140260240D01*
X115255091Y-140217978D01*
X115193499Y-140190782D01*
X115119004Y-140178697D01*
X115027843Y-140183914D01*
X115027843Y-141285083D01*
X114855530Y-141320987D01*
X114673133Y-141345039D01*
X114526263Y-141337938D01*
X114407451Y-141305322D01*
X114310624Y-141249790D01*
X114246973Y-141188483D01*
X114195478Y-141110427D01*
X114156193Y-141012441D01*
X114130545Y-140890224D01*
X114121214Y-140738590D01*
X114128882Y-140636496D01*
X114426029Y-140636496D01*
X114436419Y-140732801D01*
X114463519Y-140797865D01*
X114504553Y-140840561D01*
X114559693Y-140866115D01*
X114635252Y-140876395D01*
X114738660Y-140866817D01*
X114738660Y-140242899D01*
X114634677Y-140281675D01*
X114556925Y-140331725D01*
X114500401Y-140392498D01*
X114459392Y-140465562D01*
X114434564Y-140546234D01*
X114426029Y-140636496D01*
X114128882Y-140636496D01*
X114135942Y-140542492D01*
X114178472Y-140367497D01*
X114247550Y-140210130D01*
X114343597Y-140067655D01*
X114463235Y-139944049D01*
X114601814Y-139844503D01*
X114761722Y-139767866D01*
X114946388Y-139714480D01*
X115105270Y-139692801D01*
X115239847Y-139696376D01*
G37*
G36*
X115687299Y-142487857D02*
G01*
X115719539Y-142316643D01*
X115731263Y-142101831D01*
X115722162Y-141957644D01*
X115697846Y-141848682D01*
X115661716Y-141767537D01*
X115615491Y-141708234D01*
X115555186Y-141666139D01*
X115474006Y-141640543D01*
X115364973Y-141634320D01*
X115219207Y-141653646D01*
X114504187Y-141802267D01*
X114504187Y-141604431D01*
X114168108Y-141674284D01*
X114168108Y-141872121D01*
X113730425Y-141963101D01*
X113730425Y-142444138D01*
X114168108Y-142353157D01*
X114168108Y-142803663D01*
X114504187Y-142733810D01*
X114504187Y-142283304D01*
X115044818Y-142170830D01*
X115184647Y-142143108D01*
X115242846Y-142137391D01*
X115291992Y-142142254D01*
X115334417Y-142159210D01*
X115367341Y-142192690D01*
X115387068Y-142241452D01*
X115395184Y-142325314D01*
X115378698Y-142427041D01*
X115348290Y-142518143D01*
X115348290Y-142558321D01*
X115687299Y-142487857D01*
G37*
G36*
X115239847Y-142828547D02*
G01*
X115354602Y-142853771D01*
X115453337Y-142898840D01*
X115538921Y-142963886D01*
X115608235Y-143044865D01*
X115664902Y-143145980D01*
X115708316Y-143271039D01*
X115736633Y-143424835D01*
X115746894Y-143612962D01*
X115739099Y-143784663D01*
X115716730Y-143938660D01*
X115678653Y-144091309D01*
X115619399Y-144266189D01*
X115223237Y-144348621D01*
X115223237Y-144295254D01*
X115283797Y-144189839D01*
X115345847Y-144043806D01*
X115388991Y-143888089D01*
X115403000Y-143736671D01*
X115390024Y-143578622D01*
X115356217Y-143467994D01*
X115306524Y-143392411D01*
X115255091Y-143350148D01*
X115193499Y-143322953D01*
X115119004Y-143310867D01*
X115027843Y-143316085D01*
X115027843Y-144417254D01*
X114855530Y-144453157D01*
X114673133Y-144477209D01*
X114526263Y-144470109D01*
X114407451Y-144437493D01*
X114310624Y-144381960D01*
X114246973Y-144320653D01*
X114195478Y-144242597D01*
X114156193Y-144144611D01*
X114130545Y-144022394D01*
X114121214Y-143870760D01*
X114128882Y-143768667D01*
X114426029Y-143768667D01*
X114436419Y-143864971D01*
X114463519Y-143930035D01*
X114504553Y-143972732D01*
X114559693Y-143998285D01*
X114635252Y-144008565D01*
X114738660Y-143998988D01*
X114738660Y-143375069D01*
X114634677Y-143413845D01*
X114556925Y-143463896D01*
X114500401Y-143524668D01*
X114459392Y-143597732D01*
X114434564Y-143678404D01*
X114426029Y-143768667D01*
X114128882Y-143768667D01*
X114135942Y-143674662D01*
X114178472Y-143499668D01*
X114247550Y-143342300D01*
X114343597Y-143199825D01*
X114463235Y-143076219D01*
X114601814Y-142976673D01*
X114761722Y-142900036D01*
X114946388Y-142846650D01*
X115105270Y-142824971D01*
X115239847Y-142828547D01*
G37*
G36*
X115700000Y-146250662D02*
G01*
X115700000Y-145690736D01*
X115032972Y-145408513D01*
X115195272Y-145243649D01*
X115700000Y-145138747D01*
X115700000Y-144657711D01*
X113574110Y-145099668D01*
X113574110Y-145580704D01*
X114844661Y-145316556D01*
X114168108Y-145975767D01*
X114168108Y-146530443D01*
X114828297Y-145853279D01*
X115700000Y-146250662D01*
G37*
G36*
X119060000Y-72355478D02*
G01*
X119050541Y-72586199D01*
X119024584Y-72774476D01*
X118975513Y-72951057D01*
X118898921Y-73119836D01*
X118809302Y-73258040D01*
X118695314Y-73388636D01*
X118554417Y-73512212D01*
X118398367Y-73615102D01*
X118229572Y-73692449D01*
X118046025Y-73744853D01*
X117895668Y-73767867D01*
X117761627Y-73772330D01*
X117641628Y-73760293D01*
X117533604Y-73733129D01*
X117397070Y-73671966D01*
X117282666Y-73588387D01*
X117187512Y-73481071D01*
X117122088Y-73365910D01*
X117069542Y-73208862D01*
X117039275Y-73031568D01*
X117027899Y-72797923D01*
X117027899Y-72509961D01*
X117410872Y-72509961D01*
X117410872Y-72639532D01*
X117415112Y-72794396D01*
X117425160Y-72884385D01*
X117445692Y-72961463D01*
X117478771Y-73034351D01*
X117540374Y-73117181D01*
X117613847Y-73176342D01*
X117701032Y-73214602D01*
X117796385Y-73232801D01*
X117908987Y-73233986D01*
X118042606Y-73215090D01*
X118173955Y-73179956D01*
X118285607Y-73134452D01*
X118380150Y-73079413D01*
X118464366Y-73010510D01*
X118536886Y-72927335D01*
X118598258Y-72828332D01*
X118636530Y-72736782D01*
X118660052Y-72648447D01*
X118672007Y-72547644D01*
X118677027Y-72376360D01*
X118677027Y-72246789D01*
X117410872Y-72509961D01*
X117027899Y-72509961D01*
X117027899Y-72076430D01*
X119060000Y-71654012D01*
X119060000Y-72355478D01*
G37*
G36*
X118820320Y-73925857D02*
G01*
X118899980Y-73953856D01*
X118970851Y-74000942D01*
X119029182Y-74063438D01*
X119071256Y-74137525D01*
X119097570Y-74225536D01*
X119106894Y-74330792D01*
X119102289Y-74420007D01*
X119088942Y-74501517D01*
X119067059Y-74580565D01*
X119036796Y-74659542D01*
X118969874Y-74781542D01*
X118897456Y-74892916D01*
X119060000Y-74859089D01*
X119060000Y-75336217D01*
X118015617Y-75553349D01*
X117876212Y-75568816D01*
X117766877Y-75555092D01*
X117680067Y-75517078D01*
X117610418Y-75455163D01*
X117560543Y-75375939D01*
X117519977Y-75262439D01*
X117491899Y-75104361D01*
X117481214Y-74889497D01*
X117488135Y-74716657D01*
X117509180Y-74539497D01*
X117557540Y-74281577D01*
X117926713Y-74204762D01*
X117926713Y-74248848D01*
X117860401Y-74456454D01*
X117827426Y-74598154D01*
X117817292Y-74719382D01*
X117824082Y-74851949D01*
X117841569Y-74945181D01*
X117866263Y-75008565D01*
X117906273Y-75055344D01*
X117962560Y-75077348D01*
X118043461Y-75073290D01*
X118051765Y-75071458D01*
X118056450Y-75008565D01*
X118340949Y-75008565D01*
X118661273Y-74942009D01*
X118705636Y-74872399D01*
X118740774Y-74795097D01*
X118763631Y-74715149D01*
X118770816Y-74642690D01*
X118766908Y-74558084D01*
X118757871Y-74511653D01*
X118740917Y-74474941D01*
X118717449Y-74446685D01*
X118688531Y-74425934D01*
X118659930Y-74418353D01*
X118581894Y-74426657D01*
X118515412Y-74450286D01*
X118464902Y-74489061D01*
X118426579Y-74542177D01*
X118397124Y-74613381D01*
X118363541Y-74792777D01*
X118340949Y-75008565D01*
X118056450Y-75008565D01*
X118067673Y-74857922D01*
X118090233Y-74653070D01*
X118126752Y-74458267D01*
X118178161Y-74303436D01*
X118225405Y-74209000D01*
X118281717Y-74128287D01*
X118347177Y-74059804D01*
X118423060Y-74004132D01*
X118514202Y-73960307D01*
X118623293Y-73928890D01*
X118729229Y-73916832D01*
X118820320Y-73925857D01*
G37*
G36*
X119060000Y-76301343D02*
G01*
X119060000Y-75820307D01*
X116934110Y-76262264D01*
X116934110Y-76743300D01*
X119060000Y-76301343D01*
G37*
G36*
X118820320Y-76751258D02*
G01*
X118899980Y-76779258D01*
X118970851Y-76826343D01*
X119029182Y-76888839D01*
X119071256Y-76962926D01*
X119097570Y-77050937D01*
X119106894Y-77156193D01*
X119102289Y-77245408D01*
X119088942Y-77326919D01*
X119067059Y-77405966D01*
X119036796Y-77484944D01*
X118969874Y-77606943D01*
X118897456Y-77718318D01*
X119060000Y-77684490D01*
X119060000Y-78161618D01*
X118015617Y-78378750D01*
X117876212Y-78394217D01*
X117766877Y-78380493D01*
X117680067Y-78342479D01*
X117610418Y-78280565D01*
X117560543Y-78201340D01*
X117519977Y-78087840D01*
X117491899Y-77929762D01*
X117481214Y-77714898D01*
X117488135Y-77542059D01*
X117509180Y-77364898D01*
X117557540Y-77106978D01*
X117926713Y-77030163D01*
X117926713Y-77074249D01*
X117860401Y-77281856D01*
X117827426Y-77423555D01*
X117817292Y-77544783D01*
X117824082Y-77677350D01*
X117841569Y-77770582D01*
X117866263Y-77833967D01*
X117906273Y-77880745D01*
X117962560Y-77902749D01*
X118043461Y-77898691D01*
X118051765Y-77896859D01*
X118056450Y-77833967D01*
X118340949Y-77833967D01*
X118661273Y-77767411D01*
X118705636Y-77697800D01*
X118740774Y-77620498D01*
X118763631Y-77540550D01*
X118770816Y-77468091D01*
X118766908Y-77383485D01*
X118757871Y-77337055D01*
X118740917Y-77300342D01*
X118717449Y-77272086D01*
X118688531Y-77251335D01*
X118659930Y-77243754D01*
X118581894Y-77252058D01*
X118515412Y-77275687D01*
X118464902Y-77314462D01*
X118426579Y-77367579D01*
X118397124Y-77438782D01*
X118363541Y-77618178D01*
X118340949Y-77833967D01*
X118056450Y-77833967D01*
X118067673Y-77683324D01*
X118090233Y-77478471D01*
X118126752Y-77283668D01*
X118178161Y-77128838D01*
X118225405Y-77034401D01*
X118281717Y-76953688D01*
X118347177Y-76885205D01*
X118423060Y-76829533D01*
X118514202Y-76785708D01*
X118623293Y-76754291D01*
X118729229Y-76742233D01*
X118820320Y-76751258D01*
G37*
G36*
X117971409Y-80339410D02*
G01*
X119060000Y-80113119D01*
X119060000Y-79629274D01*
X118292833Y-79788764D01*
X118102079Y-79823080D01*
X118027084Y-79827771D01*
X117974218Y-79820272D01*
X117931512Y-79798782D01*
X117902411Y-79762386D01*
X117886369Y-79712279D01*
X117879818Y-79630006D01*
X117886989Y-79559578D01*
X117909249Y-79486270D01*
X117971409Y-79353035D01*
X119060000Y-79126744D01*
X119060000Y-78645708D01*
X117528108Y-78964200D01*
X117528108Y-79445237D01*
X117693217Y-79410921D01*
X117601705Y-79555599D01*
X117537267Y-79681297D01*
X117495236Y-79809635D01*
X117481214Y-79944225D01*
X117489341Y-80041115D01*
X117512312Y-80122768D01*
X117548991Y-80192009D01*
X117600188Y-80250509D01*
X117665635Y-80295817D01*
X117748049Y-80328297D01*
X117633841Y-80498805D01*
X117552411Y-80649720D01*
X117511508Y-80752347D01*
X117488515Y-80845843D01*
X117481214Y-80931821D01*
X117492115Y-81052544D01*
X117521831Y-81145398D01*
X117567814Y-81216569D01*
X117630324Y-81270219D01*
X117705302Y-81305727D01*
X117798534Y-81325741D01*
X117914842Y-81327701D01*
X118059947Y-81307222D01*
X119060000Y-81099249D01*
X119060000Y-80615526D01*
X118292833Y-80775017D01*
X118101346Y-80810188D01*
X118027004Y-80815288D01*
X117974218Y-80807745D01*
X117931605Y-80787156D01*
X117902411Y-80750471D01*
X117886371Y-80699707D01*
X117879818Y-80616381D01*
X117885020Y-80556477D01*
X117901067Y-80494382D01*
X117971409Y-80339410D01*
G37*
G36*
X117528108Y-85275314D02*
G01*
X119060000Y-84491782D01*
X119060000Y-83981315D01*
X118027341Y-83889968D01*
X119060000Y-83374616D01*
X119060000Y-82857431D01*
X117528108Y-82714794D01*
X117528108Y-83220010D01*
X118583970Y-83257013D01*
X117528108Y-83797278D01*
X117528108Y-84223604D01*
X118583970Y-84308722D01*
X117528108Y-84780844D01*
X117528108Y-85275314D01*
G37*
G36*
X118820320Y-85280219D02*
G01*
X118899980Y-85308218D01*
X118970851Y-85355303D01*
X119029182Y-85417799D01*
X119071256Y-85491886D01*
X119097570Y-85579897D01*
X119106894Y-85685153D01*
X119102289Y-85774368D01*
X119088942Y-85855879D01*
X119067059Y-85934926D01*
X119036796Y-86013904D01*
X118969874Y-86135903D01*
X118897456Y-86247278D01*
X119060000Y-86213450D01*
X119060000Y-86690579D01*
X118015617Y-86907711D01*
X117876212Y-86923177D01*
X117766877Y-86909454D01*
X117680067Y-86871439D01*
X117610418Y-86809525D01*
X117560543Y-86730301D01*
X117519977Y-86616800D01*
X117491899Y-86458723D01*
X117481214Y-86243859D01*
X117488135Y-86071019D01*
X117509180Y-85893859D01*
X117557540Y-85635938D01*
X117926713Y-85559124D01*
X117926713Y-85603210D01*
X117860401Y-85810816D01*
X117827426Y-85952516D01*
X117817292Y-86073743D01*
X117824082Y-86206310D01*
X117841569Y-86299543D01*
X117866263Y-86362927D01*
X117906273Y-86409705D01*
X117962560Y-86431709D01*
X118043461Y-86427651D01*
X118051765Y-86425819D01*
X118056450Y-86362927D01*
X118340949Y-86362927D01*
X118661273Y-86296371D01*
X118705636Y-86226760D01*
X118740774Y-86149459D01*
X118763631Y-86069510D01*
X118770816Y-85997051D01*
X118766908Y-85912446D01*
X118757871Y-85866015D01*
X118740917Y-85829302D01*
X118717449Y-85801046D01*
X118688531Y-85780295D01*
X118659930Y-85772714D01*
X118581894Y-85781018D01*
X118515412Y-85804647D01*
X118464902Y-85843422D01*
X118426579Y-85896539D01*
X118397124Y-85967742D01*
X118363541Y-86147138D01*
X118340949Y-86362927D01*
X118056450Y-86362927D01*
X118067673Y-86212284D01*
X118090233Y-86007431D01*
X118126752Y-85812628D01*
X118178161Y-85657798D01*
X118225405Y-85563362D01*
X118281717Y-85482648D01*
X118347177Y-85414166D01*
X118423060Y-85358493D01*
X118514202Y-85314668D01*
X118623293Y-85283251D01*
X118729229Y-85271193D01*
X118820320Y-85280219D01*
G37*
G36*
X119060000Y-88767620D02*
G01*
X119060000Y-88207693D01*
X118392972Y-87925471D01*
X118555272Y-87760607D01*
X119060000Y-87655704D01*
X119060000Y-87174668D01*
X116934110Y-87616625D01*
X116934110Y-88097662D01*
X118204661Y-87833513D01*
X117528108Y-88492725D01*
X117528108Y-89047400D01*
X118188297Y-88370237D01*
X119060000Y-88767620D01*
G37*
G36*
X119047299Y-90014724D02*
G01*
X119079539Y-89843510D01*
X119091263Y-89628698D01*
X119082162Y-89484511D01*
X119057846Y-89375549D01*
X119021716Y-89294404D01*
X118975491Y-89235101D01*
X118915186Y-89193005D01*
X118834006Y-89167409D01*
X118724973Y-89161187D01*
X118579207Y-89180512D01*
X117864187Y-89329134D01*
X117864187Y-89131297D01*
X117528108Y-89201151D01*
X117528108Y-89398988D01*
X117090425Y-89489968D01*
X117090425Y-89971004D01*
X117528108Y-89880024D01*
X117528108Y-90330530D01*
X117864187Y-90260676D01*
X117864187Y-89810170D01*
X118404818Y-89697697D01*
X118544647Y-89669975D01*
X118602846Y-89664258D01*
X118651992Y-89669120D01*
X118694417Y-89686077D01*
X118727341Y-89719556D01*
X118747068Y-89768319D01*
X118755184Y-89852180D01*
X118738698Y-89953907D01*
X118708290Y-90045010D01*
X118708290Y-90085188D01*
X119047299Y-90014724D01*
G37*
G36*
X119060000Y-91821877D02*
G01*
X119060000Y-91340718D01*
X118894891Y-91375034D01*
X118989818Y-91221902D01*
X119052916Y-91097575D01*
X119092926Y-90969973D01*
X119106894Y-90821824D01*
X119096211Y-90698024D01*
X119066996Y-90601635D01*
X119021778Y-90526790D01*
X118960593Y-90469382D01*
X118886436Y-90430480D01*
X118793331Y-90408004D01*
X118676020Y-90404561D01*
X118528161Y-90424930D01*
X117528108Y-90632903D01*
X117528108Y-91116625D01*
X118289780Y-90958234D01*
X118483342Y-90925261D01*
X118557153Y-90923025D01*
X118611203Y-90932833D01*
X118655004Y-90955711D01*
X118685087Y-90994382D01*
X118701574Y-91047210D01*
X118708290Y-91133234D01*
X118702939Y-91196428D01*
X118685087Y-91274284D01*
X118656713Y-91352858D01*
X118616699Y-91432920D01*
X117528108Y-91659211D01*
X117528108Y-92140369D01*
X119060000Y-91821877D01*
G37*
G36*
X119060000Y-94731542D02*
G01*
X119060000Y-93403227D01*
X118708290Y-93476378D01*
X118708290Y-93895987D01*
X117629713Y-94120202D01*
X117629713Y-93700593D01*
X117301451Y-93768859D01*
X117289972Y-93955582D01*
X117273638Y-94042327D01*
X117250282Y-94110921D01*
X117210629Y-94181001D01*
X117162721Y-94233286D01*
X117103428Y-94272630D01*
X117027899Y-94301430D01*
X117027899Y-94743754D01*
X118708290Y-94394487D01*
X118708290Y-94804692D01*
X119060000Y-94731542D01*
G37*
G36*
X119060000Y-98332292D02*
G01*
X119060000Y-97821824D01*
X117699689Y-98104658D01*
X118583237Y-97552180D01*
X118583237Y-97198028D01*
X117699689Y-97012892D01*
X119060000Y-96730059D01*
X119060000Y-96246336D01*
X117027899Y-96668754D01*
X117027899Y-97264584D01*
X118047979Y-97500279D01*
X117027899Y-98158757D01*
X117027899Y-98754710D01*
X119060000Y-98332292D01*
G37*
G36*
X119060000Y-99353960D02*
G01*
X119060000Y-98872923D01*
X117528108Y-99191416D01*
X117528108Y-99672452D01*
X119060000Y-99353960D01*
G37*
G36*
X117309267Y-99731315D02*
G01*
X117309267Y-99223534D01*
X116934110Y-99301570D01*
X116934110Y-99809351D01*
X117309267Y-99731315D01*
G37*
G36*
X119060000Y-101335746D02*
G01*
X119060000Y-100852145D01*
X118298328Y-101010537D01*
X118112948Y-101039602D01*
X118026543Y-101043350D01*
X117976905Y-101035938D01*
X117933094Y-101012016D01*
X117903143Y-100973046D01*
X117886568Y-100920209D01*
X117879818Y-100834193D01*
X117885096Y-100768181D01*
X117901678Y-100696563D01*
X117928689Y-100623524D01*
X117971409Y-100535729D01*
X119060000Y-100309438D01*
X119060000Y-99828401D01*
X117528108Y-100146894D01*
X117528108Y-100627930D01*
X117693217Y-100593614D01*
X117599978Y-100742914D01*
X117535924Y-100872906D01*
X117494972Y-101005828D01*
X117481214Y-101146824D01*
X117491690Y-101267762D01*
X117520501Y-101363128D01*
X117565351Y-101438271D01*
X117626294Y-101496946D01*
X117699906Y-101536967D01*
X117792868Y-101560259D01*
X117910664Y-101564168D01*
X118059947Y-101543719D01*
X119060000Y-101335746D01*
G37*
G36*
X119596744Y-101879077D02*
G01*
X119619071Y-102021214D01*
X119633485Y-102170124D01*
X119638367Y-102325174D01*
X119628594Y-102513164D01*
X119600753Y-102678471D01*
X119550833Y-102832144D01*
X119478632Y-102965212D01*
X119417459Y-103043427D01*
X119341157Y-103115445D01*
X119247944Y-103181489D01*
X119146619Y-103234923D01*
X119026513Y-103280461D01*
X118884877Y-103317166D01*
X117528108Y-103599267D01*
X117528108Y-103132885D01*
X117591978Y-103102233D01*
X117546192Y-103027031D01*
X117510645Y-102938101D01*
X117489591Y-102843335D01*
X117840739Y-102843335D01*
X117850997Y-102949459D01*
X117879085Y-103045080D01*
X118576399Y-102900122D01*
X118610979Y-102832759D01*
X118638192Y-102760415D01*
X118655704Y-102685927D01*
X118661395Y-102613991D01*
X118650048Y-102512045D01*
X118619990Y-102440907D01*
X118573712Y-102392219D01*
X118511421Y-102364997D01*
X118413570Y-102356356D01*
X118264134Y-102375732D01*
X118135795Y-102413833D01*
X118033400Y-102467320D01*
X117952480Y-102535345D01*
X117891454Y-102620112D01*
X117853958Y-102721254D01*
X117840739Y-102843335D01*
X117489591Y-102843335D01*
X117488986Y-102840611D01*
X117481214Y-102723046D01*
X117494211Y-102588576D01*
X117534581Y-102447906D01*
X117598765Y-102315287D01*
X117683447Y-102199877D01*
X117794424Y-102092939D01*
X117924026Y-102002896D01*
X118071007Y-101933856D01*
X118252044Y-101882484D01*
X118458332Y-101853077D01*
X118619477Y-101855505D01*
X118744901Y-101882813D01*
X118842501Y-101930844D01*
X118909601Y-101987555D01*
X118962551Y-102057825D01*
X119002064Y-102143826D01*
X119027426Y-102248825D01*
X119036552Y-102376953D01*
X119025801Y-102503610D01*
X118994176Y-102620830D01*
X118944454Y-102731803D01*
X118879382Y-102837107D01*
X118907958Y-102831245D01*
X118998880Y-102807320D01*
X119070868Y-102778611D01*
X119133616Y-102740810D01*
X119182365Y-102695446D01*
X119222054Y-102635341D01*
X119253684Y-102552808D01*
X119271920Y-102458248D01*
X119278841Y-102330425D01*
X119271918Y-102228122D01*
X119249532Y-102109385D01*
X119217372Y-101994066D01*
X119185052Y-101907641D01*
X119185052Y-101848900D01*
X119572177Y-101768422D01*
X119596744Y-101879077D01*
G37*
G36*
X119596744Y-103836928D02*
G01*
X119619071Y-103979064D01*
X119633485Y-104127975D01*
X119638367Y-104283025D01*
X119628594Y-104471015D01*
X119600753Y-104636322D01*
X119550833Y-104789995D01*
X119478632Y-104923063D01*
X119417459Y-105001278D01*
X119341157Y-105073296D01*
X119247944Y-105139340D01*
X119146619Y-105192774D01*
X119026513Y-105238311D01*
X118884877Y-105275017D01*
X117528108Y-105557117D01*
X117528108Y-105090736D01*
X117591978Y-105060083D01*
X117546192Y-104984882D01*
X117510645Y-104895952D01*
X117489591Y-104801186D01*
X117840739Y-104801186D01*
X117850997Y-104907309D01*
X117879085Y-105002930D01*
X118576399Y-104857972D01*
X118610979Y-104790609D01*
X118638192Y-104718265D01*
X118655704Y-104643777D01*
X118661395Y-104571842D01*
X118650048Y-104469895D01*
X118619990Y-104398758D01*
X118573712Y-104350069D01*
X118511421Y-104322848D01*
X118413570Y-104314207D01*
X118264134Y-104333583D01*
X118135795Y-104371683D01*
X118033400Y-104425171D01*
X117952480Y-104493196D01*
X117891454Y-104577963D01*
X117853958Y-104679105D01*
X117840739Y-104801186D01*
X117489591Y-104801186D01*
X117488986Y-104798461D01*
X117481214Y-104680896D01*
X117494211Y-104546426D01*
X117534581Y-104405757D01*
X117598765Y-104273138D01*
X117683447Y-104157728D01*
X117794424Y-104050789D01*
X117924026Y-103960746D01*
X118071007Y-103891707D01*
X118252044Y-103840334D01*
X118458332Y-103810928D01*
X118619477Y-103813356D01*
X118744901Y-103840664D01*
X118842501Y-103888695D01*
X118909601Y-103945406D01*
X118962551Y-104015675D01*
X119002064Y-104101677D01*
X119027426Y-104206676D01*
X119036552Y-104334804D01*
X119025801Y-104461461D01*
X118994176Y-104578681D01*
X118944454Y-104689654D01*
X118879382Y-104794958D01*
X118907958Y-104789096D01*
X118998880Y-104765171D01*
X119070868Y-104736461D01*
X119133616Y-104698661D01*
X119182365Y-104653297D01*
X119222054Y-104593192D01*
X119253684Y-104510659D01*
X119271920Y-104416099D01*
X119278841Y-104288276D01*
X119271918Y-104185973D01*
X119249532Y-104067236D01*
X119217372Y-103951916D01*
X119185052Y-103865491D01*
X119185052Y-103806751D01*
X119572177Y-103726273D01*
X119596744Y-103836928D01*
G37*
G36*
X119060000Y-107232623D02*
G01*
X119060000Y-106751465D01*
X118894891Y-106785781D01*
X118989818Y-106632649D01*
X119052916Y-106508321D01*
X119092926Y-106380720D01*
X119106894Y-106232571D01*
X119096211Y-106108771D01*
X119066996Y-106012381D01*
X119021778Y-105937537D01*
X118960593Y-105880129D01*
X118886436Y-105841227D01*
X118793331Y-105818751D01*
X118676020Y-105815308D01*
X118528161Y-105835676D01*
X117528108Y-106043649D01*
X117528108Y-106527372D01*
X118289780Y-106368981D01*
X118483342Y-106336008D01*
X118557153Y-106333771D01*
X118611203Y-106343579D01*
X118655004Y-106366458D01*
X118685087Y-106405129D01*
X118701574Y-106457956D01*
X118708290Y-106543981D01*
X118702939Y-106607175D01*
X118685087Y-106685031D01*
X118656713Y-106763604D01*
X118616699Y-106843667D01*
X117528108Y-107069958D01*
X117528108Y-107551116D01*
X119060000Y-107232623D01*
G37*
G36*
X118651666Y-108709398D02*
G01*
X118781686Y-108733689D01*
X118890129Y-108778436D01*
X118968292Y-108832456D01*
X119027729Y-108897059D01*
X119070604Y-108973395D01*
X119097407Y-109063821D01*
X119106894Y-109171667D01*
X119093759Y-109309071D01*
X119055481Y-109432274D01*
X118994171Y-109552297D01*
X118900143Y-109697034D01*
X119060000Y-109663817D01*
X119060000Y-110144975D01*
X116934110Y-110586933D01*
X116934110Y-110105774D01*
X117585017Y-109970464D01*
X117510645Y-109808897D01*
X117489498Y-109721658D01*
X117488583Y-109707536D01*
X117840739Y-109707536D01*
X117850387Y-109808408D01*
X117882016Y-109908670D01*
X118639658Y-109751256D01*
X118676582Y-109683775D01*
X118706336Y-109607763D01*
X118725765Y-109530143D01*
X118731737Y-109463538D01*
X118718441Y-109356871D01*
X118683539Y-109285847D01*
X118629277Y-109240177D01*
X118558372Y-109216765D01*
X118453060Y-109211449D01*
X118300038Y-109232484D01*
X118160875Y-109272921D01*
X118049975Y-109328290D01*
X117962494Y-109397470D01*
X117895499Y-109484245D01*
X117854915Y-109586117D01*
X117840739Y-109707536D01*
X117488583Y-109707536D01*
X117481214Y-109593841D01*
X117494866Y-109464042D01*
X117538122Y-109322732D01*
X117606550Y-109188597D01*
X117697979Y-109069085D01*
X117815799Y-108959354D01*
X117957976Y-108863311D01*
X118117721Y-108788989D01*
X118305655Y-108735572D01*
X118494967Y-108708436D01*
X118651666Y-108709398D01*
G37*
G36*
X119060000Y-111124511D02*
G01*
X119060000Y-110643475D01*
X117528108Y-110961967D01*
X117528108Y-111443004D01*
X119060000Y-111124511D01*
G37*
G36*
X117309267Y-111501866D02*
G01*
X117309267Y-110994085D01*
X116934110Y-111072121D01*
X116934110Y-111579902D01*
X117309267Y-111501866D01*
G37*
G36*
X119060000Y-114438642D02*
G01*
X119060000Y-113809351D01*
X118246793Y-113383757D01*
X118394682Y-113232815D01*
X119060000Y-113094452D01*
X119060000Y-112581297D01*
X117027899Y-113003715D01*
X117027899Y-113516870D01*
X117948695Y-113325505D01*
X117027899Y-114227616D01*
X117027899Y-114822470D01*
X117968234Y-113849284D01*
X119060000Y-114438642D01*
G37*
G36*
X118599847Y-114740619D02*
G01*
X118714602Y-114765844D01*
X118813337Y-114810913D01*
X118898921Y-114875959D01*
X118968235Y-114956937D01*
X119024902Y-115058052D01*
X119068316Y-115183111D01*
X119096633Y-115336908D01*
X119106894Y-115525034D01*
X119099099Y-115696735D01*
X119076730Y-115850732D01*
X119038653Y-116003382D01*
X118979399Y-116178262D01*
X118583237Y-116260694D01*
X118583237Y-116207327D01*
X118643797Y-116101911D01*
X118705847Y-115955879D01*
X118748991Y-115800162D01*
X118763000Y-115648743D01*
X118750024Y-115490694D01*
X118716217Y-115380067D01*
X118666524Y-115304483D01*
X118615091Y-115262221D01*
X118553499Y-115235025D01*
X118479004Y-115222940D01*
X118387843Y-115228157D01*
X118387843Y-116329326D01*
X118215530Y-116365230D01*
X118033133Y-116389281D01*
X117886263Y-116382181D01*
X117767451Y-116349565D01*
X117670624Y-116294033D01*
X117606973Y-116232726D01*
X117555478Y-116154670D01*
X117516193Y-116056683D01*
X117490545Y-115934467D01*
X117481214Y-115782833D01*
X117488882Y-115680739D01*
X117786029Y-115680739D01*
X117796419Y-115777044D01*
X117823519Y-115842107D01*
X117864553Y-115884804D01*
X117919693Y-115910358D01*
X117995252Y-115920637D01*
X118098660Y-115911060D01*
X118098660Y-115287142D01*
X117994677Y-115325917D01*
X117916925Y-115375968D01*
X117860401Y-115436741D01*
X117819392Y-115509805D01*
X117794564Y-115590477D01*
X117786029Y-115680739D01*
X117488882Y-115680739D01*
X117495942Y-115586734D01*
X117538472Y-115411740D01*
X117607550Y-115254373D01*
X117703597Y-115111898D01*
X117823235Y-114988291D01*
X117961814Y-114888746D01*
X118121722Y-114812109D01*
X118306388Y-114758722D01*
X118465270Y-114737044D01*
X118599847Y-114740619D01*
G37*
G36*
X118576032Y-117974790D02*
G01*
X118687798Y-117938960D01*
X118788051Y-117880486D01*
X118878780Y-117797526D01*
X118960837Y-117686339D01*
X119022290Y-117565161D01*
X119067935Y-117426501D01*
X119096751Y-117267600D01*
X119106894Y-117085258D01*
X119096829Y-116890902D01*
X119068914Y-116729640D01*
X119026329Y-116583649D01*
X118984773Y-116485275D01*
X118583237Y-116568806D01*
X118583237Y-116612892D01*
X118636605Y-116685310D01*
X118698886Y-116806699D01*
X118725624Y-116878400D01*
X118749689Y-116965701D01*
X118765326Y-117058712D01*
X118770816Y-117164515D01*
X118761996Y-117297393D01*
X118740286Y-117380669D01*
X118715081Y-117425548D01*
X118685238Y-117453314D01*
X118650038Y-117467620D01*
X118599833Y-117467185D01*
X118568461Y-117444417D01*
X118546524Y-117399785D01*
X118519734Y-117302267D01*
X118492990Y-117162805D01*
X118457941Y-117003681D01*
X118411013Y-116880916D01*
X118353799Y-116794267D01*
X118287215Y-116735868D01*
X118206882Y-116699287D01*
X118112252Y-116685452D01*
X117998398Y-116697034D01*
X117894908Y-116730663D01*
X117799764Y-116786967D01*
X117711269Y-116868337D01*
X117628736Y-116979012D01*
X117566526Y-117098803D01*
X117520445Y-117235413D01*
X117491416Y-117391509D01*
X117481214Y-117570202D01*
X117490216Y-117735470D01*
X117516263Y-117885642D01*
X117555122Y-118023377D01*
X117591123Y-118111322D01*
X117981423Y-118030111D01*
X117981423Y-117988712D01*
X117916486Y-117889936D01*
X117862965Y-117769382D01*
X117828811Y-117639360D01*
X117817292Y-117501692D01*
X117825565Y-117389890D01*
X117848433Y-117299459D01*
X117874567Y-117246724D01*
X117903863Y-117216109D01*
X117936727Y-117201639D01*
X117986751Y-117201030D01*
X118020380Y-117220324D01*
X118044942Y-117263668D01*
X118078021Y-117378105D01*
X118107575Y-117530146D01*
X118143845Y-117693178D01*
X118187507Y-117806877D01*
X118241062Y-117886852D01*
X118303702Y-117940474D01*
X118379091Y-117973709D01*
X118468317Y-117986033D01*
X118576032Y-117974790D01*
G37*
G36*
X119060000Y-118711671D02*
G01*
X119060000Y-118230635D01*
X117528108Y-118549127D01*
X117528108Y-119030163D01*
X119060000Y-118711671D01*
G37*
G36*
X117309267Y-119089026D02*
G01*
X117309267Y-118581245D01*
X116934110Y-118659281D01*
X116934110Y-119167062D01*
X117309267Y-119089026D01*
G37*
G36*
X119060000Y-120693457D02*
G01*
X119060000Y-120209856D01*
X118298328Y-120368248D01*
X118112948Y-120397313D01*
X118026543Y-120401061D01*
X117976905Y-120393649D01*
X117933094Y-120369728D01*
X117903143Y-120330757D01*
X117886568Y-120277920D01*
X117879818Y-120191905D01*
X117885096Y-120125892D01*
X117901678Y-120054274D01*
X117928689Y-119981235D01*
X117971409Y-119893440D01*
X119060000Y-119667149D01*
X119060000Y-119186113D01*
X117528108Y-119504605D01*
X117528108Y-119985642D01*
X117693217Y-119951325D01*
X117599978Y-120100625D01*
X117535924Y-120230617D01*
X117494972Y-120363539D01*
X117481214Y-120504535D01*
X117491690Y-120625473D01*
X117520501Y-120720839D01*
X117565351Y-120795983D01*
X117626294Y-120854658D01*
X117699906Y-120894678D01*
X117792868Y-120917970D01*
X117910664Y-120921879D01*
X118059947Y-120901430D01*
X119060000Y-120693457D01*
G37*
G36*
X118651666Y-121202908D02*
G01*
X118781686Y-121227199D01*
X118890129Y-121271946D01*
X118968292Y-121325966D01*
X119027729Y-121390569D01*
X119070604Y-121466906D01*
X119097407Y-121557331D01*
X119106894Y-121665177D01*
X119093759Y-121802581D01*
X119055481Y-121925785D01*
X118994171Y-122045808D01*
X118900143Y-122190544D01*
X119060000Y-122157327D01*
X119060000Y-122638485D01*
X116934110Y-123080443D01*
X116934110Y-122599284D01*
X117585017Y-122463974D01*
X117510645Y-122302407D01*
X117489498Y-122215168D01*
X117488583Y-122201046D01*
X117840739Y-122201046D01*
X117850387Y-122301919D01*
X117882016Y-122402180D01*
X118639658Y-122244766D01*
X118676582Y-122177285D01*
X118706336Y-122101273D01*
X118725765Y-122023653D01*
X118731737Y-121957048D01*
X118718441Y-121850381D01*
X118683539Y-121779357D01*
X118629277Y-121733688D01*
X118558372Y-121710276D01*
X118453060Y-121704959D01*
X118300038Y-121725994D01*
X118160875Y-121766431D01*
X118049975Y-121821800D01*
X117962494Y-121890980D01*
X117895499Y-121977755D01*
X117854915Y-122079627D01*
X117840739Y-122201046D01*
X117488583Y-122201046D01*
X117481214Y-122087351D01*
X117494866Y-121957552D01*
X117538122Y-121816242D01*
X117606550Y-121682107D01*
X117697979Y-121562595D01*
X117815799Y-121452864D01*
X117957976Y-121356821D01*
X118117721Y-121282500D01*
X118305655Y-121229082D01*
X118494967Y-121201946D01*
X118651666Y-121202908D01*
G37*
G36*
X119060000Y-123618021D02*
G01*
X119060000Y-123136985D01*
X117528108Y-123455478D01*
X117528108Y-123936514D01*
X119060000Y-123618021D01*
G37*
G36*
X117309267Y-123995376D02*
G01*
X117309267Y-123487595D01*
X116934110Y-123565631D01*
X116934110Y-124073412D01*
X117309267Y-123995376D01*
G37*
G36*
X118004870Y-125399651D02*
G01*
X118004870Y-125356908D01*
X117987285Y-125261653D01*
X117981423Y-125149302D01*
X117985010Y-125049012D01*
X117994979Y-124964654D01*
X118012602Y-124881644D01*
X118041018Y-124785380D01*
X119060000Y-124573499D01*
X119060000Y-124092463D01*
X117528108Y-124410956D01*
X117528108Y-124891992D01*
X117753545Y-124845097D01*
X117631702Y-125029289D01*
X117571217Y-125159682D01*
X117538050Y-125283839D01*
X117528108Y-125385240D01*
X117529574Y-125442393D01*
X117533604Y-125497714D01*
X118004870Y-125399651D01*
G37*
G36*
X119060000Y-125964706D02*
G01*
X119060000Y-125483670D01*
X117528108Y-125802163D01*
X117528108Y-126283199D01*
X119060000Y-125964706D01*
G37*
G36*
X117309267Y-126342062D02*
G01*
X117309267Y-125834281D01*
X116934110Y-125912316D01*
X116934110Y-126420097D01*
X117309267Y-126342062D01*
G37*
G36*
X118820320Y-126414622D02*
G01*
X118899980Y-126442621D01*
X118970851Y-126489706D01*
X119029182Y-126552203D01*
X119071256Y-126626290D01*
X119097570Y-126714301D01*
X119106894Y-126819556D01*
X119102289Y-126908772D01*
X119088942Y-126990282D01*
X119067059Y-127069330D01*
X119036796Y-127148307D01*
X118969874Y-127270307D01*
X118897456Y-127381681D01*
X119060000Y-127347854D01*
X119060000Y-127824982D01*
X118015617Y-128042114D01*
X117876212Y-128057581D01*
X117766877Y-128043857D01*
X117680067Y-128005843D01*
X117610418Y-127943928D01*
X117560543Y-127864704D01*
X117519977Y-127751204D01*
X117491899Y-127593126D01*
X117481214Y-127378262D01*
X117488135Y-127205422D01*
X117509180Y-127028262D01*
X117557540Y-126770341D01*
X117926713Y-126693527D01*
X117926713Y-126737613D01*
X117860401Y-126945219D01*
X117827426Y-127086919D01*
X117817292Y-127208147D01*
X117824082Y-127340714D01*
X117841569Y-127433946D01*
X117866263Y-127497330D01*
X117906273Y-127544109D01*
X117962560Y-127566113D01*
X118043461Y-127562055D01*
X118051765Y-127560223D01*
X118056450Y-127497330D01*
X118340949Y-127497330D01*
X118661273Y-127430774D01*
X118705636Y-127361164D01*
X118740774Y-127283862D01*
X118763631Y-127203913D01*
X118770816Y-127131454D01*
X118766908Y-127046849D01*
X118757871Y-127000418D01*
X118740917Y-126963705D01*
X118717449Y-126935450D01*
X118688531Y-126914698D01*
X118659930Y-126907117D01*
X118581894Y-126915422D01*
X118515412Y-126939051D01*
X118464902Y-126977826D01*
X118426579Y-127030942D01*
X118397124Y-127102145D01*
X118363541Y-127281542D01*
X118340949Y-127497330D01*
X118056450Y-127497330D01*
X118067673Y-127346687D01*
X118090233Y-127141835D01*
X118126752Y-126947032D01*
X118178161Y-126792201D01*
X118225405Y-126697765D01*
X118281717Y-126617052D01*
X118347177Y-126548569D01*
X118423060Y-126492897D01*
X118514202Y-126449071D01*
X118623293Y-126417655D01*
X118729229Y-126405596D01*
X118820320Y-126414622D01*
G37*
G36*
X119060000Y-129816416D02*
G01*
X119060000Y-129332815D01*
X118298328Y-129491207D01*
X118112948Y-129520272D01*
X118026543Y-129524020D01*
X117976905Y-129516608D01*
X117933094Y-129492686D01*
X117903143Y-129453715D01*
X117886568Y-129400879D01*
X117879818Y-129314863D01*
X117885096Y-129248851D01*
X117901678Y-129177233D01*
X117928689Y-129104194D01*
X117971409Y-129016399D01*
X119060000Y-128790108D01*
X119060000Y-128309071D01*
X117528108Y-128627564D01*
X117528108Y-129108600D01*
X117693217Y-129074284D01*
X117599978Y-129223584D01*
X117535924Y-129353576D01*
X117494972Y-129486498D01*
X117481214Y-129627494D01*
X117491690Y-129748432D01*
X117520501Y-129843798D01*
X117565351Y-129918941D01*
X117626294Y-129977616D01*
X117699906Y-130017637D01*
X117792868Y-130040929D01*
X117910664Y-130044838D01*
X118059947Y-130024389D01*
X119060000Y-129816416D01*
G37*
G36*
X118520467Y-132047330D02*
G01*
X117528108Y-132595778D01*
X117528108Y-133090125D01*
X119622735Y-131820795D01*
X119622735Y-131299581D01*
X119052184Y-131656175D01*
X117528108Y-131389096D01*
X117528108Y-131894190D01*
X118520467Y-132047330D01*
G37*
G36*
X118820320Y-133054119D02*
G01*
X118899980Y-133082119D01*
X118970851Y-133129204D01*
X119029182Y-133191700D01*
X119071256Y-133265787D01*
X119097570Y-133353798D01*
X119106894Y-133459054D01*
X119102289Y-133548269D01*
X119088942Y-133629780D01*
X119067059Y-133708827D01*
X119036796Y-133787805D01*
X118969874Y-133909804D01*
X118897456Y-134021179D01*
X119060000Y-133987351D01*
X119060000Y-134464480D01*
X118015617Y-134681612D01*
X117876212Y-134697078D01*
X117766877Y-134683355D01*
X117680067Y-134645340D01*
X117610418Y-134583426D01*
X117560543Y-134504202D01*
X117519977Y-134390701D01*
X117491899Y-134232624D01*
X117481214Y-134017759D01*
X117488135Y-133844920D01*
X117509180Y-133667759D01*
X117557540Y-133409839D01*
X117926713Y-133333025D01*
X117926713Y-133377110D01*
X117860401Y-133584717D01*
X117827426Y-133726417D01*
X117817292Y-133847644D01*
X117824082Y-133980211D01*
X117841569Y-134073443D01*
X117866263Y-134136828D01*
X117906273Y-134183606D01*
X117962560Y-134205610D01*
X118043461Y-134201552D01*
X118051765Y-134199720D01*
X118056450Y-134136828D01*
X118340949Y-134136828D01*
X118661273Y-134070272D01*
X118705636Y-134000661D01*
X118740774Y-133923360D01*
X118763631Y-133843411D01*
X118770816Y-133770952D01*
X118766908Y-133686347D01*
X118757871Y-133639916D01*
X118740917Y-133603203D01*
X118717449Y-133574947D01*
X118688531Y-133554196D01*
X118659930Y-133546615D01*
X118581894Y-133554919D01*
X118515412Y-133578548D01*
X118464902Y-133617323D01*
X118426579Y-133670440D01*
X118397124Y-133741643D01*
X118363541Y-133921039D01*
X118340949Y-134136828D01*
X118056450Y-134136828D01*
X118067673Y-133986185D01*
X118090233Y-133781332D01*
X118126752Y-133586529D01*
X118178161Y-133431699D01*
X118225405Y-133337263D01*
X118281717Y-133256549D01*
X118347177Y-133188066D01*
X118423060Y-133132394D01*
X118514202Y-133088569D01*
X118623293Y-133057152D01*
X118729229Y-133045094D01*
X118820320Y-133054119D01*
G37*
G36*
X119060000Y-136455914D02*
G01*
X119060000Y-135972313D01*
X118298328Y-136130704D01*
X118112948Y-136159769D01*
X118026543Y-136163517D01*
X117976905Y-136156106D01*
X117933094Y-136132184D01*
X117903143Y-136093213D01*
X117886568Y-136040376D01*
X117879818Y-135954361D01*
X117885096Y-135888348D01*
X117901678Y-135816730D01*
X117928689Y-135743691D01*
X117971409Y-135655896D01*
X119060000Y-135429605D01*
X119060000Y-134948569D01*
X117528108Y-135267062D01*
X117528108Y-135748098D01*
X117693217Y-135713782D01*
X117599978Y-135863082D01*
X117535924Y-135993073D01*
X117494972Y-136125996D01*
X117481214Y-136266992D01*
X117491690Y-136387929D01*
X117520501Y-136483295D01*
X117565351Y-136558439D01*
X117626294Y-136617114D01*
X117699906Y-136657134D01*
X117792868Y-136680427D01*
X117910664Y-136684335D01*
X118059947Y-136663886D01*
X119060000Y-136455914D01*
G37*
G36*
X119596744Y-136999245D02*
G01*
X119619071Y-137141381D01*
X119633485Y-137290292D01*
X119638367Y-137445341D01*
X119628594Y-137633331D01*
X119600753Y-137798639D01*
X119550833Y-137952311D01*
X119478632Y-138085380D01*
X119417459Y-138163595D01*
X119341157Y-138235613D01*
X119247944Y-138301657D01*
X119146619Y-138355091D01*
X119026513Y-138400628D01*
X118884877Y-138437334D01*
X117528108Y-138719434D01*
X117528108Y-138253053D01*
X117591978Y-138222400D01*
X117546192Y-138147199D01*
X117510645Y-138058269D01*
X117489591Y-137963503D01*
X117840739Y-137963503D01*
X117850997Y-138069626D01*
X117879085Y-138165247D01*
X118576399Y-138020289D01*
X118610979Y-137952926D01*
X118638192Y-137880582D01*
X118655704Y-137806094D01*
X118661395Y-137734159D01*
X118650048Y-137632212D01*
X118619990Y-137561074D01*
X118573712Y-137512386D01*
X118511421Y-137485165D01*
X118413570Y-137476524D01*
X118264134Y-137495900D01*
X118135795Y-137534000D01*
X118033400Y-137587488D01*
X117952480Y-137655512D01*
X117891454Y-137740280D01*
X117853958Y-137841422D01*
X117840739Y-137963503D01*
X117489591Y-137963503D01*
X117488986Y-137960778D01*
X117481214Y-137843213D01*
X117494211Y-137708743D01*
X117534581Y-137568073D01*
X117598765Y-137435454D01*
X117683447Y-137320045D01*
X117794424Y-137213106D01*
X117924026Y-137123063D01*
X118071007Y-137054024D01*
X118252044Y-137002651D01*
X118458332Y-136973244D01*
X118619477Y-136975672D01*
X118744901Y-137002981D01*
X118842501Y-137051011D01*
X118909601Y-137107723D01*
X118962551Y-137177992D01*
X119002064Y-137263994D01*
X119027426Y-137368993D01*
X119036552Y-137497121D01*
X119025801Y-137623778D01*
X118994176Y-137740997D01*
X118944454Y-137851971D01*
X118879382Y-137957274D01*
X118907958Y-137951413D01*
X118998880Y-137927488D01*
X119070868Y-137898778D01*
X119133616Y-137860977D01*
X119182365Y-137815614D01*
X119222054Y-137755509D01*
X119253684Y-137672976D01*
X119271920Y-137578415D01*
X119278841Y-137450593D01*
X119271918Y-137348290D01*
X119249532Y-137229553D01*
X119217372Y-137114233D01*
X119185052Y-137027808D01*
X119185052Y-136969068D01*
X119572177Y-136888590D01*
X119596744Y-136999245D01*
G37*
G36*
X118576032Y-141259926D02*
G01*
X118687798Y-141224096D01*
X118788051Y-141165622D01*
X118878780Y-141082662D01*
X118960837Y-140971475D01*
X119022290Y-140850297D01*
X119067935Y-140711637D01*
X119096751Y-140552736D01*
X119106894Y-140370394D01*
X119096829Y-140176038D01*
X119068914Y-140014776D01*
X119026329Y-139868785D01*
X118984773Y-139770411D01*
X118583237Y-139853942D01*
X118583237Y-139898028D01*
X118636605Y-139970446D01*
X118698886Y-140091835D01*
X118725624Y-140163536D01*
X118749689Y-140250837D01*
X118765326Y-140343848D01*
X118770816Y-140449651D01*
X118761996Y-140582529D01*
X118740286Y-140665806D01*
X118715081Y-140710684D01*
X118685238Y-140738450D01*
X118650038Y-140752756D01*
X118599833Y-140752321D01*
X118568461Y-140729553D01*
X118546524Y-140684921D01*
X118519734Y-140587404D01*
X118492990Y-140447941D01*
X118457941Y-140288817D01*
X118411013Y-140166052D01*
X118353799Y-140079403D01*
X118287215Y-140021004D01*
X118206882Y-139984423D01*
X118112252Y-139970588D01*
X117998398Y-139982170D01*
X117894908Y-140015799D01*
X117799764Y-140072103D01*
X117711269Y-140153473D01*
X117628736Y-140264148D01*
X117566526Y-140383939D01*
X117520445Y-140520549D01*
X117491416Y-140676645D01*
X117481214Y-140855338D01*
X117490216Y-141020607D01*
X117516263Y-141170778D01*
X117555122Y-141308513D01*
X117591123Y-141396458D01*
X117981423Y-141315247D01*
X117981423Y-141273848D01*
X117916486Y-141175072D01*
X117862965Y-141054518D01*
X117828811Y-140924496D01*
X117817292Y-140786828D01*
X117825565Y-140675026D01*
X117848433Y-140584595D01*
X117874567Y-140531860D01*
X117903863Y-140501245D01*
X117936727Y-140486775D01*
X117986751Y-140486166D01*
X118020380Y-140505460D01*
X118044942Y-140548804D01*
X118078021Y-140663241D01*
X118107575Y-140815282D01*
X118143845Y-140978314D01*
X118187507Y-141092013D01*
X118241062Y-141171988D01*
X118303702Y-141225610D01*
X118379091Y-141258845D01*
X118468317Y-141271169D01*
X118576032Y-141259926D01*
G37*
G36*
X119060000Y-143011270D02*
G01*
X119060000Y-142530111D01*
X118894891Y-142564427D01*
X118989818Y-142411295D01*
X119052916Y-142286967D01*
X119092926Y-142159366D01*
X119106894Y-142011217D01*
X119096211Y-141887417D01*
X119066996Y-141791028D01*
X119021778Y-141716183D01*
X118960593Y-141658775D01*
X118886436Y-141619873D01*
X118793331Y-141597397D01*
X118676020Y-141593954D01*
X118528161Y-141614323D01*
X117528108Y-141822295D01*
X117528108Y-142306018D01*
X118289780Y-142147627D01*
X118483342Y-142114654D01*
X118557153Y-142112417D01*
X118611203Y-142122226D01*
X118655004Y-142145104D01*
X118685087Y-142183775D01*
X118701574Y-142236602D01*
X118708290Y-142322627D01*
X118702939Y-142385821D01*
X118685087Y-142463677D01*
X118656713Y-142542251D01*
X118616699Y-142622313D01*
X117528108Y-142848604D01*
X117528108Y-143329762D01*
X119060000Y-143011270D01*
G37*
G36*
X119060000Y-145016137D02*
G01*
X119060000Y-144532536D01*
X118298328Y-144690928D01*
X118112948Y-144719993D01*
X118026543Y-144723740D01*
X117976905Y-144716329D01*
X117933094Y-144692407D01*
X117903143Y-144653436D01*
X117886568Y-144600600D01*
X117879818Y-144514584D01*
X117885096Y-144448572D01*
X117901678Y-144376953D01*
X117928689Y-144303915D01*
X117971409Y-144216120D01*
X119060000Y-143989829D01*
X119060000Y-143508792D01*
X117528108Y-143827285D01*
X117528108Y-144308321D01*
X117693217Y-144274005D01*
X117599978Y-144423305D01*
X117535924Y-144553297D01*
X117494972Y-144686219D01*
X117481214Y-144827215D01*
X117491690Y-144948153D01*
X117520501Y-145043518D01*
X117565351Y-145118662D01*
X117626294Y-145177337D01*
X117699906Y-145217357D01*
X117792868Y-145240650D01*
X117910664Y-145244559D01*
X118059947Y-145224110D01*
X119060000Y-145016137D01*
G37*
G36*
X118520467Y-146291573D02*
G01*
X117528108Y-146840020D01*
X117528108Y-147334368D01*
X119622735Y-146065038D01*
X119622735Y-145543824D01*
X119052184Y-145900418D01*
X117528108Y-145633339D01*
X117528108Y-146138433D01*
X118520467Y-146291573D01*
G37*
G36*
X119060000Y-147803925D02*
G01*
X119060000Y-147322889D01*
X117528108Y-147641381D01*
X117528108Y-148122418D01*
X119060000Y-147803925D01*
G37*
G36*
X117309267Y-148181280D02*
G01*
X117309267Y-147673499D01*
X116934110Y-147751535D01*
X116934110Y-148259316D01*
X117309267Y-148181280D01*
G37*
G36*
X126469344Y-72010554D02*
G01*
X126469344Y-71552782D01*
X126660830Y-71512971D01*
X126660830Y-71937281D01*
X126856224Y-71896676D01*
X126856224Y-71472365D01*
X127290000Y-71382178D01*
X127290000Y-71127006D01*
X126273949Y-71338215D01*
X126273949Y-72051160D01*
X126469344Y-72010554D01*
G37*
G36*
X127059923Y-72038628D02*
G01*
X127117301Y-72051240D01*
X127166668Y-72073774D01*
X127209460Y-72106297D01*
X127244117Y-72146787D01*
X127272451Y-72197344D01*
X127294158Y-72259874D01*
X127308316Y-72336772D01*
X127313447Y-72430835D01*
X127309549Y-72516686D01*
X127298365Y-72593684D01*
X127279326Y-72670009D01*
X127249699Y-72757449D01*
X127051618Y-72798665D01*
X127051618Y-72771981D01*
X127081898Y-72719274D01*
X127112923Y-72646257D01*
X127134495Y-72568399D01*
X127141500Y-72492690D01*
X127135012Y-72413665D01*
X127118108Y-72358351D01*
X127093262Y-72320560D01*
X127067545Y-72299428D01*
X127036749Y-72285831D01*
X126999502Y-72279788D01*
X126953921Y-72282397D01*
X126953921Y-72832981D01*
X126867765Y-72850933D01*
X126776566Y-72862959D01*
X126703131Y-72859409D01*
X126643725Y-72843101D01*
X126595312Y-72815334D01*
X126563486Y-72784681D01*
X126537739Y-72745653D01*
X126518096Y-72696660D01*
X126505272Y-72635551D01*
X126500607Y-72559734D01*
X126504441Y-72508688D01*
X126653014Y-72508688D01*
X126658209Y-72556840D01*
X126671759Y-72589372D01*
X126692276Y-72610720D01*
X126719846Y-72623497D01*
X126757626Y-72628637D01*
X126809330Y-72623848D01*
X126809330Y-72311889D01*
X126757338Y-72331277D01*
X126718462Y-72356302D01*
X126690200Y-72386688D01*
X126669696Y-72423220D01*
X126657282Y-72463556D01*
X126653014Y-72508688D01*
X126504441Y-72508688D01*
X126507971Y-72461685D01*
X126529236Y-72374188D01*
X126563775Y-72295504D01*
X126611798Y-72224267D01*
X126671617Y-72162464D01*
X126740907Y-72112691D01*
X126820861Y-72074372D01*
X126913194Y-72047679D01*
X126992635Y-72036840D01*
X127059923Y-72038628D01*
G37*
G36*
X127170160Y-72940946D02*
G01*
X127209990Y-72954946D01*
X127245425Y-72978489D01*
X127274591Y-73009737D01*
X127295628Y-73046780D01*
X127308785Y-73090786D01*
X127313447Y-73143414D01*
X127311144Y-73188021D01*
X127304471Y-73228777D01*
X127293529Y-73268300D01*
X127278398Y-73307789D01*
X127244937Y-73368789D01*
X127208728Y-73424476D01*
X127290000Y-73407562D01*
X127290000Y-73646127D01*
X126767808Y-73754692D01*
X126698106Y-73762426D01*
X126643438Y-73755564D01*
X126600033Y-73736557D01*
X126565209Y-73705600D01*
X126540271Y-73665987D01*
X126519988Y-73609237D01*
X126505949Y-73530199D01*
X126500607Y-73422766D01*
X126504067Y-73336347D01*
X126514590Y-73247766D01*
X126538770Y-73118806D01*
X126723356Y-73080399D01*
X126723356Y-73102442D01*
X126690200Y-73206245D01*
X126673713Y-73277095D01*
X126668646Y-73337709D01*
X126672041Y-73403992D01*
X126680784Y-73450608D01*
X126693131Y-73482301D01*
X126713136Y-73505690D01*
X126741280Y-73516692D01*
X126781730Y-73514663D01*
X126785882Y-73513747D01*
X126788225Y-73482301D01*
X126930474Y-73482301D01*
X127090636Y-73449023D01*
X127112818Y-73414217D01*
X127130387Y-73375566D01*
X127141815Y-73335592D01*
X127145408Y-73299363D01*
X127143454Y-73257060D01*
X127138935Y-73233845D01*
X127130458Y-73215488D01*
X127118724Y-73201360D01*
X127104265Y-73190985D01*
X127089965Y-73187194D01*
X127050947Y-73191346D01*
X127017706Y-73203161D01*
X126992451Y-73222548D01*
X126973289Y-73249107D01*
X126958562Y-73284708D01*
X126941770Y-73374406D01*
X126930474Y-73482301D01*
X126788225Y-73482301D01*
X126793836Y-73406979D01*
X126805116Y-73304553D01*
X126823376Y-73207151D01*
X126849080Y-73129736D01*
X126872702Y-73082518D01*
X126900858Y-73042161D01*
X126933588Y-73007920D01*
X126971530Y-72980084D01*
X127017101Y-72958171D01*
X127071646Y-72942463D01*
X127124614Y-72936434D01*
X127170160Y-72940946D01*
G37*
G36*
X127283649Y-74369330D02*
G01*
X127299769Y-74283722D01*
X127305631Y-74176317D01*
X127301081Y-74104223D01*
X127288923Y-74049742D01*
X127270858Y-74009169D01*
X127247745Y-73979518D01*
X127217593Y-73958470D01*
X127177003Y-73945672D01*
X127122486Y-73942561D01*
X127049603Y-73952224D01*
X126692093Y-74026535D01*
X126692093Y-73927616D01*
X126524054Y-73962543D01*
X126524054Y-74061461D01*
X126305212Y-74106952D01*
X126305212Y-74347470D01*
X126524054Y-74301980D01*
X126524054Y-74527233D01*
X126692093Y-74492306D01*
X126692093Y-74267053D01*
X126962409Y-74210816D01*
X127032323Y-74196955D01*
X127061423Y-74194097D01*
X127085996Y-74196528D01*
X127107208Y-74205006D01*
X127123670Y-74221746D01*
X127133534Y-74246127D01*
X127137592Y-74288058D01*
X127129349Y-74338921D01*
X127114145Y-74384473D01*
X127114145Y-74404562D01*
X127283649Y-74369330D01*
G37*
G36*
X127290000Y-75272906D02*
G01*
X127290000Y-75032327D01*
X127207445Y-75049485D01*
X127254909Y-74972919D01*
X127286458Y-74910755D01*
X127306463Y-74846954D01*
X127313447Y-74772880D01*
X127308105Y-74710980D01*
X127293498Y-74662785D01*
X127270889Y-74625363D01*
X127240296Y-74596659D01*
X127203218Y-74577208D01*
X127156665Y-74565970D01*
X127098010Y-74564248D01*
X127024080Y-74574433D01*
X126524054Y-74678419D01*
X126524054Y-74920280D01*
X126904890Y-74841085D01*
X127001671Y-74824598D01*
X127038576Y-74823480D01*
X127065601Y-74828384D01*
X127087502Y-74839823D01*
X127102543Y-74859159D01*
X127110787Y-74885572D01*
X127114145Y-74928585D01*
X127111469Y-74960182D01*
X127102543Y-74999110D01*
X127088356Y-75038397D01*
X127068349Y-75078428D01*
X126524054Y-75191573D01*
X126524054Y-75432152D01*
X127290000Y-75272906D01*
G37*
G36*
X126762435Y-76175261D02*
G01*
X126762435Y-76153890D01*
X126753642Y-76106263D01*
X126750711Y-76050087D01*
X126752505Y-75999942D01*
X126757489Y-75957763D01*
X126766301Y-75916258D01*
X126780509Y-75868126D01*
X127290000Y-75762185D01*
X127290000Y-75521667D01*
X126524054Y-75680914D01*
X126524054Y-75921432D01*
X126636772Y-75897984D01*
X126575851Y-75990081D01*
X126545608Y-76055277D01*
X126529025Y-76117356D01*
X126524054Y-76168056D01*
X126524787Y-76196632D01*
X126526802Y-76224293D01*
X126762435Y-76175261D01*
G37*
G36*
X127059923Y-76231789D02*
G01*
X127117301Y-76244401D01*
X127166668Y-76266936D01*
X127209460Y-76299459D01*
X127244117Y-76339948D01*
X127272451Y-76390505D01*
X127294158Y-76453035D01*
X127308316Y-76529933D01*
X127313447Y-76623996D01*
X127309549Y-76709847D01*
X127298365Y-76786845D01*
X127279326Y-76863170D01*
X127249699Y-76950610D01*
X127051618Y-76991826D01*
X127051618Y-76965143D01*
X127081898Y-76912435D01*
X127112923Y-76839419D01*
X127134495Y-76761560D01*
X127141500Y-76685851D01*
X127135012Y-76606826D01*
X127118108Y-76551513D01*
X127093262Y-76513721D01*
X127067545Y-76492590D01*
X127036749Y-76478992D01*
X126999502Y-76472949D01*
X126953921Y-76475558D01*
X126953921Y-77026142D01*
X126867765Y-77044094D01*
X126776566Y-77056120D01*
X126703131Y-77052570D01*
X126643725Y-77036262D01*
X126595312Y-77008496D01*
X126563486Y-76977842D01*
X126537739Y-76938814D01*
X126518096Y-76889821D01*
X126505272Y-76828713D01*
X126500607Y-76752896D01*
X126504441Y-76701849D01*
X126653014Y-76701849D01*
X126658209Y-76750001D01*
X126671759Y-76782533D01*
X126692276Y-76803881D01*
X126719846Y-76816658D01*
X126757626Y-76821798D01*
X126809330Y-76817009D01*
X126809330Y-76505050D01*
X126757338Y-76524438D01*
X126718462Y-76549463D01*
X126690200Y-76579849D01*
X126669696Y-76616382D01*
X126657282Y-76656717D01*
X126653014Y-76701849D01*
X126504441Y-76701849D01*
X126507971Y-76654846D01*
X126529236Y-76567349D01*
X126563775Y-76488666D01*
X126611798Y-76417428D01*
X126671617Y-76355625D01*
X126740907Y-76305852D01*
X126820861Y-76267534D01*
X126913194Y-76240840D01*
X126992635Y-76230001D01*
X127059923Y-76231789D01*
G37*
G36*
X126273949Y-78750741D02*
G01*
X127290000Y-78176709D01*
X127290000Y-77889419D01*
X126273949Y-77737805D01*
X126273949Y-78007083D01*
X126987688Y-78099223D01*
X126273949Y-78488119D01*
X126273949Y-78750741D01*
G37*
G36*
X127309539Y-79151910D02*
G01*
X127305598Y-79078518D01*
X127294276Y-79012878D01*
X127276139Y-78954012D01*
X127249695Y-78898907D01*
X127216557Y-78852371D01*
X127176549Y-78813389D01*
X127130054Y-78782412D01*
X127075506Y-78758899D01*
X127011502Y-78743169D01*
X126945522Y-78737042D01*
X126869895Y-78740032D01*
X126783012Y-78753550D01*
X126703894Y-78774051D01*
X126631127Y-78801069D01*
X126564110Y-78834455D01*
X126501226Y-78874971D01*
X126445215Y-78920894D01*
X126395582Y-78972391D01*
X126354280Y-79027225D01*
X126319517Y-79087824D01*
X126291229Y-79154780D01*
X126270845Y-79224631D01*
X126258553Y-79296866D01*
X126254410Y-79371973D01*
X126256327Y-79433090D01*
X126261615Y-79483714D01*
X126280422Y-79572984D01*
X126309548Y-79648150D01*
X126339345Y-79705792D01*
X126586580Y-79654378D01*
X126586580Y-79625008D01*
X126547196Y-79586051D01*
X126502316Y-79530914D01*
X126482128Y-79497240D01*
X126465008Y-79459106D01*
X126453739Y-79418004D01*
X126449804Y-79370751D01*
X126454132Y-79317200D01*
X126467206Y-79264200D01*
X126489802Y-79213410D01*
X126524909Y-79162046D01*
X126568879Y-79118015D01*
X126628040Y-79076744D01*
X126696776Y-79044526D01*
X126783684Y-79020019D01*
X126847961Y-79010033D01*
X126900561Y-79008270D01*
X126943480Y-79013180D01*
X127002684Y-79031938D01*
X127044474Y-79058670D01*
X127076688Y-79095144D01*
X127098086Y-79138415D01*
X127110144Y-79185822D01*
X127114145Y-79234036D01*
X127110571Y-79280809D01*
X127099551Y-79329535D01*
X127082346Y-79377156D01*
X127059984Y-79422287D01*
X127016936Y-79492079D01*
X126977369Y-79546362D01*
X126977369Y-79573107D01*
X127221673Y-79522365D01*
X127253974Y-79444085D01*
X127280047Y-79367210D01*
X127301967Y-79271039D01*
X127307394Y-79222907D01*
X127309539Y-79151910D01*
G37*
G36*
X126921193Y-80666460D02*
G01*
X126995586Y-80646125D01*
X127060569Y-80618598D01*
X127117302Y-80584182D01*
X127166699Y-80542844D01*
X127209399Y-80494207D01*
X127251486Y-80425850D01*
X127282719Y-80345932D01*
X127302520Y-80252379D01*
X127309539Y-80142681D01*
X127304542Y-80051432D01*
X127290811Y-79977541D01*
X127269856Y-79918094D01*
X127242619Y-79870603D01*
X127209399Y-79833103D01*
X127168454Y-79803326D01*
X127120878Y-79782703D01*
X127065225Y-79771318D01*
X126999619Y-79770141D01*
X126921864Y-79780957D01*
X126273949Y-79915657D01*
X126273949Y-80173517D01*
X126908370Y-80041625D01*
X126979196Y-80032835D01*
X127029971Y-80037556D01*
X127066151Y-80052250D01*
X127087303Y-80070717D01*
X127103344Y-80096970D01*
X127114036Y-80133201D01*
X127118053Y-80182493D01*
X127111945Y-80244768D01*
X127095014Y-80294168D01*
X127068227Y-80333496D01*
X127031475Y-80364449D01*
X126979571Y-80390650D01*
X126908370Y-80411165D01*
X126273949Y-80543056D01*
X126273949Y-80800976D01*
X126921193Y-80666460D01*
G37*
G36*
X128614382Y-71657257D02*
G01*
X128614382Y-71147461D01*
X128418988Y-71188066D01*
X128418988Y-71697862D01*
X128614382Y-71657257D01*
G37*
G36*
X128149344Y-73224930D02*
G01*
X128149344Y-72914192D01*
X128970000Y-72743588D01*
X128970000Y-72487011D01*
X128149344Y-72657615D01*
X128149344Y-72346938D01*
X127953949Y-72387543D01*
X127953949Y-73265535D01*
X128149344Y-73224930D01*
G37*
G36*
X128739923Y-73230533D02*
G01*
X128797301Y-73243145D01*
X128846668Y-73265680D01*
X128889460Y-73298203D01*
X128924117Y-73338692D01*
X128952451Y-73389249D01*
X128974158Y-73451779D01*
X128988316Y-73528677D01*
X128993447Y-73622740D01*
X128989549Y-73708591D01*
X128978365Y-73785589D01*
X128959326Y-73861914D01*
X128929699Y-73949354D01*
X128731618Y-73990570D01*
X128731618Y-73963886D01*
X128761898Y-73911179D01*
X128792923Y-73838162D01*
X128814495Y-73760304D01*
X128821500Y-73684595D01*
X128815012Y-73605570D01*
X128798108Y-73550257D01*
X128773262Y-73512465D01*
X128747545Y-73491333D01*
X128716749Y-73477736D01*
X128679502Y-73471693D01*
X128633921Y-73474302D01*
X128633921Y-74024886D01*
X128547765Y-74042838D01*
X128456566Y-74054864D01*
X128383131Y-74051314D01*
X128323725Y-74035006D01*
X128275312Y-74007240D01*
X128243486Y-73976586D01*
X128217739Y-73937558D01*
X128198096Y-73888565D01*
X128185272Y-73827456D01*
X128180607Y-73751639D01*
X128184441Y-73700593D01*
X128333014Y-73700593D01*
X128338209Y-73748745D01*
X128351759Y-73781277D01*
X128372276Y-73802625D01*
X128399846Y-73815402D01*
X128437626Y-73820542D01*
X128489330Y-73815753D01*
X128489330Y-73503794D01*
X128437338Y-73523182D01*
X128398462Y-73548207D01*
X128370200Y-73578593D01*
X128349696Y-73615126D01*
X128337282Y-73655461D01*
X128333014Y-73700593D01*
X128184441Y-73700593D01*
X128187971Y-73653590D01*
X128209236Y-73566093D01*
X128243775Y-73487409D01*
X128291798Y-73416172D01*
X128351617Y-73354369D01*
X128420907Y-73304596D01*
X128500861Y-73266278D01*
X128593194Y-73239584D01*
X128672635Y-73228745D01*
X128739923Y-73230533D01*
G37*
G36*
X128739923Y-74159632D02*
G01*
X128797301Y-74172245D01*
X128846668Y-74194779D01*
X128889460Y-74227302D01*
X128924117Y-74267792D01*
X128952451Y-74318349D01*
X128974158Y-74380879D01*
X128988316Y-74457777D01*
X128993447Y-74551840D01*
X128989549Y-74637691D01*
X128978365Y-74714689D01*
X128959326Y-74791014D01*
X128929699Y-74878454D01*
X128731618Y-74919670D01*
X128731618Y-74892986D01*
X128761898Y-74840279D01*
X128792923Y-74767262D01*
X128814495Y-74689404D01*
X128821500Y-74613695D01*
X128815012Y-74534670D01*
X128798108Y-74479356D01*
X128773262Y-74441564D01*
X128747545Y-74420433D01*
X128716749Y-74406835D01*
X128679502Y-74400793D01*
X128633921Y-74403401D01*
X128633921Y-74953986D01*
X128547765Y-74971938D01*
X128456566Y-74983964D01*
X128383131Y-74980414D01*
X128323725Y-74964105D01*
X128275312Y-74936339D01*
X128243486Y-74905686D01*
X128217739Y-74866658D01*
X128198096Y-74817665D01*
X128185272Y-74756556D01*
X128180607Y-74680739D01*
X128184441Y-74629692D01*
X128333014Y-74629692D01*
X128338209Y-74677845D01*
X128351759Y-74710377D01*
X128372276Y-74731725D01*
X128399846Y-74744502D01*
X128437626Y-74749642D01*
X128489330Y-74744853D01*
X128489330Y-74432894D01*
X128437338Y-74452282D01*
X128398462Y-74477307D01*
X128370200Y-74507693D01*
X128349696Y-74544225D01*
X128337282Y-74584561D01*
X128333014Y-74629692D01*
X128184441Y-74629692D01*
X128187971Y-74582690D01*
X128209236Y-74495193D01*
X128243775Y-74416509D01*
X128291798Y-74345272D01*
X128351617Y-74283469D01*
X128420907Y-74233696D01*
X128500861Y-74195377D01*
X128593194Y-74168684D01*
X128672635Y-74157845D01*
X128739923Y-74159632D01*
G37*
G36*
X128970000Y-75827887D02*
G01*
X128970000Y-75586086D01*
X128589164Y-75665282D01*
X128496474Y-75679815D01*
X128453271Y-75681689D01*
X128428452Y-75677983D01*
X128406547Y-75666022D01*
X128391571Y-75646536D01*
X128383284Y-75620118D01*
X128379909Y-75577110D01*
X128382548Y-75544104D01*
X128390839Y-75508295D01*
X128404344Y-75471776D01*
X128425704Y-75427878D01*
X128970000Y-75314733D01*
X128970000Y-75074214D01*
X128204054Y-75233461D01*
X128204054Y-75473979D01*
X128286608Y-75456821D01*
X128239989Y-75531471D01*
X128207962Y-75596467D01*
X128187486Y-75662928D01*
X128180607Y-75733426D01*
X128185845Y-75793895D01*
X128200250Y-75841578D01*
X128222675Y-75879149D01*
X128253147Y-75908487D01*
X128289953Y-75928497D01*
X128336434Y-75940143D01*
X128395332Y-75942098D01*
X128469973Y-75931873D01*
X128970000Y-75827887D01*
G37*
G36*
X128728016Y-76773229D02*
G01*
X128783899Y-76755314D01*
X128834025Y-76726077D01*
X128879390Y-76684597D01*
X128920418Y-76629003D01*
X128951145Y-76568414D01*
X128973967Y-76499084D01*
X128988375Y-76419634D01*
X128993447Y-76328463D01*
X128988414Y-76231285D01*
X128974457Y-76150654D01*
X128953164Y-76077658D01*
X128932386Y-76028471D01*
X128731618Y-76070237D01*
X128731618Y-76092280D01*
X128758302Y-76128489D01*
X128789443Y-76189183D01*
X128802812Y-76225033D01*
X128814844Y-76268684D01*
X128822663Y-76315190D01*
X128825408Y-76368091D01*
X128820998Y-76434530D01*
X128810143Y-76476168D01*
X128797540Y-76498608D01*
X128782619Y-76512491D01*
X128765019Y-76519644D01*
X128739916Y-76519426D01*
X128724230Y-76508042D01*
X128713262Y-76485726D01*
X128699867Y-76436967D01*
X128686495Y-76367236D01*
X128668970Y-76287674D01*
X128645506Y-76226292D01*
X128616899Y-76182967D01*
X128583607Y-76153768D01*
X128543441Y-76135477D01*
X128496126Y-76128560D01*
X128439199Y-76134351D01*
X128387454Y-76151165D01*
X128339882Y-76179317D01*
X128295634Y-76220002D01*
X128254368Y-76275340D01*
X128223263Y-76335235D01*
X128200222Y-76403540D01*
X128185708Y-76481588D01*
X128180607Y-76570935D01*
X128185108Y-76653569D01*
X128198131Y-76728654D01*
X128217561Y-76797522D01*
X128235561Y-76841495D01*
X128430711Y-76800889D01*
X128430711Y-76780190D01*
X128398243Y-76730802D01*
X128371482Y-76670525D01*
X128354405Y-76605514D01*
X128348646Y-76536680D01*
X128352782Y-76480779D01*
X128364216Y-76435563D01*
X128377283Y-76409195D01*
X128391931Y-76393888D01*
X128408363Y-76386653D01*
X128433375Y-76386349D01*
X128450190Y-76395996D01*
X128462471Y-76417667D01*
X128479010Y-76474886D01*
X128493787Y-76550907D01*
X128511922Y-76632423D01*
X128533753Y-76689272D01*
X128560531Y-76729260D01*
X128591851Y-76756071D01*
X128629545Y-76772688D01*
X128674158Y-76778850D01*
X128728016Y-76773229D01*
G37*
G36*
X128700233Y-77296031D02*
G01*
X128204054Y-77570254D01*
X128204054Y-77817428D01*
X129251367Y-77182763D01*
X129251367Y-76922156D01*
X128966092Y-77100453D01*
X128204054Y-76966913D01*
X128204054Y-77219460D01*
X128700233Y-77296031D01*
G37*
G36*
X128735526Y-78762465D02*
G01*
X128973907Y-78712944D01*
X128973907Y-78958164D01*
X128735526Y-79007684D01*
X128735526Y-79143361D01*
X128547948Y-79182379D01*
X128547948Y-79046702D01*
X127953949Y-79170167D01*
X127953949Y-78908888D01*
X127984936Y-78877869D01*
X128180423Y-78877869D01*
X128547948Y-78801482D01*
X128547948Y-78512177D01*
X128180423Y-78877869D01*
X127984936Y-78877869D01*
X128541109Y-78321118D01*
X128735526Y-78280696D01*
X128735526Y-78762465D01*
G37*
G36*
X128970000Y-79542576D02*
G01*
X128970000Y-79292655D01*
X128700355Y-79348709D01*
X128700355Y-79598630D01*
X128970000Y-79542576D01*
G37*
G36*
X128970000Y-80517411D02*
G01*
X128970000Y-79853253D01*
X128794145Y-79889829D01*
X128794145Y-80099633D01*
X128254856Y-80211741D01*
X128254856Y-80001936D01*
X128090725Y-80036069D01*
X128084986Y-80129431D01*
X128076819Y-80172803D01*
X128065141Y-80207100D01*
X128045314Y-80242140D01*
X128021360Y-80268283D01*
X127991714Y-80287955D01*
X127953949Y-80302355D01*
X127953949Y-80523517D01*
X128794145Y-80348883D01*
X128794145Y-80553986D01*
X128970000Y-80517411D01*
G37*
G36*
X130294382Y-71657257D02*
G01*
X130294382Y-71147461D01*
X130098988Y-71188066D01*
X130098988Y-71697862D01*
X130294382Y-71657257D01*
G37*
G36*
X130489288Y-72272932D02*
G01*
X130523276Y-72284916D01*
X130554279Y-72303309D01*
X130582772Y-72328620D01*
X130606895Y-72359126D01*
X130628238Y-72397644D01*
X130646519Y-72445612D01*
X130663237Y-72524452D01*
X130669539Y-72629893D01*
X130663662Y-72728423D01*
X130646920Y-72814618D01*
X130620275Y-72890216D01*
X130584176Y-72956690D01*
X130536726Y-73017274D01*
X130484735Y-73062753D01*
X130427709Y-73095006D01*
X130364602Y-73114959D01*
X130303639Y-73121619D01*
X130251006Y-73115626D01*
X130204684Y-73098107D01*
X130164462Y-73069207D01*
X130128544Y-73026316D01*
X130096912Y-72966154D01*
X130092821Y-72967009D01*
X130063170Y-73031197D01*
X130031253Y-73082126D01*
X129997322Y-73121798D01*
X129957413Y-73154906D01*
X129914926Y-73178216D01*
X129869216Y-73192506D01*
X129812660Y-73197355D01*
X129764423Y-73187879D01*
X129722025Y-73164809D01*
X129683897Y-73126500D01*
X129655837Y-73080530D01*
X129634084Y-73021520D01*
X129619694Y-72946503D01*
X129614410Y-72851971D01*
X129616558Y-72815396D01*
X129790265Y-72815396D01*
X129794090Y-72857640D01*
X129804414Y-72889391D01*
X129820245Y-72913093D01*
X129842072Y-72929965D01*
X129868231Y-72937518D01*
X129900785Y-72935441D01*
X129940370Y-72923682D01*
X129971371Y-72907414D01*
X130000020Y-72884959D01*
X130035912Y-72849895D01*
X130009656Y-72776866D01*
X129989994Y-72729849D01*
X129966280Y-72688245D01*
X129946031Y-72665797D01*
X129921159Y-72654742D01*
X129884787Y-72656149D01*
X129862847Y-72663874D01*
X129843204Y-72677459D01*
X129826635Y-72695283D01*
X129813590Y-72715744D01*
X129796249Y-72765020D01*
X129790265Y-72815396D01*
X129616558Y-72815396D01*
X129619570Y-72764121D01*
X129634423Y-72685422D01*
X129650674Y-72637281D01*
X130193815Y-72637281D01*
X130219399Y-72702800D01*
X130244251Y-72761845D01*
X130277930Y-72822473D01*
X130301404Y-72848796D01*
X130318958Y-72857676D01*
X130342605Y-72861089D01*
X130374677Y-72857588D01*
X130407543Y-72846851D01*
X130431158Y-72831149D01*
X130450410Y-72810390D01*
X130467489Y-72784865D01*
X130479006Y-72760186D01*
X130487334Y-72731315D01*
X130493684Y-72679902D01*
X130488506Y-72627995D01*
X130474385Y-72588474D01*
X130452346Y-72558452D01*
X130422526Y-72537617D01*
X130386353Y-72528466D01*
X130341032Y-72531830D01*
X130297056Y-72546706D01*
X130257379Y-72572252D01*
X130222337Y-72604405D01*
X130193815Y-72637281D01*
X129650674Y-72637281D01*
X129658314Y-72614649D01*
X129690980Y-72550758D01*
X129734000Y-72492000D01*
X129780750Y-72448628D01*
X129831609Y-72418457D01*
X129887534Y-72400305D01*
X129941486Y-72393965D01*
X129988648Y-72397945D01*
X130030539Y-72411296D01*
X130067768Y-72434313D01*
X130101782Y-72468959D01*
X130132815Y-72517663D01*
X130136906Y-72516809D01*
X130170430Y-72440795D01*
X130204749Y-72384512D01*
X130239549Y-72344190D01*
X130280982Y-72311080D01*
X130325597Y-72287384D01*
X130374066Y-72272505D01*
X130434654Y-72266205D01*
X130489288Y-72272932D01*
G37*
G36*
X130650000Y-74004797D02*
G01*
X130317829Y-74073857D01*
X130317829Y-74233531D01*
X130314123Y-74305699D01*
X130303649Y-74368070D01*
X130287177Y-74421964D01*
X130249716Y-74498749D01*
X130196563Y-74573456D01*
X130147659Y-74621696D01*
X130087264Y-74662971D01*
X130020877Y-74694394D01*
X129954091Y-74714017D01*
X129895302Y-74722325D01*
X129845680Y-74721735D01*
X129803576Y-74713590D01*
X129764152Y-74697357D01*
X129730096Y-74674015D01*
X129700689Y-74643065D01*
X129672011Y-74596301D01*
X129650680Y-74538224D01*
X129638581Y-74472324D01*
X129633949Y-74381664D01*
X129633949Y-74176195D01*
X129825436Y-74176195D01*
X129825436Y-74220219D01*
X129827145Y-74321458D01*
X129832363Y-74358724D01*
X129844975Y-74396013D01*
X129861375Y-74420340D01*
X129887840Y-74439855D01*
X129920457Y-74449772D01*
X129961051Y-74447365D01*
X130002075Y-74435903D01*
X130034263Y-74421109D01*
X130062001Y-74400989D01*
X130085860Y-74374642D01*
X130105965Y-74338643D01*
X130118283Y-74296728D01*
X130124124Y-74249996D01*
X130126343Y-74187185D01*
X130126343Y-74113668D01*
X129825436Y-74176195D01*
X129633949Y-74176195D01*
X129633949Y-73959429D01*
X130650000Y-73748220D01*
X130650000Y-74004797D01*
G37*
G36*
X130650000Y-75001125D02*
G01*
X130650000Y-74760607D01*
X129884054Y-74919853D01*
X129884054Y-75160371D01*
X130650000Y-75001125D01*
G37*
G36*
X129774633Y-75189802D02*
G01*
X129774633Y-74935912D01*
X129587055Y-74974930D01*
X129587055Y-75228820D01*
X129774633Y-75189802D01*
G37*
G36*
X130650000Y-75992018D02*
G01*
X130650000Y-75750218D01*
X130269164Y-75829413D01*
X130176474Y-75843946D01*
X130133271Y-75845820D01*
X130108452Y-75842114D01*
X130086547Y-75830153D01*
X130071571Y-75810668D01*
X130063284Y-75784249D01*
X130059909Y-75741242D01*
X130062548Y-75708235D01*
X130070839Y-75672426D01*
X130084344Y-75635907D01*
X130105704Y-75592009D01*
X130650000Y-75478864D01*
X130650000Y-75238346D01*
X129884054Y-75397592D01*
X129884054Y-75638110D01*
X129966608Y-75620952D01*
X129919989Y-75695602D01*
X129887962Y-75760598D01*
X129867486Y-75827059D01*
X129860607Y-75897557D01*
X129865845Y-75958026D01*
X129880250Y-76005709D01*
X129902675Y-76043281D01*
X129933147Y-76072618D01*
X129969953Y-76092628D01*
X130016434Y-76104275D01*
X130075332Y-76106229D01*
X130149973Y-76096004D01*
X130650000Y-75992018D01*
G37*
G36*
X130650000Y-76873613D02*
G01*
X130442882Y-76985476D01*
X130442882Y-77354344D01*
X130650000Y-77380111D01*
X130650000Y-77645420D01*
X129633949Y-77489105D01*
X129633949Y-77284002D01*
X129894312Y-77284002D01*
X130259211Y-77330408D01*
X130259211Y-77085921D01*
X129894312Y-77284002D01*
X129633949Y-77284002D01*
X129633949Y-77193815D01*
X130650000Y-76615081D01*
X130650000Y-76873613D01*
G37*
G36*
X130650000Y-78552660D02*
G01*
X130650000Y-78310860D01*
X130269164Y-78390055D01*
X130176474Y-78404588D01*
X130133271Y-78406462D01*
X130108452Y-78402756D01*
X130086547Y-78390795D01*
X130071571Y-78371310D01*
X130063284Y-78344891D01*
X130059909Y-78301884D01*
X130062548Y-78268877D01*
X130070839Y-78233068D01*
X130084344Y-78196549D01*
X130105704Y-78152651D01*
X130650000Y-78039506D01*
X130650000Y-77798988D01*
X129884054Y-77958234D01*
X129884054Y-78198752D01*
X129966608Y-78181594D01*
X129919989Y-78256244D01*
X129887962Y-78321240D01*
X129867486Y-78387701D01*
X129860607Y-78458199D01*
X129865845Y-78518668D01*
X129880250Y-78566351D01*
X129902675Y-78603923D01*
X129933147Y-78633260D01*
X129969953Y-78653270D01*
X130016434Y-78664917D01*
X130075332Y-78666871D01*
X130149973Y-78656646D01*
X130650000Y-78552660D01*
G37*
G36*
X130530160Y-78783235D02*
G01*
X130569990Y-78797235D01*
X130605425Y-78820778D01*
X130634591Y-78852026D01*
X130655628Y-78889069D01*
X130668785Y-78933075D01*
X130673447Y-78985703D01*
X130671144Y-79030310D01*
X130664471Y-79071065D01*
X130653529Y-79110589D01*
X130638398Y-79150078D01*
X130604937Y-79211078D01*
X130568728Y-79266765D01*
X130650000Y-79249851D01*
X130650000Y-79488415D01*
X130127808Y-79596981D01*
X130058106Y-79604715D01*
X130003438Y-79597853D01*
X129960033Y-79578846D01*
X129925209Y-79547889D01*
X129900271Y-79508276D01*
X129879988Y-79451526D01*
X129865949Y-79372487D01*
X129860607Y-79265055D01*
X129864067Y-79178635D01*
X129874590Y-79090055D01*
X129898770Y-78961095D01*
X130083356Y-78922688D01*
X130083356Y-78944731D01*
X130050200Y-79048534D01*
X130033713Y-79119384D01*
X130028646Y-79179998D01*
X130032041Y-79246281D01*
X130040784Y-79292897D01*
X130053131Y-79324590D01*
X130073136Y-79347979D01*
X130101280Y-79358981D01*
X130141730Y-79356952D01*
X130145882Y-79356036D01*
X130148225Y-79324590D01*
X130290474Y-79324590D01*
X130450636Y-79291311D01*
X130472818Y-79256506D01*
X130490387Y-79217855D01*
X130501815Y-79177881D01*
X130505408Y-79141652D01*
X130503454Y-79099349D01*
X130498935Y-79076133D01*
X130490458Y-79057777D01*
X130478724Y-79043649D01*
X130464265Y-79033274D01*
X130449965Y-79029483D01*
X130410947Y-79033635D01*
X130377706Y-79045450D01*
X130352451Y-79064837D01*
X130333289Y-79091395D01*
X130318562Y-79126997D01*
X130301770Y-79216695D01*
X130290474Y-79324590D01*
X130148225Y-79324590D01*
X130153836Y-79249268D01*
X130165116Y-79146842D01*
X130183376Y-79049440D01*
X130209080Y-78972025D01*
X130232702Y-78924807D01*
X130260858Y-78884450D01*
X130293588Y-78850209D01*
X130331530Y-78822373D01*
X130377101Y-78800460D01*
X130431646Y-78784752D01*
X130484614Y-78778723D01*
X130530160Y-78783235D01*
G37*
G36*
X130650000Y-79970978D02*
G01*
X130650000Y-79730460D01*
X129587055Y-79951439D01*
X129587055Y-80191957D01*
X130650000Y-79970978D01*
G37*
G36*
X130412692Y-80222061D02*
G01*
X130470546Y-80232171D01*
X130520798Y-80251225D01*
X130564759Y-80279030D01*
X130601912Y-80315139D01*
X130631584Y-80359564D01*
X130653901Y-80413721D01*
X130668274Y-80479565D01*
X130673447Y-80559481D01*
X130666184Y-80656055D01*
X130645303Y-80741348D01*
X130611537Y-80817217D01*
X130564759Y-80885118D01*
X130506503Y-80943747D01*
X130438455Y-80991430D01*
X130359342Y-81028567D01*
X130267393Y-81054867D01*
X130189139Y-81066059D01*
X130121976Y-81065884D01*
X130064038Y-81055906D01*
X130013702Y-81037041D01*
X129969661Y-81009499D01*
X129932436Y-80973658D01*
X129902680Y-80929361D01*
X129880271Y-80875151D01*
X129865816Y-80809015D01*
X129860607Y-80728497D01*
X129863300Y-80692716D01*
X130032554Y-80692716D01*
X130035544Y-80726208D01*
X130044094Y-80755059D01*
X130059560Y-80779577D01*
X130083478Y-80798351D01*
X130113423Y-80810396D01*
X130156079Y-80816730D01*
X130203908Y-80815456D01*
X130268736Y-80805312D01*
X130337020Y-80787810D01*
X130382431Y-80769958D01*
X130420933Y-80747106D01*
X130452651Y-80720315D01*
X130475497Y-80692318D01*
X130490326Y-80662002D01*
X130498731Y-80629634D01*
X130501500Y-80597217D01*
X130498252Y-80560824D01*
X130489288Y-80531943D01*
X130473591Y-80507693D01*
X130450575Y-80488895D01*
X130419972Y-80476635D01*
X130376997Y-80470760D01*
X130329351Y-80472388D01*
X130268736Y-80481873D01*
X130202247Y-80499248D01*
X130152660Y-80519059D01*
X130110032Y-80543923D01*
X130080059Y-80569312D01*
X130055537Y-80600726D01*
X130042079Y-80628907D01*
X130035011Y-80658889D01*
X130032554Y-80692716D01*
X129863300Y-80692716D01*
X129867820Y-80632674D01*
X129888592Y-80547711D01*
X129922241Y-80471818D01*
X129968928Y-80403593D01*
X130027043Y-80344747D01*
X130095193Y-80296840D01*
X130174699Y-80259482D01*
X130267393Y-80232990D01*
X130345601Y-80221809D01*
X130412692Y-80222061D01*
G37*
G36*
X130918372Y-81197389D02*
G01*
X130929535Y-81268457D01*
X130936742Y-81342913D01*
X130939183Y-81420437D01*
X130934297Y-81514432D01*
X130920376Y-81597086D01*
X130895416Y-81673922D01*
X130859316Y-81740457D01*
X130828729Y-81779564D01*
X130790578Y-81815573D01*
X130743972Y-81848595D01*
X130693309Y-81875312D01*
X130633256Y-81898081D01*
X130562438Y-81916434D01*
X129884054Y-82057484D01*
X129884054Y-81824293D01*
X129915989Y-81808967D01*
X129893096Y-81771366D01*
X129875322Y-81726901D01*
X129864796Y-81679518D01*
X130040369Y-81679518D01*
X130045498Y-81732580D01*
X130059542Y-81780390D01*
X130408199Y-81707911D01*
X130425489Y-81674230D01*
X130439096Y-81638058D01*
X130447852Y-81600814D01*
X130450697Y-81564846D01*
X130445024Y-81513873D01*
X130429995Y-81478304D01*
X130406856Y-81453960D01*
X130375710Y-81440349D01*
X130326785Y-81436029D01*
X130252067Y-81445717D01*
X130187897Y-81464767D01*
X130136700Y-81491510D01*
X130096240Y-81525523D01*
X130065727Y-81567906D01*
X130046979Y-81618478D01*
X130040369Y-81679518D01*
X129864796Y-81679518D01*
X129864493Y-81678156D01*
X129860607Y-81619373D01*
X129867105Y-81552138D01*
X129887290Y-81481803D01*
X129919382Y-81415494D01*
X129961723Y-81357789D01*
X130017212Y-81304320D01*
X130082013Y-81259298D01*
X130155503Y-81224778D01*
X130246022Y-81199092D01*
X130349166Y-81184389D01*
X130429738Y-81185603D01*
X130492450Y-81199257D01*
X130541250Y-81223272D01*
X130574800Y-81251628D01*
X130601275Y-81286763D01*
X130621032Y-81329764D01*
X130633713Y-81382263D01*
X130638276Y-81446327D01*
X130632900Y-81509655D01*
X130617088Y-81568265D01*
X130592227Y-81623752D01*
X130559691Y-81676404D01*
X130573979Y-81673473D01*
X130619440Y-81661510D01*
X130655434Y-81647156D01*
X130686808Y-81628255D01*
X130711182Y-81605573D01*
X130731027Y-81575521D01*
X130746842Y-81534255D01*
X130755960Y-81486974D01*
X130759420Y-81423063D01*
X130755959Y-81371912D01*
X130744766Y-81312543D01*
X130728686Y-81254883D01*
X130712526Y-81211671D01*
X130712526Y-81182301D01*
X130906088Y-81142062D01*
X130918372Y-81197389D01*
G37*
G36*
X130650000Y-83353558D02*
G01*
X130650000Y-82689401D01*
X130474145Y-82725976D01*
X130474145Y-82935781D01*
X129934856Y-83047889D01*
X129934856Y-82838084D01*
X129770725Y-82872217D01*
X129764986Y-82965579D01*
X129756819Y-83008951D01*
X129745141Y-83043248D01*
X129725314Y-83078288D01*
X129701360Y-83104431D01*
X129671714Y-83124103D01*
X129633949Y-83138503D01*
X129633949Y-83359665D01*
X130474145Y-83185031D01*
X130474145Y-83390134D01*
X130650000Y-83353558D01*
G37*
G36*
X130417358Y-83676203D02*
G01*
X130477406Y-83689348D01*
X130527288Y-83709960D01*
X130568667Y-83737569D01*
X130599449Y-83768180D01*
X130624750Y-83804837D01*
X130644687Y-83848394D01*
X130663001Y-83920255D01*
X130669539Y-84006603D01*
X130662639Y-84099210D01*
X130643039Y-84178855D01*
X130610577Y-84252439D01*
X130566163Y-84320088D01*
X130514192Y-84375777D01*
X130450636Y-84422976D01*
X130379471Y-84458855D01*
X130303724Y-84481594D01*
X130236676Y-84491276D01*
X130181917Y-84491081D01*
X130137151Y-84482815D01*
X130094827Y-84466258D01*
X130059801Y-84444010D01*
X130031027Y-84416015D01*
X130005290Y-84377066D01*
X129987552Y-84332545D01*
X129977492Y-84283941D01*
X129973935Y-84227398D01*
X129978822Y-84162323D01*
X129993353Y-84100087D01*
X130001548Y-84077922D01*
X130149790Y-84077922D01*
X130156873Y-84143928D01*
X130167146Y-84172893D01*
X130182824Y-84195341D01*
X130204379Y-84212539D01*
X130233077Y-84223613D01*
X130266518Y-84226790D01*
X130313616Y-84220926D01*
X130364238Y-84206993D01*
X130398979Y-84190823D01*
X130428412Y-84170130D01*
X130453201Y-84146493D01*
X130470944Y-84122061D01*
X130483609Y-84094713D01*
X130491376Y-84066502D01*
X130493684Y-84043850D01*
X130491150Y-84015439D01*
X130483914Y-83991032D01*
X130471359Y-83969960D01*
X130453201Y-83953358D01*
X130420815Y-83936625D01*
X130371318Y-83926552D01*
X130314440Y-83926637D01*
X130234726Y-83938642D01*
X130195647Y-83947435D01*
X130173421Y-83952747D01*
X130156568Y-84015029D01*
X130149790Y-84077922D01*
X130001548Y-84077922D01*
X130015608Y-84039896D01*
X130043972Y-83980957D01*
X129971849Y-84012631D01*
X129913128Y-84053648D01*
X129865919Y-84104178D01*
X129838656Y-84147901D01*
X129818750Y-84197302D01*
X129806331Y-84253361D01*
X129801988Y-84317280D01*
X129804992Y-84370214D01*
X129813224Y-84412840D01*
X129833251Y-84469809D01*
X129833251Y-84495211D01*
X129631629Y-84537098D01*
X129621310Y-84463703D01*
X129614410Y-84358312D01*
X129619398Y-84262776D01*
X129633725Y-84177276D01*
X129656664Y-84100575D01*
X129689145Y-84027539D01*
X129728659Y-83962911D01*
X129775244Y-83905853D01*
X129831169Y-83852971D01*
X129892159Y-83807627D01*
X129958609Y-83769504D01*
X130028962Y-83738546D01*
X130107747Y-83711974D01*
X130195830Y-83690125D01*
X130282440Y-83676157D01*
X130355625Y-83672052D01*
X130417358Y-83676203D01*
G37*
G36*
X130650000Y-85539837D02*
G01*
X130644795Y-85643720D01*
X130630949Y-85722470D01*
X130605657Y-85794860D01*
X130566957Y-85865108D01*
X130524005Y-85919307D01*
X130471031Y-85964881D01*
X130409696Y-85999342D01*
X130339689Y-86021301D01*
X130288167Y-86027900D01*
X130244821Y-86025531D01*
X130207998Y-86015444D01*
X130176352Y-85998098D01*
X130140822Y-85964515D01*
X130113509Y-85919506D01*
X130094652Y-85860345D01*
X130089157Y-85861505D01*
X130064940Y-85910050D01*
X130035660Y-85951754D01*
X130001229Y-85987351D01*
X129961554Y-86016792D01*
X129918290Y-86038428D01*
X129870804Y-86052564D01*
X129828392Y-86058058D01*
X129790960Y-86056417D01*
X129757536Y-86048351D01*
X129727074Y-86033315D01*
X129700880Y-86010984D01*
X129678463Y-85980329D01*
X129655282Y-85929881D01*
X129642192Y-85877259D01*
X129636426Y-85814846D01*
X129633949Y-85702869D01*
X129633949Y-85533731D01*
X129817620Y-85533731D01*
X129817620Y-85557789D01*
X129818658Y-85674842D01*
X129822536Y-85714157D01*
X129830809Y-85742131D01*
X129847044Y-85765892D01*
X129869033Y-85777974D01*
X129894785Y-85781899D01*
X129920446Y-85779623D01*
X129952262Y-85770237D01*
X129979187Y-85756725D01*
X130001309Y-85736366D01*
X130020464Y-85702686D01*
X130029513Y-85673249D01*
X130034385Y-85632283D01*
X130036461Y-85528297D01*
X130036461Y-85488241D01*
X129817620Y-85533731D01*
X129633949Y-85533731D01*
X129633949Y-85451666D01*
X130212316Y-85451666D01*
X130212316Y-85507841D01*
X130212988Y-85617934D01*
X130216096Y-85667521D01*
X130222575Y-85698778D01*
X130239967Y-85734485D01*
X130261959Y-85753061D01*
X130291291Y-85760079D01*
X130336941Y-85755870D01*
X130372024Y-85744749D01*
X130402337Y-85727233D01*
X130427063Y-85701825D01*
X130447827Y-85662630D01*
X130460850Y-85618738D01*
X130465657Y-85572749D01*
X130466329Y-85417533D01*
X130466329Y-85398848D01*
X130212316Y-85451666D01*
X129633949Y-85451666D01*
X129633949Y-85316721D01*
X130650000Y-85105512D01*
X130650000Y-85539837D01*
G37*
G36*
X130650000Y-86398473D02*
G01*
X130650000Y-86157955D01*
X129884054Y-86317201D01*
X129884054Y-86557719D01*
X130650000Y-86398473D01*
G37*
G36*
X129774633Y-86587151D02*
G01*
X129774633Y-86333260D01*
X129587055Y-86372278D01*
X129587055Y-86626168D01*
X129774633Y-86587151D01*
G37*
G36*
X130643649Y-87116852D02*
G01*
X130659769Y-87031245D01*
X130665631Y-86923839D01*
X130661081Y-86851746D01*
X130648923Y-86797265D01*
X130630858Y-86756692D01*
X130607745Y-86727041D01*
X130577593Y-86705993D01*
X130537003Y-86693195D01*
X130482486Y-86690084D01*
X130409603Y-86699747D01*
X130052093Y-86774057D01*
X130052093Y-86675139D01*
X129884054Y-86710066D01*
X129884054Y-86808984D01*
X129665212Y-86854474D01*
X129665212Y-87094993D01*
X129884054Y-87049502D01*
X129884054Y-87274755D01*
X130052093Y-87239829D01*
X130052093Y-87014576D01*
X130322409Y-86958339D01*
X130392323Y-86944478D01*
X130421423Y-86941619D01*
X130445996Y-86944050D01*
X130467208Y-86952529D01*
X130483670Y-86969269D01*
X130493534Y-86993650D01*
X130497592Y-87035580D01*
X130489349Y-87086444D01*
X130474145Y-87131995D01*
X130474145Y-87152084D01*
X130643649Y-87116852D01*
G37*
G36*
X131974382Y-71657257D02*
G01*
X131974382Y-71147461D01*
X131778988Y-71188066D01*
X131778988Y-71697862D01*
X131974382Y-71657257D01*
G37*
G36*
X132330000Y-73053654D02*
G01*
X132330000Y-72272566D01*
X132161228Y-72307676D01*
X132021338Y-72516076D01*
X131893660Y-72686618D01*
X131814721Y-72775987D01*
X131755174Y-72830355D01*
X131714238Y-72858437D01*
X131675474Y-72877503D01*
X131638365Y-72888729D01*
X131593160Y-72892613D01*
X131558535Y-72884950D01*
X131531386Y-72867175D01*
X131511735Y-72840602D01*
X131498666Y-72802550D01*
X131493712Y-72749023D01*
X131499679Y-72686614D01*
X131519052Y-72614445D01*
X131547838Y-72543072D01*
X131583593Y-72475104D01*
X131583593Y-72453733D01*
X131357852Y-72500689D01*
X131338246Y-72558499D01*
X131315598Y-72649433D01*
X131299622Y-72746141D01*
X131294410Y-72839270D01*
X131300563Y-72934899D01*
X131317177Y-73008807D01*
X131342170Y-73065337D01*
X131374521Y-73107998D01*
X131416856Y-73140749D01*
X131467023Y-73160583D01*
X131527368Y-73167390D01*
X131601057Y-73159106D01*
X131663138Y-73141113D01*
X131723834Y-73113003D01*
X131783689Y-73073988D01*
X131838778Y-73027870D01*
X131898145Y-72968203D01*
X131962231Y-72892882D01*
X132067500Y-72748656D01*
X132134605Y-72647173D01*
X132134605Y-73094260D01*
X132330000Y-73053654D01*
G37*
G36*
X132330000Y-74004797D02*
G01*
X131997829Y-74073857D01*
X131997829Y-74233531D01*
X131994123Y-74305699D01*
X131983649Y-74368070D01*
X131967177Y-74421964D01*
X131929716Y-74498749D01*
X131876563Y-74573456D01*
X131827659Y-74621696D01*
X131767264Y-74662971D01*
X131700877Y-74694394D01*
X131634091Y-74714017D01*
X131575302Y-74722325D01*
X131525680Y-74721735D01*
X131483576Y-74713590D01*
X131444152Y-74697357D01*
X131410096Y-74674015D01*
X131380689Y-74643065D01*
X131352011Y-74596301D01*
X131330680Y-74538224D01*
X131318581Y-74472324D01*
X131313949Y-74381664D01*
X131313949Y-74176195D01*
X131505436Y-74176195D01*
X131505436Y-74220219D01*
X131507145Y-74321458D01*
X131512363Y-74358724D01*
X131524975Y-74396013D01*
X131541375Y-74420340D01*
X131567840Y-74439855D01*
X131600457Y-74449772D01*
X131641051Y-74447365D01*
X131682075Y-74435903D01*
X131714263Y-74421109D01*
X131742001Y-74400989D01*
X131765860Y-74374642D01*
X131785965Y-74338643D01*
X131798283Y-74296728D01*
X131804124Y-74249996D01*
X131806343Y-74187185D01*
X131806343Y-74113668D01*
X131505436Y-74176195D01*
X131313949Y-74176195D01*
X131313949Y-73959429D01*
X132330000Y-73748220D01*
X132330000Y-74004797D01*
G37*
G36*
X132330000Y-75001125D02*
G01*
X132330000Y-74760607D01*
X131564054Y-74919853D01*
X131564054Y-75160371D01*
X132330000Y-75001125D01*
G37*
G36*
X131454633Y-75189802D02*
G01*
X131454633Y-74935912D01*
X131267055Y-74974930D01*
X131267055Y-75228820D01*
X131454633Y-75189802D01*
G37*
G36*
X132330000Y-75992018D02*
G01*
X132330000Y-75750218D01*
X131949164Y-75829413D01*
X131856474Y-75843946D01*
X131813271Y-75845820D01*
X131788452Y-75842114D01*
X131766547Y-75830153D01*
X131751571Y-75810668D01*
X131743284Y-75784249D01*
X131739909Y-75741242D01*
X131742548Y-75708235D01*
X131750839Y-75672426D01*
X131764344Y-75635907D01*
X131785704Y-75592009D01*
X132330000Y-75478864D01*
X132330000Y-75238346D01*
X131564054Y-75397592D01*
X131564054Y-75638110D01*
X131646608Y-75620952D01*
X131599989Y-75695602D01*
X131567962Y-75760598D01*
X131547486Y-75827059D01*
X131540607Y-75897557D01*
X131545845Y-75958026D01*
X131560250Y-76005709D01*
X131582675Y-76043281D01*
X131613147Y-76072618D01*
X131649953Y-76092628D01*
X131696434Y-76104275D01*
X131755332Y-76106229D01*
X131829973Y-76096004D01*
X132330000Y-75992018D01*
G37*
G36*
X132330000Y-76873613D02*
G01*
X132122882Y-76985476D01*
X132122882Y-77354344D01*
X132330000Y-77380111D01*
X132330000Y-77645420D01*
X131313949Y-77489105D01*
X131313949Y-77284002D01*
X131574312Y-77284002D01*
X131939211Y-77330408D01*
X131939211Y-77085921D01*
X131574312Y-77284002D01*
X131313949Y-77284002D01*
X131313949Y-77193815D01*
X132330000Y-76615081D01*
X132330000Y-76873613D01*
G37*
G36*
X132330000Y-78552660D02*
G01*
X132330000Y-78310860D01*
X131949164Y-78390055D01*
X131856474Y-78404588D01*
X131813271Y-78406462D01*
X131788452Y-78402756D01*
X131766547Y-78390795D01*
X131751571Y-78371310D01*
X131743284Y-78344891D01*
X131739909Y-78301884D01*
X131742548Y-78268877D01*
X131750839Y-78233068D01*
X131764344Y-78196549D01*
X131785704Y-78152651D01*
X132330000Y-78039506D01*
X132330000Y-77798988D01*
X131564054Y-77958234D01*
X131564054Y-78198752D01*
X131646608Y-78181594D01*
X131599989Y-78256244D01*
X131567962Y-78321240D01*
X131547486Y-78387701D01*
X131540607Y-78458199D01*
X131545845Y-78518668D01*
X131560250Y-78566351D01*
X131582675Y-78603923D01*
X131613147Y-78633260D01*
X131649953Y-78653270D01*
X131696434Y-78664917D01*
X131755332Y-78666871D01*
X131829973Y-78656646D01*
X132330000Y-78552660D01*
G37*
G36*
X132210160Y-78783235D02*
G01*
X132249990Y-78797235D01*
X132285425Y-78820778D01*
X132314591Y-78852026D01*
X132335628Y-78889069D01*
X132348785Y-78933075D01*
X132353447Y-78985703D01*
X132351144Y-79030310D01*
X132344471Y-79071065D01*
X132333529Y-79110589D01*
X132318398Y-79150078D01*
X132284937Y-79211078D01*
X132248728Y-79266765D01*
X132330000Y-79249851D01*
X132330000Y-79488415D01*
X131807808Y-79596981D01*
X131738106Y-79604715D01*
X131683438Y-79597853D01*
X131640033Y-79578846D01*
X131605209Y-79547889D01*
X131580271Y-79508276D01*
X131559988Y-79451526D01*
X131545949Y-79372487D01*
X131540607Y-79265055D01*
X131544067Y-79178635D01*
X131554590Y-79090055D01*
X131578770Y-78961095D01*
X131763356Y-78922688D01*
X131763356Y-78944731D01*
X131730200Y-79048534D01*
X131713713Y-79119384D01*
X131708646Y-79179998D01*
X131712041Y-79246281D01*
X131720784Y-79292897D01*
X131733131Y-79324590D01*
X131753136Y-79347979D01*
X131781280Y-79358981D01*
X131821730Y-79356952D01*
X131825882Y-79356036D01*
X131828225Y-79324590D01*
X131970474Y-79324590D01*
X132130636Y-79291311D01*
X132152818Y-79256506D01*
X132170387Y-79217855D01*
X132181815Y-79177881D01*
X132185408Y-79141652D01*
X132183454Y-79099349D01*
X132178935Y-79076133D01*
X132170458Y-79057777D01*
X132158724Y-79043649D01*
X132144265Y-79033274D01*
X132129965Y-79029483D01*
X132090947Y-79033635D01*
X132057706Y-79045450D01*
X132032451Y-79064837D01*
X132013289Y-79091395D01*
X131998562Y-79126997D01*
X131981770Y-79216695D01*
X131970474Y-79324590D01*
X131828225Y-79324590D01*
X131833836Y-79249268D01*
X131845116Y-79146842D01*
X131863376Y-79049440D01*
X131889080Y-78972025D01*
X131912702Y-78924807D01*
X131940858Y-78884450D01*
X131973588Y-78850209D01*
X132011530Y-78822373D01*
X132057101Y-78800460D01*
X132111646Y-78784752D01*
X132164614Y-78778723D01*
X132210160Y-78783235D01*
G37*
G36*
X132330000Y-79970978D02*
G01*
X132330000Y-79730460D01*
X131267055Y-79951439D01*
X131267055Y-80191957D01*
X132330000Y-79970978D01*
G37*
G36*
X132092692Y-80222061D02*
G01*
X132150546Y-80232171D01*
X132200798Y-80251225D01*
X132244759Y-80279030D01*
X132281912Y-80315139D01*
X132311584Y-80359564D01*
X132333901Y-80413721D01*
X132348274Y-80479565D01*
X132353447Y-80559481D01*
X132346184Y-80656055D01*
X132325303Y-80741348D01*
X132291537Y-80817217D01*
X132244759Y-80885118D01*
X132186503Y-80943747D01*
X132118455Y-80991430D01*
X132039342Y-81028567D01*
X131947393Y-81054867D01*
X131869139Y-81066059D01*
X131801976Y-81065884D01*
X131744038Y-81055906D01*
X131693702Y-81037041D01*
X131649661Y-81009499D01*
X131612436Y-80973658D01*
X131582680Y-80929361D01*
X131560271Y-80875151D01*
X131545816Y-80809015D01*
X131540607Y-80728497D01*
X131543300Y-80692716D01*
X131712554Y-80692716D01*
X131715544Y-80726208D01*
X131724094Y-80755059D01*
X131739560Y-80779577D01*
X131763478Y-80798351D01*
X131793423Y-80810396D01*
X131836079Y-80816730D01*
X131883908Y-80815456D01*
X131948736Y-80805312D01*
X132017020Y-80787810D01*
X132062431Y-80769958D01*
X132100933Y-80747106D01*
X132132651Y-80720315D01*
X132155497Y-80692318D01*
X132170326Y-80662002D01*
X132178731Y-80629634D01*
X132181500Y-80597217D01*
X132178252Y-80560824D01*
X132169288Y-80531943D01*
X132153591Y-80507693D01*
X132130575Y-80488895D01*
X132099972Y-80476635D01*
X132056997Y-80470760D01*
X132009351Y-80472388D01*
X131948736Y-80481873D01*
X131882247Y-80499248D01*
X131832660Y-80519059D01*
X131790032Y-80543923D01*
X131760059Y-80569312D01*
X131735537Y-80600726D01*
X131722079Y-80628907D01*
X131715011Y-80658889D01*
X131712554Y-80692716D01*
X131543300Y-80692716D01*
X131547820Y-80632674D01*
X131568592Y-80547711D01*
X131602241Y-80471818D01*
X131648928Y-80403593D01*
X131707043Y-80344747D01*
X131775193Y-80296840D01*
X131854699Y-80259482D01*
X131947393Y-80232990D01*
X132025601Y-80221809D01*
X132092692Y-80222061D01*
G37*
G36*
X132598372Y-81197389D02*
G01*
X132609535Y-81268457D01*
X132616742Y-81342913D01*
X132619183Y-81420437D01*
X132614297Y-81514432D01*
X132600376Y-81597086D01*
X132575416Y-81673922D01*
X132539316Y-81740457D01*
X132508729Y-81779564D01*
X132470578Y-81815573D01*
X132423972Y-81848595D01*
X132373309Y-81875312D01*
X132313256Y-81898081D01*
X132242438Y-81916434D01*
X131564054Y-82057484D01*
X131564054Y-81824293D01*
X131595989Y-81808967D01*
X131573096Y-81771366D01*
X131555322Y-81726901D01*
X131544796Y-81679518D01*
X131720369Y-81679518D01*
X131725498Y-81732580D01*
X131739542Y-81780390D01*
X132088199Y-81707911D01*
X132105489Y-81674230D01*
X132119096Y-81638058D01*
X132127852Y-81600814D01*
X132130697Y-81564846D01*
X132125024Y-81513873D01*
X132109995Y-81478304D01*
X132086856Y-81453960D01*
X132055710Y-81440349D01*
X132006785Y-81436029D01*
X131932067Y-81445717D01*
X131867897Y-81464767D01*
X131816700Y-81491510D01*
X131776240Y-81525523D01*
X131745727Y-81567906D01*
X131726979Y-81618478D01*
X131720369Y-81679518D01*
X131544796Y-81679518D01*
X131544493Y-81678156D01*
X131540607Y-81619373D01*
X131547105Y-81552138D01*
X131567290Y-81481803D01*
X131599382Y-81415494D01*
X131641723Y-81357789D01*
X131697212Y-81304320D01*
X131762013Y-81259298D01*
X131835503Y-81224778D01*
X131926022Y-81199092D01*
X132029166Y-81184389D01*
X132109738Y-81185603D01*
X132172450Y-81199257D01*
X132221250Y-81223272D01*
X132254800Y-81251628D01*
X132281275Y-81286763D01*
X132301032Y-81329764D01*
X132313713Y-81382263D01*
X132318276Y-81446327D01*
X132312900Y-81509655D01*
X132297088Y-81568265D01*
X132272227Y-81623752D01*
X132239691Y-81676404D01*
X132253979Y-81673473D01*
X132299440Y-81661510D01*
X132335434Y-81647156D01*
X132366808Y-81628255D01*
X132391182Y-81605573D01*
X132411027Y-81575521D01*
X132426842Y-81534255D01*
X132435960Y-81486974D01*
X132439420Y-81423063D01*
X132435959Y-81371912D01*
X132424766Y-81312543D01*
X132408686Y-81254883D01*
X132392526Y-81211671D01*
X132392526Y-81182301D01*
X132586088Y-81142062D01*
X132598372Y-81197389D01*
G37*
G36*
X132330000Y-83353558D02*
G01*
X132330000Y-82689401D01*
X132154145Y-82725976D01*
X132154145Y-82935781D01*
X131614856Y-83047889D01*
X131614856Y-82838084D01*
X131450725Y-82872217D01*
X131444986Y-82965579D01*
X131436819Y-83008951D01*
X131425141Y-83043248D01*
X131405314Y-83078288D01*
X131381360Y-83104431D01*
X131351714Y-83124103D01*
X131313949Y-83138503D01*
X131313949Y-83359665D01*
X132154145Y-83185031D01*
X132154145Y-83390134D01*
X132330000Y-83353558D01*
G37*
G36*
X132114271Y-83666672D02*
G01*
X132168958Y-83679300D01*
X132214778Y-83698490D01*
X132255415Y-83725703D01*
X132288807Y-83760917D01*
X132315528Y-83805163D01*
X132333548Y-83854236D01*
X132345285Y-83914616D01*
X132349539Y-83988590D01*
X132345497Y-84063731D01*
X132334015Y-84129332D01*
X132315833Y-84186671D01*
X132289741Y-84240726D01*
X132256617Y-84289802D01*
X132216121Y-84334377D01*
X132170721Y-84372154D01*
X132115903Y-84407298D01*
X132050403Y-84439645D01*
X131945103Y-84478309D01*
X131821303Y-84509987D01*
X131696554Y-84529980D01*
X131595622Y-84534839D01*
X131531232Y-84529603D01*
X131476977Y-84517116D01*
X131431247Y-84498203D01*
X131389594Y-84470771D01*
X131355669Y-84435848D01*
X131328787Y-84392568D01*
X131310681Y-84344397D01*
X131298768Y-84283768D01*
X131294410Y-84207981D01*
X131296531Y-84168963D01*
X131481988Y-84168963D01*
X131487211Y-84207286D01*
X131501591Y-84235548D01*
X131525039Y-84256328D01*
X131559841Y-84270324D01*
X131612725Y-84276623D01*
X131696104Y-84272216D01*
X131821303Y-84251395D01*
X131942436Y-84221203D01*
X132026597Y-84190777D01*
X132082398Y-84161025D01*
X132118667Y-84131472D01*
X132142958Y-84099844D01*
X132157162Y-84065589D01*
X132161960Y-84027608D01*
X132156706Y-83990106D01*
X132142149Y-83962190D01*
X132118208Y-83941418D01*
X132082398Y-83927224D01*
X132028486Y-83920702D01*
X131945366Y-83924860D01*
X131822646Y-83945115D01*
X131699047Y-83975796D01*
X131614602Y-84006095D01*
X131559841Y-84035179D01*
X131524577Y-84064122D01*
X131500782Y-84095585D01*
X131486758Y-84130152D01*
X131481988Y-84168963D01*
X131296531Y-84168963D01*
X131298351Y-84135495D01*
X131309670Y-84070689D01*
X131327810Y-84012587D01*
X131353793Y-83957831D01*
X131387017Y-83908320D01*
X131427827Y-83863538D01*
X131474966Y-83824309D01*
X131529608Y-83788785D01*
X131592569Y-83757048D01*
X131695004Y-83719104D01*
X131821974Y-83686706D01*
X131946879Y-83666637D01*
X132048998Y-83661488D01*
X132114271Y-83666672D01*
G37*
G36*
X132330000Y-85539837D02*
G01*
X132324795Y-85643720D01*
X132310949Y-85722470D01*
X132285657Y-85794860D01*
X132246957Y-85865108D01*
X132204005Y-85919307D01*
X132151031Y-85964881D01*
X132089696Y-85999342D01*
X132019689Y-86021301D01*
X131968167Y-86027900D01*
X131924821Y-86025531D01*
X131887998Y-86015444D01*
X131856352Y-85998098D01*
X131820822Y-85964515D01*
X131793509Y-85919506D01*
X131774652Y-85860345D01*
X131769157Y-85861505D01*
X131744940Y-85910050D01*
X131715660Y-85951754D01*
X131681229Y-85987351D01*
X131641554Y-86016792D01*
X131598290Y-86038428D01*
X131550804Y-86052564D01*
X131508392Y-86058058D01*
X131470960Y-86056417D01*
X131437536Y-86048351D01*
X131407074Y-86033315D01*
X131380880Y-86010984D01*
X131358463Y-85980329D01*
X131335282Y-85929881D01*
X131322192Y-85877259D01*
X131316426Y-85814846D01*
X131313949Y-85702869D01*
X131313949Y-85533731D01*
X131497620Y-85533731D01*
X131497620Y-85557789D01*
X131498658Y-85674842D01*
X131502536Y-85714157D01*
X131510809Y-85742131D01*
X131527044Y-85765892D01*
X131549033Y-85777974D01*
X131574785Y-85781899D01*
X131600446Y-85779623D01*
X131632262Y-85770237D01*
X131659187Y-85756725D01*
X131681309Y-85736366D01*
X131700464Y-85702686D01*
X131709513Y-85673249D01*
X131714385Y-85632283D01*
X131716461Y-85528297D01*
X131716461Y-85488241D01*
X131497620Y-85533731D01*
X131313949Y-85533731D01*
X131313949Y-85451666D01*
X131892316Y-85451666D01*
X131892316Y-85507841D01*
X131892988Y-85617934D01*
X131896096Y-85667521D01*
X131902575Y-85698778D01*
X131919967Y-85734485D01*
X131941959Y-85753061D01*
X131971291Y-85760079D01*
X132016941Y-85755870D01*
X132052024Y-85744749D01*
X132082337Y-85727233D01*
X132107063Y-85701825D01*
X132127827Y-85662630D01*
X132140850Y-85618738D01*
X132145657Y-85572749D01*
X132146329Y-85417533D01*
X132146329Y-85398848D01*
X131892316Y-85451666D01*
X131313949Y-85451666D01*
X131313949Y-85316721D01*
X132330000Y-85105512D01*
X132330000Y-85539837D01*
G37*
G36*
X132330000Y-86398473D02*
G01*
X132330000Y-86157955D01*
X131564054Y-86317201D01*
X131564054Y-86557719D01*
X132330000Y-86398473D01*
G37*
G36*
X131454633Y-86587151D02*
G01*
X131454633Y-86333260D01*
X131267055Y-86372278D01*
X131267055Y-86626168D01*
X131454633Y-86587151D01*
G37*
G36*
X132323649Y-87116852D02*
G01*
X132339769Y-87031245D01*
X132345631Y-86923839D01*
X132341081Y-86851746D01*
X132328923Y-86797265D01*
X132310858Y-86756692D01*
X132287745Y-86727041D01*
X132257593Y-86705993D01*
X132217003Y-86693195D01*
X132162486Y-86690084D01*
X132089603Y-86699747D01*
X131732093Y-86774057D01*
X131732093Y-86675139D01*
X131564054Y-86710066D01*
X131564054Y-86808984D01*
X131345212Y-86854474D01*
X131345212Y-87094993D01*
X131564054Y-87049502D01*
X131564054Y-87274755D01*
X131732093Y-87239829D01*
X131732093Y-87014576D01*
X132002409Y-86958339D01*
X132072323Y-86944478D01*
X132101423Y-86941619D01*
X132125996Y-86944050D01*
X132147208Y-86952529D01*
X132163670Y-86969269D01*
X132173534Y-86993650D01*
X132177592Y-87035580D01*
X132169349Y-87086444D01*
X132154145Y-87131995D01*
X132154145Y-87152084D01*
X132323649Y-87116852D01*
G37*
G36*
X133654382Y-71657257D02*
G01*
X133654382Y-71147461D01*
X133458988Y-71188066D01*
X133458988Y-71697862D01*
X133654382Y-71657257D01*
G37*
G36*
X133532016Y-73055425D02*
G01*
X133562986Y-73078393D01*
X133598878Y-73093710D01*
X133640165Y-73098995D01*
X133700605Y-73091878D01*
X133769729Y-73070633D01*
X133834328Y-73036374D01*
X133891501Y-72989752D01*
X133940818Y-72929091D01*
X133978498Y-72860704D01*
X134006702Y-72783339D01*
X134023439Y-72699028D01*
X134029539Y-72594478D01*
X134024085Y-72475834D01*
X134009633Y-72386505D01*
X133987241Y-72306814D01*
X133964998Y-72251805D01*
X133740355Y-72298517D01*
X133740355Y-72324528D01*
X133773404Y-72378552D01*
X133803553Y-72448726D01*
X133823860Y-72522557D01*
X133830237Y-72589166D01*
X133823703Y-72674712D01*
X133813018Y-72719412D01*
X133794944Y-72757571D01*
X133775721Y-72783865D01*
X133753117Y-72805626D01*
X133724945Y-72822130D01*
X133682165Y-72835118D01*
X133640114Y-72838185D01*
X133612616Y-72829501D01*
X133591825Y-72811014D01*
X133577629Y-72784010D01*
X133569365Y-72751482D01*
X133565539Y-72707684D01*
X133564501Y-72622444D01*
X133564501Y-72567672D01*
X133388646Y-72604248D01*
X133388646Y-72661034D01*
X133385287Y-72753907D01*
X133379450Y-72793142D01*
X133369656Y-72825287D01*
X133354260Y-72854711D01*
X133335462Y-72876456D01*
X133310664Y-72892277D01*
X133272691Y-72904239D01*
X133244052Y-72905987D01*
X133223599Y-72899049D01*
X133207015Y-72885319D01*
X133194045Y-72866442D01*
X133184168Y-72841192D01*
X133177803Y-72808374D01*
X133173712Y-72748351D01*
X133178886Y-72684106D01*
X133195877Y-72607423D01*
X133222601Y-72530253D01*
X133259685Y-72451901D01*
X133259685Y-72427172D01*
X133038707Y-72473089D01*
X133017827Y-72537749D01*
X132995293Y-72631114D01*
X132979582Y-72729710D01*
X132974410Y-72826570D01*
X132978905Y-72917332D01*
X132991018Y-72988136D01*
X133011461Y-73051226D01*
X133035471Y-73095847D01*
X133059912Y-73125012D01*
X133086702Y-73146265D01*
X133116193Y-73160572D01*
X133148198Y-73168304D01*
X133184890Y-73169809D01*
X133227384Y-73164235D01*
X133280924Y-73147475D01*
X133330746Y-73120198D01*
X133377594Y-73081498D01*
X133416651Y-73035114D01*
X133444567Y-72984360D01*
X133462041Y-72928358D01*
X133471261Y-72926404D01*
X133478274Y-72959511D01*
X133490373Y-72994609D01*
X133507988Y-73027410D01*
X133532016Y-73055425D01*
G37*
G36*
X134029539Y-74193780D02*
G01*
X134025598Y-74120388D01*
X134014276Y-74054748D01*
X133996139Y-73995882D01*
X133969695Y-73940777D01*
X133936557Y-73894242D01*
X133896549Y-73855259D01*
X133850054Y-73824282D01*
X133795506Y-73800769D01*
X133731502Y-73785040D01*
X133665522Y-73778913D01*
X133589895Y-73781902D01*
X133503012Y-73795420D01*
X133423894Y-73815921D01*
X133351127Y-73842939D01*
X133284110Y-73876325D01*
X133221226Y-73916842D01*
X133165215Y-73962764D01*
X133115582Y-74014262D01*
X133074280Y-74069096D01*
X133039517Y-74129694D01*
X133011229Y-74196650D01*
X132990845Y-74266501D01*
X132978553Y-74338736D01*
X132974410Y-74413843D01*
X132976327Y-74474960D01*
X132981615Y-74525584D01*
X133000422Y-74614855D01*
X133029548Y-74690020D01*
X133059345Y-74747662D01*
X133306580Y-74696249D01*
X133306580Y-74666878D01*
X133267196Y-74627922D01*
X133222316Y-74572784D01*
X133202128Y-74539110D01*
X133185008Y-74500976D01*
X133173739Y-74459874D01*
X133169804Y-74412622D01*
X133174132Y-74359070D01*
X133187206Y-74306071D01*
X133209802Y-74255280D01*
X133244909Y-74203916D01*
X133288879Y-74159885D01*
X133348040Y-74118614D01*
X133416776Y-74086396D01*
X133503684Y-74061889D01*
X133567961Y-74051903D01*
X133620561Y-74050140D01*
X133663480Y-74055050D01*
X133722684Y-74073808D01*
X133764474Y-74100540D01*
X133796688Y-74137014D01*
X133818086Y-74180286D01*
X133830144Y-74227692D01*
X133834145Y-74275907D01*
X133830571Y-74322679D01*
X133819551Y-74371406D01*
X133802346Y-74419027D01*
X133779984Y-74464157D01*
X133736936Y-74533949D01*
X133697369Y-74588232D01*
X133697369Y-74614977D01*
X133941673Y-74564235D01*
X133973974Y-74485956D01*
X134000047Y-74409080D01*
X134021967Y-74312909D01*
X134027394Y-74264777D01*
X134029539Y-74193780D01*
G37*
G36*
X134010000Y-74907946D02*
G01*
X133802882Y-75019809D01*
X133802882Y-75388677D01*
X134010000Y-75414445D01*
X134010000Y-75679754D01*
X132993949Y-75523438D01*
X132993949Y-75318335D01*
X133254312Y-75318335D01*
X133619211Y-75364741D01*
X133619211Y-75120254D01*
X133254312Y-75318335D01*
X132993949Y-75318335D01*
X132993949Y-75228148D01*
X134010000Y-74649415D01*
X134010000Y-74907946D01*
G37*
G36*
X134010000Y-76751430D02*
G01*
X134010000Y-76504195D01*
X133312625Y-76226857D01*
X134010000Y-76081899D01*
X134010000Y-75846755D01*
X132993949Y-76057964D01*
X132993949Y-76364610D01*
X133576041Y-76606472D01*
X132993949Y-76727433D01*
X132993949Y-76962639D01*
X134010000Y-76751430D01*
G37*
G36*
X134010000Y-77943885D02*
G01*
X134004795Y-78047767D01*
X133990949Y-78126517D01*
X133965657Y-78198907D01*
X133926957Y-78269155D01*
X133884005Y-78323355D01*
X133831031Y-78368928D01*
X133769696Y-78403389D01*
X133699689Y-78425348D01*
X133648167Y-78431947D01*
X133604821Y-78429579D01*
X133567998Y-78419491D01*
X133536352Y-78402145D01*
X133500822Y-78368563D01*
X133473509Y-78323553D01*
X133454652Y-78264392D01*
X133449157Y-78265553D01*
X133424940Y-78314098D01*
X133395660Y-78355802D01*
X133361229Y-78391399D01*
X133321554Y-78420839D01*
X133278290Y-78442475D01*
X133230804Y-78456612D01*
X133188392Y-78462105D01*
X133150960Y-78460465D01*
X133117536Y-78452398D01*
X133087074Y-78437362D01*
X133060880Y-78415031D01*
X133038463Y-78384377D01*
X133015282Y-78333929D01*
X133002192Y-78281306D01*
X132996426Y-78218893D01*
X132993949Y-78106917D01*
X132993949Y-77937779D01*
X133177620Y-77937779D01*
X133177620Y-77961837D01*
X133178658Y-78078890D01*
X133182536Y-78118205D01*
X133190809Y-78146179D01*
X133207044Y-78169940D01*
X133229033Y-78182021D01*
X133254785Y-78185946D01*
X133280446Y-78183670D01*
X133312262Y-78174285D01*
X133339187Y-78160772D01*
X133361309Y-78140414D01*
X133380464Y-78106734D01*
X133389513Y-78077296D01*
X133394385Y-78036331D01*
X133396461Y-77932344D01*
X133396461Y-77892288D01*
X133177620Y-77937779D01*
X132993949Y-77937779D01*
X132993949Y-77855713D01*
X133572316Y-77855713D01*
X133572316Y-77911889D01*
X133572988Y-78021981D01*
X133576096Y-78071569D01*
X133582575Y-78102826D01*
X133599967Y-78138533D01*
X133621959Y-78157109D01*
X133651291Y-78164126D01*
X133696941Y-78159918D01*
X133732024Y-78148796D01*
X133762337Y-78131280D01*
X133787063Y-78105872D01*
X133807827Y-78066678D01*
X133820850Y-78022786D01*
X133825657Y-77976796D01*
X133826329Y-77821580D01*
X133826329Y-77802896D01*
X133572316Y-77855713D01*
X132993949Y-77855713D01*
X132993949Y-77720769D01*
X134010000Y-77509560D01*
X134010000Y-77943885D01*
G37*
G36*
X134010000Y-79309752D02*
G01*
X134010000Y-79069173D01*
X133927445Y-79086331D01*
X133974909Y-79009765D01*
X134006458Y-78947601D01*
X134026463Y-78883800D01*
X134033447Y-78809726D01*
X134028105Y-78747826D01*
X134013498Y-78699631D01*
X133990889Y-78662208D01*
X133960296Y-78633504D01*
X133923218Y-78614053D01*
X133876665Y-78602815D01*
X133818010Y-78601094D01*
X133744080Y-78611278D01*
X133244054Y-78715265D01*
X133244054Y-78957126D01*
X133624890Y-78877930D01*
X133721671Y-78861444D01*
X133758576Y-78860326D01*
X133785601Y-78865230D01*
X133807502Y-78876669D01*
X133822543Y-78896004D01*
X133830787Y-78922418D01*
X133834145Y-78965430D01*
X133831469Y-78997028D01*
X133822543Y-79035956D01*
X133808356Y-79075242D01*
X133788349Y-79115273D01*
X133244054Y-79228419D01*
X133244054Y-79468998D01*
X134010000Y-79309752D01*
G37*
G36*
X133768016Y-80261017D02*
G01*
X133823899Y-80243102D01*
X133874025Y-80213864D01*
X133919390Y-80172384D01*
X133960418Y-80116791D01*
X133991145Y-80056202D01*
X134013967Y-79986872D01*
X134028375Y-79907421D01*
X134033447Y-79816250D01*
X134028414Y-79719073D01*
X134014457Y-79638442D01*
X133993164Y-79565446D01*
X133972386Y-79516259D01*
X133771618Y-79558025D01*
X133771618Y-79580068D01*
X133798302Y-79616277D01*
X133829443Y-79676971D01*
X133842812Y-79712821D01*
X133854844Y-79756472D01*
X133862663Y-79802978D01*
X133865408Y-79855879D01*
X133860998Y-79922318D01*
X133850143Y-79963956D01*
X133837540Y-79986396D01*
X133822619Y-80000279D01*
X133805019Y-80007431D01*
X133779916Y-80007214D01*
X133764230Y-79995830D01*
X133753262Y-79973514D01*
X133739867Y-79924755D01*
X133726495Y-79855024D01*
X133708970Y-79775462D01*
X133685506Y-79714080D01*
X133656899Y-79670755D01*
X133623607Y-79641556D01*
X133583441Y-79623265D01*
X133536126Y-79616348D01*
X133479199Y-79622138D01*
X133427454Y-79638953D01*
X133379882Y-79667105D01*
X133335634Y-79707790D01*
X133294368Y-79763128D01*
X133263263Y-79823023D01*
X133240222Y-79891328D01*
X133225708Y-79969376D01*
X133220607Y-80058722D01*
X133225108Y-80141357D01*
X133238131Y-80216442D01*
X133257561Y-80285310D01*
X133275561Y-80329282D01*
X133470711Y-80288677D01*
X133470711Y-80267978D01*
X133438243Y-80218589D01*
X133411482Y-80158312D01*
X133394405Y-80093302D01*
X133388646Y-80024467D01*
X133392782Y-79968567D01*
X133404216Y-79923351D01*
X133417283Y-79896983D01*
X133431931Y-79881676D01*
X133448363Y-79874441D01*
X133473375Y-79874137D01*
X133490190Y-79883784D01*
X133502471Y-79905455D01*
X133519010Y-79962674D01*
X133533787Y-80038695D01*
X133551922Y-80120211D01*
X133573753Y-80177060D01*
X133600531Y-80217047D01*
X133631851Y-80243859D01*
X133669545Y-80260476D01*
X133714158Y-80266638D01*
X133768016Y-80261017D01*
G37*
G36*
X135334382Y-71657257D02*
G01*
X135334382Y-71147461D01*
X135138988Y-71188066D01*
X135138988Y-71697862D01*
X135334382Y-71657257D01*
G37*
G36*
X135212016Y-73055425D02*
G01*
X135242986Y-73078393D01*
X135278878Y-73093710D01*
X135320165Y-73098995D01*
X135380605Y-73091878D01*
X135449729Y-73070633D01*
X135514328Y-73036374D01*
X135571501Y-72989752D01*
X135620818Y-72929091D01*
X135658498Y-72860704D01*
X135686702Y-72783339D01*
X135703439Y-72699028D01*
X135709539Y-72594478D01*
X135704085Y-72475834D01*
X135689633Y-72386505D01*
X135667241Y-72306814D01*
X135644998Y-72251805D01*
X135420355Y-72298517D01*
X135420355Y-72324528D01*
X135453404Y-72378552D01*
X135483553Y-72448726D01*
X135503860Y-72522557D01*
X135510237Y-72589166D01*
X135503703Y-72674712D01*
X135493018Y-72719412D01*
X135474944Y-72757571D01*
X135455721Y-72783865D01*
X135433117Y-72805626D01*
X135404945Y-72822130D01*
X135362165Y-72835118D01*
X135320114Y-72838185D01*
X135292616Y-72829501D01*
X135271825Y-72811014D01*
X135257629Y-72784010D01*
X135249365Y-72751482D01*
X135245539Y-72707684D01*
X135244501Y-72622444D01*
X135244501Y-72567672D01*
X135068646Y-72604248D01*
X135068646Y-72661034D01*
X135065287Y-72753907D01*
X135059450Y-72793142D01*
X135049656Y-72825287D01*
X135034260Y-72854711D01*
X135015462Y-72876456D01*
X134990664Y-72892277D01*
X134952691Y-72904239D01*
X134924052Y-72905987D01*
X134903599Y-72899049D01*
X134887015Y-72885319D01*
X134874045Y-72866442D01*
X134864168Y-72841192D01*
X134857803Y-72808374D01*
X134853712Y-72748351D01*
X134858886Y-72684106D01*
X134875877Y-72607423D01*
X134902601Y-72530253D01*
X134939685Y-72451901D01*
X134939685Y-72427172D01*
X134718707Y-72473089D01*
X134697827Y-72537749D01*
X134675293Y-72631114D01*
X134659582Y-72729710D01*
X134654410Y-72826570D01*
X134658905Y-72917332D01*
X134671018Y-72988136D01*
X134691461Y-73051226D01*
X134715471Y-73095847D01*
X134739912Y-73125012D01*
X134766702Y-73146265D01*
X134796193Y-73160572D01*
X134828198Y-73168304D01*
X134864890Y-73169809D01*
X134907384Y-73164235D01*
X134960924Y-73147475D01*
X135010746Y-73120198D01*
X135057594Y-73081498D01*
X135096651Y-73035114D01*
X135124567Y-72984360D01*
X135142041Y-72928358D01*
X135151261Y-72926404D01*
X135158274Y-72959511D01*
X135170373Y-72994609D01*
X135187988Y-73027410D01*
X135212016Y-73055425D01*
G37*
G36*
X135371079Y-74610947D02*
G01*
X135441952Y-74588615D01*
X135505625Y-74552729D01*
X135563304Y-74502344D01*
X135615566Y-74435458D01*
X135655406Y-74361919D01*
X135684731Y-74278806D01*
X135703106Y-74184588D01*
X135709539Y-74077459D01*
X135703473Y-73958564D01*
X135687191Y-73866678D01*
X135661466Y-73781907D01*
X135630526Y-73706332D01*
X135385184Y-73757379D01*
X135385184Y-73785467D01*
X135426740Y-73831671D01*
X135461437Y-73883594D01*
X135489476Y-73941844D01*
X135509914Y-74003347D01*
X135521914Y-74063821D01*
X135525868Y-74123743D01*
X135521594Y-74186086D01*
X135515563Y-74223283D01*
X135507306Y-74251177D01*
X135492596Y-74281508D01*
X135475249Y-74306315D01*
X135452291Y-74325077D01*
X135418218Y-74337212D01*
X135386898Y-74336767D01*
X135360455Y-74321519D01*
X135340110Y-74293971D01*
X135323147Y-74248002D01*
X135297562Y-74134795D01*
X135283726Y-74076223D01*
X135267093Y-74023848D01*
X135242148Y-73965796D01*
X135214826Y-73921816D01*
X135185451Y-73889401D01*
X135153948Y-73866617D01*
X135104857Y-73847251D01*
X135046661Y-73840566D01*
X134976505Y-73848360D01*
X134909883Y-73869719D01*
X134849634Y-73904697D01*
X134794621Y-73954461D01*
X134744352Y-74021284D01*
X134705762Y-74094464D01*
X134677725Y-74174611D01*
X134660399Y-74262812D01*
X134654410Y-74360354D01*
X134659302Y-74457468D01*
X134673766Y-74550375D01*
X134696508Y-74638285D01*
X134722309Y-74706385D01*
X134955317Y-74657903D01*
X134955317Y-74630486D01*
X134924845Y-74595316D01*
X134896935Y-74552373D01*
X134871725Y-74500549D01*
X134853117Y-74446233D01*
X134841882Y-74389420D01*
X134838080Y-74329579D01*
X134842721Y-74264733D01*
X134849299Y-74232393D01*
X134860062Y-74200008D01*
X134873345Y-74173202D01*
X134892363Y-74148534D01*
X134915849Y-74129487D01*
X134941639Y-74119591D01*
X134967591Y-74117887D01*
X134987602Y-74123762D01*
X135003555Y-74136749D01*
X135021804Y-74169913D01*
X135042817Y-74242201D01*
X135065409Y-74342707D01*
X135095512Y-74445045D01*
X135126355Y-74512545D01*
X135161212Y-74560172D01*
X135199804Y-74592079D01*
X135245424Y-74611572D01*
X135301385Y-74618580D01*
X135371079Y-74610947D01*
G37*
G36*
X134924054Y-76085319D02*
G01*
X135690000Y-75693553D01*
X135690000Y-75438319D01*
X135173670Y-75392646D01*
X135690000Y-75134970D01*
X135690000Y-74876378D01*
X134924054Y-74805059D01*
X134924054Y-75057667D01*
X135451985Y-75076168D01*
X134924054Y-75346301D01*
X134924054Y-75559464D01*
X135451985Y-75602023D01*
X134924054Y-75838084D01*
X134924054Y-76085319D01*
G37*
G36*
X135690000Y-76340553D02*
G01*
X135690000Y-76100034D01*
X134924054Y-76259281D01*
X134924054Y-76499799D01*
X135690000Y-76340553D01*
G37*
G36*
X134814633Y-76529230D02*
G01*
X134814633Y-76275340D01*
X134627055Y-76314357D01*
X134627055Y-76568248D01*
X134814633Y-76529230D01*
G37*
G36*
X135683649Y-77058932D02*
G01*
X135699769Y-76973325D01*
X135705631Y-76865919D01*
X135701081Y-76793825D01*
X135688923Y-76739344D01*
X135670858Y-76698772D01*
X135647745Y-76669120D01*
X135617593Y-76648073D01*
X135577003Y-76635275D01*
X135522486Y-76632163D01*
X135449603Y-76641826D01*
X135092093Y-76716137D01*
X135092093Y-76617219D01*
X134924054Y-76652145D01*
X134924054Y-76751064D01*
X134705212Y-76796554D01*
X134705212Y-77037072D01*
X134924054Y-76991582D01*
X134924054Y-77216835D01*
X135092093Y-77181908D01*
X135092093Y-76956655D01*
X135362409Y-76900418D01*
X135432323Y-76886557D01*
X135461423Y-76883699D01*
X135485996Y-76886130D01*
X135507208Y-76894608D01*
X135523670Y-76911348D01*
X135533534Y-76935729D01*
X135537592Y-76977660D01*
X135529349Y-77028524D01*
X135514145Y-77074075D01*
X135514145Y-77094164D01*
X135683649Y-77058932D01*
G37*
G36*
X135713447Y-77600785D02*
G01*
X135707125Y-77505752D01*
X135689450Y-77426395D01*
X135670024Y-77377560D01*
X135645284Y-77335890D01*
X135615261Y-77300488D01*
X135579525Y-77271715D01*
X135537754Y-77249712D01*
X135488927Y-77234481D01*
X135437960Y-77227624D01*
X135378969Y-77228660D01*
X135310446Y-77238878D01*
X135240032Y-77257642D01*
X135178378Y-77282337D01*
X135124455Y-77312639D01*
X135074866Y-77349688D01*
X135031745Y-77391258D01*
X134994640Y-77437569D01*
X134952490Y-77511662D01*
X134923260Y-77592663D01*
X134906243Y-77677449D01*
X134900607Y-77762473D01*
X134905059Y-77837068D01*
X134917581Y-77900532D01*
X134937385Y-77959809D01*
X134961728Y-78012334D01*
X135170251Y-77968981D01*
X135170251Y-77934848D01*
X135143323Y-77906699D01*
X135113098Y-77864506D01*
X135089712Y-77809246D01*
X135082893Y-77776770D01*
X135080369Y-77735057D01*
X135087493Y-77673435D01*
X135108073Y-77620468D01*
X135142285Y-77574162D01*
X135187004Y-77536767D01*
X135242340Y-77507757D01*
X135310385Y-77487456D01*
X135366913Y-77479736D01*
X135411975Y-77481307D01*
X135447960Y-77490361D01*
X135476837Y-77505957D01*
X135500602Y-77528723D01*
X135518180Y-77558280D01*
X135529536Y-77596224D01*
X135533684Y-77644809D01*
X135531066Y-77689202D01*
X135523548Y-77728768D01*
X135512012Y-77765586D01*
X135499551Y-77794225D01*
X135472013Y-77840020D01*
X135443803Y-77877939D01*
X135443803Y-77912072D01*
X135653913Y-77868414D01*
X135678485Y-77805154D01*
X135697327Y-77740797D01*
X135709307Y-77674165D01*
X135713447Y-77600785D01*
G37*
G36*
X135690000Y-78792018D02*
G01*
X135690000Y-78550218D01*
X135309164Y-78629413D01*
X135216474Y-78643946D01*
X135173271Y-78645820D01*
X135148452Y-78642114D01*
X135126547Y-78630153D01*
X135111571Y-78610668D01*
X135103284Y-78584249D01*
X135099909Y-78541242D01*
X135102548Y-78508235D01*
X135110839Y-78472426D01*
X135124344Y-78435907D01*
X135145704Y-78392009D01*
X135690000Y-78278864D01*
X135690000Y-78038346D01*
X134627055Y-78259324D01*
X134627055Y-78499842D01*
X135006608Y-78420952D01*
X134959989Y-78495602D01*
X134927962Y-78560598D01*
X134907486Y-78627059D01*
X134900607Y-78697557D01*
X134905845Y-78758026D01*
X134920250Y-78805709D01*
X134942675Y-78843281D01*
X134973147Y-78872618D01*
X135009953Y-78892628D01*
X135056434Y-78904275D01*
X135115332Y-78906229D01*
X135189973Y-78896004D01*
X135690000Y-78792018D01*
G37*
G36*
X135690000Y-80418004D02*
G01*
X135690000Y-80161427D01*
X135240593Y-80254849D01*
X135240593Y-79876029D01*
X135690000Y-79782606D01*
X135690000Y-79526029D01*
X134673949Y-79737238D01*
X134673949Y-79993815D01*
X135045198Y-79916634D01*
X135045198Y-80295455D01*
X134673949Y-80372636D01*
X134673949Y-80629213D01*
X135690000Y-80418004D01*
G37*
G36*
X135690000Y-80925479D02*
G01*
X135690000Y-80684961D01*
X134924054Y-80844207D01*
X134924054Y-81084726D01*
X135690000Y-80925479D01*
G37*
G36*
X134814633Y-81114157D02*
G01*
X134814633Y-80860266D01*
X134627055Y-80899284D01*
X134627055Y-81153175D01*
X134814633Y-81114157D01*
G37*
G36*
X135958372Y-81191527D02*
G01*
X135969535Y-81262595D01*
X135976742Y-81337051D01*
X135979183Y-81414576D01*
X135974297Y-81508571D01*
X135960376Y-81591224D01*
X135935416Y-81668061D01*
X135899316Y-81734595D01*
X135868729Y-81773702D01*
X135830578Y-81809711D01*
X135783972Y-81842733D01*
X135733309Y-81869450D01*
X135673256Y-81892219D01*
X135602438Y-81910572D01*
X134924054Y-82051622D01*
X134924054Y-81818431D01*
X134955989Y-81803105D01*
X134933096Y-81765504D01*
X134915322Y-81721039D01*
X134904796Y-81673656D01*
X135080369Y-81673656D01*
X135085498Y-81726718D01*
X135099542Y-81774528D01*
X135448199Y-81702049D01*
X135465489Y-81668368D01*
X135479096Y-81632196D01*
X135487852Y-81594952D01*
X135490697Y-81558984D01*
X135485024Y-81508011D01*
X135469995Y-81472442D01*
X135446856Y-81448098D01*
X135415710Y-81434487D01*
X135366785Y-81430167D01*
X135292067Y-81439855D01*
X135227897Y-81458905D01*
X135176700Y-81485649D01*
X135136240Y-81519661D01*
X135105727Y-81562045D01*
X135086979Y-81612616D01*
X135080369Y-81673656D01*
X134904796Y-81673656D01*
X134904493Y-81672294D01*
X134900607Y-81613511D01*
X134907105Y-81546276D01*
X134927290Y-81475942D01*
X134959382Y-81409632D01*
X135001723Y-81351927D01*
X135057212Y-81298458D01*
X135122013Y-81253436D01*
X135195503Y-81218917D01*
X135286022Y-81193230D01*
X135389166Y-81178527D01*
X135469738Y-81179741D01*
X135532450Y-81193395D01*
X135581250Y-81217411D01*
X135614800Y-81245766D01*
X135641275Y-81280901D01*
X135661032Y-81323902D01*
X135673713Y-81376401D01*
X135678276Y-81440465D01*
X135672900Y-81503794D01*
X135657088Y-81562404D01*
X135632227Y-81617890D01*
X135599691Y-81670542D01*
X135613979Y-81667611D01*
X135659440Y-81655649D01*
X135695434Y-81641294D01*
X135726808Y-81622394D01*
X135751182Y-81599712D01*
X135771027Y-81569659D01*
X135786842Y-81528393D01*
X135795960Y-81481113D01*
X135799420Y-81417201D01*
X135795959Y-81366050D01*
X135784766Y-81306681D01*
X135768686Y-81249021D01*
X135752526Y-81205809D01*
X135752526Y-81176439D01*
X135946088Y-81136200D01*
X135958372Y-81191527D01*
G37*
G36*
X135690000Y-82895298D02*
G01*
X135690000Y-82653497D01*
X135309164Y-82732693D01*
X135216474Y-82747226D01*
X135173271Y-82749100D01*
X135148452Y-82745394D01*
X135126547Y-82733433D01*
X135111571Y-82713948D01*
X135103284Y-82687529D01*
X135099909Y-82644521D01*
X135102548Y-82611515D01*
X135110839Y-82575706D01*
X135124344Y-82539187D01*
X135145704Y-82495289D01*
X135690000Y-82382144D01*
X135690000Y-82141625D01*
X134627055Y-82362604D01*
X134627055Y-82603122D01*
X135006608Y-82524232D01*
X134959989Y-82598882D01*
X134927962Y-82663878D01*
X134907486Y-82730339D01*
X134900607Y-82800837D01*
X134905845Y-82861306D01*
X134920250Y-82908989D01*
X134942675Y-82946560D01*
X134973147Y-82975898D01*
X135009953Y-82995908D01*
X135056434Y-83007554D01*
X135115332Y-83009509D01*
X135189973Y-82999284D01*
X135690000Y-82895298D01*
G37*
G36*
X135371079Y-84492035D02*
G01*
X135441952Y-84469704D01*
X135505625Y-84433818D01*
X135563304Y-84383433D01*
X135615566Y-84316547D01*
X135655406Y-84243008D01*
X135684731Y-84159894D01*
X135703106Y-84065677D01*
X135709539Y-83958548D01*
X135703473Y-83839653D01*
X135687191Y-83747766D01*
X135661466Y-83662996D01*
X135630526Y-83587421D01*
X135385184Y-83638468D01*
X135385184Y-83666556D01*
X135426740Y-83712760D01*
X135461437Y-83764682D01*
X135489476Y-83822932D01*
X135509914Y-83884436D01*
X135521914Y-83944910D01*
X135525868Y-84004832D01*
X135521594Y-84067175D01*
X135515563Y-84104371D01*
X135507306Y-84132266D01*
X135492596Y-84162597D01*
X135475249Y-84187404D01*
X135452291Y-84206165D01*
X135418218Y-84218300D01*
X135386898Y-84217856D01*
X135360455Y-84202608D01*
X135340110Y-84175059D01*
X135323147Y-84129091D01*
X135297562Y-84015884D01*
X135283726Y-83957312D01*
X135267093Y-83904937D01*
X135242148Y-83846884D01*
X135214826Y-83802904D01*
X135185451Y-83770489D01*
X135153948Y-83747705D01*
X135104857Y-83728339D01*
X135046661Y-83721655D01*
X134976505Y-83729448D01*
X134909883Y-83750807D01*
X134849634Y-83785786D01*
X134794621Y-83835550D01*
X134744352Y-83902372D01*
X134705762Y-83975553D01*
X134677725Y-84055700D01*
X134660399Y-84143900D01*
X134654410Y-84241442D01*
X134659302Y-84338557D01*
X134673766Y-84431463D01*
X134696508Y-84519373D01*
X134722309Y-84587473D01*
X134955317Y-84538991D01*
X134955317Y-84511575D01*
X134924845Y-84476405D01*
X134896935Y-84433462D01*
X134871725Y-84381638D01*
X134853117Y-84327321D01*
X134841882Y-84270509D01*
X134838080Y-84210668D01*
X134842721Y-84145821D01*
X134849299Y-84113482D01*
X134860062Y-84081097D01*
X134873345Y-84054290D01*
X134892363Y-84029623D01*
X134915849Y-84010576D01*
X134941639Y-84000680D01*
X134967591Y-83998976D01*
X134987602Y-84004850D01*
X135003555Y-84017838D01*
X135021804Y-84051002D01*
X135042817Y-84123290D01*
X135065409Y-84223796D01*
X135095512Y-84326133D01*
X135126355Y-84393633D01*
X135161212Y-84441261D01*
X135199804Y-84473168D01*
X135245424Y-84492660D01*
X135301385Y-84499669D01*
X135371079Y-84492035D01*
G37*
G36*
X135690000Y-84850950D02*
G01*
X135690000Y-84610432D01*
X134924054Y-84769678D01*
X134924054Y-85010197D01*
X135690000Y-84850950D01*
G37*
G36*
X134814633Y-85039628D02*
G01*
X134814633Y-84785737D01*
X134627055Y-84824755D01*
X134627055Y-85078646D01*
X134814633Y-85039628D01*
G37*
G36*
X135485833Y-85100058D02*
G01*
X135550843Y-85112203D01*
X135605064Y-85134577D01*
X135644146Y-85161587D01*
X135673864Y-85193888D01*
X135695302Y-85232057D01*
X135708703Y-85277270D01*
X135713447Y-85331193D01*
X135706879Y-85399895D01*
X135687740Y-85461496D01*
X135657085Y-85521508D01*
X135610071Y-85593876D01*
X135690000Y-85577267D01*
X135690000Y-85817847D01*
X134627055Y-86038825D01*
X134627055Y-85798246D01*
X134952508Y-85730591D01*
X134915322Y-85649808D01*
X134904749Y-85606188D01*
X134904291Y-85599127D01*
X135080369Y-85599127D01*
X135085193Y-85649563D01*
X135101008Y-85699694D01*
X135479829Y-85620987D01*
X135498291Y-85587246D01*
X135513168Y-85549241D01*
X135522882Y-85510431D01*
X135525868Y-85477128D01*
X135519220Y-85423795D01*
X135501769Y-85388283D01*
X135474638Y-85365448D01*
X135439186Y-85353742D01*
X135386530Y-85351084D01*
X135310019Y-85361601D01*
X135240437Y-85381820D01*
X135184987Y-85409504D01*
X135141247Y-85444094D01*
X135107749Y-85487482D01*
X135087457Y-85538418D01*
X135080369Y-85599127D01*
X134904291Y-85599127D01*
X134900607Y-85542280D01*
X134907433Y-85477380D01*
X134929061Y-85406725D01*
X134963275Y-85339658D01*
X135008989Y-85279902D01*
X135067899Y-85225036D01*
X135138988Y-85177015D01*
X135218860Y-85139854D01*
X135312827Y-85113145D01*
X135407483Y-85099577D01*
X135485833Y-85100058D01*
G37*
G36*
X135459923Y-86081614D02*
G01*
X135517301Y-86094227D01*
X135566668Y-86116761D01*
X135609460Y-86149284D01*
X135644117Y-86189773D01*
X135672451Y-86240331D01*
X135694158Y-86302860D01*
X135708316Y-86379758D01*
X135713447Y-86473822D01*
X135709549Y-86559672D01*
X135698365Y-86636671D01*
X135679326Y-86712996D01*
X135649699Y-86800436D01*
X135451618Y-86841652D01*
X135451618Y-86814968D01*
X135481898Y-86762260D01*
X135512923Y-86689244D01*
X135534495Y-86611386D01*
X135541500Y-86535676D01*
X135535012Y-86456652D01*
X135518108Y-86401338D01*
X135493262Y-86363546D01*
X135467545Y-86342415D01*
X135436749Y-86328817D01*
X135399502Y-86322775D01*
X135353921Y-86325383D01*
X135353921Y-86875968D01*
X135267765Y-86893920D01*
X135176566Y-86905945D01*
X135103131Y-86902395D01*
X135043725Y-86886087D01*
X134995312Y-86858321D01*
X134963486Y-86827668D01*
X134937739Y-86788640D01*
X134918096Y-86739646D01*
X134905272Y-86678538D01*
X134900607Y-86602721D01*
X134904441Y-86551674D01*
X135053014Y-86551674D01*
X135058209Y-86599826D01*
X135071759Y-86632358D01*
X135092276Y-86653707D01*
X135119846Y-86666484D01*
X135157626Y-86671623D01*
X135209330Y-86666835D01*
X135209330Y-86354876D01*
X135157338Y-86374263D01*
X135118462Y-86399289D01*
X135090200Y-86429675D01*
X135069696Y-86466207D01*
X135057282Y-86506543D01*
X135053014Y-86551674D01*
X134904441Y-86551674D01*
X134907971Y-86504672D01*
X134929236Y-86417175D01*
X134963775Y-86338491D01*
X135011798Y-86267254D01*
X135071617Y-86205450D01*
X135140907Y-86155677D01*
X135220861Y-86117359D01*
X135313194Y-86090666D01*
X135392635Y-86079827D01*
X135459923Y-86081614D01*
G37*
G36*
X137014382Y-71657257D02*
G01*
X137014382Y-71147461D01*
X136818988Y-71188066D01*
X136818988Y-71697862D01*
X137014382Y-71657257D01*
G37*
G36*
X136892016Y-73055425D02*
G01*
X136922986Y-73078393D01*
X136958878Y-73093710D01*
X137000165Y-73098995D01*
X137060605Y-73091878D01*
X137129729Y-73070633D01*
X137194328Y-73036374D01*
X137251501Y-72989752D01*
X137300818Y-72929091D01*
X137338498Y-72860704D01*
X137366702Y-72783339D01*
X137383439Y-72699028D01*
X137389539Y-72594478D01*
X137384085Y-72475834D01*
X137369633Y-72386505D01*
X137347241Y-72306814D01*
X137324998Y-72251805D01*
X137100355Y-72298517D01*
X137100355Y-72324528D01*
X137133404Y-72378552D01*
X137163553Y-72448726D01*
X137183860Y-72522557D01*
X137190237Y-72589166D01*
X137183703Y-72674712D01*
X137173018Y-72719412D01*
X137154944Y-72757571D01*
X137135721Y-72783865D01*
X137113117Y-72805626D01*
X137084945Y-72822130D01*
X137042165Y-72835118D01*
X137000114Y-72838185D01*
X136972616Y-72829501D01*
X136951825Y-72811014D01*
X136937629Y-72784010D01*
X136929365Y-72751482D01*
X136925539Y-72707684D01*
X136924501Y-72622444D01*
X136924501Y-72567672D01*
X136748646Y-72604248D01*
X136748646Y-72661034D01*
X136745287Y-72753907D01*
X136739450Y-72793142D01*
X136729656Y-72825287D01*
X136714260Y-72854711D01*
X136695462Y-72876456D01*
X136670664Y-72892277D01*
X136632691Y-72904239D01*
X136604052Y-72905987D01*
X136583599Y-72899049D01*
X136567015Y-72885319D01*
X136554045Y-72866442D01*
X136544168Y-72841192D01*
X136537803Y-72808374D01*
X136533712Y-72748351D01*
X136538886Y-72684106D01*
X136555877Y-72607423D01*
X136582601Y-72530253D01*
X136619685Y-72451901D01*
X136619685Y-72427172D01*
X136398707Y-72473089D01*
X136377827Y-72537749D01*
X136355293Y-72631114D01*
X136339582Y-72729710D01*
X136334410Y-72826570D01*
X136338905Y-72917332D01*
X136351018Y-72988136D01*
X136371461Y-73051226D01*
X136395471Y-73095847D01*
X136419912Y-73125012D01*
X136446702Y-73146265D01*
X136476193Y-73160572D01*
X136508198Y-73168304D01*
X136544890Y-73169809D01*
X136587384Y-73164235D01*
X136640924Y-73147475D01*
X136690746Y-73120198D01*
X136737594Y-73081498D01*
X136776651Y-73035114D01*
X136804567Y-72984360D01*
X136822041Y-72928358D01*
X136831261Y-72926404D01*
X136838274Y-72959511D01*
X136850373Y-72994609D01*
X136867988Y-73027410D01*
X136892016Y-73055425D01*
G37*
G36*
X137051079Y-74610947D02*
G01*
X137121952Y-74588615D01*
X137185625Y-74552729D01*
X137243304Y-74502344D01*
X137295566Y-74435458D01*
X137335406Y-74361919D01*
X137364731Y-74278806D01*
X137383106Y-74184588D01*
X137389539Y-74077459D01*
X137383473Y-73958564D01*
X137367191Y-73866678D01*
X137341466Y-73781907D01*
X137310526Y-73706332D01*
X137065184Y-73757379D01*
X137065184Y-73785467D01*
X137106740Y-73831671D01*
X137141437Y-73883594D01*
X137169476Y-73941844D01*
X137189914Y-74003347D01*
X137201914Y-74063821D01*
X137205868Y-74123743D01*
X137201594Y-74186086D01*
X137195563Y-74223283D01*
X137187306Y-74251177D01*
X137172596Y-74281508D01*
X137155249Y-74306315D01*
X137132291Y-74325077D01*
X137098218Y-74337212D01*
X137066898Y-74336767D01*
X137040455Y-74321519D01*
X137020110Y-74293971D01*
X137003147Y-74248002D01*
X136977562Y-74134795D01*
X136963726Y-74076223D01*
X136947093Y-74023848D01*
X136922148Y-73965796D01*
X136894826Y-73921816D01*
X136865451Y-73889401D01*
X136833948Y-73866617D01*
X136784857Y-73847251D01*
X136726661Y-73840566D01*
X136656505Y-73848360D01*
X136589883Y-73869719D01*
X136529634Y-73904697D01*
X136474621Y-73954461D01*
X136424352Y-74021284D01*
X136385762Y-74094464D01*
X136357725Y-74174611D01*
X136340399Y-74262812D01*
X136334410Y-74360354D01*
X136339302Y-74457468D01*
X136353766Y-74550375D01*
X136376508Y-74638285D01*
X136402309Y-74706385D01*
X136635317Y-74657903D01*
X136635317Y-74630486D01*
X136604845Y-74595316D01*
X136576935Y-74552373D01*
X136551725Y-74500549D01*
X136533117Y-74446233D01*
X136521882Y-74389420D01*
X136518080Y-74329579D01*
X136522721Y-74264733D01*
X136529299Y-74232393D01*
X136540062Y-74200008D01*
X136553345Y-74173202D01*
X136572363Y-74148534D01*
X136595849Y-74129487D01*
X136621639Y-74119591D01*
X136647591Y-74117887D01*
X136667602Y-74123762D01*
X136683555Y-74136749D01*
X136701804Y-74169913D01*
X136722817Y-74242201D01*
X136745409Y-74342707D01*
X136775512Y-74445045D01*
X136806355Y-74512545D01*
X136841212Y-74560172D01*
X136879804Y-74592079D01*
X136925424Y-74611572D01*
X136981385Y-74618580D01*
X137051079Y-74610947D01*
G37*
G36*
X136604054Y-76085319D02*
G01*
X137370000Y-75693553D01*
X137370000Y-75438319D01*
X136853670Y-75392646D01*
X137370000Y-75134970D01*
X137370000Y-74876378D01*
X136604054Y-74805059D01*
X136604054Y-75057667D01*
X137131985Y-75076168D01*
X136604054Y-75346301D01*
X136604054Y-75559464D01*
X137131985Y-75602023D01*
X136604054Y-75838084D01*
X136604054Y-76085319D01*
G37*
G36*
X137370000Y-76340553D02*
G01*
X137370000Y-76100034D01*
X136604054Y-76259281D01*
X136604054Y-76499799D01*
X137370000Y-76340553D01*
G37*
G36*
X136494633Y-76529230D02*
G01*
X136494633Y-76275340D01*
X136307055Y-76314357D01*
X136307055Y-76568248D01*
X136494633Y-76529230D01*
G37*
G36*
X137363649Y-77058932D02*
G01*
X137379769Y-76973325D01*
X137385631Y-76865919D01*
X137381081Y-76793825D01*
X137368923Y-76739344D01*
X137350858Y-76698772D01*
X137327745Y-76669120D01*
X137297593Y-76648073D01*
X137257003Y-76635275D01*
X137202486Y-76632163D01*
X137129603Y-76641826D01*
X136772093Y-76716137D01*
X136772093Y-76617219D01*
X136604054Y-76652145D01*
X136604054Y-76751064D01*
X136385212Y-76796554D01*
X136385212Y-77037072D01*
X136604054Y-76991582D01*
X136604054Y-77216835D01*
X136772093Y-77181908D01*
X136772093Y-76956655D01*
X137042409Y-76900418D01*
X137112323Y-76886557D01*
X137141423Y-76883699D01*
X137165996Y-76886130D01*
X137187208Y-76894608D01*
X137203670Y-76911348D01*
X137213534Y-76935729D01*
X137217592Y-76977660D01*
X137209349Y-77028524D01*
X137194145Y-77074075D01*
X137194145Y-77094164D01*
X137363649Y-77058932D01*
G37*
G36*
X137393447Y-77600785D02*
G01*
X137387125Y-77505752D01*
X137369450Y-77426395D01*
X137350024Y-77377560D01*
X137325284Y-77335890D01*
X137295261Y-77300488D01*
X137259525Y-77271715D01*
X137217754Y-77249712D01*
X137168927Y-77234481D01*
X137117960Y-77227624D01*
X137058969Y-77228660D01*
X136990446Y-77238878D01*
X136920032Y-77257642D01*
X136858378Y-77282337D01*
X136804455Y-77312639D01*
X136754866Y-77349688D01*
X136711745Y-77391258D01*
X136674640Y-77437569D01*
X136632490Y-77511662D01*
X136603260Y-77592663D01*
X136586243Y-77677449D01*
X136580607Y-77762473D01*
X136585059Y-77837068D01*
X136597581Y-77900532D01*
X136617385Y-77959809D01*
X136641728Y-78012334D01*
X136850251Y-77968981D01*
X136850251Y-77934848D01*
X136823323Y-77906699D01*
X136793098Y-77864506D01*
X136769712Y-77809246D01*
X136762893Y-77776770D01*
X136760369Y-77735057D01*
X136767493Y-77673435D01*
X136788073Y-77620468D01*
X136822285Y-77574162D01*
X136867004Y-77536767D01*
X136922340Y-77507757D01*
X136990385Y-77487456D01*
X137046913Y-77479736D01*
X137091975Y-77481307D01*
X137127960Y-77490361D01*
X137156837Y-77505957D01*
X137180602Y-77528723D01*
X137198180Y-77558280D01*
X137209536Y-77596224D01*
X137213684Y-77644809D01*
X137211066Y-77689202D01*
X137203548Y-77728768D01*
X137192012Y-77765586D01*
X137179551Y-77794225D01*
X137152013Y-77840020D01*
X137123803Y-77877939D01*
X137123803Y-77912072D01*
X137333913Y-77868414D01*
X137358485Y-77805154D01*
X137377327Y-77740797D01*
X137389307Y-77674165D01*
X137393447Y-77600785D01*
G37*
G36*
X137370000Y-78792018D02*
G01*
X137370000Y-78550218D01*
X136989164Y-78629413D01*
X136896474Y-78643946D01*
X136853271Y-78645820D01*
X136828452Y-78642114D01*
X136806547Y-78630153D01*
X136791571Y-78610668D01*
X136783284Y-78584249D01*
X136779909Y-78541242D01*
X136782548Y-78508235D01*
X136790839Y-78472426D01*
X136804344Y-78435907D01*
X136825704Y-78392009D01*
X137370000Y-78278864D01*
X137370000Y-78038346D01*
X136307055Y-78259324D01*
X136307055Y-78499842D01*
X136686608Y-78420952D01*
X136639989Y-78495602D01*
X136607962Y-78560598D01*
X136587486Y-78627059D01*
X136580607Y-78697557D01*
X136585845Y-78758026D01*
X136600250Y-78805709D01*
X136622675Y-78843281D01*
X136653147Y-78872618D01*
X136689953Y-78892628D01*
X136736434Y-78904275D01*
X136795332Y-78906229D01*
X136869973Y-78896004D01*
X137370000Y-78792018D01*
G37*
G36*
X137370000Y-80243614D02*
G01*
X137370000Y-79526029D01*
X136353949Y-79737238D01*
X136353949Y-79993815D01*
X137174605Y-79823211D01*
X137174605Y-80284220D01*
X137370000Y-80243614D01*
G37*
G36*
X137132692Y-80418433D02*
G01*
X137190546Y-80428542D01*
X137240798Y-80447596D01*
X137284759Y-80475401D01*
X137321912Y-80511511D01*
X137351584Y-80555935D01*
X137373901Y-80610092D01*
X137388274Y-80675936D01*
X137393447Y-80755853D01*
X137386184Y-80852426D01*
X137365303Y-80937719D01*
X137331537Y-81013588D01*
X137284759Y-81081489D01*
X137226503Y-81140118D01*
X137158455Y-81187802D01*
X137079342Y-81224938D01*
X136987393Y-81251238D01*
X136909139Y-81262430D01*
X136841976Y-81262255D01*
X136784038Y-81252277D01*
X136733702Y-81233413D01*
X136689661Y-81205870D01*
X136652436Y-81170029D01*
X136622680Y-81125732D01*
X136600271Y-81071522D01*
X136585816Y-81005387D01*
X136580607Y-80924869D01*
X136583300Y-80889087D01*
X136752554Y-80889087D01*
X136755544Y-80922579D01*
X136764094Y-80951430D01*
X136779560Y-80975948D01*
X136803478Y-80994722D01*
X136833423Y-81006768D01*
X136876079Y-81013101D01*
X136923908Y-81011828D01*
X136988736Y-81001683D01*
X137057020Y-80984182D01*
X137102431Y-80966329D01*
X137140933Y-80943477D01*
X137172651Y-80916687D01*
X137195497Y-80888689D01*
X137210326Y-80858374D01*
X137218731Y-80826006D01*
X137221500Y-80793588D01*
X137218252Y-80757195D01*
X137209288Y-80728314D01*
X137193591Y-80704064D01*
X137170575Y-80685266D01*
X137139972Y-80673006D01*
X137096997Y-80667131D01*
X137049351Y-80668759D01*
X136988736Y-80678244D01*
X136922247Y-80695620D01*
X136872660Y-80715430D01*
X136830032Y-80740295D01*
X136800059Y-80765683D01*
X136775537Y-80797098D01*
X136762079Y-80825279D01*
X136755011Y-80855260D01*
X136752554Y-80889087D01*
X136583300Y-80889087D01*
X136587820Y-80829045D01*
X136608592Y-80744082D01*
X136642241Y-80668189D01*
X136688928Y-80599965D01*
X136747043Y-80541118D01*
X136815193Y-80493211D01*
X136894699Y-80455853D01*
X136987393Y-80429361D01*
X137065601Y-80418181D01*
X137132692Y-80418433D01*
G37*
G36*
X136604054Y-82720908D02*
G01*
X137370000Y-82329143D01*
X137370000Y-82073909D01*
X136853670Y-82028236D01*
X137370000Y-81770560D01*
X137370000Y-81511967D01*
X136604054Y-81440648D01*
X136604054Y-81693257D01*
X137131985Y-81711758D01*
X136604054Y-81981891D01*
X136604054Y-82195054D01*
X137131985Y-82237613D01*
X136604054Y-82473674D01*
X136604054Y-82720908D01*
G37*
G36*
X137051079Y-84089523D02*
G01*
X137121952Y-84067192D01*
X137185625Y-84031306D01*
X137243304Y-83980921D01*
X137295566Y-83914035D01*
X137335406Y-83840496D01*
X137364731Y-83757382D01*
X137383106Y-83663164D01*
X137389539Y-83556036D01*
X137383473Y-83437140D01*
X137367191Y-83345254D01*
X137341466Y-83260484D01*
X137310526Y-83184909D01*
X137065184Y-83235956D01*
X137065184Y-83264043D01*
X137106740Y-83310248D01*
X137141437Y-83362170D01*
X137169476Y-83420420D01*
X137189914Y-83481924D01*
X137201914Y-83542398D01*
X137205868Y-83602320D01*
X137201594Y-83664663D01*
X137195563Y-83701859D01*
X137187306Y-83729754D01*
X137172596Y-83760085D01*
X137155249Y-83784891D01*
X137132291Y-83803653D01*
X137098218Y-83815788D01*
X137066898Y-83815344D01*
X137040455Y-83800095D01*
X137020110Y-83772547D01*
X137003147Y-83726578D01*
X136977562Y-83613372D01*
X136963726Y-83554800D01*
X136947093Y-83502424D01*
X136922148Y-83444372D01*
X136894826Y-83400392D01*
X136865451Y-83367977D01*
X136833948Y-83345193D01*
X136784857Y-83325827D01*
X136726661Y-83319143D01*
X136656505Y-83326936D01*
X136589883Y-83348295D01*
X136529634Y-83383274D01*
X136474621Y-83433038D01*
X136424352Y-83499860D01*
X136385762Y-83573041D01*
X136357725Y-83653187D01*
X136340399Y-83741388D01*
X136334410Y-83838930D01*
X136339302Y-83936045D01*
X136353766Y-84028951D01*
X136376508Y-84116861D01*
X136402309Y-84184961D01*
X136635317Y-84136479D01*
X136635317Y-84109063D01*
X136604845Y-84073893D01*
X136576935Y-84030950D01*
X136551725Y-83979125D01*
X136533117Y-83924809D01*
X136521882Y-83867997D01*
X136518080Y-83808155D01*
X136522721Y-83743309D01*
X136529299Y-83710969D01*
X136540062Y-83678585D01*
X136553345Y-83651778D01*
X136572363Y-83627110D01*
X136595849Y-83608064D01*
X136621639Y-83598168D01*
X136647591Y-83596464D01*
X136667602Y-83602338D01*
X136683555Y-83615326D01*
X136701804Y-83648489D01*
X136722817Y-83720778D01*
X136745409Y-83821284D01*
X136775512Y-83923621D01*
X136806355Y-83991121D01*
X136841212Y-84038749D01*
X136879804Y-84070655D01*
X136925424Y-84090148D01*
X136981385Y-84097157D01*
X137051079Y-84089523D01*
G37*
G36*
X137370000Y-84448438D02*
G01*
X137370000Y-84207920D01*
X136604054Y-84367166D01*
X136604054Y-84607684D01*
X137370000Y-84448438D01*
G37*
G36*
X136494633Y-84637116D02*
G01*
X136494633Y-84383225D01*
X136307055Y-84422243D01*
X136307055Y-84676133D01*
X136494633Y-84637116D01*
G37*
G36*
X137165833Y-84697546D02*
G01*
X137230843Y-84709691D01*
X137285064Y-84732065D01*
X137324146Y-84759075D01*
X137353864Y-84791376D01*
X137375302Y-84829545D01*
X137388703Y-84874757D01*
X137393447Y-84928681D01*
X137386879Y-84997383D01*
X137367740Y-85058984D01*
X137337085Y-85118996D01*
X137290071Y-85191364D01*
X137370000Y-85174755D01*
X137370000Y-85415334D01*
X136307055Y-85636313D01*
X136307055Y-85395734D01*
X136632508Y-85328079D01*
X136595322Y-85247295D01*
X136584749Y-85203676D01*
X136584291Y-85196615D01*
X136760369Y-85196615D01*
X136765193Y-85247051D01*
X136781008Y-85297182D01*
X137159829Y-85218475D01*
X137178291Y-85184734D01*
X137193168Y-85146728D01*
X137202882Y-85107918D01*
X137205868Y-85074616D01*
X137199220Y-85021283D01*
X137181769Y-84985771D01*
X137154638Y-84962936D01*
X137119186Y-84951230D01*
X137066530Y-84948571D01*
X136990019Y-84959089D01*
X136920437Y-84979308D01*
X136864987Y-85006992D01*
X136821247Y-85041582D01*
X136787749Y-85084970D01*
X136767457Y-85135905D01*
X136760369Y-85196615D01*
X136584291Y-85196615D01*
X136580607Y-85139767D01*
X136587433Y-85074868D01*
X136609061Y-85004213D01*
X136643275Y-84937146D01*
X136688989Y-84877390D01*
X136747899Y-84822524D01*
X136818988Y-84774502D01*
X136898860Y-84737342D01*
X136992827Y-84710633D01*
X137087483Y-84697065D01*
X137165833Y-84697546D01*
G37*
G36*
X137139923Y-85679102D02*
G01*
X137197301Y-85691714D01*
X137246668Y-85714249D01*
X137289460Y-85746772D01*
X137324117Y-85787261D01*
X137352451Y-85837819D01*
X137374158Y-85900348D01*
X137388316Y-85977246D01*
X137393447Y-86071310D01*
X137389549Y-86157160D01*
X137378365Y-86234159D01*
X137359326Y-86310483D01*
X137329699Y-86397923D01*
X137131618Y-86439139D01*
X137131618Y-86412456D01*
X137161898Y-86359748D01*
X137192923Y-86286732D01*
X137214495Y-86208874D01*
X137221500Y-86133164D01*
X137215012Y-86054140D01*
X137198108Y-85998826D01*
X137173262Y-85961034D01*
X137147545Y-85939903D01*
X137116749Y-85926305D01*
X137079502Y-85920262D01*
X137033921Y-85922871D01*
X137033921Y-86473456D01*
X136947765Y-86491407D01*
X136856566Y-86503433D01*
X136783131Y-86499883D01*
X136723725Y-86483575D01*
X136675312Y-86455809D01*
X136643486Y-86425155D01*
X136617739Y-86386128D01*
X136598096Y-86337134D01*
X136585272Y-86276026D01*
X136580607Y-86200209D01*
X136584441Y-86149162D01*
X136733014Y-86149162D01*
X136738209Y-86197314D01*
X136751759Y-86229846D01*
X136772276Y-86251195D01*
X136799846Y-86263972D01*
X136837626Y-86269111D01*
X136889330Y-86264323D01*
X136889330Y-85952363D01*
X136837338Y-85971751D01*
X136798462Y-85996777D01*
X136770200Y-86027163D01*
X136749696Y-86063695D01*
X136737282Y-86104031D01*
X136733014Y-86149162D01*
X136584441Y-86149162D01*
X136587971Y-86102160D01*
X136609236Y-86014663D01*
X136643775Y-85935979D01*
X136691798Y-85864741D01*
X136751617Y-85802938D01*
X136820907Y-85753165D01*
X136900861Y-85714847D01*
X136993194Y-85688154D01*
X137072635Y-85677314D01*
X137139923Y-85679102D01*
G37*
G36*
X138694382Y-71657257D02*
G01*
X138694382Y-71147461D01*
X138498988Y-71188066D01*
X138498988Y-71697862D01*
X138694382Y-71657257D01*
G37*
G36*
X139050000Y-72990823D02*
G01*
X139050000Y-72326666D01*
X138874145Y-72363241D01*
X138874145Y-72573046D01*
X138334856Y-72685153D01*
X138334856Y-72475348D01*
X138170725Y-72509481D01*
X138164986Y-72602843D01*
X138156819Y-72646216D01*
X138145141Y-72680512D01*
X138125314Y-72715553D01*
X138101360Y-72741695D01*
X138071714Y-72761367D01*
X138033949Y-72775767D01*
X138033949Y-72996929D01*
X138874145Y-72822295D01*
X138874145Y-73027398D01*
X139050000Y-72990823D01*
G37*
G36*
X138681193Y-74696188D02*
G01*
X138755586Y-74675853D01*
X138820569Y-74648326D01*
X138877302Y-74613910D01*
X138926699Y-74572572D01*
X138969399Y-74523935D01*
X139011486Y-74455578D01*
X139042719Y-74375660D01*
X139062520Y-74282107D01*
X139069539Y-74172409D01*
X139064542Y-74081160D01*
X139050811Y-74007269D01*
X139029856Y-73947822D01*
X139002619Y-73900331D01*
X138969399Y-73862831D01*
X138928454Y-73833054D01*
X138880878Y-73812431D01*
X138825225Y-73801046D01*
X138759619Y-73799869D01*
X138681864Y-73810685D01*
X138033949Y-73945385D01*
X138033949Y-74203244D01*
X138668370Y-74071353D01*
X138739196Y-74062563D01*
X138789971Y-74067284D01*
X138826151Y-74081978D01*
X138847303Y-74100445D01*
X138863344Y-74126697D01*
X138874036Y-74162928D01*
X138878053Y-74212220D01*
X138871945Y-74274496D01*
X138855014Y-74323896D01*
X138828227Y-74363224D01*
X138791475Y-74394176D01*
X138739571Y-74420378D01*
X138668370Y-74440893D01*
X138033949Y-74572784D01*
X138033949Y-74830704D01*
X138681193Y-74696188D01*
G37*
G36*
X139050000Y-75032021D02*
G01*
X138842882Y-75143885D01*
X138842882Y-75512752D01*
X139050000Y-75538520D01*
X139050000Y-75803829D01*
X138033949Y-75647513D01*
X138033949Y-75442411D01*
X138294312Y-75442411D01*
X138659211Y-75488817D01*
X138659211Y-75244330D01*
X138294312Y-75442411D01*
X138033949Y-75442411D01*
X138033949Y-75352224D01*
X139050000Y-74773490D01*
X139050000Y-75032021D01*
G37*
G36*
X139050000Y-76226003D02*
G01*
X138678750Y-76303183D01*
X138678750Y-76421458D01*
X139050000Y-76615570D01*
X139050000Y-76928995D01*
X138615858Y-76687072D01*
X138580636Y-76754431D01*
X138541180Y-76810902D01*
X138497583Y-76857737D01*
X138447007Y-76896038D01*
X138386285Y-76925923D01*
X138313607Y-76947069D01*
X138258800Y-76954307D01*
X138214020Y-76952216D01*
X138177198Y-76942367D01*
X138143215Y-76924820D01*
X138113867Y-76901394D01*
X138088660Y-76871598D01*
X138060584Y-76820316D01*
X138044207Y-76761871D01*
X138036754Y-76697239D01*
X138033949Y-76612334D01*
X138033949Y-76399049D01*
X138217620Y-76399049D01*
X138217620Y-76491922D01*
X138220062Y-76572278D01*
X138224868Y-76604961D01*
X138233557Y-76630286D01*
X138253112Y-76658992D01*
X138277154Y-76674005D01*
X138306294Y-76679144D01*
X138343527Y-76675532D01*
X138384288Y-76663696D01*
X138413075Y-76648726D01*
X138437347Y-76628179D01*
X138460458Y-76599816D01*
X138478482Y-76565047D01*
X138488852Y-76524406D01*
X138493377Y-76479346D01*
X138495080Y-76420176D01*
X138495080Y-76341346D01*
X138217620Y-76399049D01*
X138033949Y-76399049D01*
X138033949Y-76182039D01*
X139050000Y-75970830D01*
X139050000Y-76226003D01*
G37*
G36*
X138229344Y-78014043D02*
G01*
X138229344Y-77703306D01*
X139050000Y-77532702D01*
X139050000Y-77276125D01*
X138229344Y-77446728D01*
X138229344Y-77136051D01*
X138033949Y-77176657D01*
X138033949Y-78054649D01*
X138229344Y-78014043D01*
G37*
G36*
X140374382Y-71657257D02*
G01*
X140374382Y-71147461D01*
X140178988Y-71188066D01*
X140178988Y-71697862D01*
X140374382Y-71657257D01*
G37*
G36*
X140730000Y-72990823D02*
G01*
X140730000Y-72326666D01*
X140554145Y-72363241D01*
X140554145Y-72573046D01*
X140014856Y-72685153D01*
X140014856Y-72475348D01*
X139850725Y-72509481D01*
X139844986Y-72602843D01*
X139836819Y-72646216D01*
X139825141Y-72680512D01*
X139805314Y-72715553D01*
X139781360Y-72741695D01*
X139751714Y-72761367D01*
X139713949Y-72775767D01*
X139713949Y-72996929D01*
X140554145Y-72822295D01*
X140554145Y-73027398D01*
X140730000Y-72990823D01*
G37*
G36*
X140411079Y-74610947D02*
G01*
X140481952Y-74588615D01*
X140545625Y-74552729D01*
X140603304Y-74502344D01*
X140655566Y-74435458D01*
X140695406Y-74361919D01*
X140724731Y-74278806D01*
X140743106Y-74184588D01*
X140749539Y-74077459D01*
X140743473Y-73958564D01*
X140727191Y-73866678D01*
X140701466Y-73781907D01*
X140670526Y-73706332D01*
X140425184Y-73757379D01*
X140425184Y-73785467D01*
X140466740Y-73831671D01*
X140501437Y-73883594D01*
X140529476Y-73941844D01*
X140549914Y-74003347D01*
X140561914Y-74063821D01*
X140565868Y-74123743D01*
X140561594Y-74186086D01*
X140555563Y-74223283D01*
X140547306Y-74251177D01*
X140532596Y-74281508D01*
X140515249Y-74306315D01*
X140492291Y-74325077D01*
X140458218Y-74337212D01*
X140426898Y-74336767D01*
X140400455Y-74321519D01*
X140380110Y-74293971D01*
X140363147Y-74248002D01*
X140337562Y-74134795D01*
X140323726Y-74076223D01*
X140307093Y-74023848D01*
X140282148Y-73965796D01*
X140254826Y-73921816D01*
X140225451Y-73889401D01*
X140193948Y-73866617D01*
X140144857Y-73847251D01*
X140086661Y-73840566D01*
X140016505Y-73848360D01*
X139949883Y-73869719D01*
X139889634Y-73904697D01*
X139834621Y-73954461D01*
X139784352Y-74021284D01*
X139745762Y-74094464D01*
X139717725Y-74174611D01*
X139700399Y-74262812D01*
X139694410Y-74360354D01*
X139699302Y-74457468D01*
X139713766Y-74550375D01*
X139736508Y-74638285D01*
X139762309Y-74706385D01*
X139995317Y-74657903D01*
X139995317Y-74630486D01*
X139964845Y-74595316D01*
X139936935Y-74552373D01*
X139911725Y-74500549D01*
X139893117Y-74446233D01*
X139881882Y-74389420D01*
X139878080Y-74329579D01*
X139882721Y-74264733D01*
X139889299Y-74232393D01*
X139900062Y-74200008D01*
X139913345Y-74173202D01*
X139932363Y-74148534D01*
X139955849Y-74129487D01*
X139981639Y-74119591D01*
X140007591Y-74117887D01*
X140027602Y-74123762D01*
X140043555Y-74136749D01*
X140061804Y-74169913D01*
X140082817Y-74242201D01*
X140105409Y-74342707D01*
X140135512Y-74445045D01*
X140166355Y-74512545D01*
X140201212Y-74560172D01*
X140239804Y-74592079D01*
X140285424Y-74611572D01*
X140341385Y-74618580D01*
X140411079Y-74610947D01*
G37*
G36*
X140730000Y-74999354D02*
G01*
X140397829Y-75068414D01*
X140397829Y-75228087D01*
X140394123Y-75300256D01*
X140383649Y-75362627D01*
X140367177Y-75416521D01*
X140329716Y-75493306D01*
X140276563Y-75568012D01*
X140227659Y-75616252D01*
X140167264Y-75657527D01*
X140100877Y-75688951D01*
X140034091Y-75708574D01*
X139975302Y-75716881D01*
X139925680Y-75716292D01*
X139883576Y-75708147D01*
X139844152Y-75691914D01*
X139810096Y-75668572D01*
X139780689Y-75637622D01*
X139752011Y-75590857D01*
X139730680Y-75532780D01*
X139718581Y-75466881D01*
X139713949Y-75376221D01*
X139713949Y-75170751D01*
X139905436Y-75170751D01*
X139905436Y-75214776D01*
X139907145Y-75316015D01*
X139912363Y-75353281D01*
X139924975Y-75390570D01*
X139941375Y-75414897D01*
X139967840Y-75434412D01*
X140000457Y-75444329D01*
X140041051Y-75441922D01*
X140082075Y-75430460D01*
X140114263Y-75415666D01*
X140142001Y-75395546D01*
X140165860Y-75369199D01*
X140185965Y-75333200D01*
X140198283Y-75291285D01*
X140204124Y-75244553D01*
X140206343Y-75181742D01*
X140206343Y-75108225D01*
X139905436Y-75170751D01*
X139713949Y-75170751D01*
X139713949Y-74953986D01*
X140730000Y-74742777D01*
X140730000Y-74999354D01*
G37*
G36*
X140730000Y-76306481D02*
G01*
X140730000Y-75723778D01*
X140546329Y-75761941D01*
X140546329Y-75924973D01*
X139897620Y-76059856D01*
X139897620Y-75896824D01*
X139713949Y-75934987D01*
X139713949Y-76517690D01*
X139897620Y-76479527D01*
X139897620Y-76316434D01*
X140546329Y-76181550D01*
X140546329Y-76344644D01*
X140730000Y-76306481D01*
G37*
D12*
X144333333Y-75074819D02*
X144333333Y-75789104D01*
X144333333Y-75789104D02*
X144380952Y-75931961D01*
X144380952Y-75931961D02*
X144476190Y-76027200D01*
X144476190Y-76027200D02*
X144619047Y-76074819D01*
X144619047Y-76074819D02*
X144714285Y-76074819D01*
X143904761Y-75170057D02*
X143857142Y-75122438D01*
X143857142Y-75122438D02*
X143761904Y-75074819D01*
X143761904Y-75074819D02*
X143523809Y-75074819D01*
X143523809Y-75074819D02*
X143428571Y-75122438D01*
X143428571Y-75122438D02*
X143380952Y-75170057D01*
X143380952Y-75170057D02*
X143333333Y-75265295D01*
X143333333Y-75265295D02*
X143333333Y-75360533D01*
X143333333Y-75360533D02*
X143380952Y-75503390D01*
X143380952Y-75503390D02*
X143952380Y-76074819D01*
X143952380Y-76074819D02*
X143333333Y-76074819D01*
X80333333Y-75074819D02*
X80333333Y-75789104D01*
X80333333Y-75789104D02*
X80380952Y-75931961D01*
X80380952Y-75931961D02*
X80476190Y-76027200D01*
X80476190Y-76027200D02*
X80619047Y-76074819D01*
X80619047Y-76074819D02*
X80714285Y-76074819D01*
X79333333Y-76074819D02*
X79904761Y-76074819D01*
X79619047Y-76074819D02*
X79619047Y-75074819D01*
X79619047Y-75074819D02*
X79714285Y-75217676D01*
X79714285Y-75217676D02*
X79809523Y-75312914D01*
X79809523Y-75312914D02*
X79904761Y-75360533D01*
D13*
%TO.C,J2*%
X142620000Y-79270000D02*
X142620000Y-147960000D01*
X145380000Y-76620000D02*
X144000000Y-76620000D01*
X145380000Y-78000000D02*
X145380000Y-76620000D01*
X145380000Y-79270000D02*
X142620000Y-79270000D01*
X145380000Y-79270000D02*
X145380000Y-147960000D01*
X145380000Y-147960000D02*
X142620000Y-147960000D01*
%TO.C,J1*%
X78620000Y-79270000D02*
X78620000Y-147960000D01*
X81380000Y-76620000D02*
X80000000Y-76620000D01*
X81380000Y-78000000D02*
X81380000Y-76620000D01*
X81380000Y-79270000D02*
X78620000Y-79270000D01*
X81380000Y-79270000D02*
X81380000Y-147960000D01*
X81380000Y-147960000D02*
X78620000Y-147960000D01*
%TD*%
M02*
