%TF.GenerationSoftware,KiCad,Pcbnew,9.0.2*%
%TF.CreationDate,2025-06-04T20:08:15+07:00*%
%TF.ProjectId,VCU,5643552e-6b69-4636-9164-5f7063625858,rev?*%
%TF.SameCoordinates,Original*%
%TF.FileFunction,Paste,Top*%
%TF.FilePolarity,Positive*%
%FSLAX46Y46*%
G04 Gerber Fmt 4.6, Leading zero omitted, Abs format (unit mm)*
G04 Created by KiCad (PCBNEW 9.0.2) date 2025-06-04 20:08:15*
%MOMM*%
%LPD*%
G01*
G04 APERTURE LIST*
G04 Aperture macros list*
%AMRoundRect*
0 Rectangle with rounded corners*
0 $1 Rounding radius*
0 $2 $3 $4 $5 $6 $7 $8 $9 X,Y pos of 4 corners*
0 Add a 4 corners polygon primitive as box body*
4,1,4,$2,$3,$4,$5,$6,$7,$8,$9,$2,$3,0*
0 Add four circle primitives for the rounded corners*
1,1,$1+$1,$2,$3*
1,1,$1+$1,$4,$5*
1,1,$1+$1,$6,$7*
1,1,$1+$1,$8,$9*
0 Add four rect primitives between the rounded corners*
20,1,$1+$1,$2,$3,$4,$5,0*
20,1,$1+$1,$4,$5,$6,$7,0*
20,1,$1+$1,$6,$7,$8,$9,0*
20,1,$1+$1,$8,$9,$2,$3,0*%
G04 Aperture macros list end*
%ADD10C,0.010000*%
%ADD11RoundRect,0.237500X-0.237500X0.250000X-0.237500X-0.250000X0.237500X-0.250000X0.237500X0.250000X0*%
%ADD12RoundRect,0.150000X0.587500X0.150000X-0.587500X0.150000X-0.587500X-0.150000X0.587500X-0.150000X0*%
%ADD13RoundRect,0.250000X1.275000X1.125000X-1.275000X1.125000X-1.275000X-1.125000X1.275000X-1.125000X0*%
%ADD14RoundRect,0.250000X0.850000X0.350000X-0.850000X0.350000X-0.850000X-0.350000X0.850000X-0.350000X0*%
%ADD15RoundRect,0.237500X-0.287500X-0.237500X0.287500X-0.237500X0.287500X0.237500X-0.287500X0.237500X0*%
%ADD16RoundRect,0.150000X0.662500X0.150000X-0.662500X0.150000X-0.662500X-0.150000X0.662500X-0.150000X0*%
%ADD17RoundRect,0.237500X0.300000X0.237500X-0.300000X0.237500X-0.300000X-0.237500X0.300000X-0.237500X0*%
%ADD18RoundRect,0.237500X0.237500X-0.250000X0.237500X0.250000X-0.237500X0.250000X-0.237500X-0.250000X0*%
%ADD19RoundRect,0.225000X-0.375000X0.225000X-0.375000X-0.225000X0.375000X-0.225000X0.375000X0.225000X0*%
%ADD20RoundRect,0.237500X-0.250000X-0.237500X0.250000X-0.237500X0.250000X0.237500X-0.250000X0.237500X0*%
%ADD21RoundRect,0.237500X0.237500X-0.287500X0.237500X0.287500X-0.237500X0.287500X-0.237500X-0.287500X0*%
%ADD22RoundRect,0.075000X-0.910000X-0.225000X0.910000X-0.225000X0.910000X0.225000X-0.910000X0.225000X0*%
%ADD23RoundRect,0.237500X-0.237500X0.287500X-0.237500X-0.287500X0.237500X-0.287500X0.237500X0.287500X0*%
%ADD24RoundRect,0.237500X0.250000X0.237500X-0.250000X0.237500X-0.250000X-0.237500X0.250000X-0.237500X0*%
%ADD25RoundRect,0.237500X0.287500X0.237500X-0.287500X0.237500X-0.287500X-0.237500X0.287500X-0.237500X0*%
%ADD26RoundRect,0.150000X-0.150000X0.662500X-0.150000X-0.662500X0.150000X-0.662500X0.150000X0.662500X0*%
%ADD27RoundRect,0.225000X0.225000X0.375000X-0.225000X0.375000X-0.225000X-0.375000X0.225000X-0.375000X0*%
%ADD28RoundRect,0.237500X-0.300000X-0.237500X0.300000X-0.237500X0.300000X0.237500X-0.300000X0.237500X0*%
%ADD29RoundRect,0.150000X-0.150000X0.587500X-0.150000X-0.587500X0.150000X-0.587500X0.150000X0.587500X0*%
G04 APERTURE END LIST*
D10*
%TO.C,U1*%
X133575000Y-131125000D02*
X132696350Y-131125000D01*
X132696350Y-130873360D01*
X133575000Y-130873360D01*
X133575000Y-131125000D01*
G36*
X133575000Y-131125000D02*
G01*
X132696350Y-131125000D01*
X132696350Y-130873360D01*
X133575000Y-130873360D01*
X133575000Y-131125000D01*
G37*
X133575000Y-131625000D02*
X132698400Y-131625000D01*
X132698400Y-131374601D01*
X133575000Y-131374601D01*
X133575000Y-131625000D01*
G36*
X133575000Y-131625000D02*
G01*
X132698400Y-131625000D01*
X132698400Y-131374601D01*
X133575000Y-131374601D01*
X133575000Y-131625000D01*
G37*
X133575000Y-132125000D02*
X132699680Y-132125000D01*
X132699680Y-131874984D01*
X133575000Y-131874984D01*
X133575000Y-132125000D01*
G36*
X133575000Y-132125000D02*
G01*
X132699680Y-132125000D01*
X132699680Y-131874984D01*
X133575000Y-131874984D01*
X133575000Y-132125000D01*
G37*
X133575000Y-132625000D02*
X132696250Y-132625000D01*
X132696250Y-132375563D01*
X133575000Y-132375563D01*
X133575000Y-132625000D01*
G36*
X133575000Y-132625000D02*
G01*
X132696250Y-132625000D01*
X132696250Y-132375563D01*
X133575000Y-132375563D01*
X133575000Y-132625000D01*
G37*
X133575000Y-133125000D02*
X132699470Y-133125000D01*
X132699470Y-132875185D01*
X133575000Y-132875185D01*
X133575000Y-133125000D01*
G36*
X133575000Y-133125000D02*
G01*
X132699470Y-133125000D01*
X132699470Y-132875185D01*
X133575000Y-132875185D01*
X133575000Y-133125000D01*
G37*
X137700000Y-131625000D02*
X136825450Y-131625000D01*
X136825450Y-131374827D01*
X137700000Y-131374827D01*
X137700000Y-131625000D01*
G36*
X137700000Y-131625000D02*
G01*
X136825450Y-131625000D01*
X136825450Y-131374827D01*
X137700000Y-131374827D01*
X137700000Y-131625000D01*
G37*
X137700000Y-133125000D02*
X136825540Y-133125000D01*
X136825540Y-132875290D01*
X137700000Y-132875290D01*
X137700000Y-133125000D01*
G36*
X137700000Y-133125000D02*
G01*
X136825540Y-133125000D01*
X136825540Y-132875290D01*
X137700000Y-132875290D01*
X137700000Y-133125000D01*
G37*
X137700000Y-131125000D02*
X136825580Y-131125000D01*
X136825580Y-130874600D01*
X137700000Y-130874600D01*
X137700000Y-131125000D01*
G36*
X137700000Y-131125000D02*
G01*
X136825580Y-131125000D01*
X136825580Y-130874600D01*
X137700000Y-130874600D01*
X137700000Y-131125000D01*
G37*
X137700000Y-132125000D02*
X136826190Y-132125000D01*
X136826190Y-131874908D01*
X137700000Y-131874908D01*
X137700000Y-132125000D01*
G36*
X137700000Y-132125000D02*
G01*
X136826190Y-132125000D01*
X136826190Y-131874908D01*
X137700000Y-131874908D01*
X137700000Y-132125000D01*
G37*
X137700000Y-132625000D02*
X136827250Y-132625000D01*
X136827250Y-132375520D01*
X137700000Y-132375520D01*
X137700000Y-132625000D01*
G36*
X137700000Y-132625000D02*
G01*
X136827250Y-132625000D01*
X136827250Y-132375520D01*
X137700000Y-132375520D01*
X137700000Y-132625000D01*
G37*
%TO.C,U2*%
X133335000Y-118325000D02*
X132456350Y-118325000D01*
X132456350Y-118073360D01*
X133335000Y-118073360D01*
X133335000Y-118325000D01*
G36*
X133335000Y-118325000D02*
G01*
X132456350Y-118325000D01*
X132456350Y-118073360D01*
X133335000Y-118073360D01*
X133335000Y-118325000D01*
G37*
X133335000Y-118825000D02*
X132458400Y-118825000D01*
X132458400Y-118574601D01*
X133335000Y-118574601D01*
X133335000Y-118825000D01*
G36*
X133335000Y-118825000D02*
G01*
X132458400Y-118825000D01*
X132458400Y-118574601D01*
X133335000Y-118574601D01*
X133335000Y-118825000D01*
G37*
X133335000Y-119325000D02*
X132459680Y-119325000D01*
X132459680Y-119074984D01*
X133335000Y-119074984D01*
X133335000Y-119325000D01*
G36*
X133335000Y-119325000D02*
G01*
X132459680Y-119325000D01*
X132459680Y-119074984D01*
X133335000Y-119074984D01*
X133335000Y-119325000D01*
G37*
X133335000Y-119825000D02*
X132456250Y-119825000D01*
X132456250Y-119575563D01*
X133335000Y-119575563D01*
X133335000Y-119825000D01*
G36*
X133335000Y-119825000D02*
G01*
X132456250Y-119825000D01*
X132456250Y-119575563D01*
X133335000Y-119575563D01*
X133335000Y-119825000D01*
G37*
X133335000Y-120325000D02*
X132459470Y-120325000D01*
X132459470Y-120075185D01*
X133335000Y-120075185D01*
X133335000Y-120325000D01*
G36*
X133335000Y-120325000D02*
G01*
X132459470Y-120325000D01*
X132459470Y-120075185D01*
X133335000Y-120075185D01*
X133335000Y-120325000D01*
G37*
X137460000Y-118825000D02*
X136585450Y-118825000D01*
X136585450Y-118574827D01*
X137460000Y-118574827D01*
X137460000Y-118825000D01*
G36*
X137460000Y-118825000D02*
G01*
X136585450Y-118825000D01*
X136585450Y-118574827D01*
X137460000Y-118574827D01*
X137460000Y-118825000D01*
G37*
X137460000Y-120325000D02*
X136585540Y-120325000D01*
X136585540Y-120075290D01*
X137460000Y-120075290D01*
X137460000Y-120325000D01*
G36*
X137460000Y-120325000D02*
G01*
X136585540Y-120325000D01*
X136585540Y-120075290D01*
X137460000Y-120075290D01*
X137460000Y-120325000D01*
G37*
X137460000Y-118325000D02*
X136585580Y-118325000D01*
X136585580Y-118074600D01*
X137460000Y-118074600D01*
X137460000Y-118325000D01*
G36*
X137460000Y-118325000D02*
G01*
X136585580Y-118325000D01*
X136585580Y-118074600D01*
X137460000Y-118074600D01*
X137460000Y-118325000D01*
G37*
X137460000Y-119325000D02*
X136586190Y-119325000D01*
X136586190Y-119074908D01*
X137460000Y-119074908D01*
X137460000Y-119325000D01*
G36*
X137460000Y-119325000D02*
G01*
X136586190Y-119325000D01*
X136586190Y-119074908D01*
X137460000Y-119074908D01*
X137460000Y-119325000D01*
G37*
X137460000Y-119825000D02*
X136587250Y-119825000D01*
X136587250Y-119575520D01*
X137460000Y-119575520D01*
X137460000Y-119825000D01*
G36*
X137460000Y-119825000D02*
G01*
X136587250Y-119825000D01*
X136587250Y-119575520D01*
X137460000Y-119575520D01*
X137460000Y-119825000D01*
G37*
%TD*%
D11*
%TO.C,R25*%
X96600000Y-119600000D03*
X96600000Y-121425000D03*
%TD*%
%TO.C,R1*%
X138100000Y-96675000D03*
X138100000Y-98500000D03*
%TD*%
%TO.C,R30*%
X97450000Y-111687500D03*
X97450000Y-113512500D03*
%TD*%
D12*
%TO.C,Q2*%
X98962500Y-96822500D03*
X98962500Y-94922500D03*
X97087500Y-95872500D03*
%TD*%
D13*
%TO.C,Q4*%
X89375000Y-134597500D03*
X89375000Y-131547500D03*
X86025000Y-134597500D03*
X86025000Y-131547500D03*
D14*
X94000000Y-135352500D03*
X94000000Y-130792500D03*
%TD*%
D15*
%TO.C,D13*%
X130512500Y-79200000D03*
X132262500Y-79200000D03*
%TD*%
D16*
%TO.C,U8*%
X103587500Y-124735000D03*
X103587500Y-123465000D03*
X97212500Y-123465000D03*
X97212500Y-124735000D03*
%TD*%
D17*
%TO.C,C4*%
X134712500Y-129400000D03*
X132987500Y-129400000D03*
%TD*%
D18*
%TO.C,R33*%
X138200000Y-85100000D03*
X138200000Y-83275000D03*
%TD*%
D19*
%TO.C,D3*%
X98025000Y-76350000D03*
X98025000Y-79650000D03*
%TD*%
D11*
%TO.C,R24*%
X97200000Y-140687500D03*
X97200000Y-142512500D03*
%TD*%
%TO.C,R9*%
X131110000Y-120300000D03*
X131110000Y-122125000D03*
%TD*%
D12*
%TO.C,Q1*%
X98962500Y-83072500D03*
X98962500Y-81172500D03*
X97087500Y-82122500D03*
%TD*%
D16*
%TO.C,U7*%
X103487500Y-145735000D03*
X103487500Y-144465000D03*
X97112500Y-144465000D03*
X97112500Y-145735000D03*
%TD*%
D20*
%TO.C,R17*%
X97387500Y-85000000D03*
X99212500Y-85000000D03*
%TD*%
D21*
%TO.C,D1*%
X100525000Y-78972500D03*
X100525000Y-77222500D03*
%TD*%
D11*
%TO.C,R7*%
X131110000Y-132800000D03*
X131110000Y-134625000D03*
%TD*%
%TO.C,R23*%
X97100000Y-130087500D03*
X97100000Y-131912500D03*
%TD*%
D22*
%TO.C,BMS1*%
X130425000Y-95595000D03*
X130425000Y-96865000D03*
X130425000Y-98135000D03*
X130425000Y-99405000D03*
X135365000Y-99405000D03*
X135365000Y-98135000D03*
X135365000Y-96865000D03*
X135365000Y-95595000D03*
%TD*%
D11*
%TO.C,R13*%
X103025000Y-81247500D03*
X103025000Y-83072500D03*
%TD*%
D17*
%TO.C,C1*%
X131662500Y-101200000D03*
X129937500Y-101200000D03*
%TD*%
D11*
%TO.C,R20*%
X103600000Y-140687500D03*
X103600000Y-142512500D03*
%TD*%
D18*
%TO.C,R10*%
X131110000Y-118300000D03*
X131110000Y-116475000D03*
%TD*%
D16*
%TO.C,U6*%
X103487500Y-135435000D03*
X103487500Y-134165000D03*
X97112500Y-134165000D03*
X97112500Y-135435000D03*
%TD*%
D23*
%TO.C,D8*%
X99450000Y-111722500D03*
X99450000Y-113472500D03*
%TD*%
D24*
%TO.C,R27*%
X100912500Y-132400000D03*
X99087500Y-132400000D03*
%TD*%
%TO.C,R31*%
X136100000Y-79200000D03*
X134275000Y-79200000D03*
%TD*%
D18*
%TO.C,R32*%
X138100000Y-95000000D03*
X138100000Y-93175000D03*
%TD*%
D11*
%TO.C,R12*%
X103025000Y-91047500D03*
X103025000Y-92872500D03*
%TD*%
D22*
%TO.C,Display1*%
X130630000Y-105195000D03*
X130630000Y-106465000D03*
X130630000Y-107735000D03*
X130630000Y-109005000D03*
X135570000Y-109005000D03*
X135570000Y-107735000D03*
X135570000Y-106465000D03*
X135570000Y-105195000D03*
%TD*%
D24*
%TO.C,R2*%
X135912500Y-101200000D03*
X134087500Y-101200000D03*
%TD*%
D20*
%TO.C,R18*%
X97387500Y-98600000D03*
X99212500Y-98600000D03*
%TD*%
D24*
%TO.C,R29*%
X101112500Y-121300000D03*
X99287500Y-121300000D03*
%TD*%
D13*
%TO.C,Q6*%
X89300000Y-145197500D03*
X89300000Y-142147500D03*
X85950000Y-145197500D03*
X85950000Y-142147500D03*
D14*
X93925000Y-145952500D03*
X93925000Y-141392500D03*
%TD*%
D13*
%TO.C,Q5*%
X89375000Y-124252500D03*
X89375000Y-121202500D03*
X86025000Y-124252500D03*
X86025000Y-121202500D03*
D14*
X94000000Y-125007500D03*
X94000000Y-120447500D03*
%TD*%
D11*
%TO.C,R11*%
X103025000Y-77147500D03*
X103025000Y-78972500D03*
%TD*%
%TO.C,R26*%
X100200000Y-103487500D03*
X100200000Y-105312500D03*
%TD*%
D25*
%TO.C,D7*%
X101075000Y-147700000D03*
X99325000Y-147700000D03*
%TD*%
D19*
%TO.C,D4*%
X98025000Y-90322500D03*
X98025000Y-93622500D03*
%TD*%
D26*
%TO.C,U9*%
X102835000Y-107785000D03*
X101565000Y-107785000D03*
X101565000Y-114160000D03*
X102835000Y-114160000D03*
%TD*%
D24*
%TO.C,R6*%
X136095000Y-110750000D03*
X134270000Y-110750000D03*
%TD*%
D25*
%TO.C,D6*%
X101200000Y-126700000D03*
X99450000Y-126700000D03*
%TD*%
D17*
%TO.C,C5*%
X134610000Y-116500000D03*
X132885000Y-116500000D03*
%TD*%
D24*
%TO.C,R4*%
X136045000Y-91300000D03*
X134220000Y-91300000D03*
%TD*%
D11*
%TO.C,R22*%
X102600000Y-103487500D03*
X102600000Y-105312500D03*
%TD*%
D18*
%TO.C,R8*%
X131110000Y-131250000D03*
X131110000Y-129425000D03*
%TD*%
D11*
%TO.C,R5*%
X138200000Y-106187500D03*
X138200000Y-108012500D03*
%TD*%
D27*
%TO.C,D11*%
X101600000Y-119200000D03*
X98300000Y-119200000D03*
%TD*%
D28*
%TO.C,C2*%
X130220000Y-91300000D03*
X131945000Y-91300000D03*
%TD*%
D25*
%TO.C,D5*%
X101175000Y-137300000D03*
X99425000Y-137300000D03*
%TD*%
D29*
%TO.C,Q3*%
X99650000Y-107535000D03*
X97750000Y-107535000D03*
X98700000Y-109410000D03*
%TD*%
D18*
%TO.C,R34*%
X138200000Y-104500000D03*
X138200000Y-102675000D03*
%TD*%
D28*
%TO.C,C3*%
X130137500Y-110800000D03*
X131862500Y-110800000D03*
%TD*%
D11*
%TO.C,R15*%
X103025000Y-94960000D03*
X103025000Y-96785000D03*
%TD*%
D27*
%TO.C,D10*%
X101650000Y-130400000D03*
X98350000Y-130400000D03*
%TD*%
D19*
%TO.C,D9*%
X97400000Y-102350000D03*
X97400000Y-105650000D03*
%TD*%
D11*
%TO.C,R19*%
X103200000Y-130087500D03*
X103200000Y-131912500D03*
%TD*%
%TO.C,R21*%
X103200000Y-119475000D03*
X103200000Y-121300000D03*
%TD*%
D27*
%TO.C,D12*%
X102000000Y-140400000D03*
X98700000Y-140400000D03*
%TD*%
D21*
%TO.C,D2*%
X100525000Y-92872500D03*
X100525000Y-91122500D03*
%TD*%
D22*
%TO.C,ECU1*%
X130580000Y-85795000D03*
X130580000Y-87065000D03*
X130580000Y-88335000D03*
X130580000Y-89605000D03*
X135520000Y-89605000D03*
X135520000Y-88335000D03*
X135520000Y-87065000D03*
X135520000Y-85795000D03*
%TD*%
D18*
%TO.C,R14*%
X101025000Y-83072500D03*
X101025000Y-81247500D03*
%TD*%
%TO.C,R16*%
X101025000Y-96785000D03*
X101025000Y-94960000D03*
%TD*%
D24*
%TO.C,R28*%
X101112500Y-142400000D03*
X99287500Y-142400000D03*
%TD*%
D11*
%TO.C,R3*%
X138200000Y-86787500D03*
X138200000Y-88612500D03*
%TD*%
M02*
