%TF.GenerationSoftware,KiCad,Pcbnew,9.0.2*%
%TF.CreationDate,2025-06-04T20:08:17+07:00*%
%TF.ProjectId,VCU,5643552e-6b69-4636-9164-5f7063625858,rev?*%
%TF.SameCoordinates,Original*%
%TF.FileFunction,Plated,1,2,PTH,Drill*%
%TF.FilePolarity,Positive*%
%FSLAX46Y46*%
G04 Gerber Fmt 4.6, Leading zero omitted, Abs format (unit mm)*
G04 Created by KiCad (PCBNEW 9.0.2) date 2025-06-04 20:08:17*
%MOMM*%
%LPD*%
G01*
G04 APERTURE LIST*
%TA.AperFunction,ViaDrill*%
%ADD10C,0.250000*%
%TD*%
%TA.AperFunction,ViaDrill*%
%ADD11C,0.300000*%
%TD*%
%TA.AperFunction,ComponentDrill*%
%ADD12C,0.762000*%
%TD*%
%TA.AperFunction,ComponentDrill*%
%ADD13C,1.000000*%
%TD*%
%TA.AperFunction,ComponentDrill*%
%ADD14C,1.100000*%
%TD*%
G04 APERTURE END LIST*
D10*
X77900000Y-147900000D03*
X85600000Y-126600000D03*
X86200000Y-126600000D03*
X86200000Y-127200000D03*
X86800000Y-126600000D03*
X87600000Y-116200000D03*
X88400000Y-116200000D03*
X89200000Y-116200000D03*
X90000000Y-116200000D03*
X90800000Y-116200000D03*
X91600000Y-116200000D03*
X92400000Y-116200000D03*
X92600000Y-131800000D03*
X92600000Y-132400000D03*
X92600000Y-133000000D03*
X92600000Y-133600000D03*
X92600000Y-142400000D03*
X92600000Y-143000000D03*
X92600000Y-143600000D03*
X92600000Y-144200000D03*
X92800000Y-126800000D03*
X92800000Y-127400000D03*
X93200000Y-116200000D03*
X93200000Y-131800000D03*
X93200000Y-132400000D03*
X93200000Y-133000000D03*
X93200000Y-133600000D03*
X93200000Y-142400000D03*
X93200000Y-143000000D03*
X93200000Y-143600000D03*
X93200000Y-144200000D03*
X93400000Y-126800000D03*
X93400000Y-127400000D03*
X93800000Y-131800000D03*
X93800000Y-132400000D03*
X93800000Y-133000000D03*
X93800000Y-133600000D03*
X93800000Y-142400000D03*
X93800000Y-143000000D03*
X93800000Y-143600000D03*
X93800000Y-144200000D03*
X94000000Y-116200000D03*
X94000000Y-126800000D03*
X94000000Y-127400000D03*
X94400000Y-131800000D03*
X94400000Y-132400000D03*
X94400000Y-133000000D03*
X94400000Y-142400000D03*
X94400000Y-143000000D03*
X94400000Y-143600000D03*
X94600000Y-126800000D03*
X94600000Y-127400000D03*
X95000000Y-131800000D03*
X95000000Y-132400000D03*
X95000000Y-133000000D03*
X95000000Y-142400000D03*
X95000000Y-143000000D03*
X95200000Y-126800000D03*
X95200000Y-127400000D03*
X95600000Y-131800000D03*
X95600000Y-132400000D03*
X95600000Y-141200000D03*
X95600000Y-141800000D03*
X95600000Y-142400000D03*
X95600000Y-143000000D03*
X95800000Y-126200000D03*
X95800000Y-126800000D03*
X95800000Y-127400000D03*
X97112500Y-147687500D03*
X97200000Y-101000000D03*
X97800000Y-101000000D03*
X97875000Y-137125000D03*
X98000000Y-126500000D03*
X98400000Y-101000000D03*
X98400000Y-101600000D03*
X99000000Y-94200000D03*
X99000000Y-101000000D03*
X99000000Y-101600000D03*
X99600000Y-94200000D03*
X99600000Y-95600000D03*
X99600000Y-101000000D03*
X99600000Y-101600000D03*
X100200000Y-94200000D03*
X100200000Y-94800000D03*
X100200000Y-95400000D03*
X100200000Y-101000000D03*
X100200000Y-101600000D03*
X100400000Y-84400000D03*
X100400000Y-85000000D03*
X100400000Y-85600000D03*
X100800000Y-94200000D03*
X100800000Y-101000000D03*
X100800000Y-101600000D03*
X101000000Y-84400000D03*
X101000000Y-85000000D03*
X101000000Y-85600000D03*
X101400000Y-94200000D03*
X101400000Y-101000000D03*
X101400000Y-101600000D03*
X101600000Y-84400000D03*
X101600000Y-85000000D03*
X101600000Y-85600000D03*
X102200000Y-84400000D03*
X102200000Y-85000000D03*
X102200000Y-85600000D03*
X102800000Y-84400000D03*
X102800000Y-85000000D03*
X102800000Y-85600000D03*
X102900000Y-147400000D03*
X103000000Y-117400000D03*
X103800000Y-118200000D03*
X104500000Y-120800000D03*
X104500000Y-121400000D03*
X107500000Y-77700000D03*
X123700000Y-77500000D03*
X127600000Y-142600000D03*
X128000000Y-119000000D03*
X128200000Y-142600000D03*
X128500000Y-99500000D03*
X128800000Y-142600000D03*
X129400000Y-111400000D03*
X129400000Y-112000000D03*
X129400000Y-112600000D03*
X129400000Y-113200000D03*
X129400000Y-113800000D03*
X129400000Y-114400000D03*
X129400000Y-115000000D03*
X129400000Y-115600000D03*
X129400000Y-116200000D03*
X129400000Y-116800000D03*
X129400000Y-142600000D03*
X130000000Y-112000000D03*
X130000000Y-112600000D03*
X130000000Y-113200000D03*
X130000000Y-113800000D03*
X130000000Y-114400000D03*
X130000000Y-115000000D03*
X130000000Y-142600000D03*
X130600000Y-112600000D03*
X130600000Y-113200000D03*
X130600000Y-113800000D03*
X130600000Y-114400000D03*
X130600000Y-115000000D03*
X130600000Y-142600000D03*
X131200000Y-142600000D03*
X131600000Y-102200000D03*
X131800000Y-142600000D03*
X131862500Y-113500000D03*
X131900000Y-135700000D03*
X132170000Y-127500000D03*
X132200000Y-87000000D03*
X132200000Y-102200000D03*
X132400000Y-104800000D03*
X132400000Y-105400000D03*
X132400000Y-106000000D03*
X132400000Y-106600000D03*
X132400000Y-142600000D03*
X132600000Y-92800000D03*
X132800000Y-85200000D03*
X132800000Y-85800000D03*
X132800000Y-86400000D03*
X132800000Y-87000000D03*
X132800000Y-87600000D03*
X132800000Y-102200000D03*
X133000000Y-104800000D03*
X133000000Y-105400000D03*
X133000000Y-106000000D03*
X133000000Y-106600000D03*
X133000000Y-107200000D03*
X133000000Y-115000000D03*
X133000000Y-142600000D03*
X133400000Y-85200000D03*
X133400000Y-85800000D03*
X133400000Y-86400000D03*
X133400000Y-87000000D03*
X133400000Y-87600000D03*
X133400000Y-89600000D03*
X133400000Y-94800000D03*
X133400000Y-95400000D03*
X133400000Y-96000000D03*
X133400000Y-96600000D03*
X133400000Y-97200000D03*
X133400000Y-97800000D03*
X133400000Y-98400000D03*
X133400000Y-102200000D03*
X133600000Y-104800000D03*
X133600000Y-105400000D03*
X133600000Y-106000000D03*
X133600000Y-106600000D03*
X133600000Y-107200000D03*
X133600000Y-107800000D03*
X133600000Y-108400000D03*
X133600000Y-109000000D03*
X133600000Y-115000000D03*
X133600000Y-142600000D03*
X134000000Y-102200000D03*
X134200000Y-115000000D03*
X134200000Y-115600000D03*
X134200000Y-142600000D03*
X134400000Y-117800000D03*
X134400000Y-118400000D03*
X134400000Y-119000000D03*
X134400000Y-119600000D03*
X134400000Y-120200000D03*
X134600000Y-102200000D03*
X134600000Y-130600000D03*
X134600000Y-131200000D03*
X134600000Y-131800000D03*
X134600000Y-132400000D03*
X134600000Y-133000000D03*
X134600000Y-133600000D03*
X134800000Y-115000000D03*
X134800000Y-115600000D03*
X134800000Y-142600000D03*
X135000000Y-117800000D03*
X135000000Y-118400000D03*
X135000000Y-119000000D03*
X135000000Y-119600000D03*
X135000000Y-120200000D03*
X135200000Y-130600000D03*
X135200000Y-131200000D03*
X135200000Y-131800000D03*
X135200000Y-132400000D03*
X135200000Y-133000000D03*
X135200000Y-133600000D03*
X135400000Y-115000000D03*
X135400000Y-115600000D03*
X135400000Y-142600000D03*
X135600000Y-117800000D03*
X135600000Y-118400000D03*
X135600000Y-119000000D03*
X135600000Y-119600000D03*
X135600000Y-120200000D03*
X135800000Y-128800000D03*
X135800000Y-129400000D03*
X135800000Y-130000000D03*
X135800000Y-130600000D03*
X135800000Y-131200000D03*
X135800000Y-131800000D03*
X135800000Y-132400000D03*
X135800000Y-133000000D03*
X136000000Y-115000000D03*
X136000000Y-115600000D03*
X136000000Y-116200000D03*
X136000000Y-142600000D03*
X136400000Y-128800000D03*
X136400000Y-129400000D03*
X136400000Y-130000000D03*
X136600000Y-115000000D03*
X136600000Y-115600000D03*
X136600000Y-116200000D03*
X136600000Y-142600000D03*
X137000000Y-128800000D03*
X137000000Y-129400000D03*
X137000000Y-130000000D03*
X137200000Y-115000000D03*
X137200000Y-115600000D03*
X137200000Y-116200000D03*
X137200000Y-142600000D03*
X137600000Y-128800000D03*
X137600000Y-129400000D03*
X137600000Y-130000000D03*
X137800000Y-142600000D03*
X138400000Y-142600000D03*
X139000000Y-142600000D03*
X139600000Y-142600000D03*
X140200000Y-142400000D03*
X140600000Y-142000000D03*
X141000000Y-141600000D03*
X141400000Y-141200000D03*
X141800000Y-140800000D03*
X142200000Y-140400000D03*
D11*
X95800000Y-130792500D03*
X100000000Y-80250000D03*
X101000000Y-98500000D03*
X101000000Y-128500000D03*
X101250000Y-139000000D03*
X102400000Y-90100000D03*
X104000000Y-133000000D03*
X104250000Y-77250000D03*
X104500000Y-122000000D03*
X127800000Y-86200000D03*
X128600000Y-86800000D03*
X128800000Y-96865000D03*
X129100000Y-91300000D03*
X129250000Y-118250000D03*
X129250000Y-121500000D03*
X129350000Y-79200000D03*
D12*
%TO.C,K1*%
X88945000Y-77472500D03*
X88945000Y-80672501D03*
X88945000Y-82872502D03*
X88945000Y-85072500D03*
%TO.C,K2*%
X88945000Y-91472500D03*
X88945000Y-94672501D03*
X88945000Y-96872502D03*
X88945000Y-99072500D03*
%TO.C,K3*%
X89060000Y-105170800D03*
X89060000Y-108370801D03*
X89060000Y-110570802D03*
X89060000Y-112770800D03*
%TO.C,K1*%
X94025000Y-77472500D03*
X94025000Y-80672501D03*
X94025000Y-82872502D03*
X94025000Y-85072500D03*
%TO.C,K2*%
X94025000Y-91472500D03*
X94025000Y-94672501D03*
X94025000Y-96872502D03*
X94025000Y-99072500D03*
%TO.C,K3*%
X94140000Y-105170800D03*
X94140000Y-108370801D03*
X94140000Y-110570802D03*
X94140000Y-112770800D03*
D13*
%TO.C,J1*%
X80000000Y-78000000D03*
X80000000Y-80540000D03*
X80000000Y-83080000D03*
X80000000Y-85620000D03*
X80000000Y-88160000D03*
X80000000Y-90700000D03*
X80000000Y-93240000D03*
X80000000Y-95780000D03*
X80000000Y-98320000D03*
X80000000Y-100860000D03*
X80000000Y-103400000D03*
X80000000Y-105940000D03*
X80000000Y-108480000D03*
X80000000Y-111020000D03*
X80000000Y-113560000D03*
X80000000Y-116100000D03*
X80000000Y-118640000D03*
X80000000Y-121180000D03*
X80000000Y-123720000D03*
X80000000Y-126260000D03*
X80000000Y-128800000D03*
X80000000Y-131340000D03*
X80000000Y-133880000D03*
X80000000Y-136420000D03*
X80000000Y-138960000D03*
X80000000Y-141500000D03*
X80000000Y-144040000D03*
X80000000Y-146580000D03*
%TO.C,ADS2*%
X132170000Y-125000000D03*
%TO.C,ADS1*%
X132270000Y-137725000D03*
%TO.C,ADS2*%
X134710000Y-125000000D03*
%TO.C,ADS1*%
X134810000Y-137725000D03*
%TO.C,ADS2*%
X137250000Y-125000000D03*
%TO.C,ADS1*%
X137350000Y-137725000D03*
%TO.C,J2*%
X144000000Y-78000000D03*
X144000000Y-80540000D03*
X144000000Y-83080000D03*
X144000000Y-85620000D03*
X144000000Y-88160000D03*
X144000000Y-90700000D03*
X144000000Y-93240000D03*
X144000000Y-95780000D03*
X144000000Y-98320000D03*
X144000000Y-100860000D03*
X144000000Y-103400000D03*
X144000000Y-105940000D03*
X144000000Y-108480000D03*
X144000000Y-111020000D03*
X144000000Y-113560000D03*
X144000000Y-116100000D03*
X144000000Y-118640000D03*
X144000000Y-121180000D03*
X144000000Y-123720000D03*
X144000000Y-126260000D03*
X144000000Y-128800000D03*
X144000000Y-131340000D03*
X144000000Y-133880000D03*
X144000000Y-136420000D03*
X144000000Y-138960000D03*
X144000000Y-141500000D03*
X144000000Y-144040000D03*
X144000000Y-146580000D03*
D14*
%TO.C,Teensy4.1*%
X108580000Y-82190000D03*
X108580000Y-84730000D03*
X108580000Y-87270000D03*
X108580000Y-89810000D03*
X108580000Y-92350000D03*
X108580000Y-94890000D03*
X108580000Y-97430000D03*
X108580000Y-99970000D03*
X108580000Y-102510000D03*
X108580000Y-105050000D03*
X108580000Y-107590000D03*
X108580000Y-110130000D03*
X108580000Y-112670000D03*
X108580000Y-115210000D03*
X108580000Y-117750000D03*
X108580000Y-120290000D03*
X108580000Y-122830000D03*
X108580000Y-125370000D03*
X108580000Y-127910000D03*
X108580000Y-130450000D03*
X108580000Y-132990000D03*
X108580000Y-135530000D03*
X108580000Y-138070000D03*
X108580000Y-140610000D03*
X123820000Y-82190000D03*
X123820000Y-84730000D03*
X123820000Y-87270000D03*
X123820000Y-89810000D03*
X123820000Y-92350000D03*
X123820000Y-94890000D03*
X123820000Y-97430000D03*
X123820000Y-99970000D03*
X123820000Y-102510000D03*
X123820000Y-105050000D03*
X123820000Y-107590000D03*
X123820000Y-110130000D03*
X123820000Y-112670000D03*
X123820000Y-115210000D03*
X123820000Y-117750000D03*
X123820000Y-120290000D03*
X123820000Y-122830000D03*
X123820000Y-125370000D03*
X123820000Y-127910000D03*
X123820000Y-130450000D03*
X123820000Y-132990000D03*
X123820000Y-135530000D03*
X123820000Y-138070000D03*
X123820000Y-140610000D03*
M02*
