%TF.GenerationSoftware,KiCad,Pcbnew,9.0.2*%
%TF.CreationDate,2025-06-04T00:25:23+07:00*%
%TF.ProjectId,Power Delivery Management_3.3V,506f7765-7220-4446-956c-697665727920,rev?*%
%TF.SameCoordinates,Original*%
%TF.FileFunction,Legend,Bot*%
%TF.FilePolarity,Positive*%
%FSLAX46Y46*%
G04 Gerber Fmt 4.6, Leading zero omitted, Abs format (unit mm)*
G04 Created by KiCad (PCBNEW 9.0.2) date 2025-06-04 00:25:23*
%MOMM*%
%LPD*%
G01*
G04 APERTURE LIST*
%ADD10C,0.150000*%
%ADD11C,0.120000*%
G04 APERTURE END LIST*
D10*
X45292042Y-44436547D02*
X44580474Y-44498801D01*
X44580474Y-44498801D02*
X44442311Y-44558690D01*
X44442311Y-44558690D02*
X44355736Y-44661866D01*
X44355736Y-44661866D02*
X44320749Y-44808330D01*
X44320749Y-44808330D02*
X44329049Y-44903205D01*
X44881122Y-43564280D02*
X44216992Y-43622383D01*
X45281376Y-43768267D02*
X44590560Y-44067710D01*
X44590560Y-44067710D02*
X44536606Y-43451018D01*
X44165646Y-68071026D02*
X44879931Y-68071026D01*
X44879931Y-68071026D02*
X45022788Y-68023407D01*
X45022788Y-68023407D02*
X45118027Y-67928169D01*
X45118027Y-67928169D02*
X45165646Y-67785312D01*
X45165646Y-67785312D02*
X45165646Y-67690074D01*
X44165646Y-68451979D02*
X44165646Y-69071026D01*
X44165646Y-69071026D02*
X44546598Y-68737693D01*
X44546598Y-68737693D02*
X44546598Y-68880550D01*
X44546598Y-68880550D02*
X44594217Y-68975788D01*
X44594217Y-68975788D02*
X44641836Y-69023407D01*
X44641836Y-69023407D02*
X44737074Y-69071026D01*
X44737074Y-69071026D02*
X44975169Y-69071026D01*
X44975169Y-69071026D02*
X45070407Y-69023407D01*
X45070407Y-69023407D02*
X45118027Y-68975788D01*
X45118027Y-68975788D02*
X45165646Y-68880550D01*
X45165646Y-68880550D02*
X45165646Y-68594836D01*
X45165646Y-68594836D02*
X45118027Y-68499598D01*
X45118027Y-68499598D02*
X45070407Y-68451979D01*
D11*
%TO.C,J4*%
X45595803Y-42690093D02*
X45716078Y-44064842D01*
X46970552Y-42569818D02*
X45595803Y-42690093D01*
X48235719Y-42459131D02*
X48476269Y-45208628D01*
X48235719Y-42459131D02*
X71118312Y-40457163D01*
X48476269Y-45208628D02*
X71358861Y-43206657D01*
X71118312Y-40457163D02*
X71358861Y-43206657D01*
%TO.C,J3*%
X45710827Y-67024360D02*
X45710827Y-68404360D01*
X47090827Y-67024360D02*
X45710827Y-67024360D01*
X48360827Y-67024360D02*
X48360827Y-69784360D01*
X48360827Y-67024360D02*
X71330827Y-67024360D01*
X48360827Y-69784360D02*
X71330827Y-69784360D01*
X71330827Y-67024360D02*
X71330827Y-69784360D01*
%TD*%
M02*
