%TF.GenerationSoftware,KiCad,Pcbnew,9.0.2*%
%TF.CreationDate,2025-06-04T00:53:43+07:00*%
%TF.ProjectId,VCU,5643552e-6b69-4636-9164-5f7063625858,rev?*%
%TF.SameCoordinates,Original*%
%TF.FileFunction,Soldermask,Top*%
%TF.FilePolarity,Negative*%
%FSLAX46Y46*%
G04 Gerber Fmt 4.6, Leading zero omitted, Abs format (unit mm)*
G04 Created by KiCad (PCBNEW 9.0.2) date 2025-06-04 00:53:43*
%MOMM*%
%LPD*%
G01*
G04 APERTURE LIST*
G04 Aperture macros list*
%AMRoundRect*
0 Rectangle with rounded corners*
0 $1 Rounding radius*
0 $2 $3 $4 $5 $6 $7 $8 $9 X,Y pos of 4 corners*
0 Add a 4 corners polygon primitive as box body*
4,1,4,$2,$3,$4,$5,$6,$7,$8,$9,$2,$3,0*
0 Add four circle primitives for the rounded corners*
1,1,$1+$1,$2,$3*
1,1,$1+$1,$4,$5*
1,1,$1+$1,$6,$7*
1,1,$1+$1,$8,$9*
0 Add four rect primitives between the rounded corners*
20,1,$1+$1,$2,$3,$4,$5,0*
20,1,$1+$1,$4,$5,$6,$7,0*
20,1,$1+$1,$6,$7,$8,$9,0*
20,1,$1+$1,$8,$9,$2,$3,0*%
G04 Aperture macros list end*
%ADD10C,0.010000*%
%ADD11R,1.600000X1.600000*%
%ADD12C,1.600000*%
%ADD13RoundRect,0.237500X-0.237500X0.250000X-0.237500X-0.250000X0.237500X-0.250000X0.237500X0.250000X0*%
%ADD14R,1.700000X1.700000*%
%ADD15C,1.700000*%
%ADD16RoundRect,0.150000X0.587500X0.150000X-0.587500X0.150000X-0.587500X-0.150000X0.587500X-0.150000X0*%
%ADD17RoundRect,0.250000X0.850000X0.350000X-0.850000X0.350000X-0.850000X-0.350000X0.850000X-0.350000X0*%
%ADD18RoundRect,0.249997X2.950003X2.650003X-2.950003X2.650003X-2.950003X-2.650003X2.950003X-2.650003X0*%
%ADD19RoundRect,0.237500X-0.287500X-0.237500X0.287500X-0.237500X0.287500X0.237500X-0.287500X0.237500X0*%
%ADD20RoundRect,0.150000X0.662500X0.150000X-0.662500X0.150000X-0.662500X-0.150000X0.662500X-0.150000X0*%
%ADD21RoundRect,0.237500X0.300000X0.237500X-0.300000X0.237500X-0.300000X-0.237500X0.300000X-0.237500X0*%
%ADD22RoundRect,0.237500X0.237500X-0.250000X0.237500X0.250000X-0.237500X0.250000X-0.237500X-0.250000X0*%
%ADD23RoundRect,0.225000X-0.375000X0.225000X-0.375000X-0.225000X0.375000X-0.225000X0.375000X0.225000X0*%
%ADD24RoundRect,0.237500X-0.250000X-0.237500X0.250000X-0.237500X0.250000X0.237500X-0.250000X0.237500X0*%
%ADD25RoundRect,0.237500X0.237500X-0.287500X0.237500X0.287500X-0.237500X0.287500X-0.237500X-0.287500X0*%
%ADD26RoundRect,0.100500X-0.986500X-0.301500X0.986500X-0.301500X0.986500X0.301500X-0.986500X0.301500X0*%
%ADD27RoundRect,0.237500X-0.237500X0.287500X-0.237500X-0.287500X0.237500X-0.287500X0.237500X0.287500X0*%
%ADD28RoundRect,0.237500X0.250000X0.237500X-0.250000X0.237500X-0.250000X-0.237500X0.250000X-0.237500X0*%
%ADD29C,1.524000*%
%ADD30RoundRect,0.237500X0.287500X0.237500X-0.287500X0.237500X-0.287500X-0.237500X0.287500X-0.237500X0*%
%ADD31RoundRect,0.150000X-0.150000X0.662500X-0.150000X-0.662500X0.150000X-0.662500X0.150000X0.662500X0*%
%ADD32RoundRect,0.225000X0.225000X0.375000X-0.225000X0.375000X-0.225000X-0.375000X0.225000X-0.375000X0*%
%ADD33RoundRect,0.237500X-0.300000X-0.237500X0.300000X-0.237500X0.300000X0.237500X-0.300000X0.237500X0*%
%ADD34RoundRect,0.150000X-0.150000X0.587500X-0.150000X-0.587500X0.150000X-0.587500X0.150000X0.587500X0*%
G04 APERTURE END LIST*
D10*
%TO.C,U1*%
X133700000Y-131200000D02*
X132597040Y-131200000D01*
X132597040Y-130798640D01*
X133700000Y-130798640D01*
X133700000Y-131200000D01*
G36*
X133700000Y-131200000D02*
G01*
X132597040Y-131200000D01*
X132597040Y-130798640D01*
X133700000Y-130798640D01*
X133700000Y-131200000D01*
G37*
X133700000Y-131700000D02*
X132595920Y-131700000D01*
X132595920Y-131298903D01*
X133700000Y-131298903D01*
X133700000Y-131700000D01*
G36*
X133700000Y-131700000D02*
G01*
X132595920Y-131700000D01*
X132595920Y-131298903D01*
X133700000Y-131298903D01*
X133700000Y-131700000D01*
G37*
X133700000Y-132200000D02*
X132596190Y-132200000D01*
X132596190Y-131799707D01*
X133700000Y-131799707D01*
X133700000Y-132200000D01*
G36*
X133700000Y-132200000D02*
G01*
X132596190Y-132200000D01*
X132596190Y-131799707D01*
X133700000Y-131799707D01*
X133700000Y-132200000D01*
G37*
X133700000Y-132700000D02*
X132596490Y-132700000D01*
X132596490Y-132300405D01*
X133700000Y-132300405D01*
X133700000Y-132700000D01*
G36*
X133700000Y-132700000D02*
G01*
X132596490Y-132700000D01*
X132596490Y-132300405D01*
X133700000Y-132300405D01*
X133700000Y-132700000D01*
G37*
X133700000Y-133200000D02*
X132598400Y-133200000D01*
X132598400Y-132800491D01*
X133700000Y-132800491D01*
X133700000Y-133200000D01*
G36*
X133700000Y-133200000D02*
G01*
X132598400Y-133200000D01*
X132598400Y-132800491D01*
X133700000Y-132800491D01*
X133700000Y-133200000D01*
G37*
X137800000Y-132700000D02*
X136700340Y-132700000D01*
X136700340Y-132300069D01*
X137800000Y-132300069D01*
X137800000Y-132700000D01*
G36*
X137800000Y-132700000D02*
G01*
X136700340Y-132700000D01*
X136700340Y-132300069D01*
X137800000Y-132300069D01*
X137800000Y-132700000D01*
G37*
X137800000Y-131700000D02*
X136700530Y-131700000D01*
X136700530Y-131299752D01*
X137800000Y-131299752D01*
X137800000Y-131700000D01*
G36*
X137800000Y-131700000D02*
G01*
X136700530Y-131700000D01*
X136700530Y-131299752D01*
X137800000Y-131299752D01*
X137800000Y-131700000D01*
G37*
X137800000Y-133200000D02*
X136700660Y-133200000D01*
X136700660Y-132800351D01*
X137800000Y-132800351D01*
X137800000Y-133200000D01*
G36*
X137800000Y-133200000D02*
G01*
X136700660Y-133200000D01*
X136700660Y-132800351D01*
X137800000Y-132800351D01*
X137800000Y-133200000D01*
G37*
X137800000Y-132200000D02*
X136701650Y-132200000D01*
X136701650Y-131799780D01*
X137800000Y-131799780D01*
X137800000Y-132200000D01*
G36*
X137800000Y-132200000D02*
G01*
X136701650Y-132200000D01*
X136701650Y-131799780D01*
X137800000Y-131799780D01*
X137800000Y-132200000D01*
G37*
X137800000Y-131200000D02*
X136702300Y-131200000D01*
X136702300Y-130798160D01*
X137800000Y-130798160D01*
X137800000Y-131200000D01*
G36*
X137800000Y-131200000D02*
G01*
X136702300Y-131200000D01*
X136702300Y-130798160D01*
X137800000Y-130798160D01*
X137800000Y-131200000D01*
G37*
%TO.C,U2*%
X133460000Y-118400000D02*
X132357040Y-118400000D01*
X132357040Y-117998640D01*
X133460000Y-117998640D01*
X133460000Y-118400000D01*
G36*
X133460000Y-118400000D02*
G01*
X132357040Y-118400000D01*
X132357040Y-117998640D01*
X133460000Y-117998640D01*
X133460000Y-118400000D01*
G37*
X133460000Y-118900000D02*
X132355920Y-118900000D01*
X132355920Y-118498903D01*
X133460000Y-118498903D01*
X133460000Y-118900000D01*
G36*
X133460000Y-118900000D02*
G01*
X132355920Y-118900000D01*
X132355920Y-118498903D01*
X133460000Y-118498903D01*
X133460000Y-118900000D01*
G37*
X133460000Y-119400000D02*
X132356190Y-119400000D01*
X132356190Y-118999707D01*
X133460000Y-118999707D01*
X133460000Y-119400000D01*
G36*
X133460000Y-119400000D02*
G01*
X132356190Y-119400000D01*
X132356190Y-118999707D01*
X133460000Y-118999707D01*
X133460000Y-119400000D01*
G37*
X133460000Y-119900000D02*
X132356490Y-119900000D01*
X132356490Y-119500405D01*
X133460000Y-119500405D01*
X133460000Y-119900000D01*
G36*
X133460000Y-119900000D02*
G01*
X132356490Y-119900000D01*
X132356490Y-119500405D01*
X133460000Y-119500405D01*
X133460000Y-119900000D01*
G37*
X133460000Y-120400000D02*
X132358400Y-120400000D01*
X132358400Y-120000491D01*
X133460000Y-120000491D01*
X133460000Y-120400000D01*
G36*
X133460000Y-120400000D02*
G01*
X132358400Y-120400000D01*
X132358400Y-120000491D01*
X133460000Y-120000491D01*
X133460000Y-120400000D01*
G37*
X137560000Y-119900000D02*
X136460340Y-119900000D01*
X136460340Y-119500069D01*
X137560000Y-119500069D01*
X137560000Y-119900000D01*
G36*
X137560000Y-119900000D02*
G01*
X136460340Y-119900000D01*
X136460340Y-119500069D01*
X137560000Y-119500069D01*
X137560000Y-119900000D01*
G37*
X137560000Y-118900000D02*
X136460530Y-118900000D01*
X136460530Y-118499752D01*
X137560000Y-118499752D01*
X137560000Y-118900000D01*
G36*
X137560000Y-118900000D02*
G01*
X136460530Y-118900000D01*
X136460530Y-118499752D01*
X137560000Y-118499752D01*
X137560000Y-118900000D01*
G37*
X137560000Y-120400000D02*
X136460660Y-120400000D01*
X136460660Y-120000351D01*
X137560000Y-120000351D01*
X137560000Y-120400000D01*
G36*
X137560000Y-120400000D02*
G01*
X136460660Y-120400000D01*
X136460660Y-120000351D01*
X137560000Y-120000351D01*
X137560000Y-120400000D01*
G37*
X137560000Y-119400000D02*
X136461650Y-119400000D01*
X136461650Y-118999780D01*
X137560000Y-118999780D01*
X137560000Y-119400000D01*
G36*
X137560000Y-119400000D02*
G01*
X136461650Y-119400000D01*
X136461650Y-118999780D01*
X137560000Y-118999780D01*
X137560000Y-119400000D01*
G37*
X137560000Y-118400000D02*
X136462300Y-118400000D01*
X136462300Y-117998160D01*
X137560000Y-117998160D01*
X137560000Y-118400000D01*
G36*
X137560000Y-118400000D02*
G01*
X136462300Y-118400000D01*
X136462300Y-117998160D01*
X137560000Y-117998160D01*
X137560000Y-118400000D01*
G37*
%TD*%
D11*
%TO.C,Teensy4.1*%
X108580000Y-82190000D03*
D12*
X108580000Y-84730000D03*
X108580000Y-87270000D03*
X108580000Y-89810000D03*
X108580000Y-92350000D03*
X108580000Y-94890000D03*
X108580000Y-97430000D03*
X108580000Y-99970000D03*
X108580000Y-102510000D03*
X108580000Y-105050000D03*
X108580000Y-107590000D03*
X108580000Y-110130000D03*
X108580000Y-112670000D03*
X108580000Y-115210000D03*
X108580000Y-117750000D03*
X108580000Y-120290000D03*
X108580000Y-122830000D03*
X108580000Y-125370000D03*
X108580000Y-127910000D03*
X108580000Y-130450000D03*
X108580000Y-132990000D03*
X108580000Y-135530000D03*
X108580000Y-138070000D03*
X108580000Y-140610000D03*
X123820000Y-140610000D03*
X123820000Y-138070000D03*
X123820000Y-135530000D03*
X123820000Y-132990000D03*
X123820000Y-130450000D03*
X123820000Y-127910000D03*
X123820000Y-125370000D03*
X123820000Y-122830000D03*
X123820000Y-120290000D03*
X123820000Y-117750000D03*
X123820000Y-115210000D03*
X123820000Y-112670000D03*
X123820000Y-110130000D03*
X123820000Y-107590000D03*
X123820000Y-105050000D03*
X123820000Y-102510000D03*
X123820000Y-99970000D03*
X123820000Y-97430000D03*
X123820000Y-94890000D03*
X123820000Y-92350000D03*
X123820000Y-89810000D03*
X123820000Y-87270000D03*
X123820000Y-84730000D03*
X123820000Y-82190000D03*
%TD*%
D13*
%TO.C,R25*%
X96600000Y-119600000D03*
X96600000Y-121425000D03*
%TD*%
D14*
%TO.C,ADS1*%
X132270000Y-137725000D03*
D15*
X134810000Y-137725000D03*
X137350000Y-137725000D03*
%TD*%
D13*
%TO.C,R1*%
X138100000Y-96675000D03*
X138100000Y-98500000D03*
%TD*%
%TO.C,R30*%
X97450000Y-111687500D03*
X97450000Y-113512500D03*
%TD*%
D16*
%TO.C,Q2*%
X98962500Y-96822500D03*
X98962500Y-94922500D03*
X97087500Y-95872500D03*
%TD*%
D17*
%TO.C,Q4*%
X94000000Y-135352500D03*
D18*
X87700000Y-133072500D03*
D17*
X94000000Y-130792500D03*
%TD*%
D19*
%TO.C,D13*%
X130512500Y-79200000D03*
X132262500Y-79200000D03*
%TD*%
D20*
%TO.C,U8*%
X103587500Y-124735000D03*
X103587500Y-123465000D03*
X97212500Y-123465000D03*
X97212500Y-124735000D03*
%TD*%
D21*
%TO.C,C4*%
X134712500Y-129400000D03*
X132987500Y-129400000D03*
%TD*%
D22*
%TO.C,R33*%
X138200000Y-85100000D03*
X138200000Y-83275000D03*
%TD*%
D23*
%TO.C,D3*%
X98025000Y-76350000D03*
X98025000Y-79650000D03*
%TD*%
D13*
%TO.C,R24*%
X97200000Y-140687500D03*
X97200000Y-142512500D03*
%TD*%
%TO.C,R9*%
X131110000Y-120300000D03*
X131110000Y-122125000D03*
%TD*%
D16*
%TO.C,Q1*%
X98962500Y-83072500D03*
X98962500Y-81172500D03*
X97087500Y-82122500D03*
%TD*%
D20*
%TO.C,U7*%
X103487500Y-145735000D03*
X103487500Y-144465000D03*
X97112500Y-144465000D03*
X97112500Y-145735000D03*
%TD*%
D24*
%TO.C,R17*%
X97387500Y-85000000D03*
X99212500Y-85000000D03*
%TD*%
D25*
%TO.C,D1*%
X100525000Y-78972500D03*
X100525000Y-77222500D03*
%TD*%
D13*
%TO.C,R7*%
X131110000Y-132800000D03*
X131110000Y-134625000D03*
%TD*%
%TO.C,R23*%
X97100000Y-130087500D03*
X97100000Y-131912500D03*
%TD*%
D26*
%TO.C,BMS1*%
X130425000Y-95595000D03*
X130425000Y-96865000D03*
X130425000Y-98135000D03*
X130425000Y-99405000D03*
X135365000Y-99405000D03*
X135365000Y-98135000D03*
X135365000Y-96865000D03*
X135365000Y-95595000D03*
%TD*%
D13*
%TO.C,R13*%
X103025000Y-81247500D03*
X103025000Y-83072500D03*
%TD*%
D21*
%TO.C,C1*%
X131662500Y-101200000D03*
X129937500Y-101200000D03*
%TD*%
D13*
%TO.C,R20*%
X103600000Y-140687500D03*
X103600000Y-142512500D03*
%TD*%
D22*
%TO.C,R10*%
X131110000Y-118300000D03*
X131110000Y-116475000D03*
%TD*%
D20*
%TO.C,U6*%
X103487500Y-135435000D03*
X103487500Y-134165000D03*
X97112500Y-134165000D03*
X97112500Y-135435000D03*
%TD*%
D27*
%TO.C,D8*%
X99450000Y-111722500D03*
X99450000Y-113472500D03*
%TD*%
D28*
%TO.C,R27*%
X100912500Y-132400000D03*
X99087500Y-132400000D03*
%TD*%
%TO.C,R31*%
X136100000Y-79200000D03*
X134275000Y-79200000D03*
%TD*%
D22*
%TO.C,R32*%
X138100000Y-95000000D03*
X138100000Y-93175000D03*
%TD*%
D13*
%TO.C,R12*%
X103025000Y-91047500D03*
X103025000Y-92872500D03*
%TD*%
D26*
%TO.C,Display1*%
X130630000Y-105195000D03*
X130630000Y-106465000D03*
X130630000Y-107735000D03*
X130630000Y-109005000D03*
X135570000Y-109005000D03*
X135570000Y-107735000D03*
X135570000Y-106465000D03*
X135570000Y-105195000D03*
%TD*%
D28*
%TO.C,R2*%
X135912500Y-101200000D03*
X134087500Y-101200000D03*
%TD*%
D24*
%TO.C,R18*%
X97387500Y-98600000D03*
X99212500Y-98600000D03*
%TD*%
D28*
%TO.C,R29*%
X101112500Y-121300000D03*
X99287500Y-121300000D03*
%TD*%
D17*
%TO.C,Q6*%
X93925000Y-145952500D03*
D18*
X87625000Y-143672500D03*
D17*
X93925000Y-141392500D03*
%TD*%
%TO.C,Q5*%
X94000000Y-125007500D03*
D18*
X87700000Y-122727500D03*
D17*
X94000000Y-120447500D03*
%TD*%
D29*
%TO.C,K3*%
X89060000Y-105170800D03*
X89060000Y-108370801D03*
X89060000Y-110570802D03*
X89060000Y-112770800D03*
X94140000Y-112770800D03*
X94140000Y-110570802D03*
X94140000Y-108370801D03*
X94140000Y-105170800D03*
%TD*%
D13*
%TO.C,R11*%
X103025000Y-77147500D03*
X103025000Y-78972500D03*
%TD*%
%TO.C,R26*%
X100200000Y-103487500D03*
X100200000Y-105312500D03*
%TD*%
D30*
%TO.C,D7*%
X101075000Y-147700000D03*
X99325000Y-147700000D03*
%TD*%
D23*
%TO.C,D4*%
X98025000Y-90322500D03*
X98025000Y-93622500D03*
%TD*%
D31*
%TO.C,U9*%
X102835000Y-107785000D03*
X101565000Y-107785000D03*
X101565000Y-114160000D03*
X102835000Y-114160000D03*
%TD*%
D28*
%TO.C,R6*%
X136095000Y-110750000D03*
X134270000Y-110750000D03*
%TD*%
D30*
%TO.C,D6*%
X101200000Y-126700000D03*
X99450000Y-126700000D03*
%TD*%
D21*
%TO.C,C5*%
X134610000Y-116500000D03*
X132885000Y-116500000D03*
%TD*%
D28*
%TO.C,R4*%
X136045000Y-91300000D03*
X134220000Y-91300000D03*
%TD*%
D13*
%TO.C,R22*%
X102600000Y-103487500D03*
X102600000Y-105312500D03*
%TD*%
D22*
%TO.C,R8*%
X131110000Y-131250000D03*
X131110000Y-129425000D03*
%TD*%
D13*
%TO.C,R5*%
X138200000Y-106187500D03*
X138200000Y-108012500D03*
%TD*%
D32*
%TO.C,D11*%
X101600000Y-119200000D03*
X98300000Y-119200000D03*
%TD*%
D33*
%TO.C,C2*%
X130220000Y-91300000D03*
X131945000Y-91300000D03*
%TD*%
D29*
%TO.C,K1*%
X88945000Y-77472500D03*
X88945000Y-80672501D03*
X88945000Y-82872502D03*
X88945000Y-85072500D03*
X94025000Y-85072500D03*
X94025000Y-82872502D03*
X94025000Y-80672501D03*
X94025000Y-77472500D03*
%TD*%
D30*
%TO.C,D5*%
X101175000Y-137300000D03*
X99425000Y-137300000D03*
%TD*%
D34*
%TO.C,Q3*%
X99650000Y-107535000D03*
X97750000Y-107535000D03*
X98700000Y-109410000D03*
%TD*%
D22*
%TO.C,R34*%
X138200000Y-104500000D03*
X138200000Y-102675000D03*
%TD*%
D33*
%TO.C,C3*%
X130137500Y-110800000D03*
X131862500Y-110800000D03*
%TD*%
D14*
%TO.C,ADS2*%
X132170000Y-125000000D03*
D15*
X134710000Y-125000000D03*
X137250000Y-125000000D03*
%TD*%
D13*
%TO.C,R15*%
X103025000Y-94960000D03*
X103025000Y-96785000D03*
%TD*%
D32*
%TO.C,D10*%
X101650000Y-130400000D03*
X98350000Y-130400000D03*
%TD*%
D23*
%TO.C,D9*%
X97400000Y-102350000D03*
X97400000Y-105650000D03*
%TD*%
D13*
%TO.C,R19*%
X103200000Y-130087500D03*
X103200000Y-131912500D03*
%TD*%
%TO.C,R21*%
X103200000Y-119475000D03*
X103200000Y-121300000D03*
%TD*%
D32*
%TO.C,D12*%
X102000000Y-140400000D03*
X98700000Y-140400000D03*
%TD*%
D25*
%TO.C,D2*%
X100525000Y-92872500D03*
X100525000Y-91122500D03*
%TD*%
D26*
%TO.C,ECU1*%
X130580000Y-85795000D03*
X130580000Y-87065000D03*
X130580000Y-88335000D03*
X130580000Y-89605000D03*
X135520000Y-89605000D03*
X135520000Y-88335000D03*
X135520000Y-87065000D03*
X135520000Y-85795000D03*
%TD*%
D29*
%TO.C,K2*%
X88945000Y-91472500D03*
X88945000Y-94672501D03*
X88945000Y-96872502D03*
X88945000Y-99072500D03*
X94025000Y-99072500D03*
X94025000Y-96872502D03*
X94025000Y-94672501D03*
X94025000Y-91472500D03*
%TD*%
D22*
%TO.C,R14*%
X101025000Y-83072500D03*
X101025000Y-81247500D03*
%TD*%
%TO.C,R16*%
X101025000Y-96785000D03*
X101025000Y-94960000D03*
%TD*%
D28*
%TO.C,R28*%
X101112500Y-142400000D03*
X99287500Y-142400000D03*
%TD*%
D13*
%TO.C,R3*%
X138200000Y-86787500D03*
X138200000Y-88612500D03*
%TD*%
D14*
%TO.C,J2*%
X144000000Y-78000000D03*
D15*
X144000000Y-80540000D03*
X144000000Y-83080000D03*
X144000000Y-85620000D03*
X144000000Y-88160000D03*
X144000000Y-90700000D03*
X144000000Y-93240000D03*
X144000000Y-95780000D03*
X144000000Y-98320000D03*
X144000000Y-100860000D03*
X144000000Y-103400000D03*
X144000000Y-105940000D03*
X144000000Y-108480000D03*
X144000000Y-111020000D03*
X144000000Y-113560000D03*
X144000000Y-116100000D03*
X144000000Y-118640000D03*
X144000000Y-121180000D03*
X144000000Y-123720000D03*
X144000000Y-126260000D03*
X144000000Y-128800000D03*
X144000000Y-131340000D03*
X144000000Y-133880000D03*
X144000000Y-136420000D03*
X144000000Y-138960000D03*
X144000000Y-141500000D03*
X144000000Y-144040000D03*
X144000000Y-146580000D03*
%TD*%
D14*
%TO.C,J1*%
X80000000Y-78000000D03*
D15*
X80000000Y-80540000D03*
X80000000Y-83080000D03*
X80000000Y-85620000D03*
X80000000Y-88160000D03*
X80000000Y-90700000D03*
X80000000Y-93240000D03*
X80000000Y-95780000D03*
X80000000Y-98320000D03*
X80000000Y-100860000D03*
X80000000Y-103400000D03*
X80000000Y-105940000D03*
X80000000Y-108480000D03*
X80000000Y-111020000D03*
X80000000Y-113560000D03*
X80000000Y-116100000D03*
X80000000Y-118640000D03*
X80000000Y-121180000D03*
X80000000Y-123720000D03*
X80000000Y-126260000D03*
X80000000Y-128800000D03*
X80000000Y-131340000D03*
X80000000Y-133880000D03*
X80000000Y-136420000D03*
X80000000Y-138960000D03*
X80000000Y-141500000D03*
X80000000Y-144040000D03*
X80000000Y-146580000D03*
%TD*%
M02*
